<?xml version="1.0" encoding="UTF-8"?>
<svg xmlns="http://www.w3.org/2000/svg" xmlns:xlink="http://www.w3.org/1999/xlink" width="300pt" height="200pt" viewBox="0 0 300 200" version="1.1">
<g id="surface1">
<rect x="0" y="0" width="300" height="200" style="fill:rgb(80%,80%,80%);fill-opacity:1;stroke:none;"/>
<path style="fill:none;stroke-width:1;stroke-linecap:butt;stroke-linejoin:miter;stroke:rgb(0%,0%,0%);stroke-opacity:1;stroke-miterlimit:10;" d="M 10 10 L 10 1010 "/>
<path style="fill:none;stroke-width:1;stroke-linecap:butt;stroke-linejoin:miter;stroke:rgb(0%,0%,0%);stroke-opacity:1;stroke-miterlimit:10;" d="M 160 10 L 160 1010 "/>
<path style="fill:none;stroke-width:1;stroke-linecap:butt;stroke-linejoin:miter;stroke:rgb(0%,0%,0%);stroke-opacity:1;stroke-miterlimit:10;" d="M 10 110 L 10 1110 "/>
<path style="fill:none;stroke-width:1;stroke-linecap:butt;stroke-linejoin:miter;stroke:rgb(0%,0%,0%);stroke-opacity:1;stroke-miterlimit:10;" d="M 10 10 L 1010 10 "/>
<path style="fill:none;stroke-width:1;stroke-linecap:butt;stroke-linejoin:miter;stroke:rgb(0%,0%,0%);stroke-opacity:1;stroke-miterlimit:10;" d="M 160 10 L 1160 10 "/>
<path style="fill:none;stroke-width:1;stroke-linecap:butt;stroke-linejoin:miter;stroke:rgb(0%,0%,0%);stroke-opacity:1;stroke-miterlimit:10;" d="M 10 110 L 1010 110 "/>
<path style=" stroke:none;fill-rule:nonzero;fill:rgb(100%,0%,0%);fill-opacity:1;" d="M 76.300781 28.132812 C 76.300781 31.332031 71.5 31.332031 71.5 28.132812 C 71.5 24.933594 76.300781 24.933594 76.300781 28.132812 "/>
<path style=" stroke:none;fill-rule:nonzero;fill:rgb(100%,0%,0%);fill-opacity:1;" d="M 63.519531 28.132812 C 63.519531 31.332031 58.71875 31.332031 58.71875 28.132812 C 58.71875 24.933594 63.519531 24.933594 63.519531 28.132812 "/>
<path style=" stroke:none;fill-rule:nonzero;fill:rgb(100%,0%,0%);fill-opacity:1;" d="M 121.03125 34.523438 C 121.03125 37.722656 116.230469 37.722656 116.230469 34.523438 C 116.230469 31.324219 121.03125 31.324219 121.03125 34.523438 "/>
<path style=" stroke:none;fill-rule:nonzero;fill:rgb(100%,0%,0%);fill-opacity:1;" d="M 121.03125 34.523438 C 121.03125 37.722656 116.230469 37.722656 116.230469 34.523438 C 116.230469 31.324219 121.03125 31.324219 121.03125 34.523438 "/>
<path style=" stroke:none;fill-rule:nonzero;fill:rgb(0%,0%,100%);fill-opacity:1;" d="M 69.511719 72.863281 C 69.511719 75.53125 65.511719 75.53125 65.511719 72.863281 C 65.511719 70.195312 69.511719 70.195312 69.511719 72.863281 "/>
<path style=" stroke:none;fill-rule:nonzero;fill:rgb(0%,0%,100%);fill-opacity:1;" d="M 88.679688 66.472656 C 88.679688 69.140625 84.679688 69.140625 84.679688 66.472656 C 84.679688 63.804688 88.679688 63.804688 88.679688 66.472656 "/>
<path style=" stroke:none;fill-rule:nonzero;fill:rgb(0%,0%,100%);fill-opacity:1;" d="M 50.339844 66.472656 C 50.339844 69.140625 46.339844 69.140625 46.339844 66.472656 C 46.339844 63.804688 50.339844 63.804688 50.339844 66.472656 "/>
<path style=" stroke:none;fill-rule:nonzero;fill:rgb(0%,0%,100%);fill-opacity:1;" d="M 82.289062 47.304688 C 82.289062 49.96875 78.289062 49.96875 78.289062 47.304688 C 78.289062 44.636719 82.289062 44.636719 82.289062 47.304688 "/>
<path style=" stroke:none;fill-rule:nonzero;fill:rgb(0%,0%,100%);fill-opacity:1;" d="M 56.730469 47.304688 C 56.730469 49.96875 52.730469 49.96875 52.730469 47.304688 C 52.730469 44.636719 56.730469 44.636719 56.730469 47.304688 "/>
<path style=" stroke:none;fill-rule:nonzero;fill:rgb(0%,0%,100%);fill-opacity:1;" d="M 69.511719 72.863281 C 69.511719 75.53125 65.511719 75.53125 65.511719 72.863281 C 65.511719 70.195312 69.511719 70.195312 69.511719 72.863281 "/>
<path style=" stroke:none;fill-rule:nonzero;fill:rgb(0%,0%,100%);fill-opacity:1;" d="M 88.679688 66.472656 C 88.679688 69.140625 84.679688 69.140625 84.679688 66.472656 C 84.679688 63.804688 88.679688 63.804688 88.679688 66.472656 "/>
<path style=" stroke:none;fill-rule:nonzero;fill:rgb(0%,0%,100%);fill-opacity:1;" d="M 50.339844 66.472656 C 50.339844 69.140625 46.339844 69.140625 46.339844 66.472656 C 46.339844 63.804688 50.339844 63.804688 50.339844 66.472656 "/>
<path style=" stroke:none;fill-rule:nonzero;fill:rgb(0%,0%,100%);fill-opacity:1;" d="M 82.289062 47.304688 C 82.289062 49.96875 78.289062 49.96875 78.289062 47.304688 C 78.289062 44.636719 82.289062 44.636719 82.289062 47.304688 "/>
<path style=" stroke:none;fill-rule:nonzero;fill:rgb(0%,0%,100%);fill-opacity:1;" d="M 56.730469 47.304688 C 56.730469 49.96875 52.730469 49.96875 52.730469 47.304688 C 52.730469 44.636719 56.730469 44.636719 56.730469 47.304688 "/>
<path style=" stroke:none;fill-rule:nonzero;fill:rgb(0%,0%,100%);fill-opacity:1;" d="M 63.121094 28.132812 C 63.121094 30.800781 59.121094 30.800781 59.121094 28.132812 C 59.121094 25.464844 63.121094 25.464844 63.121094 28.132812 "/>
<path style=" stroke:none;fill-rule:nonzero;fill:rgb(0%,0%,100%);fill-opacity:1;" d="M 75.898438 28.132812 C 75.898438 30.800781 71.898438 30.800781 71.898438 28.132812 C 71.898438 25.464844 75.898438 25.464844 75.898438 28.132812 "/>
<path style=" stroke:none;fill-rule:nonzero;fill:rgb(0%,0%,100%);fill-opacity:1;" d="M 107.851562 60.082031 C 107.851562 62.75 103.851562 62.75 103.851562 60.082031 C 103.851562 57.417969 107.851562 57.417969 107.851562 60.082031 "/>
<path style=" stroke:none;fill-rule:nonzero;fill:rgb(0%,0%,100%);fill-opacity:1;" d="M 31.171875 60.082031 C 31.171875 62.75 27.171875 62.75 27.171875 60.082031 C 27.171875 57.417969 31.171875 57.417969 31.171875 60.082031 "/>
<path style=" stroke:none;fill-rule:nonzero;fill:rgb(0%,0%,100%);fill-opacity:1;" d="M 101.460938 40.914062 C 101.460938 43.578125 97.460938 43.578125 97.460938 40.914062 C 97.460938 38.246094 101.460938 38.246094 101.460938 40.914062 "/>
<path style=" stroke:none;fill-rule:nonzero;fill:rgb(0%,0%,100%);fill-opacity:1;" d="M 37.558594 40.914062 C 37.558594 43.578125 33.558594 43.578125 33.558594 40.914062 C 33.558594 38.246094 37.558594 38.246094 37.558594 40.914062 "/>
<path style=" stroke:none;fill-rule:nonzero;fill:rgb(0%,0%,100%);fill-opacity:1;" d="M 12 53.691406 C 12 56.359375 8 56.359375 8 53.691406 C 8 51.027344 12 51.027344 12 53.691406 "/>
<path style=" stroke:none;fill-rule:nonzero;fill:rgb(0%,0%,100%);fill-opacity:1;" d="M 18.390625 34.523438 C 18.390625 37.191406 14.390625 37.191406 14.390625 34.523438 C 14.390625 31.855469 18.390625 31.855469 18.390625 34.523438 "/>
<path style=" stroke:none;fill-rule:nonzero;fill:rgb(0%,0%,100%);fill-opacity:1;" d="M 107.851562 60.082031 C 107.851562 62.75 103.851562 62.75 103.851562 60.082031 C 103.851562 57.417969 107.851562 57.417969 107.851562 60.082031 "/>
<path style=" stroke:none;fill-rule:nonzero;fill:rgb(0%,0%,100%);fill-opacity:1;" d="M 31.171875 60.082031 C 31.171875 62.75 27.171875 62.75 27.171875 60.082031 C 27.171875 57.417969 31.171875 57.417969 31.171875 60.082031 "/>
<path style=" stroke:none;fill-rule:nonzero;fill:rgb(0%,0%,100%);fill-opacity:1;" d="M 101.460938 40.914062 C 101.460938 43.578125 97.460938 43.578125 97.460938 40.914062 C 97.460938 38.246094 101.460938 38.246094 101.460938 40.914062 "/>
<path style=" stroke:none;fill-rule:nonzero;fill:rgb(0%,0%,100%);fill-opacity:1;" d="M 37.558594 40.914062 C 37.558594 43.578125 33.558594 43.578125 33.558594 40.914062 C 33.558594 38.246094 37.558594 38.246094 37.558594 40.914062 "/>
<path style=" stroke:none;fill-rule:nonzero;fill:rgb(0%,0%,100%);fill-opacity:1;" d="M 12 53.691406 C 12 56.359375 8 56.359375 8 53.691406 C 8 51.027344 12 51.027344 12 53.691406 "/>
<path style=" stroke:none;fill-rule:nonzero;fill:rgb(0%,0%,100%);fill-opacity:1;" d="M 18.390625 34.523438 C 18.390625 37.191406 14.390625 37.191406 14.390625 34.523438 C 14.390625 31.855469 18.390625 31.855469 18.390625 34.523438 "/>
<path style=" stroke:none;fill-rule:nonzero;fill:rgb(0%,0%,100%);fill-opacity:1;" d="M 95.070312 21.742188 C 95.070312 24.410156 91.070312 24.410156 91.070312 21.742188 C 91.070312 19.078125 95.070312 19.078125 95.070312 21.742188 "/>
<path style=" stroke:none;fill-rule:nonzero;fill:rgb(0%,0%,100%);fill-opacity:1;" d="M 43.949219 21.742188 C 43.949219 24.410156 39.949219 24.410156 39.949219 21.742188 C 39.949219 19.078125 43.949219 19.078125 43.949219 21.742188 "/>
<path style=" stroke:none;fill-rule:nonzero;fill:rgb(0%,0%,100%);fill-opacity:1;" d="M 114.242188 15.351562 C 114.242188 18.019531 110.242188 18.019531 110.242188 15.351562 C 110.242188 12.6875 114.242188 12.6875 114.242188 15.351562 "/>
<path style=" stroke:none;fill-rule:nonzero;fill:rgb(0%,0%,100%);fill-opacity:1;" d="M 24.78125 15.351562 C 24.78125 18.019531 20.78125 18.019531 20.78125 15.351562 C 20.78125 12.6875 24.78125 12.6875 24.78125 15.351562 "/>
<path style=" stroke:none;fill-rule:nonzero;fill:rgb(0%,0%,100%);fill-opacity:1;" d="M 95.070312 21.742188 C 95.070312 24.410156 91.070312 24.410156 91.070312 21.742188 C 91.070312 19.078125 95.070312 19.078125 95.070312 21.742188 "/>
<path style=" stroke:none;fill-rule:nonzero;fill:rgb(0%,0%,100%);fill-opacity:1;" d="M 43.949219 21.742188 C 43.949219 24.410156 39.949219 24.410156 39.949219 21.742188 C 39.949219 19.078125 43.949219 19.078125 43.949219 21.742188 "/>
<path style=" stroke:none;fill-rule:nonzero;fill:rgb(0%,0%,100%);fill-opacity:1;" d="M 114.242188 15.351562 C 114.242188 18.019531 110.242188 18.019531 110.242188 15.351562 C 110.242188 12.6875 114.242188 12.6875 114.242188 15.351562 "/>
<path style=" stroke:none;fill-rule:nonzero;fill:rgb(0%,0%,100%);fill-opacity:1;" d="M 24.78125 15.351562 C 24.78125 18.019531 20.78125 18.019531 20.78125 15.351562 C 20.78125 12.6875 24.78125 12.6875 24.78125 15.351562 "/>
<path style=" stroke:none;fill-rule:nonzero;fill:rgb(100%,0%,0%);fill-opacity:1;" d="M 76.300781 130.207031 C 76.300781 133.40625 71.5 133.40625 71.5 130.207031 C 71.5 127.007812 76.300781 127.007812 76.300781 130.207031 "/>
<path style=" stroke:none;fill-rule:nonzero;fill:rgb(100%,0%,0%);fill-opacity:1;" d="M 63.519531 170.621094 C 63.519531 173.820312 58.71875 173.820312 58.71875 170.621094 C 58.71875 167.421875 63.519531 167.421875 63.519531 170.621094 "/>
<path style=" stroke:none;fill-rule:nonzero;fill:rgb(100%,0%,0%);fill-opacity:1;" d="M 121.03125 110 C 121.03125 113.199219 116.230469 113.199219 116.230469 110 C 116.230469 106.800781 121.03125 106.800781 121.03125 110 "/>
<path style=" stroke:none;fill-rule:nonzero;fill:rgb(100%,0%,0%);fill-opacity:1;" d="M 121.03125 150.414062 C 121.03125 153.613281 116.230469 153.613281 116.230469 150.414062 C 116.230469 147.214844 121.03125 147.214844 121.03125 150.414062 "/>
<path style=" stroke:none;fill-rule:nonzero;fill:rgb(0%,0%,100%);fill-opacity:1;" d="M 69.511719 110 C 69.511719 112.667969 65.511719 112.667969 65.511719 110 C 65.511719 107.332031 69.511719 107.332031 69.511719 110 "/>
<path style=" stroke:none;fill-rule:nonzero;fill:rgb(0%,0%,100%);fill-opacity:1;" d="M 88.679688 130.207031 C 88.679688 132.875 84.679688 132.875 84.679688 130.207031 C 84.679688 127.539062 88.679688 127.539062 88.679688 130.207031 "/>
<path style=" stroke:none;fill-rule:nonzero;fill:rgb(0%,0%,100%);fill-opacity:1;" d="M 50.339844 130.207031 C 50.339844 132.875 46.339844 132.875 46.339844 130.207031 C 46.339844 127.539062 50.339844 127.539062 50.339844 130.207031 "/>
<path style=" stroke:none;fill-rule:nonzero;fill:rgb(0%,0%,100%);fill-opacity:1;" d="M 82.289062 110 C 82.289062 112.667969 78.289062 112.667969 78.289062 110 C 78.289062 107.332031 82.289062 107.332031 82.289062 110 "/>
<path style=" stroke:none;fill-rule:nonzero;fill:rgb(0%,0%,100%);fill-opacity:1;" d="M 56.730469 110 C 56.730469 112.667969 52.730469 112.667969 52.730469 110 C 52.730469 107.332031 56.730469 107.332031 56.730469 110 "/>
<path style=" stroke:none;fill-rule:nonzero;fill:rgb(0%,0%,100%);fill-opacity:1;" d="M 69.511719 150.414062 C 69.511719 153.082031 65.511719 153.082031 65.511719 150.414062 C 65.511719 147.746094 69.511719 147.746094 69.511719 150.414062 "/>
<path style=" stroke:none;fill-rule:nonzero;fill:rgb(0%,0%,100%);fill-opacity:1;" d="M 88.679688 170.621094 C 88.679688 173.289062 84.679688 173.289062 84.679688 170.621094 C 84.679688 167.953125 88.679688 167.953125 88.679688 170.621094 "/>
<path style=" stroke:none;fill-rule:nonzero;fill:rgb(0%,0%,100%);fill-opacity:1;" d="M 50.339844 170.621094 C 50.339844 173.289062 46.339844 173.289062 46.339844 170.621094 C 46.339844 167.953125 50.339844 167.953125 50.339844 170.621094 "/>
<path style=" stroke:none;fill-rule:nonzero;fill:rgb(0%,0%,100%);fill-opacity:1;" d="M 82.289062 150.414062 C 82.289062 153.082031 78.289062 153.082031 78.289062 150.414062 C 78.289062 147.746094 82.289062 147.746094 82.289062 150.414062 "/>
<path style=" stroke:none;fill-rule:nonzero;fill:rgb(0%,0%,100%);fill-opacity:1;" d="M 56.730469 150.414062 C 56.730469 153.082031 52.730469 153.082031 52.730469 150.414062 C 52.730469 147.746094 56.730469 147.746094 56.730469 150.414062 "/>
<path style=" stroke:none;fill-rule:nonzero;fill:rgb(0%,0%,100%);fill-opacity:1;" d="M 63.121094 130.207031 C 63.121094 132.875 59.121094 132.875 59.121094 130.207031 C 59.121094 127.539062 63.121094 127.539062 63.121094 130.207031 "/>
<path style=" stroke:none;fill-rule:nonzero;fill:rgb(0%,0%,100%);fill-opacity:1;" d="M 75.898438 170.621094 C 75.898438 173.289062 71.898438 173.289062 71.898438 170.621094 C 71.898438 167.953125 75.898438 167.953125 75.898438 170.621094 "/>
<path style=" stroke:none;fill-rule:nonzero;fill:rgb(0%,0%,100%);fill-opacity:1;" d="M 107.851562 110 C 107.851562 112.667969 103.851562 112.667969 103.851562 110 C 103.851562 107.332031 107.851562 107.332031 107.851562 110 "/>
<path style=" stroke:none;fill-rule:nonzero;fill:rgb(0%,0%,100%);fill-opacity:1;" d="M 31.171875 110 C 31.171875 112.667969 27.171875 112.667969 27.171875 110 C 27.171875 107.332031 31.171875 107.332031 31.171875 110 "/>
<path style=" stroke:none;fill-rule:nonzero;fill:rgb(0%,0%,100%);fill-opacity:1;" d="M 101.460938 130.207031 C 101.460938 132.875 97.460938 132.875 97.460938 130.207031 C 97.460938 127.539062 101.460938 127.539062 101.460938 130.207031 "/>
<path style=" stroke:none;fill-rule:nonzero;fill:rgb(0%,0%,100%);fill-opacity:1;" d="M 37.558594 130.207031 C 37.558594 132.875 33.558594 132.875 33.558594 130.207031 C 33.558594 127.539062 37.558594 127.539062 37.558594 130.207031 "/>
<path style=" stroke:none;fill-rule:nonzero;fill:rgb(0%,0%,100%);fill-opacity:1;" d="M 12 130.207031 C 12 132.875 8 132.875 8 130.207031 C 8 127.539062 12 127.539062 12 130.207031 "/>
<path style=" stroke:none;fill-rule:nonzero;fill:rgb(0%,0%,100%);fill-opacity:1;" d="M 18.390625 110 C 18.390625 112.667969 14.390625 112.667969 14.390625 110 C 14.390625 107.332031 18.390625 107.332031 18.390625 110 "/>
<path style=" stroke:none;fill-rule:nonzero;fill:rgb(0%,0%,100%);fill-opacity:1;" d="M 107.851562 150.414062 C 107.851562 153.082031 103.851562 153.082031 103.851562 150.414062 C 103.851562 147.746094 107.851562 147.746094 107.851562 150.414062 "/>
<path style=" stroke:none;fill-rule:nonzero;fill:rgb(0%,0%,100%);fill-opacity:1;" d="M 31.171875 150.414062 C 31.171875 153.082031 27.171875 153.082031 27.171875 150.414062 C 27.171875 147.746094 31.171875 147.746094 31.171875 150.414062 "/>
<path style=" stroke:none;fill-rule:nonzero;fill:rgb(0%,0%,100%);fill-opacity:1;" d="M 101.460938 170.621094 C 101.460938 173.289062 97.460938 173.289062 97.460938 170.621094 C 97.460938 167.953125 101.460938 167.953125 101.460938 170.621094 "/>
<path style=" stroke:none;fill-rule:nonzero;fill:rgb(0%,0%,100%);fill-opacity:1;" d="M 37.558594 170.621094 C 37.558594 173.289062 33.558594 173.289062 33.558594 170.621094 C 33.558594 167.953125 37.558594 167.953125 37.558594 170.621094 "/>
<path style=" stroke:none;fill-rule:nonzero;fill:rgb(0%,0%,100%);fill-opacity:1;" d="M 12 170.621094 C 12 173.289062 8 173.289062 8 170.621094 C 8 167.953125 12 167.953125 12 170.621094 "/>
<path style=" stroke:none;fill-rule:nonzero;fill:rgb(0%,0%,100%);fill-opacity:1;" d="M 18.390625 150.414062 C 18.390625 153.082031 14.390625 153.082031 14.390625 150.414062 C 14.390625 147.746094 18.390625 147.746094 18.390625 150.414062 "/>
<path style=" stroke:none;fill-rule:nonzero;fill:rgb(0%,0%,100%);fill-opacity:1;" d="M 95.070312 110 C 95.070312 112.667969 91.070312 112.667969 91.070312 110 C 91.070312 107.332031 95.070312 107.332031 95.070312 110 "/>
<path style=" stroke:none;fill-rule:nonzero;fill:rgb(0%,0%,100%);fill-opacity:1;" d="M 43.949219 110 C 43.949219 112.667969 39.949219 112.667969 39.949219 110 C 39.949219 107.332031 43.949219 107.332031 43.949219 110 "/>
<path style=" stroke:none;fill-rule:nonzero;fill:rgb(0%,0%,100%);fill-opacity:1;" d="M 114.242188 130.207031 C 114.242188 132.875 110.242188 132.875 110.242188 130.207031 C 110.242188 127.539062 114.242188 127.539062 114.242188 130.207031 "/>
<path style=" stroke:none;fill-rule:nonzero;fill:rgb(0%,0%,100%);fill-opacity:1;" d="M 24.78125 130.207031 C 24.78125 132.875 20.78125 132.875 20.78125 130.207031 C 20.78125 127.539062 24.78125 127.539062 24.78125 130.207031 "/>
<path style=" stroke:none;fill-rule:nonzero;fill:rgb(0%,0%,100%);fill-opacity:1;" d="M 95.070312 150.414062 C 95.070312 153.082031 91.070312 153.082031 91.070312 150.414062 C 91.070312 147.746094 95.070312 147.746094 95.070312 150.414062 "/>
<path style=" stroke:none;fill-rule:nonzero;fill:rgb(0%,0%,100%);fill-opacity:1;" d="M 43.949219 150.414062 C 43.949219 153.082031 39.949219 153.082031 39.949219 150.414062 C 39.949219 147.746094 43.949219 147.746094 43.949219 150.414062 "/>
<path style=" stroke:none;fill-rule:nonzero;fill:rgb(0%,0%,100%);fill-opacity:1;" d="M 114.242188 170.621094 C 114.242188 173.289062 110.242188 173.289062 110.242188 170.621094 C 110.242188 167.953125 114.242188 167.953125 114.242188 170.621094 "/>
<path style=" stroke:none;fill-rule:nonzero;fill:rgb(0%,0%,100%);fill-opacity:1;" d="M 24.78125 170.621094 C 24.78125 173.289062 20.78125 173.289062 20.78125 170.621094 C 20.78125 167.953125 24.78125 167.953125 24.78125 170.621094 "/>
<path style=" stroke:none;fill-rule:nonzero;fill:rgb(100%,0%,0%);fill-opacity:1;" d="M 207.128906 130.207031 C 207.128906 133.40625 202.332031 133.40625 202.332031 130.207031 C 202.332031 127.007812 207.128906 127.007812 207.128906 130.207031 "/>
<path style=" stroke:none;fill-rule:nonzero;fill:rgb(100%,0%,0%);fill-opacity:1;" d="M 207.128906 170.621094 C 207.128906 173.820312 202.332031 173.820312 202.332031 170.621094 C 202.332031 167.421875 207.128906 167.421875 207.128906 170.621094 "/>
<path style=" stroke:none;fill-rule:nonzero;fill:rgb(100%,0%,0%);fill-opacity:1;" d="M 200.738281 110 C 200.738281 113.199219 195.941406 113.199219 195.941406 110 C 195.941406 106.800781 200.738281 106.800781 200.738281 110 "/>
<path style=" stroke:none;fill-rule:nonzero;fill:rgb(100%,0%,0%);fill-opacity:1;" d="M 200.738281 150.414062 C 200.738281 153.613281 195.941406 153.613281 195.941406 150.414062 C 195.941406 147.214844 200.738281 147.214844 200.738281 150.414062 "/>
<path style=" stroke:none;fill-rule:nonzero;fill:rgb(0%,0%,100%);fill-opacity:1;" d="M 162 110 C 162 112.667969 158 112.667969 158 110 C 158 107.332031 162 107.332031 162 110 "/>
<path style=" stroke:none;fill-rule:nonzero;fill:rgb(0%,0%,100%);fill-opacity:1;" d="M 168.390625 130.207031 C 168.390625 132.875 164.390625 132.875 164.390625 130.207031 C 164.390625 127.539062 168.390625 127.539062 168.390625 130.207031 "/>
<path style=" stroke:none;fill-rule:nonzero;fill:rgb(0%,0%,100%);fill-opacity:1;" d="M 168.390625 130.207031 C 168.390625 132.875 164.390625 132.875 164.390625 130.207031 C 164.390625 127.539062 168.390625 127.539062 168.390625 130.207031 "/>
<path style=" stroke:none;fill-rule:nonzero;fill:rgb(0%,0%,100%);fill-opacity:1;" d="M 187.558594 110 C 187.558594 112.667969 183.558594 112.667969 183.558594 110 C 183.558594 107.332031 187.558594 107.332031 187.558594 110 "/>
<path style=" stroke:none;fill-rule:nonzero;fill:rgb(0%,0%,100%);fill-opacity:1;" d="M 187.558594 110 C 187.558594 112.667969 183.558594 112.667969 183.558594 110 C 183.558594 107.332031 187.558594 107.332031 187.558594 110 "/>
<path style=" stroke:none;fill-rule:nonzero;fill:rgb(0%,0%,100%);fill-opacity:1;" d="M 162 150.414062 C 162 153.082031 158 153.082031 158 150.414062 C 158 147.746094 162 147.746094 162 150.414062 "/>
<path style=" stroke:none;fill-rule:nonzero;fill:rgb(0%,0%,100%);fill-opacity:1;" d="M 168.390625 170.621094 C 168.390625 173.289062 164.390625 173.289062 164.390625 170.621094 C 164.390625 167.953125 168.390625 167.953125 168.390625 170.621094 "/>
<path style=" stroke:none;fill-rule:nonzero;fill:rgb(0%,0%,100%);fill-opacity:1;" d="M 168.390625 170.621094 C 168.390625 173.289062 164.390625 173.289062 164.390625 170.621094 C 164.390625 167.953125 168.390625 167.953125 168.390625 170.621094 "/>
<path style=" stroke:none;fill-rule:nonzero;fill:rgb(0%,0%,100%);fill-opacity:1;" d="M 187.558594 150.414062 C 187.558594 153.082031 183.558594 153.082031 183.558594 150.414062 C 183.558594 147.746094 187.558594 147.746094 187.558594 150.414062 "/>
<path style=" stroke:none;fill-rule:nonzero;fill:rgb(0%,0%,100%);fill-opacity:1;" d="M 187.558594 150.414062 C 187.558594 153.082031 183.558594 153.082031 183.558594 150.414062 C 183.558594 147.746094 187.558594 147.746094 187.558594 150.414062 "/>
<path style=" stroke:none;fill-rule:nonzero;fill:rgb(0%,0%,100%);fill-opacity:1;" d="M 206.730469 130.207031 C 206.730469 132.875 202.730469 132.875 202.730469 130.207031 C 202.730469 127.539062 206.730469 127.539062 206.730469 130.207031 "/>
<path style=" stroke:none;fill-rule:nonzero;fill:rgb(0%,0%,100%);fill-opacity:1;" d="M 206.730469 170.621094 C 206.730469 173.289062 202.730469 173.289062 202.730469 170.621094 C 202.730469 167.953125 206.730469 167.953125 206.730469 170.621094 "/>
<path style=" stroke:none;fill-rule:nonzero;fill:rgb(0%,0%,100%);fill-opacity:1;" d="M 174.78125 110 C 174.78125 112.667969 170.78125 112.667969 170.78125 110 C 170.78125 107.332031 174.78125 107.332031 174.78125 110 "/>
<path style=" stroke:none;fill-rule:nonzero;fill:rgb(0%,0%,100%);fill-opacity:1;" d="M 174.78125 110 C 174.78125 112.667969 170.78125 112.667969 170.78125 110 C 170.78125 107.332031 174.78125 107.332031 174.78125 110 "/>
<path style=" stroke:none;fill-rule:nonzero;fill:rgb(0%,0%,100%);fill-opacity:1;" d="M 193.949219 130.207031 C 193.949219 132.875 189.949219 132.875 189.949219 130.207031 C 189.949219 127.539062 193.949219 127.539062 193.949219 130.207031 "/>
<path style=" stroke:none;fill-rule:nonzero;fill:rgb(0%,0%,100%);fill-opacity:1;" d="M 193.949219 130.207031 C 193.949219 132.875 189.949219 132.875 189.949219 130.207031 C 189.949219 127.539062 193.949219 127.539062 193.949219 130.207031 "/>
<path style=" stroke:none;fill-rule:nonzero;fill:rgb(0%,0%,100%);fill-opacity:1;" d="M 181.171875 130.207031 C 181.171875 132.875 177.171875 132.875 177.171875 130.207031 C 177.171875 127.539062 181.171875 127.539062 181.171875 130.207031 "/>
<path style=" stroke:none;fill-rule:nonzero;fill:rgb(0%,0%,100%);fill-opacity:1;" d="M 200.339844 110 C 200.339844 112.667969 196.339844 112.667969 196.339844 110 C 196.339844 107.332031 200.339844 107.332031 200.339844 110 "/>
<path style=" stroke:none;fill-rule:nonzero;fill:rgb(0%,0%,100%);fill-opacity:1;" d="M 174.78125 150.414062 C 174.78125 153.082031 170.78125 153.082031 170.78125 150.414062 C 170.78125 147.746094 174.78125 147.746094 174.78125 150.414062 "/>
<path style=" stroke:none;fill-rule:nonzero;fill:rgb(0%,0%,100%);fill-opacity:1;" d="M 174.78125 150.414062 C 174.78125 153.082031 170.78125 153.082031 170.78125 150.414062 C 170.78125 147.746094 174.78125 147.746094 174.78125 150.414062 "/>
<path style=" stroke:none;fill-rule:nonzero;fill:rgb(0%,0%,100%);fill-opacity:1;" d="M 193.949219 170.621094 C 193.949219 173.289062 189.949219 173.289062 189.949219 170.621094 C 189.949219 167.953125 193.949219 167.953125 193.949219 170.621094 "/>
<path style=" stroke:none;fill-rule:nonzero;fill:rgb(0%,0%,100%);fill-opacity:1;" d="M 193.949219 170.621094 C 193.949219 173.289062 189.949219 173.289062 189.949219 170.621094 C 189.949219 167.953125 193.949219 167.953125 193.949219 170.621094 "/>
<path style=" stroke:none;fill-rule:nonzero;fill:rgb(0%,0%,100%);fill-opacity:1;" d="M 181.171875 170.621094 C 181.171875 173.289062 177.171875 173.289062 177.171875 170.621094 C 177.171875 167.953125 181.171875 167.953125 181.171875 170.621094 "/>
<path style=" stroke:none;fill-rule:nonzero;fill:rgb(0%,0%,100%);fill-opacity:1;" d="M 200.339844 150.414062 C 200.339844 153.082031 196.339844 153.082031 196.339844 150.414062 C 196.339844 147.746094 200.339844 147.746094 200.339844 150.414062 "/>
<path style=" stroke:none;fill-rule:nonzero;fill:rgb(0%,0%,100%);fill-opacity:1;" d="M 213.121094 110 C 213.121094 112.667969 209.121094 112.667969 209.121094 110 C 209.121094 107.332031 213.121094 107.332031 213.121094 110 "/>
<path style=" stroke:none;fill-rule:nonzero;fill:rgb(0%,0%,100%);fill-opacity:1;" d="M 213.121094 110 C 213.121094 112.667969 209.121094 112.667969 209.121094 110 C 209.121094 107.332031 213.121094 107.332031 213.121094 110 "/>
<path style=" stroke:none;fill-rule:nonzero;fill:rgb(0%,0%,100%);fill-opacity:1;" d="M 219.511719 130.207031 C 219.511719 132.875 215.511719 132.875 215.511719 130.207031 C 215.511719 127.539062 219.511719 127.539062 219.511719 130.207031 "/>
<path style=" stroke:none;fill-rule:nonzero;fill:rgb(0%,0%,100%);fill-opacity:1;" d="M 219.511719 130.207031 C 219.511719 132.875 215.511719 132.875 215.511719 130.207031 C 215.511719 127.539062 219.511719 127.539062 219.511719 130.207031 "/>
<path style=" stroke:none;fill-rule:nonzero;fill:rgb(0%,0%,100%);fill-opacity:1;" d="M 213.121094 150.414062 C 213.121094 153.082031 209.121094 153.082031 209.121094 150.414062 C 209.121094 147.746094 213.121094 147.746094 213.121094 150.414062 "/>
<path style=" stroke:none;fill-rule:nonzero;fill:rgb(0%,0%,100%);fill-opacity:1;" d="M 213.121094 150.414062 C 213.121094 153.082031 209.121094 153.082031 209.121094 150.414062 C 209.121094 147.746094 213.121094 147.746094 213.121094 150.414062 "/>
<path style=" stroke:none;fill-rule:nonzero;fill:rgb(0%,0%,100%);fill-opacity:1;" d="M 219.511719 170.621094 C 219.511719 173.289062 215.511719 173.289062 215.511719 170.621094 C 215.511719 167.953125 219.511719 167.953125 219.511719 170.621094 "/>
<path style=" stroke:none;fill-rule:nonzero;fill:rgb(0%,0%,100%);fill-opacity:1;" d="M 219.511719 170.621094 C 219.511719 173.289062 215.511719 173.289062 215.511719 170.621094 C 215.511719 167.953125 219.511719 167.953125 219.511719 170.621094 "/>
</g>
</svg>
