<?xml version="1.0" encoding="UTF-8"?>
<svg xmlns="http://www.w3.org/2000/svg" xmlns:xlink="http://www.w3.org/1999/xlink" width="300pt" height="200pt" viewBox="0 0 300 200" version="1.1">
<g id="surface1">
<rect x="0" y="0" width="300" height="200" style="fill:rgb(80%,80%,80%);fill-opacity:1;stroke:none;"/>
<path style="fill:none;stroke-width:1;stroke-linecap:butt;stroke-linejoin:miter;stroke:rgb(0%,0%,0%);stroke-opacity:1;stroke-miterlimit:10;" d="M 10 10 L 10 1010 "/>
<path style="fill:none;stroke-width:1;stroke-linecap:butt;stroke-linejoin:miter;stroke:rgb(0%,0%,0%);stroke-opacity:1;stroke-miterlimit:10;" d="M 160 10 L 160 1010 "/>
<path style="fill:none;stroke-width:1;stroke-linecap:butt;stroke-linejoin:miter;stroke:rgb(0%,0%,0%);stroke-opacity:1;stroke-miterlimit:10;" d="M 10 110 L 10 1110 "/>
<path style="fill:none;stroke-width:1;stroke-linecap:butt;stroke-linejoin:miter;stroke:rgb(0%,0%,0%);stroke-opacity:1;stroke-miterlimit:10;" d="M 10 10 L 1010 10 "/>
<path style="fill:none;stroke-width:1;stroke-linecap:butt;stroke-linejoin:miter;stroke:rgb(0%,0%,0%);stroke-opacity:1;stroke-miterlimit:10;" d="M 160 10 L 1160 10 "/>
<path style="fill:none;stroke-width:1;stroke-linecap:butt;stroke-linejoin:miter;stroke:rgb(0%,0%,0%);stroke-opacity:1;stroke-miterlimit:10;" d="M 10 110 L 1010 110 "/>
<path style=" stroke:none;fill-rule:nonzero;fill:rgb(100%,0%,0%);fill-opacity:1;" d="M 74.222656 19.511719 C 74.222656 22.710938 69.421875 22.710938 69.421875 19.511719 C 69.421875 16.3125 74.222656 16.3125 74.222656 19.511719 "/>
<path style=" stroke:none;fill-rule:nonzero;fill:rgb(100%,0%,0%);fill-opacity:1;" d="M 69.464844 19.511719 C 69.464844 22.710938 64.667969 22.710938 64.667969 19.511719 C 64.667969 16.3125 69.464844 16.3125 69.464844 19.511719 "/>
<path style=" stroke:none;fill-rule:nonzero;fill:rgb(100%,0%,0%);fill-opacity:1;" d="M 128.910156 45.667969 C 128.910156 48.867188 124.109375 48.867188 124.109375 45.667969 C 124.109375 42.464844 128.910156 42.464844 128.910156 45.667969 "/>
<path style=" stroke:none;fill-rule:nonzero;fill:rgb(100%,0%,0%);fill-opacity:1;" d="M 128.910156 45.667969 C 128.910156 48.867188 124.109375 48.867188 124.109375 45.667969 C 124.109375 42.464844 128.910156 42.464844 128.910156 45.667969 "/>
<path style=" stroke:none;fill-rule:nonzero;fill:rgb(0%,0%,100%);fill-opacity:1;" d="M 71.445312 69.445312 C 71.445312 72.109375 67.445312 72.109375 67.445312 69.445312 C 67.445312 66.777344 71.445312 66.777344 71.445312 69.445312 "/>
<path style=" stroke:none;fill-rule:nonzero;fill:rgb(0%,0%,100%);fill-opacity:1;" d="M 83.332031 67.066406 C 83.332031 69.734375 79.332031 69.734375 79.332031 67.066406 C 79.332031 64.398438 83.332031 64.398438 83.332031 67.066406 "/>
<path style=" stroke:none;fill-rule:nonzero;fill:rgb(0%,0%,100%);fill-opacity:1;" d="M 59.554688 67.066406 C 59.554688 69.734375 55.554688 69.734375 55.554688 67.066406 C 55.554688 64.398438 59.554688 64.398438 59.554688 67.066406 "/>
<path style=" stroke:none;fill-rule:nonzero;fill:rgb(0%,0%,100%);fill-opacity:1;" d="M 80.953125 55.175781 C 80.953125 57.84375 76.953125 57.84375 76.953125 55.175781 C 76.953125 52.511719 80.953125 52.511719 80.953125 55.175781 "/>
<path style=" stroke:none;fill-rule:nonzero;fill:rgb(0%,0%,100%);fill-opacity:1;" d="M 61.933594 55.175781 C 61.933594 57.84375 57.933594 57.84375 57.933594 55.175781 C 57.933594 52.511719 61.933594 52.511719 61.933594 55.175781 "/>
<path style=" stroke:none;fill-rule:nonzero;fill:rgb(0%,0%,100%);fill-opacity:1;" d="M 71.445312 69.445312 C 71.445312 72.109375 67.445312 72.109375 67.445312 69.445312 C 67.445312 66.777344 71.445312 66.777344 71.445312 69.445312 "/>
<path style=" stroke:none;fill-rule:nonzero;fill:rgb(0%,0%,100%);fill-opacity:1;" d="M 83.332031 67.066406 C 83.332031 69.734375 79.332031 69.734375 79.332031 67.066406 C 79.332031 64.398438 83.332031 64.398438 83.332031 67.066406 "/>
<path style=" stroke:none;fill-rule:nonzero;fill:rgb(0%,0%,100%);fill-opacity:1;" d="M 59.554688 67.066406 C 59.554688 69.734375 55.554688 69.734375 55.554688 67.066406 C 55.554688 64.398438 59.554688 64.398438 59.554688 67.066406 "/>
<path style=" stroke:none;fill-rule:nonzero;fill:rgb(0%,0%,100%);fill-opacity:1;" d="M 80.953125 55.175781 C 80.953125 57.84375 76.953125 57.84375 76.953125 55.175781 C 76.953125 52.511719 80.953125 52.511719 80.953125 55.175781 "/>
<path style=" stroke:none;fill-rule:nonzero;fill:rgb(0%,0%,100%);fill-opacity:1;" d="M 61.933594 55.175781 C 61.933594 57.84375 57.933594 57.84375 57.933594 55.175781 C 57.933594 52.511719 61.933594 52.511719 61.933594 55.175781 "/>
<path style=" stroke:none;fill-rule:nonzero;fill:rgb(0%,0%,100%);fill-opacity:1;" d="M 78.578125 43.289062 C 78.578125 45.957031 74.578125 45.957031 74.578125 43.289062 C 74.578125 40.621094 78.578125 40.621094 78.578125 43.289062 "/>
<path style=" stroke:none;fill-rule:nonzero;fill:rgb(0%,0%,100%);fill-opacity:1;" d="M 64.308594 43.289062 C 64.308594 45.957031 60.308594 45.957031 60.308594 43.289062 C 60.308594 40.621094 64.308594 40.621094 64.308594 43.289062 "/>
<path style=" stroke:none;fill-rule:nonzero;fill:rgb(0%,0%,100%);fill-opacity:1;" d="M 76.199219 31.398438 C 76.199219 34.066406 72.199219 34.066406 72.199219 31.398438 C 72.199219 28.734375 76.199219 28.734375 76.199219 31.398438 "/>
<path style=" stroke:none;fill-rule:nonzero;fill:rgb(0%,0%,100%);fill-opacity:1;" d="M 66.6875 31.398438 C 66.6875 34.066406 62.6875 34.066406 62.6875 31.398438 C 62.6875 28.734375 66.6875 28.734375 66.6875 31.398438 "/>
<path style=" stroke:none;fill-rule:nonzero;fill:rgb(0%,0%,100%);fill-opacity:1;" d="M 78.578125 43.289062 C 78.578125 45.957031 74.578125 45.957031 74.578125 43.289062 C 74.578125 40.621094 78.578125 40.621094 78.578125 43.289062 "/>
<path style=" stroke:none;fill-rule:nonzero;fill:rgb(0%,0%,100%);fill-opacity:1;" d="M 64.308594 43.289062 C 64.308594 45.957031 60.308594 45.957031 60.308594 43.289062 C 60.308594 40.621094 64.308594 40.621094 64.308594 43.289062 "/>
<path style=" stroke:none;fill-rule:nonzero;fill:rgb(0%,0%,100%);fill-opacity:1;" d="M 76.199219 31.398438 C 76.199219 34.066406 72.199219 34.066406 72.199219 31.398438 C 72.199219 28.734375 76.199219 28.734375 76.199219 31.398438 "/>
<path style=" stroke:none;fill-rule:nonzero;fill:rgb(0%,0%,100%);fill-opacity:1;" d="M 66.6875 31.398438 C 66.6875 34.066406 62.6875 34.066406 62.6875 31.398438 C 62.6875 28.734375 66.6875 28.734375 66.6875 31.398438 "/>
<path style=" stroke:none;fill-rule:nonzero;fill:rgb(0%,0%,100%);fill-opacity:1;" d="M 69.066406 19.511719 C 69.066406 22.175781 65.066406 22.175781 65.066406 19.511719 C 65.066406 16.84375 69.066406 16.84375 69.066406 19.511719 "/>
<path style=" stroke:none;fill-rule:nonzero;fill:rgb(0%,0%,100%);fill-opacity:1;" d="M 73.820312 19.511719 C 73.820312 22.175781 69.820312 22.175781 69.820312 19.511719 C 69.820312 16.84375 73.820312 16.84375 73.820312 19.511719 "/>
<path style=" stroke:none;fill-rule:nonzero;fill:rgb(0%,0%,100%);fill-opacity:1;" d="M 95.222656 64.6875 C 95.222656 67.355469 91.222656 67.355469 91.222656 64.6875 C 91.222656 62.023438 95.222656 62.023438 95.222656 64.6875 "/>
<path style=" stroke:none;fill-rule:nonzero;fill:rgb(0%,0%,100%);fill-opacity:1;" d="M 47.667969 64.6875 C 47.667969 67.355469 43.667969 67.355469 43.667969 64.6875 C 43.667969 62.023438 47.667969 62.023438 47.667969 64.6875 "/>
<path style=" stroke:none;fill-rule:nonzero;fill:rgb(0%,0%,100%);fill-opacity:1;" d="M 92.84375 52.800781 C 92.84375 55.464844 88.84375 55.464844 88.84375 52.800781 C 88.84375 50.132812 92.84375 50.132812 92.84375 52.800781 "/>
<path style=" stroke:none;fill-rule:nonzero;fill:rgb(0%,0%,100%);fill-opacity:1;" d="M 50.042969 52.800781 C 50.042969 55.464844 46.042969 55.464844 46.042969 52.800781 C 46.042969 50.132812 50.042969 50.132812 50.042969 52.800781 "/>
<path style=" stroke:none;fill-rule:nonzero;fill:rgb(0%,0%,100%);fill-opacity:1;" d="M 107.109375 62.308594 C 107.109375 64.976562 103.109375 64.976562 103.109375 62.308594 C 103.109375 59.644531 107.109375 59.644531 107.109375 62.308594 "/>
<path style=" stroke:none;fill-rule:nonzero;fill:rgb(0%,0%,100%);fill-opacity:1;" d="M 35.777344 62.308594 C 35.777344 64.976562 31.777344 64.976562 31.777344 62.308594 C 31.777344 59.644531 35.777344 59.644531 35.777344 62.308594 "/>
<path style=" stroke:none;fill-rule:nonzero;fill:rgb(0%,0%,100%);fill-opacity:1;" d="M 104.730469 50.421875 C 104.730469 53.089844 100.730469 53.089844 100.730469 50.421875 C 100.730469 47.753906 104.730469 47.753906 104.730469 50.421875 "/>
<path style=" stroke:none;fill-rule:nonzero;fill:rgb(0%,0%,100%);fill-opacity:1;" d="M 38.15625 50.421875 C 38.15625 53.089844 34.15625 53.089844 34.15625 50.421875 C 34.15625 47.753906 38.15625 47.753906 38.15625 50.421875 "/>
<path style=" stroke:none;fill-rule:nonzero;fill:rgb(0%,0%,100%);fill-opacity:1;" d="M 95.222656 64.6875 C 95.222656 67.355469 91.222656 67.355469 91.222656 64.6875 C 91.222656 62.023438 95.222656 62.023438 95.222656 64.6875 "/>
<path style=" stroke:none;fill-rule:nonzero;fill:rgb(0%,0%,100%);fill-opacity:1;" d="M 47.667969 64.6875 C 47.667969 67.355469 43.667969 67.355469 43.667969 64.6875 C 43.667969 62.023438 47.667969 62.023438 47.667969 64.6875 "/>
<path style=" stroke:none;fill-rule:nonzero;fill:rgb(0%,0%,100%);fill-opacity:1;" d="M 92.84375 52.800781 C 92.84375 55.464844 88.84375 55.464844 88.84375 52.800781 C 88.84375 50.132812 92.84375 50.132812 92.84375 52.800781 "/>
<path style=" stroke:none;fill-rule:nonzero;fill:rgb(0%,0%,100%);fill-opacity:1;" d="M 50.042969 52.800781 C 50.042969 55.464844 46.042969 55.464844 46.042969 52.800781 C 46.042969 50.132812 50.042969 50.132812 50.042969 52.800781 "/>
<path style=" stroke:none;fill-rule:nonzero;fill:rgb(0%,0%,100%);fill-opacity:1;" d="M 107.109375 62.308594 C 107.109375 64.976562 103.109375 64.976562 103.109375 62.308594 C 103.109375 59.644531 107.109375 59.644531 107.109375 62.308594 "/>
<path style=" stroke:none;fill-rule:nonzero;fill:rgb(0%,0%,100%);fill-opacity:1;" d="M 35.777344 62.308594 C 35.777344 64.976562 31.777344 64.976562 31.777344 62.308594 C 31.777344 59.644531 35.777344 59.644531 35.777344 62.308594 "/>
<path style=" stroke:none;fill-rule:nonzero;fill:rgb(0%,0%,100%);fill-opacity:1;" d="M 104.730469 50.421875 C 104.730469 53.089844 100.730469 53.089844 100.730469 50.421875 C 100.730469 47.753906 104.730469 47.753906 104.730469 50.421875 "/>
<path style=" stroke:none;fill-rule:nonzero;fill:rgb(0%,0%,100%);fill-opacity:1;" d="M 38.15625 50.421875 C 38.15625 53.089844 34.15625 53.089844 34.15625 50.421875 C 34.15625 47.753906 38.15625 47.753906 38.15625 50.421875 "/>
<path style=" stroke:none;fill-rule:nonzero;fill:rgb(0%,0%,100%);fill-opacity:1;" d="M 90.464844 40.910156 C 90.464844 43.578125 86.464844 43.578125 86.464844 40.910156 C 86.464844 38.242188 90.464844 38.242188 90.464844 40.910156 "/>
<path style=" stroke:none;fill-rule:nonzero;fill:rgb(0%,0%,100%);fill-opacity:1;" d="M 52.421875 40.910156 C 52.421875 43.578125 48.421875 43.578125 48.421875 40.910156 C 48.421875 38.242188 52.421875 38.242188 52.421875 40.910156 "/>
<path style=" stroke:none;fill-rule:nonzero;fill:rgb(0%,0%,100%);fill-opacity:1;" d="M 88.089844 29.023438 C 88.089844 31.6875 84.089844 31.6875 84.089844 29.023438 C 84.089844 26.355469 88.089844 26.355469 88.089844 29.023438 "/>
<path style=" stroke:none;fill-rule:nonzero;fill:rgb(0%,0%,100%);fill-opacity:1;" d="M 54.800781 29.023438 C 54.800781 31.6875 50.800781 31.6875 50.800781 29.023438 C 50.800781 26.355469 54.800781 26.355469 54.800781 29.023438 "/>
<path style=" stroke:none;fill-rule:nonzero;fill:rgb(0%,0%,100%);fill-opacity:1;" d="M 102.355469 38.53125 C 102.355469 41.199219 98.355469 41.199219 98.355469 38.53125 C 98.355469 35.867188 102.355469 35.867188 102.355469 38.53125 "/>
<path style=" stroke:none;fill-rule:nonzero;fill:rgb(0%,0%,100%);fill-opacity:1;" d="M 40.53125 38.53125 C 40.53125 41.199219 36.53125 41.199219 36.53125 38.53125 C 36.53125 35.867188 40.53125 35.867188 40.53125 38.53125 "/>
<path style=" stroke:none;fill-rule:nonzero;fill:rgb(0%,0%,100%);fill-opacity:1;" d="M 99.976562 26.644531 C 99.976562 29.3125 95.976562 29.3125 95.976562 26.644531 C 95.976562 23.976562 99.976562 23.976562 99.976562 26.644531 "/>
<path style=" stroke:none;fill-rule:nonzero;fill:rgb(0%,0%,100%);fill-opacity:1;" d="M 42.910156 26.644531 C 42.910156 29.3125 38.910156 29.3125 38.910156 26.644531 C 38.910156 23.976562 42.910156 23.976562 42.910156 26.644531 "/>
<path style=" stroke:none;fill-rule:nonzero;fill:rgb(0%,0%,100%);fill-opacity:1;" d="M 90.464844 40.910156 C 90.464844 43.578125 86.464844 43.578125 86.464844 40.910156 C 86.464844 38.242188 90.464844 38.242188 90.464844 40.910156 "/>
<path style=" stroke:none;fill-rule:nonzero;fill:rgb(0%,0%,100%);fill-opacity:1;" d="M 52.421875 40.910156 C 52.421875 43.578125 48.421875 43.578125 48.421875 40.910156 C 48.421875 38.242188 52.421875 38.242188 52.421875 40.910156 "/>
<path style=" stroke:none;fill-rule:nonzero;fill:rgb(0%,0%,100%);fill-opacity:1;" d="M 88.089844 29.023438 C 88.089844 31.6875 84.089844 31.6875 84.089844 29.023438 C 84.089844 26.355469 88.089844 26.355469 88.089844 29.023438 "/>
<path style=" stroke:none;fill-rule:nonzero;fill:rgb(0%,0%,100%);fill-opacity:1;" d="M 54.800781 29.023438 C 54.800781 31.6875 50.800781 31.6875 50.800781 29.023438 C 50.800781 26.355469 54.800781 26.355469 54.800781 29.023438 "/>
<path style=" stroke:none;fill-rule:nonzero;fill:rgb(0%,0%,100%);fill-opacity:1;" d="M 102.355469 38.53125 C 102.355469 41.199219 98.355469 41.199219 98.355469 38.53125 C 98.355469 35.867188 102.355469 35.867188 102.355469 38.53125 "/>
<path style=" stroke:none;fill-rule:nonzero;fill:rgb(0%,0%,100%);fill-opacity:1;" d="M 40.53125 38.53125 C 40.53125 41.199219 36.53125 41.199219 36.53125 38.53125 C 36.53125 35.867188 40.53125 35.867188 40.53125 38.53125 "/>
<path style=" stroke:none;fill-rule:nonzero;fill:rgb(0%,0%,100%);fill-opacity:1;" d="M 99.976562 26.644531 C 99.976562 29.3125 95.976562 29.3125 95.976562 26.644531 C 95.976562 23.976562 99.976562 23.976562 99.976562 26.644531 "/>
<path style=" stroke:none;fill-rule:nonzero;fill:rgb(0%,0%,100%);fill-opacity:1;" d="M 42.910156 26.644531 C 42.910156 29.3125 38.910156 29.3125 38.910156 26.644531 C 38.910156 23.976562 42.910156 23.976562 42.910156 26.644531 "/>
<path style=" stroke:none;fill-rule:nonzero;fill:rgb(0%,0%,100%);fill-opacity:1;" d="M 85.710938 17.132812 C 85.710938 19.800781 81.710938 19.800781 81.710938 17.132812 C 81.710938 14.464844 85.710938 14.464844 85.710938 17.132812 "/>
<path style=" stroke:none;fill-rule:nonzero;fill:rgb(0%,0%,100%);fill-opacity:1;" d="M 57.175781 17.132812 C 57.175781 19.800781 53.175781 19.800781 53.175781 17.132812 C 53.175781 14.464844 57.175781 14.464844 57.175781 17.132812 "/>
<path style=" stroke:none;fill-rule:nonzero;fill:rgb(0%,0%,100%);fill-opacity:1;" d="M 97.597656 14.753906 C 97.597656 17.421875 93.597656 17.421875 93.597656 14.753906 C 93.597656 12.089844 97.597656 12.089844 97.597656 14.753906 "/>
<path style=" stroke:none;fill-rule:nonzero;fill:rgb(0%,0%,100%);fill-opacity:1;" d="M 45.289062 14.753906 C 45.289062 17.421875 41.289062 17.421875 41.289062 14.753906 C 41.289062 12.089844 45.289062 12.089844 45.289062 14.753906 "/>
<path style=" stroke:none;fill-rule:nonzero;fill:rgb(0%,0%,100%);fill-opacity:1;" d="M 85.710938 17.132812 C 85.710938 19.800781 81.710938 19.800781 81.710938 17.132812 C 81.710938 14.464844 85.710938 14.464844 85.710938 17.132812 "/>
<path style=" stroke:none;fill-rule:nonzero;fill:rgb(0%,0%,100%);fill-opacity:1;" d="M 57.175781 17.132812 C 57.175781 19.800781 53.175781 19.800781 53.175781 17.132812 C 53.175781 14.464844 57.175781 14.464844 57.175781 17.132812 "/>
<path style=" stroke:none;fill-rule:nonzero;fill:rgb(0%,0%,100%);fill-opacity:1;" d="M 97.597656 14.753906 C 97.597656 17.421875 93.597656 17.421875 93.597656 14.753906 C 93.597656 12.089844 97.597656 12.089844 97.597656 14.753906 "/>
<path style=" stroke:none;fill-rule:nonzero;fill:rgb(0%,0%,100%);fill-opacity:1;" d="M 45.289062 14.753906 C 45.289062 17.421875 41.289062 17.421875 41.289062 14.753906 C 41.289062 12.089844 45.289062 12.089844 45.289062 14.753906 "/>
<path style=" stroke:none;fill-rule:nonzero;fill:rgb(0%,0%,100%);fill-opacity:1;" d="M 119 59.933594 C 119 62.597656 115 62.597656 115 59.933594 C 115 57.265625 119 57.265625 119 59.933594 "/>
<path style=" stroke:none;fill-rule:nonzero;fill:rgb(0%,0%,100%);fill-opacity:1;" d="M 23.890625 59.933594 C 23.890625 62.597656 19.890625 62.597656 19.890625 59.933594 C 19.890625 57.265625 23.890625 57.265625 23.890625 59.933594 "/>
<path style=" stroke:none;fill-rule:nonzero;fill:rgb(0%,0%,100%);fill-opacity:1;" d="M 116.621094 48.042969 C 116.621094 50.710938 112.621094 50.710938 112.621094 48.042969 C 112.621094 45.378906 116.621094 45.378906 116.621094 48.042969 "/>
<path style=" stroke:none;fill-rule:nonzero;fill:rgb(0%,0%,100%);fill-opacity:1;" d="M 26.265625 48.042969 C 26.265625 50.710938 22.265625 50.710938 22.265625 48.042969 C 22.265625 45.378906 26.265625 45.378906 26.265625 48.042969 "/>
<path style=" stroke:none;fill-rule:nonzero;fill:rgb(0%,0%,100%);fill-opacity:1;" d="M 12 57.554688 C 12 60.222656 8 60.222656 8 57.554688 C 8 54.886719 12 54.886719 12 57.554688 "/>
<path style=" stroke:none;fill-rule:nonzero;fill:rgb(0%,0%,100%);fill-opacity:1;" d="M 14.378906 45.667969 C 14.378906 48.332031 10.378906 48.332031 10.378906 45.667969 C 10.378906 43 14.378906 43 14.378906 45.667969 "/>
<path style=" stroke:none;fill-rule:nonzero;fill:rgb(0%,0%,100%);fill-opacity:1;" d="M 119 59.933594 C 119 62.597656 115 62.597656 115 59.933594 C 115 57.265625 119 57.265625 119 59.933594 "/>
<path style=" stroke:none;fill-rule:nonzero;fill:rgb(0%,0%,100%);fill-opacity:1;" d="M 23.890625 59.933594 C 23.890625 62.597656 19.890625 62.597656 19.890625 59.933594 C 19.890625 57.265625 23.890625 57.265625 23.890625 59.933594 "/>
<path style=" stroke:none;fill-rule:nonzero;fill:rgb(0%,0%,100%);fill-opacity:1;" d="M 116.621094 48.042969 C 116.621094 50.710938 112.621094 50.710938 112.621094 48.042969 C 112.621094 45.378906 116.621094 45.378906 116.621094 48.042969 "/>
<path style=" stroke:none;fill-rule:nonzero;fill:rgb(0%,0%,100%);fill-opacity:1;" d="M 26.265625 48.042969 C 26.265625 50.710938 22.265625 50.710938 22.265625 48.042969 C 22.265625 45.378906 26.265625 45.378906 26.265625 48.042969 "/>
<path style=" stroke:none;fill-rule:nonzero;fill:rgb(0%,0%,100%);fill-opacity:1;" d="M 12 57.554688 C 12 60.222656 8 60.222656 8 57.554688 C 8 54.886719 12 54.886719 12 57.554688 "/>
<path style=" stroke:none;fill-rule:nonzero;fill:rgb(0%,0%,100%);fill-opacity:1;" d="M 14.378906 45.667969 C 14.378906 48.332031 10.378906 48.332031 10.378906 45.667969 C 10.378906 43 14.378906 43 14.378906 45.667969 "/>
<path style=" stroke:none;fill-rule:nonzero;fill:rgb(0%,0%,100%);fill-opacity:1;" d="M 114.242188 36.15625 C 114.242188 38.820312 110.242188 38.820312 110.242188 36.15625 C 110.242188 33.488281 114.242188 33.488281 114.242188 36.15625 "/>
<path style=" stroke:none;fill-rule:nonzero;fill:rgb(0%,0%,100%);fill-opacity:1;" d="M 28.644531 36.15625 C 28.644531 38.820312 24.644531 38.820312 24.644531 36.15625 C 24.644531 33.488281 28.644531 33.488281 28.644531 36.15625 "/>
<path style=" stroke:none;fill-rule:nonzero;fill:rgb(0%,0%,100%);fill-opacity:1;" d="M 111.867188 24.265625 C 111.867188 26.933594 107.867188 26.933594 107.867188 24.265625 C 107.867188 21.601562 111.867188 21.601562 111.867188 24.265625 "/>
<path style=" stroke:none;fill-rule:nonzero;fill:rgb(0%,0%,100%);fill-opacity:1;" d="M 31.023438 24.265625 C 31.023438 26.933594 27.023438 26.933594 27.023438 24.265625 C 27.023438 21.601562 31.023438 21.601562 31.023438 24.265625 "/>
<path style=" stroke:none;fill-rule:nonzero;fill:rgb(0%,0%,100%);fill-opacity:1;" d="M 126.132812 33.777344 C 126.132812 36.445312 122.132812 36.445312 122.132812 33.777344 C 122.132812 31.109375 126.132812 31.109375 126.132812 33.777344 "/>
<path style=" stroke:none;fill-rule:nonzero;fill:rgb(0%,0%,100%);fill-opacity:1;" d="M 16.753906 33.777344 C 16.753906 36.445312 12.753906 36.445312 12.753906 33.777344 C 12.753906 31.109375 16.753906 31.109375 16.753906 33.777344 "/>
<path style=" stroke:none;fill-rule:nonzero;fill:rgb(0%,0%,100%);fill-opacity:1;" d="M 123.753906 21.890625 C 123.753906 24.554688 119.753906 24.554688 119.753906 21.890625 C 119.753906 19.222656 123.753906 19.222656 123.753906 21.890625 "/>
<path style=" stroke:none;fill-rule:nonzero;fill:rgb(0%,0%,100%);fill-opacity:1;" d="M 19.132812 21.890625 C 19.132812 24.554688 15.132812 24.554688 15.132812 21.890625 C 15.132812 19.222656 19.132812 19.222656 19.132812 21.890625 "/>
<path style=" stroke:none;fill-rule:nonzero;fill:rgb(0%,0%,100%);fill-opacity:1;" d="M 114.242188 36.15625 C 114.242188 38.820312 110.242188 38.820312 110.242188 36.15625 C 110.242188 33.488281 114.242188 33.488281 114.242188 36.15625 "/>
<path style=" stroke:none;fill-rule:nonzero;fill:rgb(0%,0%,100%);fill-opacity:1;" d="M 28.644531 36.15625 C 28.644531 38.820312 24.644531 38.820312 24.644531 36.15625 C 24.644531 33.488281 28.644531 33.488281 28.644531 36.15625 "/>
<path style=" stroke:none;fill-rule:nonzero;fill:rgb(0%,0%,100%);fill-opacity:1;" d="M 111.867188 24.265625 C 111.867188 26.933594 107.867188 26.933594 107.867188 24.265625 C 107.867188 21.601562 111.867188 21.601562 111.867188 24.265625 "/>
<path style=" stroke:none;fill-rule:nonzero;fill:rgb(0%,0%,100%);fill-opacity:1;" d="M 31.023438 24.265625 C 31.023438 26.933594 27.023438 26.933594 27.023438 24.265625 C 27.023438 21.601562 31.023438 21.601562 31.023438 24.265625 "/>
<path style=" stroke:none;fill-rule:nonzero;fill:rgb(0%,0%,100%);fill-opacity:1;" d="M 126.132812 33.777344 C 126.132812 36.445312 122.132812 36.445312 122.132812 33.777344 C 122.132812 31.109375 126.132812 31.109375 126.132812 33.777344 "/>
<path style=" stroke:none;fill-rule:nonzero;fill:rgb(0%,0%,100%);fill-opacity:1;" d="M 16.753906 33.777344 C 16.753906 36.445312 12.753906 36.445312 12.753906 33.777344 C 12.753906 31.109375 16.753906 31.109375 16.753906 33.777344 "/>
<path style=" stroke:none;fill-rule:nonzero;fill:rgb(0%,0%,100%);fill-opacity:1;" d="M 123.753906 21.890625 C 123.753906 24.554688 119.753906 24.554688 119.753906 21.890625 C 119.753906 19.222656 123.753906 19.222656 123.753906 21.890625 "/>
<path style=" stroke:none;fill-rule:nonzero;fill:rgb(0%,0%,100%);fill-opacity:1;" d="M 19.132812 21.890625 C 19.132812 24.554688 15.132812 24.554688 15.132812 21.890625 C 15.132812 19.222656 19.132812 19.222656 19.132812 21.890625 "/>
<path style=" stroke:none;fill-rule:nonzero;fill:rgb(0%,0%,100%);fill-opacity:1;" d="M 109.488281 12.378906 C 109.488281 15.042969 105.488281 15.042969 105.488281 12.378906 C 105.488281 9.710938 109.488281 9.710938 109.488281 12.378906 "/>
<path style=" stroke:none;fill-rule:nonzero;fill:rgb(0%,0%,100%);fill-opacity:1;" d="M 33.398438 12.378906 C 33.398438 15.042969 29.398438 15.042969 29.398438 12.378906 C 29.398438 9.710938 33.398438 9.710938 33.398438 12.378906 "/>
<path style=" stroke:none;fill-rule:nonzero;fill:rgb(0%,0%,100%);fill-opacity:1;" d="M 121.375 10 C 121.375 12.667969 117.375 12.667969 117.375 10 C 117.375 7.332031 121.375 7.332031 121.375 10 "/>
<path style=" stroke:none;fill-rule:nonzero;fill:rgb(0%,0%,100%);fill-opacity:1;" d="M 21.511719 10 C 21.511719 12.667969 17.511719 12.667969 17.511719 10 C 17.511719 7.332031 21.511719 7.332031 21.511719 10 "/>
<path style=" stroke:none;fill-rule:nonzero;fill:rgb(0%,0%,100%);fill-opacity:1;" d="M 109.488281 12.378906 C 109.488281 15.042969 105.488281 15.042969 105.488281 12.378906 C 105.488281 9.710938 109.488281 9.710938 109.488281 12.378906 "/>
<path style=" stroke:none;fill-rule:nonzero;fill:rgb(0%,0%,100%);fill-opacity:1;" d="M 33.398438 12.378906 C 33.398438 15.042969 29.398438 15.042969 29.398438 12.378906 C 29.398438 9.710938 33.398438 9.710938 33.398438 12.378906 "/>
<path style=" stroke:none;fill-rule:nonzero;fill:rgb(0%,0%,100%);fill-opacity:1;" d="M 121.375 10 C 121.375 12.667969 117.375 12.667969 117.375 10 C 117.375 7.332031 121.375 7.332031 121.375 10 "/>
<path style=" stroke:none;fill-rule:nonzero;fill:rgb(0%,0%,100%);fill-opacity:1;" d="M 21.511719 10 C 21.511719 12.667969 17.511719 12.667969 17.511719 10 C 17.511719 7.332031 21.511719 7.332031 21.511719 10 "/>
<path style=" stroke:none;fill-rule:nonzero;fill:rgb(100%,0%,0%);fill-opacity:1;" d="M 74.222656 122.125 C 74.222656 125.324219 69.421875 125.324219 69.421875 122.125 C 69.421875 118.925781 74.222656 118.925781 74.222656 122.125 "/>
<path style=" stroke:none;fill-rule:nonzero;fill:rgb(100%,0%,0%);fill-opacity:1;" d="M 69.464844 146.371094 C 69.464844 149.574219 64.667969 149.574219 64.667969 146.371094 C 64.667969 143.171875 69.464844 143.171875 69.464844 146.371094 "/>
<path style=" stroke:none;fill-rule:nonzero;fill:rgb(100%,0%,0%);fill-opacity:1;" d="M 128.910156 110 C 128.910156 113.199219 124.109375 113.199219 124.109375 110 C 124.109375 106.800781 128.910156 106.800781 128.910156 110 "/>
<path style=" stroke:none;fill-rule:nonzero;fill:rgb(100%,0%,0%);fill-opacity:1;" d="M 128.910156 134.25 C 128.910156 137.449219 124.109375 137.449219 124.109375 134.25 C 124.109375 131.046875 128.910156 131.046875 128.910156 134.25 "/>
<path style=" stroke:none;fill-rule:nonzero;fill:rgb(0%,0%,100%);fill-opacity:1;" d="M 71.445312 110 C 71.445312 112.667969 67.445312 112.667969 67.445312 110 C 67.445312 107.332031 71.445312 107.332031 71.445312 110 "/>
<path style=" stroke:none;fill-rule:nonzero;fill:rgb(0%,0%,100%);fill-opacity:1;" d="M 83.332031 122.125 C 83.332031 124.789062 79.332031 124.789062 79.332031 122.125 C 79.332031 119.457031 83.332031 119.457031 83.332031 122.125 "/>
<path style=" stroke:none;fill-rule:nonzero;fill:rgb(0%,0%,100%);fill-opacity:1;" d="M 59.554688 122.125 C 59.554688 124.789062 55.554688 124.789062 55.554688 122.125 C 55.554688 119.457031 59.554688 119.457031 59.554688 122.125 "/>
<path style=" stroke:none;fill-rule:nonzero;fill:rgb(0%,0%,100%);fill-opacity:1;" d="M 80.953125 110 C 80.953125 112.667969 76.953125 112.667969 76.953125 110 C 76.953125 107.332031 80.953125 107.332031 80.953125 110 "/>
<path style=" stroke:none;fill-rule:nonzero;fill:rgb(0%,0%,100%);fill-opacity:1;" d="M 61.933594 110 C 61.933594 112.667969 57.933594 112.667969 57.933594 110 C 57.933594 107.332031 61.933594 107.332031 61.933594 110 "/>
<path style=" stroke:none;fill-rule:nonzero;fill:rgb(0%,0%,100%);fill-opacity:1;" d="M 71.445312 134.25 C 71.445312 136.914062 67.445312 136.914062 67.445312 134.25 C 67.445312 131.582031 71.445312 131.582031 71.445312 134.25 "/>
<path style=" stroke:none;fill-rule:nonzero;fill:rgb(0%,0%,100%);fill-opacity:1;" d="M 83.332031 146.371094 C 83.332031 149.039062 79.332031 149.039062 79.332031 146.371094 C 79.332031 143.707031 83.332031 143.707031 83.332031 146.371094 "/>
<path style=" stroke:none;fill-rule:nonzero;fill:rgb(0%,0%,100%);fill-opacity:1;" d="M 59.554688 146.371094 C 59.554688 149.039062 55.554688 149.039062 55.554688 146.371094 C 55.554688 143.707031 59.554688 143.707031 59.554688 146.371094 "/>
<path style=" stroke:none;fill-rule:nonzero;fill:rgb(0%,0%,100%);fill-opacity:1;" d="M 80.953125 134.25 C 80.953125 136.914062 76.953125 136.914062 76.953125 134.25 C 76.953125 131.582031 80.953125 131.582031 80.953125 134.25 "/>
<path style=" stroke:none;fill-rule:nonzero;fill:rgb(0%,0%,100%);fill-opacity:1;" d="M 61.933594 134.25 C 61.933594 136.914062 57.933594 136.914062 57.933594 134.25 C 57.933594 131.582031 61.933594 131.582031 61.933594 134.25 "/>
<path style=" stroke:none;fill-rule:nonzero;fill:rgb(0%,0%,100%);fill-opacity:1;" d="M 78.578125 122.125 C 78.578125 124.789062 74.578125 124.789062 74.578125 122.125 C 74.578125 119.457031 78.578125 119.457031 78.578125 122.125 "/>
<path style=" stroke:none;fill-rule:nonzero;fill:rgb(0%,0%,100%);fill-opacity:1;" d="M 64.308594 122.125 C 64.308594 124.789062 60.308594 124.789062 60.308594 122.125 C 60.308594 119.457031 64.308594 119.457031 64.308594 122.125 "/>
<path style=" stroke:none;fill-rule:nonzero;fill:rgb(0%,0%,100%);fill-opacity:1;" d="M 76.199219 110 C 76.199219 112.667969 72.199219 112.667969 72.199219 110 C 72.199219 107.332031 76.199219 107.332031 76.199219 110 "/>
<path style=" stroke:none;fill-rule:nonzero;fill:rgb(0%,0%,100%);fill-opacity:1;" d="M 66.6875 110 C 66.6875 112.667969 62.6875 112.667969 62.6875 110 C 62.6875 107.332031 66.6875 107.332031 66.6875 110 "/>
<path style=" stroke:none;fill-rule:nonzero;fill:rgb(0%,0%,100%);fill-opacity:1;" d="M 78.578125 146.371094 C 78.578125 149.039062 74.578125 149.039062 74.578125 146.371094 C 74.578125 143.707031 78.578125 143.707031 78.578125 146.371094 "/>
<path style=" stroke:none;fill-rule:nonzero;fill:rgb(0%,0%,100%);fill-opacity:1;" d="M 64.308594 146.371094 C 64.308594 149.039062 60.308594 149.039062 60.308594 146.371094 C 60.308594 143.707031 64.308594 143.707031 64.308594 146.371094 "/>
<path style=" stroke:none;fill-rule:nonzero;fill:rgb(0%,0%,100%);fill-opacity:1;" d="M 76.199219 134.25 C 76.199219 136.914062 72.199219 136.914062 72.199219 134.25 C 72.199219 131.582031 76.199219 131.582031 76.199219 134.25 "/>
<path style=" stroke:none;fill-rule:nonzero;fill:rgb(0%,0%,100%);fill-opacity:1;" d="M 66.6875 134.25 C 66.6875 136.914062 62.6875 136.914062 62.6875 134.25 C 62.6875 131.582031 66.6875 131.582031 66.6875 134.25 "/>
<path style=" stroke:none;fill-rule:nonzero;fill:rgb(0%,0%,100%);fill-opacity:1;" d="M 69.066406 122.125 C 69.066406 124.789062 65.066406 124.789062 65.066406 122.125 C 65.066406 119.457031 69.066406 119.457031 69.066406 122.125 "/>
<path style=" stroke:none;fill-rule:nonzero;fill:rgb(0%,0%,100%);fill-opacity:1;" d="M 73.820312 146.371094 C 73.820312 149.039062 69.820312 149.039062 69.820312 146.371094 C 69.820312 143.707031 73.820312 143.707031 73.820312 146.371094 "/>
<path style=" stroke:none;fill-rule:nonzero;fill:rgb(0%,0%,100%);fill-opacity:1;" d="M 95.222656 110 C 95.222656 112.667969 91.222656 112.667969 91.222656 110 C 91.222656 107.332031 95.222656 107.332031 95.222656 110 "/>
<path style=" stroke:none;fill-rule:nonzero;fill:rgb(0%,0%,100%);fill-opacity:1;" d="M 47.667969 110 C 47.667969 112.667969 43.667969 112.667969 43.667969 110 C 43.667969 107.332031 47.667969 107.332031 47.667969 110 "/>
<path style=" stroke:none;fill-rule:nonzero;fill:rgb(0%,0%,100%);fill-opacity:1;" d="M 92.84375 122.125 C 92.84375 124.789062 88.84375 124.789062 88.84375 122.125 C 88.84375 119.457031 92.84375 119.457031 92.84375 122.125 "/>
<path style=" stroke:none;fill-rule:nonzero;fill:rgb(0%,0%,100%);fill-opacity:1;" d="M 50.042969 122.125 C 50.042969 124.789062 46.042969 124.789062 46.042969 122.125 C 46.042969 119.457031 50.042969 119.457031 50.042969 122.125 "/>
<path style=" stroke:none;fill-rule:nonzero;fill:rgb(0%,0%,100%);fill-opacity:1;" d="M 107.109375 122.125 C 107.109375 124.789062 103.109375 124.789062 103.109375 122.125 C 103.109375 119.457031 107.109375 119.457031 107.109375 122.125 "/>
<path style=" stroke:none;fill-rule:nonzero;fill:rgb(0%,0%,100%);fill-opacity:1;" d="M 35.777344 122.125 C 35.777344 124.789062 31.777344 124.789062 31.777344 122.125 C 31.777344 119.457031 35.777344 119.457031 35.777344 122.125 "/>
<path style=" stroke:none;fill-rule:nonzero;fill:rgb(0%,0%,100%);fill-opacity:1;" d="M 104.730469 110 C 104.730469 112.667969 100.730469 112.667969 100.730469 110 C 100.730469 107.332031 104.730469 107.332031 104.730469 110 "/>
<path style=" stroke:none;fill-rule:nonzero;fill:rgb(0%,0%,100%);fill-opacity:1;" d="M 38.15625 110 C 38.15625 112.667969 34.15625 112.667969 34.15625 110 C 34.15625 107.332031 38.15625 107.332031 38.15625 110 "/>
<path style=" stroke:none;fill-rule:nonzero;fill:rgb(0%,0%,100%);fill-opacity:1;" d="M 95.222656 134.25 C 95.222656 136.914062 91.222656 136.914062 91.222656 134.25 C 91.222656 131.582031 95.222656 131.582031 95.222656 134.25 "/>
<path style=" stroke:none;fill-rule:nonzero;fill:rgb(0%,0%,100%);fill-opacity:1;" d="M 47.667969 134.25 C 47.667969 136.914062 43.667969 136.914062 43.667969 134.25 C 43.667969 131.582031 47.667969 131.582031 47.667969 134.25 "/>
<path style=" stroke:none;fill-rule:nonzero;fill:rgb(0%,0%,100%);fill-opacity:1;" d="M 92.84375 146.371094 C 92.84375 149.039062 88.84375 149.039062 88.84375 146.371094 C 88.84375 143.707031 92.84375 143.707031 92.84375 146.371094 "/>
<path style=" stroke:none;fill-rule:nonzero;fill:rgb(0%,0%,100%);fill-opacity:1;" d="M 50.042969 146.371094 C 50.042969 149.039062 46.042969 149.039062 46.042969 146.371094 C 46.042969 143.707031 50.042969 143.707031 50.042969 146.371094 "/>
<path style=" stroke:none;fill-rule:nonzero;fill:rgb(0%,0%,100%);fill-opacity:1;" d="M 107.109375 146.371094 C 107.109375 149.039062 103.109375 149.039062 103.109375 146.371094 C 103.109375 143.707031 107.109375 143.707031 107.109375 146.371094 "/>
<path style=" stroke:none;fill-rule:nonzero;fill:rgb(0%,0%,100%);fill-opacity:1;" d="M 35.777344 146.371094 C 35.777344 149.039062 31.777344 149.039062 31.777344 146.371094 C 31.777344 143.707031 35.777344 143.707031 35.777344 146.371094 "/>
<path style=" stroke:none;fill-rule:nonzero;fill:rgb(0%,0%,100%);fill-opacity:1;" d="M 104.730469 134.25 C 104.730469 136.914062 100.730469 136.914062 100.730469 134.25 C 100.730469 131.582031 104.730469 131.582031 104.730469 134.25 "/>
<path style=" stroke:none;fill-rule:nonzero;fill:rgb(0%,0%,100%);fill-opacity:1;" d="M 38.15625 134.25 C 38.15625 136.914062 34.15625 136.914062 34.15625 134.25 C 34.15625 131.582031 38.15625 131.582031 38.15625 134.25 "/>
<path style=" stroke:none;fill-rule:nonzero;fill:rgb(0%,0%,100%);fill-opacity:1;" d="M 90.464844 110 C 90.464844 112.667969 86.464844 112.667969 86.464844 110 C 86.464844 107.332031 90.464844 107.332031 90.464844 110 "/>
<path style=" stroke:none;fill-rule:nonzero;fill:rgb(0%,0%,100%);fill-opacity:1;" d="M 52.421875 110 C 52.421875 112.667969 48.421875 112.667969 48.421875 110 C 48.421875 107.332031 52.421875 107.332031 52.421875 110 "/>
<path style=" stroke:none;fill-rule:nonzero;fill:rgb(0%,0%,100%);fill-opacity:1;" d="M 88.089844 122.125 C 88.089844 124.789062 84.089844 124.789062 84.089844 122.125 C 84.089844 119.457031 88.089844 119.457031 88.089844 122.125 "/>
<path style=" stroke:none;fill-rule:nonzero;fill:rgb(0%,0%,100%);fill-opacity:1;" d="M 54.800781 122.125 C 54.800781 124.789062 50.800781 124.789062 50.800781 122.125 C 50.800781 119.457031 54.800781 119.457031 54.800781 122.125 "/>
<path style=" stroke:none;fill-rule:nonzero;fill:rgb(0%,0%,100%);fill-opacity:1;" d="M 102.355469 122.125 C 102.355469 124.789062 98.355469 124.789062 98.355469 122.125 C 98.355469 119.457031 102.355469 119.457031 102.355469 122.125 "/>
<path style=" stroke:none;fill-rule:nonzero;fill:rgb(0%,0%,100%);fill-opacity:1;" d="M 40.53125 122.125 C 40.53125 124.789062 36.53125 124.789062 36.53125 122.125 C 36.53125 119.457031 40.53125 119.457031 40.53125 122.125 "/>
<path style=" stroke:none;fill-rule:nonzero;fill:rgb(0%,0%,100%);fill-opacity:1;" d="M 99.976562 110 C 99.976562 112.667969 95.976562 112.667969 95.976562 110 C 95.976562 107.332031 99.976562 107.332031 99.976562 110 "/>
<path style=" stroke:none;fill-rule:nonzero;fill:rgb(0%,0%,100%);fill-opacity:1;" d="M 42.910156 110 C 42.910156 112.667969 38.910156 112.667969 38.910156 110 C 38.910156 107.332031 42.910156 107.332031 42.910156 110 "/>
<path style=" stroke:none;fill-rule:nonzero;fill:rgb(0%,0%,100%);fill-opacity:1;" d="M 90.464844 134.25 C 90.464844 136.914062 86.464844 136.914062 86.464844 134.25 C 86.464844 131.582031 90.464844 131.582031 90.464844 134.25 "/>
<path style=" stroke:none;fill-rule:nonzero;fill:rgb(0%,0%,100%);fill-opacity:1;" d="M 52.421875 134.25 C 52.421875 136.914062 48.421875 136.914062 48.421875 134.25 C 48.421875 131.582031 52.421875 131.582031 52.421875 134.25 "/>
<path style=" stroke:none;fill-rule:nonzero;fill:rgb(0%,0%,100%);fill-opacity:1;" d="M 88.089844 146.371094 C 88.089844 149.039062 84.089844 149.039062 84.089844 146.371094 C 84.089844 143.707031 88.089844 143.707031 88.089844 146.371094 "/>
<path style=" stroke:none;fill-rule:nonzero;fill:rgb(0%,0%,100%);fill-opacity:1;" d="M 54.800781 146.371094 C 54.800781 149.039062 50.800781 149.039062 50.800781 146.371094 C 50.800781 143.707031 54.800781 143.707031 54.800781 146.371094 "/>
<path style=" stroke:none;fill-rule:nonzero;fill:rgb(0%,0%,100%);fill-opacity:1;" d="M 102.355469 146.371094 C 102.355469 149.039062 98.355469 149.039062 98.355469 146.371094 C 98.355469 143.707031 102.355469 143.707031 102.355469 146.371094 "/>
<path style=" stroke:none;fill-rule:nonzero;fill:rgb(0%,0%,100%);fill-opacity:1;" d="M 40.53125 146.371094 C 40.53125 149.039062 36.53125 149.039062 36.53125 146.371094 C 36.53125 143.707031 40.53125 143.707031 40.53125 146.371094 "/>
<path style=" stroke:none;fill-rule:nonzero;fill:rgb(0%,0%,100%);fill-opacity:1;" d="M 99.976562 134.25 C 99.976562 136.914062 95.976562 136.914062 95.976562 134.25 C 95.976562 131.582031 99.976562 131.582031 99.976562 134.25 "/>
<path style=" stroke:none;fill-rule:nonzero;fill:rgb(0%,0%,100%);fill-opacity:1;" d="M 42.910156 134.25 C 42.910156 136.914062 38.910156 136.914062 38.910156 134.25 C 38.910156 131.582031 42.910156 131.582031 42.910156 134.25 "/>
<path style=" stroke:none;fill-rule:nonzero;fill:rgb(0%,0%,100%);fill-opacity:1;" d="M 85.710938 110 C 85.710938 112.667969 81.710938 112.667969 81.710938 110 C 81.710938 107.332031 85.710938 107.332031 85.710938 110 "/>
<path style=" stroke:none;fill-rule:nonzero;fill:rgb(0%,0%,100%);fill-opacity:1;" d="M 57.175781 110 C 57.175781 112.667969 53.175781 112.667969 53.175781 110 C 53.175781 107.332031 57.175781 107.332031 57.175781 110 "/>
<path style=" stroke:none;fill-rule:nonzero;fill:rgb(0%,0%,100%);fill-opacity:1;" d="M 97.597656 122.125 C 97.597656 124.789062 93.597656 124.789062 93.597656 122.125 C 93.597656 119.457031 97.597656 119.457031 97.597656 122.125 "/>
<path style=" stroke:none;fill-rule:nonzero;fill:rgb(0%,0%,100%);fill-opacity:1;" d="M 45.289062 122.125 C 45.289062 124.789062 41.289062 124.789062 41.289062 122.125 C 41.289062 119.457031 45.289062 119.457031 45.289062 122.125 "/>
<path style=" stroke:none;fill-rule:nonzero;fill:rgb(0%,0%,100%);fill-opacity:1;" d="M 85.710938 134.25 C 85.710938 136.914062 81.710938 136.914062 81.710938 134.25 C 81.710938 131.582031 85.710938 131.582031 85.710938 134.25 "/>
<path style=" stroke:none;fill-rule:nonzero;fill:rgb(0%,0%,100%);fill-opacity:1;" d="M 57.175781 134.25 C 57.175781 136.914062 53.175781 136.914062 53.175781 134.25 C 53.175781 131.582031 57.175781 131.582031 57.175781 134.25 "/>
<path style=" stroke:none;fill-rule:nonzero;fill:rgb(0%,0%,100%);fill-opacity:1;" d="M 97.597656 146.371094 C 97.597656 149.039062 93.597656 149.039062 93.597656 146.371094 C 93.597656 143.707031 97.597656 143.707031 97.597656 146.371094 "/>
<path style=" stroke:none;fill-rule:nonzero;fill:rgb(0%,0%,100%);fill-opacity:1;" d="M 45.289062 146.371094 C 45.289062 149.039062 41.289062 149.039062 41.289062 146.371094 C 41.289062 143.707031 45.289062 143.707031 45.289062 146.371094 "/>
<path style=" stroke:none;fill-rule:nonzero;fill:rgb(0%,0%,100%);fill-opacity:1;" d="M 119 110 C 119 112.667969 115 112.667969 115 110 C 115 107.332031 119 107.332031 119 110 "/>
<path style=" stroke:none;fill-rule:nonzero;fill:rgb(0%,0%,100%);fill-opacity:1;" d="M 23.890625 110 C 23.890625 112.667969 19.890625 112.667969 19.890625 110 C 19.890625 107.332031 23.890625 107.332031 23.890625 110 "/>
<path style=" stroke:none;fill-rule:nonzero;fill:rgb(0%,0%,100%);fill-opacity:1;" d="M 116.621094 122.125 C 116.621094 124.789062 112.621094 124.789062 112.621094 122.125 C 112.621094 119.457031 116.621094 119.457031 116.621094 122.125 "/>
<path style=" stroke:none;fill-rule:nonzero;fill:rgb(0%,0%,100%);fill-opacity:1;" d="M 26.265625 122.125 C 26.265625 124.789062 22.265625 124.789062 22.265625 122.125 C 22.265625 119.457031 26.265625 119.457031 26.265625 122.125 "/>
<path style=" stroke:none;fill-rule:nonzero;fill:rgb(0%,0%,100%);fill-opacity:1;" d="M 12 122.125 C 12 124.789062 8 124.789062 8 122.125 C 8 119.457031 12 119.457031 12 122.125 "/>
<path style=" stroke:none;fill-rule:nonzero;fill:rgb(0%,0%,100%);fill-opacity:1;" d="M 14.378906 110 C 14.378906 112.667969 10.378906 112.667969 10.378906 110 C 10.378906 107.332031 14.378906 107.332031 14.378906 110 "/>
<path style=" stroke:none;fill-rule:nonzero;fill:rgb(0%,0%,100%);fill-opacity:1;" d="M 119 134.25 C 119 136.914062 115 136.914062 115 134.25 C 115 131.582031 119 131.582031 119 134.25 "/>
<path style=" stroke:none;fill-rule:nonzero;fill:rgb(0%,0%,100%);fill-opacity:1;" d="M 23.890625 134.25 C 23.890625 136.914062 19.890625 136.914062 19.890625 134.25 C 19.890625 131.582031 23.890625 131.582031 23.890625 134.25 "/>
<path style=" stroke:none;fill-rule:nonzero;fill:rgb(0%,0%,100%);fill-opacity:1;" d="M 116.621094 146.371094 C 116.621094 149.039062 112.621094 149.039062 112.621094 146.371094 C 112.621094 143.707031 116.621094 143.707031 116.621094 146.371094 "/>
<path style=" stroke:none;fill-rule:nonzero;fill:rgb(0%,0%,100%);fill-opacity:1;" d="M 26.265625 146.371094 C 26.265625 149.039062 22.265625 149.039062 22.265625 146.371094 C 22.265625 143.707031 26.265625 143.707031 26.265625 146.371094 "/>
<path style=" stroke:none;fill-rule:nonzero;fill:rgb(0%,0%,100%);fill-opacity:1;" d="M 12 146.371094 C 12 149.039062 8 149.039062 8 146.371094 C 8 143.707031 12 143.707031 12 146.371094 "/>
<path style=" stroke:none;fill-rule:nonzero;fill:rgb(0%,0%,100%);fill-opacity:1;" d="M 14.378906 134.25 C 14.378906 136.914062 10.378906 136.914062 10.378906 134.25 C 10.378906 131.582031 14.378906 131.582031 14.378906 134.25 "/>
<path style=" stroke:none;fill-rule:nonzero;fill:rgb(0%,0%,100%);fill-opacity:1;" d="M 114.242188 110 C 114.242188 112.667969 110.242188 112.667969 110.242188 110 C 110.242188 107.332031 114.242188 107.332031 114.242188 110 "/>
<path style=" stroke:none;fill-rule:nonzero;fill:rgb(0%,0%,100%);fill-opacity:1;" d="M 28.644531 110 C 28.644531 112.667969 24.644531 112.667969 24.644531 110 C 24.644531 107.332031 28.644531 107.332031 28.644531 110 "/>
<path style=" stroke:none;fill-rule:nonzero;fill:rgb(0%,0%,100%);fill-opacity:1;" d="M 111.867188 122.125 C 111.867188 124.789062 107.867188 124.789062 107.867188 122.125 C 107.867188 119.457031 111.867188 119.457031 111.867188 122.125 "/>
<path style=" stroke:none;fill-rule:nonzero;fill:rgb(0%,0%,100%);fill-opacity:1;" d="M 31.023438 122.125 C 31.023438 124.789062 27.023438 124.789062 27.023438 122.125 C 27.023438 119.457031 31.023438 119.457031 31.023438 122.125 "/>
<path style=" stroke:none;fill-rule:nonzero;fill:rgb(0%,0%,100%);fill-opacity:1;" d="M 126.132812 122.125 C 126.132812 124.789062 122.132812 124.789062 122.132812 122.125 C 122.132812 119.457031 126.132812 119.457031 126.132812 122.125 "/>
<path style=" stroke:none;fill-rule:nonzero;fill:rgb(0%,0%,100%);fill-opacity:1;" d="M 16.753906 122.125 C 16.753906 124.789062 12.753906 124.789062 12.753906 122.125 C 12.753906 119.457031 16.753906 119.457031 16.753906 122.125 "/>
<path style=" stroke:none;fill-rule:nonzero;fill:rgb(0%,0%,100%);fill-opacity:1;" d="M 123.753906 110 C 123.753906 112.667969 119.753906 112.667969 119.753906 110 C 119.753906 107.332031 123.753906 107.332031 123.753906 110 "/>
<path style=" stroke:none;fill-rule:nonzero;fill:rgb(0%,0%,100%);fill-opacity:1;" d="M 19.132812 110 C 19.132812 112.667969 15.132812 112.667969 15.132812 110 C 15.132812 107.332031 19.132812 107.332031 19.132812 110 "/>
<path style=" stroke:none;fill-rule:nonzero;fill:rgb(0%,0%,100%);fill-opacity:1;" d="M 114.242188 134.25 C 114.242188 136.914062 110.242188 136.914062 110.242188 134.25 C 110.242188 131.582031 114.242188 131.582031 114.242188 134.25 "/>
<path style=" stroke:none;fill-rule:nonzero;fill:rgb(0%,0%,100%);fill-opacity:1;" d="M 28.644531 134.25 C 28.644531 136.914062 24.644531 136.914062 24.644531 134.25 C 24.644531 131.582031 28.644531 131.582031 28.644531 134.25 "/>
<path style=" stroke:none;fill-rule:nonzero;fill:rgb(0%,0%,100%);fill-opacity:1;" d="M 111.867188 146.371094 C 111.867188 149.039062 107.867188 149.039062 107.867188 146.371094 C 107.867188 143.707031 111.867188 143.707031 111.867188 146.371094 "/>
<path style=" stroke:none;fill-rule:nonzero;fill:rgb(0%,0%,100%);fill-opacity:1;" d="M 31.023438 146.371094 C 31.023438 149.039062 27.023438 149.039062 27.023438 146.371094 C 27.023438 143.707031 31.023438 143.707031 31.023438 146.371094 "/>
<path style=" stroke:none;fill-rule:nonzero;fill:rgb(0%,0%,100%);fill-opacity:1;" d="M 126.132812 146.371094 C 126.132812 149.039062 122.132812 149.039062 122.132812 146.371094 C 122.132812 143.707031 126.132812 143.707031 126.132812 146.371094 "/>
<path style=" stroke:none;fill-rule:nonzero;fill:rgb(0%,0%,100%);fill-opacity:1;" d="M 16.753906 146.371094 C 16.753906 149.039062 12.753906 149.039062 12.753906 146.371094 C 12.753906 143.707031 16.753906 143.707031 16.753906 146.371094 "/>
<path style=" stroke:none;fill-rule:nonzero;fill:rgb(0%,0%,100%);fill-opacity:1;" d="M 123.753906 134.25 C 123.753906 136.914062 119.753906 136.914062 119.753906 134.25 C 119.753906 131.582031 123.753906 131.582031 123.753906 134.25 "/>
<path style=" stroke:none;fill-rule:nonzero;fill:rgb(0%,0%,100%);fill-opacity:1;" d="M 19.132812 134.25 C 19.132812 136.914062 15.132812 136.914062 15.132812 134.25 C 15.132812 131.582031 19.132812 131.582031 19.132812 134.25 "/>
<path style=" stroke:none;fill-rule:nonzero;fill:rgb(0%,0%,100%);fill-opacity:1;" d="M 109.488281 110 C 109.488281 112.667969 105.488281 112.667969 105.488281 110 C 105.488281 107.332031 109.488281 107.332031 109.488281 110 "/>
<path style=" stroke:none;fill-rule:nonzero;fill:rgb(0%,0%,100%);fill-opacity:1;" d="M 33.398438 110 C 33.398438 112.667969 29.398438 112.667969 29.398438 110 C 29.398438 107.332031 33.398438 107.332031 33.398438 110 "/>
<path style=" stroke:none;fill-rule:nonzero;fill:rgb(0%,0%,100%);fill-opacity:1;" d="M 121.375 122.125 C 121.375 124.789062 117.375 124.789062 117.375 122.125 C 117.375 119.457031 121.375 119.457031 121.375 122.125 "/>
<path style=" stroke:none;fill-rule:nonzero;fill:rgb(0%,0%,100%);fill-opacity:1;" d="M 21.511719 122.125 C 21.511719 124.789062 17.511719 124.789062 17.511719 122.125 C 17.511719 119.457031 21.511719 119.457031 21.511719 122.125 "/>
<path style=" stroke:none;fill-rule:nonzero;fill:rgb(0%,0%,100%);fill-opacity:1;" d="M 109.488281 134.25 C 109.488281 136.914062 105.488281 136.914062 105.488281 134.25 C 105.488281 131.582031 109.488281 131.582031 109.488281 134.25 "/>
<path style=" stroke:none;fill-rule:nonzero;fill:rgb(0%,0%,100%);fill-opacity:1;" d="M 33.398438 134.25 C 33.398438 136.914062 29.398438 136.914062 29.398438 134.25 C 29.398438 131.582031 33.398438 131.582031 33.398438 134.25 "/>
<path style=" stroke:none;fill-rule:nonzero;fill:rgb(0%,0%,100%);fill-opacity:1;" d="M 121.375 146.371094 C 121.375 149.039062 117.375 149.039062 117.375 146.371094 C 117.375 143.707031 121.375 143.707031 121.375 146.371094 "/>
<path style=" stroke:none;fill-rule:nonzero;fill:rgb(0%,0%,100%);fill-opacity:1;" d="M 21.511719 146.371094 C 21.511719 149.039062 17.511719 149.039062 17.511719 146.371094 C 17.511719 143.707031 21.511719 143.707031 21.511719 146.371094 "/>
<path style=" stroke:none;fill-rule:nonzero;fill:rgb(100%,0%,0%);fill-opacity:1;" d="M 212.332031 122.125 C 212.332031 125.324219 207.53125 125.324219 207.53125 122.125 C 207.53125 118.925781 212.332031 118.925781 212.332031 122.125 "/>
<path style=" stroke:none;fill-rule:nonzero;fill:rgb(100%,0%,0%);fill-opacity:1;" d="M 212.332031 146.371094 C 212.332031 149.574219 207.53125 149.574219 207.53125 146.371094 C 207.53125 143.171875 212.332031 143.171875 212.332031 146.371094 "/>
<path style=" stroke:none;fill-rule:nonzero;fill:rgb(100%,0%,0%);fill-opacity:1;" d="M 186.175781 110 C 186.175781 113.199219 181.378906 113.199219 181.378906 110 C 181.378906 106.800781 186.175781 106.800781 186.175781 110 "/>
<path style=" stroke:none;fill-rule:nonzero;fill:rgb(100%,0%,0%);fill-opacity:1;" d="M 186.175781 134.25 C 186.175781 137.449219 181.378906 137.449219 181.378906 134.25 C 181.378906 131.046875 186.175781 131.046875 186.175781 134.25 "/>
<path style=" stroke:none;fill-rule:nonzero;fill:rgb(0%,0%,100%);fill-opacity:1;" d="M 162 110 C 162 112.667969 158 112.667969 158 110 C 158 107.332031 162 107.332031 162 110 "/>
<path style=" stroke:none;fill-rule:nonzero;fill:rgb(0%,0%,100%);fill-opacity:1;" d="M 164.378906 122.125 C 164.378906 124.789062 160.378906 124.789062 160.378906 122.125 C 160.378906 119.457031 164.378906 119.457031 164.378906 122.125 "/>
<path style=" stroke:none;fill-rule:nonzero;fill:rgb(0%,0%,100%);fill-opacity:1;" d="M 164.378906 122.125 C 164.378906 124.789062 160.378906 124.789062 160.378906 122.125 C 160.378906 119.457031 164.378906 119.457031 164.378906 122.125 "/>
<path style=" stroke:none;fill-rule:nonzero;fill:rgb(0%,0%,100%);fill-opacity:1;" d="M 176.265625 110 C 176.265625 112.667969 172.265625 112.667969 172.265625 110 C 172.265625 107.332031 176.265625 107.332031 176.265625 110 "/>
<path style=" stroke:none;fill-rule:nonzero;fill:rgb(0%,0%,100%);fill-opacity:1;" d="M 176.265625 110 C 176.265625 112.667969 172.265625 112.667969 172.265625 110 C 172.265625 107.332031 176.265625 107.332031 176.265625 110 "/>
<path style=" stroke:none;fill-rule:nonzero;fill:rgb(0%,0%,100%);fill-opacity:1;" d="M 162 134.25 C 162 136.914062 158 136.914062 158 134.25 C 158 131.582031 162 131.582031 162 134.25 "/>
<path style=" stroke:none;fill-rule:nonzero;fill:rgb(0%,0%,100%);fill-opacity:1;" d="M 164.378906 146.371094 C 164.378906 149.039062 160.378906 149.039062 160.378906 146.371094 C 160.378906 143.707031 164.378906 143.707031 164.378906 146.371094 "/>
<path style=" stroke:none;fill-rule:nonzero;fill:rgb(0%,0%,100%);fill-opacity:1;" d="M 164.378906 146.371094 C 164.378906 149.039062 160.378906 149.039062 160.378906 146.371094 C 160.378906 143.707031 164.378906 143.707031 164.378906 146.371094 "/>
<path style=" stroke:none;fill-rule:nonzero;fill:rgb(0%,0%,100%);fill-opacity:1;" d="M 176.265625 134.25 C 176.265625 136.914062 172.265625 136.914062 172.265625 134.25 C 172.265625 131.582031 176.265625 131.582031 176.265625 134.25 "/>
<path style=" stroke:none;fill-rule:nonzero;fill:rgb(0%,0%,100%);fill-opacity:1;" d="M 176.265625 134.25 C 176.265625 136.914062 172.265625 136.914062 172.265625 134.25 C 172.265625 131.582031 176.265625 131.582031 176.265625 134.25 "/>
<path style=" stroke:none;fill-rule:nonzero;fill:rgb(0%,0%,100%);fill-opacity:1;" d="M 188.15625 122.125 C 188.15625 124.789062 184.15625 124.789062 184.15625 122.125 C 184.15625 119.457031 188.15625 119.457031 188.15625 122.125 "/>
<path style=" stroke:none;fill-rule:nonzero;fill:rgb(0%,0%,100%);fill-opacity:1;" d="M 188.15625 122.125 C 188.15625 124.789062 184.15625 124.789062 184.15625 122.125 C 184.15625 119.457031 188.15625 119.457031 188.15625 122.125 "/>
<path style=" stroke:none;fill-rule:nonzero;fill:rgb(0%,0%,100%);fill-opacity:1;" d="M 200.042969 110 C 200.042969 112.667969 196.042969 112.667969 196.042969 110 C 196.042969 107.332031 200.042969 107.332031 200.042969 110 "/>
<path style=" stroke:none;fill-rule:nonzero;fill:rgb(0%,0%,100%);fill-opacity:1;" d="M 200.042969 110 C 200.042969 112.667969 196.042969 112.667969 196.042969 110 C 196.042969 107.332031 200.042969 107.332031 200.042969 110 "/>
<path style=" stroke:none;fill-rule:nonzero;fill:rgb(0%,0%,100%);fill-opacity:1;" d="M 188.15625 146.371094 C 188.15625 149.039062 184.15625 149.039062 184.15625 146.371094 C 184.15625 143.707031 188.15625 143.707031 188.15625 146.371094 "/>
<path style=" stroke:none;fill-rule:nonzero;fill:rgb(0%,0%,100%);fill-opacity:1;" d="M 188.15625 146.371094 C 188.15625 149.039062 184.15625 149.039062 184.15625 146.371094 C 184.15625 143.707031 188.15625 143.707031 188.15625 146.371094 "/>
<path style=" stroke:none;fill-rule:nonzero;fill:rgb(0%,0%,100%);fill-opacity:1;" d="M 200.042969 134.25 C 200.042969 136.914062 196.042969 136.914062 196.042969 134.25 C 196.042969 131.582031 200.042969 131.582031 200.042969 134.25 "/>
<path style=" stroke:none;fill-rule:nonzero;fill:rgb(0%,0%,100%);fill-opacity:1;" d="M 200.042969 134.25 C 200.042969 136.914062 196.042969 136.914062 196.042969 134.25 C 196.042969 131.582031 200.042969 131.582031 200.042969 134.25 "/>
<path style=" stroke:none;fill-rule:nonzero;fill:rgb(0%,0%,100%);fill-opacity:1;" d="M 211.933594 122.125 C 211.933594 124.789062 207.933594 124.789062 207.933594 122.125 C 207.933594 119.457031 211.933594 119.457031 211.933594 122.125 "/>
<path style=" stroke:none;fill-rule:nonzero;fill:rgb(0%,0%,100%);fill-opacity:1;" d="M 211.933594 146.371094 C 211.933594 149.039062 207.933594 149.039062 207.933594 146.371094 C 207.933594 143.707031 211.933594 143.707031 211.933594 146.371094 "/>
<path style=" stroke:none;fill-rule:nonzero;fill:rgb(0%,0%,100%);fill-opacity:1;" d="M 166.753906 110 C 166.753906 112.667969 162.753906 112.667969 162.753906 110 C 162.753906 107.332031 166.753906 107.332031 166.753906 110 "/>
<path style=" stroke:none;fill-rule:nonzero;fill:rgb(0%,0%,100%);fill-opacity:1;" d="M 166.753906 110 C 166.753906 112.667969 162.753906 112.667969 162.753906 110 C 162.753906 107.332031 166.753906 107.332031 166.753906 110 "/>
<path style=" stroke:none;fill-rule:nonzero;fill:rgb(0%,0%,100%);fill-opacity:1;" d="M 178.644531 122.125 C 178.644531 124.789062 174.644531 124.789062 174.644531 122.125 C 174.644531 119.457031 178.644531 119.457031 178.644531 122.125 "/>
<path style=" stroke:none;fill-rule:nonzero;fill:rgb(0%,0%,100%);fill-opacity:1;" d="M 178.644531 122.125 C 178.644531 124.789062 174.644531 124.789062 174.644531 122.125 C 174.644531 119.457031 178.644531 119.457031 178.644531 122.125 "/>
<path style=" stroke:none;fill-rule:nonzero;fill:rgb(0%,0%,100%);fill-opacity:1;" d="M 169.132812 122.125 C 169.132812 124.789062 165.132812 124.789062 165.132812 122.125 C 165.132812 119.457031 169.132812 119.457031 169.132812 122.125 "/>
<path style=" stroke:none;fill-rule:nonzero;fill:rgb(0%,0%,100%);fill-opacity:1;" d="M 169.132812 122.125 C 169.132812 124.789062 165.132812 124.789062 165.132812 122.125 C 165.132812 119.457031 169.132812 119.457031 169.132812 122.125 "/>
<path style=" stroke:none;fill-rule:nonzero;fill:rgb(0%,0%,100%);fill-opacity:1;" d="M 181.023438 110 C 181.023438 112.667969 177.023438 112.667969 177.023438 110 C 177.023438 107.332031 181.023438 107.332031 181.023438 110 "/>
<path style=" stroke:none;fill-rule:nonzero;fill:rgb(0%,0%,100%);fill-opacity:1;" d="M 181.023438 110 C 181.023438 112.667969 177.023438 112.667969 177.023438 110 C 177.023438 107.332031 181.023438 107.332031 181.023438 110 "/>
<path style=" stroke:none;fill-rule:nonzero;fill:rgb(0%,0%,100%);fill-opacity:1;" d="M 166.753906 134.25 C 166.753906 136.914062 162.753906 136.914062 162.753906 134.25 C 162.753906 131.582031 166.753906 131.582031 166.753906 134.25 "/>
<path style=" stroke:none;fill-rule:nonzero;fill:rgb(0%,0%,100%);fill-opacity:1;" d="M 166.753906 134.25 C 166.753906 136.914062 162.753906 136.914062 162.753906 134.25 C 162.753906 131.582031 166.753906 131.582031 166.753906 134.25 "/>
<path style=" stroke:none;fill-rule:nonzero;fill:rgb(0%,0%,100%);fill-opacity:1;" d="M 178.644531 146.371094 C 178.644531 149.039062 174.644531 149.039062 174.644531 146.371094 C 174.644531 143.707031 178.644531 143.707031 178.644531 146.371094 "/>
<path style=" stroke:none;fill-rule:nonzero;fill:rgb(0%,0%,100%);fill-opacity:1;" d="M 178.644531 146.371094 C 178.644531 149.039062 174.644531 149.039062 174.644531 146.371094 C 174.644531 143.707031 178.644531 143.707031 178.644531 146.371094 "/>
<path style=" stroke:none;fill-rule:nonzero;fill:rgb(0%,0%,100%);fill-opacity:1;" d="M 169.132812 146.371094 C 169.132812 149.039062 165.132812 149.039062 165.132812 146.371094 C 165.132812 143.707031 169.132812 143.707031 169.132812 146.371094 "/>
<path style=" stroke:none;fill-rule:nonzero;fill:rgb(0%,0%,100%);fill-opacity:1;" d="M 169.132812 146.371094 C 169.132812 149.039062 165.132812 149.039062 165.132812 146.371094 C 165.132812 143.707031 169.132812 143.707031 169.132812 146.371094 "/>
<path style=" stroke:none;fill-rule:nonzero;fill:rgb(0%,0%,100%);fill-opacity:1;" d="M 181.023438 134.25 C 181.023438 136.914062 177.023438 136.914062 177.023438 134.25 C 177.023438 131.582031 181.023438 131.582031 181.023438 134.25 "/>
<path style=" stroke:none;fill-rule:nonzero;fill:rgb(0%,0%,100%);fill-opacity:1;" d="M 181.023438 134.25 C 181.023438 136.914062 177.023438 136.914062 177.023438 134.25 C 177.023438 131.582031 181.023438 131.582031 181.023438 134.25 "/>
<path style=" stroke:none;fill-rule:nonzero;fill:rgb(0%,0%,100%);fill-opacity:1;" d="M 190.53125 110 C 190.53125 112.667969 186.53125 112.667969 186.53125 110 C 186.53125 107.332031 190.53125 107.332031 190.53125 110 "/>
<path style=" stroke:none;fill-rule:nonzero;fill:rgb(0%,0%,100%);fill-opacity:1;" d="M 190.53125 110 C 190.53125 112.667969 186.53125 112.667969 186.53125 110 C 186.53125 107.332031 190.53125 107.332031 190.53125 110 "/>
<path style=" stroke:none;fill-rule:nonzero;fill:rgb(0%,0%,100%);fill-opacity:1;" d="M 202.421875 122.125 C 202.421875 124.789062 198.421875 124.789062 198.421875 122.125 C 198.421875 119.457031 202.421875 119.457031 202.421875 122.125 "/>
<path style=" stroke:none;fill-rule:nonzero;fill:rgb(0%,0%,100%);fill-opacity:1;" d="M 202.421875 122.125 C 202.421875 124.789062 198.421875 124.789062 198.421875 122.125 C 198.421875 119.457031 202.421875 119.457031 202.421875 122.125 "/>
<path style=" stroke:none;fill-rule:nonzero;fill:rgb(0%,0%,100%);fill-opacity:1;" d="M 192.910156 122.125 C 192.910156 124.789062 188.910156 124.789062 188.910156 122.125 C 188.910156 119.457031 192.910156 119.457031 192.910156 122.125 "/>
<path style=" stroke:none;fill-rule:nonzero;fill:rgb(0%,0%,100%);fill-opacity:1;" d="M 192.910156 122.125 C 192.910156 124.789062 188.910156 124.789062 188.910156 122.125 C 188.910156 119.457031 192.910156 119.457031 192.910156 122.125 "/>
<path style=" stroke:none;fill-rule:nonzero;fill:rgb(0%,0%,100%);fill-opacity:1;" d="M 204.800781 110 C 204.800781 112.667969 200.800781 112.667969 200.800781 110 C 200.800781 107.332031 204.800781 107.332031 204.800781 110 "/>
<path style=" stroke:none;fill-rule:nonzero;fill:rgb(0%,0%,100%);fill-opacity:1;" d="M 204.800781 110 C 204.800781 112.667969 200.800781 112.667969 200.800781 110 C 200.800781 107.332031 204.800781 107.332031 204.800781 110 "/>
<path style=" stroke:none;fill-rule:nonzero;fill:rgb(0%,0%,100%);fill-opacity:1;" d="M 190.53125 134.25 C 190.53125 136.914062 186.53125 136.914062 186.53125 134.25 C 186.53125 131.582031 190.53125 131.582031 190.53125 134.25 "/>
<path style=" stroke:none;fill-rule:nonzero;fill:rgb(0%,0%,100%);fill-opacity:1;" d="M 190.53125 134.25 C 190.53125 136.914062 186.53125 136.914062 186.53125 134.25 C 186.53125 131.582031 190.53125 131.582031 190.53125 134.25 "/>
<path style=" stroke:none;fill-rule:nonzero;fill:rgb(0%,0%,100%);fill-opacity:1;" d="M 202.421875 146.371094 C 202.421875 149.039062 198.421875 149.039062 198.421875 146.371094 C 198.421875 143.707031 202.421875 143.707031 202.421875 146.371094 "/>
<path style=" stroke:none;fill-rule:nonzero;fill:rgb(0%,0%,100%);fill-opacity:1;" d="M 202.421875 146.371094 C 202.421875 149.039062 198.421875 149.039062 198.421875 146.371094 C 198.421875 143.707031 202.421875 143.707031 202.421875 146.371094 "/>
<path style=" stroke:none;fill-rule:nonzero;fill:rgb(0%,0%,100%);fill-opacity:1;" d="M 192.910156 146.371094 C 192.910156 149.039062 188.910156 149.039062 188.910156 146.371094 C 188.910156 143.707031 192.910156 143.707031 192.910156 146.371094 "/>
<path style=" stroke:none;fill-rule:nonzero;fill:rgb(0%,0%,100%);fill-opacity:1;" d="M 192.910156 146.371094 C 192.910156 149.039062 188.910156 149.039062 188.910156 146.371094 C 188.910156 143.707031 192.910156 143.707031 192.910156 146.371094 "/>
<path style=" stroke:none;fill-rule:nonzero;fill:rgb(0%,0%,100%);fill-opacity:1;" d="M 204.800781 134.25 C 204.800781 136.914062 200.800781 136.914062 200.800781 134.25 C 200.800781 131.582031 204.800781 131.582031 204.800781 134.25 "/>
<path style=" stroke:none;fill-rule:nonzero;fill:rgb(0%,0%,100%);fill-opacity:1;" d="M 204.800781 134.25 C 204.800781 136.914062 200.800781 136.914062 200.800781 134.25 C 200.800781 131.582031 204.800781 131.582031 204.800781 134.25 "/>
<path style=" stroke:none;fill-rule:nonzero;fill:rgb(0%,0%,100%);fill-opacity:1;" d="M 214.308594 110 C 214.308594 112.667969 210.308594 112.667969 210.308594 110 C 210.308594 107.332031 214.308594 107.332031 214.308594 110 "/>
<path style=" stroke:none;fill-rule:nonzero;fill:rgb(0%,0%,100%);fill-opacity:1;" d="M 214.308594 110 C 214.308594 112.667969 210.308594 112.667969 210.308594 110 C 210.308594 107.332031 214.308594 107.332031 214.308594 110 "/>
<path style=" stroke:none;fill-rule:nonzero;fill:rgb(0%,0%,100%);fill-opacity:1;" d="M 216.6875 122.125 C 216.6875 124.789062 212.6875 124.789062 212.6875 122.125 C 212.6875 119.457031 216.6875 119.457031 216.6875 122.125 "/>
<path style=" stroke:none;fill-rule:nonzero;fill:rgb(0%,0%,100%);fill-opacity:1;" d="M 216.6875 122.125 C 216.6875 124.789062 212.6875 124.789062 212.6875 122.125 C 212.6875 119.457031 216.6875 119.457031 216.6875 122.125 "/>
<path style=" stroke:none;fill-rule:nonzero;fill:rgb(0%,0%,100%);fill-opacity:1;" d="M 214.308594 134.25 C 214.308594 136.914062 210.308594 136.914062 210.308594 134.25 C 210.308594 131.582031 214.308594 131.582031 214.308594 134.25 "/>
<path style=" stroke:none;fill-rule:nonzero;fill:rgb(0%,0%,100%);fill-opacity:1;" d="M 214.308594 134.25 C 214.308594 136.914062 210.308594 136.914062 210.308594 134.25 C 210.308594 131.582031 214.308594 131.582031 214.308594 134.25 "/>
<path style=" stroke:none;fill-rule:nonzero;fill:rgb(0%,0%,100%);fill-opacity:1;" d="M 216.6875 146.371094 C 216.6875 149.039062 212.6875 149.039062 212.6875 146.371094 C 212.6875 143.707031 216.6875 143.707031 216.6875 146.371094 "/>
<path style=" stroke:none;fill-rule:nonzero;fill:rgb(0%,0%,100%);fill-opacity:1;" d="M 216.6875 146.371094 C 216.6875 149.039062 212.6875 149.039062 212.6875 146.371094 C 212.6875 143.707031 216.6875 143.707031 216.6875 146.371094 "/>
<path style=" stroke:none;fill-rule:nonzero;fill:rgb(0%,0%,100%);fill-opacity:1;" d="M 171.511719 110 C 171.511719 112.667969 167.511719 112.667969 167.511719 110 C 167.511719 107.332031 171.511719 107.332031 171.511719 110 "/>
<path style=" stroke:none;fill-rule:nonzero;fill:rgb(0%,0%,100%);fill-opacity:1;" d="M 171.511719 110 C 171.511719 112.667969 167.511719 112.667969 167.511719 110 C 167.511719 107.332031 171.511719 107.332031 171.511719 110 "/>
<path style=" stroke:none;fill-rule:nonzero;fill:rgb(0%,0%,100%);fill-opacity:1;" d="M 183.398438 122.125 C 183.398438 124.789062 179.398438 124.789062 179.398438 122.125 C 179.398438 119.457031 183.398438 119.457031 183.398438 122.125 "/>
<path style=" stroke:none;fill-rule:nonzero;fill:rgb(0%,0%,100%);fill-opacity:1;" d="M 183.398438 122.125 C 183.398438 124.789062 179.398438 124.789062 179.398438 122.125 C 179.398438 119.457031 183.398438 119.457031 183.398438 122.125 "/>
<path style=" stroke:none;fill-rule:nonzero;fill:rgb(0%,0%,100%);fill-opacity:1;" d="M 173.890625 122.125 C 173.890625 124.789062 169.890625 124.789062 169.890625 122.125 C 169.890625 119.457031 173.890625 119.457031 173.890625 122.125 "/>
<path style=" stroke:none;fill-rule:nonzero;fill:rgb(0%,0%,100%);fill-opacity:1;" d="M 185.777344 110 C 185.777344 112.667969 181.777344 112.667969 181.777344 110 C 181.777344 107.332031 185.777344 107.332031 185.777344 110 "/>
<path style=" stroke:none;fill-rule:nonzero;fill:rgb(0%,0%,100%);fill-opacity:1;" d="M 171.511719 134.25 C 171.511719 136.914062 167.511719 136.914062 167.511719 134.25 C 167.511719 131.582031 171.511719 131.582031 171.511719 134.25 "/>
<path style=" stroke:none;fill-rule:nonzero;fill:rgb(0%,0%,100%);fill-opacity:1;" d="M 171.511719 134.25 C 171.511719 136.914062 167.511719 136.914062 167.511719 134.25 C 167.511719 131.582031 171.511719 131.582031 171.511719 134.25 "/>
<path style=" stroke:none;fill-rule:nonzero;fill:rgb(0%,0%,100%);fill-opacity:1;" d="M 183.398438 146.371094 C 183.398438 149.039062 179.398438 149.039062 179.398438 146.371094 C 179.398438 143.707031 183.398438 143.707031 183.398438 146.371094 "/>
<path style=" stroke:none;fill-rule:nonzero;fill:rgb(0%,0%,100%);fill-opacity:1;" d="M 183.398438 146.371094 C 183.398438 149.039062 179.398438 149.039062 179.398438 146.371094 C 179.398438 143.707031 183.398438 143.707031 183.398438 146.371094 "/>
<path style=" stroke:none;fill-rule:nonzero;fill:rgb(0%,0%,100%);fill-opacity:1;" d="M 173.890625 146.371094 C 173.890625 149.039062 169.890625 149.039062 169.890625 146.371094 C 169.890625 143.707031 173.890625 143.707031 173.890625 146.371094 "/>
<path style=" stroke:none;fill-rule:nonzero;fill:rgb(0%,0%,100%);fill-opacity:1;" d="M 185.777344 134.25 C 185.777344 136.914062 181.777344 136.914062 181.777344 134.25 C 181.777344 131.582031 185.777344 131.582031 185.777344 134.25 "/>
<path style=" stroke:none;fill-rule:nonzero;fill:rgb(0%,0%,100%);fill-opacity:1;" d="M 195.289062 110 C 195.289062 112.667969 191.289062 112.667969 191.289062 110 C 191.289062 107.332031 195.289062 107.332031 195.289062 110 "/>
<path style=" stroke:none;fill-rule:nonzero;fill:rgb(0%,0%,100%);fill-opacity:1;" d="M 195.289062 110 C 195.289062 112.667969 191.289062 112.667969 191.289062 110 C 191.289062 107.332031 195.289062 107.332031 195.289062 110 "/>
<path style=" stroke:none;fill-rule:nonzero;fill:rgb(0%,0%,100%);fill-opacity:1;" d="M 207.175781 122.125 C 207.175781 124.789062 203.175781 124.789062 203.175781 122.125 C 203.175781 119.457031 207.175781 119.457031 207.175781 122.125 "/>
<path style=" stroke:none;fill-rule:nonzero;fill:rgb(0%,0%,100%);fill-opacity:1;" d="M 207.175781 122.125 C 207.175781 124.789062 203.175781 124.789062 203.175781 122.125 C 203.175781 119.457031 207.175781 119.457031 207.175781 122.125 "/>
<path style=" stroke:none;fill-rule:nonzero;fill:rgb(0%,0%,100%);fill-opacity:1;" d="M 197.667969 122.125 C 197.667969 124.789062 193.667969 124.789062 193.667969 122.125 C 193.667969 119.457031 197.667969 119.457031 197.667969 122.125 "/>
<path style=" stroke:none;fill-rule:nonzero;fill:rgb(0%,0%,100%);fill-opacity:1;" d="M 197.667969 122.125 C 197.667969 124.789062 193.667969 124.789062 193.667969 122.125 C 193.667969 119.457031 197.667969 119.457031 197.667969 122.125 "/>
<path style=" stroke:none;fill-rule:nonzero;fill:rgb(0%,0%,100%);fill-opacity:1;" d="M 209.554688 110 C 209.554688 112.667969 205.554688 112.667969 205.554688 110 C 205.554688 107.332031 209.554688 107.332031 209.554688 110 "/>
<path style=" stroke:none;fill-rule:nonzero;fill:rgb(0%,0%,100%);fill-opacity:1;" d="M 209.554688 110 C 209.554688 112.667969 205.554688 112.667969 205.554688 110 C 205.554688 107.332031 209.554688 107.332031 209.554688 110 "/>
<path style=" stroke:none;fill-rule:nonzero;fill:rgb(0%,0%,100%);fill-opacity:1;" d="M 195.289062 134.25 C 195.289062 136.914062 191.289062 136.914062 191.289062 134.25 C 191.289062 131.582031 195.289062 131.582031 195.289062 134.25 "/>
<path style=" stroke:none;fill-rule:nonzero;fill:rgb(0%,0%,100%);fill-opacity:1;" d="M 195.289062 134.25 C 195.289062 136.914062 191.289062 136.914062 191.289062 134.25 C 191.289062 131.582031 195.289062 131.582031 195.289062 134.25 "/>
<path style=" stroke:none;fill-rule:nonzero;fill:rgb(0%,0%,100%);fill-opacity:1;" d="M 207.175781 146.371094 C 207.175781 149.039062 203.175781 149.039062 203.175781 146.371094 C 203.175781 143.707031 207.175781 143.707031 207.175781 146.371094 "/>
<path style=" stroke:none;fill-rule:nonzero;fill:rgb(0%,0%,100%);fill-opacity:1;" d="M 207.175781 146.371094 C 207.175781 149.039062 203.175781 149.039062 203.175781 146.371094 C 203.175781 143.707031 207.175781 143.707031 207.175781 146.371094 "/>
<path style=" stroke:none;fill-rule:nonzero;fill:rgb(0%,0%,100%);fill-opacity:1;" d="M 197.667969 146.371094 C 197.667969 149.039062 193.667969 149.039062 193.667969 146.371094 C 193.667969 143.707031 197.667969 143.707031 197.667969 146.371094 "/>
<path style=" stroke:none;fill-rule:nonzero;fill:rgb(0%,0%,100%);fill-opacity:1;" d="M 197.667969 146.371094 C 197.667969 149.039062 193.667969 149.039062 193.667969 146.371094 C 193.667969 143.707031 197.667969 143.707031 197.667969 146.371094 "/>
<path style=" stroke:none;fill-rule:nonzero;fill:rgb(0%,0%,100%);fill-opacity:1;" d="M 209.554688 134.25 C 209.554688 136.914062 205.554688 136.914062 205.554688 134.25 C 205.554688 131.582031 209.554688 131.582031 209.554688 134.25 "/>
<path style=" stroke:none;fill-rule:nonzero;fill:rgb(0%,0%,100%);fill-opacity:1;" d="M 209.554688 134.25 C 209.554688 136.914062 205.554688 136.914062 205.554688 134.25 C 205.554688 131.582031 209.554688 131.582031 209.554688 134.25 "/>
<path style=" stroke:none;fill-rule:nonzero;fill:rgb(0%,0%,100%);fill-opacity:1;" d="M 219.066406 110 C 219.066406 112.667969 215.066406 112.667969 215.066406 110 C 215.066406 107.332031 219.066406 107.332031 219.066406 110 "/>
<path style=" stroke:none;fill-rule:nonzero;fill:rgb(0%,0%,100%);fill-opacity:1;" d="M 219.066406 110 C 219.066406 112.667969 215.066406 112.667969 215.066406 110 C 215.066406 107.332031 219.066406 107.332031 219.066406 110 "/>
<path style=" stroke:none;fill-rule:nonzero;fill:rgb(0%,0%,100%);fill-opacity:1;" d="M 221.445312 122.125 C 221.445312 124.789062 217.445312 124.789062 217.445312 122.125 C 217.445312 119.457031 221.445312 119.457031 221.445312 122.125 "/>
<path style=" stroke:none;fill-rule:nonzero;fill:rgb(0%,0%,100%);fill-opacity:1;" d="M 221.445312 122.125 C 221.445312 124.789062 217.445312 124.789062 217.445312 122.125 C 217.445312 119.457031 221.445312 119.457031 221.445312 122.125 "/>
<path style=" stroke:none;fill-rule:nonzero;fill:rgb(0%,0%,100%);fill-opacity:1;" d="M 219.066406 134.25 C 219.066406 136.914062 215.066406 136.914062 215.066406 134.25 C 215.066406 131.582031 219.066406 131.582031 219.066406 134.25 "/>
<path style=" stroke:none;fill-rule:nonzero;fill:rgb(0%,0%,100%);fill-opacity:1;" d="M 219.066406 134.25 C 219.066406 136.914062 215.066406 136.914062 215.066406 134.25 C 215.066406 131.582031 219.066406 131.582031 219.066406 134.25 "/>
<path style=" stroke:none;fill-rule:nonzero;fill:rgb(0%,0%,100%);fill-opacity:1;" d="M 221.445312 146.371094 C 221.445312 149.039062 217.445312 149.039062 217.445312 146.371094 C 217.445312 143.707031 221.445312 143.707031 221.445312 146.371094 "/>
<path style=" stroke:none;fill-rule:nonzero;fill:rgb(0%,0%,100%);fill-opacity:1;" d="M 221.445312 146.371094 C 221.445312 149.039062 217.445312 149.039062 217.445312 146.371094 C 217.445312 143.707031 221.445312 143.707031 221.445312 146.371094 "/>
</g>
</svg>
