<?xml version="1.0" encoding="UTF-8"?>
<svg xmlns="http://www.w3.org/2000/svg" xmlns:xlink="http://www.w3.org/1999/xlink" width="300pt" height="200pt" viewBox="0 0 300 200" version="1.1">
<g id="surface1">
<rect x="0" y="0" width="300" height="200" style="fill:rgb(80%,80%,80%);fill-opacity:1;stroke:none;"/>
<path style="fill:none;stroke-width:1;stroke-linecap:butt;stroke-linejoin:miter;stroke:rgb(0%,0%,0%);stroke-opacity:1;stroke-miterlimit:10;" d="M 10 10 L 10 1010 "/>
<path style="fill:none;stroke-width:1;stroke-linecap:butt;stroke-linejoin:miter;stroke:rgb(0%,0%,0%);stroke-opacity:1;stroke-miterlimit:10;" d="M 160 10 L 160 1010 "/>
<path style="fill:none;stroke-width:1;stroke-linecap:butt;stroke-linejoin:miter;stroke:rgb(0%,0%,0%);stroke-opacity:1;stroke-miterlimit:10;" d="M 10 110 L 10 1110 "/>
<path style="fill:none;stroke-width:1;stroke-linecap:butt;stroke-linejoin:miter;stroke:rgb(0%,0%,0%);stroke-opacity:1;stroke-miterlimit:10;" d="M 10 10 L 1010 10 "/>
<path style="fill:none;stroke-width:1;stroke-linecap:butt;stroke-linejoin:miter;stroke:rgb(0%,0%,0%);stroke-opacity:1;stroke-miterlimit:10;" d="M 160 10 L 1160 10 "/>
<path style="fill:none;stroke-width:1;stroke-linecap:butt;stroke-linejoin:miter;stroke:rgb(0%,0%,0%);stroke-opacity:1;stroke-miterlimit:10;" d="M 10 110 L 1010 110 "/>
<path style="fill:none;stroke-width:1;stroke-linecap:butt;stroke-linejoin:miter;stroke:rgb(0%,0%,100%);stroke-opacity:1;stroke-miterlimit:10;" d="M 78.574219 79.851562 C 78.574219 82.515625 74.574219 82.515625 74.574219 79.851562 C 74.574219 77.183594 78.574219 77.183594 78.574219 79.851562 "/>
<path style=" stroke:none;fill-rule:nonzero;fill:rgb(0%,0%,100%);fill-opacity:1;" d="M 99.28125 72.089844 C 99.28125 74.757812 95.28125 74.757812 95.28125 72.089844 C 95.28125 69.421875 99.28125 69.421875 99.28125 72.089844 "/>
<path style=" stroke:none;fill-rule:nonzero;fill:rgb(0%,0%,100%);fill-opacity:1;" d="M 57.816406 71.667969 C 57.816406 74.332031 53.816406 74.332031 53.816406 71.667969 C 53.816406 69 57.816406 69 57.816406 71.667969 "/>
<path style="fill:none;stroke-width:1;stroke-linecap:butt;stroke-linejoin:miter;stroke:rgb(0%,0%,100%);stroke-opacity:1;stroke-miterlimit:10;" d="M 94.3125 48.632812 C 94.3125 51.300781 90.3125 51.300781 90.3125 48.632812 C 90.3125 45.96875 94.3125 45.96875 94.3125 48.632812 "/>
<path style="fill:none;stroke-width:1;stroke-linecap:butt;stroke-linejoin:miter;stroke:rgb(0%,0%,100%);stroke-opacity:1;stroke-miterlimit:10;" d="M 62.769531 48.5625 C 62.769531 51.230469 58.769531 51.230469 58.769531 48.5625 C 58.769531 45.894531 62.769531 45.894531 62.769531 48.5625 "/>
<path style=" stroke:none;fill-rule:nonzero;fill:rgb(0%,0%,100%);fill-opacity:1;" d="M 78.417969 79.382812 C 78.417969 82.050781 74.417969 82.050781 74.417969 79.382812 C 74.417969 76.714844 78.417969 76.714844 78.417969 79.382812 "/>
<path style=" stroke:none;fill-rule:nonzero;fill:rgb(0%,0%,100%);fill-opacity:1;" d="M 99.15625 71.820312 C 99.15625 74.484375 95.15625 74.484375 95.15625 71.820312 C 95.15625 69.152344 99.15625 69.152344 99.15625 71.820312 "/>
<path style=" stroke:none;fill-rule:nonzero;fill:rgb(0%,0%,100%);fill-opacity:1;" d="M 57.789062 72.003906 C 57.789062 74.671875 53.789062 74.671875 53.789062 72.003906 C 53.789062 69.335938 57.789062 69.335938 57.789062 72.003906 "/>
<path style=" stroke:none;fill-rule:nonzero;fill:rgb(0%,0%,100%);fill-opacity:1;" d="M 94.351562 48.757812 C 94.351562 51.425781 90.351562 51.425781 90.351562 48.757812 C 90.351562 46.089844 94.351562 46.089844 94.351562 48.757812 "/>
<path style=" stroke:none;fill-rule:nonzero;fill:rgb(0%,0%,100%);fill-opacity:1;" d="M 62.460938 48.621094 C 62.460938 51.285156 58.460938 51.285156 58.460938 48.621094 C 58.460938 45.953125 62.460938 45.953125 62.460938 48.621094 "/>
<path style=" stroke:none;fill-rule:nonzero;fill:rgb(0%,0%,100%);fill-opacity:1;" d="M 77.890625 27.875 C 77.890625 30.539062 73.890625 30.539062 73.890625 27.875 C 73.890625 25.207031 77.890625 25.207031 77.890625 27.875 "/>
<path style=" stroke:none;fill-rule:nonzero;fill:rgb(0%,0%,100%);fill-opacity:1;" d="M 78.972656 27.847656 C 78.972656 30.515625 74.972656 30.515625 74.972656 27.847656 C 74.972656 25.179688 78.972656 25.179688 78.972656 27.847656 "/>
<path style="fill:none;stroke-width:1;stroke-linecap:butt;stroke-linejoin:miter;stroke:rgb(0%,0%,100%);stroke-opacity:1;stroke-miterlimit:10;" d="M 123.765625 64.792969 C 123.765625 67.460938 119.765625 67.460938 119.765625 64.792969 C 119.765625 62.125 123.765625 62.125 123.765625 64.792969 "/>
<path style="fill:none;stroke-width:1;stroke-linecap:butt;stroke-linejoin:miter;stroke:rgb(0%,0%,100%);stroke-opacity:1;stroke-miterlimit:10;" d="M 33.277344 64.546875 C 33.277344 67.214844 29.277344 67.214844 29.277344 64.546875 C 29.277344 61.878906 33.277344 61.878906 33.277344 64.546875 "/>
<path style=" stroke:none;fill-rule:nonzero;fill:rgb(0%,0%,100%);fill-opacity:1;" d="M 116.074219 40.8125 C 116.074219 43.480469 112.074219 43.480469 112.074219 40.8125 C 112.074219 38.148438 116.074219 38.148438 116.074219 40.8125 "/>
<path style=" stroke:none;fill-rule:nonzero;fill:rgb(0%,0%,100%);fill-opacity:1;" d="M 41.328125 40.753906 C 41.328125 43.421875 37.328125 43.421875 37.328125 40.753906 C 37.328125 38.085938 41.328125 38.085938 41.328125 40.753906 "/>
<path style=" stroke:none;fill-rule:nonzero;fill:rgb(0%,0%,100%);fill-opacity:1;" d="M 12.367188 56.804688 C 12.367188 59.46875 8.367188 59.46875 8.367188 56.804688 C 8.367188 54.136719 12.367188 54.136719 12.367188 56.804688 "/>
<path style=" stroke:none;fill-rule:nonzero;fill:rgb(0%,0%,100%);fill-opacity:1;" d="M 124.351562 64.339844 C 124.351562 67.007812 120.351562 67.007812 120.351562 64.339844 C 120.351562 61.671875 124.351562 61.671875 124.351562 64.339844 "/>
<path style=" stroke:none;fill-rule:nonzero;fill:rgb(0%,0%,100%);fill-opacity:1;" d="M 32.609375 64.339844 C 32.609375 67.007812 28.609375 67.007812 28.609375 64.339844 C 28.609375 61.671875 32.609375 61.671875 32.609375 64.339844 "/>
<path style=" stroke:none;fill-rule:nonzero;fill:rgb(0%,0%,100%);fill-opacity:1;" d="M 115.5625 40.886719 C 115.5625 43.550781 111.5625 43.550781 111.5625 40.886719 C 111.5625 38.21875 115.5625 38.21875 115.5625 40.886719 "/>
<path style=" stroke:none;fill-rule:nonzero;fill:rgb(0%,0%,100%);fill-opacity:1;" d="M 40.875 40.691406 C 40.875 43.359375 36.875 43.359375 36.875 40.691406 C 36.875 38.023438 40.875 38.023438 40.875 40.691406 "/>
<path style=" stroke:none;fill-rule:nonzero;fill:rgb(0%,0%,100%);fill-opacity:1;" d="M 12.089844 56.78125 C 12.089844 59.449219 8.089844 59.449219 8.089844 56.78125 C 8.089844 54.113281 12.089844 54.113281 12.089844 56.78125 "/>
<path style=" stroke:none;fill-rule:nonzero;fill:rgb(0%,0%,100%);fill-opacity:1;" d="M 12.484375 32.023438 C 12.484375 34.6875 8.484375 34.6875 8.484375 32.023438 C 8.484375 29.355469 12.484375 29.355469 12.484375 32.023438 "/>
<path style="fill:none;stroke-width:1;stroke-linecap:butt;stroke-linejoin:miter;stroke:rgb(0%,0%,100%);stroke-opacity:1;stroke-miterlimit:10;" d="M 107.683594 18.710938 C 107.683594 21.375 103.683594 21.375 103.683594 18.710938 C 103.683594 16.042969 107.683594 16.042969 107.683594 18.710938 "/>
<path style="fill:none;stroke-width:1;stroke-linecap:butt;stroke-linejoin:miter;stroke:rgb(0%,0%,100%);stroke-opacity:1;stroke-miterlimit:10;" d="M 49.480469 18.597656 C 49.480469 21.261719 45.480469 21.261719 45.480469 18.597656 C 45.480469 15.929688 49.480469 15.929688 49.480469 18.597656 "/>
<path style=" stroke:none;fill-rule:nonzero;fill:rgb(0%,0%,100%);fill-opacity:1;" d="M 129.011719 10.8125 C 129.011719 13.480469 125.011719 13.480469 125.011719 10.8125 C 125.011719 8.148438 129.011719 8.148438 129.011719 10.8125 "/>
<path style=" stroke:none;fill-rule:nonzero;fill:rgb(0%,0%,100%);fill-opacity:1;" d="M 28.1875 10.738281 C 28.1875 13.402344 24.1875 13.402344 24.1875 10.738281 C 24.1875 8.070312 28.1875 8.070312 28.1875 10.738281 "/>
<path style=" stroke:none;fill-rule:nonzero;fill:rgb(0%,0%,100%);fill-opacity:1;" d="M 107.066406 18.683594 C 107.066406 21.351562 103.066406 21.351562 103.066406 18.683594 C 103.066406 16.015625 107.066406 16.015625 107.066406 18.683594 "/>
<path style=" stroke:none;fill-rule:nonzero;fill:rgb(0%,0%,100%);fill-opacity:1;" d="M 49.644531 18.535156 C 49.644531 21.203125 45.644531 21.203125 45.644531 18.535156 C 45.644531 15.871094 49.644531 15.871094 49.644531 18.535156 "/>
<path style=" stroke:none;fill-rule:nonzero;fill:rgb(0%,0%,100%);fill-opacity:1;" d="M 128.785156 10.921875 C 128.785156 13.585938 124.785156 13.585938 124.785156 10.921875 C 124.785156 8.253906 128.785156 8.253906 128.785156 10.921875 "/>
<path style=" stroke:none;fill-rule:nonzero;fill:rgb(0%,0%,100%);fill-opacity:1;" d="M 27.960938 10.648438 C 27.960938 13.316406 23.960938 13.316406 23.960938 10.648438 C 23.960938 7.984375 27.960938 7.984375 27.960938 10.648438 "/>
<path style="fill:none;stroke-width:1;stroke-linecap:butt;stroke-linejoin:miter;stroke:rgb(100%,80%,0%);stroke-opacity:1;stroke-miterlimit:10;" d="M 76.25 80.390625 L 76.574219 79.851562 "/>
<path style="fill:none;stroke-width:1;stroke-linecap:butt;stroke-linejoin:miter;stroke:rgb(100%,80%,0%);stroke-opacity:1;stroke-miterlimit:10;" d="M 98.335938 72.570312 L 97.28125 72.089844 "/>
<path style="fill:none;stroke-width:1;stroke-linecap:butt;stroke-linejoin:miter;stroke:rgb(100%,80%,0%);stroke-opacity:1;stroke-miterlimit:10;" d="M 54.167969 72.570312 L 55.816406 71.667969 "/>
<path style="fill:none;stroke-width:1;stroke-linecap:butt;stroke-linejoin:miter;stroke:rgb(100%,80%,0%);stroke-opacity:1;stroke-miterlimit:10;" d="M 90.972656 49.105469 L 92.3125 48.632812 "/>
<path style="fill:none;stroke-width:1;stroke-linecap:butt;stroke-linejoin:miter;stroke:rgb(100%,80%,0%);stroke-opacity:1;stroke-miterlimit:10;" d="M 61.527344 49.105469 L 60.769531 48.5625 "/>
<path style="fill:none;stroke-width:1;stroke-linecap:butt;stroke-linejoin:miter;stroke:rgb(100%,80%,0%);stroke-opacity:1;stroke-miterlimit:10;" d="M 76.25 80.390625 L 76.417969 79.382812 "/>
<path style="fill:none;stroke-width:1;stroke-linecap:butt;stroke-linejoin:miter;stroke:rgb(100%,80%,0%);stroke-opacity:1;stroke-miterlimit:10;" d="M 98.335938 72.570312 L 97.15625 71.820312 "/>
<path style="fill:none;stroke-width:1;stroke-linecap:butt;stroke-linejoin:miter;stroke:rgb(100%,80%,0%);stroke-opacity:1;stroke-miterlimit:10;" d="M 54.167969 72.570312 L 55.789062 72.003906 "/>
<path style="fill:none;stroke-width:1;stroke-linecap:butt;stroke-linejoin:miter;stroke:rgb(100%,80%,0%);stroke-opacity:1;stroke-miterlimit:10;" d="M 90.972656 49.105469 L 92.351562 48.757812 "/>
<path style="fill:none;stroke-width:1;stroke-linecap:butt;stroke-linejoin:miter;stroke:rgb(100%,80%,0%);stroke-opacity:1;stroke-miterlimit:10;" d="M 61.527344 49.105469 L 60.460938 48.621094 "/>
<path style="fill:none;stroke-width:1;stroke-linecap:butt;stroke-linejoin:miter;stroke:rgb(100%,80%,0%);stroke-opacity:1;stroke-miterlimit:10;" d="M 68.890625 25.644531 L 75.890625 27.875 "/>
<path style="fill:none;stroke-width:1;stroke-linecap:butt;stroke-linejoin:miter;stroke:rgb(100%,80%,0%);stroke-opacity:1;stroke-miterlimit:10;" d="M 83.613281 25.644531 L 76.972656 27.847656 "/>
<path style="fill:none;stroke-width:1;stroke-linecap:butt;stroke-linejoin:miter;stroke:rgb(100%,80%,0%);stroke-opacity:1;stroke-miterlimit:10;" d="M 120.417969 64.75 L 121.765625 64.792969 "/>
<path style="fill:none;stroke-width:1;stroke-linecap:butt;stroke-linejoin:miter;stroke:rgb(100%,80%,0%);stroke-opacity:1;stroke-miterlimit:10;" d="M 32.082031 64.75 L 31.277344 64.546875 "/>
<path style="fill:none;stroke-width:1;stroke-linecap:butt;stroke-linejoin:miter;stroke:rgb(100%,80%,0%);stroke-opacity:1;stroke-miterlimit:10;" d="M 113.058594 41.285156 L 114.074219 40.8125 "/>
<path style="fill:none;stroke-width:1;stroke-linecap:butt;stroke-linejoin:miter;stroke:rgb(100%,80%,0%);stroke-opacity:1;stroke-miterlimit:10;" d="M 39.445312 41.285156 L 39.328125 40.753906 "/>
<path style="fill:none;stroke-width:1;stroke-linecap:butt;stroke-linejoin:miter;stroke:rgb(100%,80%,0%);stroke-opacity:1;stroke-miterlimit:10;" d="M 10 56.929688 L 10.367188 56.804688 "/>
<path style="fill:none;stroke-width:1;stroke-linecap:butt;stroke-linejoin:miter;stroke:rgb(100%,80%,0%);stroke-opacity:1;stroke-miterlimit:10;" d="M 120.417969 64.75 L 122.351562 64.339844 "/>
<path style="fill:none;stroke-width:1;stroke-linecap:butt;stroke-linejoin:miter;stroke:rgb(100%,80%,0%);stroke-opacity:1;stroke-miterlimit:10;" d="M 32.082031 64.75 L 30.609375 64.339844 "/>
<path style="fill:none;stroke-width:1;stroke-linecap:butt;stroke-linejoin:miter;stroke:rgb(100%,80%,0%);stroke-opacity:1;stroke-miterlimit:10;" d="M 113.058594 41.285156 L 113.5625 40.886719 "/>
<path style="fill:none;stroke-width:1;stroke-linecap:butt;stroke-linejoin:miter;stroke:rgb(100%,80%,0%);stroke-opacity:1;stroke-miterlimit:10;" d="M 39.445312 41.285156 L 38.875 40.691406 "/>
<path style="fill:none;stroke-width:1;stroke-linecap:butt;stroke-linejoin:miter;stroke:rgb(100%,80%,0%);stroke-opacity:1;stroke-miterlimit:10;" d="M 10 56.929688 L 10.089844 56.78125 "/>
<path style="fill:none;stroke-width:1;stroke-linecap:butt;stroke-linejoin:miter;stroke:rgb(100%,80%,0%);stroke-opacity:1;stroke-miterlimit:10;" d="M 17.363281 33.464844 L 10.484375 32.023438 "/>
<path style="fill:none;stroke-width:1;stroke-linecap:butt;stroke-linejoin:miter;stroke:rgb(100%,80%,0%);stroke-opacity:1;stroke-miterlimit:10;" d="M 105.695312 17.820312 L 105.683594 18.710938 "/>
<path style="fill:none;stroke-width:1;stroke-linecap:butt;stroke-linejoin:miter;stroke:rgb(100%,80%,0%);stroke-opacity:1;stroke-miterlimit:10;" d="M 46.804688 17.820312 L 47.480469 18.597656 "/>
<path style="fill:none;stroke-width:1;stroke-linecap:butt;stroke-linejoin:miter;stroke:rgb(100%,80%,0%);stroke-opacity:1;stroke-miterlimit:10;" d="M 127.78125 10 L 127.011719 10.8125 "/>
<path style="fill:none;stroke-width:1;stroke-linecap:butt;stroke-linejoin:miter;stroke:rgb(100%,80%,0%);stroke-opacity:1;stroke-miterlimit:10;" d="M 24.722656 10 L 26.1875 10.738281 "/>
<path style="fill:none;stroke-width:1;stroke-linecap:butt;stroke-linejoin:miter;stroke:rgb(100%,80%,0%);stroke-opacity:1;stroke-miterlimit:10;" d="M 105.695312 17.820312 L 105.066406 18.683594 "/>
<path style="fill:none;stroke-width:1;stroke-linecap:butt;stroke-linejoin:miter;stroke:rgb(100%,80%,0%);stroke-opacity:1;stroke-miterlimit:10;" d="M 46.804688 17.820312 L 47.644531 18.535156 "/>
<path style="fill:none;stroke-width:1;stroke-linecap:butt;stroke-linejoin:miter;stroke:rgb(100%,80%,0%);stroke-opacity:1;stroke-miterlimit:10;" d="M 127.78125 10 L 126.785156 10.921875 "/>
<path style="fill:none;stroke-width:1;stroke-linecap:butt;stroke-linejoin:miter;stroke:rgb(100%,80%,0%);stroke-opacity:1;stroke-miterlimit:10;" d="M 24.722656 10 L 25.960938 10.648438 "/>
<path style="fill:none;stroke-width:1;stroke-linecap:butt;stroke-linejoin:miter;stroke:rgb(0%,0%,100%);stroke-opacity:1;stroke-miterlimit:10;" d="M 78.574219 110.027344 C 78.574219 112.695312 74.574219 112.695312 74.574219 110.027344 C 74.574219 107.363281 78.574219 107.363281 78.574219 110.027344 "/>
<path style=" stroke:none;fill-rule:nonzero;fill:rgb(0%,0%,100%);fill-opacity:1;" d="M 99.28125 134.300781 C 99.28125 136.96875 95.28125 136.96875 95.28125 134.300781 C 95.28125 131.632812 99.28125 131.632812 99.28125 134.300781 "/>
<path style=" stroke:none;fill-rule:nonzero;fill:rgb(0%,0%,100%);fill-opacity:1;" d="M 57.816406 134.238281 C 57.816406 136.90625 53.816406 136.90625 53.816406 134.238281 C 53.816406 131.570312 57.816406 131.570312 57.816406 134.238281 "/>
<path style=" stroke:none;fill-rule:nonzero;fill:rgb(0%,0%,100%);fill-opacity:1;" d="M 94.3125 110.320312 C 94.3125 112.984375 90.3125 112.984375 90.3125 110.320312 C 90.3125 107.652344 94.3125 107.652344 94.3125 110.320312 "/>
<path style=" stroke:none;fill-rule:nonzero;fill:rgb(0%,0%,100%);fill-opacity:1;" d="M 62.769531 109.679688 C 62.769531 112.347656 58.769531 112.347656 58.769531 109.679688 C 58.769531 107.015625 62.769531 107.015625 62.769531 109.679688 "/>
<path style="fill:none;stroke-width:1;stroke-linecap:butt;stroke-linejoin:miter;stroke:rgb(0%,0%,100%);stroke-opacity:1;stroke-miterlimit:10;" d="M 78.417969 158.464844 C 78.417969 161.132812 74.417969 161.132812 74.417969 158.464844 C 74.417969 155.796875 78.417969 155.796875 78.417969 158.464844 "/>
<path style=" stroke:none;fill-rule:nonzero;fill:rgb(0%,0%,100%);fill-opacity:1;" d="M 99.15625 182.691406 C 99.15625 185.359375 95.15625 185.359375 95.15625 182.691406 C 95.15625 180.023438 99.15625 180.023438 99.15625 182.691406 "/>
<path style=" stroke:none;fill-rule:nonzero;fill:rgb(0%,0%,100%);fill-opacity:1;" d="M 57.789062 182.742188 C 57.789062 185.40625 53.789062 185.40625 53.789062 182.742188 C 53.789062 180.074219 57.789062 180.074219 57.789062 182.742188 "/>
<path style=" stroke:none;fill-rule:nonzero;fill:rgb(0%,0%,100%);fill-opacity:1;" d="M 94.351562 158.214844 C 94.351562 160.882812 90.351562 160.882812 90.351562 158.214844 C 90.351562 155.550781 94.351562 155.550781 94.351562 158.214844 "/>
<path style=" stroke:none;fill-rule:nonzero;fill:rgb(0%,0%,100%);fill-opacity:1;" d="M 62.460938 158.777344 C 62.460938 161.445312 58.460938 161.445312 58.460938 158.777344 C 58.460938 156.109375 62.460938 156.109375 62.460938 158.777344 "/>
<path style=" stroke:none;fill-rule:nonzero;fill:rgb(0%,0%,100%);fill-opacity:1;" d="M 77.890625 134.28125 C 77.890625 136.945312 73.890625 136.945312 73.890625 134.28125 C 73.890625 131.613281 77.890625 131.613281 77.890625 134.28125 "/>
<path style=" stroke:none;fill-rule:nonzero;fill:rgb(0%,0%,100%);fill-opacity:1;" d="M 78.972656 182.726562 C 78.972656 185.390625 74.972656 185.390625 74.972656 182.726562 C 74.972656 180.058594 78.972656 180.058594 78.972656 182.726562 "/>
<path style=" stroke:none;fill-rule:nonzero;fill:rgb(0%,0%,100%);fill-opacity:1;" d="M 123.765625 110.0625 C 123.765625 112.730469 119.765625 112.730469 119.765625 110.0625 C 119.765625 107.394531 123.765625 107.394531 123.765625 110.0625 "/>
<path style=" stroke:none;fill-rule:nonzero;fill:rgb(0%,0%,100%);fill-opacity:1;" d="M 33.277344 109.933594 C 33.277344 112.597656 29.277344 112.597656 29.277344 109.933594 C 29.277344 107.265625 33.277344 107.265625 33.277344 109.933594 "/>
<path style=" stroke:none;fill-rule:nonzero;fill:rgb(0%,0%,100%);fill-opacity:1;" d="M 116.074219 134.367188 C 116.074219 137.03125 112.074219 137.03125 112.074219 134.367188 C 112.074219 131.699219 116.074219 131.699219 116.074219 134.367188 "/>
<path style=" stroke:none;fill-rule:nonzero;fill:rgb(0%,0%,100%);fill-opacity:1;" d="M 41.328125 134.25 C 41.328125 136.914062 37.328125 136.914062 37.328125 134.25 C 37.328125 131.582031 41.328125 131.582031 41.328125 134.25 "/>
<path style=" stroke:none;fill-rule:nonzero;fill:rgb(0%,0%,100%);fill-opacity:1;" d="M 12.367188 133.738281 C 12.367188 136.40625 8.367188 136.40625 8.367188 133.738281 C 8.367188 131.070312 12.367188 131.070312 12.367188 133.738281 "/>
<path style=" stroke:none;fill-rule:nonzero;fill:rgb(0%,0%,100%);fill-opacity:1;" d="M 124.351562 158.492188 C 124.351562 161.160156 120.351562 161.160156 120.351562 158.492188 C 120.351562 155.824219 124.351562 155.824219 124.351562 158.492188 "/>
<path style=" stroke:none;fill-rule:nonzero;fill:rgb(0%,0%,100%);fill-opacity:1;" d="M 32.609375 158.519531 C 32.609375 161.1875 28.609375 161.1875 28.609375 158.519531 C 28.609375 155.855469 32.609375 155.855469 32.609375 158.519531 "/>
<path style=" stroke:none;fill-rule:nonzero;fill:rgb(0%,0%,100%);fill-opacity:1;" d="M 115.5625 182.691406 C 115.5625 185.359375 111.5625 185.359375 111.5625 182.691406 C 111.5625 180.027344 115.5625 180.027344 115.5625 182.691406 "/>
<path style=" stroke:none;fill-rule:nonzero;fill:rgb(0%,0%,100%);fill-opacity:1;" d="M 40.875 182.699219 C 40.875 185.367188 36.875 185.367188 36.875 182.699219 C 36.875 180.035156 40.875 180.035156 40.875 182.699219 "/>
<path style=" stroke:none;fill-rule:nonzero;fill:rgb(0%,0%,100%);fill-opacity:1;" d="M 12.089844 183.25 C 12.089844 185.917969 8.089844 185.917969 8.089844 183.25 C 8.089844 180.582031 12.089844 180.582031 12.089844 183.25 "/>
<path style=" stroke:none;fill-rule:nonzero;fill:rgb(0%,0%,100%);fill-opacity:1;" d="M 12.484375 158.476562 C 12.484375 161.144531 8.484375 161.144531 8.484375 158.476562 C 8.484375 155.808594 12.484375 155.808594 12.484375 158.476562 "/>
<path style=" stroke:none;fill-rule:nonzero;fill:rgb(0%,0%,100%);fill-opacity:1;" d="M 107.683594 110.054688 C 107.683594 112.722656 103.683594 112.722656 103.683594 110.054688 C 103.683594 107.390625 107.683594 107.390625 107.683594 110.054688 "/>
<path style=" stroke:none;fill-rule:nonzero;fill:rgb(0%,0%,100%);fill-opacity:1;" d="M 49.480469 109.949219 C 49.480469 112.613281 45.480469 112.613281 45.480469 109.949219 C 45.480469 107.28125 49.480469 107.28125 49.480469 109.949219 "/>
<path style=" stroke:none;fill-rule:nonzero;fill:rgb(0%,0%,100%);fill-opacity:1;" d="M 129.011719 134.675781 C 129.011719 137.34375 125.011719 137.34375 125.011719 134.675781 C 125.011719 132.007812 129.011719 132.007812 129.011719 134.675781 "/>
<path style=" stroke:none;fill-rule:nonzero;fill:rgb(0%,0%,100%);fill-opacity:1;" d="M 28.1875 134.40625 C 28.1875 137.070312 24.1875 137.070312 24.1875 134.40625 C 24.1875 131.738281 28.1875 131.738281 28.1875 134.40625 "/>
<path style=" stroke:none;fill-rule:nonzero;fill:rgb(0%,0%,100%);fill-opacity:1;" d="M 107.066406 158.472656 C 107.066406 161.140625 103.066406 161.140625 103.066406 158.472656 C 103.066406 155.804688 107.066406 155.804688 107.066406 158.472656 "/>
<path style=" stroke:none;fill-rule:nonzero;fill:rgb(0%,0%,100%);fill-opacity:1;" d="M 49.644531 158.507812 C 49.644531 161.175781 45.644531 161.175781 45.644531 158.507812 C 45.644531 155.839844 49.644531 155.839844 49.644531 158.507812 "/>
<path style=" stroke:none;fill-rule:nonzero;fill:rgb(0%,0%,100%);fill-opacity:1;" d="M 128.785156 182.371094 C 128.785156 185.039062 124.785156 185.039062 124.785156 182.371094 C 124.785156 179.703125 128.785156 179.703125 128.785156 182.371094 "/>
<path style=" stroke:none;fill-rule:nonzero;fill:rgb(0%,0%,100%);fill-opacity:1;" d="M 27.960938 182.542969 C 27.960938 185.210938 23.960938 185.210938 23.960938 182.542969 C 23.960938 179.875 27.960938 179.875 27.960938 182.542969 "/>
<path style="fill:none;stroke-width:1;stroke-linecap:butt;stroke-linejoin:miter;stroke:rgb(100%,80%,0%);stroke-opacity:1;stroke-miterlimit:10;" d="M 76.25 110 L 76.574219 110.027344 "/>
<path style="fill:none;stroke-width:1;stroke-linecap:butt;stroke-linejoin:miter;stroke:rgb(100%,80%,0%);stroke-opacity:1;stroke-miterlimit:10;" d="M 98.335938 134.25 L 97.28125 134.300781 "/>
<path style="fill:none;stroke-width:1;stroke-linecap:butt;stroke-linejoin:miter;stroke:rgb(100%,80%,0%);stroke-opacity:1;stroke-miterlimit:10;" d="M 54.167969 134.25 L 55.816406 134.238281 "/>
<path style="fill:none;stroke-width:1;stroke-linecap:butt;stroke-linejoin:miter;stroke:rgb(100%,80%,0%);stroke-opacity:1;stroke-miterlimit:10;" d="M 90.972656 110 L 92.3125 110.320312 "/>
<path style="fill:none;stroke-width:1;stroke-linecap:butt;stroke-linejoin:miter;stroke:rgb(100%,80%,0%);stroke-opacity:1;stroke-miterlimit:10;" d="M 61.527344 110 L 60.769531 109.679688 "/>
<path style="fill:none;stroke-width:1;stroke-linecap:butt;stroke-linejoin:miter;stroke:rgb(100%,80%,0%);stroke-opacity:1;stroke-miterlimit:10;" d="M 76.25 158.496094 L 76.417969 158.464844 "/>
<path style="fill:none;stroke-width:1;stroke-linecap:butt;stroke-linejoin:miter;stroke:rgb(100%,80%,0%);stroke-opacity:1;stroke-miterlimit:10;" d="M 98.335938 182.746094 L 97.15625 182.691406 "/>
<path style="fill:none;stroke-width:1;stroke-linecap:butt;stroke-linejoin:miter;stroke:rgb(100%,80%,0%);stroke-opacity:1;stroke-miterlimit:10;" d="M 54.167969 182.746094 L 55.789062 182.742188 "/>
<path style="fill:none;stroke-width:1;stroke-linecap:butt;stroke-linejoin:miter;stroke:rgb(100%,80%,0%);stroke-opacity:1;stroke-miterlimit:10;" d="M 90.972656 158.496094 L 92.351562 158.214844 "/>
<path style="fill:none;stroke-width:1;stroke-linecap:butt;stroke-linejoin:miter;stroke:rgb(100%,80%,0%);stroke-opacity:1;stroke-miterlimit:10;" d="M 61.527344 158.496094 L 60.460938 158.777344 "/>
<path style="fill:none;stroke-width:1;stroke-linecap:butt;stroke-linejoin:miter;stroke:rgb(100%,80%,0%);stroke-opacity:1;stroke-miterlimit:10;" d="M 68.890625 134.25 L 75.890625 134.28125 "/>
<path style="fill:none;stroke-width:1;stroke-linecap:butt;stroke-linejoin:miter;stroke:rgb(100%,80%,0%);stroke-opacity:1;stroke-miterlimit:10;" d="M 83.613281 182.746094 L 76.972656 182.726562 "/>
<path style="fill:none;stroke-width:1;stroke-linecap:butt;stroke-linejoin:miter;stroke:rgb(100%,80%,0%);stroke-opacity:1;stroke-miterlimit:10;" d="M 120.417969 110 L 121.765625 110.0625 "/>
<path style="fill:none;stroke-width:1;stroke-linecap:butt;stroke-linejoin:miter;stroke:rgb(100%,80%,0%);stroke-opacity:1;stroke-miterlimit:10;" d="M 32.082031 110 L 31.277344 109.933594 "/>
<path style="fill:none;stroke-width:1;stroke-linecap:butt;stroke-linejoin:miter;stroke:rgb(100%,80%,0%);stroke-opacity:1;stroke-miterlimit:10;" d="M 113.058594 134.25 L 114.074219 134.367188 "/>
<path style="fill:none;stroke-width:1;stroke-linecap:butt;stroke-linejoin:miter;stroke:rgb(100%,80%,0%);stroke-opacity:1;stroke-miterlimit:10;" d="M 39.445312 134.25 L 39.328125 134.25 "/>
<path style="fill:none;stroke-width:1;stroke-linecap:butt;stroke-linejoin:miter;stroke:rgb(100%,80%,0%);stroke-opacity:1;stroke-miterlimit:10;" d="M 10 134.25 L 10.367188 133.738281 "/>
<path style="fill:none;stroke-width:1;stroke-linecap:butt;stroke-linejoin:miter;stroke:rgb(100%,80%,0%);stroke-opacity:1;stroke-miterlimit:10;" d="M 120.417969 158.496094 L 122.351562 158.492188 "/>
<path style="fill:none;stroke-width:1;stroke-linecap:butt;stroke-linejoin:miter;stroke:rgb(100%,80%,0%);stroke-opacity:1;stroke-miterlimit:10;" d="M 32.082031 158.496094 L 30.609375 158.519531 "/>
<path style="fill:none;stroke-width:1;stroke-linecap:butt;stroke-linejoin:miter;stroke:rgb(100%,80%,0%);stroke-opacity:1;stroke-miterlimit:10;" d="M 113.058594 182.746094 L 113.5625 182.691406 "/>
<path style="fill:none;stroke-width:1;stroke-linecap:butt;stroke-linejoin:miter;stroke:rgb(100%,80%,0%);stroke-opacity:1;stroke-miterlimit:10;" d="M 39.445312 182.746094 L 38.875 182.699219 "/>
<path style="fill:none;stroke-width:1;stroke-linecap:butt;stroke-linejoin:miter;stroke:rgb(100%,80%,0%);stroke-opacity:1;stroke-miterlimit:10;" d="M 10 182.746094 L 10.089844 183.25 "/>
<path style="fill:none;stroke-width:1;stroke-linecap:butt;stroke-linejoin:miter;stroke:rgb(100%,80%,0%);stroke-opacity:1;stroke-miterlimit:10;" d="M 17.363281 158.496094 L 10.484375 158.476562 "/>
<path style="fill:none;stroke-width:1;stroke-linecap:butt;stroke-linejoin:miter;stroke:rgb(100%,80%,0%);stroke-opacity:1;stroke-miterlimit:10;" d="M 105.695312 110 L 105.683594 110.054688 "/>
<path style="fill:none;stroke-width:1;stroke-linecap:butt;stroke-linejoin:miter;stroke:rgb(100%,80%,0%);stroke-opacity:1;stroke-miterlimit:10;" d="M 46.804688 110 L 47.480469 109.949219 "/>
<path style="fill:none;stroke-width:1;stroke-linecap:butt;stroke-linejoin:miter;stroke:rgb(100%,80%,0%);stroke-opacity:1;stroke-miterlimit:10;" d="M 127.78125 134.25 L 127.011719 134.675781 "/>
<path style="fill:none;stroke-width:1;stroke-linecap:butt;stroke-linejoin:miter;stroke:rgb(100%,80%,0%);stroke-opacity:1;stroke-miterlimit:10;" d="M 24.722656 134.25 L 26.1875 134.40625 "/>
<path style="fill:none;stroke-width:1;stroke-linecap:butt;stroke-linejoin:miter;stroke:rgb(100%,80%,0%);stroke-opacity:1;stroke-miterlimit:10;" d="M 105.695312 158.496094 L 105.066406 158.472656 "/>
<path style="fill:none;stroke-width:1;stroke-linecap:butt;stroke-linejoin:miter;stroke:rgb(100%,80%,0%);stroke-opacity:1;stroke-miterlimit:10;" d="M 46.804688 158.496094 L 47.644531 158.507812 "/>
<path style="fill:none;stroke-width:1;stroke-linecap:butt;stroke-linejoin:miter;stroke:rgb(100%,80%,0%);stroke-opacity:1;stroke-miterlimit:10;" d="M 127.78125 182.746094 L 126.785156 182.371094 "/>
<path style="fill:none;stroke-width:1;stroke-linecap:butt;stroke-linejoin:miter;stroke:rgb(100%,80%,0%);stroke-opacity:1;stroke-miterlimit:10;" d="M 24.722656 182.746094 L 25.960938 182.542969 "/>
<path style=" stroke:none;fill-rule:nonzero;fill:rgb(0%,0%,100%);fill-opacity:1;" d="M 162.542969 110.027344 C 162.542969 112.695312 158.542969 112.695312 158.542969 110.027344 C 158.542969 107.363281 162.542969 107.363281 162.542969 110.027344 "/>
<path style=" stroke:none;fill-rule:nonzero;fill:rgb(0%,0%,100%);fill-opacity:1;" d="M 170.304688 134.300781 C 170.304688 136.96875 166.304688 136.96875 166.304688 134.300781 C 166.304688 131.632812 170.304688 131.632812 170.304688 134.300781 "/>
<path style=" stroke:none;fill-rule:nonzero;fill:rgb(0%,0%,100%);fill-opacity:1;" d="M 170.726562 134.238281 C 170.726562 136.90625 166.726562 136.90625 166.726562 134.238281 C 166.726562 131.570312 170.726562 131.570312 170.726562 134.238281 "/>
<path style=" stroke:none;fill-rule:nonzero;fill:rgb(0%,0%,100%);fill-opacity:1;" d="M 193.757812 110.320312 C 193.757812 112.984375 189.757812 112.984375 189.757812 110.320312 C 189.757812 107.652344 193.757812 107.652344 193.757812 110.320312 "/>
<path style=" stroke:none;fill-rule:nonzero;fill:rgb(0%,0%,100%);fill-opacity:1;" d="M 193.828125 109.679688 C 193.828125 112.347656 189.828125 112.347656 189.828125 109.679688 C 189.828125 107.015625 193.828125 107.015625 193.828125 109.679688 "/>
<path style=" stroke:none;fill-rule:nonzero;fill:rgb(0%,0%,100%);fill-opacity:1;" d="M 163.007812 158.464844 C 163.007812 161.132812 159.007812 161.132812 159.007812 158.464844 C 159.007812 155.796875 163.007812 155.796875 163.007812 158.464844 "/>
<path style=" stroke:none;fill-rule:nonzero;fill:rgb(0%,0%,100%);fill-opacity:1;" d="M 170.574219 182.691406 C 170.574219 185.359375 166.574219 185.359375 166.574219 182.691406 C 166.574219 180.023438 170.574219 180.023438 170.574219 182.691406 "/>
<path style=" stroke:none;fill-rule:nonzero;fill:rgb(0%,0%,100%);fill-opacity:1;" d="M 170.386719 182.742188 C 170.386719 185.40625 166.386719 185.40625 166.386719 182.742188 C 166.386719 180.074219 170.386719 180.074219 170.386719 182.742188 "/>
<path style=" stroke:none;fill-rule:nonzero;fill:rgb(0%,0%,100%);fill-opacity:1;" d="M 193.632812 158.214844 C 193.632812 160.882812 189.632812 160.882812 189.632812 158.214844 C 189.632812 155.550781 193.632812 155.550781 193.632812 158.214844 "/>
<path style=" stroke:none;fill-rule:nonzero;fill:rgb(0%,0%,100%);fill-opacity:1;" d="M 193.773438 158.777344 C 193.773438 161.445312 189.773438 161.445312 189.773438 158.777344 C 189.773438 156.109375 193.773438 156.109375 193.773438 158.777344 "/>
<path style=" stroke:none;fill-rule:nonzero;fill:rgb(0%,0%,100%);fill-opacity:1;" d="M 214.519531 134.28125 C 214.519531 136.945312 210.519531 136.945312 210.519531 134.28125 C 210.519531 131.613281 214.519531 131.613281 214.519531 134.28125 "/>
<path style=" stroke:none;fill-rule:nonzero;fill:rgb(0%,0%,100%);fill-opacity:1;" d="M 214.542969 182.726562 C 214.542969 185.390625 210.542969 185.390625 210.542969 182.726562 C 210.542969 180.058594 214.542969 180.058594 214.542969 182.726562 "/>
<path style=" stroke:none;fill-rule:nonzero;fill:rgb(0%,0%,100%);fill-opacity:1;" d="M 177.597656 110.0625 C 177.597656 112.730469 173.597656 112.730469 173.597656 110.0625 C 173.597656 107.394531 177.597656 107.394531 177.597656 110.0625 "/>
<path style=" stroke:none;fill-rule:nonzero;fill:rgb(0%,0%,100%);fill-opacity:1;" d="M 177.847656 109.933594 C 177.847656 112.597656 173.847656 112.597656 173.847656 109.933594 C 173.847656 107.265625 177.847656 107.265625 177.847656 109.933594 "/>
<path style=" stroke:none;fill-rule:nonzero;fill:rgb(0%,0%,100%);fill-opacity:1;" d="M 201.578125 134.367188 C 201.578125 137.03125 197.578125 137.03125 197.578125 134.367188 C 197.578125 131.699219 201.578125 131.699219 201.578125 134.367188 "/>
<path style=" stroke:none;fill-rule:nonzero;fill:rgb(0%,0%,100%);fill-opacity:1;" d="M 201.640625 134.25 C 201.640625 136.914062 197.640625 136.914062 197.640625 134.25 C 197.640625 131.582031 201.640625 131.582031 201.640625 134.25 "/>
<path style="fill:none;stroke-width:1;stroke-linecap:butt;stroke-linejoin:miter;stroke:rgb(0%,0%,100%);stroke-opacity:1;stroke-miterlimit:10;" d="M 185.589844 133.738281 C 185.589844 136.40625 181.589844 136.40625 181.589844 133.738281 C 181.589844 131.070312 185.589844 131.070312 185.589844 133.738281 "/>
<path style=" stroke:none;fill-rule:nonzero;fill:rgb(0%,0%,100%);fill-opacity:1;" d="M 178.050781 158.492188 C 178.050781 161.160156 174.050781 161.160156 174.050781 158.492188 C 174.050781 155.824219 178.050781 155.824219 178.050781 158.492188 "/>
<path style=" stroke:none;fill-rule:nonzero;fill:rgb(0%,0%,100%);fill-opacity:1;" d="M 178.050781 158.519531 C 178.050781 161.1875 174.050781 161.1875 174.050781 158.519531 C 174.050781 155.855469 178.050781 155.855469 178.050781 158.519531 "/>
<path style=" stroke:none;fill-rule:nonzero;fill:rgb(0%,0%,100%);fill-opacity:1;" d="M 201.507812 182.691406 C 201.507812 185.359375 197.507812 185.359375 197.507812 182.691406 C 197.507812 180.027344 201.507812 180.027344 201.507812 182.691406 "/>
<path style=" stroke:none;fill-rule:nonzero;fill:rgb(0%,0%,100%);fill-opacity:1;" d="M 201.703125 182.699219 C 201.703125 185.367188 197.703125 185.367188 197.703125 182.699219 C 197.703125 180.035156 201.703125 180.035156 201.703125 182.699219 "/>
<path style="fill:none;stroke-width:1;stroke-linecap:butt;stroke-linejoin:miter;stroke:rgb(0%,0%,100%);stroke-opacity:1;stroke-miterlimit:10;" d="M 185.609375 183.25 C 185.609375 185.917969 181.609375 185.917969 181.609375 183.25 C 181.609375 180.582031 185.609375 180.582031 185.609375 183.25 "/>
<path style="fill:none;stroke-width:1;stroke-linecap:butt;stroke-linejoin:miter;stroke:rgb(0%,0%,100%);stroke-opacity:1;stroke-miterlimit:10;" d="M 210.371094 158.476562 C 210.371094 161.144531 206.371094 161.144531 206.371094 158.476562 C 206.371094 155.808594 210.371094 155.808594 210.371094 158.476562 "/>
<path style=" stroke:none;fill-rule:nonzero;fill:rgb(0%,0%,100%);fill-opacity:1;" d="M 223.683594 110.054688 C 223.683594 112.722656 219.683594 112.722656 219.683594 110.054688 C 219.683594 107.390625 223.683594 107.390625 223.683594 110.054688 "/>
<path style=" stroke:none;fill-rule:nonzero;fill:rgb(0%,0%,100%);fill-opacity:1;" d="M 223.796875 109.949219 C 223.796875 112.613281 219.796875 112.613281 219.796875 109.949219 C 219.796875 107.28125 223.796875 107.28125 223.796875 109.949219 "/>
<path style=" stroke:none;fill-rule:nonzero;fill:rgb(0%,0%,100%);fill-opacity:1;" d="M 231.578125 134.675781 C 231.578125 137.34375 227.578125 137.34375 227.578125 134.675781 C 227.578125 132.007812 231.578125 132.007812 231.578125 134.675781 "/>
<path style=" stroke:none;fill-rule:nonzero;fill:rgb(0%,0%,100%);fill-opacity:1;" d="M 231.65625 134.40625 C 231.65625 137.070312 227.65625 137.070312 227.65625 134.40625 C 227.65625 131.738281 231.65625 131.738281 231.65625 134.40625 "/>
<path style=" stroke:none;fill-rule:nonzero;fill:rgb(0%,0%,100%);fill-opacity:1;" d="M 223.707031 158.472656 C 223.707031 161.140625 219.707031 161.140625 219.707031 158.472656 C 219.707031 155.804688 223.707031 155.804688 223.707031 158.472656 "/>
<path style=" stroke:none;fill-rule:nonzero;fill:rgb(0%,0%,100%);fill-opacity:1;" d="M 223.855469 158.507812 C 223.855469 161.175781 219.855469 161.175781 219.855469 158.507812 C 219.855469 155.839844 223.855469 155.839844 223.855469 158.507812 "/>
<path style=" stroke:none;fill-rule:nonzero;fill:rgb(0%,0%,100%);fill-opacity:1;" d="M 231.472656 182.371094 C 231.472656 185.039062 227.472656 185.039062 227.472656 182.371094 C 227.472656 179.703125 231.472656 179.703125 231.472656 182.371094 "/>
<path style=" stroke:none;fill-rule:nonzero;fill:rgb(0%,0%,100%);fill-opacity:1;" d="M 231.742188 182.542969 C 231.742188 185.210938 227.742188 185.210938 227.742188 182.542969 C 227.742188 179.875 231.742188 179.875 231.742188 182.542969 "/>
<path style="fill:none;stroke-width:1;stroke-linecap:butt;stroke-linejoin:miter;stroke:rgb(100%,80%,0%);stroke-opacity:1;stroke-miterlimit:10;" d="M 160 110 L 160.542969 110.027344 "/>
<path style="fill:none;stroke-width:1;stroke-linecap:butt;stroke-linejoin:miter;stroke:rgb(100%,80%,0%);stroke-opacity:1;stroke-miterlimit:10;" d="M 167.820312 134.25 L 168.304688 134.300781 "/>
<path style="fill:none;stroke-width:1;stroke-linecap:butt;stroke-linejoin:miter;stroke:rgb(100%,80%,0%);stroke-opacity:1;stroke-miterlimit:10;" d="M 167.820312 134.25 L 168.726562 134.238281 "/>
<path style="fill:none;stroke-width:1;stroke-linecap:butt;stroke-linejoin:miter;stroke:rgb(100%,80%,0%);stroke-opacity:1;stroke-miterlimit:10;" d="M 191.285156 110 L 191.757812 110.320312 "/>
<path style="fill:none;stroke-width:1;stroke-linecap:butt;stroke-linejoin:miter;stroke:rgb(100%,80%,0%);stroke-opacity:1;stroke-miterlimit:10;" d="M 191.285156 110 L 191.828125 109.679688 "/>
<path style="fill:none;stroke-width:1;stroke-linecap:butt;stroke-linejoin:miter;stroke:rgb(100%,80%,0%);stroke-opacity:1;stroke-miterlimit:10;" d="M 160 158.496094 L 161.007812 158.464844 "/>
<path style="fill:none;stroke-width:1;stroke-linecap:butt;stroke-linejoin:miter;stroke:rgb(100%,80%,0%);stroke-opacity:1;stroke-miterlimit:10;" d="M 167.820312 182.746094 L 168.574219 182.691406 "/>
<path style="fill:none;stroke-width:1;stroke-linecap:butt;stroke-linejoin:miter;stroke:rgb(100%,80%,0%);stroke-opacity:1;stroke-miterlimit:10;" d="M 167.820312 182.746094 L 168.386719 182.742188 "/>
<path style="fill:none;stroke-width:1;stroke-linecap:butt;stroke-linejoin:miter;stroke:rgb(100%,80%,0%);stroke-opacity:1;stroke-miterlimit:10;" d="M 191.285156 158.496094 L 191.632812 158.214844 "/>
<path style="fill:none;stroke-width:1;stroke-linecap:butt;stroke-linejoin:miter;stroke:rgb(100%,80%,0%);stroke-opacity:1;stroke-miterlimit:10;" d="M 191.285156 158.496094 L 191.773438 158.777344 "/>
<path style="fill:none;stroke-width:1;stroke-linecap:butt;stroke-linejoin:miter;stroke:rgb(100%,80%,0%);stroke-opacity:1;stroke-miterlimit:10;" d="M 214.75 134.25 L 212.519531 134.28125 "/>
<path style="fill:none;stroke-width:1;stroke-linecap:butt;stroke-linejoin:miter;stroke:rgb(100%,80%,0%);stroke-opacity:1;stroke-miterlimit:10;" d="M 214.75 182.746094 L 212.542969 182.726562 "/>
<path style="fill:none;stroke-width:1;stroke-linecap:butt;stroke-linejoin:miter;stroke:rgb(100%,80%,0%);stroke-opacity:1;stroke-miterlimit:10;" d="M 175.644531 110 L 175.597656 110.0625 "/>
<path style="fill:none;stroke-width:1;stroke-linecap:butt;stroke-linejoin:miter;stroke:rgb(100%,80%,0%);stroke-opacity:1;stroke-miterlimit:10;" d="M 175.644531 110 L 175.847656 109.933594 "/>
<path style="fill:none;stroke-width:1;stroke-linecap:butt;stroke-linejoin:miter;stroke:rgb(100%,80%,0%);stroke-opacity:1;stroke-miterlimit:10;" d="M 199.105469 134.25 L 199.578125 134.367188 "/>
<path style="fill:none;stroke-width:1;stroke-linecap:butt;stroke-linejoin:miter;stroke:rgb(100%,80%,0%);stroke-opacity:1;stroke-miterlimit:10;" d="M 199.105469 134.25 L 199.640625 134.25 "/>
<path style="fill:none;stroke-width:1;stroke-linecap:butt;stroke-linejoin:miter;stroke:rgb(100%,80%,0%);stroke-opacity:1;stroke-miterlimit:10;" d="M 183.464844 134.25 L 183.589844 133.738281 "/>
<path style="fill:none;stroke-width:1;stroke-linecap:butt;stroke-linejoin:miter;stroke:rgb(100%,80%,0%);stroke-opacity:1;stroke-miterlimit:10;" d="M 175.644531 158.496094 L 176.050781 158.492188 "/>
<path style="fill:none;stroke-width:1;stroke-linecap:butt;stroke-linejoin:miter;stroke:rgb(100%,80%,0%);stroke-opacity:1;stroke-miterlimit:10;" d="M 175.644531 158.496094 L 176.050781 158.519531 "/>
<path style="fill:none;stroke-width:1;stroke-linecap:butt;stroke-linejoin:miter;stroke:rgb(100%,80%,0%);stroke-opacity:1;stroke-miterlimit:10;" d="M 199.105469 182.746094 L 199.507812 182.691406 "/>
<path style="fill:none;stroke-width:1;stroke-linecap:butt;stroke-linejoin:miter;stroke:rgb(100%,80%,0%);stroke-opacity:1;stroke-miterlimit:10;" d="M 199.105469 182.746094 L 199.703125 182.699219 "/>
<path style="fill:none;stroke-width:1;stroke-linecap:butt;stroke-linejoin:miter;stroke:rgb(100%,80%,0%);stroke-opacity:1;stroke-miterlimit:10;" d="M 183.464844 182.746094 L 183.609375 183.25 "/>
<path style="fill:none;stroke-width:1;stroke-linecap:butt;stroke-linejoin:miter;stroke:rgb(100%,80%,0%);stroke-opacity:1;stroke-miterlimit:10;" d="M 206.929688 158.496094 L 208.371094 158.476562 "/>
<path style="fill:none;stroke-width:1;stroke-linecap:butt;stroke-linejoin:miter;stroke:rgb(100%,80%,0%);stroke-opacity:1;stroke-miterlimit:10;" d="M 222.570312 110 L 221.683594 110.054688 "/>
<path style="fill:none;stroke-width:1;stroke-linecap:butt;stroke-linejoin:miter;stroke:rgb(100%,80%,0%);stroke-opacity:1;stroke-miterlimit:10;" d="M 222.570312 110 L 221.796875 109.949219 "/>
<path style="fill:none;stroke-width:1;stroke-linecap:butt;stroke-linejoin:miter;stroke:rgb(100%,80%,0%);stroke-opacity:1;stroke-miterlimit:10;" d="M 230.390625 134.25 L 229.578125 134.675781 "/>
<path style="fill:none;stroke-width:1;stroke-linecap:butt;stroke-linejoin:miter;stroke:rgb(100%,80%,0%);stroke-opacity:1;stroke-miterlimit:10;" d="M 230.390625 134.25 L 229.65625 134.40625 "/>
<path style="fill:none;stroke-width:1;stroke-linecap:butt;stroke-linejoin:miter;stroke:rgb(100%,80%,0%);stroke-opacity:1;stroke-miterlimit:10;" d="M 222.570312 158.496094 L 221.707031 158.472656 "/>
<path style="fill:none;stroke-width:1;stroke-linecap:butt;stroke-linejoin:miter;stroke:rgb(100%,80%,0%);stroke-opacity:1;stroke-miterlimit:10;" d="M 222.570312 158.496094 L 221.855469 158.507812 "/>
<path style="fill:none;stroke-width:1;stroke-linecap:butt;stroke-linejoin:miter;stroke:rgb(100%,80%,0%);stroke-opacity:1;stroke-miterlimit:10;" d="M 230.390625 182.746094 L 229.472656 182.371094 "/>
<path style="fill:none;stroke-width:1;stroke-linecap:butt;stroke-linejoin:miter;stroke:rgb(100%,80%,0%);stroke-opacity:1;stroke-miterlimit:10;" d="M 230.390625 182.746094 L 229.742188 182.542969 "/>
</g>
</svg>
