<?xml version="1.0" encoding="UTF-8"?>
<svg xmlns="http://www.w3.org/2000/svg" xmlns:xlink="http://www.w3.org/1999/xlink" width="300pt" height="200pt" viewBox="0 0 300 200" version="1.1">
<g id="surface1">
<rect x="0" y="0" width="300" height="200" style="fill:rgb(80%,80%,80%);fill-opacity:1;stroke:none;"/>
<path style="fill:none;stroke-width:1;stroke-linecap:butt;stroke-linejoin:miter;stroke:rgb(0%,0%,0%);stroke-opacity:1;stroke-miterlimit:10;" d="M 10 10 L 10 1010 "/>
<path style="fill:none;stroke-width:1;stroke-linecap:butt;stroke-linejoin:miter;stroke:rgb(0%,0%,0%);stroke-opacity:1;stroke-miterlimit:10;" d="M 160 10 L 160 1010 "/>
<path style="fill:none;stroke-width:1;stroke-linecap:butt;stroke-linejoin:miter;stroke:rgb(0%,0%,0%);stroke-opacity:1;stroke-miterlimit:10;" d="M 10 110 L 10 1110 "/>
<path style="fill:none;stroke-width:1;stroke-linecap:butt;stroke-linejoin:miter;stroke:rgb(0%,0%,0%);stroke-opacity:1;stroke-miterlimit:10;" d="M 10 10 L 1010 10 "/>
<path style="fill:none;stroke-width:1;stroke-linecap:butt;stroke-linejoin:miter;stroke:rgb(0%,0%,0%);stroke-opacity:1;stroke-miterlimit:10;" d="M 160 10 L 1160 10 "/>
<path style="fill:none;stroke-width:1;stroke-linecap:butt;stroke-linejoin:miter;stroke:rgb(0%,0%,0%);stroke-opacity:1;stroke-miterlimit:10;" d="M 10 110 L 1010 110 "/>
<path style=" stroke:none;fill-rule:nonzero;fill:rgb(100%,0%,0%);fill-opacity:1;" d="M 67.089844 33.542969 C 67.089844 36.742188 62.289062 36.742188 62.289062 33.542969 C 62.289062 30.34375 67.089844 30.34375 67.089844 33.542969 "/>
<path style=" stroke:none;fill-rule:nonzero;fill:rgb(100%,0%,0%);fill-opacity:1;" d="M 76.597656 33.542969 C 76.597656 36.742188 71.800781 36.742188 71.800781 33.542969 C 71.800781 30.34375 76.597656 30.34375 76.597656 33.542969 "/>
<path style=" stroke:none;fill-rule:nonzero;fill:rgb(100%,0%,0%);fill-opacity:1;" d="M 74.222656 21.652344 C 74.222656 24.851562 69.421875 24.851562 69.421875 21.652344 C 69.421875 18.453125 74.222656 18.453125 74.222656 21.652344 "/>
<path style=" stroke:none;fill-rule:nonzero;fill:rgb(100%,0%,0%);fill-opacity:1;" d="M 69.464844 21.652344 C 69.464844 24.851562 64.667969 24.851562 64.667969 21.652344 C 64.667969 18.453125 69.464844 18.453125 69.464844 21.652344 "/>
<path style=" stroke:none;fill-rule:nonzero;fill:rgb(100%,0%,0%);fill-opacity:1;" d="M 128.910156 47.808594 C 128.910156 51.007812 124.109375 51.007812 124.109375 47.808594 C 124.109375 44.609375 128.910156 44.609375 128.910156 47.808594 "/>
<path style=" stroke:none;fill-rule:nonzero;fill:rgb(100%,0%,0%);fill-opacity:1;" d="M 128.910156 47.808594 C 128.910156 51.007812 124.109375 51.007812 124.109375 47.808594 C 124.109375 44.609375 128.910156 44.609375 128.910156 47.808594 "/>
<path style=" stroke:none;fill-rule:nonzero;fill:rgb(100%,0%,0%);fill-opacity:1;" d="M 17.15625 35.917969 C 17.15625 39.121094 12.355469 39.121094 12.355469 35.917969 C 12.355469 32.71875 17.15625 32.71875 17.15625 35.917969 "/>
<path style=" stroke:none;fill-rule:nonzero;fill:rgb(100%,0%,0%);fill-opacity:1;" d="M 17.15625 35.917969 C 17.15625 39.121094 12.355469 39.121094 12.355469 35.917969 C 12.355469 32.71875 17.15625 32.71875 17.15625 35.917969 "/>
<path style=" stroke:none;fill-rule:nonzero;fill:rgb(0%,0%,100%);fill-opacity:1;" d="M 71.445312 71.585938 C 71.445312 74.253906 67.445312 74.253906 67.445312 71.585938 C 67.445312 68.917969 71.445312 68.917969 71.445312 71.585938 "/>
<path style=" stroke:none;fill-rule:nonzero;fill:rgb(0%,0%,100%);fill-opacity:1;" d="M 83.332031 69.207031 C 83.332031 71.875 79.332031 71.875 79.332031 69.207031 C 79.332031 66.542969 83.332031 66.542969 83.332031 69.207031 "/>
<path style=" stroke:none;fill-rule:nonzero;fill:rgb(0%,0%,100%);fill-opacity:1;" d="M 59.554688 69.207031 C 59.554688 71.875 55.554688 71.875 55.554688 69.207031 C 55.554688 66.542969 59.554688 66.542969 59.554688 69.207031 "/>
<path style=" stroke:none;fill-rule:nonzero;fill:rgb(0%,0%,100%);fill-opacity:1;" d="M 80.953125 57.320312 C 80.953125 59.984375 76.953125 59.984375 76.953125 57.320312 C 76.953125 54.652344 80.953125 54.652344 80.953125 57.320312 "/>
<path style=" stroke:none;fill-rule:nonzero;fill:rgb(0%,0%,100%);fill-opacity:1;" d="M 61.933594 57.320312 C 61.933594 59.984375 57.933594 59.984375 57.933594 57.320312 C 57.933594 54.652344 61.933594 54.652344 61.933594 57.320312 "/>
<path style=" stroke:none;fill-rule:nonzero;fill:rgb(0%,0%,100%);fill-opacity:1;" d="M 71.445312 71.585938 C 71.445312 74.253906 67.445312 74.253906 67.445312 71.585938 C 67.445312 68.917969 71.445312 68.917969 71.445312 71.585938 "/>
<path style=" stroke:none;fill-rule:nonzero;fill:rgb(0%,0%,100%);fill-opacity:1;" d="M 83.332031 69.207031 C 83.332031 71.875 79.332031 71.875 79.332031 69.207031 C 79.332031 66.542969 83.332031 66.542969 83.332031 69.207031 "/>
<path style=" stroke:none;fill-rule:nonzero;fill:rgb(0%,0%,100%);fill-opacity:1;" d="M 59.554688 69.207031 C 59.554688 71.875 55.554688 71.875 55.554688 69.207031 C 55.554688 66.542969 59.554688 66.542969 59.554688 69.207031 "/>
<path style=" stroke:none;fill-rule:nonzero;fill:rgb(0%,0%,100%);fill-opacity:1;" d="M 80.953125 57.320312 C 80.953125 59.984375 76.953125 59.984375 76.953125 57.320312 C 76.953125 54.652344 80.953125 54.652344 80.953125 57.320312 "/>
<path style=" stroke:none;fill-rule:nonzero;fill:rgb(0%,0%,100%);fill-opacity:1;" d="M 61.933594 57.320312 C 61.933594 59.984375 57.933594 59.984375 57.933594 57.320312 C 57.933594 54.652344 61.933594 54.652344 61.933594 57.320312 "/>
<path style=" stroke:none;fill-rule:nonzero;fill:rgb(0%,0%,100%);fill-opacity:1;" d="M 78.578125 45.429688 C 78.578125 48.097656 74.578125 48.097656 74.578125 45.429688 C 74.578125 42.765625 78.578125 42.765625 78.578125 45.429688 "/>
<path style=" stroke:none;fill-rule:nonzero;fill:rgb(0%,0%,100%);fill-opacity:1;" d="M 64.308594 45.429688 C 64.308594 48.097656 60.308594 48.097656 60.308594 45.429688 C 60.308594 42.765625 64.308594 42.765625 64.308594 45.429688 "/>
<path style=" stroke:none;fill-rule:nonzero;fill:rgb(0%,0%,100%);fill-opacity:1;" d="M 76.199219 33.542969 C 76.199219 36.207031 72.199219 36.207031 72.199219 33.542969 C 72.199219 30.875 76.199219 30.875 76.199219 33.542969 "/>
<path style=" stroke:none;fill-rule:nonzero;fill:rgb(0%,0%,100%);fill-opacity:1;" d="M 78.578125 45.429688 C 78.578125 48.097656 74.578125 48.097656 74.578125 45.429688 C 74.578125 42.765625 78.578125 42.765625 78.578125 45.429688 "/>
<path style=" stroke:none;fill-rule:nonzero;fill:rgb(0%,0%,100%);fill-opacity:1;" d="M 64.308594 45.429688 C 64.308594 48.097656 60.308594 48.097656 60.308594 45.429688 C 60.308594 42.765625 64.308594 42.765625 64.308594 45.429688 "/>
<path style=" stroke:none;fill-rule:nonzero;fill:rgb(0%,0%,100%);fill-opacity:1;" d="M 66.6875 33.542969 C 66.6875 36.207031 62.6875 36.207031 62.6875 33.542969 C 62.6875 30.875 66.6875 30.875 66.6875 33.542969 "/>
<path style=" stroke:none;fill-rule:nonzero;fill:rgb(0%,0%,100%);fill-opacity:1;" d="M 69.066406 21.652344 C 69.066406 24.320312 65.066406 24.320312 65.066406 21.652344 C 65.066406 18.988281 69.066406 18.988281 69.066406 21.652344 "/>
<path style=" stroke:none;fill-rule:nonzero;fill:rgb(0%,0%,100%);fill-opacity:1;" d="M 73.820312 21.652344 C 73.820312 24.320312 69.820312 24.320312 69.820312 21.652344 C 69.820312 18.988281 73.820312 18.988281 73.820312 21.652344 "/>
<path style=" stroke:none;fill-rule:nonzero;fill:rgb(0%,0%,100%);fill-opacity:1;" d="M 95.222656 66.832031 C 95.222656 69.496094 91.222656 69.496094 91.222656 66.832031 C 91.222656 64.164062 95.222656 64.164062 95.222656 66.832031 "/>
<path style=" stroke:none;fill-rule:nonzero;fill:rgb(0%,0%,100%);fill-opacity:1;" d="M 47.667969 66.832031 C 47.667969 69.496094 43.667969 69.496094 43.667969 66.832031 C 43.667969 64.164062 47.667969 64.164062 47.667969 66.832031 "/>
<path style=" stroke:none;fill-rule:nonzero;fill:rgb(0%,0%,100%);fill-opacity:1;" d="M 92.84375 54.941406 C 92.84375 57.609375 88.84375 57.609375 88.84375 54.941406 C 88.84375 52.273438 92.84375 52.273438 92.84375 54.941406 "/>
<path style=" stroke:none;fill-rule:nonzero;fill:rgb(0%,0%,100%);fill-opacity:1;" d="M 50.042969 54.941406 C 50.042969 57.609375 46.042969 57.609375 46.042969 54.941406 C 46.042969 52.273438 50.042969 52.273438 50.042969 54.941406 "/>
<path style=" stroke:none;fill-rule:nonzero;fill:rgb(0%,0%,100%);fill-opacity:1;" d="M 107.109375 64.453125 C 107.109375 67.121094 103.109375 67.121094 103.109375 64.453125 C 103.109375 61.785156 107.109375 61.785156 107.109375 64.453125 "/>
<path style=" stroke:none;fill-rule:nonzero;fill:rgb(0%,0%,100%);fill-opacity:1;" d="M 35.777344 64.453125 C 35.777344 67.121094 31.777344 67.121094 31.777344 64.453125 C 31.777344 61.785156 35.777344 61.785156 35.777344 64.453125 "/>
<path style=" stroke:none;fill-rule:nonzero;fill:rgb(0%,0%,100%);fill-opacity:1;" d="M 104.730469 52.5625 C 104.730469 55.230469 100.730469 55.230469 100.730469 52.5625 C 100.730469 49.898438 104.730469 49.898438 104.730469 52.5625 "/>
<path style=" stroke:none;fill-rule:nonzero;fill:rgb(0%,0%,100%);fill-opacity:1;" d="M 38.15625 52.5625 C 38.15625 55.230469 34.15625 55.230469 34.15625 52.5625 C 34.15625 49.898438 38.15625 49.898438 38.15625 52.5625 "/>
<path style=" stroke:none;fill-rule:nonzero;fill:rgb(0%,0%,100%);fill-opacity:1;" d="M 95.222656 66.832031 C 95.222656 69.496094 91.222656 69.496094 91.222656 66.832031 C 91.222656 64.164062 95.222656 64.164062 95.222656 66.832031 "/>
<path style=" stroke:none;fill-rule:nonzero;fill:rgb(0%,0%,100%);fill-opacity:1;" d="M 47.667969 66.832031 C 47.667969 69.496094 43.667969 69.496094 43.667969 66.832031 C 43.667969 64.164062 47.667969 64.164062 47.667969 66.832031 "/>
<path style=" stroke:none;fill-rule:nonzero;fill:rgb(0%,0%,100%);fill-opacity:1;" d="M 92.84375 54.941406 C 92.84375 57.609375 88.84375 57.609375 88.84375 54.941406 C 88.84375 52.273438 92.84375 52.273438 92.84375 54.941406 "/>
<path style=" stroke:none;fill-rule:nonzero;fill:rgb(0%,0%,100%);fill-opacity:1;" d="M 50.042969 54.941406 C 50.042969 57.609375 46.042969 57.609375 46.042969 54.941406 C 46.042969 52.273438 50.042969 52.273438 50.042969 54.941406 "/>
<path style=" stroke:none;fill-rule:nonzero;fill:rgb(0%,0%,100%);fill-opacity:1;" d="M 107.109375 64.453125 C 107.109375 67.121094 103.109375 67.121094 103.109375 64.453125 C 103.109375 61.785156 107.109375 61.785156 107.109375 64.453125 "/>
<path style=" stroke:none;fill-rule:nonzero;fill:rgb(0%,0%,100%);fill-opacity:1;" d="M 35.777344 64.453125 C 35.777344 67.121094 31.777344 67.121094 31.777344 64.453125 C 31.777344 61.785156 35.777344 61.785156 35.777344 64.453125 "/>
<path style=" stroke:none;fill-rule:nonzero;fill:rgb(0%,0%,100%);fill-opacity:1;" d="M 104.730469 52.5625 C 104.730469 55.230469 100.730469 55.230469 100.730469 52.5625 C 100.730469 49.898438 104.730469 49.898438 104.730469 52.5625 "/>
<path style=" stroke:none;fill-rule:nonzero;fill:rgb(0%,0%,100%);fill-opacity:1;" d="M 38.15625 52.5625 C 38.15625 55.230469 34.15625 55.230469 34.15625 52.5625 C 34.15625 49.898438 38.15625 49.898438 38.15625 52.5625 "/>
<path style=" stroke:none;fill-rule:nonzero;fill:rgb(0%,0%,100%);fill-opacity:1;" d="M 90.464844 43.054688 C 90.464844 45.71875 86.464844 45.71875 86.464844 43.054688 C 86.464844 40.386719 90.464844 40.386719 90.464844 43.054688 "/>
<path style=" stroke:none;fill-rule:nonzero;fill:rgb(0%,0%,100%);fill-opacity:1;" d="M 52.421875 43.054688 C 52.421875 45.71875 48.421875 45.71875 48.421875 43.054688 C 48.421875 40.386719 52.421875 40.386719 52.421875 43.054688 "/>
<path style=" stroke:none;fill-rule:nonzero;fill:rgb(0%,0%,100%);fill-opacity:1;" d="M 88.089844 31.164062 C 88.089844 33.832031 84.089844 33.832031 84.089844 31.164062 C 84.089844 28.496094 88.089844 28.496094 88.089844 31.164062 "/>
<path style=" stroke:none;fill-rule:nonzero;fill:rgb(0%,0%,100%);fill-opacity:1;" d="M 54.800781 31.164062 C 54.800781 33.832031 50.800781 33.832031 50.800781 31.164062 C 50.800781 28.496094 54.800781 28.496094 54.800781 31.164062 "/>
<path style=" stroke:none;fill-rule:nonzero;fill:rgb(0%,0%,100%);fill-opacity:1;" d="M 102.355469 40.675781 C 102.355469 43.34375 98.355469 43.34375 98.355469 40.675781 C 98.355469 38.007812 102.355469 38.007812 102.355469 40.675781 "/>
<path style=" stroke:none;fill-rule:nonzero;fill:rgb(0%,0%,100%);fill-opacity:1;" d="M 40.53125 40.675781 C 40.53125 43.34375 36.53125 43.34375 36.53125 40.675781 C 36.53125 38.007812 40.53125 38.007812 40.53125 40.675781 "/>
<path style=" stroke:none;fill-rule:nonzero;fill:rgb(0%,0%,100%);fill-opacity:1;" d="M 99.976562 28.785156 C 99.976562 31.453125 95.976562 31.453125 95.976562 28.785156 C 95.976562 26.121094 99.976562 26.121094 99.976562 28.785156 "/>
<path style=" stroke:none;fill-rule:nonzero;fill:rgb(0%,0%,100%);fill-opacity:1;" d="M 42.910156 28.785156 C 42.910156 31.453125 38.910156 31.453125 38.910156 28.785156 C 38.910156 26.121094 42.910156 26.121094 42.910156 28.785156 "/>
<path style=" stroke:none;fill-rule:nonzero;fill:rgb(0%,0%,100%);fill-opacity:1;" d="M 90.464844 43.054688 C 90.464844 45.71875 86.464844 45.71875 86.464844 43.054688 C 86.464844 40.386719 90.464844 40.386719 90.464844 43.054688 "/>
<path style=" stroke:none;fill-rule:nonzero;fill:rgb(0%,0%,100%);fill-opacity:1;" d="M 52.421875 43.054688 C 52.421875 45.71875 48.421875 45.71875 48.421875 43.054688 C 48.421875 40.386719 52.421875 40.386719 52.421875 43.054688 "/>
<path style=" stroke:none;fill-rule:nonzero;fill:rgb(0%,0%,100%);fill-opacity:1;" d="M 88.089844 31.164062 C 88.089844 33.832031 84.089844 33.832031 84.089844 31.164062 C 84.089844 28.496094 88.089844 28.496094 88.089844 31.164062 "/>
<path style=" stroke:none;fill-rule:nonzero;fill:rgb(0%,0%,100%);fill-opacity:1;" d="M 54.800781 31.164062 C 54.800781 33.832031 50.800781 33.832031 50.800781 31.164062 C 50.800781 28.496094 54.800781 28.496094 54.800781 31.164062 "/>
<path style=" stroke:none;fill-rule:nonzero;fill:rgb(0%,0%,100%);fill-opacity:1;" d="M 102.355469 40.675781 C 102.355469 43.34375 98.355469 43.34375 98.355469 40.675781 C 98.355469 38.007812 102.355469 38.007812 102.355469 40.675781 "/>
<path style=" stroke:none;fill-rule:nonzero;fill:rgb(0%,0%,100%);fill-opacity:1;" d="M 40.53125 40.675781 C 40.53125 43.34375 36.53125 43.34375 36.53125 40.675781 C 36.53125 38.007812 40.53125 38.007812 40.53125 40.675781 "/>
<path style=" stroke:none;fill-rule:nonzero;fill:rgb(0%,0%,100%);fill-opacity:1;" d="M 99.976562 28.785156 C 99.976562 31.453125 95.976562 31.453125 95.976562 28.785156 C 95.976562 26.121094 99.976562 26.121094 99.976562 28.785156 "/>
<path style=" stroke:none;fill-rule:nonzero;fill:rgb(0%,0%,100%);fill-opacity:1;" d="M 42.910156 28.785156 C 42.910156 31.453125 38.910156 31.453125 38.910156 28.785156 C 38.910156 26.121094 42.910156 26.121094 42.910156 28.785156 "/>
<path style=" stroke:none;fill-rule:nonzero;fill:rgb(0%,0%,100%);fill-opacity:1;" d="M 85.710938 19.277344 C 85.710938 21.941406 81.710938 21.941406 81.710938 19.277344 C 81.710938 16.609375 85.710938 16.609375 85.710938 19.277344 "/>
<path style=" stroke:none;fill-rule:nonzero;fill:rgb(0%,0%,100%);fill-opacity:1;" d="M 57.175781 19.277344 C 57.175781 21.941406 53.175781 21.941406 53.175781 19.277344 C 53.175781 16.609375 57.175781 16.609375 57.175781 19.277344 "/>
<path style=" stroke:none;fill-rule:nonzero;fill:rgb(0%,0%,100%);fill-opacity:1;" d="M 97.597656 16.898438 C 97.597656 19.566406 93.597656 19.566406 93.597656 16.898438 C 93.597656 14.230469 97.597656 14.230469 97.597656 16.898438 "/>
<path style=" stroke:none;fill-rule:nonzero;fill:rgb(0%,0%,100%);fill-opacity:1;" d="M 45.289062 16.898438 C 45.289062 19.566406 41.289062 19.566406 41.289062 16.898438 C 41.289062 14.230469 45.289062 14.230469 45.289062 16.898438 "/>
<path style=" stroke:none;fill-rule:nonzero;fill:rgb(0%,0%,100%);fill-opacity:1;" d="M 85.710938 19.277344 C 85.710938 21.941406 81.710938 21.941406 81.710938 19.277344 C 81.710938 16.609375 85.710938 16.609375 85.710938 19.277344 "/>
<path style=" stroke:none;fill-rule:nonzero;fill:rgb(0%,0%,100%);fill-opacity:1;" d="M 57.175781 19.277344 C 57.175781 21.941406 53.175781 21.941406 53.175781 19.277344 C 53.175781 16.609375 57.175781 16.609375 57.175781 19.277344 "/>
<path style=" stroke:none;fill-rule:nonzero;fill:rgb(0%,0%,100%);fill-opacity:1;" d="M 97.597656 16.898438 C 97.597656 19.566406 93.597656 19.566406 93.597656 16.898438 C 93.597656 14.230469 97.597656 14.230469 97.597656 16.898438 "/>
<path style=" stroke:none;fill-rule:nonzero;fill:rgb(0%,0%,100%);fill-opacity:1;" d="M 45.289062 16.898438 C 45.289062 19.566406 41.289062 19.566406 41.289062 16.898438 C 41.289062 14.230469 45.289062 14.230469 45.289062 16.898438 "/>
<path style=" stroke:none;fill-rule:nonzero;fill:rgb(0%,0%,100%);fill-opacity:1;" d="M 119 62.074219 C 119 64.742188 115 64.742188 115 62.074219 C 115 59.410156 119 59.410156 119 62.074219 "/>
<path style=" stroke:none;fill-rule:nonzero;fill:rgb(0%,0%,100%);fill-opacity:1;" d="M 23.890625 62.074219 C 23.890625 64.742188 19.890625 64.742188 19.890625 62.074219 C 19.890625 59.410156 23.890625 59.410156 23.890625 62.074219 "/>
<path style=" stroke:none;fill-rule:nonzero;fill:rgb(0%,0%,100%);fill-opacity:1;" d="M 116.621094 50.1875 C 116.621094 52.851562 112.621094 52.851562 112.621094 50.1875 C 112.621094 47.519531 116.621094 47.519531 116.621094 50.1875 "/>
<path style=" stroke:none;fill-rule:nonzero;fill:rgb(0%,0%,100%);fill-opacity:1;" d="M 26.265625 50.1875 C 26.265625 52.851562 22.265625 52.851562 22.265625 50.1875 C 22.265625 47.519531 26.265625 47.519531 26.265625 50.1875 "/>
<path style=" stroke:none;fill-rule:nonzero;fill:rgb(0%,0%,100%);fill-opacity:1;" d="M 12 59.699219 C 12 62.363281 8 62.363281 8 59.699219 C 8 57.03125 12 57.03125 12 59.699219 "/>
<path style=" stroke:none;fill-rule:nonzero;fill:rgb(0%,0%,100%);fill-opacity:1;" d="M 14.378906 47.808594 C 14.378906 50.476562 10.378906 50.476562 10.378906 47.808594 C 10.378906 45.140625 14.378906 45.140625 14.378906 47.808594 "/>
<path style=" stroke:none;fill-rule:nonzero;fill:rgb(0%,0%,100%);fill-opacity:1;" d="M 119 62.074219 C 119 64.742188 115 64.742188 115 62.074219 C 115 59.410156 119 59.410156 119 62.074219 "/>
<path style=" stroke:none;fill-rule:nonzero;fill:rgb(0%,0%,100%);fill-opacity:1;" d="M 23.890625 62.074219 C 23.890625 64.742188 19.890625 64.742188 19.890625 62.074219 C 19.890625 59.410156 23.890625 59.410156 23.890625 62.074219 "/>
<path style=" stroke:none;fill-rule:nonzero;fill:rgb(0%,0%,100%);fill-opacity:1;" d="M 116.621094 50.1875 C 116.621094 52.851562 112.621094 52.851562 112.621094 50.1875 C 112.621094 47.519531 116.621094 47.519531 116.621094 50.1875 "/>
<path style=" stroke:none;fill-rule:nonzero;fill:rgb(0%,0%,100%);fill-opacity:1;" d="M 26.265625 50.1875 C 26.265625 52.851562 22.265625 52.851562 22.265625 50.1875 C 22.265625 47.519531 26.265625 47.519531 26.265625 50.1875 "/>
<path style=" stroke:none;fill-rule:nonzero;fill:rgb(0%,0%,100%);fill-opacity:1;" d="M 12 59.699219 C 12 62.363281 8 62.363281 8 59.699219 C 8 57.03125 12 57.03125 12 59.699219 "/>
<path style=" stroke:none;fill-rule:nonzero;fill:rgb(0%,0%,100%);fill-opacity:1;" d="M 14.378906 47.808594 C 14.378906 50.476562 10.378906 50.476562 10.378906 47.808594 C 10.378906 45.140625 14.378906 45.140625 14.378906 47.808594 "/>
<path style=" stroke:none;fill-rule:nonzero;fill:rgb(0%,0%,100%);fill-opacity:1;" d="M 114.242188 38.296875 C 114.242188 40.964844 110.242188 40.964844 110.242188 38.296875 C 110.242188 35.632812 114.242188 35.632812 114.242188 38.296875 "/>
<path style=" stroke:none;fill-rule:nonzero;fill:rgb(0%,0%,100%);fill-opacity:1;" d="M 28.644531 38.296875 C 28.644531 40.964844 24.644531 40.964844 24.644531 38.296875 C 24.644531 35.632812 28.644531 35.632812 28.644531 38.296875 "/>
<path style=" stroke:none;fill-rule:nonzero;fill:rgb(0%,0%,100%);fill-opacity:1;" d="M 111.867188 26.410156 C 111.867188 29.074219 107.867188 29.074219 107.867188 26.410156 C 107.867188 23.742188 111.867188 23.742188 111.867188 26.410156 "/>
<path style=" stroke:none;fill-rule:nonzero;fill:rgb(0%,0%,100%);fill-opacity:1;" d="M 31.023438 26.410156 C 31.023438 29.074219 27.023438 29.074219 27.023438 26.410156 C 27.023438 23.742188 31.023438 23.742188 31.023438 26.410156 "/>
<path style=" stroke:none;fill-rule:nonzero;fill:rgb(0%,0%,100%);fill-opacity:1;" d="M 126.132812 35.917969 C 126.132812 38.585938 122.132812 38.585938 122.132812 35.917969 C 122.132812 33.253906 126.132812 33.253906 126.132812 35.917969 "/>
<path style=" stroke:none;fill-rule:nonzero;fill:rgb(0%,0%,100%);fill-opacity:1;" d="M 123.753906 24.03125 C 123.753906 26.699219 119.753906 26.699219 119.753906 24.03125 C 119.753906 21.363281 123.753906 21.363281 123.753906 24.03125 "/>
<path style=" stroke:none;fill-rule:nonzero;fill:rgb(0%,0%,100%);fill-opacity:1;" d="M 19.132812 24.03125 C 19.132812 26.699219 15.132812 26.699219 15.132812 24.03125 C 15.132812 21.363281 19.132812 21.363281 19.132812 24.03125 "/>
<path style=" stroke:none;fill-rule:nonzero;fill:rgb(0%,0%,100%);fill-opacity:1;" d="M 114.242188 38.296875 C 114.242188 40.964844 110.242188 40.964844 110.242188 38.296875 C 110.242188 35.632812 114.242188 35.632812 114.242188 38.296875 "/>
<path style=" stroke:none;fill-rule:nonzero;fill:rgb(0%,0%,100%);fill-opacity:1;" d="M 28.644531 38.296875 C 28.644531 40.964844 24.644531 40.964844 24.644531 38.296875 C 24.644531 35.632812 28.644531 35.632812 28.644531 38.296875 "/>
<path style=" stroke:none;fill-rule:nonzero;fill:rgb(0%,0%,100%);fill-opacity:1;" d="M 111.867188 26.410156 C 111.867188 29.074219 107.867188 29.074219 107.867188 26.410156 C 107.867188 23.742188 111.867188 23.742188 111.867188 26.410156 "/>
<path style=" stroke:none;fill-rule:nonzero;fill:rgb(0%,0%,100%);fill-opacity:1;" d="M 31.023438 26.410156 C 31.023438 29.074219 27.023438 29.074219 27.023438 26.410156 C 27.023438 23.742188 31.023438 23.742188 31.023438 26.410156 "/>
<path style=" stroke:none;fill-rule:nonzero;fill:rgb(0%,0%,100%);fill-opacity:1;" d="M 126.132812 35.917969 C 126.132812 38.585938 122.132812 38.585938 122.132812 35.917969 C 122.132812 33.253906 126.132812 33.253906 126.132812 35.917969 "/>
<path style=" stroke:none;fill-rule:nonzero;fill:rgb(0%,0%,100%);fill-opacity:1;" d="M 123.753906 24.03125 C 123.753906 26.699219 119.753906 26.699219 119.753906 24.03125 C 119.753906 21.363281 123.753906 21.363281 123.753906 24.03125 "/>
<path style=" stroke:none;fill-rule:nonzero;fill:rgb(0%,0%,100%);fill-opacity:1;" d="M 19.132812 24.03125 C 19.132812 26.699219 15.132812 26.699219 15.132812 24.03125 C 15.132812 21.363281 19.132812 21.363281 19.132812 24.03125 "/>
<path style=" stroke:none;fill-rule:nonzero;fill:rgb(0%,0%,100%);fill-opacity:1;" d="M 109.488281 14.519531 C 109.488281 17.1875 105.488281 17.1875 105.488281 14.519531 C 105.488281 11.851562 109.488281 11.851562 109.488281 14.519531 "/>
<path style=" stroke:none;fill-rule:nonzero;fill:rgb(0%,0%,100%);fill-opacity:1;" d="M 33.398438 14.519531 C 33.398438 17.1875 29.398438 17.1875 29.398438 14.519531 C 29.398438 11.851562 33.398438 11.851562 33.398438 14.519531 "/>
<path style=" stroke:none;fill-rule:nonzero;fill:rgb(0%,0%,100%);fill-opacity:1;" d="M 121.375 12.140625 C 121.375 14.808594 117.375 14.808594 117.375 12.140625 C 117.375 9.476562 121.375 9.476562 121.375 12.140625 "/>
<path style=" stroke:none;fill-rule:nonzero;fill:rgb(0%,0%,100%);fill-opacity:1;" d="M 21.511719 12.140625 C 21.511719 14.808594 17.511719 14.808594 17.511719 12.140625 C 17.511719 9.476562 21.511719 9.476562 21.511719 12.140625 "/>
<path style=" stroke:none;fill-rule:nonzero;fill:rgb(0%,0%,100%);fill-opacity:1;" d="M 109.488281 14.519531 C 109.488281 17.1875 105.488281 17.1875 105.488281 14.519531 C 105.488281 11.851562 109.488281 11.851562 109.488281 14.519531 "/>
<path style=" stroke:none;fill-rule:nonzero;fill:rgb(0%,0%,100%);fill-opacity:1;" d="M 33.398438 14.519531 C 33.398438 17.1875 29.398438 17.1875 29.398438 14.519531 C 29.398438 11.851562 33.398438 11.851562 33.398438 14.519531 "/>
<path style=" stroke:none;fill-rule:nonzero;fill:rgb(0%,0%,100%);fill-opacity:1;" d="M 121.375 12.140625 C 121.375 14.808594 117.375 14.808594 117.375 12.140625 C 117.375 9.476562 121.375 9.476562 121.375 12.140625 "/>
<path style=" stroke:none;fill-rule:nonzero;fill:rgb(0%,0%,100%);fill-opacity:1;" d="M 21.511719 12.140625 C 21.511719 14.808594 17.511719 14.808594 17.511719 12.140625 C 17.511719 9.476562 21.511719 9.476562 21.511719 12.140625 "/>
<path style=" stroke:none;fill-rule:nonzero;fill:rgb(100%,0%,0%);fill-opacity:1;" d="M 67.089844 158.496094 C 67.089844 161.695312 62.289062 161.695312 62.289062 158.496094 C 62.289062 155.296875 67.089844 155.296875 67.089844 158.496094 "/>
<path style=" stroke:none;fill-rule:nonzero;fill:rgb(100%,0%,0%);fill-opacity:1;" d="M 76.597656 134.25 C 76.597656 137.449219 71.800781 137.449219 71.800781 134.25 C 71.800781 131.046875 76.597656 131.046875 76.597656 134.25 "/>
<path style=" stroke:none;fill-rule:nonzero;fill:rgb(100%,0%,0%);fill-opacity:1;" d="M 74.222656 146.371094 C 74.222656 149.574219 69.421875 149.574219 69.421875 146.371094 C 69.421875 143.171875 74.222656 143.171875 74.222656 146.371094 "/>
<path style=" stroke:none;fill-rule:nonzero;fill:rgb(100%,0%,0%);fill-opacity:1;" d="M 69.464844 122.125 C 69.464844 125.324219 64.667969 125.324219 64.667969 122.125 C 64.667969 118.925781 69.464844 118.925781 69.464844 122.125 "/>
<path style=" stroke:none;fill-rule:nonzero;fill:rgb(100%,0%,0%);fill-opacity:1;" d="M 128.910156 158.496094 C 128.910156 161.695312 124.109375 161.695312 124.109375 158.496094 C 124.109375 155.296875 128.910156 155.296875 128.910156 158.496094 "/>
<path style=" stroke:none;fill-rule:nonzero;fill:rgb(100%,0%,0%);fill-opacity:1;" d="M 128.910156 134.25 C 128.910156 137.449219 124.109375 137.449219 124.109375 134.25 C 124.109375 131.046875 128.910156 131.046875 128.910156 134.25 "/>
<path style=" stroke:none;fill-rule:nonzero;fill:rgb(100%,0%,0%);fill-opacity:1;" d="M 17.15625 146.371094 C 17.15625 149.574219 12.355469 149.574219 12.355469 146.371094 C 12.355469 143.171875 17.15625 143.171875 17.15625 146.371094 "/>
<path style=" stroke:none;fill-rule:nonzero;fill:rgb(100%,0%,0%);fill-opacity:1;" d="M 17.15625 122.125 C 17.15625 125.324219 12.355469 125.324219 12.355469 122.125 C 12.355469 118.925781 17.15625 118.925781 17.15625 122.125 "/>
<path style=" stroke:none;fill-rule:nonzero;fill:rgb(0%,0%,100%);fill-opacity:1;" d="M 71.445312 158.496094 C 71.445312 161.164062 67.445312 161.164062 67.445312 158.496094 C 67.445312 155.832031 71.445312 155.832031 71.445312 158.496094 "/>
<path style=" stroke:none;fill-rule:nonzero;fill:rgb(0%,0%,100%);fill-opacity:1;" d="M 83.332031 146.371094 C 83.332031 149.039062 79.332031 149.039062 79.332031 146.371094 C 79.332031 143.707031 83.332031 143.707031 83.332031 146.371094 "/>
<path style=" stroke:none;fill-rule:nonzero;fill:rgb(0%,0%,100%);fill-opacity:1;" d="M 59.554688 146.371094 C 59.554688 149.039062 55.554688 149.039062 55.554688 146.371094 C 55.554688 143.707031 59.554688 143.707031 59.554688 146.371094 "/>
<path style=" stroke:none;fill-rule:nonzero;fill:rgb(0%,0%,100%);fill-opacity:1;" d="M 80.953125 158.496094 C 80.953125 161.164062 76.953125 161.164062 76.953125 158.496094 C 76.953125 155.832031 80.953125 155.832031 80.953125 158.496094 "/>
<path style=" stroke:none;fill-rule:nonzero;fill:rgb(0%,0%,100%);fill-opacity:1;" d="M 61.933594 158.496094 C 61.933594 161.164062 57.933594 161.164062 57.933594 158.496094 C 57.933594 155.832031 61.933594 155.832031 61.933594 158.496094 "/>
<path style=" stroke:none;fill-rule:nonzero;fill:rgb(0%,0%,100%);fill-opacity:1;" d="M 71.445312 134.25 C 71.445312 136.914062 67.445312 136.914062 67.445312 134.25 C 67.445312 131.582031 71.445312 131.582031 71.445312 134.25 "/>
<path style=" stroke:none;fill-rule:nonzero;fill:rgb(0%,0%,100%);fill-opacity:1;" d="M 83.332031 122.125 C 83.332031 124.789062 79.332031 124.789062 79.332031 122.125 C 79.332031 119.457031 83.332031 119.457031 83.332031 122.125 "/>
<path style=" stroke:none;fill-rule:nonzero;fill:rgb(0%,0%,100%);fill-opacity:1;" d="M 59.554688 122.125 C 59.554688 124.789062 55.554688 124.789062 55.554688 122.125 C 55.554688 119.457031 59.554688 119.457031 59.554688 122.125 "/>
<path style=" stroke:none;fill-rule:nonzero;fill:rgb(0%,0%,100%);fill-opacity:1;" d="M 80.953125 134.25 C 80.953125 136.914062 76.953125 136.914062 76.953125 134.25 C 76.953125 131.582031 80.953125 131.582031 80.953125 134.25 "/>
<path style=" stroke:none;fill-rule:nonzero;fill:rgb(0%,0%,100%);fill-opacity:1;" d="M 61.933594 134.25 C 61.933594 136.914062 57.933594 136.914062 57.933594 134.25 C 57.933594 131.582031 61.933594 131.582031 61.933594 134.25 "/>
<path style=" stroke:none;fill-rule:nonzero;fill:rgb(0%,0%,100%);fill-opacity:1;" d="M 78.578125 146.371094 C 78.578125 149.039062 74.578125 149.039062 74.578125 146.371094 C 74.578125 143.707031 78.578125 143.707031 78.578125 146.371094 "/>
<path style=" stroke:none;fill-rule:nonzero;fill:rgb(0%,0%,100%);fill-opacity:1;" d="M 64.308594 146.371094 C 64.308594 149.039062 60.308594 149.039062 60.308594 146.371094 C 60.308594 143.707031 64.308594 143.707031 64.308594 146.371094 "/>
<path style=" stroke:none;fill-rule:nonzero;fill:rgb(0%,0%,100%);fill-opacity:1;" d="M 76.199219 158.496094 C 76.199219 161.164062 72.199219 161.164062 72.199219 158.496094 C 72.199219 155.832031 76.199219 155.832031 76.199219 158.496094 "/>
<path style=" stroke:none;fill-rule:nonzero;fill:rgb(0%,0%,100%);fill-opacity:1;" d="M 78.578125 122.125 C 78.578125 124.789062 74.578125 124.789062 74.578125 122.125 C 74.578125 119.457031 78.578125 119.457031 78.578125 122.125 "/>
<path style=" stroke:none;fill-rule:nonzero;fill:rgb(0%,0%,100%);fill-opacity:1;" d="M 64.308594 122.125 C 64.308594 124.789062 60.308594 124.789062 60.308594 122.125 C 60.308594 119.457031 64.308594 119.457031 64.308594 122.125 "/>
<path style=" stroke:none;fill-rule:nonzero;fill:rgb(0%,0%,100%);fill-opacity:1;" d="M 66.6875 134.25 C 66.6875 136.914062 62.6875 136.914062 62.6875 134.25 C 62.6875 131.582031 66.6875 131.582031 66.6875 134.25 "/>
<path style=" stroke:none;fill-rule:nonzero;fill:rgb(0%,0%,100%);fill-opacity:1;" d="M 69.066406 146.371094 C 69.066406 149.039062 65.066406 149.039062 65.066406 146.371094 C 65.066406 143.707031 69.066406 143.707031 69.066406 146.371094 "/>
<path style=" stroke:none;fill-rule:nonzero;fill:rgb(0%,0%,100%);fill-opacity:1;" d="M 73.820312 122.125 C 73.820312 124.789062 69.820312 124.789062 69.820312 122.125 C 69.820312 119.457031 73.820312 119.457031 73.820312 122.125 "/>
<path style=" stroke:none;fill-rule:nonzero;fill:rgb(0%,0%,100%);fill-opacity:1;" d="M 95.222656 158.496094 C 95.222656 161.164062 91.222656 161.164062 91.222656 158.496094 C 91.222656 155.832031 95.222656 155.832031 95.222656 158.496094 "/>
<path style=" stroke:none;fill-rule:nonzero;fill:rgb(0%,0%,100%);fill-opacity:1;" d="M 47.667969 158.496094 C 47.667969 161.164062 43.667969 161.164062 43.667969 158.496094 C 43.667969 155.832031 47.667969 155.832031 47.667969 158.496094 "/>
<path style=" stroke:none;fill-rule:nonzero;fill:rgb(0%,0%,100%);fill-opacity:1;" d="M 92.84375 146.371094 C 92.84375 149.039062 88.84375 149.039062 88.84375 146.371094 C 88.84375 143.707031 92.84375 143.707031 92.84375 146.371094 "/>
<path style=" stroke:none;fill-rule:nonzero;fill:rgb(0%,0%,100%);fill-opacity:1;" d="M 50.042969 146.371094 C 50.042969 149.039062 46.042969 149.039062 46.042969 146.371094 C 46.042969 143.707031 50.042969 143.707031 50.042969 146.371094 "/>
<path style=" stroke:none;fill-rule:nonzero;fill:rgb(0%,0%,100%);fill-opacity:1;" d="M 107.109375 146.371094 C 107.109375 149.039062 103.109375 149.039062 103.109375 146.371094 C 103.109375 143.707031 107.109375 143.707031 107.109375 146.371094 "/>
<path style=" stroke:none;fill-rule:nonzero;fill:rgb(0%,0%,100%);fill-opacity:1;" d="M 35.777344 146.371094 C 35.777344 149.039062 31.777344 149.039062 31.777344 146.371094 C 31.777344 143.707031 35.777344 143.707031 35.777344 146.371094 "/>
<path style=" stroke:none;fill-rule:nonzero;fill:rgb(0%,0%,100%);fill-opacity:1;" d="M 104.730469 158.496094 C 104.730469 161.164062 100.730469 161.164062 100.730469 158.496094 C 100.730469 155.832031 104.730469 155.832031 104.730469 158.496094 "/>
<path style=" stroke:none;fill-rule:nonzero;fill:rgb(0%,0%,100%);fill-opacity:1;" d="M 38.15625 158.496094 C 38.15625 161.164062 34.15625 161.164062 34.15625 158.496094 C 34.15625 155.832031 38.15625 155.832031 38.15625 158.496094 "/>
<path style=" stroke:none;fill-rule:nonzero;fill:rgb(0%,0%,100%);fill-opacity:1;" d="M 95.222656 134.25 C 95.222656 136.914062 91.222656 136.914062 91.222656 134.25 C 91.222656 131.582031 95.222656 131.582031 95.222656 134.25 "/>
<path style=" stroke:none;fill-rule:nonzero;fill:rgb(0%,0%,100%);fill-opacity:1;" d="M 47.667969 134.25 C 47.667969 136.914062 43.667969 136.914062 43.667969 134.25 C 43.667969 131.582031 47.667969 131.582031 47.667969 134.25 "/>
<path style=" stroke:none;fill-rule:nonzero;fill:rgb(0%,0%,100%);fill-opacity:1;" d="M 92.84375 122.125 C 92.84375 124.789062 88.84375 124.789062 88.84375 122.125 C 88.84375 119.457031 92.84375 119.457031 92.84375 122.125 "/>
<path style=" stroke:none;fill-rule:nonzero;fill:rgb(0%,0%,100%);fill-opacity:1;" d="M 50.042969 122.125 C 50.042969 124.789062 46.042969 124.789062 46.042969 122.125 C 46.042969 119.457031 50.042969 119.457031 50.042969 122.125 "/>
<path style=" stroke:none;fill-rule:nonzero;fill:rgb(0%,0%,100%);fill-opacity:1;" d="M 107.109375 122.125 C 107.109375 124.789062 103.109375 124.789062 103.109375 122.125 C 103.109375 119.457031 107.109375 119.457031 107.109375 122.125 "/>
<path style=" stroke:none;fill-rule:nonzero;fill:rgb(0%,0%,100%);fill-opacity:1;" d="M 35.777344 122.125 C 35.777344 124.789062 31.777344 124.789062 31.777344 122.125 C 31.777344 119.457031 35.777344 119.457031 35.777344 122.125 "/>
<path style=" stroke:none;fill-rule:nonzero;fill:rgb(0%,0%,100%);fill-opacity:1;" d="M 104.730469 134.25 C 104.730469 136.914062 100.730469 136.914062 100.730469 134.25 C 100.730469 131.582031 104.730469 131.582031 104.730469 134.25 "/>
<path style=" stroke:none;fill-rule:nonzero;fill:rgb(0%,0%,100%);fill-opacity:1;" d="M 38.15625 134.25 C 38.15625 136.914062 34.15625 136.914062 34.15625 134.25 C 34.15625 131.582031 38.15625 131.582031 38.15625 134.25 "/>
<path style=" stroke:none;fill-rule:nonzero;fill:rgb(0%,0%,100%);fill-opacity:1;" d="M 90.464844 158.496094 C 90.464844 161.164062 86.464844 161.164062 86.464844 158.496094 C 86.464844 155.832031 90.464844 155.832031 90.464844 158.496094 "/>
<path style=" stroke:none;fill-rule:nonzero;fill:rgb(0%,0%,100%);fill-opacity:1;" d="M 52.421875 158.496094 C 52.421875 161.164062 48.421875 161.164062 48.421875 158.496094 C 48.421875 155.832031 52.421875 155.832031 52.421875 158.496094 "/>
<path style=" stroke:none;fill-rule:nonzero;fill:rgb(0%,0%,100%);fill-opacity:1;" d="M 88.089844 146.371094 C 88.089844 149.039062 84.089844 149.039062 84.089844 146.371094 C 84.089844 143.707031 88.089844 143.707031 88.089844 146.371094 "/>
<path style=" stroke:none;fill-rule:nonzero;fill:rgb(0%,0%,100%);fill-opacity:1;" d="M 54.800781 146.371094 C 54.800781 149.039062 50.800781 149.039062 50.800781 146.371094 C 50.800781 143.707031 54.800781 143.707031 54.800781 146.371094 "/>
<path style=" stroke:none;fill-rule:nonzero;fill:rgb(0%,0%,100%);fill-opacity:1;" d="M 102.355469 146.371094 C 102.355469 149.039062 98.355469 149.039062 98.355469 146.371094 C 98.355469 143.707031 102.355469 143.707031 102.355469 146.371094 "/>
<path style=" stroke:none;fill-rule:nonzero;fill:rgb(0%,0%,100%);fill-opacity:1;" d="M 40.53125 146.371094 C 40.53125 149.039062 36.53125 149.039062 36.53125 146.371094 C 36.53125 143.707031 40.53125 143.707031 40.53125 146.371094 "/>
<path style=" stroke:none;fill-rule:nonzero;fill:rgb(0%,0%,100%);fill-opacity:1;" d="M 99.976562 158.496094 C 99.976562 161.164062 95.976562 161.164062 95.976562 158.496094 C 95.976562 155.832031 99.976562 155.832031 99.976562 158.496094 "/>
<path style=" stroke:none;fill-rule:nonzero;fill:rgb(0%,0%,100%);fill-opacity:1;" d="M 42.910156 158.496094 C 42.910156 161.164062 38.910156 161.164062 38.910156 158.496094 C 38.910156 155.832031 42.910156 155.832031 42.910156 158.496094 "/>
<path style=" stroke:none;fill-rule:nonzero;fill:rgb(0%,0%,100%);fill-opacity:1;" d="M 90.464844 134.25 C 90.464844 136.914062 86.464844 136.914062 86.464844 134.25 C 86.464844 131.582031 90.464844 131.582031 90.464844 134.25 "/>
<path style=" stroke:none;fill-rule:nonzero;fill:rgb(0%,0%,100%);fill-opacity:1;" d="M 52.421875 134.25 C 52.421875 136.914062 48.421875 136.914062 48.421875 134.25 C 48.421875 131.582031 52.421875 131.582031 52.421875 134.25 "/>
<path style=" stroke:none;fill-rule:nonzero;fill:rgb(0%,0%,100%);fill-opacity:1;" d="M 88.089844 122.125 C 88.089844 124.789062 84.089844 124.789062 84.089844 122.125 C 84.089844 119.457031 88.089844 119.457031 88.089844 122.125 "/>
<path style=" stroke:none;fill-rule:nonzero;fill:rgb(0%,0%,100%);fill-opacity:1;" d="M 54.800781 122.125 C 54.800781 124.789062 50.800781 124.789062 50.800781 122.125 C 50.800781 119.457031 54.800781 119.457031 54.800781 122.125 "/>
<path style=" stroke:none;fill-rule:nonzero;fill:rgb(0%,0%,100%);fill-opacity:1;" d="M 102.355469 122.125 C 102.355469 124.789062 98.355469 124.789062 98.355469 122.125 C 98.355469 119.457031 102.355469 119.457031 102.355469 122.125 "/>
<path style=" stroke:none;fill-rule:nonzero;fill:rgb(0%,0%,100%);fill-opacity:1;" d="M 40.53125 122.125 C 40.53125 124.789062 36.53125 124.789062 36.53125 122.125 C 36.53125 119.457031 40.53125 119.457031 40.53125 122.125 "/>
<path style=" stroke:none;fill-rule:nonzero;fill:rgb(0%,0%,100%);fill-opacity:1;" d="M 99.976562 134.25 C 99.976562 136.914062 95.976562 136.914062 95.976562 134.25 C 95.976562 131.582031 99.976562 131.582031 99.976562 134.25 "/>
<path style=" stroke:none;fill-rule:nonzero;fill:rgb(0%,0%,100%);fill-opacity:1;" d="M 42.910156 134.25 C 42.910156 136.914062 38.910156 136.914062 38.910156 134.25 C 38.910156 131.582031 42.910156 131.582031 42.910156 134.25 "/>
<path style=" stroke:none;fill-rule:nonzero;fill:rgb(0%,0%,100%);fill-opacity:1;" d="M 85.710938 158.496094 C 85.710938 161.164062 81.710938 161.164062 81.710938 158.496094 C 81.710938 155.832031 85.710938 155.832031 85.710938 158.496094 "/>
<path style=" stroke:none;fill-rule:nonzero;fill:rgb(0%,0%,100%);fill-opacity:1;" d="M 57.175781 158.496094 C 57.175781 161.164062 53.175781 161.164062 53.175781 158.496094 C 53.175781 155.832031 57.175781 155.832031 57.175781 158.496094 "/>
<path style=" stroke:none;fill-rule:nonzero;fill:rgb(0%,0%,100%);fill-opacity:1;" d="M 97.597656 146.371094 C 97.597656 149.039062 93.597656 149.039062 93.597656 146.371094 C 93.597656 143.707031 97.597656 143.707031 97.597656 146.371094 "/>
<path style=" stroke:none;fill-rule:nonzero;fill:rgb(0%,0%,100%);fill-opacity:1;" d="M 45.289062 146.371094 C 45.289062 149.039062 41.289062 149.039062 41.289062 146.371094 C 41.289062 143.707031 45.289062 143.707031 45.289062 146.371094 "/>
<path style=" stroke:none;fill-rule:nonzero;fill:rgb(0%,0%,100%);fill-opacity:1;" d="M 85.710938 134.25 C 85.710938 136.914062 81.710938 136.914062 81.710938 134.25 C 81.710938 131.582031 85.710938 131.582031 85.710938 134.25 "/>
<path style=" stroke:none;fill-rule:nonzero;fill:rgb(0%,0%,100%);fill-opacity:1;" d="M 57.175781 134.25 C 57.175781 136.914062 53.175781 136.914062 53.175781 134.25 C 53.175781 131.582031 57.175781 131.582031 57.175781 134.25 "/>
<path style=" stroke:none;fill-rule:nonzero;fill:rgb(0%,0%,100%);fill-opacity:1;" d="M 97.597656 122.125 C 97.597656 124.789062 93.597656 124.789062 93.597656 122.125 C 93.597656 119.457031 97.597656 119.457031 97.597656 122.125 "/>
<path style=" stroke:none;fill-rule:nonzero;fill:rgb(0%,0%,100%);fill-opacity:1;" d="M 45.289062 122.125 C 45.289062 124.789062 41.289062 124.789062 41.289062 122.125 C 41.289062 119.457031 45.289062 119.457031 45.289062 122.125 "/>
<path style=" stroke:none;fill-rule:nonzero;fill:rgb(0%,0%,100%);fill-opacity:1;" d="M 119 158.496094 C 119 161.164062 115 161.164062 115 158.496094 C 115 155.832031 119 155.832031 119 158.496094 "/>
<path style=" stroke:none;fill-rule:nonzero;fill:rgb(0%,0%,100%);fill-opacity:1;" d="M 23.890625 158.496094 C 23.890625 161.164062 19.890625 161.164062 19.890625 158.496094 C 19.890625 155.832031 23.890625 155.832031 23.890625 158.496094 "/>
<path style=" stroke:none;fill-rule:nonzero;fill:rgb(0%,0%,100%);fill-opacity:1;" d="M 116.621094 146.371094 C 116.621094 149.039062 112.621094 149.039062 112.621094 146.371094 C 112.621094 143.707031 116.621094 143.707031 116.621094 146.371094 "/>
<path style=" stroke:none;fill-rule:nonzero;fill:rgb(0%,0%,100%);fill-opacity:1;" d="M 26.265625 146.371094 C 26.265625 149.039062 22.265625 149.039062 22.265625 146.371094 C 22.265625 143.707031 26.265625 143.707031 26.265625 146.371094 "/>
<path style=" stroke:none;fill-rule:nonzero;fill:rgb(0%,0%,100%);fill-opacity:1;" d="M 12 146.371094 C 12 149.039062 8 149.039062 8 146.371094 C 8 143.707031 12 143.707031 12 146.371094 "/>
<path style=" stroke:none;fill-rule:nonzero;fill:rgb(0%,0%,100%);fill-opacity:1;" d="M 14.378906 158.496094 C 14.378906 161.164062 10.378906 161.164062 10.378906 158.496094 C 10.378906 155.832031 14.378906 155.832031 14.378906 158.496094 "/>
<path style=" stroke:none;fill-rule:nonzero;fill:rgb(0%,0%,100%);fill-opacity:1;" d="M 119 134.25 C 119 136.914062 115 136.914062 115 134.25 C 115 131.582031 119 131.582031 119 134.25 "/>
<path style=" stroke:none;fill-rule:nonzero;fill:rgb(0%,0%,100%);fill-opacity:1;" d="M 23.890625 134.25 C 23.890625 136.914062 19.890625 136.914062 19.890625 134.25 C 19.890625 131.582031 23.890625 131.582031 23.890625 134.25 "/>
<path style=" stroke:none;fill-rule:nonzero;fill:rgb(0%,0%,100%);fill-opacity:1;" d="M 116.621094 122.125 C 116.621094 124.789062 112.621094 124.789062 112.621094 122.125 C 112.621094 119.457031 116.621094 119.457031 116.621094 122.125 "/>
<path style=" stroke:none;fill-rule:nonzero;fill:rgb(0%,0%,100%);fill-opacity:1;" d="M 26.265625 122.125 C 26.265625 124.789062 22.265625 124.789062 22.265625 122.125 C 22.265625 119.457031 26.265625 119.457031 26.265625 122.125 "/>
<path style=" stroke:none;fill-rule:nonzero;fill:rgb(0%,0%,100%);fill-opacity:1;" d="M 12 122.125 C 12 124.789062 8 124.789062 8 122.125 C 8 119.457031 12 119.457031 12 122.125 "/>
<path style=" stroke:none;fill-rule:nonzero;fill:rgb(0%,0%,100%);fill-opacity:1;" d="M 14.378906 134.25 C 14.378906 136.914062 10.378906 136.914062 10.378906 134.25 C 10.378906 131.582031 14.378906 131.582031 14.378906 134.25 "/>
<path style=" stroke:none;fill-rule:nonzero;fill:rgb(0%,0%,100%);fill-opacity:1;" d="M 114.242188 158.496094 C 114.242188 161.164062 110.242188 161.164062 110.242188 158.496094 C 110.242188 155.832031 114.242188 155.832031 114.242188 158.496094 "/>
<path style=" stroke:none;fill-rule:nonzero;fill:rgb(0%,0%,100%);fill-opacity:1;" d="M 28.644531 158.496094 C 28.644531 161.164062 24.644531 161.164062 24.644531 158.496094 C 24.644531 155.832031 28.644531 155.832031 28.644531 158.496094 "/>
<path style=" stroke:none;fill-rule:nonzero;fill:rgb(0%,0%,100%);fill-opacity:1;" d="M 111.867188 146.371094 C 111.867188 149.039062 107.867188 149.039062 107.867188 146.371094 C 107.867188 143.707031 111.867188 143.707031 111.867188 146.371094 "/>
<path style=" stroke:none;fill-rule:nonzero;fill:rgb(0%,0%,100%);fill-opacity:1;" d="M 31.023438 146.371094 C 31.023438 149.039062 27.023438 149.039062 27.023438 146.371094 C 27.023438 143.707031 31.023438 143.707031 31.023438 146.371094 "/>
<path style=" stroke:none;fill-rule:nonzero;fill:rgb(0%,0%,100%);fill-opacity:1;" d="M 126.132812 146.371094 C 126.132812 149.039062 122.132812 149.039062 122.132812 146.371094 C 122.132812 143.707031 126.132812 143.707031 126.132812 146.371094 "/>
<path style=" stroke:none;fill-rule:nonzero;fill:rgb(0%,0%,100%);fill-opacity:1;" d="M 123.753906 158.496094 C 123.753906 161.164062 119.753906 161.164062 119.753906 158.496094 C 119.753906 155.832031 123.753906 155.832031 123.753906 158.496094 "/>
<path style=" stroke:none;fill-rule:nonzero;fill:rgb(0%,0%,100%);fill-opacity:1;" d="M 19.132812 158.496094 C 19.132812 161.164062 15.132812 161.164062 15.132812 158.496094 C 15.132812 155.832031 19.132812 155.832031 19.132812 158.496094 "/>
<path style=" stroke:none;fill-rule:nonzero;fill:rgb(0%,0%,100%);fill-opacity:1;" d="M 114.242188 134.25 C 114.242188 136.914062 110.242188 136.914062 110.242188 134.25 C 110.242188 131.582031 114.242188 131.582031 114.242188 134.25 "/>
<path style=" stroke:none;fill-rule:nonzero;fill:rgb(0%,0%,100%);fill-opacity:1;" d="M 28.644531 134.25 C 28.644531 136.914062 24.644531 136.914062 24.644531 134.25 C 24.644531 131.582031 28.644531 131.582031 28.644531 134.25 "/>
<path style=" stroke:none;fill-rule:nonzero;fill:rgb(0%,0%,100%);fill-opacity:1;" d="M 111.867188 122.125 C 111.867188 124.789062 107.867188 124.789062 107.867188 122.125 C 107.867188 119.457031 111.867188 119.457031 111.867188 122.125 "/>
<path style=" stroke:none;fill-rule:nonzero;fill:rgb(0%,0%,100%);fill-opacity:1;" d="M 31.023438 122.125 C 31.023438 124.789062 27.023438 124.789062 27.023438 122.125 C 27.023438 119.457031 31.023438 119.457031 31.023438 122.125 "/>
<path style=" stroke:none;fill-rule:nonzero;fill:rgb(0%,0%,100%);fill-opacity:1;" d="M 126.132812 122.125 C 126.132812 124.789062 122.132812 124.789062 122.132812 122.125 C 122.132812 119.457031 126.132812 119.457031 126.132812 122.125 "/>
<path style=" stroke:none;fill-rule:nonzero;fill:rgb(0%,0%,100%);fill-opacity:1;" d="M 123.753906 134.25 C 123.753906 136.914062 119.753906 136.914062 119.753906 134.25 C 119.753906 131.582031 123.753906 131.582031 123.753906 134.25 "/>
<path style=" stroke:none;fill-rule:nonzero;fill:rgb(0%,0%,100%);fill-opacity:1;" d="M 19.132812 134.25 C 19.132812 136.914062 15.132812 136.914062 15.132812 134.25 C 15.132812 131.582031 19.132812 131.582031 19.132812 134.25 "/>
<path style=" stroke:none;fill-rule:nonzero;fill:rgb(0%,0%,100%);fill-opacity:1;" d="M 109.488281 158.496094 C 109.488281 161.164062 105.488281 161.164062 105.488281 158.496094 C 105.488281 155.832031 109.488281 155.832031 109.488281 158.496094 "/>
<path style=" stroke:none;fill-rule:nonzero;fill:rgb(0%,0%,100%);fill-opacity:1;" d="M 33.398438 158.496094 C 33.398438 161.164062 29.398438 161.164062 29.398438 158.496094 C 29.398438 155.832031 33.398438 155.832031 33.398438 158.496094 "/>
<path style=" stroke:none;fill-rule:nonzero;fill:rgb(0%,0%,100%);fill-opacity:1;" d="M 121.375 146.371094 C 121.375 149.039062 117.375 149.039062 117.375 146.371094 C 117.375 143.707031 121.375 143.707031 121.375 146.371094 "/>
<path style=" stroke:none;fill-rule:nonzero;fill:rgb(0%,0%,100%);fill-opacity:1;" d="M 21.511719 146.371094 C 21.511719 149.039062 17.511719 149.039062 17.511719 146.371094 C 17.511719 143.707031 21.511719 143.707031 21.511719 146.371094 "/>
<path style=" stroke:none;fill-rule:nonzero;fill:rgb(0%,0%,100%);fill-opacity:1;" d="M 109.488281 134.25 C 109.488281 136.914062 105.488281 136.914062 105.488281 134.25 C 105.488281 131.582031 109.488281 131.582031 109.488281 134.25 "/>
<path style=" stroke:none;fill-rule:nonzero;fill:rgb(0%,0%,100%);fill-opacity:1;" d="M 33.398438 134.25 C 33.398438 136.914062 29.398438 136.914062 29.398438 134.25 C 29.398438 131.582031 33.398438 131.582031 33.398438 134.25 "/>
<path style=" stroke:none;fill-rule:nonzero;fill:rgb(0%,0%,100%);fill-opacity:1;" d="M 121.375 122.125 C 121.375 124.789062 117.375 124.789062 117.375 122.125 C 117.375 119.457031 121.375 119.457031 121.375 122.125 "/>
<path style=" stroke:none;fill-rule:nonzero;fill:rgb(0%,0%,100%);fill-opacity:1;" d="M 21.511719 122.125 C 21.511719 124.789062 17.511719 124.789062 17.511719 122.125 C 17.511719 119.457031 21.511719 119.457031 21.511719 122.125 "/>
<path style=" stroke:none;fill-rule:nonzero;fill:rgb(100%,0%,0%);fill-opacity:1;" d="M 200.445312 158.496094 C 200.445312 161.695312 195.644531 161.695312 195.644531 158.496094 C 195.644531 155.296875 200.445312 155.296875 200.445312 158.496094 "/>
<path style=" stroke:none;fill-rule:nonzero;fill:rgb(100%,0%,0%);fill-opacity:1;" d="M 200.445312 134.25 C 200.445312 137.449219 195.644531 137.449219 195.644531 134.25 C 195.644531 131.046875 200.445312 131.046875 200.445312 134.25 "/>
<path style=" stroke:none;fill-rule:nonzero;fill:rgb(100%,0%,0%);fill-opacity:1;" d="M 212.332031 146.371094 C 212.332031 149.574219 207.53125 149.574219 207.53125 146.371094 C 207.53125 143.171875 212.332031 143.171875 212.332031 146.371094 "/>
<path style=" stroke:none;fill-rule:nonzero;fill:rgb(100%,0%,0%);fill-opacity:1;" d="M 212.332031 122.125 C 212.332031 125.324219 207.53125 125.324219 207.53125 122.125 C 207.53125 118.925781 212.332031 118.925781 212.332031 122.125 "/>
<path style=" stroke:none;fill-rule:nonzero;fill:rgb(100%,0%,0%);fill-opacity:1;" d="M 186.175781 158.496094 C 186.175781 161.695312 181.378906 161.695312 181.378906 158.496094 C 181.378906 155.296875 186.175781 155.296875 186.175781 158.496094 "/>
<path style=" stroke:none;fill-rule:nonzero;fill:rgb(100%,0%,0%);fill-opacity:1;" d="M 186.175781 134.25 C 186.175781 137.449219 181.378906 137.449219 181.378906 134.25 C 181.378906 131.046875 186.175781 131.046875 186.175781 134.25 "/>
<path style=" stroke:none;fill-rule:nonzero;fill:rgb(100%,0%,0%);fill-opacity:1;" d="M 198.066406 146.371094 C 198.066406 149.574219 193.265625 149.574219 193.265625 146.371094 C 193.265625 143.171875 198.066406 143.171875 198.066406 146.371094 "/>
<path style=" stroke:none;fill-rule:nonzero;fill:rgb(100%,0%,0%);fill-opacity:1;" d="M 198.066406 122.125 C 198.066406 125.324219 193.265625 125.324219 193.265625 122.125 C 193.265625 118.925781 198.066406 118.925781 198.066406 122.125 "/>
<path style=" stroke:none;fill-rule:nonzero;fill:rgb(0%,0%,100%);fill-opacity:1;" d="M 162 158.496094 C 162 161.164062 158 161.164062 158 158.496094 C 158 155.832031 162 155.832031 162 158.496094 "/>
<path style=" stroke:none;fill-rule:nonzero;fill:rgb(0%,0%,100%);fill-opacity:1;" d="M 164.378906 146.371094 C 164.378906 149.039062 160.378906 149.039062 160.378906 146.371094 C 160.378906 143.707031 164.378906 143.707031 164.378906 146.371094 "/>
<path style=" stroke:none;fill-rule:nonzero;fill:rgb(0%,0%,100%);fill-opacity:1;" d="M 164.378906 146.371094 C 164.378906 149.039062 160.378906 149.039062 160.378906 146.371094 C 160.378906 143.707031 164.378906 143.707031 164.378906 146.371094 "/>
<path style=" stroke:none;fill-rule:nonzero;fill:rgb(0%,0%,100%);fill-opacity:1;" d="M 176.265625 158.496094 C 176.265625 161.164062 172.265625 161.164062 172.265625 158.496094 C 172.265625 155.832031 176.265625 155.832031 176.265625 158.496094 "/>
<path style=" stroke:none;fill-rule:nonzero;fill:rgb(0%,0%,100%);fill-opacity:1;" d="M 176.265625 158.496094 C 176.265625 161.164062 172.265625 161.164062 172.265625 158.496094 C 172.265625 155.832031 176.265625 155.832031 176.265625 158.496094 "/>
<path style=" stroke:none;fill-rule:nonzero;fill:rgb(0%,0%,100%);fill-opacity:1;" d="M 162 134.25 C 162 136.914062 158 136.914062 158 134.25 C 158 131.582031 162 131.582031 162 134.25 "/>
<path style=" stroke:none;fill-rule:nonzero;fill:rgb(0%,0%,100%);fill-opacity:1;" d="M 164.378906 122.125 C 164.378906 124.789062 160.378906 124.789062 160.378906 122.125 C 160.378906 119.457031 164.378906 119.457031 164.378906 122.125 "/>
<path style=" stroke:none;fill-rule:nonzero;fill:rgb(0%,0%,100%);fill-opacity:1;" d="M 164.378906 122.125 C 164.378906 124.789062 160.378906 124.789062 160.378906 122.125 C 160.378906 119.457031 164.378906 119.457031 164.378906 122.125 "/>
<path style=" stroke:none;fill-rule:nonzero;fill:rgb(0%,0%,100%);fill-opacity:1;" d="M 176.265625 134.25 C 176.265625 136.914062 172.265625 136.914062 172.265625 134.25 C 172.265625 131.582031 176.265625 131.582031 176.265625 134.25 "/>
<path style=" stroke:none;fill-rule:nonzero;fill:rgb(0%,0%,100%);fill-opacity:1;" d="M 176.265625 134.25 C 176.265625 136.914062 172.265625 136.914062 172.265625 134.25 C 172.265625 131.582031 176.265625 131.582031 176.265625 134.25 "/>
<path style=" stroke:none;fill-rule:nonzero;fill:rgb(0%,0%,100%);fill-opacity:1;" d="M 188.15625 146.371094 C 188.15625 149.039062 184.15625 149.039062 184.15625 146.371094 C 184.15625 143.707031 188.15625 143.707031 188.15625 146.371094 "/>
<path style=" stroke:none;fill-rule:nonzero;fill:rgb(0%,0%,100%);fill-opacity:1;" d="M 188.15625 146.371094 C 188.15625 149.039062 184.15625 149.039062 184.15625 146.371094 C 184.15625 143.707031 188.15625 143.707031 188.15625 146.371094 "/>
<path style=" stroke:none;fill-rule:nonzero;fill:rgb(0%,0%,100%);fill-opacity:1;" d="M 200.042969 158.496094 C 200.042969 161.164062 196.042969 161.164062 196.042969 158.496094 C 196.042969 155.832031 200.042969 155.832031 200.042969 158.496094 "/>
<path style=" stroke:none;fill-rule:nonzero;fill:rgb(0%,0%,100%);fill-opacity:1;" d="M 188.15625 122.125 C 188.15625 124.789062 184.15625 124.789062 184.15625 122.125 C 184.15625 119.457031 188.15625 119.457031 188.15625 122.125 "/>
<path style=" stroke:none;fill-rule:nonzero;fill:rgb(0%,0%,100%);fill-opacity:1;" d="M 188.15625 122.125 C 188.15625 124.789062 184.15625 124.789062 184.15625 122.125 C 184.15625 119.457031 188.15625 119.457031 188.15625 122.125 "/>
<path style=" stroke:none;fill-rule:nonzero;fill:rgb(0%,0%,100%);fill-opacity:1;" d="M 200.042969 134.25 C 200.042969 136.914062 196.042969 136.914062 196.042969 134.25 C 196.042969 131.582031 200.042969 131.582031 200.042969 134.25 "/>
<path style=" stroke:none;fill-rule:nonzero;fill:rgb(0%,0%,100%);fill-opacity:1;" d="M 211.933594 146.371094 C 211.933594 149.039062 207.933594 149.039062 207.933594 146.371094 C 207.933594 143.707031 211.933594 143.707031 211.933594 146.371094 "/>
<path style=" stroke:none;fill-rule:nonzero;fill:rgb(0%,0%,100%);fill-opacity:1;" d="M 211.933594 122.125 C 211.933594 124.789062 207.933594 124.789062 207.933594 122.125 C 207.933594 119.457031 211.933594 119.457031 211.933594 122.125 "/>
<path style=" stroke:none;fill-rule:nonzero;fill:rgb(0%,0%,100%);fill-opacity:1;" d="M 166.753906 158.496094 C 166.753906 161.164062 162.753906 161.164062 162.753906 158.496094 C 162.753906 155.832031 166.753906 155.832031 166.753906 158.496094 "/>
<path style=" stroke:none;fill-rule:nonzero;fill:rgb(0%,0%,100%);fill-opacity:1;" d="M 166.753906 158.496094 C 166.753906 161.164062 162.753906 161.164062 162.753906 158.496094 C 162.753906 155.832031 166.753906 155.832031 166.753906 158.496094 "/>
<path style=" stroke:none;fill-rule:nonzero;fill:rgb(0%,0%,100%);fill-opacity:1;" d="M 178.644531 146.371094 C 178.644531 149.039062 174.644531 149.039062 174.644531 146.371094 C 174.644531 143.707031 178.644531 143.707031 178.644531 146.371094 "/>
<path style=" stroke:none;fill-rule:nonzero;fill:rgb(0%,0%,100%);fill-opacity:1;" d="M 178.644531 146.371094 C 178.644531 149.039062 174.644531 149.039062 174.644531 146.371094 C 174.644531 143.707031 178.644531 143.707031 178.644531 146.371094 "/>
<path style=" stroke:none;fill-rule:nonzero;fill:rgb(0%,0%,100%);fill-opacity:1;" d="M 169.132812 146.371094 C 169.132812 149.039062 165.132812 149.039062 165.132812 146.371094 C 165.132812 143.707031 169.132812 143.707031 169.132812 146.371094 "/>
<path style=" stroke:none;fill-rule:nonzero;fill:rgb(0%,0%,100%);fill-opacity:1;" d="M 169.132812 146.371094 C 169.132812 149.039062 165.132812 149.039062 165.132812 146.371094 C 165.132812 143.707031 169.132812 143.707031 169.132812 146.371094 "/>
<path style=" stroke:none;fill-rule:nonzero;fill:rgb(0%,0%,100%);fill-opacity:1;" d="M 181.023438 158.496094 C 181.023438 161.164062 177.023438 161.164062 177.023438 158.496094 C 177.023438 155.832031 181.023438 155.832031 181.023438 158.496094 "/>
<path style=" stroke:none;fill-rule:nonzero;fill:rgb(0%,0%,100%);fill-opacity:1;" d="M 181.023438 158.496094 C 181.023438 161.164062 177.023438 161.164062 177.023438 158.496094 C 177.023438 155.832031 181.023438 155.832031 181.023438 158.496094 "/>
<path style=" stroke:none;fill-rule:nonzero;fill:rgb(0%,0%,100%);fill-opacity:1;" d="M 166.753906 134.25 C 166.753906 136.914062 162.753906 136.914062 162.753906 134.25 C 162.753906 131.582031 166.753906 131.582031 166.753906 134.25 "/>
<path style=" stroke:none;fill-rule:nonzero;fill:rgb(0%,0%,100%);fill-opacity:1;" d="M 166.753906 134.25 C 166.753906 136.914062 162.753906 136.914062 162.753906 134.25 C 162.753906 131.582031 166.753906 131.582031 166.753906 134.25 "/>
<path style=" stroke:none;fill-rule:nonzero;fill:rgb(0%,0%,100%);fill-opacity:1;" d="M 178.644531 122.125 C 178.644531 124.789062 174.644531 124.789062 174.644531 122.125 C 174.644531 119.457031 178.644531 119.457031 178.644531 122.125 "/>
<path style=" stroke:none;fill-rule:nonzero;fill:rgb(0%,0%,100%);fill-opacity:1;" d="M 178.644531 122.125 C 178.644531 124.789062 174.644531 124.789062 174.644531 122.125 C 174.644531 119.457031 178.644531 119.457031 178.644531 122.125 "/>
<path style=" stroke:none;fill-rule:nonzero;fill:rgb(0%,0%,100%);fill-opacity:1;" d="M 169.132812 122.125 C 169.132812 124.789062 165.132812 124.789062 165.132812 122.125 C 165.132812 119.457031 169.132812 119.457031 169.132812 122.125 "/>
<path style=" stroke:none;fill-rule:nonzero;fill:rgb(0%,0%,100%);fill-opacity:1;" d="M 169.132812 122.125 C 169.132812 124.789062 165.132812 124.789062 165.132812 122.125 C 165.132812 119.457031 169.132812 119.457031 169.132812 122.125 "/>
<path style=" stroke:none;fill-rule:nonzero;fill:rgb(0%,0%,100%);fill-opacity:1;" d="M 181.023438 134.25 C 181.023438 136.914062 177.023438 136.914062 177.023438 134.25 C 177.023438 131.582031 181.023438 131.582031 181.023438 134.25 "/>
<path style=" stroke:none;fill-rule:nonzero;fill:rgb(0%,0%,100%);fill-opacity:1;" d="M 181.023438 134.25 C 181.023438 136.914062 177.023438 136.914062 177.023438 134.25 C 177.023438 131.582031 181.023438 131.582031 181.023438 134.25 "/>
<path style=" stroke:none;fill-rule:nonzero;fill:rgb(0%,0%,100%);fill-opacity:1;" d="M 190.53125 158.496094 C 190.53125 161.164062 186.53125 161.164062 186.53125 158.496094 C 186.53125 155.832031 190.53125 155.832031 190.53125 158.496094 "/>
<path style=" stroke:none;fill-rule:nonzero;fill:rgb(0%,0%,100%);fill-opacity:1;" d="M 190.53125 158.496094 C 190.53125 161.164062 186.53125 161.164062 186.53125 158.496094 C 186.53125 155.832031 190.53125 155.832031 190.53125 158.496094 "/>
<path style=" stroke:none;fill-rule:nonzero;fill:rgb(0%,0%,100%);fill-opacity:1;" d="M 202.421875 146.371094 C 202.421875 149.039062 198.421875 149.039062 198.421875 146.371094 C 198.421875 143.707031 202.421875 143.707031 202.421875 146.371094 "/>
<path style=" stroke:none;fill-rule:nonzero;fill:rgb(0%,0%,100%);fill-opacity:1;" d="M 202.421875 146.371094 C 202.421875 149.039062 198.421875 149.039062 198.421875 146.371094 C 198.421875 143.707031 202.421875 143.707031 202.421875 146.371094 "/>
<path style=" stroke:none;fill-rule:nonzero;fill:rgb(0%,0%,100%);fill-opacity:1;" d="M 192.910156 146.371094 C 192.910156 149.039062 188.910156 149.039062 188.910156 146.371094 C 188.910156 143.707031 192.910156 143.707031 192.910156 146.371094 "/>
<path style=" stroke:none;fill-rule:nonzero;fill:rgb(0%,0%,100%);fill-opacity:1;" d="M 192.910156 146.371094 C 192.910156 149.039062 188.910156 149.039062 188.910156 146.371094 C 188.910156 143.707031 192.910156 143.707031 192.910156 146.371094 "/>
<path style=" stroke:none;fill-rule:nonzero;fill:rgb(0%,0%,100%);fill-opacity:1;" d="M 204.800781 158.496094 C 204.800781 161.164062 200.800781 161.164062 200.800781 158.496094 C 200.800781 155.832031 204.800781 155.832031 204.800781 158.496094 "/>
<path style=" stroke:none;fill-rule:nonzero;fill:rgb(0%,0%,100%);fill-opacity:1;" d="M 204.800781 158.496094 C 204.800781 161.164062 200.800781 161.164062 200.800781 158.496094 C 200.800781 155.832031 204.800781 155.832031 204.800781 158.496094 "/>
<path style=" stroke:none;fill-rule:nonzero;fill:rgb(0%,0%,100%);fill-opacity:1;" d="M 190.53125 134.25 C 190.53125 136.914062 186.53125 136.914062 186.53125 134.25 C 186.53125 131.582031 190.53125 131.582031 190.53125 134.25 "/>
<path style=" stroke:none;fill-rule:nonzero;fill:rgb(0%,0%,100%);fill-opacity:1;" d="M 190.53125 134.25 C 190.53125 136.914062 186.53125 136.914062 186.53125 134.25 C 186.53125 131.582031 190.53125 131.582031 190.53125 134.25 "/>
<path style=" stroke:none;fill-rule:nonzero;fill:rgb(0%,0%,100%);fill-opacity:1;" d="M 202.421875 122.125 C 202.421875 124.789062 198.421875 124.789062 198.421875 122.125 C 198.421875 119.457031 202.421875 119.457031 202.421875 122.125 "/>
<path style=" stroke:none;fill-rule:nonzero;fill:rgb(0%,0%,100%);fill-opacity:1;" d="M 202.421875 122.125 C 202.421875 124.789062 198.421875 124.789062 198.421875 122.125 C 198.421875 119.457031 202.421875 119.457031 202.421875 122.125 "/>
<path style=" stroke:none;fill-rule:nonzero;fill:rgb(0%,0%,100%);fill-opacity:1;" d="M 192.910156 122.125 C 192.910156 124.789062 188.910156 124.789062 188.910156 122.125 C 188.910156 119.457031 192.910156 119.457031 192.910156 122.125 "/>
<path style=" stroke:none;fill-rule:nonzero;fill:rgb(0%,0%,100%);fill-opacity:1;" d="M 192.910156 122.125 C 192.910156 124.789062 188.910156 124.789062 188.910156 122.125 C 188.910156 119.457031 192.910156 119.457031 192.910156 122.125 "/>
<path style=" stroke:none;fill-rule:nonzero;fill:rgb(0%,0%,100%);fill-opacity:1;" d="M 204.800781 134.25 C 204.800781 136.914062 200.800781 136.914062 200.800781 134.25 C 200.800781 131.582031 204.800781 131.582031 204.800781 134.25 "/>
<path style=" stroke:none;fill-rule:nonzero;fill:rgb(0%,0%,100%);fill-opacity:1;" d="M 204.800781 134.25 C 204.800781 136.914062 200.800781 136.914062 200.800781 134.25 C 200.800781 131.582031 204.800781 131.582031 204.800781 134.25 "/>
<path style=" stroke:none;fill-rule:nonzero;fill:rgb(0%,0%,100%);fill-opacity:1;" d="M 214.308594 158.496094 C 214.308594 161.164062 210.308594 161.164062 210.308594 158.496094 C 210.308594 155.832031 214.308594 155.832031 214.308594 158.496094 "/>
<path style=" stroke:none;fill-rule:nonzero;fill:rgb(0%,0%,100%);fill-opacity:1;" d="M 214.308594 158.496094 C 214.308594 161.164062 210.308594 161.164062 210.308594 158.496094 C 210.308594 155.832031 214.308594 155.832031 214.308594 158.496094 "/>
<path style=" stroke:none;fill-rule:nonzero;fill:rgb(0%,0%,100%);fill-opacity:1;" d="M 216.6875 146.371094 C 216.6875 149.039062 212.6875 149.039062 212.6875 146.371094 C 212.6875 143.707031 216.6875 143.707031 216.6875 146.371094 "/>
<path style=" stroke:none;fill-rule:nonzero;fill:rgb(0%,0%,100%);fill-opacity:1;" d="M 216.6875 146.371094 C 216.6875 149.039062 212.6875 149.039062 212.6875 146.371094 C 212.6875 143.707031 216.6875 143.707031 216.6875 146.371094 "/>
<path style=" stroke:none;fill-rule:nonzero;fill:rgb(0%,0%,100%);fill-opacity:1;" d="M 214.308594 134.25 C 214.308594 136.914062 210.308594 136.914062 210.308594 134.25 C 210.308594 131.582031 214.308594 131.582031 214.308594 134.25 "/>
<path style=" stroke:none;fill-rule:nonzero;fill:rgb(0%,0%,100%);fill-opacity:1;" d="M 214.308594 134.25 C 214.308594 136.914062 210.308594 136.914062 210.308594 134.25 C 210.308594 131.582031 214.308594 131.582031 214.308594 134.25 "/>
<path style=" stroke:none;fill-rule:nonzero;fill:rgb(0%,0%,100%);fill-opacity:1;" d="M 216.6875 122.125 C 216.6875 124.789062 212.6875 124.789062 212.6875 122.125 C 212.6875 119.457031 216.6875 119.457031 216.6875 122.125 "/>
<path style=" stroke:none;fill-rule:nonzero;fill:rgb(0%,0%,100%);fill-opacity:1;" d="M 216.6875 122.125 C 216.6875 124.789062 212.6875 124.789062 212.6875 122.125 C 212.6875 119.457031 216.6875 119.457031 216.6875 122.125 "/>
<path style=" stroke:none;fill-rule:nonzero;fill:rgb(0%,0%,100%);fill-opacity:1;" d="M 171.511719 158.496094 C 171.511719 161.164062 167.511719 161.164062 167.511719 158.496094 C 167.511719 155.832031 171.511719 155.832031 171.511719 158.496094 "/>
<path style=" stroke:none;fill-rule:nonzero;fill:rgb(0%,0%,100%);fill-opacity:1;" d="M 171.511719 158.496094 C 171.511719 161.164062 167.511719 161.164062 167.511719 158.496094 C 167.511719 155.832031 171.511719 155.832031 171.511719 158.496094 "/>
<path style=" stroke:none;fill-rule:nonzero;fill:rgb(0%,0%,100%);fill-opacity:1;" d="M 183.398438 146.371094 C 183.398438 149.039062 179.398438 149.039062 179.398438 146.371094 C 179.398438 143.707031 183.398438 143.707031 183.398438 146.371094 "/>
<path style=" stroke:none;fill-rule:nonzero;fill:rgb(0%,0%,100%);fill-opacity:1;" d="M 183.398438 146.371094 C 183.398438 149.039062 179.398438 149.039062 179.398438 146.371094 C 179.398438 143.707031 183.398438 143.707031 183.398438 146.371094 "/>
<path style=" stroke:none;fill-rule:nonzero;fill:rgb(0%,0%,100%);fill-opacity:1;" d="M 173.890625 146.371094 C 173.890625 149.039062 169.890625 149.039062 169.890625 146.371094 C 169.890625 143.707031 173.890625 143.707031 173.890625 146.371094 "/>
<path style=" stroke:none;fill-rule:nonzero;fill:rgb(0%,0%,100%);fill-opacity:1;" d="M 185.777344 158.496094 C 185.777344 161.164062 181.777344 161.164062 181.777344 158.496094 C 181.777344 155.832031 185.777344 155.832031 185.777344 158.496094 "/>
<path style=" stroke:none;fill-rule:nonzero;fill:rgb(0%,0%,100%);fill-opacity:1;" d="M 171.511719 134.25 C 171.511719 136.914062 167.511719 136.914062 167.511719 134.25 C 167.511719 131.582031 171.511719 131.582031 171.511719 134.25 "/>
<path style=" stroke:none;fill-rule:nonzero;fill:rgb(0%,0%,100%);fill-opacity:1;" d="M 171.511719 134.25 C 171.511719 136.914062 167.511719 136.914062 167.511719 134.25 C 167.511719 131.582031 171.511719 131.582031 171.511719 134.25 "/>
<path style=" stroke:none;fill-rule:nonzero;fill:rgb(0%,0%,100%);fill-opacity:1;" d="M 183.398438 122.125 C 183.398438 124.789062 179.398438 124.789062 179.398438 122.125 C 179.398438 119.457031 183.398438 119.457031 183.398438 122.125 "/>
<path style=" stroke:none;fill-rule:nonzero;fill:rgb(0%,0%,100%);fill-opacity:1;" d="M 183.398438 122.125 C 183.398438 124.789062 179.398438 124.789062 179.398438 122.125 C 179.398438 119.457031 183.398438 119.457031 183.398438 122.125 "/>
<path style=" stroke:none;fill-rule:nonzero;fill:rgb(0%,0%,100%);fill-opacity:1;" d="M 173.890625 122.125 C 173.890625 124.789062 169.890625 124.789062 169.890625 122.125 C 169.890625 119.457031 173.890625 119.457031 173.890625 122.125 "/>
<path style=" stroke:none;fill-rule:nonzero;fill:rgb(0%,0%,100%);fill-opacity:1;" d="M 185.777344 134.25 C 185.777344 136.914062 181.777344 136.914062 181.777344 134.25 C 181.777344 131.582031 185.777344 131.582031 185.777344 134.25 "/>
<path style=" stroke:none;fill-rule:nonzero;fill:rgb(0%,0%,100%);fill-opacity:1;" d="M 195.289062 158.496094 C 195.289062 161.164062 191.289062 161.164062 191.289062 158.496094 C 191.289062 155.832031 195.289062 155.832031 195.289062 158.496094 "/>
<path style=" stroke:none;fill-rule:nonzero;fill:rgb(0%,0%,100%);fill-opacity:1;" d="M 195.289062 158.496094 C 195.289062 161.164062 191.289062 161.164062 191.289062 158.496094 C 191.289062 155.832031 195.289062 155.832031 195.289062 158.496094 "/>
<path style=" stroke:none;fill-rule:nonzero;fill:rgb(0%,0%,100%);fill-opacity:1;" d="M 207.175781 146.371094 C 207.175781 149.039062 203.175781 149.039062 203.175781 146.371094 C 203.175781 143.707031 207.175781 143.707031 207.175781 146.371094 "/>
<path style=" stroke:none;fill-rule:nonzero;fill:rgb(0%,0%,100%);fill-opacity:1;" d="M 207.175781 146.371094 C 207.175781 149.039062 203.175781 149.039062 203.175781 146.371094 C 203.175781 143.707031 207.175781 143.707031 207.175781 146.371094 "/>
<path style=" stroke:none;fill-rule:nonzero;fill:rgb(0%,0%,100%);fill-opacity:1;" d="M 197.667969 146.371094 C 197.667969 149.039062 193.667969 149.039062 193.667969 146.371094 C 193.667969 143.707031 197.667969 143.707031 197.667969 146.371094 "/>
<path style=" stroke:none;fill-rule:nonzero;fill:rgb(0%,0%,100%);fill-opacity:1;" d="M 209.554688 158.496094 C 209.554688 161.164062 205.554688 161.164062 205.554688 158.496094 C 205.554688 155.832031 209.554688 155.832031 209.554688 158.496094 "/>
<path style=" stroke:none;fill-rule:nonzero;fill:rgb(0%,0%,100%);fill-opacity:1;" d="M 209.554688 158.496094 C 209.554688 161.164062 205.554688 161.164062 205.554688 158.496094 C 205.554688 155.832031 209.554688 155.832031 209.554688 158.496094 "/>
<path style=" stroke:none;fill-rule:nonzero;fill:rgb(0%,0%,100%);fill-opacity:1;" d="M 195.289062 134.25 C 195.289062 136.914062 191.289062 136.914062 191.289062 134.25 C 191.289062 131.582031 195.289062 131.582031 195.289062 134.25 "/>
<path style=" stroke:none;fill-rule:nonzero;fill:rgb(0%,0%,100%);fill-opacity:1;" d="M 195.289062 134.25 C 195.289062 136.914062 191.289062 136.914062 191.289062 134.25 C 191.289062 131.582031 195.289062 131.582031 195.289062 134.25 "/>
<path style=" stroke:none;fill-rule:nonzero;fill:rgb(0%,0%,100%);fill-opacity:1;" d="M 207.175781 122.125 C 207.175781 124.789062 203.175781 124.789062 203.175781 122.125 C 203.175781 119.457031 207.175781 119.457031 207.175781 122.125 "/>
<path style=" stroke:none;fill-rule:nonzero;fill:rgb(0%,0%,100%);fill-opacity:1;" d="M 207.175781 122.125 C 207.175781 124.789062 203.175781 124.789062 203.175781 122.125 C 203.175781 119.457031 207.175781 119.457031 207.175781 122.125 "/>
<path style=" stroke:none;fill-rule:nonzero;fill:rgb(0%,0%,100%);fill-opacity:1;" d="M 197.667969 122.125 C 197.667969 124.789062 193.667969 124.789062 193.667969 122.125 C 193.667969 119.457031 197.667969 119.457031 197.667969 122.125 "/>
<path style=" stroke:none;fill-rule:nonzero;fill:rgb(0%,0%,100%);fill-opacity:1;" d="M 209.554688 134.25 C 209.554688 136.914062 205.554688 136.914062 205.554688 134.25 C 205.554688 131.582031 209.554688 131.582031 209.554688 134.25 "/>
<path style=" stroke:none;fill-rule:nonzero;fill:rgb(0%,0%,100%);fill-opacity:1;" d="M 209.554688 134.25 C 209.554688 136.914062 205.554688 136.914062 205.554688 134.25 C 205.554688 131.582031 209.554688 131.582031 209.554688 134.25 "/>
<path style=" stroke:none;fill-rule:nonzero;fill:rgb(0%,0%,100%);fill-opacity:1;" d="M 219.066406 158.496094 C 219.066406 161.164062 215.066406 161.164062 215.066406 158.496094 C 215.066406 155.832031 219.066406 155.832031 219.066406 158.496094 "/>
<path style=" stroke:none;fill-rule:nonzero;fill:rgb(0%,0%,100%);fill-opacity:1;" d="M 219.066406 158.496094 C 219.066406 161.164062 215.066406 161.164062 215.066406 158.496094 C 215.066406 155.832031 219.066406 155.832031 219.066406 158.496094 "/>
<path style=" stroke:none;fill-rule:nonzero;fill:rgb(0%,0%,100%);fill-opacity:1;" d="M 221.445312 146.371094 C 221.445312 149.039062 217.445312 149.039062 217.445312 146.371094 C 217.445312 143.707031 221.445312 143.707031 221.445312 146.371094 "/>
<path style=" stroke:none;fill-rule:nonzero;fill:rgb(0%,0%,100%);fill-opacity:1;" d="M 221.445312 146.371094 C 221.445312 149.039062 217.445312 149.039062 217.445312 146.371094 C 217.445312 143.707031 221.445312 143.707031 221.445312 146.371094 "/>
<path style=" stroke:none;fill-rule:nonzero;fill:rgb(0%,0%,100%);fill-opacity:1;" d="M 219.066406 134.25 C 219.066406 136.914062 215.066406 136.914062 215.066406 134.25 C 215.066406 131.582031 219.066406 131.582031 219.066406 134.25 "/>
<path style=" stroke:none;fill-rule:nonzero;fill:rgb(0%,0%,100%);fill-opacity:1;" d="M 219.066406 134.25 C 219.066406 136.914062 215.066406 136.914062 215.066406 134.25 C 215.066406 131.582031 219.066406 131.582031 219.066406 134.25 "/>
<path style=" stroke:none;fill-rule:nonzero;fill:rgb(0%,0%,100%);fill-opacity:1;" d="M 221.445312 122.125 C 221.445312 124.789062 217.445312 124.789062 217.445312 122.125 C 217.445312 119.457031 221.445312 119.457031 221.445312 122.125 "/>
<path style=" stroke:none;fill-rule:nonzero;fill:rgb(0%,0%,100%);fill-opacity:1;" d="M 221.445312 122.125 C 221.445312 124.789062 217.445312 124.789062 217.445312 122.125 C 217.445312 119.457031 221.445312 119.457031 221.445312 122.125 "/>
</g>
</svg>
