<?xml version="1.0" encoding="UTF-8"?>
<svg xmlns="http://www.w3.org/2000/svg" xmlns:xlink="http://www.w3.org/1999/xlink" width="300pt" height="200pt" viewBox="0 0 300 200" version="1.1">
<g id="surface1">
<rect x="0" y="0" width="300" height="200" style="fill:rgb(80%,80%,80%);fill-opacity:1;stroke:none;"/>
<path style="fill:none;stroke-width:1;stroke-linecap:butt;stroke-linejoin:miter;stroke:rgb(0%,0%,0%);stroke-opacity:1;stroke-miterlimit:10;" d="M 10 10 L 10 1010 "/>
<path style="fill:none;stroke-width:1;stroke-linecap:butt;stroke-linejoin:miter;stroke:rgb(0%,0%,0%);stroke-opacity:1;stroke-miterlimit:10;" d="M 160 10 L 160 1010 "/>
<path style="fill:none;stroke-width:1;stroke-linecap:butt;stroke-linejoin:miter;stroke:rgb(0%,0%,0%);stroke-opacity:1;stroke-miterlimit:10;" d="M 10 110 L 10 1110 "/>
<path style="fill:none;stroke-width:1;stroke-linecap:butt;stroke-linejoin:miter;stroke:rgb(0%,0%,0%);stroke-opacity:1;stroke-miterlimit:10;" d="M 10 10 L 1010 10 "/>
<path style="fill:none;stroke-width:1;stroke-linecap:butt;stroke-linejoin:miter;stroke:rgb(0%,0%,0%);stroke-opacity:1;stroke-miterlimit:10;" d="M 160 10 L 1160 10 "/>
<path style="fill:none;stroke-width:1;stroke-linecap:butt;stroke-linejoin:miter;stroke:rgb(0%,0%,0%);stroke-opacity:1;stroke-miterlimit:10;" d="M 10 110 L 1010 110 "/>
<path style=" stroke:none;fill-rule:nonzero;fill:rgb(100%,0%,0%);fill-opacity:1;" d="M 63.519531 28.761719 C 63.519531 31.960938 58.71875 31.960938 58.71875 28.761719 C 58.71875 25.5625 63.519531 25.5625 63.519531 28.761719 "/>
<path style=" stroke:none;fill-rule:nonzero;fill:rgb(100%,0%,0%);fill-opacity:1;" d="M 76.300781 28.761719 C 76.300781 31.960938 71.5 31.960938 71.5 28.761719 C 71.5 25.5625 76.300781 25.5625 76.300781 28.761719 "/>
<path style=" stroke:none;fill-rule:nonzero;fill:rgb(100%,0%,0%);fill-opacity:1;" d="M 18.789062 35.152344 C 18.789062 38.351562 13.988281 38.351562 13.988281 35.152344 C 13.988281 31.953125 18.789062 31.953125 18.789062 35.152344 "/>
<path style=" stroke:none;fill-rule:nonzero;fill:rgb(100%,0%,0%);fill-opacity:1;" d="M 18.789062 35.152344 C 18.789062 38.351562 13.988281 38.351562 13.988281 35.152344 C 13.988281 31.953125 18.789062 31.953125 18.789062 35.152344 "/>
<path style=" stroke:none;fill-rule:nonzero;fill:rgb(0%,0%,100%);fill-opacity:1;" d="M 68.160156 72.800781 C 68.160156 75.46875 64.160156 75.46875 64.160156 72.800781 C 64.160156 70.136719 68.160156 70.136719 68.160156 72.800781 "/>
<path style=" stroke:none;fill-rule:nonzero;fill:rgb(0%,0%,100%);fill-opacity:1;" d="M 85.777344 66.78125 C 85.777344 69.449219 81.777344 69.449219 81.777344 66.78125 C 81.777344 64.117188 85.777344 64.117188 85.777344 66.78125 "/>
<path style=" stroke:none;fill-rule:nonzero;fill:rgb(0%,0%,100%);fill-opacity:1;" d="M 50.671875 66.453125 C 50.671875 69.121094 46.671875 69.121094 46.671875 66.453125 C 46.671875 63.789062 50.671875 63.789062 50.671875 66.453125 "/>
<path style=" stroke:none;fill-rule:nonzero;fill:rgb(0%,0%,100%);fill-opacity:1;" d="M 81.417969 47.421875 C 81.417969 50.085938 77.417969 50.085938 77.417969 47.421875 C 77.417969 44.753906 81.417969 44.753906 81.417969 47.421875 "/>
<path style=" stroke:none;fill-rule:nonzero;fill:rgb(0%,0%,100%);fill-opacity:1;" d="M 54.90625 47.246094 C 54.90625 49.914062 50.90625 49.914062 50.90625 47.246094 C 50.90625 44.582031 54.90625 44.582031 54.90625 47.246094 "/>
<path style=" stroke:none;fill-rule:nonzero;fill:rgb(0%,0%,100%);fill-opacity:1;" d="M 68.160156 72.800781 C 68.160156 75.46875 64.160156 75.46875 64.160156 72.800781 C 64.160156 70.136719 68.160156 70.136719 68.160156 72.800781 "/>
<path style=" stroke:none;fill-rule:nonzero;fill:rgb(0%,0%,100%);fill-opacity:1;" d="M 85.644531 66.667969 C 85.644531 69.332031 81.644531 69.332031 81.644531 66.667969 C 81.644531 64 85.644531 64 85.644531 66.667969 "/>
<path style=" stroke:none;fill-rule:nonzero;fill:rgb(0%,0%,100%);fill-opacity:1;" d="M 50.625 66.644531 C 50.625 69.308594 46.625 69.308594 46.625 66.644531 C 46.625 63.976562 50.625 63.976562 50.625 66.644531 "/>
<path style=" stroke:none;fill-rule:nonzero;fill:rgb(0%,0%,100%);fill-opacity:1;" d="M 81.417969 47.421875 C 81.417969 50.085938 77.417969 50.085938 77.417969 47.421875 C 77.417969 44.753906 81.417969 44.753906 81.417969 47.421875 "/>
<path style=" stroke:none;fill-rule:nonzero;fill:rgb(0%,0%,100%);fill-opacity:1;" d="M 54.90625 47.246094 C 54.90625 49.914062 50.90625 49.914062 50.90625 47.246094 C 50.90625 44.582031 54.90625 44.582031 54.90625 47.246094 "/>
<path style=" stroke:none;fill-rule:nonzero;fill:rgb(0%,0%,100%);fill-opacity:1;" d="M 67.796875 30.183594 C 67.796875 32.847656 63.796875 32.847656 63.796875 30.183594 C 63.796875 27.515625 67.796875 27.515625 67.796875 30.183594 "/>
<path style=" stroke:none;fill-rule:nonzero;fill:rgb(0%,0%,100%);fill-opacity:1;" d="M 68.554688 30.164062 C 68.554688 32.832031 64.554688 32.832031 64.554688 30.164062 C 64.554688 27.496094 68.554688 27.496094 68.554688 30.164062 "/>
<path style=" stroke:none;fill-rule:nonzero;fill:rgb(0%,0%,100%);fill-opacity:1;" d="M 106.414062 60.425781 C 106.414062 63.089844 102.414062 63.089844 102.414062 60.425781 C 102.414062 57.757812 106.414062 57.757812 106.414062 60.425781 "/>
<path style=" stroke:none;fill-rule:nonzero;fill:rgb(0%,0%,100%);fill-opacity:1;" d="M 29.957031 60.222656 C 29.957031 62.890625 25.957031 62.890625 25.957031 60.222656 C 25.957031 57.558594 29.957031 57.558594 29.957031 60.222656 "/>
<path style=" stroke:none;fill-rule:nonzero;fill:rgb(0%,0%,100%);fill-opacity:1;" d="M 99.722656 41.089844 C 99.722656 43.753906 95.722656 43.753906 95.722656 41.089844 C 95.722656 38.421875 99.722656 38.421875 99.722656 41.089844 "/>
<path style=" stroke:none;fill-rule:nonzero;fill:rgb(0%,0%,100%);fill-opacity:1;" d="M 36.945312 40.898438 C 36.945312 43.566406 32.945312 43.566406 32.945312 40.898438 C 32.945312 38.230469 36.945312 38.230469 36.945312 40.898438 "/>
<path style=" stroke:none;fill-rule:nonzero;fill:rgb(0%,0%,100%);fill-opacity:1;" d="M 12.472656 54.199219 C 12.472656 56.867188 8.472656 56.867188 8.472656 54.199219 C 8.472656 51.535156 12.472656 51.535156 12.472656 54.199219 "/>
<path style=" stroke:none;fill-rule:nonzero;fill:rgb(0%,0%,100%);fill-opacity:1;" d="M 12.535156 33.335938 C 12.535156 36.003906 8.535156 36.003906 8.535156 33.335938 C 8.535156 30.667969 12.535156 30.667969 12.535156 33.335938 "/>
<path style=" stroke:none;fill-rule:nonzero;fill:rgb(0%,0%,100%);fill-opacity:1;" d="M 106.414062 60.425781 C 106.414062 63.089844 102.414062 63.089844 102.414062 60.425781 C 102.414062 57.757812 106.414062 57.757812 106.414062 60.425781 "/>
<path style=" stroke:none;fill-rule:nonzero;fill:rgb(0%,0%,100%);fill-opacity:1;" d="M 29.957031 60.222656 C 29.957031 62.890625 25.957031 62.890625 25.957031 60.222656 C 25.957031 57.558594 29.957031 57.558594 29.957031 60.222656 "/>
<path style=" stroke:none;fill-rule:nonzero;fill:rgb(0%,0%,100%);fill-opacity:1;" d="M 99.308594 41.125 C 99.308594 43.792969 95.308594 43.792969 95.308594 41.125 C 95.308594 38.457031 99.308594 38.457031 99.308594 41.125 "/>
<path style=" stroke:none;fill-rule:nonzero;fill:rgb(0%,0%,100%);fill-opacity:1;" d="M 36.558594 40.898438 C 36.558594 43.5625 32.558594 43.5625 32.558594 40.898438 C 32.558594 38.230469 36.558594 38.230469 36.558594 40.898438 "/>
<path style=" stroke:none;fill-rule:nonzero;fill:rgb(0%,0%,100%);fill-opacity:1;" d="M 12.261719 54.175781 C 12.261719 56.839844 8.261719 56.839844 8.261719 54.175781 C 8.261719 51.507812 12.261719 51.507812 12.261719 54.175781 "/>
<path style=" stroke:none;fill-rule:nonzero;fill:rgb(0%,0%,100%);fill-opacity:1;" d="M 12.535156 33.335938 C 12.535156 36.003906 8.535156 36.003906 8.535156 33.335938 C 8.535156 30.667969 12.535156 30.667969 12.535156 33.335938 "/>
<path style=" stroke:none;fill-rule:nonzero;fill:rgb(0%,0%,100%);fill-opacity:1;" d="M 92.542969 22.546875 C 92.542969 25.210938 88.542969 25.210938 88.542969 22.546875 C 88.542969 19.878906 92.542969 19.878906 92.542969 22.546875 "/>
<path style=" stroke:none;fill-rule:nonzero;fill:rgb(0%,0%,100%);fill-opacity:1;" d="M 43.746094 22.375 C 43.746094 25.042969 39.746094 25.042969 39.746094 22.375 C 39.746094 19.710938 43.746094 19.710938 43.746094 22.375 "/>
<path style=" stroke:none;fill-rule:nonzero;fill:rgb(0%,0%,100%);fill-opacity:1;" d="M 110.777344 16.199219 C 110.777344 18.863281 106.777344 18.863281 106.777344 16.199219 C 106.777344 13.53125 110.777344 13.53125 110.777344 16.199219 "/>
<path style=" stroke:none;fill-rule:nonzero;fill:rgb(0%,0%,100%);fill-opacity:1;" d="M 25.738281 16.0625 C 25.738281 18.726562 21.738281 18.726562 21.738281 16.0625 C 21.738281 13.394531 25.738281 13.394531 25.738281 16.0625 "/>
<path style=" stroke:none;fill-rule:nonzero;fill:rgb(0%,0%,100%);fill-opacity:1;" d="M 92.542969 22.546875 C 92.542969 25.210938 88.542969 25.210938 88.542969 22.546875 C 88.542969 19.878906 92.542969 19.878906 92.542969 22.546875 "/>
<path style=" stroke:none;fill-rule:nonzero;fill:rgb(0%,0%,100%);fill-opacity:1;" d="M 43.746094 22.375 C 43.746094 25.042969 39.746094 25.042969 39.746094 22.375 C 39.746094 19.710938 43.746094 19.710938 43.746094 22.375 "/>
<path style=" stroke:none;fill-rule:nonzero;fill:rgb(0%,0%,100%);fill-opacity:1;" d="M 110.601562 16.308594 C 110.601562 18.976562 106.601562 18.976562 106.601562 16.308594 C 106.601562 13.644531 110.601562 13.644531 110.601562 16.308594 "/>
<path style=" stroke:none;fill-rule:nonzero;fill:rgb(0%,0%,100%);fill-opacity:1;" d="M 25.5625 15.960938 C 25.5625 18.628906 21.5625 18.628906 21.5625 15.960938 C 21.5625 13.296875 25.5625 13.296875 25.5625 15.960938 "/>
<path style="fill:none;stroke-width:1;stroke-linecap:butt;stroke-linejoin:miter;stroke:rgb(100%,80%,0%);stroke-opacity:1;stroke-miterlimit:10;" d="M 67.511719 73.492188 L 66.160156 72.800781 "/>
<path style="fill:none;stroke-width:1;stroke-linecap:butt;stroke-linejoin:miter;stroke:rgb(100%,80%,0%);stroke-opacity:1;stroke-miterlimit:10;" d="M 86.679688 67.101562 L 83.777344 66.78125 "/>
<path style="fill:none;stroke-width:1;stroke-linecap:butt;stroke-linejoin:miter;stroke:rgb(100%,80%,0%);stroke-opacity:1;stroke-miterlimit:10;" d="M 48.339844 67.101562 L 48.671875 66.453125 "/>
<path style="fill:none;stroke-width:1;stroke-linecap:butt;stroke-linejoin:miter;stroke:rgb(100%,80%,0%);stroke-opacity:1;stroke-miterlimit:10;" d="M 80.289062 47.933594 L 79.417969 47.421875 "/>
<path style="fill:none;stroke-width:1;stroke-linecap:butt;stroke-linejoin:miter;stroke:rgb(100%,80%,0%);stroke-opacity:1;stroke-miterlimit:10;" d="M 54.730469 47.933594 L 52.90625 47.246094 "/>
<path style="fill:none;stroke-width:1;stroke-linecap:butt;stroke-linejoin:miter;stroke:rgb(100%,80%,0%);stroke-opacity:1;stroke-miterlimit:10;" d="M 67.511719 73.492188 L 66.160156 72.800781 "/>
<path style="fill:none;stroke-width:1;stroke-linecap:butt;stroke-linejoin:miter;stroke:rgb(100%,80%,0%);stroke-opacity:1;stroke-miterlimit:10;" d="M 86.679688 67.101562 L 83.644531 66.667969 "/>
<path style="fill:none;stroke-width:1;stroke-linecap:butt;stroke-linejoin:miter;stroke:rgb(100%,80%,0%);stroke-opacity:1;stroke-miterlimit:10;" d="M 48.339844 67.101562 L 48.625 66.644531 "/>
<path style="fill:none;stroke-width:1;stroke-linecap:butt;stroke-linejoin:miter;stroke:rgb(100%,80%,0%);stroke-opacity:1;stroke-miterlimit:10;" d="M 80.289062 47.933594 L 79.417969 47.421875 "/>
<path style="fill:none;stroke-width:1;stroke-linecap:butt;stroke-linejoin:miter;stroke:rgb(100%,80%,0%);stroke-opacity:1;stroke-miterlimit:10;" d="M 54.730469 47.933594 L 52.90625 47.246094 "/>
<path style="fill:none;stroke-width:1;stroke-linecap:butt;stroke-linejoin:miter;stroke:rgb(100%,80%,0%);stroke-opacity:1;stroke-miterlimit:10;" d="M 61.121094 28.761719 L 65.796875 30.183594 "/>
<path style="fill:none;stroke-width:1;stroke-linecap:butt;stroke-linejoin:miter;stroke:rgb(100%,80%,0%);stroke-opacity:1;stroke-miterlimit:10;" d="M 73.898438 28.761719 L 66.554688 30.164062 "/>
<path style="fill:none;stroke-width:1;stroke-linecap:butt;stroke-linejoin:miter;stroke:rgb(100%,80%,0%);stroke-opacity:1;stroke-miterlimit:10;" d="M 105.851562 60.710938 L 104.414062 60.425781 "/>
<path style="fill:none;stroke-width:1;stroke-linecap:butt;stroke-linejoin:miter;stroke:rgb(100%,80%,0%);stroke-opacity:1;stroke-miterlimit:10;" d="M 29.171875 60.710938 L 27.957031 60.222656 "/>
<path style="fill:none;stroke-width:1;stroke-linecap:butt;stroke-linejoin:miter;stroke:rgb(100%,80%,0%);stroke-opacity:1;stroke-miterlimit:10;" d="M 99.460938 41.542969 L 97.722656 41.089844 "/>
<path style="fill:none;stroke-width:1;stroke-linecap:butt;stroke-linejoin:miter;stroke:rgb(100%,80%,0%);stroke-opacity:1;stroke-miterlimit:10;" d="M 35.558594 41.542969 L 34.945312 40.898438 "/>
<path style="fill:none;stroke-width:1;stroke-linecap:butt;stroke-linejoin:miter;stroke:rgb(100%,80%,0%);stroke-opacity:1;stroke-miterlimit:10;" d="M 10 54.320312 L 10.472656 54.199219 "/>
<path style="fill:none;stroke-width:1;stroke-linecap:butt;stroke-linejoin:miter;stroke:rgb(100%,80%,0%);stroke-opacity:1;stroke-miterlimit:10;" d="M 16.390625 35.152344 L 10.535156 33.335938 "/>
<path style="fill:none;stroke-width:1;stroke-linecap:butt;stroke-linejoin:miter;stroke:rgb(100%,80%,0%);stroke-opacity:1;stroke-miterlimit:10;" d="M 105.851562 60.710938 L 104.414062 60.425781 "/>
<path style="fill:none;stroke-width:1;stroke-linecap:butt;stroke-linejoin:miter;stroke:rgb(100%,80%,0%);stroke-opacity:1;stroke-miterlimit:10;" d="M 29.171875 60.710938 L 27.957031 60.222656 "/>
<path style="fill:none;stroke-width:1;stroke-linecap:butt;stroke-linejoin:miter;stroke:rgb(100%,80%,0%);stroke-opacity:1;stroke-miterlimit:10;" d="M 99.460938 41.542969 L 97.308594 41.125 "/>
<path style="fill:none;stroke-width:1;stroke-linecap:butt;stroke-linejoin:miter;stroke:rgb(100%,80%,0%);stroke-opacity:1;stroke-miterlimit:10;" d="M 35.558594 41.542969 L 34.558594 40.898438 "/>
<path style="fill:none;stroke-width:1;stroke-linecap:butt;stroke-linejoin:miter;stroke:rgb(100%,80%,0%);stroke-opacity:1;stroke-miterlimit:10;" d="M 10 54.320312 L 10.261719 54.175781 "/>
<path style="fill:none;stroke-width:1;stroke-linecap:butt;stroke-linejoin:miter;stroke:rgb(100%,80%,0%);stroke-opacity:1;stroke-miterlimit:10;" d="M 16.390625 35.152344 L 10.535156 33.335938 "/>
<path style="fill:none;stroke-width:1;stroke-linecap:butt;stroke-linejoin:miter;stroke:rgb(100%,80%,0%);stroke-opacity:1;stroke-miterlimit:10;" d="M 93.070312 22.371094 L 90.542969 22.546875 "/>
<path style="fill:none;stroke-width:1;stroke-linecap:butt;stroke-linejoin:miter;stroke:rgb(100%,80%,0%);stroke-opacity:1;stroke-miterlimit:10;" d="M 41.949219 22.371094 L 41.746094 22.375 "/>
<path style="fill:none;stroke-width:1;stroke-linecap:butt;stroke-linejoin:miter;stroke:rgb(100%,80%,0%);stroke-opacity:1;stroke-miterlimit:10;" d="M 112.242188 15.980469 L 108.777344 16.199219 "/>
<path style="fill:none;stroke-width:1;stroke-linecap:butt;stroke-linejoin:miter;stroke:rgb(100%,80%,0%);stroke-opacity:1;stroke-miterlimit:10;" d="M 22.78125 15.980469 L 23.738281 16.0625 "/>
<path style="fill:none;stroke-width:1;stroke-linecap:butt;stroke-linejoin:miter;stroke:rgb(100%,80%,0%);stroke-opacity:1;stroke-miterlimit:10;" d="M 93.070312 22.371094 L 90.542969 22.546875 "/>
<path style="fill:none;stroke-width:1;stroke-linecap:butt;stroke-linejoin:miter;stroke:rgb(100%,80%,0%);stroke-opacity:1;stroke-miterlimit:10;" d="M 41.949219 22.371094 L 41.746094 22.375 "/>
<path style="fill:none;stroke-width:1;stroke-linecap:butt;stroke-linejoin:miter;stroke:rgb(100%,80%,0%);stroke-opacity:1;stroke-miterlimit:10;" d="M 112.242188 15.980469 L 108.601562 16.308594 "/>
<path style="fill:none;stroke-width:1;stroke-linecap:butt;stroke-linejoin:miter;stroke:rgb(100%,80%,0%);stroke-opacity:1;stroke-miterlimit:10;" d="M 22.78125 15.980469 L 23.5625 15.960938 "/>
<path style=" stroke:none;fill-rule:nonzero;fill:rgb(100%,0%,0%);fill-opacity:1;" d="M 63.519531 170.621094 C 63.519531 173.820312 58.71875 173.820312 58.71875 170.621094 C 58.71875 167.421875 63.519531 167.421875 63.519531 170.621094 "/>
<path style=" stroke:none;fill-rule:nonzero;fill:rgb(100%,0%,0%);fill-opacity:1;" d="M 76.300781 130.207031 C 76.300781 133.40625 71.5 133.40625 71.5 130.207031 C 71.5 127.007812 76.300781 127.007812 76.300781 130.207031 "/>
<path style=" stroke:none;fill-rule:nonzero;fill:rgb(100%,0%,0%);fill-opacity:1;" d="M 18.789062 190.828125 C 18.789062 194.027344 13.988281 194.027344 13.988281 190.828125 C 13.988281 187.628906 18.789062 187.628906 18.789062 190.828125 "/>
<path style=" stroke:none;fill-rule:nonzero;fill:rgb(100%,0%,0%);fill-opacity:1;" d="M 18.789062 150.414062 C 18.789062 153.613281 13.988281 153.613281 13.988281 150.414062 C 13.988281 147.214844 18.789062 147.214844 18.789062 150.414062 "/>
<path style=" stroke:none;fill-rule:nonzero;fill:rgb(0%,0%,100%);fill-opacity:1;" d="M 68.160156 190.796875 C 68.160156 193.464844 64.160156 193.464844 64.160156 190.796875 C 64.160156 188.128906 68.160156 188.128906 68.160156 190.796875 "/>
<path style=" stroke:none;fill-rule:nonzero;fill:rgb(0%,0%,100%);fill-opacity:1;" d="M 85.777344 170.621094 C 85.777344 173.289062 81.777344 173.289062 81.777344 170.621094 C 81.777344 167.953125 85.777344 167.953125 85.777344 170.621094 "/>
<path style=" stroke:none;fill-rule:nonzero;fill:rgb(0%,0%,100%);fill-opacity:1;" d="M 50.671875 170.621094 C 50.671875 173.289062 46.671875 173.289062 46.671875 170.621094 C 46.671875 167.953125 50.671875 167.953125 50.671875 170.621094 "/>
<path style=" stroke:none;fill-rule:nonzero;fill:rgb(0%,0%,100%);fill-opacity:1;" d="M 81.417969 190.617188 C 81.417969 193.285156 77.417969 193.285156 77.417969 190.617188 C 77.417969 187.953125 81.417969 187.953125 81.417969 190.617188 "/>
<path style=" stroke:none;fill-rule:nonzero;fill:rgb(0%,0%,100%);fill-opacity:1;" d="M 54.90625 191.035156 C 54.90625 193.699219 50.90625 193.699219 50.90625 191.035156 C 50.90625 188.367188 54.90625 188.367188 54.90625 191.035156 "/>
<path style=" stroke:none;fill-rule:nonzero;fill:rgb(0%,0%,100%);fill-opacity:1;" d="M 68.160156 150.445312 C 68.160156 153.113281 64.160156 153.113281 64.160156 150.445312 C 64.160156 147.777344 68.160156 147.777344 68.160156 150.445312 "/>
<path style=" stroke:none;fill-rule:nonzero;fill:rgb(0%,0%,100%);fill-opacity:1;" d="M 85.644531 130.207031 C 85.644531 132.875 81.644531 132.875 81.644531 130.207031 C 81.644531 127.539062 85.644531 127.539062 85.644531 130.207031 "/>
<path style=" stroke:none;fill-rule:nonzero;fill:rgb(0%,0%,100%);fill-opacity:1;" d="M 50.625 130.207031 C 50.625 132.875 46.625 132.875 46.625 130.207031 C 46.625 127.539062 50.625 127.539062 50.625 130.207031 "/>
<path style=" stroke:none;fill-rule:nonzero;fill:rgb(0%,0%,100%);fill-opacity:1;" d="M 81.417969 150.625 C 81.417969 153.289062 77.417969 153.289062 77.417969 150.625 C 77.417969 147.957031 81.417969 147.957031 81.417969 150.625 "/>
<path style=" stroke:none;fill-rule:nonzero;fill:rgb(0%,0%,100%);fill-opacity:1;" d="M 54.90625 150.207031 C 54.90625 152.875 50.90625 152.875 50.90625 150.207031 C 50.90625 147.542969 54.90625 147.542969 54.90625 150.207031 "/>
<path style=" stroke:none;fill-rule:nonzero;fill:rgb(0%,0%,100%);fill-opacity:1;" d="M 67.796875 170.621094 C 67.796875 173.289062 63.796875 173.289062 63.796875 170.621094 C 63.796875 167.953125 67.796875 167.953125 67.796875 170.621094 "/>
<path style=" stroke:none;fill-rule:nonzero;fill:rgb(0%,0%,100%);fill-opacity:1;" d="M 68.554688 130.207031 C 68.554688 132.875 64.554688 132.875 64.554688 130.207031 C 64.554688 127.539062 68.554688 127.539062 68.554688 130.207031 "/>
<path style=" stroke:none;fill-rule:nonzero;fill:rgb(0%,0%,100%);fill-opacity:1;" d="M 106.414062 190.828125 C 106.414062 193.492188 102.414062 193.492188 102.414062 190.828125 C 102.414062 188.160156 106.414062 188.160156 106.414062 190.828125 "/>
<path style=" stroke:none;fill-rule:nonzero;fill:rgb(0%,0%,100%);fill-opacity:1;" d="M 29.957031 190.832031 C 29.957031 193.5 25.957031 193.5 25.957031 190.832031 C 25.957031 188.167969 29.957031 188.167969 29.957031 190.832031 "/>
<path style=" stroke:none;fill-rule:nonzero;fill:rgb(0%,0%,100%);fill-opacity:1;" d="M 99.722656 170.621094 C 99.722656 173.289062 95.722656 173.289062 95.722656 170.621094 C 95.722656 167.953125 99.722656 167.953125 99.722656 170.621094 "/>
<path style=" stroke:none;fill-rule:nonzero;fill:rgb(0%,0%,100%);fill-opacity:1;" d="M 36.945312 170.621094 C 36.945312 173.289062 32.945312 173.289062 32.945312 170.621094 C 32.945312 167.953125 36.945312 167.953125 36.945312 170.621094 "/>
<path style=" stroke:none;fill-rule:nonzero;fill:rgb(0%,0%,100%);fill-opacity:1;" d="M 12.472656 170.621094 C 12.472656 173.289062 8.472656 173.289062 8.472656 170.621094 C 8.472656 167.953125 12.472656 167.953125 12.472656 170.621094 "/>
<path style=" stroke:none;fill-rule:nonzero;fill:rgb(0%,0%,100%);fill-opacity:1;" d="M 12.535156 190.816406 C 12.535156 193.484375 8.535156 193.484375 8.535156 190.816406 C 8.535156 188.148438 12.535156 188.148438 12.535156 190.816406 "/>
<path style=" stroke:none;fill-rule:nonzero;fill:rgb(0%,0%,100%);fill-opacity:1;" d="M 106.414062 150.414062 C 106.414062 153.082031 102.414062 153.082031 102.414062 150.414062 C 102.414062 147.75 106.414062 147.75 106.414062 150.414062 "/>
<path style=" stroke:none;fill-rule:nonzero;fill:rgb(0%,0%,100%);fill-opacity:1;" d="M 29.957031 150.410156 C 29.957031 153.074219 25.957031 153.074219 25.957031 150.410156 C 25.957031 147.742188 29.957031 147.742188 29.957031 150.410156 "/>
<path style=" stroke:none;fill-rule:nonzero;fill:rgb(0%,0%,100%);fill-opacity:1;" d="M 99.308594 130.207031 C 99.308594 132.875 95.308594 132.875 95.308594 130.207031 C 95.308594 127.539062 99.308594 127.539062 99.308594 130.207031 "/>
<path style=" stroke:none;fill-rule:nonzero;fill:rgb(0%,0%,100%);fill-opacity:1;" d="M 36.558594 130.207031 C 36.558594 132.875 32.558594 132.875 32.558594 130.207031 C 32.558594 127.539062 36.558594 127.539062 36.558594 130.207031 "/>
<path style=" stroke:none;fill-rule:nonzero;fill:rgb(0%,0%,100%);fill-opacity:1;" d="M 12.261719 130.207031 C 12.261719 132.875 8.261719 132.875 8.261719 130.207031 C 8.261719 127.539062 12.261719 127.539062 12.261719 130.207031 "/>
<path style=" stroke:none;fill-rule:nonzero;fill:rgb(0%,0%,100%);fill-opacity:1;" d="M 12.535156 150.425781 C 12.535156 153.09375 8.535156 153.09375 8.535156 150.425781 C 8.535156 147.757812 12.535156 147.757812 12.535156 150.425781 "/>
<path style=" stroke:none;fill-rule:nonzero;fill:rgb(0%,0%,100%);fill-opacity:1;" d="M 92.542969 190.785156 C 92.542969 193.449219 88.542969 193.449219 88.542969 190.785156 C 88.542969 188.117188 92.542969 188.117188 92.542969 190.785156 "/>
<path style=" stroke:none;fill-rule:nonzero;fill:rgb(0%,0%,100%);fill-opacity:1;" d="M 43.746094 190.871094 C 43.746094 193.539062 39.746094 193.539062 39.746094 190.871094 C 39.746094 188.207031 43.746094 188.207031 43.746094 190.871094 "/>
<path style=" stroke:none;fill-rule:nonzero;fill:rgb(0%,0%,100%);fill-opacity:1;" d="M 110.777344 170.621094 C 110.777344 173.289062 106.777344 173.289062 106.777344 170.621094 C 106.777344 167.953125 110.777344 167.953125 110.777344 170.621094 "/>
<path style=" stroke:none;fill-rule:nonzero;fill:rgb(0%,0%,100%);fill-opacity:1;" d="M 25.738281 170.621094 C 25.738281 173.289062 21.738281 173.289062 21.738281 170.621094 C 21.738281 167.953125 25.738281 167.953125 25.738281 170.621094 "/>
<path style=" stroke:none;fill-rule:nonzero;fill:rgb(0%,0%,100%);fill-opacity:1;" d="M 92.542969 150.457031 C 92.542969 153.125 88.542969 153.125 88.542969 150.457031 C 88.542969 147.792969 92.542969 147.792969 92.542969 150.457031 "/>
<path style=" stroke:none;fill-rule:nonzero;fill:rgb(0%,0%,100%);fill-opacity:1;" d="M 43.746094 150.371094 C 43.746094 153.035156 39.746094 153.035156 39.746094 150.371094 C 39.746094 147.703125 43.746094 147.703125 43.746094 150.371094 "/>
<path style=" stroke:none;fill-rule:nonzero;fill:rgb(0%,0%,100%);fill-opacity:1;" d="M 110.601562 130.207031 C 110.601562 132.875 106.601562 132.875 106.601562 130.207031 C 106.601562 127.539062 110.601562 127.539062 110.601562 130.207031 "/>
<path style=" stroke:none;fill-rule:nonzero;fill:rgb(0%,0%,100%);fill-opacity:1;" d="M 25.5625 130.207031 C 25.5625 132.875 21.5625 132.875 21.5625 130.207031 C 21.5625 127.539062 25.5625 127.539062 25.5625 130.207031 "/>
<path style="fill:none;stroke-width:1;stroke-linecap:butt;stroke-linejoin:miter;stroke:rgb(100%,80%,0%);stroke-opacity:1;stroke-miterlimit:10;" d="M 67.511719 190.828125 L 66.160156 190.796875 "/>
<path style="fill:none;stroke-width:1;stroke-linecap:butt;stroke-linejoin:miter;stroke:rgb(100%,80%,0%);stroke-opacity:1;stroke-miterlimit:10;" d="M 86.679688 170.621094 L 83.777344 170.621094 "/>
<path style="fill:none;stroke-width:1;stroke-linecap:butt;stroke-linejoin:miter;stroke:rgb(100%,80%,0%);stroke-opacity:1;stroke-miterlimit:10;" d="M 48.339844 170.621094 L 48.671875 170.621094 "/>
<path style="fill:none;stroke-width:1;stroke-linecap:butt;stroke-linejoin:miter;stroke:rgb(100%,80%,0%);stroke-opacity:1;stroke-miterlimit:10;" d="M 80.289062 190.828125 L 79.417969 190.617188 "/>
<path style="fill:none;stroke-width:1;stroke-linecap:butt;stroke-linejoin:miter;stroke:rgb(100%,80%,0%);stroke-opacity:1;stroke-miterlimit:10;" d="M 54.730469 190.828125 L 52.90625 191.035156 "/>
<path style="fill:none;stroke-width:1;stroke-linecap:butt;stroke-linejoin:miter;stroke:rgb(100%,80%,0%);stroke-opacity:1;stroke-miterlimit:10;" d="M 67.511719 150.414062 L 66.160156 150.445312 "/>
<path style="fill:none;stroke-width:1;stroke-linecap:butt;stroke-linejoin:miter;stroke:rgb(100%,80%,0%);stroke-opacity:1;stroke-miterlimit:10;" d="M 86.679688 130.207031 L 83.644531 130.207031 "/>
<path style="fill:none;stroke-width:1;stroke-linecap:butt;stroke-linejoin:miter;stroke:rgb(100%,80%,0%);stroke-opacity:1;stroke-miterlimit:10;" d="M 48.339844 130.207031 L 48.625 130.207031 "/>
<path style="fill:none;stroke-width:1;stroke-linecap:butt;stroke-linejoin:miter;stroke:rgb(100%,80%,0%);stroke-opacity:1;stroke-miterlimit:10;" d="M 80.289062 150.414062 L 79.417969 150.625 "/>
<path style="fill:none;stroke-width:1;stroke-linecap:butt;stroke-linejoin:miter;stroke:rgb(100%,80%,0%);stroke-opacity:1;stroke-miterlimit:10;" d="M 54.730469 150.414062 L 52.90625 150.207031 "/>
<path style="fill:none;stroke-width:1;stroke-linecap:butt;stroke-linejoin:miter;stroke:rgb(100%,80%,0%);stroke-opacity:1;stroke-miterlimit:10;" d="M 61.121094 170.621094 L 65.796875 170.621094 "/>
<path style="fill:none;stroke-width:1;stroke-linecap:butt;stroke-linejoin:miter;stroke:rgb(100%,80%,0%);stroke-opacity:1;stroke-miterlimit:10;" d="M 73.898438 130.207031 L 66.554688 130.207031 "/>
<path style="fill:none;stroke-width:1;stroke-linecap:butt;stroke-linejoin:miter;stroke:rgb(100%,80%,0%);stroke-opacity:1;stroke-miterlimit:10;" d="M 105.851562 190.828125 L 104.414062 190.828125 "/>
<path style="fill:none;stroke-width:1;stroke-linecap:butt;stroke-linejoin:miter;stroke:rgb(100%,80%,0%);stroke-opacity:1;stroke-miterlimit:10;" d="M 29.171875 190.828125 L 27.957031 190.832031 "/>
<path style="fill:none;stroke-width:1;stroke-linecap:butt;stroke-linejoin:miter;stroke:rgb(100%,80%,0%);stroke-opacity:1;stroke-miterlimit:10;" d="M 99.460938 170.621094 L 97.722656 170.621094 "/>
<path style="fill:none;stroke-width:1;stroke-linecap:butt;stroke-linejoin:miter;stroke:rgb(100%,80%,0%);stroke-opacity:1;stroke-miterlimit:10;" d="M 35.558594 170.621094 L 34.945312 170.621094 "/>
<path style="fill:none;stroke-width:1;stroke-linecap:butt;stroke-linejoin:miter;stroke:rgb(100%,80%,0%);stroke-opacity:1;stroke-miterlimit:10;" d="M 10 170.621094 L 10.472656 170.621094 "/>
<path style="fill:none;stroke-width:1;stroke-linecap:butt;stroke-linejoin:miter;stroke:rgb(100%,80%,0%);stroke-opacity:1;stroke-miterlimit:10;" d="M 16.390625 190.828125 L 10.535156 190.816406 "/>
<path style="fill:none;stroke-width:1;stroke-linecap:butt;stroke-linejoin:miter;stroke:rgb(100%,80%,0%);stroke-opacity:1;stroke-miterlimit:10;" d="M 105.851562 150.414062 L 104.414062 150.414062 "/>
<path style="fill:none;stroke-width:1;stroke-linecap:butt;stroke-linejoin:miter;stroke:rgb(100%,80%,0%);stroke-opacity:1;stroke-miterlimit:10;" d="M 29.171875 150.414062 L 27.957031 150.410156 "/>
<path style="fill:none;stroke-width:1;stroke-linecap:butt;stroke-linejoin:miter;stroke:rgb(100%,80%,0%);stroke-opacity:1;stroke-miterlimit:10;" d="M 99.460938 130.207031 L 97.308594 130.207031 "/>
<path style="fill:none;stroke-width:1;stroke-linecap:butt;stroke-linejoin:miter;stroke:rgb(100%,80%,0%);stroke-opacity:1;stroke-miterlimit:10;" d="M 35.558594 130.207031 L 34.558594 130.207031 "/>
<path style="fill:none;stroke-width:1;stroke-linecap:butt;stroke-linejoin:miter;stroke:rgb(100%,80%,0%);stroke-opacity:1;stroke-miterlimit:10;" d="M 10 130.207031 L 10.261719 130.207031 "/>
<path style="fill:none;stroke-width:1;stroke-linecap:butt;stroke-linejoin:miter;stroke:rgb(100%,80%,0%);stroke-opacity:1;stroke-miterlimit:10;" d="M 16.390625 150.414062 L 10.535156 150.425781 "/>
<path style="fill:none;stroke-width:1;stroke-linecap:butt;stroke-linejoin:miter;stroke:rgb(100%,80%,0%);stroke-opacity:1;stroke-miterlimit:10;" d="M 93.070312 190.828125 L 90.542969 190.785156 "/>
<path style="fill:none;stroke-width:1;stroke-linecap:butt;stroke-linejoin:miter;stroke:rgb(100%,80%,0%);stroke-opacity:1;stroke-miterlimit:10;" d="M 41.949219 190.828125 L 41.746094 190.871094 "/>
<path style="fill:none;stroke-width:1;stroke-linecap:butt;stroke-linejoin:miter;stroke:rgb(100%,80%,0%);stroke-opacity:1;stroke-miterlimit:10;" d="M 112.242188 170.621094 L 108.777344 170.621094 "/>
<path style="fill:none;stroke-width:1;stroke-linecap:butt;stroke-linejoin:miter;stroke:rgb(100%,80%,0%);stroke-opacity:1;stroke-miterlimit:10;" d="M 22.78125 170.621094 L 23.738281 170.621094 "/>
<path style="fill:none;stroke-width:1;stroke-linecap:butt;stroke-linejoin:miter;stroke:rgb(100%,80%,0%);stroke-opacity:1;stroke-miterlimit:10;" d="M 93.070312 150.414062 L 90.542969 150.457031 "/>
<path style="fill:none;stroke-width:1;stroke-linecap:butt;stroke-linejoin:miter;stroke:rgb(100%,80%,0%);stroke-opacity:1;stroke-miterlimit:10;" d="M 41.949219 150.414062 L 41.746094 150.371094 "/>
<path style="fill:none;stroke-width:1;stroke-linecap:butt;stroke-linejoin:miter;stroke:rgb(100%,80%,0%);stroke-opacity:1;stroke-miterlimit:10;" d="M 112.242188 130.207031 L 108.601562 130.207031 "/>
<path style="fill:none;stroke-width:1;stroke-linecap:butt;stroke-linejoin:miter;stroke:rgb(100%,80%,0%);stroke-opacity:1;stroke-miterlimit:10;" d="M 22.78125 130.207031 L 23.5625 130.207031 "/>
<path style=" stroke:none;fill-rule:nonzero;fill:rgb(100%,0%,0%);fill-opacity:1;" d="M 207.128906 170.621094 C 207.128906 173.820312 202.332031 173.820312 202.332031 170.621094 C 202.332031 167.421875 207.128906 167.421875 207.128906 170.621094 "/>
<path style=" stroke:none;fill-rule:nonzero;fill:rgb(100%,0%,0%);fill-opacity:1;" d="M 207.128906 130.207031 C 207.128906 133.40625 202.332031 133.40625 202.332031 130.207031 C 202.332031 127.007812 207.128906 127.007812 207.128906 130.207031 "/>
<path style=" stroke:none;fill-rule:nonzero;fill:rgb(100%,0%,0%);fill-opacity:1;" d="M 200.738281 190.828125 C 200.738281 194.027344 195.941406 194.027344 195.941406 190.828125 C 195.941406 187.628906 200.738281 187.628906 200.738281 190.828125 "/>
<path style=" stroke:none;fill-rule:nonzero;fill:rgb(100%,0%,0%);fill-opacity:1;" d="M 200.738281 150.414062 C 200.738281 153.613281 195.941406 153.613281 195.941406 150.414062 C 195.941406 147.214844 200.738281 147.214844 200.738281 150.414062 "/>
<path style=" stroke:none;fill-rule:nonzero;fill:rgb(0%,0%,100%);fill-opacity:1;" d="M 162.6875 190.796875 C 162.6875 193.464844 158.6875 193.464844 158.6875 190.796875 C 158.6875 188.128906 162.6875 188.128906 162.6875 190.796875 "/>
<path style=" stroke:none;fill-rule:nonzero;fill:rgb(0%,0%,100%);fill-opacity:1;" d="M 168.710938 170.621094 C 168.710938 173.289062 164.710938 173.289062 164.710938 170.621094 C 164.710938 167.953125 168.710938 167.953125 168.710938 170.621094 "/>
<path style=" stroke:none;fill-rule:nonzero;fill:rgb(0%,0%,100%);fill-opacity:1;" d="M 169.039062 170.621094 C 169.039062 173.289062 165.039062 173.289062 165.039062 170.621094 C 165.039062 167.953125 169.039062 167.953125 169.039062 170.621094 "/>
<path style=" stroke:none;fill-rule:nonzero;fill:rgb(0%,0%,100%);fill-opacity:1;" d="M 188.070312 190.617188 C 188.070312 193.285156 184.070312 193.285156 184.070312 190.617188 C 184.070312 187.953125 188.070312 187.953125 188.070312 190.617188 "/>
<path style=" stroke:none;fill-rule:nonzero;fill:rgb(0%,0%,100%);fill-opacity:1;" d="M 188.242188 191.035156 C 188.242188 193.699219 184.242188 193.699219 184.242188 191.035156 C 184.242188 188.367188 188.242188 188.367188 188.242188 191.035156 "/>
<path style=" stroke:none;fill-rule:nonzero;fill:rgb(0%,0%,100%);fill-opacity:1;" d="M 162.6875 150.445312 C 162.6875 153.113281 158.6875 153.113281 158.6875 150.445312 C 158.6875 147.777344 162.6875 147.777344 162.6875 150.445312 "/>
<path style=" stroke:none;fill-rule:nonzero;fill:rgb(0%,0%,100%);fill-opacity:1;" d="M 168.824219 130.207031 C 168.824219 132.875 164.824219 132.875 164.824219 130.207031 C 164.824219 127.539062 168.824219 127.539062 168.824219 130.207031 "/>
<path style=" stroke:none;fill-rule:nonzero;fill:rgb(0%,0%,100%);fill-opacity:1;" d="M 168.847656 130.207031 C 168.847656 132.875 164.847656 132.875 164.847656 130.207031 C 164.847656 127.539062 168.847656 127.539062 168.847656 130.207031 "/>
<path style=" stroke:none;fill-rule:nonzero;fill:rgb(0%,0%,100%);fill-opacity:1;" d="M 188.070312 150.625 C 188.070312 153.289062 184.070312 153.289062 184.070312 150.625 C 184.070312 147.957031 188.070312 147.957031 188.070312 150.625 "/>
<path style=" stroke:none;fill-rule:nonzero;fill:rgb(0%,0%,100%);fill-opacity:1;" d="M 188.242188 150.207031 C 188.242188 152.875 184.242188 152.875 184.242188 150.207031 C 184.242188 147.542969 188.242188 147.542969 188.242188 150.207031 "/>
<path style=" stroke:none;fill-rule:nonzero;fill:rgb(0%,0%,100%);fill-opacity:1;" d="M 205.308594 170.621094 C 205.308594 173.289062 201.308594 173.289062 201.308594 170.621094 C 201.308594 167.953125 205.308594 167.953125 205.308594 170.621094 "/>
<path style=" stroke:none;fill-rule:nonzero;fill:rgb(0%,0%,100%);fill-opacity:1;" d="M 205.328125 130.207031 C 205.328125 132.875 201.328125 132.875 201.328125 130.207031 C 201.328125 127.539062 205.328125 127.539062 205.328125 130.207031 "/>
<path style=" stroke:none;fill-rule:nonzero;fill:rgb(0%,0%,100%);fill-opacity:1;" d="M 175.066406 190.828125 C 175.066406 193.492188 171.066406 193.492188 171.066406 190.828125 C 171.066406 188.160156 175.066406 188.160156 175.066406 190.828125 "/>
<path style=" stroke:none;fill-rule:nonzero;fill:rgb(0%,0%,100%);fill-opacity:1;" d="M 175.269531 190.832031 C 175.269531 193.5 171.269531 193.5 171.269531 190.832031 C 171.269531 188.167969 175.269531 188.167969 175.269531 190.832031 "/>
<path style=" stroke:none;fill-rule:nonzero;fill:rgb(0%,0%,100%);fill-opacity:1;" d="M 194.402344 170.621094 C 194.402344 173.289062 190.402344 173.289062 190.402344 170.621094 C 190.402344 167.953125 194.402344 167.953125 194.402344 170.621094 "/>
<path style=" stroke:none;fill-rule:nonzero;fill:rgb(0%,0%,100%);fill-opacity:1;" d="M 194.59375 170.621094 C 194.59375 173.289062 190.59375 173.289062 190.59375 170.621094 C 190.59375 167.953125 194.59375 167.953125 194.59375 170.621094 "/>
<path style=" stroke:none;fill-rule:nonzero;fill:rgb(0%,0%,100%);fill-opacity:1;" d="M 181.292969 170.621094 C 181.292969 173.289062 177.292969 173.289062 177.292969 170.621094 C 177.292969 167.953125 181.292969 167.953125 181.292969 170.621094 "/>
<path style=" stroke:none;fill-rule:nonzero;fill:rgb(0%,0%,100%);fill-opacity:1;" d="M 202.15625 190.816406 C 202.15625 193.484375 198.15625 193.484375 198.15625 190.816406 C 198.15625 188.148438 202.15625 188.148438 202.15625 190.816406 "/>
<path style=" stroke:none;fill-rule:nonzero;fill:rgb(0%,0%,100%);fill-opacity:1;" d="M 175.066406 150.414062 C 175.066406 153.082031 171.066406 153.082031 171.066406 150.414062 C 171.066406 147.75 175.066406 147.75 175.066406 150.414062 "/>
<path style=" stroke:none;fill-rule:nonzero;fill:rgb(0%,0%,100%);fill-opacity:1;" d="M 175.269531 150.410156 C 175.269531 153.074219 171.269531 153.074219 171.269531 150.410156 C 171.269531 147.742188 175.269531 147.742188 175.269531 150.410156 "/>
<path style=" stroke:none;fill-rule:nonzero;fill:rgb(0%,0%,100%);fill-opacity:1;" d="M 194.367188 130.207031 C 194.367188 132.875 190.367188 132.875 190.367188 130.207031 C 190.367188 127.539062 194.367188 127.539062 194.367188 130.207031 "/>
<path style=" stroke:none;fill-rule:nonzero;fill:rgb(0%,0%,100%);fill-opacity:1;" d="M 194.59375 130.207031 C 194.59375 132.875 190.59375 132.875 190.59375 130.207031 C 190.59375 127.539062 194.59375 127.539062 194.59375 130.207031 "/>
<path style=" stroke:none;fill-rule:nonzero;fill:rgb(0%,0%,100%);fill-opacity:1;" d="M 181.316406 130.207031 C 181.316406 132.875 177.316406 132.875 177.316406 130.207031 C 177.316406 127.539062 181.316406 127.539062 181.316406 130.207031 "/>
<path style=" stroke:none;fill-rule:nonzero;fill:rgb(0%,0%,100%);fill-opacity:1;" d="M 202.15625 150.425781 C 202.15625 153.09375 198.15625 153.09375 198.15625 150.425781 C 198.15625 147.757812 202.15625 147.757812 202.15625 150.425781 "/>
<path style=" stroke:none;fill-rule:nonzero;fill:rgb(0%,0%,100%);fill-opacity:1;" d="M 212.945312 190.785156 C 212.945312 193.449219 208.945312 193.449219 208.945312 190.785156 C 208.945312 188.117188 212.945312 188.117188 212.945312 190.785156 "/>
<path style=" stroke:none;fill-rule:nonzero;fill:rgb(0%,0%,100%);fill-opacity:1;" d="M 213.117188 190.871094 C 213.117188 193.539062 209.117188 193.539062 209.117188 190.871094 C 209.117188 188.207031 213.117188 188.207031 213.117188 190.871094 "/>
<path style=" stroke:none;fill-rule:nonzero;fill:rgb(0%,0%,100%);fill-opacity:1;" d="M 219.292969 170.621094 C 219.292969 173.289062 215.292969 173.289062 215.292969 170.621094 C 215.292969 167.953125 219.292969 167.953125 219.292969 170.621094 "/>
<path style=" stroke:none;fill-rule:nonzero;fill:rgb(0%,0%,100%);fill-opacity:1;" d="M 219.429688 170.621094 C 219.429688 173.289062 215.429688 173.289062 215.429688 170.621094 C 215.429688 167.953125 219.429688 167.953125 219.429688 170.621094 "/>
<path style=" stroke:none;fill-rule:nonzero;fill:rgb(0%,0%,100%);fill-opacity:1;" d="M 212.945312 150.457031 C 212.945312 153.125 208.945312 153.125 208.945312 150.457031 C 208.945312 147.792969 212.945312 147.792969 212.945312 150.457031 "/>
<path style=" stroke:none;fill-rule:nonzero;fill:rgb(0%,0%,100%);fill-opacity:1;" d="M 213.117188 150.371094 C 213.117188 153.035156 209.117188 153.035156 209.117188 150.371094 C 209.117188 147.703125 213.117188 147.703125 213.117188 150.371094 "/>
<path style=" stroke:none;fill-rule:nonzero;fill:rgb(0%,0%,100%);fill-opacity:1;" d="M 219.183594 130.207031 C 219.183594 132.875 215.183594 132.875 215.183594 130.207031 C 215.183594 127.539062 219.183594 127.539062 219.183594 130.207031 "/>
<path style=" stroke:none;fill-rule:nonzero;fill:rgb(0%,0%,100%);fill-opacity:1;" d="M 219.53125 130.207031 C 219.53125 132.875 215.53125 132.875 215.53125 130.207031 C 215.53125 127.539062 219.53125 127.539062 219.53125 130.207031 "/>
<path style="fill:none;stroke-width:1;stroke-linecap:butt;stroke-linejoin:miter;stroke:rgb(100%,80%,0%);stroke-opacity:1;stroke-miterlimit:10;" d="M 160 190.828125 L 160.6875 190.796875 "/>
<path style="fill:none;stroke-width:1;stroke-linecap:butt;stroke-linejoin:miter;stroke:rgb(100%,80%,0%);stroke-opacity:1;stroke-miterlimit:10;" d="M 166.390625 170.621094 L 166.710938 170.621094 "/>
<path style="fill:none;stroke-width:1;stroke-linecap:butt;stroke-linejoin:miter;stroke:rgb(100%,80%,0%);stroke-opacity:1;stroke-miterlimit:10;" d="M 166.390625 170.621094 L 167.039062 170.621094 "/>
<path style="fill:none;stroke-width:1;stroke-linecap:butt;stroke-linejoin:miter;stroke:rgb(100%,80%,0%);stroke-opacity:1;stroke-miterlimit:10;" d="M 185.558594 190.828125 L 186.070312 190.617188 "/>
<path style="fill:none;stroke-width:1;stroke-linecap:butt;stroke-linejoin:miter;stroke:rgb(100%,80%,0%);stroke-opacity:1;stroke-miterlimit:10;" d="M 185.558594 190.828125 L 186.242188 191.035156 "/>
<path style="fill:none;stroke-width:1;stroke-linecap:butt;stroke-linejoin:miter;stroke:rgb(100%,80%,0%);stroke-opacity:1;stroke-miterlimit:10;" d="M 160 150.414062 L 160.6875 150.445312 "/>
<path style="fill:none;stroke-width:1;stroke-linecap:butt;stroke-linejoin:miter;stroke:rgb(100%,80%,0%);stroke-opacity:1;stroke-miterlimit:10;" d="M 166.390625 130.207031 L 166.824219 130.207031 "/>
<path style="fill:none;stroke-width:1;stroke-linecap:butt;stroke-linejoin:miter;stroke:rgb(100%,80%,0%);stroke-opacity:1;stroke-miterlimit:10;" d="M 166.390625 130.207031 L 166.847656 130.207031 "/>
<path style="fill:none;stroke-width:1;stroke-linecap:butt;stroke-linejoin:miter;stroke:rgb(100%,80%,0%);stroke-opacity:1;stroke-miterlimit:10;" d="M 185.558594 150.414062 L 186.070312 150.625 "/>
<path style="fill:none;stroke-width:1;stroke-linecap:butt;stroke-linejoin:miter;stroke:rgb(100%,80%,0%);stroke-opacity:1;stroke-miterlimit:10;" d="M 185.558594 150.414062 L 186.242188 150.207031 "/>
<path style="fill:none;stroke-width:1;stroke-linecap:butt;stroke-linejoin:miter;stroke:rgb(100%,80%,0%);stroke-opacity:1;stroke-miterlimit:10;" d="M 204.730469 170.621094 L 203.308594 170.621094 "/>
<path style="fill:none;stroke-width:1;stroke-linecap:butt;stroke-linejoin:miter;stroke:rgb(100%,80%,0%);stroke-opacity:1;stroke-miterlimit:10;" d="M 204.730469 130.207031 L 203.328125 130.207031 "/>
<path style="fill:none;stroke-width:1;stroke-linecap:butt;stroke-linejoin:miter;stroke:rgb(100%,80%,0%);stroke-opacity:1;stroke-miterlimit:10;" d="M 172.78125 190.828125 L 173.066406 190.828125 "/>
<path style="fill:none;stroke-width:1;stroke-linecap:butt;stroke-linejoin:miter;stroke:rgb(100%,80%,0%);stroke-opacity:1;stroke-miterlimit:10;" d="M 172.78125 190.828125 L 173.269531 190.832031 "/>
<path style="fill:none;stroke-width:1;stroke-linecap:butt;stroke-linejoin:miter;stroke:rgb(100%,80%,0%);stroke-opacity:1;stroke-miterlimit:10;" d="M 191.949219 170.621094 L 192.402344 170.621094 "/>
<path style="fill:none;stroke-width:1;stroke-linecap:butt;stroke-linejoin:miter;stroke:rgb(100%,80%,0%);stroke-opacity:1;stroke-miterlimit:10;" d="M 191.949219 170.621094 L 192.59375 170.621094 "/>
<path style="fill:none;stroke-width:1;stroke-linecap:butt;stroke-linejoin:miter;stroke:rgb(100%,80%,0%);stroke-opacity:1;stroke-miterlimit:10;" d="M 179.171875 170.621094 L 179.292969 170.621094 "/>
<path style="fill:none;stroke-width:1;stroke-linecap:butt;stroke-linejoin:miter;stroke:rgb(100%,80%,0%);stroke-opacity:1;stroke-miterlimit:10;" d="M 198.339844 190.828125 L 200.15625 190.816406 "/>
<path style="fill:none;stroke-width:1;stroke-linecap:butt;stroke-linejoin:miter;stroke:rgb(100%,80%,0%);stroke-opacity:1;stroke-miterlimit:10;" d="M 172.78125 150.414062 L 173.066406 150.414062 "/>
<path style="fill:none;stroke-width:1;stroke-linecap:butt;stroke-linejoin:miter;stroke:rgb(100%,80%,0%);stroke-opacity:1;stroke-miterlimit:10;" d="M 172.78125 150.414062 L 173.269531 150.410156 "/>
<path style="fill:none;stroke-width:1;stroke-linecap:butt;stroke-linejoin:miter;stroke:rgb(100%,80%,0%);stroke-opacity:1;stroke-miterlimit:10;" d="M 191.949219 130.207031 L 192.367188 130.207031 "/>
<path style="fill:none;stroke-width:1;stroke-linecap:butt;stroke-linejoin:miter;stroke:rgb(100%,80%,0%);stroke-opacity:1;stroke-miterlimit:10;" d="M 191.949219 130.207031 L 192.59375 130.207031 "/>
<path style="fill:none;stroke-width:1;stroke-linecap:butt;stroke-linejoin:miter;stroke:rgb(100%,80%,0%);stroke-opacity:1;stroke-miterlimit:10;" d="M 179.171875 130.207031 L 179.316406 130.207031 "/>
<path style="fill:none;stroke-width:1;stroke-linecap:butt;stroke-linejoin:miter;stroke:rgb(100%,80%,0%);stroke-opacity:1;stroke-miterlimit:10;" d="M 198.339844 150.414062 L 200.15625 150.425781 "/>
<path style="fill:none;stroke-width:1;stroke-linecap:butt;stroke-linejoin:miter;stroke:rgb(100%,80%,0%);stroke-opacity:1;stroke-miterlimit:10;" d="M 211.121094 190.828125 L 210.945312 190.785156 "/>
<path style="fill:none;stroke-width:1;stroke-linecap:butt;stroke-linejoin:miter;stroke:rgb(100%,80%,0%);stroke-opacity:1;stroke-miterlimit:10;" d="M 211.121094 190.828125 L 211.117188 190.871094 "/>
<path style="fill:none;stroke-width:1;stroke-linecap:butt;stroke-linejoin:miter;stroke:rgb(100%,80%,0%);stroke-opacity:1;stroke-miterlimit:10;" d="M 217.511719 170.621094 L 217.292969 170.621094 "/>
<path style="fill:none;stroke-width:1;stroke-linecap:butt;stroke-linejoin:miter;stroke:rgb(100%,80%,0%);stroke-opacity:1;stroke-miterlimit:10;" d="M 217.511719 170.621094 L 217.429688 170.621094 "/>
<path style="fill:none;stroke-width:1;stroke-linecap:butt;stroke-linejoin:miter;stroke:rgb(100%,80%,0%);stroke-opacity:1;stroke-miterlimit:10;" d="M 211.121094 150.414062 L 210.945312 150.457031 "/>
<path style="fill:none;stroke-width:1;stroke-linecap:butt;stroke-linejoin:miter;stroke:rgb(100%,80%,0%);stroke-opacity:1;stroke-miterlimit:10;" d="M 211.121094 150.414062 L 211.117188 150.371094 "/>
<path style="fill:none;stroke-width:1;stroke-linecap:butt;stroke-linejoin:miter;stroke:rgb(100%,80%,0%);stroke-opacity:1;stroke-miterlimit:10;" d="M 217.511719 130.207031 L 217.183594 130.207031 "/>
<path style="fill:none;stroke-width:1;stroke-linecap:butt;stroke-linejoin:miter;stroke:rgb(100%,80%,0%);stroke-opacity:1;stroke-miterlimit:10;" d="M 217.511719 130.207031 L 217.53125 130.207031 "/>
</g>
</svg>
