<?xml version="1.0" encoding="UTF-8"?>
<svg xmlns="http://www.w3.org/2000/svg" xmlns:xlink="http://www.w3.org/1999/xlink" width="300pt" height="200pt" viewBox="0 0 300 200" version="1.1">
<g id="surface1">
<rect x="0" y="0" width="300" height="200" style="fill:rgb(80%,80%,80%);fill-opacity:1;stroke:none;"/>
<path style="fill:none;stroke-width:1;stroke-linecap:butt;stroke-linejoin:miter;stroke:rgb(0%,0%,0%);stroke-opacity:1;stroke-miterlimit:10;" d="M 10 10 L 10 1010 "/>
<path style="fill:none;stroke-width:1;stroke-linecap:butt;stroke-linejoin:miter;stroke:rgb(0%,0%,0%);stroke-opacity:1;stroke-miterlimit:10;" d="M 160 10 L 160 1010 "/>
<path style="fill:none;stroke-width:1;stroke-linecap:butt;stroke-linejoin:miter;stroke:rgb(0%,0%,0%);stroke-opacity:1;stroke-miterlimit:10;" d="M 10 110 L 10 1110 "/>
<path style="fill:none;stroke-width:1;stroke-linecap:butt;stroke-linejoin:miter;stroke:rgb(0%,0%,0%);stroke-opacity:1;stroke-miterlimit:10;" d="M 10 10 L 1010 10 "/>
<path style="fill:none;stroke-width:1;stroke-linecap:butt;stroke-linejoin:miter;stroke:rgb(0%,0%,0%);stroke-opacity:1;stroke-miterlimit:10;" d="M 160 10 L 1160 10 "/>
<path style="fill:none;stroke-width:1;stroke-linecap:butt;stroke-linejoin:miter;stroke:rgb(0%,0%,0%);stroke-opacity:1;stroke-miterlimit:10;" d="M 10 110 L 1010 110 "/>
<path style=" stroke:none;fill-rule:nonzero;fill:rgb(0%,0%,100%);fill-opacity:1;" d="M 78.25 79.742188 C 78.25 82.410156 74.25 82.410156 74.25 79.742188 C 74.25 77.074219 78.25 77.074219 78.25 79.742188 "/>
<path style=" stroke:none;fill-rule:nonzero;fill:rgb(0%,0%,100%);fill-opacity:1;" d="M 100.335938 71.921875 C 100.335938 74.585938 96.335938 74.585938 96.335938 71.921875 C 96.335938 69.253906 100.335938 69.253906 100.335938 71.921875 "/>
<path style=" stroke:none;fill-rule:nonzero;fill:rgb(0%,0%,100%);fill-opacity:1;" d="M 56.167969 71.921875 C 56.167969 74.585938 52.167969 74.585938 52.167969 71.921875 C 52.167969 69.253906 56.167969 69.253906 56.167969 71.921875 "/>
<path style=" stroke:none;fill-rule:nonzero;fill:rgb(0%,0%,100%);fill-opacity:1;" d="M 92.972656 48.457031 C 92.972656 51.125 88.972656 51.125 88.972656 48.457031 C 88.972656 45.789062 92.972656 45.789062 92.972656 48.457031 "/>
<path style=" stroke:none;fill-rule:nonzero;fill:rgb(0%,0%,100%);fill-opacity:1;" d="M 63.527344 48.457031 C 63.527344 51.125 59.527344 51.125 59.527344 48.457031 C 59.527344 45.789062 63.527344 45.789062 63.527344 48.457031 "/>
<path style=" stroke:none;fill-rule:nonzero;fill:rgb(0%,0%,100%);fill-opacity:1;" d="M 78.25 79.742188 C 78.25 82.410156 74.25 82.410156 74.25 79.742188 C 74.25 77.074219 78.25 77.074219 78.25 79.742188 "/>
<path style=" stroke:none;fill-rule:nonzero;fill:rgb(0%,0%,100%);fill-opacity:1;" d="M 100.335938 71.921875 C 100.335938 74.585938 96.335938 74.585938 96.335938 71.921875 C 96.335938 69.253906 100.335938 69.253906 100.335938 71.921875 "/>
<path style=" stroke:none;fill-rule:nonzero;fill:rgb(0%,0%,100%);fill-opacity:1;" d="M 56.167969 71.921875 C 56.167969 74.585938 52.167969 74.585938 52.167969 71.921875 C 52.167969 69.253906 56.167969 69.253906 56.167969 71.921875 "/>
<path style=" stroke:none;fill-rule:nonzero;fill:rgb(0%,0%,100%);fill-opacity:1;" d="M 92.972656 48.457031 C 92.972656 51.125 88.972656 51.125 88.972656 48.457031 C 88.972656 45.789062 92.972656 45.789062 92.972656 48.457031 "/>
<path style=" stroke:none;fill-rule:nonzero;fill:rgb(0%,0%,100%);fill-opacity:1;" d="M 63.527344 48.457031 C 63.527344 51.125 59.527344 51.125 59.527344 48.457031 C 59.527344 45.789062 63.527344 45.789062 63.527344 48.457031 "/>
<path style=" stroke:none;fill-rule:nonzero;fill:rgb(0%,0%,100%);fill-opacity:1;" d="M 70.890625 24.992188 C 70.890625 27.660156 66.890625 27.660156 66.890625 24.992188 C 66.890625 22.324219 70.890625 22.324219 70.890625 24.992188 "/>
<path style=" stroke:none;fill-rule:nonzero;fill:rgb(0%,0%,100%);fill-opacity:1;" d="M 85.613281 24.992188 C 85.613281 27.660156 81.613281 27.660156 81.613281 24.992188 C 81.613281 22.324219 85.613281 22.324219 85.613281 24.992188 "/>
<path style=" stroke:none;fill-rule:nonzero;fill:rgb(0%,0%,100%);fill-opacity:1;" d="M 122.417969 64.097656 C 122.417969 66.765625 118.417969 66.765625 118.417969 64.097656 C 118.417969 61.433594 122.417969 61.433594 122.417969 64.097656 "/>
<path style=" stroke:none;fill-rule:nonzero;fill:rgb(0%,0%,100%);fill-opacity:1;" d="M 34.082031 64.097656 C 34.082031 66.765625 30.082031 66.765625 30.082031 64.097656 C 30.082031 61.433594 34.082031 61.433594 34.082031 64.097656 "/>
<path style=" stroke:none;fill-rule:nonzero;fill:rgb(0%,0%,100%);fill-opacity:1;" d="M 115.058594 40.636719 C 115.058594 43.300781 111.058594 43.300781 111.058594 40.636719 C 111.058594 37.96875 115.058594 37.96875 115.058594 40.636719 "/>
<path style=" stroke:none;fill-rule:nonzero;fill:rgb(0%,0%,100%);fill-opacity:1;" d="M 41.445312 40.636719 C 41.445312 43.300781 37.445312 43.300781 37.445312 40.636719 C 37.445312 37.96875 41.445312 37.96875 41.445312 40.636719 "/>
<path style=" stroke:none;fill-rule:nonzero;fill:rgb(0%,0%,100%);fill-opacity:1;" d="M 12 56.277344 C 12 58.945312 8 58.945312 8 56.277344 C 8 53.613281 12 53.613281 12 56.277344 "/>
<path style=" stroke:none;fill-rule:nonzero;fill:rgb(0%,0%,100%);fill-opacity:1;" d="M 122.417969 64.097656 C 122.417969 66.765625 118.417969 66.765625 118.417969 64.097656 C 118.417969 61.433594 122.417969 61.433594 122.417969 64.097656 "/>
<path style=" stroke:none;fill-rule:nonzero;fill:rgb(0%,0%,100%);fill-opacity:1;" d="M 34.082031 64.097656 C 34.082031 66.765625 30.082031 66.765625 30.082031 64.097656 C 30.082031 61.433594 34.082031 61.433594 34.082031 64.097656 "/>
<path style=" stroke:none;fill-rule:nonzero;fill:rgb(0%,0%,100%);fill-opacity:1;" d="M 115.058594 40.636719 C 115.058594 43.300781 111.058594 43.300781 111.058594 40.636719 C 111.058594 37.96875 115.058594 37.96875 115.058594 40.636719 "/>
<path style=" stroke:none;fill-rule:nonzero;fill:rgb(0%,0%,100%);fill-opacity:1;" d="M 41.445312 40.636719 C 41.445312 43.300781 37.445312 43.300781 37.445312 40.636719 C 37.445312 37.96875 41.445312 37.96875 41.445312 40.636719 "/>
<path style=" stroke:none;fill-rule:nonzero;fill:rgb(0%,0%,100%);fill-opacity:1;" d="M 12 56.277344 C 12 58.945312 8 58.945312 8 56.277344 C 8 53.613281 12 53.613281 12 56.277344 "/>
<path style=" stroke:none;fill-rule:nonzero;fill:rgb(0%,0%,100%);fill-opacity:1;" d="M 19.363281 32.8125 C 19.363281 35.480469 15.363281 35.480469 15.363281 32.8125 C 15.363281 30.148438 19.363281 30.148438 19.363281 32.8125 "/>
<path style=" stroke:none;fill-rule:nonzero;fill:rgb(0%,0%,100%);fill-opacity:1;" d="M 107.695312 17.171875 C 107.695312 19.839844 103.695312 19.839844 103.695312 17.171875 C 103.695312 14.503906 107.695312 14.503906 107.695312 17.171875 "/>
<path style=" stroke:none;fill-rule:nonzero;fill:rgb(0%,0%,100%);fill-opacity:1;" d="M 48.804688 17.171875 C 48.804688 19.839844 44.804688 19.839844 44.804688 17.171875 C 44.804688 14.503906 48.804688 14.503906 48.804688 17.171875 "/>
<path style=" stroke:none;fill-rule:nonzero;fill:rgb(0%,0%,100%);fill-opacity:1;" d="M 129.78125 9.351562 C 129.78125 12.015625 125.78125 12.015625 125.78125 9.351562 C 125.78125 6.683594 129.78125 6.683594 129.78125 9.351562 "/>
<path style=" stroke:none;fill-rule:nonzero;fill:rgb(0%,0%,100%);fill-opacity:1;" d="M 26.722656 9.351562 C 26.722656 12.015625 22.722656 12.015625 22.722656 9.351562 C 22.722656 6.683594 26.722656 6.683594 26.722656 9.351562 "/>
<path style=" stroke:none;fill-rule:nonzero;fill:rgb(0%,0%,100%);fill-opacity:1;" d="M 107.695312 17.171875 C 107.695312 19.839844 103.695312 19.839844 103.695312 17.171875 C 103.695312 14.503906 107.695312 14.503906 107.695312 17.171875 "/>
<path style=" stroke:none;fill-rule:nonzero;fill:rgb(0%,0%,100%);fill-opacity:1;" d="M 48.804688 17.171875 C 48.804688 19.839844 44.804688 19.839844 44.804688 17.171875 C 44.804688 14.503906 48.804688 14.503906 48.804688 17.171875 "/>
<path style=" stroke:none;fill-rule:nonzero;fill:rgb(0%,0%,100%);fill-opacity:1;" d="M 129.78125 9.351562 C 129.78125 12.015625 125.78125 12.015625 125.78125 9.351562 C 125.78125 6.683594 129.78125 6.683594 129.78125 9.351562 "/>
<path style=" stroke:none;fill-rule:nonzero;fill:rgb(0%,0%,100%);fill-opacity:1;" d="M 26.722656 9.351562 C 26.722656 12.015625 22.722656 12.015625 22.722656 9.351562 C 22.722656 6.683594 26.722656 6.683594 26.722656 9.351562 "/>
<path style="fill:none;stroke-width:1;stroke-linecap:butt;stroke-linejoin:miter;stroke:rgb(100%,80%,0%);stroke-opacity:1;stroke-miterlimit:10;" d="M 76.574219 79.199219 L 76.25 79.742188 "/>
<path style="fill:none;stroke-width:1;stroke-linecap:butt;stroke-linejoin:miter;stroke:rgb(100%,80%,0%);stroke-opacity:1;stroke-miterlimit:10;" d="M 97.28125 71.4375 L 98.335938 71.921875 "/>
<path style="fill:none;stroke-width:1;stroke-linecap:butt;stroke-linejoin:miter;stroke:rgb(100%,80%,0%);stroke-opacity:1;stroke-miterlimit:10;" d="M 55.816406 71.015625 L 54.167969 71.921875 "/>
<path style="fill:none;stroke-width:1;stroke-linecap:butt;stroke-linejoin:miter;stroke:rgb(100%,80%,0%);stroke-opacity:1;stroke-miterlimit:10;" d="M 92.3125 47.984375 L 90.972656 48.457031 "/>
<path style="fill:none;stroke-width:1;stroke-linecap:butt;stroke-linejoin:miter;stroke:rgb(100%,80%,0%);stroke-opacity:1;stroke-miterlimit:10;" d="M 60.769531 47.914062 L 61.527344 48.457031 "/>
<path style="fill:none;stroke-width:1;stroke-linecap:butt;stroke-linejoin:miter;stroke:rgb(100%,80%,0%);stroke-opacity:1;stroke-miterlimit:10;" d="M 76.417969 78.734375 L 76.25 79.742188 "/>
<path style="fill:none;stroke-width:1;stroke-linecap:butt;stroke-linejoin:miter;stroke:rgb(100%,80%,0%);stroke-opacity:1;stroke-miterlimit:10;" d="M 97.15625 71.167969 L 98.335938 71.921875 "/>
<path style="fill:none;stroke-width:1;stroke-linecap:butt;stroke-linejoin:miter;stroke:rgb(100%,80%,0%);stroke-opacity:1;stroke-miterlimit:10;" d="M 55.789062 71.355469 L 54.167969 71.921875 "/>
<path style="fill:none;stroke-width:1;stroke-linecap:butt;stroke-linejoin:miter;stroke:rgb(100%,80%,0%);stroke-opacity:1;stroke-miterlimit:10;" d="M 92.351562 48.109375 L 90.972656 48.457031 "/>
<path style="fill:none;stroke-width:1;stroke-linecap:butt;stroke-linejoin:miter;stroke:rgb(100%,80%,0%);stroke-opacity:1;stroke-miterlimit:10;" d="M 60.460938 47.96875 L 61.527344 48.457031 "/>
<path style="fill:none;stroke-width:1;stroke-linecap:butt;stroke-linejoin:miter;stroke:rgb(100%,80%,0%);stroke-opacity:1;stroke-miterlimit:10;" d="M 75.890625 27.222656 L 68.890625 24.992188 "/>
<path style="fill:none;stroke-width:1;stroke-linecap:butt;stroke-linejoin:miter;stroke:rgb(100%,80%,0%);stroke-opacity:1;stroke-miterlimit:10;" d="M 76.972656 27.199219 L 83.613281 24.992188 "/>
<path style="fill:none;stroke-width:1;stroke-linecap:butt;stroke-linejoin:miter;stroke:rgb(100%,80%,0%);stroke-opacity:1;stroke-miterlimit:10;" d="M 121.765625 64.144531 L 120.417969 64.097656 "/>
<path style="fill:none;stroke-width:1;stroke-linecap:butt;stroke-linejoin:miter;stroke:rgb(100%,80%,0%);stroke-opacity:1;stroke-miterlimit:10;" d="M 31.277344 63.894531 L 32.082031 64.097656 "/>
<path style="fill:none;stroke-width:1;stroke-linecap:butt;stroke-linejoin:miter;stroke:rgb(100%,80%,0%);stroke-opacity:1;stroke-miterlimit:10;" d="M 114.074219 40.164062 L 113.058594 40.636719 "/>
<path style="fill:none;stroke-width:1;stroke-linecap:butt;stroke-linejoin:miter;stroke:rgb(100%,80%,0%);stroke-opacity:1;stroke-miterlimit:10;" d="M 39.328125 40.101562 L 39.445312 40.636719 "/>
<path style="fill:none;stroke-width:1;stroke-linecap:butt;stroke-linejoin:miter;stroke:rgb(100%,80%,0%);stroke-opacity:1;stroke-miterlimit:10;" d="M 10.367188 56.152344 L 10 56.277344 "/>
<path style="fill:none;stroke-width:1;stroke-linecap:butt;stroke-linejoin:miter;stroke:rgb(100%,80%,0%);stroke-opacity:1;stroke-miterlimit:10;" d="M 122.351562 63.691406 L 120.417969 64.097656 "/>
<path style="fill:none;stroke-width:1;stroke-linecap:butt;stroke-linejoin:miter;stroke:rgb(100%,80%,0%);stroke-opacity:1;stroke-miterlimit:10;" d="M 30.609375 63.691406 L 32.082031 64.097656 "/>
<path style="fill:none;stroke-width:1;stroke-linecap:butt;stroke-linejoin:miter;stroke:rgb(100%,80%,0%);stroke-opacity:1;stroke-miterlimit:10;" d="M 113.5625 40.234375 L 113.058594 40.636719 "/>
<path style="fill:none;stroke-width:1;stroke-linecap:butt;stroke-linejoin:miter;stroke:rgb(100%,80%,0%);stroke-opacity:1;stroke-miterlimit:10;" d="M 38.875 40.039062 L 39.445312 40.636719 "/>
<path style="fill:none;stroke-width:1;stroke-linecap:butt;stroke-linejoin:miter;stroke:rgb(100%,80%,0%);stroke-opacity:1;stroke-miterlimit:10;" d="M 10.089844 56.132812 L 10 56.277344 "/>
<path style="fill:none;stroke-width:1;stroke-linecap:butt;stroke-linejoin:miter;stroke:rgb(100%,80%,0%);stroke-opacity:1;stroke-miterlimit:10;" d="M 10.484375 31.371094 L 17.363281 32.8125 "/>
<path style="fill:none;stroke-width:1;stroke-linecap:butt;stroke-linejoin:miter;stroke:rgb(100%,80%,0%);stroke-opacity:1;stroke-miterlimit:10;" d="M 105.683594 18.058594 L 105.695312 17.171875 "/>
<path style="fill:none;stroke-width:1;stroke-linecap:butt;stroke-linejoin:miter;stroke:rgb(100%,80%,0%);stroke-opacity:1;stroke-miterlimit:10;" d="M 47.480469 17.945312 L 46.804688 17.171875 "/>
<path style="fill:none;stroke-width:1;stroke-linecap:butt;stroke-linejoin:miter;stroke:rgb(100%,80%,0%);stroke-opacity:1;stroke-miterlimit:10;" d="M 127.011719 10.164062 L 127.78125 9.351562 "/>
<path style="fill:none;stroke-width:1;stroke-linecap:butt;stroke-linejoin:miter;stroke:rgb(100%,80%,0%);stroke-opacity:1;stroke-miterlimit:10;" d="M 26.1875 10.085938 L 24.722656 9.351562 "/>
<path style="fill:none;stroke-width:1;stroke-linecap:butt;stroke-linejoin:miter;stroke:rgb(100%,80%,0%);stroke-opacity:1;stroke-miterlimit:10;" d="M 105.066406 18.035156 L 105.695312 17.171875 "/>
<path style="fill:none;stroke-width:1;stroke-linecap:butt;stroke-linejoin:miter;stroke:rgb(100%,80%,0%);stroke-opacity:1;stroke-miterlimit:10;" d="M 47.644531 17.886719 L 46.804688 17.171875 "/>
<path style="fill:none;stroke-width:1;stroke-linecap:butt;stroke-linejoin:miter;stroke:rgb(100%,80%,0%);stroke-opacity:1;stroke-miterlimit:10;" d="M 126.785156 10.269531 L 127.78125 9.351562 "/>
<path style="fill:none;stroke-width:1;stroke-linecap:butt;stroke-linejoin:miter;stroke:rgb(100%,80%,0%);stroke-opacity:1;stroke-miterlimit:10;" d="M 25.960938 10 L 24.722656 9.351562 "/>
<path style=" stroke:none;fill-rule:nonzero;fill:rgb(0%,0%,100%);fill-opacity:1;" d="M 78.25 110 C 78.25 112.667969 74.25 112.667969 74.25 110 C 74.25 107.332031 78.25 107.332031 78.25 110 "/>
<path style=" stroke:none;fill-rule:nonzero;fill:rgb(0%,0%,100%);fill-opacity:1;" d="M 100.335938 134.25 C 100.335938 136.914062 96.335938 136.914062 96.335938 134.25 C 96.335938 131.582031 100.335938 131.582031 100.335938 134.25 "/>
<path style=" stroke:none;fill-rule:nonzero;fill:rgb(0%,0%,100%);fill-opacity:1;" d="M 56.167969 134.25 C 56.167969 136.914062 52.167969 136.914062 52.167969 134.25 C 52.167969 131.582031 56.167969 131.582031 56.167969 134.25 "/>
<path style=" stroke:none;fill-rule:nonzero;fill:rgb(0%,0%,100%);fill-opacity:1;" d="M 92.972656 110 C 92.972656 112.667969 88.972656 112.667969 88.972656 110 C 88.972656 107.332031 92.972656 107.332031 92.972656 110 "/>
<path style=" stroke:none;fill-rule:nonzero;fill:rgb(0%,0%,100%);fill-opacity:1;" d="M 63.527344 110 C 63.527344 112.667969 59.527344 112.667969 59.527344 110 C 59.527344 107.332031 63.527344 107.332031 63.527344 110 "/>
<path style=" stroke:none;fill-rule:nonzero;fill:rgb(0%,0%,100%);fill-opacity:1;" d="M 78.25 158.496094 C 78.25 161.164062 74.25 161.164062 74.25 158.496094 C 74.25 155.832031 78.25 155.832031 78.25 158.496094 "/>
<path style=" stroke:none;fill-rule:nonzero;fill:rgb(0%,0%,100%);fill-opacity:1;" d="M 100.335938 182.746094 C 100.335938 185.410156 96.335938 185.410156 96.335938 182.746094 C 96.335938 180.078125 100.335938 180.078125 100.335938 182.746094 "/>
<path style=" stroke:none;fill-rule:nonzero;fill:rgb(0%,0%,100%);fill-opacity:1;" d="M 56.167969 182.746094 C 56.167969 185.410156 52.167969 185.410156 52.167969 182.746094 C 52.167969 180.078125 56.167969 180.078125 56.167969 182.746094 "/>
<path style=" stroke:none;fill-rule:nonzero;fill:rgb(0%,0%,100%);fill-opacity:1;" d="M 92.972656 158.496094 C 92.972656 161.164062 88.972656 161.164062 88.972656 158.496094 C 88.972656 155.832031 92.972656 155.832031 92.972656 158.496094 "/>
<path style=" stroke:none;fill-rule:nonzero;fill:rgb(0%,0%,100%);fill-opacity:1;" d="M 63.527344 158.496094 C 63.527344 161.164062 59.527344 161.164062 59.527344 158.496094 C 59.527344 155.832031 63.527344 155.832031 63.527344 158.496094 "/>
<path style=" stroke:none;fill-rule:nonzero;fill:rgb(0%,0%,100%);fill-opacity:1;" d="M 70.890625 134.25 C 70.890625 136.914062 66.890625 136.914062 66.890625 134.25 C 66.890625 131.582031 70.890625 131.582031 70.890625 134.25 "/>
<path style=" stroke:none;fill-rule:nonzero;fill:rgb(0%,0%,100%);fill-opacity:1;" d="M 85.613281 182.746094 C 85.613281 185.410156 81.613281 185.410156 81.613281 182.746094 C 81.613281 180.078125 85.613281 180.078125 85.613281 182.746094 "/>
<path style=" stroke:none;fill-rule:nonzero;fill:rgb(0%,0%,100%);fill-opacity:1;" d="M 122.417969 110 C 122.417969 112.667969 118.417969 112.667969 118.417969 110 C 118.417969 107.332031 122.417969 107.332031 122.417969 110 "/>
<path style=" stroke:none;fill-rule:nonzero;fill:rgb(0%,0%,100%);fill-opacity:1;" d="M 34.082031 110 C 34.082031 112.667969 30.082031 112.667969 30.082031 110 C 30.082031 107.332031 34.082031 107.332031 34.082031 110 "/>
<path style=" stroke:none;fill-rule:nonzero;fill:rgb(0%,0%,100%);fill-opacity:1;" d="M 115.058594 134.25 C 115.058594 136.914062 111.058594 136.914062 111.058594 134.25 C 111.058594 131.582031 115.058594 131.582031 115.058594 134.25 "/>
<path style=" stroke:none;fill-rule:nonzero;fill:rgb(0%,0%,100%);fill-opacity:1;" d="M 41.445312 134.25 C 41.445312 136.914062 37.445312 136.914062 37.445312 134.25 C 37.445312 131.582031 41.445312 131.582031 41.445312 134.25 "/>
<path style=" stroke:none;fill-rule:nonzero;fill:rgb(0%,0%,100%);fill-opacity:1;" d="M 12 134.25 C 12 136.914062 8 136.914062 8 134.25 C 8 131.582031 12 131.582031 12 134.25 "/>
<path style=" stroke:none;fill-rule:nonzero;fill:rgb(0%,0%,100%);fill-opacity:1;" d="M 122.417969 158.496094 C 122.417969 161.164062 118.417969 161.164062 118.417969 158.496094 C 118.417969 155.832031 122.417969 155.832031 122.417969 158.496094 "/>
<path style=" stroke:none;fill-rule:nonzero;fill:rgb(0%,0%,100%);fill-opacity:1;" d="M 34.082031 158.496094 C 34.082031 161.164062 30.082031 161.164062 30.082031 158.496094 C 30.082031 155.832031 34.082031 155.832031 34.082031 158.496094 "/>
<path style=" stroke:none;fill-rule:nonzero;fill:rgb(0%,0%,100%);fill-opacity:1;" d="M 115.058594 182.746094 C 115.058594 185.410156 111.058594 185.410156 111.058594 182.746094 C 111.058594 180.078125 115.058594 180.078125 115.058594 182.746094 "/>
<path style=" stroke:none;fill-rule:nonzero;fill:rgb(0%,0%,100%);fill-opacity:1;" d="M 41.445312 182.746094 C 41.445312 185.410156 37.445312 185.410156 37.445312 182.746094 C 37.445312 180.078125 41.445312 180.078125 41.445312 182.746094 "/>
<path style=" stroke:none;fill-rule:nonzero;fill:rgb(0%,0%,100%);fill-opacity:1;" d="M 12 182.746094 C 12 185.410156 8 185.410156 8 182.746094 C 8 180.078125 12 180.078125 12 182.746094 "/>
<path style=" stroke:none;fill-rule:nonzero;fill:rgb(0%,0%,100%);fill-opacity:1;" d="M 19.363281 158.496094 C 19.363281 161.164062 15.363281 161.164062 15.363281 158.496094 C 15.363281 155.832031 19.363281 155.832031 19.363281 158.496094 "/>
<path style=" stroke:none;fill-rule:nonzero;fill:rgb(0%,0%,100%);fill-opacity:1;" d="M 107.695312 110 C 107.695312 112.667969 103.695312 112.667969 103.695312 110 C 103.695312 107.332031 107.695312 107.332031 107.695312 110 "/>
<path style=" stroke:none;fill-rule:nonzero;fill:rgb(0%,0%,100%);fill-opacity:1;" d="M 48.804688 110 C 48.804688 112.667969 44.804688 112.667969 44.804688 110 C 44.804688 107.332031 48.804688 107.332031 48.804688 110 "/>
<path style=" stroke:none;fill-rule:nonzero;fill:rgb(0%,0%,100%);fill-opacity:1;" d="M 129.78125 134.25 C 129.78125 136.914062 125.78125 136.914062 125.78125 134.25 C 125.78125 131.582031 129.78125 131.582031 129.78125 134.25 "/>
<path style=" stroke:none;fill-rule:nonzero;fill:rgb(0%,0%,100%);fill-opacity:1;" d="M 26.722656 134.25 C 26.722656 136.914062 22.722656 136.914062 22.722656 134.25 C 22.722656 131.582031 26.722656 131.582031 26.722656 134.25 "/>
<path style=" stroke:none;fill-rule:nonzero;fill:rgb(0%,0%,100%);fill-opacity:1;" d="M 107.695312 158.496094 C 107.695312 161.164062 103.695312 161.164062 103.695312 158.496094 C 103.695312 155.832031 107.695312 155.832031 107.695312 158.496094 "/>
<path style=" stroke:none;fill-rule:nonzero;fill:rgb(0%,0%,100%);fill-opacity:1;" d="M 48.804688 158.496094 C 48.804688 161.164062 44.804688 161.164062 44.804688 158.496094 C 44.804688 155.832031 48.804688 155.832031 48.804688 158.496094 "/>
<path style=" stroke:none;fill-rule:nonzero;fill:rgb(0%,0%,100%);fill-opacity:1;" d="M 129.78125 182.746094 C 129.78125 185.410156 125.78125 185.410156 125.78125 182.746094 C 125.78125 180.078125 129.78125 180.078125 129.78125 182.746094 "/>
<path style=" stroke:none;fill-rule:nonzero;fill:rgb(0%,0%,100%);fill-opacity:1;" d="M 26.722656 182.746094 C 26.722656 185.410156 22.722656 185.410156 22.722656 182.746094 C 22.722656 180.078125 26.722656 180.078125 26.722656 182.746094 "/>
<path style="fill:none;stroke-width:1;stroke-linecap:butt;stroke-linejoin:miter;stroke:rgb(100%,80%,0%);stroke-opacity:1;stroke-miterlimit:10;" d="M 76.574219 110.027344 L 76.25 110 "/>
<path style="fill:none;stroke-width:1;stroke-linecap:butt;stroke-linejoin:miter;stroke:rgb(100%,80%,0%);stroke-opacity:1;stroke-miterlimit:10;" d="M 97.28125 134.300781 L 98.335938 134.25 "/>
<path style="fill:none;stroke-width:1;stroke-linecap:butt;stroke-linejoin:miter;stroke:rgb(100%,80%,0%);stroke-opacity:1;stroke-miterlimit:10;" d="M 55.816406 134.238281 L 54.167969 134.25 "/>
<path style="fill:none;stroke-width:1;stroke-linecap:butt;stroke-linejoin:miter;stroke:rgb(100%,80%,0%);stroke-opacity:1;stroke-miterlimit:10;" d="M 92.3125 110.320312 L 90.972656 110 "/>
<path style="fill:none;stroke-width:1;stroke-linecap:butt;stroke-linejoin:miter;stroke:rgb(100%,80%,0%);stroke-opacity:1;stroke-miterlimit:10;" d="M 60.769531 109.679688 L 61.527344 110 "/>
<path style="fill:none;stroke-width:1;stroke-linecap:butt;stroke-linejoin:miter;stroke:rgb(100%,80%,0%);stroke-opacity:1;stroke-miterlimit:10;" d="M 76.417969 158.464844 L 76.25 158.496094 "/>
<path style="fill:none;stroke-width:1;stroke-linecap:butt;stroke-linejoin:miter;stroke:rgb(100%,80%,0%);stroke-opacity:1;stroke-miterlimit:10;" d="M 97.15625 182.691406 L 98.335938 182.746094 "/>
<path style="fill:none;stroke-width:1;stroke-linecap:butt;stroke-linejoin:miter;stroke:rgb(100%,80%,0%);stroke-opacity:1;stroke-miterlimit:10;" d="M 55.789062 182.742188 L 54.167969 182.746094 "/>
<path style="fill:none;stroke-width:1;stroke-linecap:butt;stroke-linejoin:miter;stroke:rgb(100%,80%,0%);stroke-opacity:1;stroke-miterlimit:10;" d="M 92.351562 158.214844 L 90.972656 158.496094 "/>
<path style="fill:none;stroke-width:1;stroke-linecap:butt;stroke-linejoin:miter;stroke:rgb(100%,80%,0%);stroke-opacity:1;stroke-miterlimit:10;" d="M 60.460938 158.777344 L 61.527344 158.496094 "/>
<path style="fill:none;stroke-width:1;stroke-linecap:butt;stroke-linejoin:miter;stroke:rgb(100%,80%,0%);stroke-opacity:1;stroke-miterlimit:10;" d="M 75.890625 134.28125 L 68.890625 134.25 "/>
<path style="fill:none;stroke-width:1;stroke-linecap:butt;stroke-linejoin:miter;stroke:rgb(100%,80%,0%);stroke-opacity:1;stroke-miterlimit:10;" d="M 76.972656 182.726562 L 83.613281 182.746094 "/>
<path style="fill:none;stroke-width:1;stroke-linecap:butt;stroke-linejoin:miter;stroke:rgb(100%,80%,0%);stroke-opacity:1;stroke-miterlimit:10;" d="M 121.765625 110.0625 L 120.417969 110 "/>
<path style="fill:none;stroke-width:1;stroke-linecap:butt;stroke-linejoin:miter;stroke:rgb(100%,80%,0%);stroke-opacity:1;stroke-miterlimit:10;" d="M 31.277344 109.933594 L 32.082031 110 "/>
<path style="fill:none;stroke-width:1;stroke-linecap:butt;stroke-linejoin:miter;stroke:rgb(100%,80%,0%);stroke-opacity:1;stroke-miterlimit:10;" d="M 114.074219 134.367188 L 113.058594 134.25 "/>
<path style="fill:none;stroke-width:1;stroke-linecap:butt;stroke-linejoin:miter;stroke:rgb(100%,80%,0%);stroke-opacity:1;stroke-miterlimit:10;" d="M 39.328125 134.25 L 39.445312 134.25 "/>
<path style="fill:none;stroke-width:1;stroke-linecap:butt;stroke-linejoin:miter;stroke:rgb(100%,80%,0%);stroke-opacity:1;stroke-miterlimit:10;" d="M 10.367188 133.738281 L 10 134.25 "/>
<path style="fill:none;stroke-width:1;stroke-linecap:butt;stroke-linejoin:miter;stroke:rgb(100%,80%,0%);stroke-opacity:1;stroke-miterlimit:10;" d="M 122.351562 158.492188 L 120.417969 158.496094 "/>
<path style="fill:none;stroke-width:1;stroke-linecap:butt;stroke-linejoin:miter;stroke:rgb(100%,80%,0%);stroke-opacity:1;stroke-miterlimit:10;" d="M 30.609375 158.519531 L 32.082031 158.496094 "/>
<path style="fill:none;stroke-width:1;stroke-linecap:butt;stroke-linejoin:miter;stroke:rgb(100%,80%,0%);stroke-opacity:1;stroke-miterlimit:10;" d="M 113.5625 182.691406 L 113.058594 182.746094 "/>
<path style="fill:none;stroke-width:1;stroke-linecap:butt;stroke-linejoin:miter;stroke:rgb(100%,80%,0%);stroke-opacity:1;stroke-miterlimit:10;" d="M 38.875 182.699219 L 39.445312 182.746094 "/>
<path style="fill:none;stroke-width:1;stroke-linecap:butt;stroke-linejoin:miter;stroke:rgb(100%,80%,0%);stroke-opacity:1;stroke-miterlimit:10;" d="M 10.089844 183.25 L 10 182.746094 "/>
<path style="fill:none;stroke-width:1;stroke-linecap:butt;stroke-linejoin:miter;stroke:rgb(100%,80%,0%);stroke-opacity:1;stroke-miterlimit:10;" d="M 10.484375 158.476562 L 17.363281 158.496094 "/>
<path style="fill:none;stroke-width:1;stroke-linecap:butt;stroke-linejoin:miter;stroke:rgb(100%,80%,0%);stroke-opacity:1;stroke-miterlimit:10;" d="M 105.683594 110.054688 L 105.695312 110 "/>
<path style="fill:none;stroke-width:1;stroke-linecap:butt;stroke-linejoin:miter;stroke:rgb(100%,80%,0%);stroke-opacity:1;stroke-miterlimit:10;" d="M 47.480469 109.949219 L 46.804688 110 "/>
<path style="fill:none;stroke-width:1;stroke-linecap:butt;stroke-linejoin:miter;stroke:rgb(100%,80%,0%);stroke-opacity:1;stroke-miterlimit:10;" d="M 127.011719 134.675781 L 127.78125 134.25 "/>
<path style="fill:none;stroke-width:1;stroke-linecap:butt;stroke-linejoin:miter;stroke:rgb(100%,80%,0%);stroke-opacity:1;stroke-miterlimit:10;" d="M 26.1875 134.40625 L 24.722656 134.25 "/>
<path style="fill:none;stroke-width:1;stroke-linecap:butt;stroke-linejoin:miter;stroke:rgb(100%,80%,0%);stroke-opacity:1;stroke-miterlimit:10;" d="M 105.066406 158.472656 L 105.695312 158.496094 "/>
<path style="fill:none;stroke-width:1;stroke-linecap:butt;stroke-linejoin:miter;stroke:rgb(100%,80%,0%);stroke-opacity:1;stroke-miterlimit:10;" d="M 47.644531 158.507812 L 46.804688 158.496094 "/>
<path style="fill:none;stroke-width:1;stroke-linecap:butt;stroke-linejoin:miter;stroke:rgb(100%,80%,0%);stroke-opacity:1;stroke-miterlimit:10;" d="M 126.785156 182.371094 L 127.78125 182.746094 "/>
<path style="fill:none;stroke-width:1;stroke-linecap:butt;stroke-linejoin:miter;stroke:rgb(100%,80%,0%);stroke-opacity:1;stroke-miterlimit:10;" d="M 25.960938 182.542969 L 24.722656 182.746094 "/>
<path style=" stroke:none;fill-rule:nonzero;fill:rgb(0%,0%,100%);fill-opacity:1;" d="M 162 110 C 162 112.667969 158 112.667969 158 110 C 158 107.332031 162 107.332031 162 110 "/>
<path style=" stroke:none;fill-rule:nonzero;fill:rgb(0%,0%,100%);fill-opacity:1;" d="M 169.820312 134.25 C 169.820312 136.914062 165.820312 136.914062 165.820312 134.25 C 165.820312 131.582031 169.820312 131.582031 169.820312 134.25 "/>
<path style=" stroke:none;fill-rule:nonzero;fill:rgb(0%,0%,100%);fill-opacity:1;" d="M 169.820312 134.25 C 169.820312 136.914062 165.820312 136.914062 165.820312 134.25 C 165.820312 131.582031 169.820312 131.582031 169.820312 134.25 "/>
<path style=" stroke:none;fill-rule:nonzero;fill:rgb(0%,0%,100%);fill-opacity:1;" d="M 193.285156 110 C 193.285156 112.667969 189.285156 112.667969 189.285156 110 C 189.285156 107.332031 193.285156 107.332031 193.285156 110 "/>
<path style=" stroke:none;fill-rule:nonzero;fill:rgb(0%,0%,100%);fill-opacity:1;" d="M 193.285156 110 C 193.285156 112.667969 189.285156 112.667969 189.285156 110 C 189.285156 107.332031 193.285156 107.332031 193.285156 110 "/>
<path style=" stroke:none;fill-rule:nonzero;fill:rgb(0%,0%,100%);fill-opacity:1;" d="M 162 158.496094 C 162 161.164062 158 161.164062 158 158.496094 C 158 155.832031 162 155.832031 162 158.496094 "/>
<path style=" stroke:none;fill-rule:nonzero;fill:rgb(0%,0%,100%);fill-opacity:1;" d="M 169.820312 182.746094 C 169.820312 185.410156 165.820312 185.410156 165.820312 182.746094 C 165.820312 180.078125 169.820312 180.078125 169.820312 182.746094 "/>
<path style=" stroke:none;fill-rule:nonzero;fill:rgb(0%,0%,100%);fill-opacity:1;" d="M 169.820312 182.746094 C 169.820312 185.410156 165.820312 185.410156 165.820312 182.746094 C 165.820312 180.078125 169.820312 180.078125 169.820312 182.746094 "/>
<path style=" stroke:none;fill-rule:nonzero;fill:rgb(0%,0%,100%);fill-opacity:1;" d="M 193.285156 158.496094 C 193.285156 161.164062 189.285156 161.164062 189.285156 158.496094 C 189.285156 155.832031 193.285156 155.832031 193.285156 158.496094 "/>
<path style=" stroke:none;fill-rule:nonzero;fill:rgb(0%,0%,100%);fill-opacity:1;" d="M 193.285156 158.496094 C 193.285156 161.164062 189.285156 161.164062 189.285156 158.496094 C 189.285156 155.832031 193.285156 155.832031 193.285156 158.496094 "/>
<path style=" stroke:none;fill-rule:nonzero;fill:rgb(0%,0%,100%);fill-opacity:1;" d="M 216.75 134.25 C 216.75 136.914062 212.75 136.914062 212.75 134.25 C 212.75 131.582031 216.75 131.582031 216.75 134.25 "/>
<path style=" stroke:none;fill-rule:nonzero;fill:rgb(0%,0%,100%);fill-opacity:1;" d="M 216.75 182.746094 C 216.75 185.410156 212.75 185.410156 212.75 182.746094 C 212.75 180.078125 216.75 180.078125 216.75 182.746094 "/>
<path style=" stroke:none;fill-rule:nonzero;fill:rgb(0%,0%,100%);fill-opacity:1;" d="M 177.644531 110 C 177.644531 112.667969 173.644531 112.667969 173.644531 110 C 173.644531 107.332031 177.644531 107.332031 177.644531 110 "/>
<path style=" stroke:none;fill-rule:nonzero;fill:rgb(0%,0%,100%);fill-opacity:1;" d="M 177.644531 110 C 177.644531 112.667969 173.644531 112.667969 173.644531 110 C 173.644531 107.332031 177.644531 107.332031 177.644531 110 "/>
<path style=" stroke:none;fill-rule:nonzero;fill:rgb(0%,0%,100%);fill-opacity:1;" d="M 201.105469 134.25 C 201.105469 136.914062 197.105469 136.914062 197.105469 134.25 C 197.105469 131.582031 201.105469 131.582031 201.105469 134.25 "/>
<path style=" stroke:none;fill-rule:nonzero;fill:rgb(0%,0%,100%);fill-opacity:1;" d="M 201.105469 134.25 C 201.105469 136.914062 197.105469 136.914062 197.105469 134.25 C 197.105469 131.582031 201.105469 131.582031 201.105469 134.25 "/>
<path style=" stroke:none;fill-rule:nonzero;fill:rgb(0%,0%,100%);fill-opacity:1;" d="M 185.464844 134.25 C 185.464844 136.914062 181.464844 136.914062 181.464844 134.25 C 181.464844 131.582031 185.464844 131.582031 185.464844 134.25 "/>
<path style=" stroke:none;fill-rule:nonzero;fill:rgb(0%,0%,100%);fill-opacity:1;" d="M 177.644531 158.496094 C 177.644531 161.164062 173.644531 161.164062 173.644531 158.496094 C 173.644531 155.832031 177.644531 155.832031 177.644531 158.496094 "/>
<path style=" stroke:none;fill-rule:nonzero;fill:rgb(0%,0%,100%);fill-opacity:1;" d="M 177.644531 158.496094 C 177.644531 161.164062 173.644531 161.164062 173.644531 158.496094 C 173.644531 155.832031 177.644531 155.832031 177.644531 158.496094 "/>
<path style=" stroke:none;fill-rule:nonzero;fill:rgb(0%,0%,100%);fill-opacity:1;" d="M 201.105469 182.746094 C 201.105469 185.410156 197.105469 185.410156 197.105469 182.746094 C 197.105469 180.078125 201.105469 180.078125 201.105469 182.746094 "/>
<path style=" stroke:none;fill-rule:nonzero;fill:rgb(0%,0%,100%);fill-opacity:1;" d="M 201.105469 182.746094 C 201.105469 185.410156 197.105469 185.410156 197.105469 182.746094 C 197.105469 180.078125 201.105469 180.078125 201.105469 182.746094 "/>
<path style=" stroke:none;fill-rule:nonzero;fill:rgb(0%,0%,100%);fill-opacity:1;" d="M 185.464844 182.746094 C 185.464844 185.410156 181.464844 185.410156 181.464844 182.746094 C 181.464844 180.078125 185.464844 180.078125 185.464844 182.746094 "/>
<path style=" stroke:none;fill-rule:nonzero;fill:rgb(0%,0%,100%);fill-opacity:1;" d="M 208.929688 158.496094 C 208.929688 161.164062 204.929688 161.164062 204.929688 158.496094 C 204.929688 155.832031 208.929688 155.832031 208.929688 158.496094 "/>
<path style=" stroke:none;fill-rule:nonzero;fill:rgb(0%,0%,100%);fill-opacity:1;" d="M 224.570312 110 C 224.570312 112.667969 220.570312 112.667969 220.570312 110 C 220.570312 107.332031 224.570312 107.332031 224.570312 110 "/>
<path style=" stroke:none;fill-rule:nonzero;fill:rgb(0%,0%,100%);fill-opacity:1;" d="M 224.570312 110 C 224.570312 112.667969 220.570312 112.667969 220.570312 110 C 220.570312 107.332031 224.570312 107.332031 224.570312 110 "/>
<path style=" stroke:none;fill-rule:nonzero;fill:rgb(0%,0%,100%);fill-opacity:1;" d="M 232.390625 134.25 C 232.390625 136.914062 228.390625 136.914062 228.390625 134.25 C 228.390625 131.582031 232.390625 131.582031 232.390625 134.25 "/>
<path style=" stroke:none;fill-rule:nonzero;fill:rgb(0%,0%,100%);fill-opacity:1;" d="M 232.390625 134.25 C 232.390625 136.914062 228.390625 136.914062 228.390625 134.25 C 228.390625 131.582031 232.390625 131.582031 232.390625 134.25 "/>
<path style=" stroke:none;fill-rule:nonzero;fill:rgb(0%,0%,100%);fill-opacity:1;" d="M 224.570312 158.496094 C 224.570312 161.164062 220.570312 161.164062 220.570312 158.496094 C 220.570312 155.832031 224.570312 155.832031 224.570312 158.496094 "/>
<path style=" stroke:none;fill-rule:nonzero;fill:rgb(0%,0%,100%);fill-opacity:1;" d="M 224.570312 158.496094 C 224.570312 161.164062 220.570312 161.164062 220.570312 158.496094 C 220.570312 155.832031 224.570312 155.832031 224.570312 158.496094 "/>
<path style=" stroke:none;fill-rule:nonzero;fill:rgb(0%,0%,100%);fill-opacity:1;" d="M 232.390625 182.746094 C 232.390625 185.410156 228.390625 185.410156 228.390625 182.746094 C 228.390625 180.078125 232.390625 180.078125 232.390625 182.746094 "/>
<path style=" stroke:none;fill-rule:nonzero;fill:rgb(0%,0%,100%);fill-opacity:1;" d="M 232.390625 182.746094 C 232.390625 185.410156 228.390625 185.410156 228.390625 182.746094 C 228.390625 180.078125 232.390625 180.078125 232.390625 182.746094 "/>
<path style="fill:none;stroke-width:1;stroke-linecap:butt;stroke-linejoin:miter;stroke:rgb(100%,80%,0%);stroke-opacity:1;stroke-miterlimit:10;" d="M 160.542969 110.027344 L 160 110 "/>
<path style="fill:none;stroke-width:1;stroke-linecap:butt;stroke-linejoin:miter;stroke:rgb(100%,80%,0%);stroke-opacity:1;stroke-miterlimit:10;" d="M 168.304688 134.300781 L 167.820312 134.25 "/>
<path style="fill:none;stroke-width:1;stroke-linecap:butt;stroke-linejoin:miter;stroke:rgb(100%,80%,0%);stroke-opacity:1;stroke-miterlimit:10;" d="M 168.726562 134.238281 L 167.820312 134.25 "/>
<path style="fill:none;stroke-width:1;stroke-linecap:butt;stroke-linejoin:miter;stroke:rgb(100%,80%,0%);stroke-opacity:1;stroke-miterlimit:10;" d="M 191.757812 110.320312 L 191.285156 110 "/>
<path style="fill:none;stroke-width:1;stroke-linecap:butt;stroke-linejoin:miter;stroke:rgb(100%,80%,0%);stroke-opacity:1;stroke-miterlimit:10;" d="M 191.828125 109.679688 L 191.285156 110 "/>
<path style="fill:none;stroke-width:1;stroke-linecap:butt;stroke-linejoin:miter;stroke:rgb(100%,80%,0%);stroke-opacity:1;stroke-miterlimit:10;" d="M 161.007812 158.464844 L 160 158.496094 "/>
<path style="fill:none;stroke-width:1;stroke-linecap:butt;stroke-linejoin:miter;stroke:rgb(100%,80%,0%);stroke-opacity:1;stroke-miterlimit:10;" d="M 168.574219 182.691406 L 167.820312 182.746094 "/>
<path style="fill:none;stroke-width:1;stroke-linecap:butt;stroke-linejoin:miter;stroke:rgb(100%,80%,0%);stroke-opacity:1;stroke-miterlimit:10;" d="M 168.386719 182.742188 L 167.820312 182.746094 "/>
<path style="fill:none;stroke-width:1;stroke-linecap:butt;stroke-linejoin:miter;stroke:rgb(100%,80%,0%);stroke-opacity:1;stroke-miterlimit:10;" d="M 191.632812 158.214844 L 191.285156 158.496094 "/>
<path style="fill:none;stroke-width:1;stroke-linecap:butt;stroke-linejoin:miter;stroke:rgb(100%,80%,0%);stroke-opacity:1;stroke-miterlimit:10;" d="M 191.773438 158.777344 L 191.285156 158.496094 "/>
<path style="fill:none;stroke-width:1;stroke-linecap:butt;stroke-linejoin:miter;stroke:rgb(100%,80%,0%);stroke-opacity:1;stroke-miterlimit:10;" d="M 212.519531 134.28125 L 214.75 134.25 "/>
<path style="fill:none;stroke-width:1;stroke-linecap:butt;stroke-linejoin:miter;stroke:rgb(100%,80%,0%);stroke-opacity:1;stroke-miterlimit:10;" d="M 212.542969 182.726562 L 214.75 182.746094 "/>
<path style="fill:none;stroke-width:1;stroke-linecap:butt;stroke-linejoin:miter;stroke:rgb(100%,80%,0%);stroke-opacity:1;stroke-miterlimit:10;" d="M 175.597656 110.0625 L 175.644531 110 "/>
<path style="fill:none;stroke-width:1;stroke-linecap:butt;stroke-linejoin:miter;stroke:rgb(100%,80%,0%);stroke-opacity:1;stroke-miterlimit:10;" d="M 175.847656 109.933594 L 175.644531 110 "/>
<path style="fill:none;stroke-width:1;stroke-linecap:butt;stroke-linejoin:miter;stroke:rgb(100%,80%,0%);stroke-opacity:1;stroke-miterlimit:10;" d="M 199.578125 134.367188 L 199.105469 134.25 "/>
<path style="fill:none;stroke-width:1;stroke-linecap:butt;stroke-linejoin:miter;stroke:rgb(100%,80%,0%);stroke-opacity:1;stroke-miterlimit:10;" d="M 199.640625 134.25 L 199.105469 134.25 "/>
<path style="fill:none;stroke-width:1;stroke-linecap:butt;stroke-linejoin:miter;stroke:rgb(100%,80%,0%);stroke-opacity:1;stroke-miterlimit:10;" d="M 183.589844 133.738281 L 183.464844 134.25 "/>
<path style="fill:none;stroke-width:1;stroke-linecap:butt;stroke-linejoin:miter;stroke:rgb(100%,80%,0%);stroke-opacity:1;stroke-miterlimit:10;" d="M 176.050781 158.492188 L 175.644531 158.496094 "/>
<path style="fill:none;stroke-width:1;stroke-linecap:butt;stroke-linejoin:miter;stroke:rgb(100%,80%,0%);stroke-opacity:1;stroke-miterlimit:10;" d="M 176.050781 158.519531 L 175.644531 158.496094 "/>
<path style="fill:none;stroke-width:1;stroke-linecap:butt;stroke-linejoin:miter;stroke:rgb(100%,80%,0%);stroke-opacity:1;stroke-miterlimit:10;" d="M 199.507812 182.691406 L 199.105469 182.746094 "/>
<path style="fill:none;stroke-width:1;stroke-linecap:butt;stroke-linejoin:miter;stroke:rgb(100%,80%,0%);stroke-opacity:1;stroke-miterlimit:10;" d="M 199.703125 182.699219 L 199.105469 182.746094 "/>
<path style="fill:none;stroke-width:1;stroke-linecap:butt;stroke-linejoin:miter;stroke:rgb(100%,80%,0%);stroke-opacity:1;stroke-miterlimit:10;" d="M 183.609375 183.25 L 183.464844 182.746094 "/>
<path style="fill:none;stroke-width:1;stroke-linecap:butt;stroke-linejoin:miter;stroke:rgb(100%,80%,0%);stroke-opacity:1;stroke-miterlimit:10;" d="M 208.371094 158.476562 L 206.929688 158.496094 "/>
<path style="fill:none;stroke-width:1;stroke-linecap:butt;stroke-linejoin:miter;stroke:rgb(100%,80%,0%);stroke-opacity:1;stroke-miterlimit:10;" d="M 221.683594 110.054688 L 222.570312 110 "/>
<path style="fill:none;stroke-width:1;stroke-linecap:butt;stroke-linejoin:miter;stroke:rgb(100%,80%,0%);stroke-opacity:1;stroke-miterlimit:10;" d="M 221.796875 109.949219 L 222.570312 110 "/>
<path style="fill:none;stroke-width:1;stroke-linecap:butt;stroke-linejoin:miter;stroke:rgb(100%,80%,0%);stroke-opacity:1;stroke-miterlimit:10;" d="M 229.578125 134.675781 L 230.390625 134.25 "/>
<path style="fill:none;stroke-width:1;stroke-linecap:butt;stroke-linejoin:miter;stroke:rgb(100%,80%,0%);stroke-opacity:1;stroke-miterlimit:10;" d="M 229.65625 134.40625 L 230.390625 134.25 "/>
<path style="fill:none;stroke-width:1;stroke-linecap:butt;stroke-linejoin:miter;stroke:rgb(100%,80%,0%);stroke-opacity:1;stroke-miterlimit:10;" d="M 221.707031 158.472656 L 222.570312 158.496094 "/>
<path style="fill:none;stroke-width:1;stroke-linecap:butt;stroke-linejoin:miter;stroke:rgb(100%,80%,0%);stroke-opacity:1;stroke-miterlimit:10;" d="M 221.855469 158.507812 L 222.570312 158.496094 "/>
<path style="fill:none;stroke-width:1;stroke-linecap:butt;stroke-linejoin:miter;stroke:rgb(100%,80%,0%);stroke-opacity:1;stroke-miterlimit:10;" d="M 229.472656 182.371094 L 230.390625 182.746094 "/>
<path style="fill:none;stroke-width:1;stroke-linecap:butt;stroke-linejoin:miter;stroke:rgb(100%,80%,0%);stroke-opacity:1;stroke-miterlimit:10;" d="M 229.742188 182.542969 L 230.390625 182.746094 "/>
</g>
</svg>
