<?xml version="1.0" encoding="UTF-8"?>
<svg xmlns="http://www.w3.org/2000/svg" xmlns:xlink="http://www.w3.org/1999/xlink" width="300pt" height="200pt" viewBox="0 0 300 200" version="1.1">
<g id="surface1">
<rect x="0" y="0" width="300" height="200" style="fill:rgb(80%,80%,80%);fill-opacity:1;stroke:none;"/>
<path style="fill:none;stroke-width:1;stroke-linecap:butt;stroke-linejoin:miter;stroke:rgb(0%,0%,0%);stroke-opacity:1;stroke-miterlimit:10;" d="M 10 72.863281 L 510 72.863281 "/>
<path style="fill:none;stroke-width:1;stroke-linecap:butt;stroke-linejoin:miter;stroke:rgb(0%,0%,100%);stroke-opacity:1;stroke-miterlimit:10;" d="M 70.511719 72.863281 C 70.511719 76.863281 64.511719 76.863281 64.511719 72.863281 C 64.511719 68.863281 70.511719 68.863281 70.511719 72.863281 "/>
<path style=" stroke:none;fill-rule:nonzero;fill:rgb(0%,0%,100%);fill-opacity:1;" d="M 88.679688 66.472656 C 88.679688 69.140625 84.679688 69.140625 84.679688 66.472656 C 84.679688 63.804688 88.679688 63.804688 88.679688 66.472656 "/>
<path style=" stroke:none;fill-rule:nonzero;fill:rgb(0%,0%,100%);fill-opacity:1;" d="M 50.339844 66.472656 C 50.339844 69.140625 46.339844 69.140625 46.339844 66.472656 C 46.339844 63.804688 50.339844 63.804688 50.339844 66.472656 "/>
<path style="fill:none;stroke-width:1;stroke-linecap:butt;stroke-linejoin:miter;stroke:rgb(0%,0%,100%);stroke-opacity:1;stroke-miterlimit:10;" d="M 83.289062 47.304688 C 83.289062 51.304688 77.289062 51.304688 77.289062 47.304688 C 77.289062 43.304688 83.289062 43.304688 83.289062 47.304688 "/>
<path style="fill:none;stroke-width:1;stroke-linecap:butt;stroke-linejoin:miter;stroke:rgb(0%,0%,100%);stroke-opacity:1;stroke-miterlimit:10;" d="M 57.730469 47.304688 C 57.730469 51.304688 51.730469 51.304688 51.730469 47.304688 C 51.730469 43.304688 57.730469 43.304688 57.730469 47.304688 "/>
<path style=" stroke:none;fill-rule:nonzero;fill:rgb(0%,0%,100%);fill-opacity:1;" d="M 69.511719 72.863281 C 69.511719 75.53125 65.511719 75.53125 65.511719 72.863281 C 65.511719 70.195312 69.511719 70.195312 69.511719 72.863281 "/>
<path style=" stroke:none;fill-rule:nonzero;fill:rgb(0%,0%,100%);fill-opacity:1;" d="M 88.679688 66.472656 C 88.679688 69.140625 84.679688 69.140625 84.679688 66.472656 C 84.679688 63.804688 88.679688 63.804688 88.679688 66.472656 "/>
<path style=" stroke:none;fill-rule:nonzero;fill:rgb(0%,0%,100%);fill-opacity:1;" d="M 50.339844 66.472656 C 50.339844 69.140625 46.339844 69.140625 46.339844 66.472656 C 46.339844 63.804688 50.339844 63.804688 50.339844 66.472656 "/>
<path style=" stroke:none;fill-rule:nonzero;fill:rgb(0%,0%,100%);fill-opacity:1;" d="M 82.289062 47.304688 C 82.289062 49.96875 78.289062 49.96875 78.289062 47.304688 C 78.289062 44.636719 82.289062 44.636719 82.289062 47.304688 "/>
<path style=" stroke:none;fill-rule:nonzero;fill:rgb(0%,0%,100%);fill-opacity:1;" d="M 56.730469 47.304688 C 56.730469 49.96875 52.730469 49.96875 52.730469 47.304688 C 52.730469 44.636719 56.730469 44.636719 56.730469 47.304688 "/>
<path style=" stroke:none;fill-rule:nonzero;fill:rgb(0%,0%,100%);fill-opacity:1;" d="M 75.898438 28.132812 C 75.898438 30.800781 71.898438 30.800781 71.898438 28.132812 C 71.898438 25.464844 75.898438 25.464844 75.898438 28.132812 "/>
<path style=" stroke:none;fill-rule:nonzero;fill:rgb(0%,0%,100%);fill-opacity:1;" d="M 63.121094 28.132812 C 63.121094 30.800781 59.121094 30.800781 59.121094 28.132812 C 59.121094 25.464844 63.121094 25.464844 63.121094 28.132812 "/>
<path style=" stroke:none;fill-rule:nonzero;fill:rgb(0%,0%,100%);fill-opacity:1;" d="M 75.898438 28.132812 C 75.898438 30.800781 71.898438 30.800781 71.898438 28.132812 C 71.898438 25.464844 75.898438 25.464844 75.898438 28.132812 "/>
<path style=" stroke:none;fill-rule:nonzero;fill:rgb(0%,0%,100%);fill-opacity:1;" d="M 63.121094 28.132812 C 63.121094 30.800781 59.121094 30.800781 59.121094 28.132812 C 59.121094 25.464844 63.121094 25.464844 63.121094 28.132812 "/>
<path style="fill:none;stroke-width:1;stroke-linecap:butt;stroke-linejoin:miter;stroke:rgb(0%,0%,100%);stroke-opacity:1;stroke-miterlimit:10;" d="M 108.851562 60.082031 C 108.851562 64.082031 102.851562 64.082031 102.851562 60.082031 C 102.851562 56.082031 108.851562 56.082031 108.851562 60.082031 "/>
<path style="fill:none;stroke-width:1;stroke-linecap:butt;stroke-linejoin:miter;stroke:rgb(0%,0%,100%);stroke-opacity:1;stroke-miterlimit:10;" d="M 32.171875 60.082031 C 32.171875 64.082031 26.171875 64.082031 26.171875 60.082031 C 26.171875 56.082031 32.171875 56.082031 32.171875 60.082031 "/>
<path style=" stroke:none;fill-rule:nonzero;fill:rgb(0%,0%,100%);fill-opacity:1;" d="M 101.460938 40.914062 C 101.460938 43.578125 97.460938 43.578125 97.460938 40.914062 C 97.460938 38.246094 101.460938 38.246094 101.460938 40.914062 "/>
<path style=" stroke:none;fill-rule:nonzero;fill:rgb(0%,0%,100%);fill-opacity:1;" d="M 37.558594 40.914062 C 37.558594 43.578125 33.558594 43.578125 33.558594 40.914062 C 33.558594 38.246094 37.558594 38.246094 37.558594 40.914062 "/>
<path style=" stroke:none;fill-rule:nonzero;fill:rgb(0%,0%,100%);fill-opacity:1;" d="M 12 53.691406 C 12 56.359375 8 56.359375 8 53.691406 C 8 51.027344 12 51.027344 12 53.691406 "/>
<path style="fill:none;stroke-width:1;stroke-linecap:butt;stroke-linejoin:miter;stroke:rgb(0%,0%,100%);stroke-opacity:1;stroke-miterlimit:10;" d="M 121.628906 34.523438 C 121.628906 38.523438 115.628906 38.523438 115.628906 34.523438 C 115.628906 30.523438 121.628906 30.523438 121.628906 34.523438 "/>
<path style="fill:none;stroke-width:1;stroke-linecap:butt;stroke-linejoin:miter;stroke:rgb(0%,0%,100%);stroke-opacity:1;stroke-miterlimit:10;" d="M 19.390625 34.523438 C 19.390625 38.523438 13.390625 38.523438 13.390625 34.523438 C 13.390625 30.523438 19.390625 30.523438 19.390625 34.523438 "/>
<path style=" stroke:none;fill-rule:nonzero;fill:rgb(0%,0%,100%);fill-opacity:1;" d="M 107.851562 60.082031 C 107.851562 62.75 103.851562 62.75 103.851562 60.082031 C 103.851562 57.417969 107.851562 57.417969 107.851562 60.082031 "/>
<path style=" stroke:none;fill-rule:nonzero;fill:rgb(0%,0%,100%);fill-opacity:1;" d="M 31.171875 60.082031 C 31.171875 62.75 27.171875 62.75 27.171875 60.082031 C 27.171875 57.417969 31.171875 57.417969 31.171875 60.082031 "/>
<path style=" stroke:none;fill-rule:nonzero;fill:rgb(0%,0%,100%);fill-opacity:1;" d="M 101.460938 40.914062 C 101.460938 43.578125 97.460938 43.578125 97.460938 40.914062 C 97.460938 38.246094 101.460938 38.246094 101.460938 40.914062 "/>
<path style=" stroke:none;fill-rule:nonzero;fill:rgb(0%,0%,100%);fill-opacity:1;" d="M 37.558594 40.914062 C 37.558594 43.578125 33.558594 43.578125 33.558594 40.914062 C 33.558594 38.246094 37.558594 38.246094 37.558594 40.914062 "/>
<path style=" stroke:none;fill-rule:nonzero;fill:rgb(0%,0%,100%);fill-opacity:1;" d="M 12 53.691406 C 12 56.359375 8 56.359375 8 53.691406 C 8 51.027344 12 51.027344 12 53.691406 "/>
<path style=" stroke:none;fill-rule:nonzero;fill:rgb(0%,0%,100%);fill-opacity:1;" d="M 120.628906 34.523438 C 120.628906 37.191406 116.628906 37.191406 116.628906 34.523438 C 116.628906 31.855469 120.628906 31.855469 120.628906 34.523438 "/>
<path style=" stroke:none;fill-rule:nonzero;fill:rgb(0%,0%,100%);fill-opacity:1;" d="M 18.390625 34.523438 C 18.390625 37.191406 14.390625 37.191406 14.390625 34.523438 C 14.390625 31.855469 18.390625 31.855469 18.390625 34.523438 "/>
<path style="fill:none;stroke-width:1;stroke-linecap:butt;stroke-linejoin:miter;stroke:rgb(0%,0%,100%);stroke-opacity:1;stroke-miterlimit:10;" d="M 96.070312 21.742188 C 96.070312 25.742188 90.070312 25.742188 90.070312 21.742188 C 90.070312 17.742188 96.070312 17.742188 96.070312 21.742188 "/>
<path style="fill:none;stroke-width:1;stroke-linecap:butt;stroke-linejoin:miter;stroke:rgb(0%,0%,100%);stroke-opacity:1;stroke-miterlimit:10;" d="M 44.949219 21.742188 C 44.949219 25.742188 38.949219 25.742188 38.949219 21.742188 C 38.949219 17.742188 44.949219 17.742188 44.949219 21.742188 "/>
<path style=" stroke:none;fill-rule:nonzero;fill:rgb(0%,0%,100%);fill-opacity:1;" d="M 114.238281 15.351562 C 114.238281 18.019531 110.238281 18.019531 110.238281 15.351562 C 110.238281 12.6875 114.238281 12.6875 114.238281 15.351562 "/>
<path style=" stroke:none;fill-rule:nonzero;fill:rgb(0%,0%,100%);fill-opacity:1;" d="M 24.78125 15.351562 C 24.78125 18.019531 20.78125 18.019531 20.78125 15.351562 C 20.78125 12.6875 24.78125 12.6875 24.78125 15.351562 "/>
<path style=" stroke:none;fill-rule:nonzero;fill:rgb(0%,0%,100%);fill-opacity:1;" d="M 95.070312 21.742188 C 95.070312 24.410156 91.070312 24.410156 91.070312 21.742188 C 91.070312 19.078125 95.070312 19.078125 95.070312 21.742188 "/>
<path style=" stroke:none;fill-rule:nonzero;fill:rgb(0%,0%,100%);fill-opacity:1;" d="M 43.949219 21.742188 C 43.949219 24.410156 39.949219 24.410156 39.949219 21.742188 C 39.949219 19.078125 43.949219 19.078125 43.949219 21.742188 "/>
<path style=" stroke:none;fill-rule:nonzero;fill:rgb(0%,0%,100%);fill-opacity:1;" d="M 114.238281 15.351562 C 114.238281 18.019531 110.238281 18.019531 110.238281 15.351562 C 110.238281 12.6875 114.238281 12.6875 114.238281 15.351562 "/>
<path style=" stroke:none;fill-rule:nonzero;fill:rgb(0%,0%,100%);fill-opacity:1;" d="M 24.78125 15.351562 C 24.78125 18.019531 20.78125 18.019531 20.78125 15.351562 C 20.78125 12.6875 24.78125 12.6875 24.78125 15.351562 "/>
<path style="fill:none;stroke-width:1;stroke-linecap:butt;stroke-linejoin:miter;stroke:rgb(100%,80%,0%);stroke-opacity:1;stroke-miterlimit:10;" d="M 67.511719 72.863281 L 67.511719 72.863281 "/>
<path style="fill:none;stroke-width:1;stroke-linecap:butt;stroke-linejoin:miter;stroke:rgb(100%,80%,0%);stroke-opacity:1;stroke-miterlimit:10;" d="M 86.679688 66.472656 L 86.679688 66.472656 "/>
<path style="fill:none;stroke-width:1;stroke-linecap:butt;stroke-linejoin:miter;stroke:rgb(100%,80%,0%);stroke-opacity:1;stroke-miterlimit:10;" d="M 48.339844 66.472656 L 48.339844 66.472656 "/>
<path style="fill:none;stroke-width:1;stroke-linecap:butt;stroke-linejoin:miter;stroke:rgb(100%,80%,0%);stroke-opacity:1;stroke-miterlimit:10;" d="M 80.289062 47.304688 L 80.289062 47.304688 "/>
<path style="fill:none;stroke-width:1;stroke-linecap:butt;stroke-linejoin:miter;stroke:rgb(100%,80%,0%);stroke-opacity:1;stroke-miterlimit:10;" d="M 54.730469 47.304688 L 54.730469 47.304688 "/>
<path style="fill:none;stroke-width:1;stroke-linecap:butt;stroke-linejoin:miter;stroke:rgb(100%,80%,0%);stroke-opacity:1;stroke-miterlimit:10;" d="M 67.511719 72.863281 L 67.511719 72.863281 "/>
<path style="fill:none;stroke-width:1;stroke-linecap:butt;stroke-linejoin:miter;stroke:rgb(100%,80%,0%);stroke-opacity:1;stroke-miterlimit:10;" d="M 86.679688 66.472656 L 86.679688 66.472656 "/>
<path style="fill:none;stroke-width:1;stroke-linecap:butt;stroke-linejoin:miter;stroke:rgb(100%,80%,0%);stroke-opacity:1;stroke-miterlimit:10;" d="M 48.339844 66.472656 L 48.339844 66.472656 "/>
<path style="fill:none;stroke-width:1;stroke-linecap:butt;stroke-linejoin:miter;stroke:rgb(100%,80%,0%);stroke-opacity:1;stroke-miterlimit:10;" d="M 80.289062 47.304688 L 80.289062 47.304688 "/>
<path style="fill:none;stroke-width:1;stroke-linecap:butt;stroke-linejoin:miter;stroke:rgb(100%,80%,0%);stroke-opacity:1;stroke-miterlimit:10;" d="M 54.730469 47.304688 L 54.730469 47.304688 "/>
<path style="fill:none;stroke-width:1;stroke-linecap:butt;stroke-linejoin:miter;stroke:rgb(100%,80%,0%);stroke-opacity:1;stroke-miterlimit:10;" d="M 73.898438 28.132812 L 73.898438 28.132812 "/>
<path style="fill:none;stroke-width:1;stroke-linecap:butt;stroke-linejoin:miter;stroke:rgb(100%,80%,0%);stroke-opacity:1;stroke-miterlimit:10;" d="M 61.121094 28.132812 L 61.121094 28.132812 "/>
<path style="fill:none;stroke-width:1;stroke-linecap:butt;stroke-linejoin:miter;stroke:rgb(100%,80%,0%);stroke-opacity:1;stroke-miterlimit:10;" d="M 73.898438 28.132812 L 73.898438 28.132812 "/>
<path style="fill:none;stroke-width:1;stroke-linecap:butt;stroke-linejoin:miter;stroke:rgb(100%,80%,0%);stroke-opacity:1;stroke-miterlimit:10;" d="M 61.121094 28.132812 L 61.121094 28.132812 "/>
<path style="fill:none;stroke-width:1;stroke-linecap:butt;stroke-linejoin:miter;stroke:rgb(100%,80%,0%);stroke-opacity:1;stroke-miterlimit:10;" d="M 105.851562 60.082031 L 105.851562 60.082031 "/>
<path style="fill:none;stroke-width:1;stroke-linecap:butt;stroke-linejoin:miter;stroke:rgb(100%,80%,0%);stroke-opacity:1;stroke-miterlimit:10;" d="M 29.171875 60.082031 L 29.171875 60.082031 "/>
<path style="fill:none;stroke-width:1;stroke-linecap:butt;stroke-linejoin:miter;stroke:rgb(100%,80%,0%);stroke-opacity:1;stroke-miterlimit:10;" d="M 99.460938 40.914062 L 99.460938 40.914062 "/>
<path style="fill:none;stroke-width:1;stroke-linecap:butt;stroke-linejoin:miter;stroke:rgb(100%,80%,0%);stroke-opacity:1;stroke-miterlimit:10;" d="M 35.558594 40.914062 L 35.558594 40.914062 "/>
<path style="fill:none;stroke-width:1;stroke-linecap:butt;stroke-linejoin:miter;stroke:rgb(100%,80%,0%);stroke-opacity:1;stroke-miterlimit:10;" d="M 10 53.691406 L 10 53.691406 "/>
<path style="fill:none;stroke-width:1;stroke-linecap:butt;stroke-linejoin:miter;stroke:rgb(100%,80%,0%);stroke-opacity:1;stroke-miterlimit:10;" d="M 118.628906 34.523438 L 118.628906 34.523438 "/>
<path style="fill:none;stroke-width:1;stroke-linecap:butt;stroke-linejoin:miter;stroke:rgb(100%,80%,0%);stroke-opacity:1;stroke-miterlimit:10;" d="M 16.390625 34.523438 L 16.390625 34.523438 "/>
<path style="fill:none;stroke-width:1;stroke-linecap:butt;stroke-linejoin:miter;stroke:rgb(100%,80%,0%);stroke-opacity:1;stroke-miterlimit:10;" d="M 105.851562 60.082031 L 105.851562 60.082031 "/>
<path style="fill:none;stroke-width:1;stroke-linecap:butt;stroke-linejoin:miter;stroke:rgb(100%,80%,0%);stroke-opacity:1;stroke-miterlimit:10;" d="M 29.171875 60.082031 L 29.171875 60.082031 "/>
<path style="fill:none;stroke-width:1;stroke-linecap:butt;stroke-linejoin:miter;stroke:rgb(100%,80%,0%);stroke-opacity:1;stroke-miterlimit:10;" d="M 99.460938 40.914062 L 99.460938 40.914062 "/>
<path style="fill:none;stroke-width:1;stroke-linecap:butt;stroke-linejoin:miter;stroke:rgb(100%,80%,0%);stroke-opacity:1;stroke-miterlimit:10;" d="M 35.558594 40.914062 L 35.558594 40.914062 "/>
<path style="fill:none;stroke-width:1;stroke-linecap:butt;stroke-linejoin:miter;stroke:rgb(100%,80%,0%);stroke-opacity:1;stroke-miterlimit:10;" d="M 10 53.691406 L 10 53.691406 "/>
<path style="fill:none;stroke-width:1;stroke-linecap:butt;stroke-linejoin:miter;stroke:rgb(100%,80%,0%);stroke-opacity:1;stroke-miterlimit:10;" d="M 118.628906 34.523438 L 118.628906 34.523438 "/>
<path style="fill:none;stroke-width:1;stroke-linecap:butt;stroke-linejoin:miter;stroke:rgb(100%,80%,0%);stroke-opacity:1;stroke-miterlimit:10;" d="M 16.390625 34.523438 L 16.390625 34.523438 "/>
<path style="fill:none;stroke-width:1;stroke-linecap:butt;stroke-linejoin:miter;stroke:rgb(100%,80%,0%);stroke-opacity:1;stroke-miterlimit:10;" d="M 93.070312 21.742188 L 93.070312 21.742188 "/>
<path style="fill:none;stroke-width:1;stroke-linecap:butt;stroke-linejoin:miter;stroke:rgb(100%,80%,0%);stroke-opacity:1;stroke-miterlimit:10;" d="M 41.949219 21.742188 L 41.949219 21.742188 "/>
<path style="fill:none;stroke-width:1;stroke-linecap:butt;stroke-linejoin:miter;stroke:rgb(100%,80%,0%);stroke-opacity:1;stroke-miterlimit:10;" d="M 112.238281 15.351562 L 112.238281 15.351562 "/>
<path style="fill:none;stroke-width:1;stroke-linecap:butt;stroke-linejoin:miter;stroke:rgb(100%,80%,0%);stroke-opacity:1;stroke-miterlimit:10;" d="M 22.78125 15.351562 L 22.78125 15.351562 "/>
<path style="fill:none;stroke-width:1;stroke-linecap:butt;stroke-linejoin:miter;stroke:rgb(100%,80%,0%);stroke-opacity:1;stroke-miterlimit:10;" d="M 93.070312 21.742188 L 93.070312 21.742188 "/>
<path style="fill:none;stroke-width:1;stroke-linecap:butt;stroke-linejoin:miter;stroke:rgb(100%,80%,0%);stroke-opacity:1;stroke-miterlimit:10;" d="M 41.949219 21.742188 L 41.949219 21.742188 "/>
<path style="fill:none;stroke-width:1;stroke-linecap:butt;stroke-linejoin:miter;stroke:rgb(100%,80%,0%);stroke-opacity:1;stroke-miterlimit:10;" d="M 112.238281 15.351562 L 112.238281 15.351562 "/>
<path style="fill:none;stroke-width:1;stroke-linecap:butt;stroke-linejoin:miter;stroke:rgb(100%,80%,0%);stroke-opacity:1;stroke-miterlimit:10;" d="M 22.78125 15.351562 L 22.78125 15.351562 "/>
</g>
</svg>
