<?xml version="1.0" encoding="UTF-8"?>
<svg xmlns="http://www.w3.org/2000/svg" xmlns:xlink="http://www.w3.org/1999/xlink" width="300pt" height="200pt" viewBox="0 0 300 200" version="1.1">
<g id="surface1">
<rect x="0" y="0" width="300" height="200" style="fill:rgb(80%,80%,80%);fill-opacity:1;stroke:none;"/>
<path style="fill:none;stroke-width:0.2;stroke-linecap:butt;stroke-linejoin:miter;stroke:rgb(0%,0%,0%);stroke-opacity:1;stroke-miterlimit:10;" d="M 10 10 L 10 72.863281 L 125.019531 72.863281 L 125.019531 10 L 10 10 "/>
<path style="fill:none;stroke-width:0.2;stroke-linecap:butt;stroke-linejoin:miter;stroke:rgb(0%,0%,100%);stroke-opacity:1;stroke-miterlimit:10;" d="M 70.511719 72.863281 C 70.511719 76.863281 64.511719 76.863281 64.511719 72.863281 C 64.511719 68.863281 70.511719 68.863281 70.511719 72.863281 "/>
<path style=" stroke:none;fill-rule:nonzero;fill:rgb(0%,0%,100%);fill-opacity:1;" d="M 88.679688 66.472656 C 88.679688 69.140625 84.679688 69.140625 84.679688 66.472656 C 84.679688 63.804688 88.679688 63.804688 88.679688 66.472656 "/>
<path style=" stroke:none;fill-rule:nonzero;fill:rgb(0%,0%,100%);fill-opacity:1;" d="M 50.339844 66.472656 C 50.339844 69.140625 46.339844 69.140625 46.339844 66.472656 C 46.339844 63.804688 50.339844 63.804688 50.339844 66.472656 "/>
<path style="fill:none;stroke-width:0.2;stroke-linecap:butt;stroke-linejoin:miter;stroke:rgb(0%,0%,100%);stroke-opacity:1;stroke-miterlimit:10;" d="M 83.289062 47.304688 C 83.289062 51.304688 77.289062 51.304688 77.289062 47.304688 C 77.289062 43.304688 83.289062 43.304688 83.289062 47.304688 "/>
<path style="fill:none;stroke-width:0.2;stroke-linecap:butt;stroke-linejoin:miter;stroke:rgb(0%,0%,100%);stroke-opacity:1;stroke-miterlimit:10;" d="M 57.730469 47.304688 C 57.730469 51.304688 51.730469 51.304688 51.730469 47.304688 C 51.730469 43.304688 57.730469 43.304688 57.730469 47.304688 "/>
<path style=" stroke:none;fill-rule:nonzero;fill:rgb(0%,0%,100%);fill-opacity:1;" d="M 69.511719 72.863281 C 69.511719 75.53125 65.511719 75.53125 65.511719 72.863281 C 65.511719 70.195312 69.511719 70.195312 69.511719 72.863281 "/>
<path style=" stroke:none;fill-rule:nonzero;fill:rgb(0%,0%,100%);fill-opacity:1;" d="M 88.679688 66.472656 C 88.679688 69.140625 84.679688 69.140625 84.679688 66.472656 C 84.679688 63.804688 88.679688 63.804688 88.679688 66.472656 "/>
<path style=" stroke:none;fill-rule:nonzero;fill:rgb(0%,0%,100%);fill-opacity:1;" d="M 50.339844 66.472656 C 50.339844 69.140625 46.339844 69.140625 46.339844 66.472656 C 46.339844 63.804688 50.339844 63.804688 50.339844 66.472656 "/>
<path style=" stroke:none;fill-rule:nonzero;fill:rgb(0%,0%,100%);fill-opacity:1;" d="M 82.289062 47.304688 C 82.289062 49.96875 78.289062 49.96875 78.289062 47.304688 C 78.289062 44.636719 82.289062 44.636719 82.289062 47.304688 "/>
<path style=" stroke:none;fill-rule:nonzero;fill:rgb(0%,0%,100%);fill-opacity:1;" d="M 56.730469 47.304688 C 56.730469 49.96875 52.730469 49.96875 52.730469 47.304688 C 52.730469 44.636719 56.730469 44.636719 56.730469 47.304688 "/>
<path style=" stroke:none;fill-rule:nonzero;fill:rgb(0%,0%,100%);fill-opacity:1;" d="M 75.898438 28.132812 C 75.898438 30.800781 71.898438 30.800781 71.898438 28.132812 C 71.898438 25.464844 75.898438 25.464844 75.898438 28.132812 "/>
<path style=" stroke:none;fill-rule:nonzero;fill:rgb(0%,0%,100%);fill-opacity:1;" d="M 63.121094 28.132812 C 63.121094 30.800781 59.121094 30.800781 59.121094 28.132812 C 59.121094 25.464844 63.121094 25.464844 63.121094 28.132812 "/>
<path style=" stroke:none;fill-rule:nonzero;fill:rgb(0%,0%,100%);fill-opacity:1;" d="M 75.898438 28.132812 C 75.898438 30.800781 71.898438 30.800781 71.898438 28.132812 C 71.898438 25.464844 75.898438 25.464844 75.898438 28.132812 "/>
<path style=" stroke:none;fill-rule:nonzero;fill:rgb(0%,0%,100%);fill-opacity:1;" d="M 63.121094 28.132812 C 63.121094 30.800781 59.121094 30.800781 59.121094 28.132812 C 59.121094 25.464844 63.121094 25.464844 63.121094 28.132812 "/>
<path style="fill:none;stroke-width:0.2;stroke-linecap:butt;stroke-linejoin:miter;stroke:rgb(0%,0%,100%);stroke-opacity:1;stroke-miterlimit:10;" d="M 108.851562 60.082031 C 108.851562 64.082031 102.851562 64.082031 102.851562 60.082031 C 102.851562 56.082031 108.851562 56.082031 108.851562 60.082031 "/>
<path style="fill:none;stroke-width:0.2;stroke-linecap:butt;stroke-linejoin:miter;stroke:rgb(0%,0%,100%);stroke-opacity:1;stroke-miterlimit:10;" d="M 32.171875 60.082031 C 32.171875 64.082031 26.171875 64.082031 26.171875 60.082031 C 26.171875 56.082031 32.171875 56.082031 32.171875 60.082031 "/>
<path style=" stroke:none;fill-rule:nonzero;fill:rgb(0%,0%,100%);fill-opacity:1;" d="M 101.460938 40.914062 C 101.460938 43.578125 97.460938 43.578125 97.460938 40.914062 C 97.460938 38.246094 101.460938 38.246094 101.460938 40.914062 "/>
<path style=" stroke:none;fill-rule:nonzero;fill:rgb(0%,0%,100%);fill-opacity:1;" d="M 37.558594 40.914062 C 37.558594 43.578125 33.558594 43.578125 33.558594 40.914062 C 33.558594 38.246094 37.558594 38.246094 37.558594 40.914062 "/>
<path style=" stroke:none;fill-rule:nonzero;fill:rgb(0%,0%,100%);fill-opacity:1;" d="M 12 53.691406 C 12 56.359375 8 56.359375 8 53.691406 C 8 51.027344 12 51.027344 12 53.691406 "/>
<path style="fill:none;stroke-width:0.2;stroke-linecap:butt;stroke-linejoin:miter;stroke:rgb(0%,0%,100%);stroke-opacity:1;stroke-miterlimit:10;" d="M 121.628906 34.523438 C 121.628906 38.523438 115.628906 38.523438 115.628906 34.523438 C 115.628906 30.523438 121.628906 30.523438 121.628906 34.523438 "/>
<path style="fill:none;stroke-width:0.2;stroke-linecap:butt;stroke-linejoin:miter;stroke:rgb(0%,0%,100%);stroke-opacity:1;stroke-miterlimit:10;" d="M 19.390625 34.523438 C 19.390625 38.523438 13.390625 38.523438 13.390625 34.523438 C 13.390625 30.523438 19.390625 30.523438 19.390625 34.523438 "/>
<path style=" stroke:none;fill-rule:nonzero;fill:rgb(0%,0%,100%);fill-opacity:1;" d="M 107.851562 60.082031 C 107.851562 62.75 103.851562 62.75 103.851562 60.082031 C 103.851562 57.417969 107.851562 57.417969 107.851562 60.082031 "/>
<path style=" stroke:none;fill-rule:nonzero;fill:rgb(0%,0%,100%);fill-opacity:1;" d="M 31.171875 60.082031 C 31.171875 62.75 27.171875 62.75 27.171875 60.082031 C 27.171875 57.417969 31.171875 57.417969 31.171875 60.082031 "/>
<path style=" stroke:none;fill-rule:nonzero;fill:rgb(0%,0%,100%);fill-opacity:1;" d="M 101.460938 40.914062 C 101.460938 43.578125 97.460938 43.578125 97.460938 40.914062 C 97.460938 38.246094 101.460938 38.246094 101.460938 40.914062 "/>
<path style=" stroke:none;fill-rule:nonzero;fill:rgb(0%,0%,100%);fill-opacity:1;" d="M 37.558594 40.914062 C 37.558594 43.578125 33.558594 43.578125 33.558594 40.914062 C 33.558594 38.246094 37.558594 38.246094 37.558594 40.914062 "/>
<path style=" stroke:none;fill-rule:nonzero;fill:rgb(0%,0%,100%);fill-opacity:1;" d="M 12 53.691406 C 12 56.359375 8 56.359375 8 53.691406 C 8 51.027344 12 51.027344 12 53.691406 "/>
<path style=" stroke:none;fill-rule:nonzero;fill:rgb(0%,0%,100%);fill-opacity:1;" d="M 120.628906 34.523438 C 120.628906 37.191406 116.628906 37.191406 116.628906 34.523438 C 116.628906 31.855469 120.628906 31.855469 120.628906 34.523438 "/>
<path style=" stroke:none;fill-rule:nonzero;fill:rgb(0%,0%,100%);fill-opacity:1;" d="M 18.390625 34.523438 C 18.390625 37.191406 14.390625 37.191406 14.390625 34.523438 C 14.390625 31.855469 18.390625 31.855469 18.390625 34.523438 "/>
<path style="fill:none;stroke-width:0.2;stroke-linecap:butt;stroke-linejoin:miter;stroke:rgb(0%,0%,100%);stroke-opacity:1;stroke-miterlimit:10;" d="M 96.070312 21.742188 C 96.070312 25.742188 90.070312 25.742188 90.070312 21.742188 C 90.070312 17.742188 96.070312 17.742188 96.070312 21.742188 "/>
<path style="fill:none;stroke-width:0.2;stroke-linecap:butt;stroke-linejoin:miter;stroke:rgb(0%,0%,100%);stroke-opacity:1;stroke-miterlimit:10;" d="M 44.949219 21.742188 C 44.949219 25.742188 38.949219 25.742188 38.949219 21.742188 C 38.949219 17.742188 44.949219 17.742188 44.949219 21.742188 "/>
<path style=" stroke:none;fill-rule:nonzero;fill:rgb(0%,0%,100%);fill-opacity:1;" d="M 114.238281 15.351562 C 114.238281 18.019531 110.238281 18.019531 110.238281 15.351562 C 110.238281 12.6875 114.238281 12.6875 114.238281 15.351562 "/>
<path style=" stroke:none;fill-rule:nonzero;fill:rgb(0%,0%,100%);fill-opacity:1;" d="M 24.78125 15.351562 C 24.78125 18.019531 20.78125 18.019531 20.78125 15.351562 C 20.78125 12.6875 24.78125 12.6875 24.78125 15.351562 "/>
<path style=" stroke:none;fill-rule:nonzero;fill:rgb(0%,0%,100%);fill-opacity:1;" d="M 95.070312 21.742188 C 95.070312 24.410156 91.070312 24.410156 91.070312 21.742188 C 91.070312 19.078125 95.070312 19.078125 95.070312 21.742188 "/>
<path style=" stroke:none;fill-rule:nonzero;fill:rgb(0%,0%,100%);fill-opacity:1;" d="M 43.949219 21.742188 C 43.949219 24.410156 39.949219 24.410156 39.949219 21.742188 C 39.949219 19.078125 43.949219 19.078125 43.949219 21.742188 "/>
<path style=" stroke:none;fill-rule:nonzero;fill:rgb(0%,0%,100%);fill-opacity:1;" d="M 114.238281 15.351562 C 114.238281 18.019531 110.238281 18.019531 110.238281 15.351562 C 110.238281 12.6875 114.238281 12.6875 114.238281 15.351562 "/>
<path style=" stroke:none;fill-rule:nonzero;fill:rgb(0%,0%,100%);fill-opacity:1;" d="M 24.78125 15.351562 C 24.78125 18.019531 20.78125 18.019531 20.78125 15.351562 C 20.78125 12.6875 24.78125 12.6875 24.78125 15.351562 "/>
<path style="fill:none;stroke-width:0.2;stroke-linecap:butt;stroke-linejoin:miter;stroke:rgb(0%,0%,0%);stroke-opacity:1;stroke-miterlimit:10;" d="M 10 72.863281 L 10 135.726562 L 125.019531 135.726562 L 125.019531 72.863281 L 10 72.863281 "/>
<path style="fill:none;stroke-width:0.2;stroke-linecap:butt;stroke-linejoin:miter;stroke:rgb(0%,0%,100%);stroke-opacity:1;stroke-miterlimit:10;" d="M 70.511719 135.726562 C 70.511719 139.726562 64.511719 139.726562 64.511719 135.726562 C 64.511719 131.726562 70.511719 131.726562 70.511719 135.726562 "/>
<path style=" stroke:none;fill-rule:nonzero;fill:rgb(0%,0%,100%);fill-opacity:1;" d="M 88.679688 129.335938 C 88.679688 132.003906 84.679688 132.003906 84.679688 129.335938 C 84.679688 126.667969 88.679688 126.667969 88.679688 129.335938 "/>
<path style=" stroke:none;fill-rule:nonzero;fill:rgb(0%,0%,100%);fill-opacity:1;" d="M 50.339844 129.335938 C 50.339844 132.003906 46.339844 132.003906 46.339844 129.335938 C 46.339844 126.667969 50.339844 126.667969 50.339844 129.335938 "/>
<path style="fill:none;stroke-width:0.2;stroke-linecap:butt;stroke-linejoin:miter;stroke:rgb(0%,0%,100%);stroke-opacity:1;stroke-miterlimit:10;" d="M 83.289062 110.167969 C 83.289062 114.167969 77.289062 114.167969 77.289062 110.167969 C 77.289062 106.167969 83.289062 106.167969 83.289062 110.167969 "/>
<path style="fill:none;stroke-width:0.2;stroke-linecap:butt;stroke-linejoin:miter;stroke:rgb(0%,0%,100%);stroke-opacity:1;stroke-miterlimit:10;" d="M 57.730469 110.167969 C 57.730469 114.167969 51.730469 114.167969 51.730469 110.167969 C 51.730469 106.167969 57.730469 106.167969 57.730469 110.167969 "/>
<path style=" stroke:none;fill-rule:nonzero;fill:rgb(0%,0%,100%);fill-opacity:1;" d="M 69.511719 135.726562 C 69.511719 138.394531 65.511719 138.394531 65.511719 135.726562 C 65.511719 133.058594 69.511719 133.058594 69.511719 135.726562 "/>
<path style=" stroke:none;fill-rule:nonzero;fill:rgb(0%,0%,100%);fill-opacity:1;" d="M 88.679688 129.335938 C 88.679688 132.003906 84.679688 132.003906 84.679688 129.335938 C 84.679688 126.667969 88.679688 126.667969 88.679688 129.335938 "/>
<path style=" stroke:none;fill-rule:nonzero;fill:rgb(0%,0%,100%);fill-opacity:1;" d="M 50.339844 129.335938 C 50.339844 132.003906 46.339844 132.003906 46.339844 129.335938 C 46.339844 126.667969 50.339844 126.667969 50.339844 129.335938 "/>
<path style=" stroke:none;fill-rule:nonzero;fill:rgb(0%,0%,100%);fill-opacity:1;" d="M 82.289062 110.167969 C 82.289062 112.832031 78.289062 112.832031 78.289062 110.167969 C 78.289062 107.5 82.289062 107.5 82.289062 110.167969 "/>
<path style=" stroke:none;fill-rule:nonzero;fill:rgb(0%,0%,100%);fill-opacity:1;" d="M 56.730469 110.167969 C 56.730469 112.832031 52.730469 112.832031 52.730469 110.167969 C 52.730469 107.5 56.730469 107.5 56.730469 110.167969 "/>
<path style=" stroke:none;fill-rule:nonzero;fill:rgb(0%,0%,100%);fill-opacity:1;" d="M 75.898438 90.996094 C 75.898438 93.664062 71.898438 93.664062 71.898438 90.996094 C 71.898438 88.328125 75.898438 88.328125 75.898438 90.996094 "/>
<path style=" stroke:none;fill-rule:nonzero;fill:rgb(0%,0%,100%);fill-opacity:1;" d="M 63.121094 90.996094 C 63.121094 93.664062 59.121094 93.664062 59.121094 90.996094 C 59.121094 88.328125 63.121094 88.328125 63.121094 90.996094 "/>
<path style=" stroke:none;fill-rule:nonzero;fill:rgb(0%,0%,100%);fill-opacity:1;" d="M 75.898438 90.996094 C 75.898438 93.664062 71.898438 93.664062 71.898438 90.996094 C 71.898438 88.328125 75.898438 88.328125 75.898438 90.996094 "/>
<path style=" stroke:none;fill-rule:nonzero;fill:rgb(0%,0%,100%);fill-opacity:1;" d="M 63.121094 90.996094 C 63.121094 93.664062 59.121094 93.664062 59.121094 90.996094 C 59.121094 88.328125 63.121094 88.328125 63.121094 90.996094 "/>
<path style="fill:none;stroke-width:0.2;stroke-linecap:butt;stroke-linejoin:miter;stroke:rgb(0%,0%,100%);stroke-opacity:1;stroke-miterlimit:10;" d="M 108.851562 122.945312 C 108.851562 126.945312 102.851562 126.945312 102.851562 122.945312 C 102.851562 118.945312 108.851562 118.945312 108.851562 122.945312 "/>
<path style="fill:none;stroke-width:0.2;stroke-linecap:butt;stroke-linejoin:miter;stroke:rgb(0%,0%,100%);stroke-opacity:1;stroke-miterlimit:10;" d="M 32.171875 122.945312 C 32.171875 126.945312 26.171875 126.945312 26.171875 122.945312 C 26.171875 118.945312 32.171875 118.945312 32.171875 122.945312 "/>
<path style=" stroke:none;fill-rule:nonzero;fill:rgb(0%,0%,100%);fill-opacity:1;" d="M 101.460938 103.777344 C 101.460938 106.441406 97.460938 106.441406 97.460938 103.777344 C 97.460938 101.109375 101.460938 101.109375 101.460938 103.777344 "/>
<path style=" stroke:none;fill-rule:nonzero;fill:rgb(0%,0%,100%);fill-opacity:1;" d="M 37.558594 103.777344 C 37.558594 106.441406 33.558594 106.441406 33.558594 103.777344 C 33.558594 101.109375 37.558594 101.109375 37.558594 103.777344 "/>
<path style=" stroke:none;fill-rule:nonzero;fill:rgb(0%,0%,100%);fill-opacity:1;" d="M 12 116.554688 C 12 119.222656 8 119.222656 8 116.554688 C 8 113.890625 12 113.890625 12 116.554688 "/>
<path style="fill:none;stroke-width:0.2;stroke-linecap:butt;stroke-linejoin:miter;stroke:rgb(0%,0%,100%);stroke-opacity:1;stroke-miterlimit:10;" d="M 121.628906 97.386719 C 121.628906 101.386719 115.628906 101.386719 115.628906 97.386719 C 115.628906 93.386719 121.628906 93.386719 121.628906 97.386719 "/>
<path style="fill:none;stroke-width:0.2;stroke-linecap:butt;stroke-linejoin:miter;stroke:rgb(0%,0%,100%);stroke-opacity:1;stroke-miterlimit:10;" d="M 19.390625 97.386719 C 19.390625 101.386719 13.390625 101.386719 13.390625 97.386719 C 13.390625 93.386719 19.390625 93.386719 19.390625 97.386719 "/>
<path style=" stroke:none;fill-rule:nonzero;fill:rgb(0%,0%,100%);fill-opacity:1;" d="M 107.851562 122.945312 C 107.851562 125.613281 103.851562 125.613281 103.851562 122.945312 C 103.851562 120.28125 107.851562 120.28125 107.851562 122.945312 "/>
<path style=" stroke:none;fill-rule:nonzero;fill:rgb(0%,0%,100%);fill-opacity:1;" d="M 31.171875 122.945312 C 31.171875 125.613281 27.171875 125.613281 27.171875 122.945312 C 27.171875 120.28125 31.171875 120.28125 31.171875 122.945312 "/>
<path style=" stroke:none;fill-rule:nonzero;fill:rgb(0%,0%,100%);fill-opacity:1;" d="M 101.460938 103.777344 C 101.460938 106.441406 97.460938 106.441406 97.460938 103.777344 C 97.460938 101.109375 101.460938 101.109375 101.460938 103.777344 "/>
<path style=" stroke:none;fill-rule:nonzero;fill:rgb(0%,0%,100%);fill-opacity:1;" d="M 37.558594 103.777344 C 37.558594 106.441406 33.558594 106.441406 33.558594 103.777344 C 33.558594 101.109375 37.558594 101.109375 37.558594 103.777344 "/>
<path style=" stroke:none;fill-rule:nonzero;fill:rgb(0%,0%,100%);fill-opacity:1;" d="M 12 116.554688 C 12 119.222656 8 119.222656 8 116.554688 C 8 113.890625 12 113.890625 12 116.554688 "/>
<path style=" stroke:none;fill-rule:nonzero;fill:rgb(0%,0%,100%);fill-opacity:1;" d="M 120.628906 97.386719 C 120.628906 100.054688 116.628906 100.054688 116.628906 97.386719 C 116.628906 94.71875 120.628906 94.71875 120.628906 97.386719 "/>
<path style=" stroke:none;fill-rule:nonzero;fill:rgb(0%,0%,100%);fill-opacity:1;" d="M 18.390625 97.386719 C 18.390625 100.054688 14.390625 100.054688 14.390625 97.386719 C 14.390625 94.71875 18.390625 94.71875 18.390625 97.386719 "/>
<path style="fill:none;stroke-width:0.2;stroke-linecap:butt;stroke-linejoin:miter;stroke:rgb(0%,0%,100%);stroke-opacity:1;stroke-miterlimit:10;" d="M 96.070312 84.605469 C 96.070312 88.605469 90.070312 88.605469 90.070312 84.605469 C 90.070312 80.605469 96.070312 80.605469 96.070312 84.605469 "/>
<path style="fill:none;stroke-width:0.2;stroke-linecap:butt;stroke-linejoin:miter;stroke:rgb(0%,0%,100%);stroke-opacity:1;stroke-miterlimit:10;" d="M 44.949219 84.605469 C 44.949219 88.605469 38.949219 88.605469 38.949219 84.605469 C 38.949219 80.605469 44.949219 80.605469 44.949219 84.605469 "/>
<path style=" stroke:none;fill-rule:nonzero;fill:rgb(0%,0%,100%);fill-opacity:1;" d="M 114.238281 78.214844 C 114.238281 80.882812 110.238281 80.882812 110.238281 78.214844 C 110.238281 75.550781 114.238281 75.550781 114.238281 78.214844 "/>
<path style=" stroke:none;fill-rule:nonzero;fill:rgb(0%,0%,100%);fill-opacity:1;" d="M 24.78125 78.214844 C 24.78125 80.882812 20.78125 80.882812 20.78125 78.214844 C 20.78125 75.550781 24.78125 75.550781 24.78125 78.214844 "/>
<path style=" stroke:none;fill-rule:nonzero;fill:rgb(0%,0%,100%);fill-opacity:1;" d="M 95.070312 84.605469 C 95.070312 87.273438 91.070312 87.273438 91.070312 84.605469 C 91.070312 81.941406 95.070312 81.941406 95.070312 84.605469 "/>
<path style=" stroke:none;fill-rule:nonzero;fill:rgb(0%,0%,100%);fill-opacity:1;" d="M 43.949219 84.605469 C 43.949219 87.273438 39.949219 87.273438 39.949219 84.605469 C 39.949219 81.941406 43.949219 81.941406 43.949219 84.605469 "/>
<path style=" stroke:none;fill-rule:nonzero;fill:rgb(0%,0%,100%);fill-opacity:1;" d="M 114.238281 78.214844 C 114.238281 80.882812 110.238281 80.882812 110.238281 78.214844 C 110.238281 75.550781 114.238281 75.550781 114.238281 78.214844 "/>
<path style=" stroke:none;fill-rule:nonzero;fill:rgb(0%,0%,100%);fill-opacity:1;" d="M 24.78125 78.214844 C 24.78125 80.882812 20.78125 80.882812 20.78125 78.214844 C 20.78125 75.550781 24.78125 75.550781 24.78125 78.214844 "/>
<path style="fill:none;stroke-width:0.2;stroke-linecap:butt;stroke-linejoin:miter;stroke:rgb(0%,0%,0%);stroke-opacity:1;stroke-miterlimit:10;" d="M 10 135.726562 L 10 198.589844 L 125.019531 198.589844 L 125.019531 135.726562 L 10 135.726562 "/>
<path style="fill:none;stroke-width:0.2;stroke-linecap:butt;stroke-linejoin:miter;stroke:rgb(0%,0%,100%);stroke-opacity:1;stroke-miterlimit:10;" d="M 70.511719 198.589844 C 70.511719 202.589844 64.511719 202.589844 64.511719 198.589844 C 64.511719 194.589844 70.511719 194.589844 70.511719 198.589844 "/>
<path style=" stroke:none;fill-rule:nonzero;fill:rgb(0%,0%,100%);fill-opacity:1;" d="M 88.679688 192.199219 C 88.679688 194.867188 84.679688 194.867188 84.679688 192.199219 C 84.679688 189.53125 88.679688 189.53125 88.679688 192.199219 "/>
<path style=" stroke:none;fill-rule:nonzero;fill:rgb(0%,0%,100%);fill-opacity:1;" d="M 50.339844 192.199219 C 50.339844 194.867188 46.339844 194.867188 46.339844 192.199219 C 46.339844 189.53125 50.339844 189.53125 50.339844 192.199219 "/>
<path style="fill:none;stroke-width:0.2;stroke-linecap:butt;stroke-linejoin:miter;stroke:rgb(0%,0%,100%);stroke-opacity:1;stroke-miterlimit:10;" d="M 83.289062 173.03125 C 83.289062 177.03125 77.289062 177.03125 77.289062 173.03125 C 77.289062 169.03125 83.289062 169.03125 83.289062 173.03125 "/>
<path style="fill:none;stroke-width:0.2;stroke-linecap:butt;stroke-linejoin:miter;stroke:rgb(0%,0%,100%);stroke-opacity:1;stroke-miterlimit:10;" d="M 57.730469 173.03125 C 57.730469 177.03125 51.730469 177.03125 51.730469 173.03125 C 51.730469 169.03125 57.730469 169.03125 57.730469 173.03125 "/>
<path style=" stroke:none;fill-rule:nonzero;fill:rgb(0%,0%,100%);fill-opacity:1;" d="M 69.511719 198.589844 C 69.511719 201.257812 65.511719 201.257812 65.511719 198.589844 C 65.511719 195.921875 69.511719 195.921875 69.511719 198.589844 "/>
<path style=" stroke:none;fill-rule:nonzero;fill:rgb(0%,0%,100%);fill-opacity:1;" d="M 88.679688 192.199219 C 88.679688 194.867188 84.679688 194.867188 84.679688 192.199219 C 84.679688 189.53125 88.679688 189.53125 88.679688 192.199219 "/>
<path style=" stroke:none;fill-rule:nonzero;fill:rgb(0%,0%,100%);fill-opacity:1;" d="M 50.339844 192.199219 C 50.339844 194.867188 46.339844 194.867188 46.339844 192.199219 C 46.339844 189.53125 50.339844 189.53125 50.339844 192.199219 "/>
<path style=" stroke:none;fill-rule:nonzero;fill:rgb(0%,0%,100%);fill-opacity:1;" d="M 82.289062 173.03125 C 82.289062 175.695312 78.289062 175.695312 78.289062 173.03125 C 78.289062 170.363281 82.289062 170.363281 82.289062 173.03125 "/>
<path style=" stroke:none;fill-rule:nonzero;fill:rgb(0%,0%,100%);fill-opacity:1;" d="M 56.730469 173.03125 C 56.730469 175.695312 52.730469 175.695312 52.730469 173.03125 C 52.730469 170.363281 56.730469 170.363281 56.730469 173.03125 "/>
<path style=" stroke:none;fill-rule:nonzero;fill:rgb(0%,0%,100%);fill-opacity:1;" d="M 75.898438 153.859375 C 75.898438 156.527344 71.898438 156.527344 71.898438 153.859375 C 71.898438 151.191406 75.898438 151.191406 75.898438 153.859375 "/>
<path style=" stroke:none;fill-rule:nonzero;fill:rgb(0%,0%,100%);fill-opacity:1;" d="M 63.121094 153.859375 C 63.121094 156.527344 59.121094 156.527344 59.121094 153.859375 C 59.121094 151.191406 63.121094 151.191406 63.121094 153.859375 "/>
<path style=" stroke:none;fill-rule:nonzero;fill:rgb(0%,0%,100%);fill-opacity:1;" d="M 75.898438 153.859375 C 75.898438 156.527344 71.898438 156.527344 71.898438 153.859375 C 71.898438 151.191406 75.898438 151.191406 75.898438 153.859375 "/>
<path style=" stroke:none;fill-rule:nonzero;fill:rgb(0%,0%,100%);fill-opacity:1;" d="M 63.121094 153.859375 C 63.121094 156.527344 59.121094 156.527344 59.121094 153.859375 C 59.121094 151.191406 63.121094 151.191406 63.121094 153.859375 "/>
<path style="fill:none;stroke-width:0.2;stroke-linecap:butt;stroke-linejoin:miter;stroke:rgb(0%,0%,100%);stroke-opacity:1;stroke-miterlimit:10;" d="M 108.851562 185.808594 C 108.851562 189.808594 102.851562 189.808594 102.851562 185.808594 C 102.851562 181.808594 108.851562 181.808594 108.851562 185.808594 "/>
<path style="fill:none;stroke-width:0.2;stroke-linecap:butt;stroke-linejoin:miter;stroke:rgb(0%,0%,100%);stroke-opacity:1;stroke-miterlimit:10;" d="M 32.171875 185.808594 C 32.171875 189.808594 26.171875 189.808594 26.171875 185.808594 C 26.171875 181.808594 32.171875 181.808594 32.171875 185.808594 "/>
<path style=" stroke:none;fill-rule:nonzero;fill:rgb(0%,0%,100%);fill-opacity:1;" d="M 101.460938 166.640625 C 101.460938 169.304688 97.460938 169.304688 97.460938 166.640625 C 97.460938 163.972656 101.460938 163.972656 101.460938 166.640625 "/>
<path style=" stroke:none;fill-rule:nonzero;fill:rgb(0%,0%,100%);fill-opacity:1;" d="M 37.558594 166.640625 C 37.558594 169.304688 33.558594 169.304688 33.558594 166.640625 C 33.558594 163.972656 37.558594 163.972656 37.558594 166.640625 "/>
<path style=" stroke:none;fill-rule:nonzero;fill:rgb(0%,0%,100%);fill-opacity:1;" d="M 12 179.417969 C 12 182.085938 8 182.085938 8 179.417969 C 8 176.753906 12 176.753906 12 179.417969 "/>
<path style="fill:none;stroke-width:0.2;stroke-linecap:butt;stroke-linejoin:miter;stroke:rgb(0%,0%,100%);stroke-opacity:1;stroke-miterlimit:10;" d="M 121.628906 160.25 C 121.628906 164.25 115.628906 164.25 115.628906 160.25 C 115.628906 156.25 121.628906 156.25 121.628906 160.25 "/>
<path style="fill:none;stroke-width:0.2;stroke-linecap:butt;stroke-linejoin:miter;stroke:rgb(0%,0%,100%);stroke-opacity:1;stroke-miterlimit:10;" d="M 19.390625 160.25 C 19.390625 164.25 13.390625 164.25 13.390625 160.25 C 13.390625 156.25 19.390625 156.25 19.390625 160.25 "/>
<path style=" stroke:none;fill-rule:nonzero;fill:rgb(0%,0%,100%);fill-opacity:1;" d="M 107.851562 185.808594 C 107.851562 188.476562 103.851562 188.476562 103.851562 185.808594 C 103.851562 183.144531 107.851562 183.144531 107.851562 185.808594 "/>
<path style=" stroke:none;fill-rule:nonzero;fill:rgb(0%,0%,100%);fill-opacity:1;" d="M 31.171875 185.808594 C 31.171875 188.476562 27.171875 188.476562 27.171875 185.808594 C 27.171875 183.144531 31.171875 183.144531 31.171875 185.808594 "/>
<path style=" stroke:none;fill-rule:nonzero;fill:rgb(0%,0%,100%);fill-opacity:1;" d="M 101.460938 166.640625 C 101.460938 169.304688 97.460938 169.304688 97.460938 166.640625 C 97.460938 163.972656 101.460938 163.972656 101.460938 166.640625 "/>
<path style=" stroke:none;fill-rule:nonzero;fill:rgb(0%,0%,100%);fill-opacity:1;" d="M 37.558594 166.640625 C 37.558594 169.304688 33.558594 169.304688 33.558594 166.640625 C 33.558594 163.972656 37.558594 163.972656 37.558594 166.640625 "/>
<path style=" stroke:none;fill-rule:nonzero;fill:rgb(0%,0%,100%);fill-opacity:1;" d="M 12 179.417969 C 12 182.085938 8 182.085938 8 179.417969 C 8 176.753906 12 176.753906 12 179.417969 "/>
<path style=" stroke:none;fill-rule:nonzero;fill:rgb(0%,0%,100%);fill-opacity:1;" d="M 120.628906 160.25 C 120.628906 162.917969 116.628906 162.917969 116.628906 160.25 C 116.628906 157.582031 120.628906 157.582031 120.628906 160.25 "/>
<path style=" stroke:none;fill-rule:nonzero;fill:rgb(0%,0%,100%);fill-opacity:1;" d="M 18.390625 160.25 C 18.390625 162.917969 14.390625 162.917969 14.390625 160.25 C 14.390625 157.582031 18.390625 157.582031 18.390625 160.25 "/>
<path style="fill:none;stroke-width:0.2;stroke-linecap:butt;stroke-linejoin:miter;stroke:rgb(0%,0%,100%);stroke-opacity:1;stroke-miterlimit:10;" d="M 96.070312 147.46875 C 96.070312 151.46875 90.070312 151.46875 90.070312 147.46875 C 90.070312 143.46875 96.070312 143.46875 96.070312 147.46875 "/>
<path style="fill:none;stroke-width:0.2;stroke-linecap:butt;stroke-linejoin:miter;stroke:rgb(0%,0%,100%);stroke-opacity:1;stroke-miterlimit:10;" d="M 44.949219 147.46875 C 44.949219 151.46875 38.949219 151.46875 38.949219 147.46875 C 38.949219 143.46875 44.949219 143.46875 44.949219 147.46875 "/>
<path style=" stroke:none;fill-rule:nonzero;fill:rgb(0%,0%,100%);fill-opacity:1;" d="M 114.238281 141.078125 C 114.238281 143.746094 110.238281 143.746094 110.238281 141.078125 C 110.238281 138.414062 114.238281 138.414062 114.238281 141.078125 "/>
<path style=" stroke:none;fill-rule:nonzero;fill:rgb(0%,0%,100%);fill-opacity:1;" d="M 24.78125 141.078125 C 24.78125 143.746094 20.78125 143.746094 20.78125 141.078125 C 20.78125 138.414062 24.78125 138.414062 24.78125 141.078125 "/>
<path style=" stroke:none;fill-rule:nonzero;fill:rgb(0%,0%,100%);fill-opacity:1;" d="M 95.070312 147.46875 C 95.070312 150.136719 91.070312 150.136719 91.070312 147.46875 C 91.070312 144.804688 95.070312 144.804688 95.070312 147.46875 "/>
<path style=" stroke:none;fill-rule:nonzero;fill:rgb(0%,0%,100%);fill-opacity:1;" d="M 43.949219 147.46875 C 43.949219 150.136719 39.949219 150.136719 39.949219 147.46875 C 39.949219 144.804688 43.949219 144.804688 43.949219 147.46875 "/>
<path style=" stroke:none;fill-rule:nonzero;fill:rgb(0%,0%,100%);fill-opacity:1;" d="M 114.238281 141.078125 C 114.238281 143.746094 110.238281 143.746094 110.238281 141.078125 C 110.238281 138.414062 114.238281 138.414062 114.238281 141.078125 "/>
<path style=" stroke:none;fill-rule:nonzero;fill:rgb(0%,0%,100%);fill-opacity:1;" d="M 24.78125 141.078125 C 24.78125 143.746094 20.78125 143.746094 20.78125 141.078125 C 20.78125 138.414062 24.78125 138.414062 24.78125 141.078125 "/>
<path style="fill:none;stroke-width:0.2;stroke-linecap:butt;stroke-linejoin:miter;stroke:rgb(0%,0%,0%);stroke-opacity:1;stroke-miterlimit:10;" d="M 125.019531 10 L 125.019531 72.863281 L 240.039062 72.863281 L 240.039062 10 L 125.019531 10 "/>
<path style="fill:none;stroke-width:0.2;stroke-linecap:butt;stroke-linejoin:miter;stroke:rgb(0%,0%,100%);stroke-opacity:1;stroke-miterlimit:10;" d="M 185.53125 72.863281 C 185.53125 76.863281 179.53125 76.863281 179.53125 72.863281 C 179.53125 68.863281 185.53125 68.863281 185.53125 72.863281 "/>
<path style=" stroke:none;fill-rule:nonzero;fill:rgb(0%,0%,100%);fill-opacity:1;" d="M 203.699219 66.472656 C 203.699219 69.140625 199.699219 69.140625 199.699219 66.472656 C 199.699219 63.804688 203.699219 63.804688 203.699219 66.472656 "/>
<path style=" stroke:none;fill-rule:nonzero;fill:rgb(0%,0%,100%);fill-opacity:1;" d="M 165.359375 66.472656 C 165.359375 69.140625 161.359375 69.140625 161.359375 66.472656 C 161.359375 63.804688 165.359375 63.804688 165.359375 66.472656 "/>
<path style="fill:none;stroke-width:0.2;stroke-linecap:butt;stroke-linejoin:miter;stroke:rgb(0%,0%,100%);stroke-opacity:1;stroke-miterlimit:10;" d="M 198.308594 47.304688 C 198.308594 51.304688 192.308594 51.304688 192.308594 47.304688 C 192.308594 43.304688 198.308594 43.304688 198.308594 47.304688 "/>
<path style="fill:none;stroke-width:0.2;stroke-linecap:butt;stroke-linejoin:miter;stroke:rgb(0%,0%,100%);stroke-opacity:1;stroke-miterlimit:10;" d="M 172.75 47.304688 C 172.75 51.304688 166.75 51.304688 166.75 47.304688 C 166.75 43.304688 172.75 43.304688 172.75 47.304688 "/>
<path style=" stroke:none;fill-rule:nonzero;fill:rgb(0%,0%,100%);fill-opacity:1;" d="M 184.53125 72.863281 C 184.53125 75.53125 180.53125 75.53125 180.53125 72.863281 C 180.53125 70.195312 184.53125 70.195312 184.53125 72.863281 "/>
<path style=" stroke:none;fill-rule:nonzero;fill:rgb(0%,0%,100%);fill-opacity:1;" d="M 203.699219 66.472656 C 203.699219 69.140625 199.699219 69.140625 199.699219 66.472656 C 199.699219 63.804688 203.699219 63.804688 203.699219 66.472656 "/>
<path style=" stroke:none;fill-rule:nonzero;fill:rgb(0%,0%,100%);fill-opacity:1;" d="M 165.359375 66.472656 C 165.359375 69.140625 161.359375 69.140625 161.359375 66.472656 C 161.359375 63.804688 165.359375 63.804688 165.359375 66.472656 "/>
<path style=" stroke:none;fill-rule:nonzero;fill:rgb(0%,0%,100%);fill-opacity:1;" d="M 197.308594 47.304688 C 197.308594 49.96875 193.308594 49.96875 193.308594 47.304688 C 193.308594 44.636719 197.308594 44.636719 197.308594 47.304688 "/>
<path style=" stroke:none;fill-rule:nonzero;fill:rgb(0%,0%,100%);fill-opacity:1;" d="M 171.75 47.304688 C 171.75 49.96875 167.75 49.96875 167.75 47.304688 C 167.75 44.636719 171.75 44.636719 171.75 47.304688 "/>
<path style=" stroke:none;fill-rule:nonzero;fill:rgb(0%,0%,100%);fill-opacity:1;" d="M 190.921875 28.132812 C 190.921875 30.800781 186.921875 30.800781 186.921875 28.132812 C 186.921875 25.464844 190.921875 25.464844 190.921875 28.132812 "/>
<path style=" stroke:none;fill-rule:nonzero;fill:rgb(0%,0%,100%);fill-opacity:1;" d="M 178.140625 28.132812 C 178.140625 30.800781 174.140625 30.800781 174.140625 28.132812 C 174.140625 25.464844 178.140625 25.464844 178.140625 28.132812 "/>
<path style=" stroke:none;fill-rule:nonzero;fill:rgb(0%,0%,100%);fill-opacity:1;" d="M 190.921875 28.132812 C 190.921875 30.800781 186.921875 30.800781 186.921875 28.132812 C 186.921875 25.464844 190.921875 25.464844 190.921875 28.132812 "/>
<path style=" stroke:none;fill-rule:nonzero;fill:rgb(0%,0%,100%);fill-opacity:1;" d="M 178.140625 28.132812 C 178.140625 30.800781 174.140625 30.800781 174.140625 28.132812 C 174.140625 25.464844 178.140625 25.464844 178.140625 28.132812 "/>
<path style="fill:none;stroke-width:0.2;stroke-linecap:butt;stroke-linejoin:miter;stroke:rgb(0%,0%,100%);stroke-opacity:1;stroke-miterlimit:10;" d="M 223.871094 60.082031 C 223.871094 64.082031 217.871094 64.082031 217.871094 60.082031 C 217.871094 56.082031 223.871094 56.082031 223.871094 60.082031 "/>
<path style="fill:none;stroke-width:0.2;stroke-linecap:butt;stroke-linejoin:miter;stroke:rgb(0%,0%,100%);stroke-opacity:1;stroke-miterlimit:10;" d="M 147.191406 60.082031 C 147.191406 64.082031 141.191406 64.082031 141.191406 60.082031 C 141.191406 56.082031 147.191406 56.082031 147.191406 60.082031 "/>
<path style=" stroke:none;fill-rule:nonzero;fill:rgb(0%,0%,100%);fill-opacity:1;" d="M 216.480469 40.914062 C 216.480469 43.578125 212.480469 43.578125 212.480469 40.914062 C 212.480469 38.246094 216.480469 38.246094 216.480469 40.914062 "/>
<path style=" stroke:none;fill-rule:nonzero;fill:rgb(0%,0%,100%);fill-opacity:1;" d="M 152.582031 40.914062 C 152.582031 43.578125 148.582031 43.578125 148.582031 40.914062 C 148.582031 38.246094 152.582031 38.246094 152.582031 40.914062 "/>
<path style=" stroke:none;fill-rule:nonzero;fill:rgb(0%,0%,100%);fill-opacity:1;" d="M 127.019531 53.691406 C 127.019531 56.359375 123.019531 56.359375 123.019531 53.691406 C 123.019531 51.027344 127.019531 51.027344 127.019531 53.691406 "/>
<path style="fill:none;stroke-width:0.2;stroke-linecap:butt;stroke-linejoin:miter;stroke:rgb(0%,0%,100%);stroke-opacity:1;stroke-miterlimit:10;" d="M 236.652344 34.523438 C 236.652344 38.523438 230.652344 38.523438 230.652344 34.523438 C 230.652344 30.523438 236.652344 30.523438 236.652344 34.523438 "/>
<path style="fill:none;stroke-width:0.2;stroke-linecap:butt;stroke-linejoin:miter;stroke:rgb(0%,0%,100%);stroke-opacity:1;stroke-miterlimit:10;" d="M 134.410156 34.523438 C 134.410156 38.523438 128.410156 38.523438 128.410156 34.523438 C 128.410156 30.523438 134.410156 30.523438 134.410156 34.523438 "/>
<path style=" stroke:none;fill-rule:nonzero;fill:rgb(0%,0%,100%);fill-opacity:1;" d="M 222.871094 60.082031 C 222.871094 62.75 218.871094 62.75 218.871094 60.082031 C 218.871094 57.417969 222.871094 57.417969 222.871094 60.082031 "/>
<path style=" stroke:none;fill-rule:nonzero;fill:rgb(0%,0%,100%);fill-opacity:1;" d="M 146.191406 60.082031 C 146.191406 62.75 142.191406 62.75 142.191406 60.082031 C 142.191406 57.417969 146.191406 57.417969 146.191406 60.082031 "/>
<path style=" stroke:none;fill-rule:nonzero;fill:rgb(0%,0%,100%);fill-opacity:1;" d="M 216.480469 40.914062 C 216.480469 43.578125 212.480469 43.578125 212.480469 40.914062 C 212.480469 38.246094 216.480469 38.246094 216.480469 40.914062 "/>
<path style=" stroke:none;fill-rule:nonzero;fill:rgb(0%,0%,100%);fill-opacity:1;" d="M 152.582031 40.914062 C 152.582031 43.578125 148.582031 43.578125 148.582031 40.914062 C 148.582031 38.246094 152.582031 38.246094 152.582031 40.914062 "/>
<path style=" stroke:none;fill-rule:nonzero;fill:rgb(0%,0%,100%);fill-opacity:1;" d="M 127.019531 53.691406 C 127.019531 56.359375 123.019531 56.359375 123.019531 53.691406 C 123.019531 51.027344 127.019531 51.027344 127.019531 53.691406 "/>
<path style=" stroke:none;fill-rule:nonzero;fill:rgb(0%,0%,100%);fill-opacity:1;" d="M 235.652344 34.523438 C 235.652344 37.191406 231.652344 37.191406 231.652344 34.523438 C 231.652344 31.855469 235.652344 31.855469 235.652344 34.523438 "/>
<path style=" stroke:none;fill-rule:nonzero;fill:rgb(0%,0%,100%);fill-opacity:1;" d="M 133.410156 34.523438 C 133.410156 37.191406 129.410156 37.191406 129.410156 34.523438 C 129.410156 31.855469 133.410156 31.855469 133.410156 34.523438 "/>
<path style="fill:none;stroke-width:0.2;stroke-linecap:butt;stroke-linejoin:miter;stroke:rgb(0%,0%,100%);stroke-opacity:1;stroke-miterlimit:10;" d="M 211.089844 21.742188 C 211.089844 25.742188 205.089844 25.742188 205.089844 21.742188 C 205.089844 17.742188 211.089844 17.742188 211.089844 21.742188 "/>
<path style="fill:none;stroke-width:0.2;stroke-linecap:butt;stroke-linejoin:miter;stroke:rgb(0%,0%,100%);stroke-opacity:1;stroke-miterlimit:10;" d="M 159.96875 21.742188 C 159.96875 25.742188 153.96875 25.742188 153.96875 21.742188 C 153.96875 17.742188 159.96875 17.742188 159.96875 21.742188 "/>
<path style=" stroke:none;fill-rule:nonzero;fill:rgb(0%,0%,100%);fill-opacity:1;" d="M 229.261719 15.351562 C 229.261719 18.019531 225.261719 18.019531 225.261719 15.351562 C 225.261719 12.6875 229.261719 12.6875 229.261719 15.351562 "/>
<path style=" stroke:none;fill-rule:nonzero;fill:rgb(0%,0%,100%);fill-opacity:1;" d="M 139.800781 15.351562 C 139.800781 18.019531 135.800781 18.019531 135.800781 15.351562 C 135.800781 12.6875 139.800781 12.6875 139.800781 15.351562 "/>
<path style=" stroke:none;fill-rule:nonzero;fill:rgb(0%,0%,100%);fill-opacity:1;" d="M 210.089844 21.742188 C 210.089844 24.410156 206.089844 24.410156 206.089844 21.742188 C 206.089844 19.078125 210.089844 19.078125 210.089844 21.742188 "/>
<path style=" stroke:none;fill-rule:nonzero;fill:rgb(0%,0%,100%);fill-opacity:1;" d="M 158.96875 21.742188 C 158.96875 24.410156 154.96875 24.410156 154.96875 21.742188 C 154.96875 19.078125 158.96875 19.078125 158.96875 21.742188 "/>
<path style=" stroke:none;fill-rule:nonzero;fill:rgb(0%,0%,100%);fill-opacity:1;" d="M 229.261719 15.351562 C 229.261719 18.019531 225.261719 18.019531 225.261719 15.351562 C 225.261719 12.6875 229.261719 12.6875 229.261719 15.351562 "/>
<path style=" stroke:none;fill-rule:nonzero;fill:rgb(0%,0%,100%);fill-opacity:1;" d="M 139.800781 15.351562 C 139.800781 18.019531 135.800781 18.019531 135.800781 15.351562 C 135.800781 12.6875 139.800781 12.6875 139.800781 15.351562 "/>
<path style="fill:none;stroke-width:0.2;stroke-linecap:butt;stroke-linejoin:miter;stroke:rgb(0%,0%,0%);stroke-opacity:1;stroke-miterlimit:10;" d="M 125.019531 72.863281 L 125.019531 135.726562 L 240.039062 135.726562 L 240.039062 72.863281 L 125.019531 72.863281 "/>
<path style="fill:none;stroke-width:0.2;stroke-linecap:butt;stroke-linejoin:miter;stroke:rgb(0%,0%,100%);stroke-opacity:1;stroke-miterlimit:10;" d="M 185.53125 135.726562 C 185.53125 139.726562 179.53125 139.726562 179.53125 135.726562 C 179.53125 131.726562 185.53125 131.726562 185.53125 135.726562 "/>
<path style=" stroke:none;fill-rule:nonzero;fill:rgb(0%,0%,100%);fill-opacity:1;" d="M 203.699219 129.335938 C 203.699219 132.003906 199.699219 132.003906 199.699219 129.335938 C 199.699219 126.667969 203.699219 126.667969 203.699219 129.335938 "/>
<path style=" stroke:none;fill-rule:nonzero;fill:rgb(0%,0%,100%);fill-opacity:1;" d="M 165.359375 129.335938 C 165.359375 132.003906 161.359375 132.003906 161.359375 129.335938 C 161.359375 126.667969 165.359375 126.667969 165.359375 129.335938 "/>
<path style="fill:none;stroke-width:0.2;stroke-linecap:butt;stroke-linejoin:miter;stroke:rgb(0%,0%,100%);stroke-opacity:1;stroke-miterlimit:10;" d="M 198.308594 110.167969 C 198.308594 114.167969 192.308594 114.167969 192.308594 110.167969 C 192.308594 106.167969 198.308594 106.167969 198.308594 110.167969 "/>
<path style="fill:none;stroke-width:0.2;stroke-linecap:butt;stroke-linejoin:miter;stroke:rgb(0%,0%,100%);stroke-opacity:1;stroke-miterlimit:10;" d="M 172.75 110.167969 C 172.75 114.167969 166.75 114.167969 166.75 110.167969 C 166.75 106.167969 172.75 106.167969 172.75 110.167969 "/>
<path style=" stroke:none;fill-rule:nonzero;fill:rgb(0%,0%,100%);fill-opacity:1;" d="M 184.53125 135.726562 C 184.53125 138.394531 180.53125 138.394531 180.53125 135.726562 C 180.53125 133.058594 184.53125 133.058594 184.53125 135.726562 "/>
<path style=" stroke:none;fill-rule:nonzero;fill:rgb(0%,0%,100%);fill-opacity:1;" d="M 203.699219 129.335938 C 203.699219 132.003906 199.699219 132.003906 199.699219 129.335938 C 199.699219 126.667969 203.699219 126.667969 203.699219 129.335938 "/>
<path style=" stroke:none;fill-rule:nonzero;fill:rgb(0%,0%,100%);fill-opacity:1;" d="M 165.359375 129.335938 C 165.359375 132.003906 161.359375 132.003906 161.359375 129.335938 C 161.359375 126.667969 165.359375 126.667969 165.359375 129.335938 "/>
<path style=" stroke:none;fill-rule:nonzero;fill:rgb(0%,0%,100%);fill-opacity:1;" d="M 197.308594 110.167969 C 197.308594 112.832031 193.308594 112.832031 193.308594 110.167969 C 193.308594 107.5 197.308594 107.5 197.308594 110.167969 "/>
<path style=" stroke:none;fill-rule:nonzero;fill:rgb(0%,0%,100%);fill-opacity:1;" d="M 171.75 110.167969 C 171.75 112.832031 167.75 112.832031 167.75 110.167969 C 167.75 107.5 171.75 107.5 171.75 110.167969 "/>
<path style=" stroke:none;fill-rule:nonzero;fill:rgb(0%,0%,100%);fill-opacity:1;" d="M 190.921875 90.996094 C 190.921875 93.664062 186.921875 93.664062 186.921875 90.996094 C 186.921875 88.328125 190.921875 88.328125 190.921875 90.996094 "/>
<path style=" stroke:none;fill-rule:nonzero;fill:rgb(0%,0%,100%);fill-opacity:1;" d="M 178.140625 90.996094 C 178.140625 93.664062 174.140625 93.664062 174.140625 90.996094 C 174.140625 88.328125 178.140625 88.328125 178.140625 90.996094 "/>
<path style=" stroke:none;fill-rule:nonzero;fill:rgb(0%,0%,100%);fill-opacity:1;" d="M 190.921875 90.996094 C 190.921875 93.664062 186.921875 93.664062 186.921875 90.996094 C 186.921875 88.328125 190.921875 88.328125 190.921875 90.996094 "/>
<path style=" stroke:none;fill-rule:nonzero;fill:rgb(0%,0%,100%);fill-opacity:1;" d="M 178.140625 90.996094 C 178.140625 93.664062 174.140625 93.664062 174.140625 90.996094 C 174.140625 88.328125 178.140625 88.328125 178.140625 90.996094 "/>
<path style="fill:none;stroke-width:0.2;stroke-linecap:butt;stroke-linejoin:miter;stroke:rgb(0%,0%,100%);stroke-opacity:1;stroke-miterlimit:10;" d="M 223.871094 122.945312 C 223.871094 126.945312 217.871094 126.945312 217.871094 122.945312 C 217.871094 118.945312 223.871094 118.945312 223.871094 122.945312 "/>
<path style="fill:none;stroke-width:0.2;stroke-linecap:butt;stroke-linejoin:miter;stroke:rgb(0%,0%,100%);stroke-opacity:1;stroke-miterlimit:10;" d="M 147.191406 122.945312 C 147.191406 126.945312 141.191406 126.945312 141.191406 122.945312 C 141.191406 118.945312 147.191406 118.945312 147.191406 122.945312 "/>
<path style=" stroke:none;fill-rule:nonzero;fill:rgb(0%,0%,100%);fill-opacity:1;" d="M 216.480469 103.777344 C 216.480469 106.441406 212.480469 106.441406 212.480469 103.777344 C 212.480469 101.109375 216.480469 101.109375 216.480469 103.777344 "/>
<path style=" stroke:none;fill-rule:nonzero;fill:rgb(0%,0%,100%);fill-opacity:1;" d="M 152.582031 103.777344 C 152.582031 106.441406 148.582031 106.441406 148.582031 103.777344 C 148.582031 101.109375 152.582031 101.109375 152.582031 103.777344 "/>
<path style=" stroke:none;fill-rule:nonzero;fill:rgb(0%,0%,100%);fill-opacity:1;" d="M 127.019531 116.554688 C 127.019531 119.222656 123.019531 119.222656 123.019531 116.554688 C 123.019531 113.890625 127.019531 113.890625 127.019531 116.554688 "/>
<path style="fill:none;stroke-width:0.2;stroke-linecap:butt;stroke-linejoin:miter;stroke:rgb(0%,0%,100%);stroke-opacity:1;stroke-miterlimit:10;" d="M 236.652344 97.386719 C 236.652344 101.386719 230.652344 101.386719 230.652344 97.386719 C 230.652344 93.386719 236.652344 93.386719 236.652344 97.386719 "/>
<path style="fill:none;stroke-width:0.2;stroke-linecap:butt;stroke-linejoin:miter;stroke:rgb(0%,0%,100%);stroke-opacity:1;stroke-miterlimit:10;" d="M 134.410156 97.386719 C 134.410156 101.386719 128.410156 101.386719 128.410156 97.386719 C 128.410156 93.386719 134.410156 93.386719 134.410156 97.386719 "/>
<path style=" stroke:none;fill-rule:nonzero;fill:rgb(0%,0%,100%);fill-opacity:1;" d="M 222.871094 122.945312 C 222.871094 125.613281 218.871094 125.613281 218.871094 122.945312 C 218.871094 120.28125 222.871094 120.28125 222.871094 122.945312 "/>
<path style=" stroke:none;fill-rule:nonzero;fill:rgb(0%,0%,100%);fill-opacity:1;" d="M 146.191406 122.945312 C 146.191406 125.613281 142.191406 125.613281 142.191406 122.945312 C 142.191406 120.28125 146.191406 120.28125 146.191406 122.945312 "/>
<path style=" stroke:none;fill-rule:nonzero;fill:rgb(0%,0%,100%);fill-opacity:1;" d="M 216.480469 103.777344 C 216.480469 106.441406 212.480469 106.441406 212.480469 103.777344 C 212.480469 101.109375 216.480469 101.109375 216.480469 103.777344 "/>
<path style=" stroke:none;fill-rule:nonzero;fill:rgb(0%,0%,100%);fill-opacity:1;" d="M 152.582031 103.777344 C 152.582031 106.441406 148.582031 106.441406 148.582031 103.777344 C 148.582031 101.109375 152.582031 101.109375 152.582031 103.777344 "/>
<path style=" stroke:none;fill-rule:nonzero;fill:rgb(0%,0%,100%);fill-opacity:1;" d="M 127.019531 116.554688 C 127.019531 119.222656 123.019531 119.222656 123.019531 116.554688 C 123.019531 113.890625 127.019531 113.890625 127.019531 116.554688 "/>
<path style=" stroke:none;fill-rule:nonzero;fill:rgb(0%,0%,100%);fill-opacity:1;" d="M 235.652344 97.386719 C 235.652344 100.054688 231.652344 100.054688 231.652344 97.386719 C 231.652344 94.71875 235.652344 94.71875 235.652344 97.386719 "/>
<path style=" stroke:none;fill-rule:nonzero;fill:rgb(0%,0%,100%);fill-opacity:1;" d="M 133.410156 97.386719 C 133.410156 100.054688 129.410156 100.054688 129.410156 97.386719 C 129.410156 94.71875 133.410156 94.71875 133.410156 97.386719 "/>
<path style="fill:none;stroke-width:0.2;stroke-linecap:butt;stroke-linejoin:miter;stroke:rgb(0%,0%,100%);stroke-opacity:1;stroke-miterlimit:10;" d="M 211.089844 84.605469 C 211.089844 88.605469 205.089844 88.605469 205.089844 84.605469 C 205.089844 80.605469 211.089844 80.605469 211.089844 84.605469 "/>
<path style="fill:none;stroke-width:0.2;stroke-linecap:butt;stroke-linejoin:miter;stroke:rgb(0%,0%,100%);stroke-opacity:1;stroke-miterlimit:10;" d="M 159.96875 84.605469 C 159.96875 88.605469 153.96875 88.605469 153.96875 84.605469 C 153.96875 80.605469 159.96875 80.605469 159.96875 84.605469 "/>
<path style=" stroke:none;fill-rule:nonzero;fill:rgb(0%,0%,100%);fill-opacity:1;" d="M 229.261719 78.214844 C 229.261719 80.882812 225.261719 80.882812 225.261719 78.214844 C 225.261719 75.550781 229.261719 75.550781 229.261719 78.214844 "/>
<path style=" stroke:none;fill-rule:nonzero;fill:rgb(0%,0%,100%);fill-opacity:1;" d="M 139.800781 78.214844 C 139.800781 80.882812 135.800781 80.882812 135.800781 78.214844 C 135.800781 75.550781 139.800781 75.550781 139.800781 78.214844 "/>
<path style=" stroke:none;fill-rule:nonzero;fill:rgb(0%,0%,100%);fill-opacity:1;" d="M 210.089844 84.605469 C 210.089844 87.273438 206.089844 87.273438 206.089844 84.605469 C 206.089844 81.941406 210.089844 81.941406 210.089844 84.605469 "/>
<path style=" stroke:none;fill-rule:nonzero;fill:rgb(0%,0%,100%);fill-opacity:1;" d="M 158.96875 84.605469 C 158.96875 87.273438 154.96875 87.273438 154.96875 84.605469 C 154.96875 81.941406 158.96875 81.941406 158.96875 84.605469 "/>
<path style=" stroke:none;fill-rule:nonzero;fill:rgb(0%,0%,100%);fill-opacity:1;" d="M 229.261719 78.214844 C 229.261719 80.882812 225.261719 80.882812 225.261719 78.214844 C 225.261719 75.550781 229.261719 75.550781 229.261719 78.214844 "/>
<path style=" stroke:none;fill-rule:nonzero;fill:rgb(0%,0%,100%);fill-opacity:1;" d="M 139.800781 78.214844 C 139.800781 80.882812 135.800781 80.882812 135.800781 78.214844 C 135.800781 75.550781 139.800781 75.550781 139.800781 78.214844 "/>
<path style="fill:none;stroke-width:0.2;stroke-linecap:butt;stroke-linejoin:miter;stroke:rgb(0%,0%,0%);stroke-opacity:1;stroke-miterlimit:10;" d="M 125.019531 135.726562 L 125.019531 198.589844 L 240.039062 198.589844 L 240.039062 135.726562 L 125.019531 135.726562 "/>
<path style="fill:none;stroke-width:0.2;stroke-linecap:butt;stroke-linejoin:miter;stroke:rgb(0%,0%,100%);stroke-opacity:1;stroke-miterlimit:10;" d="M 185.53125 198.589844 C 185.53125 202.589844 179.53125 202.589844 179.53125 198.589844 C 179.53125 194.589844 185.53125 194.589844 185.53125 198.589844 "/>
<path style=" stroke:none;fill-rule:nonzero;fill:rgb(0%,0%,100%);fill-opacity:1;" d="M 203.699219 192.199219 C 203.699219 194.867188 199.699219 194.867188 199.699219 192.199219 C 199.699219 189.53125 203.699219 189.53125 203.699219 192.199219 "/>
<path style=" stroke:none;fill-rule:nonzero;fill:rgb(0%,0%,100%);fill-opacity:1;" d="M 165.359375 192.199219 C 165.359375 194.867188 161.359375 194.867188 161.359375 192.199219 C 161.359375 189.53125 165.359375 189.53125 165.359375 192.199219 "/>
<path style="fill:none;stroke-width:0.2;stroke-linecap:butt;stroke-linejoin:miter;stroke:rgb(0%,0%,100%);stroke-opacity:1;stroke-miterlimit:10;" d="M 198.308594 173.03125 C 198.308594 177.03125 192.308594 177.03125 192.308594 173.03125 C 192.308594 169.03125 198.308594 169.03125 198.308594 173.03125 "/>
<path style="fill:none;stroke-width:0.2;stroke-linecap:butt;stroke-linejoin:miter;stroke:rgb(0%,0%,100%);stroke-opacity:1;stroke-miterlimit:10;" d="M 172.75 173.03125 C 172.75 177.03125 166.75 177.03125 166.75 173.03125 C 166.75 169.03125 172.75 169.03125 172.75 173.03125 "/>
<path style=" stroke:none;fill-rule:nonzero;fill:rgb(0%,0%,100%);fill-opacity:1;" d="M 184.53125 198.589844 C 184.53125 201.257812 180.53125 201.257812 180.53125 198.589844 C 180.53125 195.921875 184.53125 195.921875 184.53125 198.589844 "/>
<path style=" stroke:none;fill-rule:nonzero;fill:rgb(0%,0%,100%);fill-opacity:1;" d="M 203.699219 192.199219 C 203.699219 194.867188 199.699219 194.867188 199.699219 192.199219 C 199.699219 189.53125 203.699219 189.53125 203.699219 192.199219 "/>
<path style=" stroke:none;fill-rule:nonzero;fill:rgb(0%,0%,100%);fill-opacity:1;" d="M 165.359375 192.199219 C 165.359375 194.867188 161.359375 194.867188 161.359375 192.199219 C 161.359375 189.53125 165.359375 189.53125 165.359375 192.199219 "/>
<path style=" stroke:none;fill-rule:nonzero;fill:rgb(0%,0%,100%);fill-opacity:1;" d="M 197.308594 173.03125 C 197.308594 175.695312 193.308594 175.695312 193.308594 173.03125 C 193.308594 170.363281 197.308594 170.363281 197.308594 173.03125 "/>
<path style=" stroke:none;fill-rule:nonzero;fill:rgb(0%,0%,100%);fill-opacity:1;" d="M 171.75 173.03125 C 171.75 175.695312 167.75 175.695312 167.75 173.03125 C 167.75 170.363281 171.75 170.363281 171.75 173.03125 "/>
<path style=" stroke:none;fill-rule:nonzero;fill:rgb(0%,0%,100%);fill-opacity:1;" d="M 190.921875 153.859375 C 190.921875 156.527344 186.921875 156.527344 186.921875 153.859375 C 186.921875 151.191406 190.921875 151.191406 190.921875 153.859375 "/>
<path style=" stroke:none;fill-rule:nonzero;fill:rgb(0%,0%,100%);fill-opacity:1;" d="M 178.140625 153.859375 C 178.140625 156.527344 174.140625 156.527344 174.140625 153.859375 C 174.140625 151.191406 178.140625 151.191406 178.140625 153.859375 "/>
<path style=" stroke:none;fill-rule:nonzero;fill:rgb(0%,0%,100%);fill-opacity:1;" d="M 190.921875 153.859375 C 190.921875 156.527344 186.921875 156.527344 186.921875 153.859375 C 186.921875 151.191406 190.921875 151.191406 190.921875 153.859375 "/>
<path style=" stroke:none;fill-rule:nonzero;fill:rgb(0%,0%,100%);fill-opacity:1;" d="M 178.140625 153.859375 C 178.140625 156.527344 174.140625 156.527344 174.140625 153.859375 C 174.140625 151.191406 178.140625 151.191406 178.140625 153.859375 "/>
<path style="fill:none;stroke-width:0.2;stroke-linecap:butt;stroke-linejoin:miter;stroke:rgb(0%,0%,100%);stroke-opacity:1;stroke-miterlimit:10;" d="M 223.871094 185.808594 C 223.871094 189.808594 217.871094 189.808594 217.871094 185.808594 C 217.871094 181.808594 223.871094 181.808594 223.871094 185.808594 "/>
<path style="fill:none;stroke-width:0.2;stroke-linecap:butt;stroke-linejoin:miter;stroke:rgb(0%,0%,100%);stroke-opacity:1;stroke-miterlimit:10;" d="M 147.191406 185.808594 C 147.191406 189.808594 141.191406 189.808594 141.191406 185.808594 C 141.191406 181.808594 147.191406 181.808594 147.191406 185.808594 "/>
<path style=" stroke:none;fill-rule:nonzero;fill:rgb(0%,0%,100%);fill-opacity:1;" d="M 216.480469 166.640625 C 216.480469 169.304688 212.480469 169.304688 212.480469 166.640625 C 212.480469 163.972656 216.480469 163.972656 216.480469 166.640625 "/>
<path style=" stroke:none;fill-rule:nonzero;fill:rgb(0%,0%,100%);fill-opacity:1;" d="M 152.582031 166.640625 C 152.582031 169.304688 148.582031 169.304688 148.582031 166.640625 C 148.582031 163.972656 152.582031 163.972656 152.582031 166.640625 "/>
<path style=" stroke:none;fill-rule:nonzero;fill:rgb(0%,0%,100%);fill-opacity:1;" d="M 127.019531 179.417969 C 127.019531 182.085938 123.019531 182.085938 123.019531 179.417969 C 123.019531 176.753906 127.019531 176.753906 127.019531 179.417969 "/>
<path style="fill:none;stroke-width:0.2;stroke-linecap:butt;stroke-linejoin:miter;stroke:rgb(0%,0%,100%);stroke-opacity:1;stroke-miterlimit:10;" d="M 236.652344 160.25 C 236.652344 164.25 230.652344 164.25 230.652344 160.25 C 230.652344 156.25 236.652344 156.25 236.652344 160.25 "/>
<path style="fill:none;stroke-width:0.2;stroke-linecap:butt;stroke-linejoin:miter;stroke:rgb(0%,0%,100%);stroke-opacity:1;stroke-miterlimit:10;" d="M 134.410156 160.25 C 134.410156 164.25 128.410156 164.25 128.410156 160.25 C 128.410156 156.25 134.410156 156.25 134.410156 160.25 "/>
<path style=" stroke:none;fill-rule:nonzero;fill:rgb(0%,0%,100%);fill-opacity:1;" d="M 222.871094 185.808594 C 222.871094 188.476562 218.871094 188.476562 218.871094 185.808594 C 218.871094 183.144531 222.871094 183.144531 222.871094 185.808594 "/>
<path style=" stroke:none;fill-rule:nonzero;fill:rgb(0%,0%,100%);fill-opacity:1;" d="M 146.191406 185.808594 C 146.191406 188.476562 142.191406 188.476562 142.191406 185.808594 C 142.191406 183.144531 146.191406 183.144531 146.191406 185.808594 "/>
<path style=" stroke:none;fill-rule:nonzero;fill:rgb(0%,0%,100%);fill-opacity:1;" d="M 216.480469 166.640625 C 216.480469 169.304688 212.480469 169.304688 212.480469 166.640625 C 212.480469 163.972656 216.480469 163.972656 216.480469 166.640625 "/>
<path style=" stroke:none;fill-rule:nonzero;fill:rgb(0%,0%,100%);fill-opacity:1;" d="M 152.582031 166.640625 C 152.582031 169.304688 148.582031 169.304688 148.582031 166.640625 C 148.582031 163.972656 152.582031 163.972656 152.582031 166.640625 "/>
<path style=" stroke:none;fill-rule:nonzero;fill:rgb(0%,0%,100%);fill-opacity:1;" d="M 127.019531 179.417969 C 127.019531 182.085938 123.019531 182.085938 123.019531 179.417969 C 123.019531 176.753906 127.019531 176.753906 127.019531 179.417969 "/>
<path style=" stroke:none;fill-rule:nonzero;fill:rgb(0%,0%,100%);fill-opacity:1;" d="M 235.652344 160.25 C 235.652344 162.917969 231.652344 162.917969 231.652344 160.25 C 231.652344 157.582031 235.652344 157.582031 235.652344 160.25 "/>
<path style=" stroke:none;fill-rule:nonzero;fill:rgb(0%,0%,100%);fill-opacity:1;" d="M 133.410156 160.25 C 133.410156 162.917969 129.410156 162.917969 129.410156 160.25 C 129.410156 157.582031 133.410156 157.582031 133.410156 160.25 "/>
<path style="fill:none;stroke-width:0.2;stroke-linecap:butt;stroke-linejoin:miter;stroke:rgb(0%,0%,100%);stroke-opacity:1;stroke-miterlimit:10;" d="M 211.089844 147.46875 C 211.089844 151.46875 205.089844 151.46875 205.089844 147.46875 C 205.089844 143.46875 211.089844 143.46875 211.089844 147.46875 "/>
<path style="fill:none;stroke-width:0.2;stroke-linecap:butt;stroke-linejoin:miter;stroke:rgb(0%,0%,100%);stroke-opacity:1;stroke-miterlimit:10;" d="M 159.96875 147.46875 C 159.96875 151.46875 153.96875 151.46875 153.96875 147.46875 C 153.96875 143.46875 159.96875 143.46875 159.96875 147.46875 "/>
<path style=" stroke:none;fill-rule:nonzero;fill:rgb(0%,0%,100%);fill-opacity:1;" d="M 229.261719 141.078125 C 229.261719 143.746094 225.261719 143.746094 225.261719 141.078125 C 225.261719 138.414062 229.261719 138.414062 229.261719 141.078125 "/>
<path style=" stroke:none;fill-rule:nonzero;fill:rgb(0%,0%,100%);fill-opacity:1;" d="M 139.800781 141.078125 C 139.800781 143.746094 135.800781 143.746094 135.800781 141.078125 C 135.800781 138.414062 139.800781 138.414062 139.800781 141.078125 "/>
<path style=" stroke:none;fill-rule:nonzero;fill:rgb(0%,0%,100%);fill-opacity:1;" d="M 210.089844 147.46875 C 210.089844 150.136719 206.089844 150.136719 206.089844 147.46875 C 206.089844 144.804688 210.089844 144.804688 210.089844 147.46875 "/>
<path style=" stroke:none;fill-rule:nonzero;fill:rgb(0%,0%,100%);fill-opacity:1;" d="M 158.96875 147.46875 C 158.96875 150.136719 154.96875 150.136719 154.96875 147.46875 C 154.96875 144.804688 158.96875 144.804688 158.96875 147.46875 "/>
<path style=" stroke:none;fill-rule:nonzero;fill:rgb(0%,0%,100%);fill-opacity:1;" d="M 229.261719 141.078125 C 229.261719 143.746094 225.261719 143.746094 225.261719 141.078125 C 225.261719 138.414062 229.261719 138.414062 229.261719 141.078125 "/>
<path style=" stroke:none;fill-rule:nonzero;fill:rgb(0%,0%,100%);fill-opacity:1;" d="M 139.800781 141.078125 C 139.800781 143.746094 135.800781 143.746094 135.800781 141.078125 C 135.800781 138.414062 139.800781 138.414062 139.800781 141.078125 "/>
<path style="fill:none;stroke-width:0.2;stroke-linecap:butt;stroke-linejoin:miter;stroke:rgb(0%,0%,0%);stroke-opacity:1;stroke-miterlimit:10;" d="M 240.039062 10 L 240.039062 72.863281 L 355.0625 72.863281 L 355.0625 10 L 240.039062 10 "/>
<path style="fill:none;stroke-width:0.2;stroke-linecap:butt;stroke-linejoin:miter;stroke:rgb(0%,0%,100%);stroke-opacity:1;stroke-miterlimit:10;" d="M 300.550781 72.863281 C 300.550781 76.863281 294.550781 76.863281 294.550781 72.863281 C 294.550781 68.863281 300.550781 68.863281 300.550781 72.863281 "/>
<path style=" stroke:none;fill-rule:nonzero;fill:rgb(0%,0%,100%);fill-opacity:1;" d="M 280.378906 66.472656 C 280.378906 69.140625 276.378906 69.140625 276.378906 66.472656 C 276.378906 63.804688 280.378906 63.804688 280.378906 66.472656 "/>
<path style="fill:none;stroke-width:0.2;stroke-linecap:butt;stroke-linejoin:miter;stroke:rgb(0%,0%,100%);stroke-opacity:1;stroke-miterlimit:10;" d="M 287.769531 47.304688 C 287.769531 51.304688 281.769531 51.304688 281.769531 47.304688 C 281.769531 43.304688 287.769531 43.304688 287.769531 47.304688 "/>
<path style=" stroke:none;fill-rule:nonzero;fill:rgb(0%,0%,100%);fill-opacity:1;" d="M 299.550781 72.863281 C 299.550781 75.53125 295.550781 75.53125 295.550781 72.863281 C 295.550781 70.195312 299.550781 70.195312 299.550781 72.863281 "/>
<path style=" stroke:none;fill-rule:nonzero;fill:rgb(0%,0%,100%);fill-opacity:1;" d="M 280.378906 66.472656 C 280.378906 69.140625 276.378906 69.140625 276.378906 66.472656 C 276.378906 63.804688 280.378906 63.804688 280.378906 66.472656 "/>
<path style=" stroke:none;fill-rule:nonzero;fill:rgb(0%,0%,100%);fill-opacity:1;" d="M 286.769531 47.304688 C 286.769531 49.96875 282.769531 49.96875 282.769531 47.304688 C 282.769531 44.636719 286.769531 44.636719 286.769531 47.304688 "/>
<path style=" stroke:none;fill-rule:nonzero;fill:rgb(0%,0%,100%);fill-opacity:1;" d="M 293.160156 28.132812 C 293.160156 30.800781 289.160156 30.800781 289.160156 28.132812 C 289.160156 25.464844 293.160156 25.464844 293.160156 28.132812 "/>
<path style=" stroke:none;fill-rule:nonzero;fill:rgb(0%,0%,100%);fill-opacity:1;" d="M 293.160156 28.132812 C 293.160156 30.800781 289.160156 30.800781 289.160156 28.132812 C 289.160156 25.464844 293.160156 25.464844 293.160156 28.132812 "/>
<path style="fill:none;stroke-width:0.2;stroke-linecap:butt;stroke-linejoin:miter;stroke:rgb(0%,0%,100%);stroke-opacity:1;stroke-miterlimit:10;" d="M 262.210938 60.082031 C 262.210938 64.082031 256.210938 64.082031 256.210938 60.082031 C 256.210938 56.082031 262.210938 56.082031 262.210938 60.082031 "/>
<path style=" stroke:none;fill-rule:nonzero;fill:rgb(0%,0%,100%);fill-opacity:1;" d="M 267.601562 40.914062 C 267.601562 43.578125 263.601562 43.578125 263.601562 40.914062 C 263.601562 38.246094 267.601562 38.246094 267.601562 40.914062 "/>
<path style=" stroke:none;fill-rule:nonzero;fill:rgb(0%,0%,100%);fill-opacity:1;" d="M 242.039062 53.691406 C 242.039062 56.359375 238.039062 56.359375 238.039062 53.691406 C 238.039062 51.027344 242.039062 51.027344 242.039062 53.691406 "/>
<path style="fill:none;stroke-width:0.2;stroke-linecap:butt;stroke-linejoin:miter;stroke:rgb(0%,0%,100%);stroke-opacity:1;stroke-miterlimit:10;" d="M 249.429688 34.523438 C 249.429688 38.523438 243.429688 38.523438 243.429688 34.523438 C 243.429688 30.523438 249.429688 30.523438 249.429688 34.523438 "/>
<path style=" stroke:none;fill-rule:nonzero;fill:rgb(0%,0%,100%);fill-opacity:1;" d="M 261.210938 60.082031 C 261.210938 62.75 257.210938 62.75 257.210938 60.082031 C 257.210938 57.417969 261.210938 57.417969 261.210938 60.082031 "/>
<path style=" stroke:none;fill-rule:nonzero;fill:rgb(0%,0%,100%);fill-opacity:1;" d="M 267.601562 40.914062 C 267.601562 43.578125 263.601562 43.578125 263.601562 40.914062 C 263.601562 38.246094 267.601562 38.246094 267.601562 40.914062 "/>
<path style=" stroke:none;fill-rule:nonzero;fill:rgb(0%,0%,100%);fill-opacity:1;" d="M 242.039062 53.691406 C 242.039062 56.359375 238.039062 56.359375 238.039062 53.691406 C 238.039062 51.027344 242.039062 51.027344 242.039062 53.691406 "/>
<path style=" stroke:none;fill-rule:nonzero;fill:rgb(0%,0%,100%);fill-opacity:1;" d="M 248.429688 34.523438 C 248.429688 37.191406 244.429688 37.191406 244.429688 34.523438 C 244.429688 31.855469 248.429688 31.855469 248.429688 34.523438 "/>
<path style="fill:none;stroke-width:0.2;stroke-linecap:butt;stroke-linejoin:miter;stroke:rgb(0%,0%,100%);stroke-opacity:1;stroke-miterlimit:10;" d="M 274.992188 21.742188 C 274.992188 25.742188 268.992188 25.742188 268.992188 21.742188 C 268.992188 17.742188 274.992188 17.742188 274.992188 21.742188 "/>
<path style=" stroke:none;fill-rule:nonzero;fill:rgb(0%,0%,100%);fill-opacity:1;" d="M 254.820312 15.351562 C 254.820312 18.019531 250.820312 18.019531 250.820312 15.351562 C 250.820312 12.6875 254.820312 12.6875 254.820312 15.351562 "/>
<path style=" stroke:none;fill-rule:nonzero;fill:rgb(0%,0%,100%);fill-opacity:1;" d="M 273.992188 21.742188 C 273.992188 24.410156 269.992188 24.410156 269.992188 21.742188 C 269.992188 19.078125 273.992188 19.078125 273.992188 21.742188 "/>
<path style=" stroke:none;fill-rule:nonzero;fill:rgb(0%,0%,100%);fill-opacity:1;" d="M 254.820312 15.351562 C 254.820312 18.019531 250.820312 18.019531 250.820312 15.351562 C 250.820312 12.6875 254.820312 12.6875 254.820312 15.351562 "/>
<path style="fill:none;stroke-width:0.2;stroke-linecap:butt;stroke-linejoin:miter;stroke:rgb(0%,0%,0%);stroke-opacity:1;stroke-miterlimit:10;" d="M 240.039062 72.863281 L 240.039062 135.726562 L 355.0625 135.726562 L 355.0625 72.863281 L 240.039062 72.863281 "/>
<path style="fill:none;stroke-width:0.2;stroke-linecap:butt;stroke-linejoin:miter;stroke:rgb(0%,0%,100%);stroke-opacity:1;stroke-miterlimit:10;" d="M 300.550781 135.726562 C 300.550781 139.726562 294.550781 139.726562 294.550781 135.726562 C 294.550781 131.726562 300.550781 131.726562 300.550781 135.726562 "/>
<path style=" stroke:none;fill-rule:nonzero;fill:rgb(0%,0%,100%);fill-opacity:1;" d="M 280.378906 129.335938 C 280.378906 132.003906 276.378906 132.003906 276.378906 129.335938 C 276.378906 126.667969 280.378906 126.667969 280.378906 129.335938 "/>
<path style="fill:none;stroke-width:0.2;stroke-linecap:butt;stroke-linejoin:miter;stroke:rgb(0%,0%,100%);stroke-opacity:1;stroke-miterlimit:10;" d="M 287.769531 110.167969 C 287.769531 114.167969 281.769531 114.167969 281.769531 110.167969 C 281.769531 106.167969 287.769531 106.167969 287.769531 110.167969 "/>
<path style=" stroke:none;fill-rule:nonzero;fill:rgb(0%,0%,100%);fill-opacity:1;" d="M 299.550781 135.726562 C 299.550781 138.394531 295.550781 138.394531 295.550781 135.726562 C 295.550781 133.058594 299.550781 133.058594 299.550781 135.726562 "/>
<path style=" stroke:none;fill-rule:nonzero;fill:rgb(0%,0%,100%);fill-opacity:1;" d="M 280.378906 129.335938 C 280.378906 132.003906 276.378906 132.003906 276.378906 129.335938 C 276.378906 126.667969 280.378906 126.667969 280.378906 129.335938 "/>
<path style=" stroke:none;fill-rule:nonzero;fill:rgb(0%,0%,100%);fill-opacity:1;" d="M 286.769531 110.167969 C 286.769531 112.832031 282.769531 112.832031 282.769531 110.167969 C 282.769531 107.5 286.769531 107.5 286.769531 110.167969 "/>
<path style=" stroke:none;fill-rule:nonzero;fill:rgb(0%,0%,100%);fill-opacity:1;" d="M 293.160156 90.996094 C 293.160156 93.664062 289.160156 93.664062 289.160156 90.996094 C 289.160156 88.328125 293.160156 88.328125 293.160156 90.996094 "/>
<path style=" stroke:none;fill-rule:nonzero;fill:rgb(0%,0%,100%);fill-opacity:1;" d="M 293.160156 90.996094 C 293.160156 93.664062 289.160156 93.664062 289.160156 90.996094 C 289.160156 88.328125 293.160156 88.328125 293.160156 90.996094 "/>
<path style="fill:none;stroke-width:0.2;stroke-linecap:butt;stroke-linejoin:miter;stroke:rgb(0%,0%,100%);stroke-opacity:1;stroke-miterlimit:10;" d="M 262.210938 122.945312 C 262.210938 126.945312 256.210938 126.945312 256.210938 122.945312 C 256.210938 118.945312 262.210938 118.945312 262.210938 122.945312 "/>
<path style=" stroke:none;fill-rule:nonzero;fill:rgb(0%,0%,100%);fill-opacity:1;" d="M 267.601562 103.777344 C 267.601562 106.441406 263.601562 106.441406 263.601562 103.777344 C 263.601562 101.109375 267.601562 101.109375 267.601562 103.777344 "/>
<path style=" stroke:none;fill-rule:nonzero;fill:rgb(0%,0%,100%);fill-opacity:1;" d="M 242.039062 116.554688 C 242.039062 119.222656 238.039062 119.222656 238.039062 116.554688 C 238.039062 113.890625 242.039062 113.890625 242.039062 116.554688 "/>
<path style="fill:none;stroke-width:0.2;stroke-linecap:butt;stroke-linejoin:miter;stroke:rgb(0%,0%,100%);stroke-opacity:1;stroke-miterlimit:10;" d="M 249.429688 97.386719 C 249.429688 101.386719 243.429688 101.386719 243.429688 97.386719 C 243.429688 93.386719 249.429688 93.386719 249.429688 97.386719 "/>
<path style=" stroke:none;fill-rule:nonzero;fill:rgb(0%,0%,100%);fill-opacity:1;" d="M 261.210938 122.945312 C 261.210938 125.613281 257.210938 125.613281 257.210938 122.945312 C 257.210938 120.28125 261.210938 120.28125 261.210938 122.945312 "/>
<path style=" stroke:none;fill-rule:nonzero;fill:rgb(0%,0%,100%);fill-opacity:1;" d="M 267.601562 103.777344 C 267.601562 106.441406 263.601562 106.441406 263.601562 103.777344 C 263.601562 101.109375 267.601562 101.109375 267.601562 103.777344 "/>
<path style=" stroke:none;fill-rule:nonzero;fill:rgb(0%,0%,100%);fill-opacity:1;" d="M 242.039062 116.554688 C 242.039062 119.222656 238.039062 119.222656 238.039062 116.554688 C 238.039062 113.890625 242.039062 113.890625 242.039062 116.554688 "/>
<path style=" stroke:none;fill-rule:nonzero;fill:rgb(0%,0%,100%);fill-opacity:1;" d="M 248.429688 97.386719 C 248.429688 100.054688 244.429688 100.054688 244.429688 97.386719 C 244.429688 94.71875 248.429688 94.71875 248.429688 97.386719 "/>
<path style="fill:none;stroke-width:0.2;stroke-linecap:butt;stroke-linejoin:miter;stroke:rgb(0%,0%,100%);stroke-opacity:1;stroke-miterlimit:10;" d="M 274.992188 84.605469 C 274.992188 88.605469 268.992188 88.605469 268.992188 84.605469 C 268.992188 80.605469 274.992188 80.605469 274.992188 84.605469 "/>
<path style=" stroke:none;fill-rule:nonzero;fill:rgb(0%,0%,100%);fill-opacity:1;" d="M 254.820312 78.214844 C 254.820312 80.882812 250.820312 80.882812 250.820312 78.214844 C 250.820312 75.550781 254.820312 75.550781 254.820312 78.214844 "/>
<path style=" stroke:none;fill-rule:nonzero;fill:rgb(0%,0%,100%);fill-opacity:1;" d="M 273.992188 84.605469 C 273.992188 87.273438 269.992188 87.273438 269.992188 84.605469 C 269.992188 81.941406 273.992188 81.941406 273.992188 84.605469 "/>
<path style=" stroke:none;fill-rule:nonzero;fill:rgb(0%,0%,100%);fill-opacity:1;" d="M 254.820312 78.214844 C 254.820312 80.882812 250.820312 80.882812 250.820312 78.214844 C 250.820312 75.550781 254.820312 75.550781 254.820312 78.214844 "/>
<path style="fill:none;stroke-width:0.2;stroke-linecap:butt;stroke-linejoin:miter;stroke:rgb(0%,0%,0%);stroke-opacity:1;stroke-miterlimit:10;" d="M 240.039062 135.726562 L 240.039062 198.589844 L 355.0625 198.589844 L 355.0625 135.726562 L 240.039062 135.726562 "/>
<path style="fill:none;stroke-width:0.2;stroke-linecap:butt;stroke-linejoin:miter;stroke:rgb(0%,0%,100%);stroke-opacity:1;stroke-miterlimit:10;" d="M 300.550781 198.589844 C 300.550781 202.589844 294.550781 202.589844 294.550781 198.589844 C 294.550781 194.589844 300.550781 194.589844 300.550781 198.589844 "/>
<path style=" stroke:none;fill-rule:nonzero;fill:rgb(0%,0%,100%);fill-opacity:1;" d="M 280.378906 192.199219 C 280.378906 194.867188 276.378906 194.867188 276.378906 192.199219 C 276.378906 189.53125 280.378906 189.53125 280.378906 192.199219 "/>
<path style="fill:none;stroke-width:0.2;stroke-linecap:butt;stroke-linejoin:miter;stroke:rgb(0%,0%,100%);stroke-opacity:1;stroke-miterlimit:10;" d="M 287.769531 173.03125 C 287.769531 177.03125 281.769531 177.03125 281.769531 173.03125 C 281.769531 169.03125 287.769531 169.03125 287.769531 173.03125 "/>
<path style=" stroke:none;fill-rule:nonzero;fill:rgb(0%,0%,100%);fill-opacity:1;" d="M 299.550781 198.589844 C 299.550781 201.257812 295.550781 201.257812 295.550781 198.589844 C 295.550781 195.921875 299.550781 195.921875 299.550781 198.589844 "/>
<path style=" stroke:none;fill-rule:nonzero;fill:rgb(0%,0%,100%);fill-opacity:1;" d="M 280.378906 192.199219 C 280.378906 194.867188 276.378906 194.867188 276.378906 192.199219 C 276.378906 189.53125 280.378906 189.53125 280.378906 192.199219 "/>
<path style=" stroke:none;fill-rule:nonzero;fill:rgb(0%,0%,100%);fill-opacity:1;" d="M 286.769531 173.03125 C 286.769531 175.695312 282.769531 175.695312 282.769531 173.03125 C 282.769531 170.363281 286.769531 170.363281 286.769531 173.03125 "/>
<path style=" stroke:none;fill-rule:nonzero;fill:rgb(0%,0%,100%);fill-opacity:1;" d="M 293.160156 153.859375 C 293.160156 156.527344 289.160156 156.527344 289.160156 153.859375 C 289.160156 151.191406 293.160156 151.191406 293.160156 153.859375 "/>
<path style=" stroke:none;fill-rule:nonzero;fill:rgb(0%,0%,100%);fill-opacity:1;" d="M 293.160156 153.859375 C 293.160156 156.527344 289.160156 156.527344 289.160156 153.859375 C 289.160156 151.191406 293.160156 151.191406 293.160156 153.859375 "/>
<path style="fill:none;stroke-width:0.2;stroke-linecap:butt;stroke-linejoin:miter;stroke:rgb(0%,0%,100%);stroke-opacity:1;stroke-miterlimit:10;" d="M 262.210938 185.808594 C 262.210938 189.808594 256.210938 189.808594 256.210938 185.808594 C 256.210938 181.808594 262.210938 181.808594 262.210938 185.808594 "/>
<path style=" stroke:none;fill-rule:nonzero;fill:rgb(0%,0%,100%);fill-opacity:1;" d="M 267.601562 166.640625 C 267.601562 169.304688 263.601562 169.304688 263.601562 166.640625 C 263.601562 163.972656 267.601562 163.972656 267.601562 166.640625 "/>
<path style=" stroke:none;fill-rule:nonzero;fill:rgb(0%,0%,100%);fill-opacity:1;" d="M 242.039062 179.417969 C 242.039062 182.085938 238.039062 182.085938 238.039062 179.417969 C 238.039062 176.753906 242.039062 176.753906 242.039062 179.417969 "/>
<path style="fill:none;stroke-width:0.2;stroke-linecap:butt;stroke-linejoin:miter;stroke:rgb(0%,0%,100%);stroke-opacity:1;stroke-miterlimit:10;" d="M 249.429688 160.25 C 249.429688 164.25 243.429688 164.25 243.429688 160.25 C 243.429688 156.25 249.429688 156.25 249.429688 160.25 "/>
<path style=" stroke:none;fill-rule:nonzero;fill:rgb(0%,0%,100%);fill-opacity:1;" d="M 261.210938 185.808594 C 261.210938 188.476562 257.210938 188.476562 257.210938 185.808594 C 257.210938 183.144531 261.210938 183.144531 261.210938 185.808594 "/>
<path style=" stroke:none;fill-rule:nonzero;fill:rgb(0%,0%,100%);fill-opacity:1;" d="M 267.601562 166.640625 C 267.601562 169.304688 263.601562 169.304688 263.601562 166.640625 C 263.601562 163.972656 267.601562 163.972656 267.601562 166.640625 "/>
<path style=" stroke:none;fill-rule:nonzero;fill:rgb(0%,0%,100%);fill-opacity:1;" d="M 242.039062 179.417969 C 242.039062 182.085938 238.039062 182.085938 238.039062 179.417969 C 238.039062 176.753906 242.039062 176.753906 242.039062 179.417969 "/>
<path style=" stroke:none;fill-rule:nonzero;fill:rgb(0%,0%,100%);fill-opacity:1;" d="M 248.429688 160.25 C 248.429688 162.917969 244.429688 162.917969 244.429688 160.25 C 244.429688 157.582031 248.429688 157.582031 248.429688 160.25 "/>
<path style="fill:none;stroke-width:0.2;stroke-linecap:butt;stroke-linejoin:miter;stroke:rgb(0%,0%,100%);stroke-opacity:1;stroke-miterlimit:10;" d="M 274.992188 147.46875 C 274.992188 151.46875 268.992188 151.46875 268.992188 147.46875 C 268.992188 143.46875 274.992188 143.46875 274.992188 147.46875 "/>
<path style=" stroke:none;fill-rule:nonzero;fill:rgb(0%,0%,100%);fill-opacity:1;" d="M 254.820312 141.078125 C 254.820312 143.746094 250.820312 143.746094 250.820312 141.078125 C 250.820312 138.414062 254.820312 138.414062 254.820312 141.078125 "/>
<path style=" stroke:none;fill-rule:nonzero;fill:rgb(0%,0%,100%);fill-opacity:1;" d="M 273.992188 147.46875 C 273.992188 150.136719 269.992188 150.136719 269.992188 147.46875 C 269.992188 144.804688 273.992188 144.804688 273.992188 147.46875 "/>
<path style=" stroke:none;fill-rule:nonzero;fill:rgb(0%,0%,100%);fill-opacity:1;" d="M 254.820312 141.078125 C 254.820312 143.746094 250.820312 143.746094 250.820312 141.078125 C 250.820312 138.414062 254.820312 138.414062 254.820312 141.078125 "/>
</g>
</svg>
