<?xml version="1.0" encoding="UTF-8"?>
<svg xmlns="http://www.w3.org/2000/svg" xmlns:xlink="http://www.w3.org/1999/xlink" width="300pt" height="200pt" viewBox="0 0 300 200" version="1.1">
<g id="surface1">
<rect x="0" y="0" width="300" height="200" style="fill:rgb(90%,90%,90%);fill-opacity:1;stroke:none;"/>
<path style=" stroke:none;fill-rule:nonzero;fill:rgb(100%,0%,0%);fill-opacity:1;" d="M 131.398438 0 C 131.398438 2.667969 127.398438 2.667969 127.398438 0 C 127.398438 -2.667969 131.398438 -2.667969 131.398438 0 "/>
<path style=" stroke:none;fill-rule:nonzero;fill:rgb(100%,0%,0%);fill-opacity:1;" d="M 174.53125 9.585938 C 174.53125 12.25 170.53125 12.25 170.53125 9.585938 C 170.53125 6.917969 174.53125 6.917969 174.53125 9.585938 "/>
<path style=" stroke:none;fill-rule:nonzero;fill:rgb(100%,0%,0%);fill-opacity:1;" d="M 88.265625 9.585938 C 88.265625 12.25 84.265625 12.25 84.265625 9.585938 C 84.265625 6.917969 88.265625 6.917969 88.265625 9.585938 "/>
<path style=" stroke:none;fill-rule:nonzero;fill:rgb(100%,0%,0%);fill-opacity:1;" d="M 160.152344 38.339844 C 160.152344 41.007812 156.152344 41.007812 156.152344 38.339844 C 156.152344 35.671875 160.152344 35.671875 160.152344 38.339844 "/>
<path style=" stroke:none;fill-rule:nonzero;fill:rgb(100%,0%,0%);fill-opacity:1;" d="M 102.644531 38.339844 C 102.644531 41.007812 98.644531 41.007812 98.644531 38.339844 C 98.644531 35.671875 102.644531 35.671875 102.644531 38.339844 "/>
<path style=" stroke:none;fill-rule:nonzero;fill:rgb(100%,0%,0%);fill-opacity:1;" d="M 131.398438 0 C 131.398438 2.667969 127.398438 2.667969 127.398438 0 C 127.398438 -2.667969 131.398438 -2.667969 131.398438 0 "/>
<path style=" stroke:none;fill-rule:nonzero;fill:rgb(100%,0%,0%);fill-opacity:1;" d="M 174.53125 9.585938 C 174.53125 12.25 170.53125 12.25 170.53125 9.585938 C 170.53125 6.917969 174.53125 6.917969 174.53125 9.585938 "/>
<path style=" stroke:none;fill-rule:nonzero;fill:rgb(100%,0%,0%);fill-opacity:1;" d="M 88.265625 9.585938 C 88.265625 12.25 84.265625 12.25 84.265625 9.585938 C 84.265625 6.917969 88.265625 6.917969 88.265625 9.585938 "/>
<path style=" stroke:none;fill-rule:nonzero;fill:rgb(100%,0%,0%);fill-opacity:1;" d="M 160.152344 38.339844 C 160.152344 41.007812 156.152344 41.007812 156.152344 38.339844 C 156.152344 35.671875 160.152344 35.671875 160.152344 38.339844 "/>
<path style=" stroke:none;fill-rule:nonzero;fill:rgb(100%,0%,0%);fill-opacity:1;" d="M 102.644531 38.339844 C 102.644531 41.007812 98.644531 41.007812 98.644531 38.339844 C 98.644531 35.671875 102.644531 35.671875 102.644531 38.339844 "/>
<path style=" stroke:none;fill-rule:nonzero;fill:rgb(100%,0%,0%);fill-opacity:1;" d="M 145.773438 67.09375 C 145.773438 69.761719 141.773438 69.761719 141.773438 67.09375 C 141.773438 64.429688 145.773438 64.429688 145.773438 67.09375 "/>
<path style=" stroke:none;fill-rule:nonzero;fill:rgb(100%,0%,0%);fill-opacity:1;" d="M 117.019531 67.09375 C 117.019531 69.761719 113.019531 69.761719 113.019531 67.09375 C 113.019531 64.429688 117.019531 64.429688 117.019531 67.09375 "/>
<path style=" stroke:none;fill-rule:nonzero;fill:rgb(100%,0%,0%);fill-opacity:1;" d="M 145.773438 67.09375 C 145.773438 69.761719 141.773438 69.761719 141.773438 67.09375 C 141.773438 64.429688 145.773438 64.429688 145.773438 67.09375 "/>
<path style=" stroke:none;fill-rule:nonzero;fill:rgb(100%,0%,0%);fill-opacity:1;" d="M 117.019531 67.09375 C 117.019531 69.761719 113.019531 69.761719 113.019531 67.09375 C 113.019531 64.429688 117.019531 64.429688 117.019531 67.09375 "/>
<path style=" stroke:none;fill-rule:nonzero;fill:rgb(100%,0%,0%);fill-opacity:1;" d="M 217.664062 19.171875 C 217.664062 21.835938 213.664062 21.835938 213.664062 19.171875 C 213.664062 16.503906 217.664062 16.503906 217.664062 19.171875 "/>
<path style=" stroke:none;fill-rule:nonzero;fill:rgb(100%,0%,0%);fill-opacity:1;" d="M 45.132812 19.171875 C 45.132812 21.835938 41.132812 21.835938 41.132812 19.171875 C 41.132812 16.503906 45.132812 16.503906 45.132812 19.171875 "/>
<path style=" stroke:none;fill-rule:nonzero;fill:rgb(100%,0%,0%);fill-opacity:1;" d="M 203.285156 47.925781 C 203.285156 50.589844 199.285156 50.589844 199.285156 47.925781 C 199.285156 45.257812 203.285156 45.257812 203.285156 47.925781 "/>
<path style=" stroke:none;fill-rule:nonzero;fill:rgb(100%,0%,0%);fill-opacity:1;" d="M 59.511719 47.925781 C 59.511719 50.589844 55.511719 50.589844 55.511719 47.925781 C 55.511719 45.257812 59.511719 45.257812 59.511719 47.925781 "/>
<path style=" stroke:none;fill-rule:nonzero;fill:rgb(100%,0%,0%);fill-opacity:1;" d="M 2 28.753906 C 2 31.421875 -2 31.421875 -2 28.753906 C -2 26.089844 2 26.089844 2 28.753906 "/>
<path style=" stroke:none;fill-rule:nonzero;fill:rgb(100%,0%,0%);fill-opacity:1;" d="M 246.417969 57.511719 C 246.417969 60.175781 242.417969 60.175781 242.417969 57.511719 C 242.417969 54.84375 246.417969 54.84375 246.417969 57.511719 "/>
<path style=" stroke:none;fill-rule:nonzero;fill:rgb(100%,0%,0%);fill-opacity:1;" d="M 16.378906 57.511719 C 16.378906 60.175781 12.378906 60.175781 12.378906 57.511719 C 12.378906 54.84375 16.378906 54.84375 16.378906 57.511719 "/>
<path style=" stroke:none;fill-rule:nonzero;fill:rgb(100%,0%,0%);fill-opacity:1;" d="M 217.664062 19.171875 C 217.664062 21.835938 213.664062 21.835938 213.664062 19.171875 C 213.664062 16.503906 217.664062 16.503906 217.664062 19.171875 "/>
<path style=" stroke:none;fill-rule:nonzero;fill:rgb(100%,0%,0%);fill-opacity:1;" d="M 45.132812 19.171875 C 45.132812 21.835938 41.132812 21.835938 41.132812 19.171875 C 41.132812 16.503906 45.132812 16.503906 45.132812 19.171875 "/>
<path style=" stroke:none;fill-rule:nonzero;fill:rgb(100%,0%,0%);fill-opacity:1;" d="M 203.285156 47.925781 C 203.285156 50.589844 199.285156 50.589844 199.285156 47.925781 C 199.285156 45.257812 203.285156 45.257812 203.285156 47.925781 "/>
<path style=" stroke:none;fill-rule:nonzero;fill:rgb(100%,0%,0%);fill-opacity:1;" d="M 59.511719 47.925781 C 59.511719 50.589844 55.511719 50.589844 55.511719 47.925781 C 55.511719 45.257812 59.511719 45.257812 59.511719 47.925781 "/>
<path style=" stroke:none;fill-rule:nonzero;fill:rgb(100%,0%,0%);fill-opacity:1;" d="M 2 28.753906 C 2 31.421875 -2 31.421875 -2 28.753906 C -2 26.089844 2 26.089844 2 28.753906 "/>
<path style=" stroke:none;fill-rule:nonzero;fill:rgb(100%,0%,0%);fill-opacity:1;" d="M 246.417969 57.511719 C 246.417969 60.175781 242.417969 60.175781 242.417969 57.511719 C 242.417969 54.84375 246.417969 54.84375 246.417969 57.511719 "/>
<path style=" stroke:none;fill-rule:nonzero;fill:rgb(100%,0%,0%);fill-opacity:1;" d="M 16.378906 57.511719 C 16.378906 60.175781 12.378906 60.175781 12.378906 57.511719 C 12.378906 54.84375 16.378906 54.84375 16.378906 57.511719 "/>
<path style=" stroke:none;fill-rule:nonzero;fill:rgb(100%,0%,0%);fill-opacity:1;" d="M 188.90625 76.679688 C 188.90625 79.347656 184.90625 79.347656 184.90625 76.679688 C 184.90625 74.011719 188.90625 74.011719 188.90625 76.679688 "/>
<path style=" stroke:none;fill-rule:nonzero;fill:rgb(100%,0%,0%);fill-opacity:1;" d="M 73.886719 76.679688 C 73.886719 79.347656 69.886719 79.347656 69.886719 76.679688 C 69.886719 74.011719 73.886719 74.011719 73.886719 76.679688 "/>
<path style=" stroke:none;fill-rule:nonzero;fill:rgb(100%,0%,0%);fill-opacity:1;" d="M 232.039062 86.265625 C 232.039062 88.933594 228.039062 88.933594 228.039062 86.265625 C 228.039062 83.597656 232.039062 83.597656 232.039062 86.265625 "/>
<path style=" stroke:none;fill-rule:nonzero;fill:rgb(100%,0%,0%);fill-opacity:1;" d="M 30.753906 86.265625 C 30.753906 88.933594 26.753906 88.933594 26.753906 86.265625 C 26.753906 83.597656 30.753906 83.597656 30.753906 86.265625 "/>
<path style=" stroke:none;fill-rule:nonzero;fill:rgb(100%,0%,0%);fill-opacity:1;" d="M 188.90625 76.679688 C 188.90625 79.347656 184.90625 79.347656 184.90625 76.679688 C 184.90625 74.011719 188.90625 74.011719 188.90625 76.679688 "/>
<path style=" stroke:none;fill-rule:nonzero;fill:rgb(100%,0%,0%);fill-opacity:1;" d="M 73.886719 76.679688 C 73.886719 79.347656 69.886719 79.347656 69.886719 76.679688 C 69.886719 74.011719 73.886719 74.011719 73.886719 76.679688 "/>
<path style=" stroke:none;fill-rule:nonzero;fill:rgb(100%,0%,0%);fill-opacity:1;" d="M 232.039062 86.265625 C 232.039062 88.933594 228.039062 88.933594 228.039062 86.265625 C 228.039062 83.597656 232.039062 83.597656 232.039062 86.265625 "/>
<path style=" stroke:none;fill-rule:nonzero;fill:rgb(100%,0%,0%);fill-opacity:1;" d="M 30.753906 86.265625 C 30.753906 88.933594 26.753906 88.933594 26.753906 86.265625 C 26.753906 83.597656 30.753906 83.597656 30.753906 86.265625 "/>
<path style="fill:none;stroke-width:2;stroke-linecap:butt;stroke-linejoin:miter;stroke:rgb(0%,0%,0%);stroke-opacity:1;stroke-miterlimit:10;" d="M 0 2 L 0 200 "/>
<path style="fill:none;stroke-width:2;stroke-linecap:butt;stroke-linejoin:miter;stroke:rgb(0%,0%,0%);stroke-opacity:1;stroke-miterlimit:10;" d="M 2 0 L 300 0 "/>
</g>
</svg>
