<?xml version="1.0" encoding="UTF-8"?>
<svg xmlns="http://www.w3.org/2000/svg" xmlns:xlink="http://www.w3.org/1999/xlink" width="300pt" height="200pt" viewBox="0 0 300 200" version="1.1">
<g id="surface1">
<rect x="0" y="0" width="300" height="200" style="fill:rgb(90%,90%,90%);fill-opacity:1;stroke:none;"/>
<path style="fill:none;stroke-width:2;stroke-linecap:butt;stroke-linejoin:miter;stroke:rgb(0%,0%,0%);stroke-opacity:1;stroke-miterlimit:10;" d="M 150 100 L 150 10100 "/>
<path style="fill:none;stroke-width:2;stroke-linecap:butt;stroke-linejoin:miter;stroke:rgb(0%,0%,0%);stroke-opacity:1;stroke-miterlimit:10;" d="M 150 100 L 10150 100 "/>
<path style=" stroke:none;fill-rule:nonzero;fill:rgb(100%,0%,0%);fill-opacity:1;" d="M 102 150 C 102 152.667969 98 152.667969 98 150 C 98 147.332031 102 147.332031 102 150 "/>
<path style=" stroke:none;fill-rule:nonzero;fill:rgb(100%,0%,0%);fill-opacity:1;" d="M 103.164062 150.042969 C 103.164062 152.707031 99.164062 152.707031 99.164062 150.042969 C 99.164062 147.375 103.164062 147.375 103.164062 150.042969 "/>
<path style=" stroke:none;fill-rule:nonzero;fill:rgb(100%,0%,0%);fill-opacity:1;" d="M 109.089844 169.59375 C 109.089844 172.261719 105.089844 172.261719 105.089844 169.59375 C 105.089844 166.929688 109.089844 166.929688 109.089844 169.59375 "/>
<path style=" stroke:none;fill-rule:nonzero;fill:rgb(100%,0%,0%);fill-opacity:1;" d="M 109.046875 169.578125 C 109.046875 172.246094 105.046875 172.246094 105.046875 169.578125 C 105.046875 166.914062 109.046875 166.914062 109.046875 169.578125 "/>
<path style=" stroke:none;fill-rule:nonzero;fill:rgb(100%,0%,0%);fill-opacity:1;" d="M 128.378906 150.007812 C 128.378906 152.671875 124.378906 152.671875 124.378906 150.007812 C 124.378906 147.339844 128.378906 147.339844 128.378906 150.007812 "/>
<path style=" stroke:none;fill-rule:nonzero;fill:rgb(100%,0%,0%);fill-opacity:1;" d="M 128.335938 149.976562 C 128.335938 152.644531 124.335938 152.644531 124.335938 149.976562 C 124.335938 147.308594 128.335938 147.308594 128.335938 149.976562 "/>
<path style=" stroke:none;fill-rule:nonzero;fill:rgb(100%,0%,0%);fill-opacity:1;" d="M 103.457031 188.957031 C 103.457031 191.625 99.457031 191.625 99.457031 188.957031 C 99.457031 186.292969 103.457031 186.292969 103.457031 188.957031 "/>
<path style=" stroke:none;fill-rule:nonzero;fill:rgb(100%,0%,0%);fill-opacity:1;" d="M 128.347656 189.003906 C 128.347656 191.667969 124.347656 191.667969 124.347656 189.003906 C 124.347656 186.335938 128.347656 186.335938 128.347656 189.003906 "/>
<path style=" stroke:none;fill-rule:nonzero;fill:rgb(100%,0%,0%);fill-opacity:1;" d="M 128.300781 188.996094 C 128.300781 191.664062 124.300781 191.664062 124.300781 188.996094 C 124.300781 186.332031 128.300781 186.332031 128.300781 188.996094 "/>
<path style=" stroke:none;fill-rule:nonzero;fill:rgb(100%,0%,0%);fill-opacity:1;" d="M 145.71875 169.601562 C 145.71875 172.265625 141.71875 172.265625 141.71875 169.601562 C 141.71875 166.933594 145.71875 166.933594 145.71875 169.601562 "/>
<path style=" stroke:none;fill-rule:nonzero;fill:rgb(100%,0%,0%);fill-opacity:1;" d="M 114.808594 149.980469 C 114.808594 152.648438 110.808594 152.648438 110.808594 149.980469 C 110.808594 147.3125 114.808594 147.3125 114.808594 149.980469 "/>
<path style=" stroke:none;fill-rule:nonzero;fill:rgb(100%,0%,0%);fill-opacity:1;" d="M 114.832031 149.972656 C 114.832031 152.640625 110.832031 152.640625 110.832031 149.972656 C 110.832031 147.304688 114.832031 147.304688 114.832031 149.972656 "/>
<path style=" stroke:none;fill-rule:nonzero;fill:rgb(100%,0%,0%);fill-opacity:1;" d="M 134.453125 169.558594 C 134.453125 172.226562 130.453125 172.226562 130.453125 169.558594 C 130.453125 166.894531 134.453125 166.894531 134.453125 169.558594 "/>
<path style=" stroke:none;fill-rule:nonzero;fill:rgb(100%,0%,0%);fill-opacity:1;" d="M 134.417969 169.542969 C 134.417969 172.210938 130.417969 172.210938 130.417969 169.542969 C 130.417969 166.875 134.417969 166.875 134.417969 169.542969 "/>
<path style=" stroke:none;fill-rule:nonzero;fill:rgb(100%,0%,0%);fill-opacity:1;" d="M 121.128906 168.4375 C 121.128906 171.101562 117.128906 171.101562 117.128906 168.4375 C 117.128906 165.769531 121.128906 165.769531 121.128906 168.4375 "/>
<path style=" stroke:none;fill-rule:nonzero;fill:rgb(100%,0%,0%);fill-opacity:1;" d="M 115.246094 189.007812 C 115.246094 191.671875 111.246094 191.671875 111.246094 189.007812 C 111.246094 186.339844 115.246094 186.339844 115.246094 189.007812 "/>
<path style=" stroke:none;fill-rule:nonzero;fill:rgb(100%,0%,0%);fill-opacity:1;" d="M 115.234375 188.996094 C 115.234375 191.660156 111.234375 191.660156 111.234375 188.996094 C 111.234375 186.328125 115.234375 186.328125 115.234375 188.996094 "/>
<path style=" stroke:none;fill-rule:nonzero;fill:rgb(100%,0%,0%);fill-opacity:1;" d="M 141.171875 188.957031 C 141.171875 191.625 137.171875 191.625 137.171875 188.957031 C 137.171875 186.289062 141.171875 186.289062 141.171875 188.957031 "/>
<path style=" stroke:none;fill-rule:nonzero;fill:rgb(100%,0%,0%);fill-opacity:1;" d="M 152.929688 150.003906 C 152.929688 152.671875 148.929688 152.671875 148.929688 150.003906 C 148.929688 147.339844 152.929688 147.339844 152.929688 150.003906 "/>
<path style=" stroke:none;fill-rule:nonzero;fill:rgb(100%,0%,0%);fill-opacity:1;" d="M 152.910156 149.980469 C 152.910156 152.648438 148.910156 152.648438 148.910156 149.980469 C 148.910156 147.316406 152.910156 147.316406 152.910156 149.980469 "/>
<path style=" stroke:none;fill-rule:nonzero;fill:rgb(100%,0%,0%);fill-opacity:1;" d="M 159.027344 169.6875 C 159.027344 172.351562 155.027344 172.351562 155.027344 169.6875 C 155.027344 167.019531 159.027344 167.019531 159.027344 169.6875 "/>
<path style=" stroke:none;fill-rule:nonzero;fill:rgb(100%,0%,0%);fill-opacity:1;" d="M 159.027344 169.648438 C 159.027344 172.3125 155.027344 172.3125 155.027344 169.648438 C 155.027344 166.980469 159.027344 166.980469 159.027344 169.648438 "/>
<path style=" stroke:none;fill-rule:nonzero;fill:rgb(100%,0%,0%);fill-opacity:1;" d="M 153.050781 188.988281 C 153.050781 191.65625 149.050781 191.65625 149.050781 188.988281 C 149.050781 186.320312 153.050781 186.320312 153.050781 188.988281 "/>
<path style=" stroke:none;fill-rule:nonzero;fill:rgb(100%,0%,0%);fill-opacity:1;" d="M 153.042969 188.96875 C 153.042969 191.636719 149.042969 191.636719 149.042969 188.96875 C 149.042969 186.304688 153.042969 186.304688 153.042969 188.96875 "/>
<path style=" stroke:none;fill-rule:nonzero;fill:rgb(100%,0%,0%);fill-opacity:1;" d="M 102 150 C 102 152.667969 98 152.667969 98 150 C 98 147.332031 102 147.332031 102 150 "/>
<path style=" stroke:none;fill-rule:nonzero;fill:rgb(100%,0%,0%);fill-opacity:1;" d="M 102 150 C 102 152.667969 98 152.667969 98 150 C 98 147.332031 102 147.332031 102 150 "/>
<path style=" stroke:none;fill-rule:nonzero;fill:rgb(100%,0%,0%);fill-opacity:1;" d="M 102 150 C 102 152.667969 98 152.667969 98 150 C 98 147.332031 102 147.332031 102 150 "/>
<path style=" stroke:none;fill-rule:nonzero;fill:rgb(100%,0%,0%);fill-opacity:1;" d="M 102 150 C 102 152.667969 98 152.667969 98 150 C 98 147.332031 102 147.332031 102 150 "/>
<path style=" stroke:none;fill-rule:nonzero;fill:rgb(100%,0%,0%);fill-opacity:1;" d="M 102 150 C 102 152.667969 98 152.667969 98 150 C 98 147.332031 102 147.332031 102 150 "/>
<path style=" stroke:none;fill-rule:nonzero;fill:rgb(100%,0%,0%);fill-opacity:1;" d="M 102 150 C 102 152.667969 98 152.667969 98 150 C 98 147.332031 102 147.332031 102 150 "/>
<path style=" stroke:none;fill-rule:nonzero;fill:rgb(100%,0%,0%);fill-opacity:1;" d="M 102 150 C 102 152.667969 98 152.667969 98 150 C 98 147.332031 102 147.332031 102 150 "/>
<path style=" stroke:none;fill-rule:nonzero;fill:rgb(100%,0%,0%);fill-opacity:1;" d="M 102 150 C 102 152.667969 98 152.667969 98 150 C 98 147.332031 102 147.332031 102 150 "/>
<path style=" stroke:none;fill-rule:nonzero;fill:rgb(100%,0%,0%);fill-opacity:1;" d="M 102 150 C 102 152.667969 98 152.667969 98 150 C 98 147.332031 102 147.332031 102 150 "/>
<path style=" stroke:none;fill-rule:nonzero;fill:rgb(100%,0%,0%);fill-opacity:1;" d="M 102 150 C 102 152.667969 98 152.667969 98 150 C 98 147.332031 102 147.332031 102 150 "/>
<path style=" stroke:none;fill-rule:nonzero;fill:rgb(100%,0%,0%);fill-opacity:1;" d="M 102 150 C 102 152.667969 98 152.667969 98 150 C 98 147.332031 102 147.332031 102 150 "/>
<path style=" stroke:none;fill-rule:nonzero;fill:rgb(100%,0%,0%);fill-opacity:1;" d="M 102 150 C 102 152.667969 98 152.667969 98 150 C 98 147.332031 102 147.332031 102 150 "/>
<path style=" stroke:none;fill-rule:nonzero;fill:rgb(100%,0%,0%);fill-opacity:1;" d="M 102 150 C 102 152.667969 98 152.667969 98 150 C 98 147.332031 102 147.332031 102 150 "/>
<path style=" stroke:none;fill-rule:nonzero;fill:rgb(100%,0%,0%);fill-opacity:1;" d="M 102 150 C 102 152.667969 98 152.667969 98 150 C 98 147.332031 102 147.332031 102 150 "/>
<path style=" stroke:none;fill-rule:nonzero;fill:rgb(100%,0%,0%);fill-opacity:1;" d="M 102 150 C 102 152.667969 98 152.667969 98 150 C 98 147.332031 102 147.332031 102 150 "/>
<path style=" stroke:none;fill-rule:nonzero;fill:rgb(100%,0%,0%);fill-opacity:1;" d="M 102 150 C 102 152.667969 98 152.667969 98 150 C 98 147.332031 102 147.332031 102 150 "/>
<path style=" stroke:none;fill-rule:nonzero;fill:rgb(100%,0%,0%);fill-opacity:1;" d="M 102 150 C 102 152.667969 98 152.667969 98 150 C 98 147.332031 102 147.332031 102 150 "/>
<path style=" stroke:none;fill-rule:nonzero;fill:rgb(100%,0%,0%);fill-opacity:1;" d="M 102 150 C 102 152.667969 98 152.667969 98 150 C 98 147.332031 102 147.332031 102 150 "/>
<path style=" stroke:none;fill-rule:nonzero;fill:rgb(100%,0%,0%);fill-opacity:1;" d="M 102 150 C 102 152.667969 98 152.667969 98 150 C 98 147.332031 102 147.332031 102 150 "/>
<path style=" stroke:none;fill-rule:nonzero;fill:rgb(100%,0%,0%);fill-opacity:1;" d="M 102 150 C 102 152.667969 98 152.667969 98 150 C 98 147.332031 102 147.332031 102 150 "/>
<path style=" stroke:none;fill-rule:nonzero;fill:rgb(100%,0%,0%);fill-opacity:1;" d="M 102 150 C 102 152.667969 98 152.667969 98 150 C 98 147.332031 102 147.332031 102 150 "/>
<path style=" stroke:none;fill-rule:nonzero;fill:rgb(100%,0%,0%);fill-opacity:1;" d="M 102 150 C 102 152.667969 98 152.667969 98 150 C 98 147.332031 102 147.332031 102 150 "/>
<path style=" stroke:none;fill-rule:nonzero;fill:rgb(100%,0%,0%);fill-opacity:1;" d="M 102 150 C 102 152.667969 98 152.667969 98 150 C 98 147.332031 102 147.332031 102 150 "/>
<path style=" stroke:none;fill-rule:nonzero;fill:rgb(100%,0%,0%);fill-opacity:1;" d="M 102 150 C 102 152.667969 98 152.667969 98 150 C 98 147.332031 102 147.332031 102 150 "/>
<path style=" stroke:none;fill-rule:nonzero;fill:rgb(100%,0%,0%);fill-opacity:1;" d="M 102 150 C 102 152.667969 98 152.667969 98 150 C 98 147.332031 102 147.332031 102 150 "/>
<path style=" stroke:none;fill-rule:nonzero;fill:rgb(100%,0%,0%);fill-opacity:1;" d="M 102 150 C 102 152.667969 98 152.667969 98 150 C 98 147.332031 102 147.332031 102 150 "/>
<path style=" stroke:none;fill-rule:nonzero;fill:rgb(100%,0%,0%);fill-opacity:1;" d="M 102 150 C 102 152.667969 98 152.667969 98 150 C 98 147.332031 102 147.332031 102 150 "/>
<path style=" stroke:none;fill-rule:nonzero;fill:rgb(100%,0%,0%);fill-opacity:1;" d="M 102 150 C 102 152.667969 98 152.667969 98 150 C 98 147.332031 102 147.332031 102 150 "/>
<path style=" stroke:none;fill-rule:nonzero;fill:rgb(100%,0%,0%);fill-opacity:1;" d="M 102 150 C 102 152.667969 98 152.667969 98 150 C 98 147.332031 102 147.332031 102 150 "/>
<path style=" stroke:none;fill-rule:nonzero;fill:rgb(100%,0%,0%);fill-opacity:1;" d="M 102 150 C 102 152.667969 98 152.667969 98 150 C 98 147.332031 102 147.332031 102 150 "/>
<path style=" stroke:none;fill-rule:nonzero;fill:rgb(100%,0%,0%);fill-opacity:1;" d="M 102 150 C 102 152.667969 98 152.667969 98 150 C 98 147.332031 102 147.332031 102 150 "/>
<path style=" stroke:none;fill-rule:nonzero;fill:rgb(100%,0%,0%);fill-opacity:1;" d="M 102 150 C 102 152.667969 98 152.667969 98 150 C 98 147.332031 102 147.332031 102 150 "/>
</g>
</svg>
