<?xml version="1.0" encoding="UTF-8"?>
<svg xmlns="http://www.w3.org/2000/svg" xmlns:xlink="http://www.w3.org/1999/xlink" width="400pt" height="300pt" viewBox="0 0 400 300" version="1.1">
<g id="surface1">
<rect x="0" y="0" width="400" height="300" style="fill:rgb(90%,90%,90%);fill-opacity:1;stroke:none;"/>
<path style=" stroke:none;fill-rule:nonzero;fill:rgb(100%,0%,0%);fill-opacity:1;" d="M 117.019531 0 C 117.019531 2.667969 113.019531 2.667969 113.019531 0 C 113.019531 -2.667969 117.019531 -2.667969 117.019531 0 "/>
<path style=" stroke:none;fill-rule:nonzero;fill:rgb(100%,0%,0%);fill-opacity:1;" d="M 155.359375 9.585938 C 155.359375 12.25 151.359375 12.25 151.359375 9.585938 C 151.359375 6.917969 155.359375 6.917969 155.359375 9.585938 "/>
<path style=" stroke:none;fill-rule:nonzero;fill:rgb(100%,0%,0%);fill-opacity:1;" d="M 78.679688 9.585938 C 78.679688 12.25 74.679688 12.25 74.679688 9.585938 C 74.679688 6.917969 78.679688 6.917969 78.679688 9.585938 "/>
<path style=" stroke:none;fill-rule:nonzero;fill:rgb(100%,0%,0%);fill-opacity:1;" d="M 142.582031 38.339844 C 142.582031 41.007812 138.582031 41.007812 138.582031 38.339844 C 138.582031 35.671875 142.582031 35.671875 142.582031 38.339844 "/>
<path style=" stroke:none;fill-rule:nonzero;fill:rgb(100%,0%,0%);fill-opacity:1;" d="M 91.460938 38.339844 C 91.460938 41.007812 87.460938 41.007812 87.460938 38.339844 C 87.460938 35.671875 91.460938 35.671875 91.460938 38.339844 "/>
<path style=" stroke:none;fill-rule:nonzero;fill:rgb(100%,0%,0%);fill-opacity:1;" d="M 117.019531 0 C 117.019531 2.667969 113.019531 2.667969 113.019531 0 C 113.019531 -2.667969 117.019531 -2.667969 117.019531 0 "/>
<path style=" stroke:none;fill-rule:nonzero;fill:rgb(100%,0%,0%);fill-opacity:1;" d="M 155.359375 9.585938 C 155.359375 12.25 151.359375 12.25 151.359375 9.585938 C 151.359375 6.917969 155.359375 6.917969 155.359375 9.585938 "/>
<path style=" stroke:none;fill-rule:nonzero;fill:rgb(100%,0%,0%);fill-opacity:1;" d="M 78.679688 9.585938 C 78.679688 12.25 74.679688 12.25 74.679688 9.585938 C 74.679688 6.917969 78.679688 6.917969 78.679688 9.585938 "/>
<path style=" stroke:none;fill-rule:nonzero;fill:rgb(100%,0%,0%);fill-opacity:1;" d="M 142.582031 38.339844 C 142.582031 41.007812 138.582031 41.007812 138.582031 38.339844 C 138.582031 35.671875 142.582031 35.671875 142.582031 38.339844 "/>
<path style=" stroke:none;fill-rule:nonzero;fill:rgb(100%,0%,0%);fill-opacity:1;" d="M 91.460938 38.339844 C 91.460938 41.007812 87.460938 41.007812 87.460938 38.339844 C 87.460938 35.671875 91.460938 35.671875 91.460938 38.339844 "/>
<path style=" stroke:none;fill-rule:nonzero;fill:rgb(100%,0%,0%);fill-opacity:1;" d="M 129.800781 67.09375 C 129.800781 69.761719 125.800781 69.761719 125.800781 67.09375 C 125.800781 64.429688 129.800781 64.429688 129.800781 67.09375 "/>
<path style=" stroke:none;fill-rule:nonzero;fill:rgb(100%,0%,0%);fill-opacity:1;" d="M 104.238281 67.09375 C 104.238281 69.761719 100.238281 69.761719 100.238281 67.09375 C 100.238281 64.429688 104.238281 64.429688 104.238281 67.09375 "/>
<path style=" stroke:none;fill-rule:nonzero;fill:rgb(100%,0%,0%);fill-opacity:1;" d="M 129.800781 67.09375 C 129.800781 69.761719 125.800781 69.761719 125.800781 67.09375 C 125.800781 64.429688 129.800781 64.429688 129.800781 67.09375 "/>
<path style=" stroke:none;fill-rule:nonzero;fill:rgb(100%,0%,0%);fill-opacity:1;" d="M 104.238281 67.09375 C 104.238281 69.761719 100.238281 69.761719 100.238281 67.09375 C 100.238281 64.429688 104.238281 64.429688 104.238281 67.09375 "/>
<path style=" stroke:none;fill-rule:nonzero;fill:rgb(100%,0%,0%);fill-opacity:1;" d="M 193.699219 19.171875 C 193.699219 21.835938 189.699219 21.835938 189.699219 19.171875 C 189.699219 16.503906 193.699219 16.503906 193.699219 19.171875 "/>
<path style=" stroke:none;fill-rule:nonzero;fill:rgb(100%,0%,0%);fill-opacity:1;" d="M 40.339844 19.171875 C 40.339844 21.835938 36.339844 21.835938 36.339844 19.171875 C 36.339844 16.503906 40.339844 16.503906 40.339844 19.171875 "/>
<path style=" stroke:none;fill-rule:nonzero;fill:rgb(100%,0%,0%);fill-opacity:1;" d="M 180.921875 47.925781 C 180.921875 50.589844 176.921875 50.589844 176.921875 47.925781 C 176.921875 45.257812 180.921875 45.257812 180.921875 47.925781 "/>
<path style=" stroke:none;fill-rule:nonzero;fill:rgb(100%,0%,0%);fill-opacity:1;" d="M 53.121094 47.925781 C 53.121094 50.589844 49.121094 50.589844 49.121094 47.925781 C 49.121094 45.257812 53.121094 45.257812 53.121094 47.925781 "/>
<path style=" stroke:none;fill-rule:nonzero;fill:rgb(100%,0%,0%);fill-opacity:1;" d="M 2 28.753906 C 2 31.421875 -2 31.421875 -2 28.753906 C -2 26.089844 2 26.089844 2 28.753906 "/>
<path style=" stroke:none;fill-rule:nonzero;fill:rgb(100%,0%,0%);fill-opacity:1;" d="M 219.261719 57.511719 C 219.261719 60.175781 215.261719 60.175781 215.261719 57.511719 C 215.261719 54.84375 219.261719 54.84375 219.261719 57.511719 "/>
<path style=" stroke:none;fill-rule:nonzero;fill:rgb(100%,0%,0%);fill-opacity:1;" d="M 14.78125 57.511719 C 14.78125 60.175781 10.78125 60.175781 10.78125 57.511719 C 10.78125 54.84375 14.78125 54.84375 14.78125 57.511719 "/>
<path style=" stroke:none;fill-rule:nonzero;fill:rgb(100%,0%,0%);fill-opacity:1;" d="M 193.699219 19.171875 C 193.699219 21.835938 189.699219 21.835938 189.699219 19.171875 C 189.699219 16.503906 193.699219 16.503906 193.699219 19.171875 "/>
<path style=" stroke:none;fill-rule:nonzero;fill:rgb(100%,0%,0%);fill-opacity:1;" d="M 40.339844 19.171875 C 40.339844 21.835938 36.339844 21.835938 36.339844 19.171875 C 36.339844 16.503906 40.339844 16.503906 40.339844 19.171875 "/>
<path style=" stroke:none;fill-rule:nonzero;fill:rgb(100%,0%,0%);fill-opacity:1;" d="M 180.921875 47.925781 C 180.921875 50.589844 176.921875 50.589844 176.921875 47.925781 C 176.921875 45.257812 180.921875 45.257812 180.921875 47.925781 "/>
<path style=" stroke:none;fill-rule:nonzero;fill:rgb(100%,0%,0%);fill-opacity:1;" d="M 53.121094 47.925781 C 53.121094 50.589844 49.121094 50.589844 49.121094 47.925781 C 49.121094 45.257812 53.121094 45.257812 53.121094 47.925781 "/>
<path style=" stroke:none;fill-rule:nonzero;fill:rgb(100%,0%,0%);fill-opacity:1;" d="M 2 28.753906 C 2 31.421875 -2 31.421875 -2 28.753906 C -2 26.089844 2 26.089844 2 28.753906 "/>
<path style=" stroke:none;fill-rule:nonzero;fill:rgb(100%,0%,0%);fill-opacity:1;" d="M 219.261719 57.511719 C 219.261719 60.175781 215.261719 60.175781 215.261719 57.511719 C 215.261719 54.84375 219.261719 54.84375 219.261719 57.511719 "/>
<path style=" stroke:none;fill-rule:nonzero;fill:rgb(100%,0%,0%);fill-opacity:1;" d="M 14.78125 57.511719 C 14.78125 60.175781 10.78125 60.175781 10.78125 57.511719 C 10.78125 54.84375 14.78125 54.84375 14.78125 57.511719 "/>
<path style=" stroke:none;fill-rule:nonzero;fill:rgb(100%,0%,0%);fill-opacity:1;" d="M 168.140625 76.679688 C 168.140625 79.347656 164.140625 79.347656 164.140625 76.679688 C 164.140625 74.011719 168.140625 74.011719 168.140625 76.679688 "/>
<path style=" stroke:none;fill-rule:nonzero;fill:rgb(100%,0%,0%);fill-opacity:1;" d="M 65.898438 76.679688 C 65.898438 79.347656 61.898438 79.347656 61.898438 76.679688 C 61.898438 74.011719 65.898438 74.011719 65.898438 76.679688 "/>
<path style=" stroke:none;fill-rule:nonzero;fill:rgb(100%,0%,0%);fill-opacity:1;" d="M 206.480469 86.265625 C 206.480469 88.933594 202.480469 88.933594 202.480469 86.265625 C 202.480469 83.597656 206.480469 83.597656 206.480469 86.265625 "/>
<path style=" stroke:none;fill-rule:nonzero;fill:rgb(100%,0%,0%);fill-opacity:1;" d="M 27.558594 86.265625 C 27.558594 88.933594 23.558594 88.933594 23.558594 86.265625 C 23.558594 83.597656 27.558594 83.597656 27.558594 86.265625 "/>
<path style=" stroke:none;fill-rule:nonzero;fill:rgb(100%,0%,0%);fill-opacity:1;" d="M 168.140625 76.679688 C 168.140625 79.347656 164.140625 79.347656 164.140625 76.679688 C 164.140625 74.011719 168.140625 74.011719 168.140625 76.679688 "/>
<path style=" stroke:none;fill-rule:nonzero;fill:rgb(100%,0%,0%);fill-opacity:1;" d="M 65.898438 76.679688 C 65.898438 79.347656 61.898438 79.347656 61.898438 76.679688 C 61.898438 74.011719 65.898438 74.011719 65.898438 76.679688 "/>
<path style=" stroke:none;fill-rule:nonzero;fill:rgb(100%,0%,0%);fill-opacity:1;" d="M 206.480469 86.265625 C 206.480469 88.933594 202.480469 88.933594 202.480469 86.265625 C 202.480469 83.597656 206.480469 83.597656 206.480469 86.265625 "/>
<path style=" stroke:none;fill-rule:nonzero;fill:rgb(100%,0%,0%);fill-opacity:1;" d="M 27.558594 86.265625 C 27.558594 88.933594 23.558594 88.933594 23.558594 86.265625 C 23.558594 83.597656 27.558594 83.597656 27.558594 86.265625 "/>
<path style="fill:none;stroke-width:2;stroke-linecap:butt;stroke-linejoin:miter;stroke:rgb(0%,0%,0%);stroke-opacity:1;stroke-miterlimit:10;" d="M 200 150 L 200 -150 "/>
<path style="fill:none;stroke-width:2;stroke-linecap:butt;stroke-linejoin:miter;stroke:rgb(0%,0%,0%);stroke-opacity:1;stroke-miterlimit:10;" d="M 200 150 L 500 150 "/>
</g>
</svg>
