<?xml version="1.0" encoding="UTF-8"?>
<svg xmlns="http://www.w3.org/2000/svg" xmlns:xlink="http://www.w3.org/1999/xlink" width="300pt" height="200pt" viewBox="0 0 300 200" version="1.1">
<g id="surface1">
<rect x="0" y="0" width="300" height="200" style="fill:rgb(90%,90%,90%);fill-opacity:1;stroke:none;"/>
<path style="fill:none;stroke-width:2;stroke-linecap:butt;stroke-linejoin:miter;stroke:rgb(0%,0%,0%);stroke-opacity:1;stroke-miterlimit:10;" d="M 150 100 L 150 10100 "/>
<path style="fill:none;stroke-width:2;stroke-linecap:butt;stroke-linejoin:miter;stroke:rgb(0%,0%,0%);stroke-opacity:1;stroke-miterlimit:10;" d="M 150 100 L 10150 100 "/>
<path style=" stroke:none;fill-rule:nonzero;fill:rgb(100%,0%,0%);fill-opacity:1;" d="M 209.511719 100 C 209.511719 102.667969 205.511719 102.667969 205.511719 100 C 205.511719 97.332031 209.511719 97.332031 209.511719 100 "/>
<path style=" stroke:none;fill-rule:nonzero;fill:rgb(0%,0%,100%);fill-opacity:1;" d="M 216.898438 120.207031 C 216.898438 124.207031 210.898438 124.207031 210.898438 120.207031 C 210.898438 116.207031 216.898438 116.207031 216.898438 120.207031 "/>
<path style=" stroke:none;fill-rule:nonzero;fill:rgb(0%,0%,100%);fill-opacity:1;" d="M 204.121094 160.621094 C 204.121094 164.621094 198.121094 164.621094 198.121094 160.621094 C 198.121094 156.621094 204.121094 156.621094 204.121094 160.621094 "/>
<path style=" stroke:none;fill-rule:nonzero;fill:rgb(0%,0%,100%);fill-opacity:1;" d="M 261.628906 100 C 261.628906 104 255.628906 104 255.628906 100 C 255.628906 96 261.628906 96 261.628906 100 "/>
<path style=" stroke:none;fill-rule:nonzero;fill:rgb(0%,0%,100%);fill-opacity:1;" d="M 159.390625 100 C 159.390625 104 153.390625 104 153.390625 100 C 153.390625 96 159.390625 96 159.390625 100 "/>
<path style=" stroke:none;fill-rule:nonzero;fill:rgb(0%,0%,100%);fill-opacity:1;" d="M 261.628906 140.414062 C 261.628906 144.414062 255.628906 144.414062 255.628906 140.414062 C 255.628906 136.414062 261.628906 136.414062 261.628906 140.414062 "/>
<path style=" stroke:none;fill-rule:nonzero;fill:rgb(100%,0%,0%);fill-opacity:1;" d="M 228.679688 120.207031 C 228.679688 122.875 224.679688 122.875 224.679688 120.207031 C 224.679688 117.539062 228.679688 117.539062 228.679688 120.207031 "/>
<path style=" stroke:none;fill-rule:nonzero;fill:rgb(0%,0%,100%);fill-opacity:1;" d="M 216.898438 120.207031 C 216.898438 124.207031 210.898438 124.207031 210.898438 120.207031 C 210.898438 116.207031 216.898438 116.207031 216.898438 120.207031 "/>
<path style=" stroke:none;fill-rule:nonzero;fill:rgb(0%,0%,100%);fill-opacity:1;" d="M 204.121094 160.621094 C 204.121094 164.621094 198.121094 164.621094 198.121094 160.621094 C 198.121094 156.621094 204.121094 156.621094 204.121094 160.621094 "/>
<path style=" stroke:none;fill-rule:nonzero;fill:rgb(0%,0%,100%);fill-opacity:1;" d="M 261.628906 100 C 261.628906 104 255.628906 104 255.628906 100 C 255.628906 96 261.628906 96 261.628906 100 "/>
<path style=" stroke:none;fill-rule:nonzero;fill:rgb(0%,0%,100%);fill-opacity:1;" d="M 159.390625 100 C 159.390625 104 153.390625 104 153.390625 100 C 153.390625 96 159.390625 96 159.390625 100 "/>
<path style=" stroke:none;fill-rule:nonzero;fill:rgb(0%,0%,100%);fill-opacity:1;" d="M 261.628906 140.414062 C 261.628906 144.414062 255.628906 144.414062 255.628906 140.414062 C 255.628906 136.414062 261.628906 136.414062 261.628906 140.414062 "/>
<path style=" stroke:none;fill-rule:nonzero;fill:rgb(100%,0%,0%);fill-opacity:1;" d="M 190.339844 120.207031 C 190.339844 122.875 186.339844 122.875 186.339844 120.207031 C 186.339844 117.539062 190.339844 117.539062 190.339844 120.207031 "/>
<path style=" stroke:none;fill-rule:nonzero;fill:rgb(0%,0%,100%);fill-opacity:1;" d="M 216.898438 120.207031 C 216.898438 124.207031 210.898438 124.207031 210.898438 120.207031 C 210.898438 116.207031 216.898438 116.207031 216.898438 120.207031 "/>
<path style=" stroke:none;fill-rule:nonzero;fill:rgb(0%,0%,100%);fill-opacity:1;" d="M 204.121094 160.621094 C 204.121094 164.621094 198.121094 164.621094 198.121094 160.621094 C 198.121094 156.621094 204.121094 156.621094 204.121094 160.621094 "/>
<path style=" stroke:none;fill-rule:nonzero;fill:rgb(0%,0%,100%);fill-opacity:1;" d="M 261.628906 100 C 261.628906 104 255.628906 104 255.628906 100 C 255.628906 96 261.628906 96 261.628906 100 "/>
<path style=" stroke:none;fill-rule:nonzero;fill:rgb(0%,0%,100%);fill-opacity:1;" d="M 159.390625 100 C 159.390625 104 153.390625 104 153.390625 100 C 153.390625 96 159.390625 96 159.390625 100 "/>
<path style=" stroke:none;fill-rule:nonzero;fill:rgb(0%,0%,100%);fill-opacity:1;" d="M 261.628906 140.414062 C 261.628906 144.414062 255.628906 144.414062 255.628906 140.414062 C 255.628906 136.414062 261.628906 136.414062 261.628906 140.414062 "/>
<path style=" stroke:none;fill-rule:nonzero;fill:rgb(100%,0%,0%);fill-opacity:1;" d="M 222.289062 100 C 222.289062 102.667969 218.289062 102.667969 218.289062 100 C 218.289062 97.332031 222.289062 97.332031 222.289062 100 "/>
<path style=" stroke:none;fill-rule:nonzero;fill:rgb(0%,0%,100%);fill-opacity:1;" d="M 216.898438 120.207031 C 216.898438 124.207031 210.898438 124.207031 210.898438 120.207031 C 210.898438 116.207031 216.898438 116.207031 216.898438 120.207031 "/>
<path style=" stroke:none;fill-rule:nonzero;fill:rgb(0%,0%,100%);fill-opacity:1;" d="M 204.121094 160.621094 C 204.121094 164.621094 198.121094 164.621094 198.121094 160.621094 C 198.121094 156.621094 204.121094 156.621094 204.121094 160.621094 "/>
<path style=" stroke:none;fill-rule:nonzero;fill:rgb(0%,0%,100%);fill-opacity:1;" d="M 261.628906 100 C 261.628906 104 255.628906 104 255.628906 100 C 255.628906 96 261.628906 96 261.628906 100 "/>
<path style=" stroke:none;fill-rule:nonzero;fill:rgb(0%,0%,100%);fill-opacity:1;" d="M 159.390625 100 C 159.390625 104 153.390625 104 153.390625 100 C 153.390625 96 159.390625 96 159.390625 100 "/>
<path style=" stroke:none;fill-rule:nonzero;fill:rgb(0%,0%,100%);fill-opacity:1;" d="M 261.628906 140.414062 C 261.628906 144.414062 255.628906 144.414062 255.628906 140.414062 C 255.628906 136.414062 261.628906 136.414062 261.628906 140.414062 "/>
<path style=" stroke:none;fill-rule:nonzero;fill:rgb(100%,0%,0%);fill-opacity:1;" d="M 196.730469 100 C 196.730469 102.667969 192.730469 102.667969 192.730469 100 C 192.730469 97.332031 196.730469 97.332031 196.730469 100 "/>
<path style=" stroke:none;fill-rule:nonzero;fill:rgb(0%,0%,100%);fill-opacity:1;" d="M 216.898438 120.207031 C 216.898438 124.207031 210.898438 124.207031 210.898438 120.207031 C 210.898438 116.207031 216.898438 116.207031 216.898438 120.207031 "/>
<path style=" stroke:none;fill-rule:nonzero;fill:rgb(0%,0%,100%);fill-opacity:1;" d="M 204.121094 160.621094 C 204.121094 164.621094 198.121094 164.621094 198.121094 160.621094 C 198.121094 156.621094 204.121094 156.621094 204.121094 160.621094 "/>
<path style=" stroke:none;fill-rule:nonzero;fill:rgb(0%,0%,100%);fill-opacity:1;" d="M 261.628906 100 C 261.628906 104 255.628906 104 255.628906 100 C 255.628906 96 261.628906 96 261.628906 100 "/>
<path style=" stroke:none;fill-rule:nonzero;fill:rgb(0%,0%,100%);fill-opacity:1;" d="M 159.390625 100 C 159.390625 104 153.390625 104 153.390625 100 C 153.390625 96 159.390625 96 159.390625 100 "/>
<path style=" stroke:none;fill-rule:nonzero;fill:rgb(0%,0%,100%);fill-opacity:1;" d="M 261.628906 140.414062 C 261.628906 144.414062 255.628906 144.414062 255.628906 140.414062 C 255.628906 136.414062 261.628906 136.414062 261.628906 140.414062 "/>
<path style=" stroke:none;fill-rule:nonzero;fill:rgb(100%,0%,0%);fill-opacity:1;" d="M 209.511719 140.414062 C 209.511719 143.082031 205.511719 143.082031 205.511719 140.414062 C 205.511719 137.746094 209.511719 137.746094 209.511719 140.414062 "/>
<path style=" stroke:none;fill-rule:nonzero;fill:rgb(0%,0%,100%);fill-opacity:1;" d="M 216.898438 120.207031 C 216.898438 124.207031 210.898438 124.207031 210.898438 120.207031 C 210.898438 116.207031 216.898438 116.207031 216.898438 120.207031 "/>
<path style=" stroke:none;fill-rule:nonzero;fill:rgb(0%,0%,100%);fill-opacity:1;" d="M 204.121094 160.621094 C 204.121094 164.621094 198.121094 164.621094 198.121094 160.621094 C 198.121094 156.621094 204.121094 156.621094 204.121094 160.621094 "/>
<path style=" stroke:none;fill-rule:nonzero;fill:rgb(0%,0%,100%);fill-opacity:1;" d="M 261.628906 100 C 261.628906 104 255.628906 104 255.628906 100 C 255.628906 96 261.628906 96 261.628906 100 "/>
<path style=" stroke:none;fill-rule:nonzero;fill:rgb(0%,0%,100%);fill-opacity:1;" d="M 159.390625 100 C 159.390625 104 153.390625 104 153.390625 100 C 153.390625 96 159.390625 96 159.390625 100 "/>
<path style=" stroke:none;fill-rule:nonzero;fill:rgb(0%,0%,100%);fill-opacity:1;" d="M 261.628906 140.414062 C 261.628906 144.414062 255.628906 144.414062 255.628906 140.414062 C 255.628906 136.414062 261.628906 136.414062 261.628906 140.414062 "/>
<path style=" stroke:none;fill-rule:nonzero;fill:rgb(100%,0%,0%);fill-opacity:1;" d="M 228.679688 160.621094 C 228.679688 163.289062 224.679688 163.289062 224.679688 160.621094 C 224.679688 157.953125 228.679688 157.953125 228.679688 160.621094 "/>
<path style=" stroke:none;fill-rule:nonzero;fill:rgb(0%,0%,100%);fill-opacity:1;" d="M 216.898438 120.207031 C 216.898438 124.207031 210.898438 124.207031 210.898438 120.207031 C 210.898438 116.207031 216.898438 116.207031 216.898438 120.207031 "/>
<path style=" stroke:none;fill-rule:nonzero;fill:rgb(0%,0%,100%);fill-opacity:1;" d="M 204.121094 160.621094 C 204.121094 164.621094 198.121094 164.621094 198.121094 160.621094 C 198.121094 156.621094 204.121094 156.621094 204.121094 160.621094 "/>
<path style=" stroke:none;fill-rule:nonzero;fill:rgb(0%,0%,100%);fill-opacity:1;" d="M 261.628906 100 C 261.628906 104 255.628906 104 255.628906 100 C 255.628906 96 261.628906 96 261.628906 100 "/>
<path style=" stroke:none;fill-rule:nonzero;fill:rgb(0%,0%,100%);fill-opacity:1;" d="M 159.390625 100 C 159.390625 104 153.390625 104 153.390625 100 C 153.390625 96 159.390625 96 159.390625 100 "/>
<path style=" stroke:none;fill-rule:nonzero;fill:rgb(0%,0%,100%);fill-opacity:1;" d="M 261.628906 140.414062 C 261.628906 144.414062 255.628906 144.414062 255.628906 140.414062 C 255.628906 136.414062 261.628906 136.414062 261.628906 140.414062 "/>
<path style=" stroke:none;fill-rule:nonzero;fill:rgb(100%,0%,0%);fill-opacity:1;" d="M 190.339844 160.621094 C 190.339844 163.289062 186.339844 163.289062 186.339844 160.621094 C 186.339844 157.953125 190.339844 157.953125 190.339844 160.621094 "/>
<path style=" stroke:none;fill-rule:nonzero;fill:rgb(0%,0%,100%);fill-opacity:1;" d="M 216.898438 120.207031 C 216.898438 124.207031 210.898438 124.207031 210.898438 120.207031 C 210.898438 116.207031 216.898438 116.207031 216.898438 120.207031 "/>
<path style=" stroke:none;fill-rule:nonzero;fill:rgb(0%,0%,100%);fill-opacity:1;" d="M 204.121094 160.621094 C 204.121094 164.621094 198.121094 164.621094 198.121094 160.621094 C 198.121094 156.621094 204.121094 156.621094 204.121094 160.621094 "/>
<path style=" stroke:none;fill-rule:nonzero;fill:rgb(0%,0%,100%);fill-opacity:1;" d="M 261.628906 100 C 261.628906 104 255.628906 104 255.628906 100 C 255.628906 96 261.628906 96 261.628906 100 "/>
<path style=" stroke:none;fill-rule:nonzero;fill:rgb(0%,0%,100%);fill-opacity:1;" d="M 159.390625 100 C 159.390625 104 153.390625 104 153.390625 100 C 153.390625 96 159.390625 96 159.390625 100 "/>
<path style=" stroke:none;fill-rule:nonzero;fill:rgb(0%,0%,100%);fill-opacity:1;" d="M 261.628906 140.414062 C 261.628906 144.414062 255.628906 144.414062 255.628906 140.414062 C 255.628906 136.414062 261.628906 136.414062 261.628906 140.414062 "/>
<path style=" stroke:none;fill-rule:nonzero;fill:rgb(100%,0%,0%);fill-opacity:1;" d="M 222.289062 140.414062 C 222.289062 143.082031 218.289062 143.082031 218.289062 140.414062 C 218.289062 137.746094 222.289062 137.746094 222.289062 140.414062 "/>
<path style=" stroke:none;fill-rule:nonzero;fill:rgb(0%,0%,100%);fill-opacity:1;" d="M 216.898438 120.207031 C 216.898438 124.207031 210.898438 124.207031 210.898438 120.207031 C 210.898438 116.207031 216.898438 116.207031 216.898438 120.207031 "/>
<path style=" stroke:none;fill-rule:nonzero;fill:rgb(0%,0%,100%);fill-opacity:1;" d="M 204.121094 160.621094 C 204.121094 164.621094 198.121094 164.621094 198.121094 160.621094 C 198.121094 156.621094 204.121094 156.621094 204.121094 160.621094 "/>
<path style=" stroke:none;fill-rule:nonzero;fill:rgb(0%,0%,100%);fill-opacity:1;" d="M 261.628906 100 C 261.628906 104 255.628906 104 255.628906 100 C 255.628906 96 261.628906 96 261.628906 100 "/>
<path style=" stroke:none;fill-rule:nonzero;fill:rgb(0%,0%,100%);fill-opacity:1;" d="M 159.390625 100 C 159.390625 104 153.390625 104 153.390625 100 C 153.390625 96 159.390625 96 159.390625 100 "/>
<path style=" stroke:none;fill-rule:nonzero;fill:rgb(0%,0%,100%);fill-opacity:1;" d="M 261.628906 140.414062 C 261.628906 144.414062 255.628906 144.414062 255.628906 140.414062 C 255.628906 136.414062 261.628906 136.414062 261.628906 140.414062 "/>
<path style=" stroke:none;fill-rule:nonzero;fill:rgb(100%,0%,0%);fill-opacity:1;" d="M 196.730469 140.414062 C 196.730469 143.082031 192.730469 143.082031 192.730469 140.414062 C 192.730469 137.746094 196.730469 137.746094 196.730469 140.414062 "/>
<path style=" stroke:none;fill-rule:nonzero;fill:rgb(0%,0%,100%);fill-opacity:1;" d="M 216.898438 120.207031 C 216.898438 124.207031 210.898438 124.207031 210.898438 120.207031 C 210.898438 116.207031 216.898438 116.207031 216.898438 120.207031 "/>
<path style=" stroke:none;fill-rule:nonzero;fill:rgb(0%,0%,100%);fill-opacity:1;" d="M 204.121094 160.621094 C 204.121094 164.621094 198.121094 164.621094 198.121094 160.621094 C 198.121094 156.621094 204.121094 156.621094 204.121094 160.621094 "/>
<path style=" stroke:none;fill-rule:nonzero;fill:rgb(0%,0%,100%);fill-opacity:1;" d="M 261.628906 100 C 261.628906 104 255.628906 104 255.628906 100 C 255.628906 96 261.628906 96 261.628906 100 "/>
<path style=" stroke:none;fill-rule:nonzero;fill:rgb(0%,0%,100%);fill-opacity:1;" d="M 159.390625 100 C 159.390625 104 153.390625 104 153.390625 100 C 153.390625 96 159.390625 96 159.390625 100 "/>
<path style=" stroke:none;fill-rule:nonzero;fill:rgb(0%,0%,100%);fill-opacity:1;" d="M 261.628906 140.414062 C 261.628906 144.414062 255.628906 144.414062 255.628906 140.414062 C 255.628906 136.414062 261.628906 136.414062 261.628906 140.414062 "/>
<path style=" stroke:none;fill-rule:nonzero;fill:rgb(100%,0%,0%);fill-opacity:1;" d="M 215.898438 120.207031 C 215.898438 122.875 211.898438 122.875 211.898438 120.207031 C 211.898438 117.539062 215.898438 117.539062 215.898438 120.207031 "/>
<path style=" stroke:none;fill-rule:nonzero;fill:rgb(0%,0%,100%);fill-opacity:1;" d="M 216.898438 120.207031 C 216.898438 124.207031 210.898438 124.207031 210.898438 120.207031 C 210.898438 116.207031 216.898438 116.207031 216.898438 120.207031 "/>
<path style=" stroke:none;fill-rule:nonzero;fill:rgb(0%,0%,100%);fill-opacity:1;" d="M 204.121094 160.621094 C 204.121094 164.621094 198.121094 164.621094 198.121094 160.621094 C 198.121094 156.621094 204.121094 156.621094 204.121094 160.621094 "/>
<path style=" stroke:none;fill-rule:nonzero;fill:rgb(0%,0%,100%);fill-opacity:1;" d="M 261.628906 100 C 261.628906 104 255.628906 104 255.628906 100 C 255.628906 96 261.628906 96 261.628906 100 "/>
<path style=" stroke:none;fill-rule:nonzero;fill:rgb(0%,0%,100%);fill-opacity:1;" d="M 159.390625 100 C 159.390625 104 153.390625 104 153.390625 100 C 153.390625 96 159.390625 96 159.390625 100 "/>
<path style=" stroke:none;fill-rule:nonzero;fill:rgb(0%,0%,100%);fill-opacity:1;" d="M 261.628906 140.414062 C 261.628906 144.414062 255.628906 144.414062 255.628906 140.414062 C 255.628906 136.414062 261.628906 136.414062 261.628906 140.414062 "/>
<path style=" stroke:none;fill-rule:nonzero;fill:rgb(100%,0%,0%);fill-opacity:1;" d="M 203.121094 120.207031 C 203.121094 122.875 199.121094 122.875 199.121094 120.207031 C 199.121094 117.539062 203.121094 117.539062 203.121094 120.207031 "/>
<path style=" stroke:none;fill-rule:nonzero;fill:rgb(0%,0%,100%);fill-opacity:1;" d="M 216.898438 120.207031 C 216.898438 124.207031 210.898438 124.207031 210.898438 120.207031 C 210.898438 116.207031 216.898438 116.207031 216.898438 120.207031 "/>
<path style=" stroke:none;fill-rule:nonzero;fill:rgb(0%,0%,100%);fill-opacity:1;" d="M 204.121094 160.621094 C 204.121094 164.621094 198.121094 164.621094 198.121094 160.621094 C 198.121094 156.621094 204.121094 156.621094 204.121094 160.621094 "/>
<path style=" stroke:none;fill-rule:nonzero;fill:rgb(0%,0%,100%);fill-opacity:1;" d="M 261.628906 100 C 261.628906 104 255.628906 104 255.628906 100 C 255.628906 96 261.628906 96 261.628906 100 "/>
<path style=" stroke:none;fill-rule:nonzero;fill:rgb(0%,0%,100%);fill-opacity:1;" d="M 159.390625 100 C 159.390625 104 153.390625 104 153.390625 100 C 153.390625 96 159.390625 96 159.390625 100 "/>
<path style=" stroke:none;fill-rule:nonzero;fill:rgb(0%,0%,100%);fill-opacity:1;" d="M 261.628906 140.414062 C 261.628906 144.414062 255.628906 144.414062 255.628906 140.414062 C 255.628906 136.414062 261.628906 136.414062 261.628906 140.414062 "/>
<path style=" stroke:none;fill-rule:nonzero;fill:rgb(100%,0%,0%);fill-opacity:1;" d="M 215.898438 160.621094 C 215.898438 163.289062 211.898438 163.289062 211.898438 160.621094 C 211.898438 157.953125 215.898438 157.953125 215.898438 160.621094 "/>
<path style=" stroke:none;fill-rule:nonzero;fill:rgb(0%,0%,100%);fill-opacity:1;" d="M 216.898438 120.207031 C 216.898438 124.207031 210.898438 124.207031 210.898438 120.207031 C 210.898438 116.207031 216.898438 116.207031 216.898438 120.207031 "/>
<path style=" stroke:none;fill-rule:nonzero;fill:rgb(0%,0%,100%);fill-opacity:1;" d="M 204.121094 160.621094 C 204.121094 164.621094 198.121094 164.621094 198.121094 160.621094 C 198.121094 156.621094 204.121094 156.621094 204.121094 160.621094 "/>
<path style=" stroke:none;fill-rule:nonzero;fill:rgb(0%,0%,100%);fill-opacity:1;" d="M 261.628906 100 C 261.628906 104 255.628906 104 255.628906 100 C 255.628906 96 261.628906 96 261.628906 100 "/>
<path style=" stroke:none;fill-rule:nonzero;fill:rgb(0%,0%,100%);fill-opacity:1;" d="M 159.390625 100 C 159.390625 104 153.390625 104 153.390625 100 C 153.390625 96 159.390625 96 159.390625 100 "/>
<path style=" stroke:none;fill-rule:nonzero;fill:rgb(0%,0%,100%);fill-opacity:1;" d="M 261.628906 140.414062 C 261.628906 144.414062 255.628906 144.414062 255.628906 140.414062 C 255.628906 136.414062 261.628906 136.414062 261.628906 140.414062 "/>
<path style=" stroke:none;fill-rule:nonzero;fill:rgb(100%,0%,0%);fill-opacity:1;" d="M 203.121094 160.621094 C 203.121094 163.289062 199.121094 163.289062 199.121094 160.621094 C 199.121094 157.953125 203.121094 157.953125 203.121094 160.621094 "/>
<path style=" stroke:none;fill-rule:nonzero;fill:rgb(0%,0%,100%);fill-opacity:1;" d="M 216.898438 120.207031 C 216.898438 124.207031 210.898438 124.207031 210.898438 120.207031 C 210.898438 116.207031 216.898438 116.207031 216.898438 120.207031 "/>
<path style=" stroke:none;fill-rule:nonzero;fill:rgb(0%,0%,100%);fill-opacity:1;" d="M 204.121094 160.621094 C 204.121094 164.621094 198.121094 164.621094 198.121094 160.621094 C 198.121094 156.621094 204.121094 156.621094 204.121094 160.621094 "/>
<path style=" stroke:none;fill-rule:nonzero;fill:rgb(0%,0%,100%);fill-opacity:1;" d="M 261.628906 100 C 261.628906 104 255.628906 104 255.628906 100 C 255.628906 96 261.628906 96 261.628906 100 "/>
<path style=" stroke:none;fill-rule:nonzero;fill:rgb(0%,0%,100%);fill-opacity:1;" d="M 159.390625 100 C 159.390625 104 153.390625 104 153.390625 100 C 153.390625 96 159.390625 96 159.390625 100 "/>
<path style=" stroke:none;fill-rule:nonzero;fill:rgb(0%,0%,100%);fill-opacity:1;" d="M 261.628906 140.414062 C 261.628906 144.414062 255.628906 144.414062 255.628906 140.414062 C 255.628906 136.414062 261.628906 136.414062 261.628906 140.414062 "/>
<path style=" stroke:none;fill-rule:nonzero;fill:rgb(100%,0%,0%);fill-opacity:1;" d="M 247.851562 100 C 247.851562 102.667969 243.851562 102.667969 243.851562 100 C 243.851562 97.332031 247.851562 97.332031 247.851562 100 "/>
<path style=" stroke:none;fill-rule:nonzero;fill:rgb(0%,0%,100%);fill-opacity:1;" d="M 216.898438 120.207031 C 216.898438 124.207031 210.898438 124.207031 210.898438 120.207031 C 210.898438 116.207031 216.898438 116.207031 216.898438 120.207031 "/>
<path style=" stroke:none;fill-rule:nonzero;fill:rgb(0%,0%,100%);fill-opacity:1;" d="M 204.121094 160.621094 C 204.121094 164.621094 198.121094 164.621094 198.121094 160.621094 C 198.121094 156.621094 204.121094 156.621094 204.121094 160.621094 "/>
<path style=" stroke:none;fill-rule:nonzero;fill:rgb(0%,0%,100%);fill-opacity:1;" d="M 261.628906 100 C 261.628906 104 255.628906 104 255.628906 100 C 255.628906 96 261.628906 96 261.628906 100 "/>
<path style=" stroke:none;fill-rule:nonzero;fill:rgb(0%,0%,100%);fill-opacity:1;" d="M 159.390625 100 C 159.390625 104 153.390625 104 153.390625 100 C 153.390625 96 159.390625 96 159.390625 100 "/>
<path style=" stroke:none;fill-rule:nonzero;fill:rgb(0%,0%,100%);fill-opacity:1;" d="M 261.628906 140.414062 C 261.628906 144.414062 255.628906 144.414062 255.628906 140.414062 C 255.628906 136.414062 261.628906 136.414062 261.628906 140.414062 "/>
<path style=" stroke:none;fill-rule:nonzero;fill:rgb(100%,0%,0%);fill-opacity:1;" d="M 171.171875 100 C 171.171875 102.667969 167.171875 102.667969 167.171875 100 C 167.171875 97.332031 171.171875 97.332031 171.171875 100 "/>
<path style=" stroke:none;fill-rule:nonzero;fill:rgb(0%,0%,100%);fill-opacity:1;" d="M 216.898438 120.207031 C 216.898438 124.207031 210.898438 124.207031 210.898438 120.207031 C 210.898438 116.207031 216.898438 116.207031 216.898438 120.207031 "/>
<path style=" stroke:none;fill-rule:nonzero;fill:rgb(0%,0%,100%);fill-opacity:1;" d="M 204.121094 160.621094 C 204.121094 164.621094 198.121094 164.621094 198.121094 160.621094 C 198.121094 156.621094 204.121094 156.621094 204.121094 160.621094 "/>
<path style=" stroke:none;fill-rule:nonzero;fill:rgb(0%,0%,100%);fill-opacity:1;" d="M 261.628906 100 C 261.628906 104 255.628906 104 255.628906 100 C 255.628906 96 261.628906 96 261.628906 100 "/>
<path style=" stroke:none;fill-rule:nonzero;fill:rgb(0%,0%,100%);fill-opacity:1;" d="M 159.390625 100 C 159.390625 104 153.390625 104 153.390625 100 C 153.390625 96 159.390625 96 159.390625 100 "/>
<path style=" stroke:none;fill-rule:nonzero;fill:rgb(0%,0%,100%);fill-opacity:1;" d="M 261.628906 140.414062 C 261.628906 144.414062 255.628906 144.414062 255.628906 140.414062 C 255.628906 136.414062 261.628906 136.414062 261.628906 140.414062 "/>
<path style=" stroke:none;fill-rule:nonzero;fill:rgb(100%,0%,0%);fill-opacity:1;" d="M 241.460938 120.207031 C 241.460938 122.875 237.460938 122.875 237.460938 120.207031 C 237.460938 117.539062 241.460938 117.539062 241.460938 120.207031 "/>
<path style=" stroke:none;fill-rule:nonzero;fill:rgb(0%,0%,100%);fill-opacity:1;" d="M 216.898438 120.207031 C 216.898438 124.207031 210.898438 124.207031 210.898438 120.207031 C 210.898438 116.207031 216.898438 116.207031 216.898438 120.207031 "/>
<path style=" stroke:none;fill-rule:nonzero;fill:rgb(0%,0%,100%);fill-opacity:1;" d="M 204.121094 160.621094 C 204.121094 164.621094 198.121094 164.621094 198.121094 160.621094 C 198.121094 156.621094 204.121094 156.621094 204.121094 160.621094 "/>
<path style=" stroke:none;fill-rule:nonzero;fill:rgb(0%,0%,100%);fill-opacity:1;" d="M 261.628906 100 C 261.628906 104 255.628906 104 255.628906 100 C 255.628906 96 261.628906 96 261.628906 100 "/>
<path style=" stroke:none;fill-rule:nonzero;fill:rgb(0%,0%,100%);fill-opacity:1;" d="M 159.390625 100 C 159.390625 104 153.390625 104 153.390625 100 C 153.390625 96 159.390625 96 159.390625 100 "/>
<path style=" stroke:none;fill-rule:nonzero;fill:rgb(0%,0%,100%);fill-opacity:1;" d="M 261.628906 140.414062 C 261.628906 144.414062 255.628906 144.414062 255.628906 140.414062 C 255.628906 136.414062 261.628906 136.414062 261.628906 140.414062 "/>
<path style=" stroke:none;fill-rule:nonzero;fill:rgb(100%,0%,0%);fill-opacity:1;" d="M 177.558594 120.207031 C 177.558594 122.875 173.558594 122.875 173.558594 120.207031 C 173.558594 117.539062 177.558594 117.539062 177.558594 120.207031 "/>
<path style=" stroke:none;fill-rule:nonzero;fill:rgb(0%,0%,100%);fill-opacity:1;" d="M 216.898438 120.207031 C 216.898438 124.207031 210.898438 124.207031 210.898438 120.207031 C 210.898438 116.207031 216.898438 116.207031 216.898438 120.207031 "/>
<path style=" stroke:none;fill-rule:nonzero;fill:rgb(0%,0%,100%);fill-opacity:1;" d="M 204.121094 160.621094 C 204.121094 164.621094 198.121094 164.621094 198.121094 160.621094 C 198.121094 156.621094 204.121094 156.621094 204.121094 160.621094 "/>
<path style=" stroke:none;fill-rule:nonzero;fill:rgb(0%,0%,100%);fill-opacity:1;" d="M 261.628906 100 C 261.628906 104 255.628906 104 255.628906 100 C 255.628906 96 261.628906 96 261.628906 100 "/>
<path style=" stroke:none;fill-rule:nonzero;fill:rgb(0%,0%,100%);fill-opacity:1;" d="M 159.390625 100 C 159.390625 104 153.390625 104 153.390625 100 C 153.390625 96 159.390625 96 159.390625 100 "/>
<path style=" stroke:none;fill-rule:nonzero;fill:rgb(0%,0%,100%);fill-opacity:1;" d="M 261.628906 140.414062 C 261.628906 144.414062 255.628906 144.414062 255.628906 140.414062 C 255.628906 136.414062 261.628906 136.414062 261.628906 140.414062 "/>
<path style=" stroke:none;fill-rule:nonzero;fill:rgb(100%,0%,0%);fill-opacity:1;" d="M 152 120.207031 C 152 122.875 148 122.875 148 120.207031 C 148 117.539062 152 117.539062 152 120.207031 "/>
<path style=" stroke:none;fill-rule:nonzero;fill:rgb(0%,0%,100%);fill-opacity:1;" d="M 216.898438 120.207031 C 216.898438 124.207031 210.898438 124.207031 210.898438 120.207031 C 210.898438 116.207031 216.898438 116.207031 216.898438 120.207031 "/>
<path style=" stroke:none;fill-rule:nonzero;fill:rgb(0%,0%,100%);fill-opacity:1;" d="M 204.121094 160.621094 C 204.121094 164.621094 198.121094 164.621094 198.121094 160.621094 C 198.121094 156.621094 204.121094 156.621094 204.121094 160.621094 "/>
<path style=" stroke:none;fill-rule:nonzero;fill:rgb(0%,0%,100%);fill-opacity:1;" d="M 261.628906 100 C 261.628906 104 255.628906 104 255.628906 100 C 255.628906 96 261.628906 96 261.628906 100 "/>
<path style=" stroke:none;fill-rule:nonzero;fill:rgb(0%,0%,100%);fill-opacity:1;" d="M 159.390625 100 C 159.390625 104 153.390625 104 153.390625 100 C 153.390625 96 159.390625 96 159.390625 100 "/>
<path style=" stroke:none;fill-rule:nonzero;fill:rgb(0%,0%,100%);fill-opacity:1;" d="M 261.628906 140.414062 C 261.628906 144.414062 255.628906 144.414062 255.628906 140.414062 C 255.628906 136.414062 261.628906 136.414062 261.628906 140.414062 "/>
<path style=" stroke:none;fill-rule:nonzero;fill:rgb(100%,0%,0%);fill-opacity:1;" d="M 260.628906 100 C 260.628906 102.667969 256.628906 102.667969 256.628906 100 C 256.628906 97.332031 260.628906 97.332031 260.628906 100 "/>
<path style=" stroke:none;fill-rule:nonzero;fill:rgb(0%,0%,100%);fill-opacity:1;" d="M 216.898438 120.207031 C 216.898438 124.207031 210.898438 124.207031 210.898438 120.207031 C 210.898438 116.207031 216.898438 116.207031 216.898438 120.207031 "/>
<path style=" stroke:none;fill-rule:nonzero;fill:rgb(0%,0%,100%);fill-opacity:1;" d="M 204.121094 160.621094 C 204.121094 164.621094 198.121094 164.621094 198.121094 160.621094 C 198.121094 156.621094 204.121094 156.621094 204.121094 160.621094 "/>
<path style=" stroke:none;fill-rule:nonzero;fill:rgb(0%,0%,100%);fill-opacity:1;" d="M 261.628906 100 C 261.628906 104 255.628906 104 255.628906 100 C 255.628906 96 261.628906 96 261.628906 100 "/>
<path style=" stroke:none;fill-rule:nonzero;fill:rgb(0%,0%,100%);fill-opacity:1;" d="M 159.390625 100 C 159.390625 104 153.390625 104 153.390625 100 C 153.390625 96 159.390625 96 159.390625 100 "/>
<path style=" stroke:none;fill-rule:nonzero;fill:rgb(0%,0%,100%);fill-opacity:1;" d="M 261.628906 140.414062 C 261.628906 144.414062 255.628906 144.414062 255.628906 140.414062 C 255.628906 136.414062 261.628906 136.414062 261.628906 140.414062 "/>
<path style=" stroke:none;fill-rule:nonzero;fill:rgb(100%,0%,0%);fill-opacity:1;" d="M 158.390625 100 C 158.390625 102.667969 154.390625 102.667969 154.390625 100 C 154.390625 97.332031 158.390625 97.332031 158.390625 100 "/>
<path style=" stroke:none;fill-rule:nonzero;fill:rgb(0%,0%,100%);fill-opacity:1;" d="M 216.898438 120.207031 C 216.898438 124.207031 210.898438 124.207031 210.898438 120.207031 C 210.898438 116.207031 216.898438 116.207031 216.898438 120.207031 "/>
<path style=" stroke:none;fill-rule:nonzero;fill:rgb(0%,0%,100%);fill-opacity:1;" d="M 204.121094 160.621094 C 204.121094 164.621094 198.121094 164.621094 198.121094 160.621094 C 198.121094 156.621094 204.121094 156.621094 204.121094 160.621094 "/>
<path style=" stroke:none;fill-rule:nonzero;fill:rgb(0%,0%,100%);fill-opacity:1;" d="M 261.628906 100 C 261.628906 104 255.628906 104 255.628906 100 C 255.628906 96 261.628906 96 261.628906 100 "/>
<path style=" stroke:none;fill-rule:nonzero;fill:rgb(0%,0%,100%);fill-opacity:1;" d="M 159.390625 100 C 159.390625 104 153.390625 104 153.390625 100 C 153.390625 96 159.390625 96 159.390625 100 "/>
<path style=" stroke:none;fill-rule:nonzero;fill:rgb(0%,0%,100%);fill-opacity:1;" d="M 261.628906 140.414062 C 261.628906 144.414062 255.628906 144.414062 255.628906 140.414062 C 255.628906 136.414062 261.628906 136.414062 261.628906 140.414062 "/>
<path style=" stroke:none;fill-rule:nonzero;fill:rgb(100%,0%,0%);fill-opacity:1;" d="M 247.851562 140.414062 C 247.851562 143.082031 243.851562 143.082031 243.851562 140.414062 C 243.851562 137.746094 247.851562 137.746094 247.851562 140.414062 "/>
<path style=" stroke:none;fill-rule:nonzero;fill:rgb(0%,0%,100%);fill-opacity:1;" d="M 216.898438 120.207031 C 216.898438 124.207031 210.898438 124.207031 210.898438 120.207031 C 210.898438 116.207031 216.898438 116.207031 216.898438 120.207031 "/>
<path style=" stroke:none;fill-rule:nonzero;fill:rgb(0%,0%,100%);fill-opacity:1;" d="M 204.121094 160.621094 C 204.121094 164.621094 198.121094 164.621094 198.121094 160.621094 C 198.121094 156.621094 204.121094 156.621094 204.121094 160.621094 "/>
<path style=" stroke:none;fill-rule:nonzero;fill:rgb(0%,0%,100%);fill-opacity:1;" d="M 261.628906 100 C 261.628906 104 255.628906 104 255.628906 100 C 255.628906 96 261.628906 96 261.628906 100 "/>
<path style=" stroke:none;fill-rule:nonzero;fill:rgb(0%,0%,100%);fill-opacity:1;" d="M 159.390625 100 C 159.390625 104 153.390625 104 153.390625 100 C 153.390625 96 159.390625 96 159.390625 100 "/>
<path style=" stroke:none;fill-rule:nonzero;fill:rgb(0%,0%,100%);fill-opacity:1;" d="M 261.628906 140.414062 C 261.628906 144.414062 255.628906 144.414062 255.628906 140.414062 C 255.628906 136.414062 261.628906 136.414062 261.628906 140.414062 "/>
<path style=" stroke:none;fill-rule:nonzero;fill:rgb(100%,0%,0%);fill-opacity:1;" d="M 171.171875 140.414062 C 171.171875 143.082031 167.171875 143.082031 167.171875 140.414062 C 167.171875 137.746094 171.171875 137.746094 171.171875 140.414062 "/>
<path style=" stroke:none;fill-rule:nonzero;fill:rgb(0%,0%,100%);fill-opacity:1;" d="M 216.898438 120.207031 C 216.898438 124.207031 210.898438 124.207031 210.898438 120.207031 C 210.898438 116.207031 216.898438 116.207031 216.898438 120.207031 "/>
<path style=" stroke:none;fill-rule:nonzero;fill:rgb(0%,0%,100%);fill-opacity:1;" d="M 204.121094 160.621094 C 204.121094 164.621094 198.121094 164.621094 198.121094 160.621094 C 198.121094 156.621094 204.121094 156.621094 204.121094 160.621094 "/>
<path style=" stroke:none;fill-rule:nonzero;fill:rgb(0%,0%,100%);fill-opacity:1;" d="M 261.628906 100 C 261.628906 104 255.628906 104 255.628906 100 C 255.628906 96 261.628906 96 261.628906 100 "/>
<path style=" stroke:none;fill-rule:nonzero;fill:rgb(0%,0%,100%);fill-opacity:1;" d="M 159.390625 100 C 159.390625 104 153.390625 104 153.390625 100 C 153.390625 96 159.390625 96 159.390625 100 "/>
<path style=" stroke:none;fill-rule:nonzero;fill:rgb(0%,0%,100%);fill-opacity:1;" d="M 261.628906 140.414062 C 261.628906 144.414062 255.628906 144.414062 255.628906 140.414062 C 255.628906 136.414062 261.628906 136.414062 261.628906 140.414062 "/>
<path style=" stroke:none;fill-rule:nonzero;fill:rgb(100%,0%,0%);fill-opacity:1;" d="M 241.460938 160.621094 C 241.460938 163.289062 237.460938 163.289062 237.460938 160.621094 C 237.460938 157.953125 241.460938 157.953125 241.460938 160.621094 "/>
<path style=" stroke:none;fill-rule:nonzero;fill:rgb(0%,0%,100%);fill-opacity:1;" d="M 216.898438 120.207031 C 216.898438 124.207031 210.898438 124.207031 210.898438 120.207031 C 210.898438 116.207031 216.898438 116.207031 216.898438 120.207031 "/>
<path style=" stroke:none;fill-rule:nonzero;fill:rgb(0%,0%,100%);fill-opacity:1;" d="M 204.121094 160.621094 C 204.121094 164.621094 198.121094 164.621094 198.121094 160.621094 C 198.121094 156.621094 204.121094 156.621094 204.121094 160.621094 "/>
<path style=" stroke:none;fill-rule:nonzero;fill:rgb(0%,0%,100%);fill-opacity:1;" d="M 261.628906 100 C 261.628906 104 255.628906 104 255.628906 100 C 255.628906 96 261.628906 96 261.628906 100 "/>
<path style=" stroke:none;fill-rule:nonzero;fill:rgb(0%,0%,100%);fill-opacity:1;" d="M 159.390625 100 C 159.390625 104 153.390625 104 153.390625 100 C 153.390625 96 159.390625 96 159.390625 100 "/>
<path style=" stroke:none;fill-rule:nonzero;fill:rgb(0%,0%,100%);fill-opacity:1;" d="M 261.628906 140.414062 C 261.628906 144.414062 255.628906 144.414062 255.628906 140.414062 C 255.628906 136.414062 261.628906 136.414062 261.628906 140.414062 "/>
<path style=" stroke:none;fill-rule:nonzero;fill:rgb(100%,0%,0%);fill-opacity:1;" d="M 177.558594 160.621094 C 177.558594 163.289062 173.558594 163.289062 173.558594 160.621094 C 173.558594 157.953125 177.558594 157.953125 177.558594 160.621094 "/>
<path style=" stroke:none;fill-rule:nonzero;fill:rgb(0%,0%,100%);fill-opacity:1;" d="M 216.898438 120.207031 C 216.898438 124.207031 210.898438 124.207031 210.898438 120.207031 C 210.898438 116.207031 216.898438 116.207031 216.898438 120.207031 "/>
<path style=" stroke:none;fill-rule:nonzero;fill:rgb(0%,0%,100%);fill-opacity:1;" d="M 204.121094 160.621094 C 204.121094 164.621094 198.121094 164.621094 198.121094 160.621094 C 198.121094 156.621094 204.121094 156.621094 204.121094 160.621094 "/>
<path style=" stroke:none;fill-rule:nonzero;fill:rgb(0%,0%,100%);fill-opacity:1;" d="M 261.628906 100 C 261.628906 104 255.628906 104 255.628906 100 C 255.628906 96 261.628906 96 261.628906 100 "/>
<path style=" stroke:none;fill-rule:nonzero;fill:rgb(0%,0%,100%);fill-opacity:1;" d="M 159.390625 100 C 159.390625 104 153.390625 104 153.390625 100 C 153.390625 96 159.390625 96 159.390625 100 "/>
<path style=" stroke:none;fill-rule:nonzero;fill:rgb(0%,0%,100%);fill-opacity:1;" d="M 261.628906 140.414062 C 261.628906 144.414062 255.628906 144.414062 255.628906 140.414062 C 255.628906 136.414062 261.628906 136.414062 261.628906 140.414062 "/>
<path style=" stroke:none;fill-rule:nonzero;fill:rgb(100%,0%,0%);fill-opacity:1;" d="M 152 160.621094 C 152 163.289062 148 163.289062 148 160.621094 C 148 157.953125 152 157.953125 152 160.621094 "/>
<path style=" stroke:none;fill-rule:nonzero;fill:rgb(0%,0%,100%);fill-opacity:1;" d="M 216.898438 120.207031 C 216.898438 124.207031 210.898438 124.207031 210.898438 120.207031 C 210.898438 116.207031 216.898438 116.207031 216.898438 120.207031 "/>
<path style=" stroke:none;fill-rule:nonzero;fill:rgb(0%,0%,100%);fill-opacity:1;" d="M 204.121094 160.621094 C 204.121094 164.621094 198.121094 164.621094 198.121094 160.621094 C 198.121094 156.621094 204.121094 156.621094 204.121094 160.621094 "/>
<path style=" stroke:none;fill-rule:nonzero;fill:rgb(0%,0%,100%);fill-opacity:1;" d="M 261.628906 100 C 261.628906 104 255.628906 104 255.628906 100 C 255.628906 96 261.628906 96 261.628906 100 "/>
<path style=" stroke:none;fill-rule:nonzero;fill:rgb(0%,0%,100%);fill-opacity:1;" d="M 159.390625 100 C 159.390625 104 153.390625 104 153.390625 100 C 153.390625 96 159.390625 96 159.390625 100 "/>
<path style=" stroke:none;fill-rule:nonzero;fill:rgb(0%,0%,100%);fill-opacity:1;" d="M 261.628906 140.414062 C 261.628906 144.414062 255.628906 144.414062 255.628906 140.414062 C 255.628906 136.414062 261.628906 136.414062 261.628906 140.414062 "/>
<path style=" stroke:none;fill-rule:nonzero;fill:rgb(100%,0%,0%);fill-opacity:1;" d="M 260.628906 140.414062 C 260.628906 143.082031 256.628906 143.082031 256.628906 140.414062 C 256.628906 137.746094 260.628906 137.746094 260.628906 140.414062 "/>
<path style=" stroke:none;fill-rule:nonzero;fill:rgb(0%,0%,100%);fill-opacity:1;" d="M 216.898438 120.207031 C 216.898438 124.207031 210.898438 124.207031 210.898438 120.207031 C 210.898438 116.207031 216.898438 116.207031 216.898438 120.207031 "/>
<path style=" stroke:none;fill-rule:nonzero;fill:rgb(0%,0%,100%);fill-opacity:1;" d="M 204.121094 160.621094 C 204.121094 164.621094 198.121094 164.621094 198.121094 160.621094 C 198.121094 156.621094 204.121094 156.621094 204.121094 160.621094 "/>
<path style=" stroke:none;fill-rule:nonzero;fill:rgb(0%,0%,100%);fill-opacity:1;" d="M 261.628906 100 C 261.628906 104 255.628906 104 255.628906 100 C 255.628906 96 261.628906 96 261.628906 100 "/>
<path style=" stroke:none;fill-rule:nonzero;fill:rgb(0%,0%,100%);fill-opacity:1;" d="M 159.390625 100 C 159.390625 104 153.390625 104 153.390625 100 C 153.390625 96 159.390625 96 159.390625 100 "/>
<path style=" stroke:none;fill-rule:nonzero;fill:rgb(0%,0%,100%);fill-opacity:1;" d="M 261.628906 140.414062 C 261.628906 144.414062 255.628906 144.414062 255.628906 140.414062 C 255.628906 136.414062 261.628906 136.414062 261.628906 140.414062 "/>
<path style=" stroke:none;fill-rule:nonzero;fill:rgb(100%,0%,0%);fill-opacity:1;" d="M 158.390625 140.414062 C 158.390625 143.082031 154.390625 143.082031 154.390625 140.414062 C 154.390625 137.746094 158.390625 137.746094 158.390625 140.414062 "/>
<path style=" stroke:none;fill-rule:nonzero;fill:rgb(0%,0%,100%);fill-opacity:1;" d="M 216.898438 120.207031 C 216.898438 124.207031 210.898438 124.207031 210.898438 120.207031 C 210.898438 116.207031 216.898438 116.207031 216.898438 120.207031 "/>
<path style=" stroke:none;fill-rule:nonzero;fill:rgb(0%,0%,100%);fill-opacity:1;" d="M 204.121094 160.621094 C 204.121094 164.621094 198.121094 164.621094 198.121094 160.621094 C 198.121094 156.621094 204.121094 156.621094 204.121094 160.621094 "/>
<path style=" stroke:none;fill-rule:nonzero;fill:rgb(0%,0%,100%);fill-opacity:1;" d="M 261.628906 100 C 261.628906 104 255.628906 104 255.628906 100 C 255.628906 96 261.628906 96 261.628906 100 "/>
<path style=" stroke:none;fill-rule:nonzero;fill:rgb(0%,0%,100%);fill-opacity:1;" d="M 159.390625 100 C 159.390625 104 153.390625 104 153.390625 100 C 153.390625 96 159.390625 96 159.390625 100 "/>
<path style=" stroke:none;fill-rule:nonzero;fill:rgb(0%,0%,100%);fill-opacity:1;" d="M 261.628906 140.414062 C 261.628906 144.414062 255.628906 144.414062 255.628906 140.414062 C 255.628906 136.414062 261.628906 136.414062 261.628906 140.414062 "/>
<path style=" stroke:none;fill-rule:nonzero;fill:rgb(100%,0%,0%);fill-opacity:1;" d="M 235.070312 100 C 235.070312 102.667969 231.070312 102.667969 231.070312 100 C 231.070312 97.332031 235.070312 97.332031 235.070312 100 "/>
<path style=" stroke:none;fill-rule:nonzero;fill:rgb(0%,0%,100%);fill-opacity:1;" d="M 216.898438 120.207031 C 216.898438 124.207031 210.898438 124.207031 210.898438 120.207031 C 210.898438 116.207031 216.898438 116.207031 216.898438 120.207031 "/>
<path style=" stroke:none;fill-rule:nonzero;fill:rgb(0%,0%,100%);fill-opacity:1;" d="M 204.121094 160.621094 C 204.121094 164.621094 198.121094 164.621094 198.121094 160.621094 C 198.121094 156.621094 204.121094 156.621094 204.121094 160.621094 "/>
<path style=" stroke:none;fill-rule:nonzero;fill:rgb(0%,0%,100%);fill-opacity:1;" d="M 261.628906 100 C 261.628906 104 255.628906 104 255.628906 100 C 255.628906 96 261.628906 96 261.628906 100 "/>
<path style=" stroke:none;fill-rule:nonzero;fill:rgb(0%,0%,100%);fill-opacity:1;" d="M 159.390625 100 C 159.390625 104 153.390625 104 153.390625 100 C 153.390625 96 159.390625 96 159.390625 100 "/>
<path style=" stroke:none;fill-rule:nonzero;fill:rgb(0%,0%,100%);fill-opacity:1;" d="M 261.628906 140.414062 C 261.628906 144.414062 255.628906 144.414062 255.628906 140.414062 C 255.628906 136.414062 261.628906 136.414062 261.628906 140.414062 "/>
<path style=" stroke:none;fill-rule:nonzero;fill:rgb(100%,0%,0%);fill-opacity:1;" d="M 183.949219 100 C 183.949219 102.667969 179.949219 102.667969 179.949219 100 C 179.949219 97.332031 183.949219 97.332031 183.949219 100 "/>
<path style=" stroke:none;fill-rule:nonzero;fill:rgb(0%,0%,100%);fill-opacity:1;" d="M 216.898438 120.207031 C 216.898438 124.207031 210.898438 124.207031 210.898438 120.207031 C 210.898438 116.207031 216.898438 116.207031 216.898438 120.207031 "/>
<path style=" stroke:none;fill-rule:nonzero;fill:rgb(0%,0%,100%);fill-opacity:1;" d="M 204.121094 160.621094 C 204.121094 164.621094 198.121094 164.621094 198.121094 160.621094 C 198.121094 156.621094 204.121094 156.621094 204.121094 160.621094 "/>
<path style=" stroke:none;fill-rule:nonzero;fill:rgb(0%,0%,100%);fill-opacity:1;" d="M 261.628906 100 C 261.628906 104 255.628906 104 255.628906 100 C 255.628906 96 261.628906 96 261.628906 100 "/>
<path style=" stroke:none;fill-rule:nonzero;fill:rgb(0%,0%,100%);fill-opacity:1;" d="M 159.390625 100 C 159.390625 104 153.390625 104 153.390625 100 C 153.390625 96 159.390625 96 159.390625 100 "/>
<path style=" stroke:none;fill-rule:nonzero;fill:rgb(0%,0%,100%);fill-opacity:1;" d="M 261.628906 140.414062 C 261.628906 144.414062 255.628906 144.414062 255.628906 140.414062 C 255.628906 136.414062 261.628906 136.414062 261.628906 140.414062 "/>
<path style=" stroke:none;fill-rule:nonzero;fill:rgb(100%,0%,0%);fill-opacity:1;" d="M 254.238281 120.207031 C 254.238281 122.875 250.238281 122.875 250.238281 120.207031 C 250.238281 117.539062 254.238281 117.539062 254.238281 120.207031 "/>
<path style=" stroke:none;fill-rule:nonzero;fill:rgb(0%,0%,100%);fill-opacity:1;" d="M 216.898438 120.207031 C 216.898438 124.207031 210.898438 124.207031 210.898438 120.207031 C 210.898438 116.207031 216.898438 116.207031 216.898438 120.207031 "/>
<path style=" stroke:none;fill-rule:nonzero;fill:rgb(0%,0%,100%);fill-opacity:1;" d="M 204.121094 160.621094 C 204.121094 164.621094 198.121094 164.621094 198.121094 160.621094 C 198.121094 156.621094 204.121094 156.621094 204.121094 160.621094 "/>
<path style=" stroke:none;fill-rule:nonzero;fill:rgb(0%,0%,100%);fill-opacity:1;" d="M 261.628906 100 C 261.628906 104 255.628906 104 255.628906 100 C 255.628906 96 261.628906 96 261.628906 100 "/>
<path style=" stroke:none;fill-rule:nonzero;fill:rgb(0%,0%,100%);fill-opacity:1;" d="M 159.390625 100 C 159.390625 104 153.390625 104 153.390625 100 C 153.390625 96 159.390625 96 159.390625 100 "/>
<path style=" stroke:none;fill-rule:nonzero;fill:rgb(0%,0%,100%);fill-opacity:1;" d="M 261.628906 140.414062 C 261.628906 144.414062 255.628906 144.414062 255.628906 140.414062 C 255.628906 136.414062 261.628906 136.414062 261.628906 140.414062 "/>
<path style=" stroke:none;fill-rule:nonzero;fill:rgb(100%,0%,0%);fill-opacity:1;" d="M 164.78125 120.207031 C 164.78125 122.875 160.78125 122.875 160.78125 120.207031 C 160.78125 117.539062 164.78125 117.539062 164.78125 120.207031 "/>
<path style=" stroke:none;fill-rule:nonzero;fill:rgb(0%,0%,100%);fill-opacity:1;" d="M 216.898438 120.207031 C 216.898438 124.207031 210.898438 124.207031 210.898438 120.207031 C 210.898438 116.207031 216.898438 116.207031 216.898438 120.207031 "/>
<path style=" stroke:none;fill-rule:nonzero;fill:rgb(0%,0%,100%);fill-opacity:1;" d="M 204.121094 160.621094 C 204.121094 164.621094 198.121094 164.621094 198.121094 160.621094 C 198.121094 156.621094 204.121094 156.621094 204.121094 160.621094 "/>
<path style=" stroke:none;fill-rule:nonzero;fill:rgb(0%,0%,100%);fill-opacity:1;" d="M 261.628906 100 C 261.628906 104 255.628906 104 255.628906 100 C 255.628906 96 261.628906 96 261.628906 100 "/>
<path style=" stroke:none;fill-rule:nonzero;fill:rgb(0%,0%,100%);fill-opacity:1;" d="M 159.390625 100 C 159.390625 104 153.390625 104 153.390625 100 C 153.390625 96 159.390625 96 159.390625 100 "/>
<path style=" stroke:none;fill-rule:nonzero;fill:rgb(0%,0%,100%);fill-opacity:1;" d="M 261.628906 140.414062 C 261.628906 144.414062 255.628906 144.414062 255.628906 140.414062 C 255.628906 136.414062 261.628906 136.414062 261.628906 140.414062 "/>
<path style=" stroke:none;fill-rule:nonzero;fill:rgb(100%,0%,0%);fill-opacity:1;" d="M 235.070312 140.414062 C 235.070312 143.082031 231.070312 143.082031 231.070312 140.414062 C 231.070312 137.746094 235.070312 137.746094 235.070312 140.414062 "/>
<path style=" stroke:none;fill-rule:nonzero;fill:rgb(0%,0%,100%);fill-opacity:1;" d="M 216.898438 120.207031 C 216.898438 124.207031 210.898438 124.207031 210.898438 120.207031 C 210.898438 116.207031 216.898438 116.207031 216.898438 120.207031 "/>
<path style=" stroke:none;fill-rule:nonzero;fill:rgb(0%,0%,100%);fill-opacity:1;" d="M 204.121094 160.621094 C 204.121094 164.621094 198.121094 164.621094 198.121094 160.621094 C 198.121094 156.621094 204.121094 156.621094 204.121094 160.621094 "/>
<path style=" stroke:none;fill-rule:nonzero;fill:rgb(0%,0%,100%);fill-opacity:1;" d="M 261.628906 100 C 261.628906 104 255.628906 104 255.628906 100 C 255.628906 96 261.628906 96 261.628906 100 "/>
<path style=" stroke:none;fill-rule:nonzero;fill:rgb(0%,0%,100%);fill-opacity:1;" d="M 159.390625 100 C 159.390625 104 153.390625 104 153.390625 100 C 153.390625 96 159.390625 96 159.390625 100 "/>
<path style=" stroke:none;fill-rule:nonzero;fill:rgb(0%,0%,100%);fill-opacity:1;" d="M 261.628906 140.414062 C 261.628906 144.414062 255.628906 144.414062 255.628906 140.414062 C 255.628906 136.414062 261.628906 136.414062 261.628906 140.414062 "/>
<path style=" stroke:none;fill-rule:nonzero;fill:rgb(100%,0%,0%);fill-opacity:1;" d="M 183.949219 140.414062 C 183.949219 143.082031 179.949219 143.082031 179.949219 140.414062 C 179.949219 137.746094 183.949219 137.746094 183.949219 140.414062 "/>
<path style=" stroke:none;fill-rule:nonzero;fill:rgb(0%,0%,100%);fill-opacity:1;" d="M 216.898438 120.207031 C 216.898438 124.207031 210.898438 124.207031 210.898438 120.207031 C 210.898438 116.207031 216.898438 116.207031 216.898438 120.207031 "/>
<path style=" stroke:none;fill-rule:nonzero;fill:rgb(0%,0%,100%);fill-opacity:1;" d="M 204.121094 160.621094 C 204.121094 164.621094 198.121094 164.621094 198.121094 160.621094 C 198.121094 156.621094 204.121094 156.621094 204.121094 160.621094 "/>
<path style=" stroke:none;fill-rule:nonzero;fill:rgb(0%,0%,100%);fill-opacity:1;" d="M 261.628906 100 C 261.628906 104 255.628906 104 255.628906 100 C 255.628906 96 261.628906 96 261.628906 100 "/>
<path style=" stroke:none;fill-rule:nonzero;fill:rgb(0%,0%,100%);fill-opacity:1;" d="M 159.390625 100 C 159.390625 104 153.390625 104 153.390625 100 C 153.390625 96 159.390625 96 159.390625 100 "/>
<path style=" stroke:none;fill-rule:nonzero;fill:rgb(0%,0%,100%);fill-opacity:1;" d="M 261.628906 140.414062 C 261.628906 144.414062 255.628906 144.414062 255.628906 140.414062 C 255.628906 136.414062 261.628906 136.414062 261.628906 140.414062 "/>
<path style=" stroke:none;fill-rule:nonzero;fill:rgb(100%,0%,0%);fill-opacity:1;" d="M 254.238281 160.621094 C 254.238281 163.289062 250.238281 163.289062 250.238281 160.621094 C 250.238281 157.953125 254.238281 157.953125 254.238281 160.621094 "/>
<path style=" stroke:none;fill-rule:nonzero;fill:rgb(0%,0%,100%);fill-opacity:1;" d="M 216.898438 120.207031 C 216.898438 124.207031 210.898438 124.207031 210.898438 120.207031 C 210.898438 116.207031 216.898438 116.207031 216.898438 120.207031 "/>
<path style=" stroke:none;fill-rule:nonzero;fill:rgb(0%,0%,100%);fill-opacity:1;" d="M 204.121094 160.621094 C 204.121094 164.621094 198.121094 164.621094 198.121094 160.621094 C 198.121094 156.621094 204.121094 156.621094 204.121094 160.621094 "/>
<path style=" stroke:none;fill-rule:nonzero;fill:rgb(0%,0%,100%);fill-opacity:1;" d="M 261.628906 100 C 261.628906 104 255.628906 104 255.628906 100 C 255.628906 96 261.628906 96 261.628906 100 "/>
<path style=" stroke:none;fill-rule:nonzero;fill:rgb(0%,0%,100%);fill-opacity:1;" d="M 159.390625 100 C 159.390625 104 153.390625 104 153.390625 100 C 153.390625 96 159.390625 96 159.390625 100 "/>
<path style=" stroke:none;fill-rule:nonzero;fill:rgb(0%,0%,100%);fill-opacity:1;" d="M 261.628906 140.414062 C 261.628906 144.414062 255.628906 144.414062 255.628906 140.414062 C 255.628906 136.414062 261.628906 136.414062 261.628906 140.414062 "/>
<path style=" stroke:none;fill-rule:nonzero;fill:rgb(100%,0%,0%);fill-opacity:1;" d="M 164.78125 160.621094 C 164.78125 163.289062 160.78125 163.289062 160.78125 160.621094 C 160.78125 157.953125 164.78125 157.953125 164.78125 160.621094 "/>
<path style=" stroke:none;fill-rule:nonzero;fill:rgb(0%,0%,100%);fill-opacity:1;" d="M 216.898438 120.207031 C 216.898438 124.207031 210.898438 124.207031 210.898438 120.207031 C 210.898438 116.207031 216.898438 116.207031 216.898438 120.207031 "/>
<path style=" stroke:none;fill-rule:nonzero;fill:rgb(0%,0%,100%);fill-opacity:1;" d="M 204.121094 160.621094 C 204.121094 164.621094 198.121094 164.621094 198.121094 160.621094 C 198.121094 156.621094 204.121094 156.621094 204.121094 160.621094 "/>
<path style=" stroke:none;fill-rule:nonzero;fill:rgb(0%,0%,100%);fill-opacity:1;" d="M 261.628906 100 C 261.628906 104 255.628906 104 255.628906 100 C 255.628906 96 261.628906 96 261.628906 100 "/>
<path style=" stroke:none;fill-rule:nonzero;fill:rgb(0%,0%,100%);fill-opacity:1;" d="M 159.390625 100 C 159.390625 104 153.390625 104 153.390625 100 C 153.390625 96 159.390625 96 159.390625 100 "/>
<path style=" stroke:none;fill-rule:nonzero;fill:rgb(0%,0%,100%);fill-opacity:1;" d="M 261.628906 140.414062 C 261.628906 144.414062 255.628906 144.414062 255.628906 140.414062 C 255.628906 136.414062 261.628906 136.414062 261.628906 140.414062 "/>
</g>
</svg>
