<?xml version="1.0" encoding="UTF-8"?>
<svg xmlns="http://www.w3.org/2000/svg" xmlns:xlink="http://www.w3.org/1999/xlink" width="300pt" height="200pt" viewBox="0 0 300 200" version="1.1">
<g id="surface1">
<rect x="0" y="0" width="300" height="200" style="fill:rgb(90%,90%,90%);fill-opacity:1;stroke:none;"/>
<path style=" stroke:none;fill-rule:nonzero;fill:rgb(100%,0%,0%);fill-opacity:1;" d="M 209.511719 100 C 209.511719 102.667969 205.511719 102.667969 205.511719 100 C 205.511719 97.332031 209.511719 97.332031 209.511719 100 "/>
<path style=" stroke:none;fill-rule:nonzero;fill:rgb(100%,0%,0%);fill-opacity:1;" d="M 228.679688 106.390625 C 228.679688 109.058594 224.679688 109.058594 224.679688 106.390625 C 224.679688 103.722656 228.679688 103.722656 228.679688 106.390625 "/>
<path style=" stroke:none;fill-rule:nonzero;fill:rgb(100%,0%,0%);fill-opacity:1;" d="M 190.339844 106.390625 C 190.339844 109.058594 186.339844 109.058594 186.339844 106.390625 C 186.339844 103.722656 190.339844 103.722656 190.339844 106.390625 "/>
<path style=" stroke:none;fill-rule:nonzero;fill:rgb(100%,0%,0%);fill-opacity:1;" d="M 222.289062 125.558594 C 222.289062 128.226562 218.289062 128.226562 218.289062 125.558594 C 218.289062 122.894531 222.289062 122.894531 222.289062 125.558594 "/>
<path style=" stroke:none;fill-rule:nonzero;fill:rgb(100%,0%,0%);fill-opacity:1;" d="M 196.730469 125.558594 C 196.730469 128.226562 192.730469 128.226562 192.730469 125.558594 C 192.730469 122.894531 196.730469 122.894531 196.730469 125.558594 "/>
<path style=" stroke:none;fill-rule:nonzero;fill:rgb(100%,0%,0%);fill-opacity:1;" d="M 209.511719 100 C 209.511719 102.667969 205.511719 102.667969 205.511719 100 C 205.511719 97.332031 209.511719 97.332031 209.511719 100 "/>
<path style=" stroke:none;fill-rule:nonzero;fill:rgb(100%,0%,0%);fill-opacity:1;" d="M 228.679688 106.390625 C 228.679688 109.058594 224.679688 109.058594 224.679688 106.390625 C 224.679688 103.722656 228.679688 103.722656 228.679688 106.390625 "/>
<path style=" stroke:none;fill-rule:nonzero;fill:rgb(100%,0%,0%);fill-opacity:1;" d="M 190.339844 106.390625 C 190.339844 109.058594 186.339844 109.058594 186.339844 106.390625 C 186.339844 103.722656 190.339844 103.722656 190.339844 106.390625 "/>
<path style=" stroke:none;fill-rule:nonzero;fill:rgb(100%,0%,0%);fill-opacity:1;" d="M 222.289062 125.558594 C 222.289062 128.226562 218.289062 128.226562 218.289062 125.558594 C 218.289062 122.894531 222.289062 122.894531 222.289062 125.558594 "/>
<path style=" stroke:none;fill-rule:nonzero;fill:rgb(100%,0%,0%);fill-opacity:1;" d="M 196.730469 125.558594 C 196.730469 128.226562 192.730469 128.226562 192.730469 125.558594 C 192.730469 122.894531 196.730469 122.894531 196.730469 125.558594 "/>
<path style=" stroke:none;fill-rule:nonzero;fill:rgb(100%,0%,0%);fill-opacity:1;" d="M 215.898438 144.730469 C 215.898438 147.398438 211.898438 147.398438 211.898438 144.730469 C 211.898438 142.0625 215.898438 142.0625 215.898438 144.730469 "/>
<path style=" stroke:none;fill-rule:nonzero;fill:rgb(100%,0%,0%);fill-opacity:1;" d="M 203.121094 144.730469 C 203.121094 147.398438 199.121094 147.398438 199.121094 144.730469 C 199.121094 142.0625 203.121094 142.0625 203.121094 144.730469 "/>
<path style=" stroke:none;fill-rule:nonzero;fill:rgb(100%,0%,0%);fill-opacity:1;" d="M 215.898438 144.730469 C 215.898438 147.398438 211.898438 147.398438 211.898438 144.730469 C 211.898438 142.0625 215.898438 142.0625 215.898438 144.730469 "/>
<path style=" stroke:none;fill-rule:nonzero;fill:rgb(100%,0%,0%);fill-opacity:1;" d="M 203.121094 144.730469 C 203.121094 147.398438 199.121094 147.398438 199.121094 144.730469 C 199.121094 142.0625 203.121094 142.0625 203.121094 144.730469 "/>
<path style=" stroke:none;fill-rule:nonzero;fill:rgb(100%,0%,0%);fill-opacity:1;" d="M 247.851562 112.78125 C 247.851562 115.445312 243.851562 115.445312 243.851562 112.78125 C 243.851562 110.113281 247.851562 110.113281 247.851562 112.78125 "/>
<path style=" stroke:none;fill-rule:nonzero;fill:rgb(100%,0%,0%);fill-opacity:1;" d="M 171.171875 112.78125 C 171.171875 115.445312 167.171875 115.445312 167.171875 112.78125 C 167.171875 110.113281 171.171875 110.113281 171.171875 112.78125 "/>
<path style=" stroke:none;fill-rule:nonzero;fill:rgb(100%,0%,0%);fill-opacity:1;" d="M 241.460938 131.949219 C 241.460938 134.617188 237.460938 134.617188 237.460938 131.949219 C 237.460938 129.285156 241.460938 129.285156 241.460938 131.949219 "/>
<path style=" stroke:none;fill-rule:nonzero;fill:rgb(100%,0%,0%);fill-opacity:1;" d="M 177.558594 131.949219 C 177.558594 134.617188 173.558594 134.617188 173.558594 131.949219 C 173.558594 129.285156 177.558594 129.285156 177.558594 131.949219 "/>
<path style=" stroke:none;fill-rule:nonzero;fill:rgb(100%,0%,0%);fill-opacity:1;" d="M 152 119.171875 C 152 121.835938 148 121.835938 148 119.171875 C 148 116.503906 152 116.503906 152 119.171875 "/>
<path style=" stroke:none;fill-rule:nonzero;fill:rgb(100%,0%,0%);fill-opacity:1;" d="M 260.628906 138.339844 C 260.628906 141.007812 256.628906 141.007812 256.628906 138.339844 C 256.628906 135.671875 260.628906 135.671875 260.628906 138.339844 "/>
<path style=" stroke:none;fill-rule:nonzero;fill:rgb(100%,0%,0%);fill-opacity:1;" d="M 158.390625 138.339844 C 158.390625 141.007812 154.390625 141.007812 154.390625 138.339844 C 154.390625 135.671875 158.390625 135.671875 158.390625 138.339844 "/>
<path style=" stroke:none;fill-rule:nonzero;fill:rgb(100%,0%,0%);fill-opacity:1;" d="M 247.851562 112.78125 C 247.851562 115.445312 243.851562 115.445312 243.851562 112.78125 C 243.851562 110.113281 247.851562 110.113281 247.851562 112.78125 "/>
<path style=" stroke:none;fill-rule:nonzero;fill:rgb(100%,0%,0%);fill-opacity:1;" d="M 171.171875 112.78125 C 171.171875 115.445312 167.171875 115.445312 167.171875 112.78125 C 167.171875 110.113281 171.171875 110.113281 171.171875 112.78125 "/>
<path style=" stroke:none;fill-rule:nonzero;fill:rgb(100%,0%,0%);fill-opacity:1;" d="M 241.460938 131.949219 C 241.460938 134.617188 237.460938 134.617188 237.460938 131.949219 C 237.460938 129.285156 241.460938 129.285156 241.460938 131.949219 "/>
<path style=" stroke:none;fill-rule:nonzero;fill:rgb(100%,0%,0%);fill-opacity:1;" d="M 177.558594 131.949219 C 177.558594 134.617188 173.558594 134.617188 173.558594 131.949219 C 173.558594 129.285156 177.558594 129.285156 177.558594 131.949219 "/>
<path style=" stroke:none;fill-rule:nonzero;fill:rgb(100%,0%,0%);fill-opacity:1;" d="M 152 119.171875 C 152 121.835938 148 121.835938 148 119.171875 C 148 116.503906 152 116.503906 152 119.171875 "/>
<path style=" stroke:none;fill-rule:nonzero;fill:rgb(100%,0%,0%);fill-opacity:1;" d="M 260.628906 138.339844 C 260.628906 141.007812 256.628906 141.007812 256.628906 138.339844 C 256.628906 135.671875 260.628906 135.671875 260.628906 138.339844 "/>
<path style=" stroke:none;fill-rule:nonzero;fill:rgb(100%,0%,0%);fill-opacity:1;" d="M 158.390625 138.339844 C 158.390625 141.007812 154.390625 141.007812 154.390625 138.339844 C 154.390625 135.671875 158.390625 135.671875 158.390625 138.339844 "/>
<path style=" stroke:none;fill-rule:nonzero;fill:rgb(100%,0%,0%);fill-opacity:1;" d="M 235.070312 151.121094 C 235.070312 153.785156 231.070312 153.785156 231.070312 151.121094 C 231.070312 148.453125 235.070312 148.453125 235.070312 151.121094 "/>
<path style=" stroke:none;fill-rule:nonzero;fill:rgb(100%,0%,0%);fill-opacity:1;" d="M 183.949219 151.121094 C 183.949219 153.785156 179.949219 153.785156 179.949219 151.121094 C 179.949219 148.453125 183.949219 148.453125 183.949219 151.121094 "/>
<path style=" stroke:none;fill-rule:nonzero;fill:rgb(100%,0%,0%);fill-opacity:1;" d="M 254.238281 157.511719 C 254.238281 160.175781 250.238281 160.175781 250.238281 157.511719 C 250.238281 154.84375 254.238281 154.84375 254.238281 157.511719 "/>
<path style=" stroke:none;fill-rule:nonzero;fill:rgb(100%,0%,0%);fill-opacity:1;" d="M 164.78125 157.511719 C 164.78125 160.175781 160.78125 160.175781 160.78125 157.511719 C 160.78125 154.84375 164.78125 154.84375 164.78125 157.511719 "/>
<path style=" stroke:none;fill-rule:nonzero;fill:rgb(100%,0%,0%);fill-opacity:1;" d="M 235.070312 151.121094 C 235.070312 153.785156 231.070312 153.785156 231.070312 151.121094 C 231.070312 148.453125 235.070312 148.453125 235.070312 151.121094 "/>
<path style=" stroke:none;fill-rule:nonzero;fill:rgb(100%,0%,0%);fill-opacity:1;" d="M 183.949219 151.121094 C 183.949219 153.785156 179.949219 153.785156 179.949219 151.121094 C 179.949219 148.453125 183.949219 148.453125 183.949219 151.121094 "/>
<path style=" stroke:none;fill-rule:nonzero;fill:rgb(100%,0%,0%);fill-opacity:1;" d="M 254.238281 157.511719 C 254.238281 160.175781 250.238281 160.175781 250.238281 157.511719 C 250.238281 154.84375 254.238281 154.84375 254.238281 157.511719 "/>
<path style=" stroke:none;fill-rule:nonzero;fill:rgb(100%,0%,0%);fill-opacity:1;" d="M 164.78125 157.511719 C 164.78125 160.175781 160.78125 160.175781 160.78125 157.511719 C 160.78125 154.84375 164.78125 154.84375 164.78125 157.511719 "/>
<path style="fill:none;stroke-width:2;stroke-linecap:butt;stroke-linejoin:miter;stroke:rgb(0%,0%,0%);stroke-opacity:1;stroke-miterlimit:10;" d="M 150 100 L 150 10100 "/>
<path style="fill:none;stroke-width:2;stroke-linecap:butt;stroke-linejoin:miter;stroke:rgb(0%,0%,0%);stroke-opacity:1;stroke-miterlimit:10;" d="M 150 100 L 10150 100 "/>
</g>
</svg>
