<?xml version="1.0" encoding="UTF-8"?>
<svg xmlns="http://www.w3.org/2000/svg" xmlns:xlink="http://www.w3.org/1999/xlink" width="300pt" height="200pt" viewBox="0 0 300 200" version="1.1">
<g id="surface1">
<rect x="0" y="0" width="300" height="200" style="fill:rgb(90%,90%,90%);fill-opacity:1;stroke:none;"/>
<path style=" stroke:none;fill-rule:nonzero;fill:rgb(100%,0%,0%);fill-opacity:1;" d="M 177.019531 30 C 177.019531 32.667969 173.019531 32.667969 173.019531 30 C 173.019531 27.332031 177.019531 27.332031 177.019531 30 "/>
<path style=" stroke:none;fill-rule:nonzero;fill:rgb(100%,0%,0%);fill-opacity:1;" d="M 215.359375 36.390625 C 215.359375 39.058594 211.359375 39.058594 211.359375 36.390625 C 211.359375 33.722656 215.359375 33.722656 215.359375 36.390625 "/>
<path style=" stroke:none;fill-rule:nonzero;fill:rgb(100%,0%,0%);fill-opacity:1;" d="M 138.679688 36.390625 C 138.679688 39.058594 134.679688 39.058594 134.679688 36.390625 C 134.679688 33.722656 138.679688 33.722656 138.679688 36.390625 "/>
<path style=" stroke:none;fill-rule:nonzero;fill:rgb(100%,0%,0%);fill-opacity:1;" d="M 202.582031 55.558594 C 202.582031 58.226562 198.582031 58.226562 198.582031 55.558594 C 198.582031 52.894531 202.582031 52.894531 202.582031 55.558594 "/>
<path style=" stroke:none;fill-rule:nonzero;fill:rgb(100%,0%,0%);fill-opacity:1;" d="M 151.460938 55.558594 C 151.460938 58.226562 147.460938 58.226562 147.460938 55.558594 C 147.460938 52.894531 151.460938 52.894531 151.460938 55.558594 "/>
<path style=" stroke:none;fill-rule:nonzero;fill:rgb(100%,0%,0%);fill-opacity:1;" d="M 177.019531 30 C 177.019531 32.667969 173.019531 32.667969 173.019531 30 C 173.019531 27.332031 177.019531 27.332031 177.019531 30 "/>
<path style=" stroke:none;fill-rule:nonzero;fill:rgb(100%,0%,0%);fill-opacity:1;" d="M 215.359375 36.390625 C 215.359375 39.058594 211.359375 39.058594 211.359375 36.390625 C 211.359375 33.722656 215.359375 33.722656 215.359375 36.390625 "/>
<path style=" stroke:none;fill-rule:nonzero;fill:rgb(100%,0%,0%);fill-opacity:1;" d="M 138.679688 36.390625 C 138.679688 39.058594 134.679688 39.058594 134.679688 36.390625 C 134.679688 33.722656 138.679688 33.722656 138.679688 36.390625 "/>
<path style=" stroke:none;fill-rule:nonzero;fill:rgb(100%,0%,0%);fill-opacity:1;" d="M 202.582031 55.558594 C 202.582031 58.226562 198.582031 58.226562 198.582031 55.558594 C 198.582031 52.894531 202.582031 52.894531 202.582031 55.558594 "/>
<path style=" stroke:none;fill-rule:nonzero;fill:rgb(100%,0%,0%);fill-opacity:1;" d="M 151.460938 55.558594 C 151.460938 58.226562 147.460938 58.226562 147.460938 55.558594 C 147.460938 52.894531 151.460938 52.894531 151.460938 55.558594 "/>
<path style=" stroke:none;fill-rule:nonzero;fill:rgb(100%,0%,0%);fill-opacity:1;" d="M 189.800781 74.730469 C 189.800781 77.398438 185.800781 77.398438 185.800781 74.730469 C 185.800781 72.0625 189.800781 72.0625 189.800781 74.730469 "/>
<path style=" stroke:none;fill-rule:nonzero;fill:rgb(100%,0%,0%);fill-opacity:1;" d="M 164.238281 74.730469 C 164.238281 77.398438 160.238281 77.398438 160.238281 74.730469 C 160.238281 72.0625 164.238281 72.0625 164.238281 74.730469 "/>
<path style=" stroke:none;fill-rule:nonzero;fill:rgb(100%,0%,0%);fill-opacity:1;" d="M 189.800781 74.730469 C 189.800781 77.398438 185.800781 77.398438 185.800781 74.730469 C 185.800781 72.0625 189.800781 72.0625 189.800781 74.730469 "/>
<path style=" stroke:none;fill-rule:nonzero;fill:rgb(100%,0%,0%);fill-opacity:1;" d="M 164.238281 74.730469 C 164.238281 77.398438 160.238281 77.398438 160.238281 74.730469 C 160.238281 72.0625 164.238281 72.0625 164.238281 74.730469 "/>
<path style=" stroke:none;fill-rule:nonzero;fill:rgb(100%,0%,0%);fill-opacity:1;" d="M 253.699219 42.78125 C 253.699219 45.445312 249.699219 45.445312 249.699219 42.78125 C 249.699219 40.113281 253.699219 40.113281 253.699219 42.78125 "/>
<path style=" stroke:none;fill-rule:nonzero;fill:rgb(100%,0%,0%);fill-opacity:1;" d="M 100.339844 42.78125 C 100.339844 45.445312 96.339844 45.445312 96.339844 42.78125 C 96.339844 40.113281 100.339844 40.113281 100.339844 42.78125 "/>
<path style=" stroke:none;fill-rule:nonzero;fill:rgb(100%,0%,0%);fill-opacity:1;" d="M 240.921875 61.949219 C 240.921875 64.617188 236.921875 64.617188 236.921875 61.949219 C 236.921875 59.285156 240.921875 59.285156 240.921875 61.949219 "/>
<path style=" stroke:none;fill-rule:nonzero;fill:rgb(100%,0%,0%);fill-opacity:1;" d="M 113.121094 61.949219 C 113.121094 64.617188 109.121094 64.617188 109.121094 61.949219 C 109.121094 59.285156 113.121094 59.285156 113.121094 61.949219 "/>
<path style=" stroke:none;fill-rule:nonzero;fill:rgb(100%,0%,0%);fill-opacity:1;" d="M 62 49.171875 C 62 51.835938 58 51.835938 58 49.171875 C 58 46.503906 62 46.503906 62 49.171875 "/>
<path style=" stroke:none;fill-rule:nonzero;fill:rgb(100%,0%,0%);fill-opacity:1;" d="M 279.261719 68.339844 C 279.261719 71.007812 275.261719 71.007812 275.261719 68.339844 C 275.261719 65.671875 279.261719 65.671875 279.261719 68.339844 "/>
<path style=" stroke:none;fill-rule:nonzero;fill:rgb(100%,0%,0%);fill-opacity:1;" d="M 74.78125 68.339844 C 74.78125 71.007812 70.78125 71.007812 70.78125 68.339844 C 70.78125 65.671875 74.78125 65.671875 74.78125 68.339844 "/>
<path style=" stroke:none;fill-rule:nonzero;fill:rgb(100%,0%,0%);fill-opacity:1;" d="M 253.699219 42.78125 C 253.699219 45.445312 249.699219 45.445312 249.699219 42.78125 C 249.699219 40.113281 253.699219 40.113281 253.699219 42.78125 "/>
<path style=" stroke:none;fill-rule:nonzero;fill:rgb(100%,0%,0%);fill-opacity:1;" d="M 100.339844 42.78125 C 100.339844 45.445312 96.339844 45.445312 96.339844 42.78125 C 96.339844 40.113281 100.339844 40.113281 100.339844 42.78125 "/>
<path style=" stroke:none;fill-rule:nonzero;fill:rgb(100%,0%,0%);fill-opacity:1;" d="M 240.921875 61.949219 C 240.921875 64.617188 236.921875 64.617188 236.921875 61.949219 C 236.921875 59.285156 240.921875 59.285156 240.921875 61.949219 "/>
<path style=" stroke:none;fill-rule:nonzero;fill:rgb(100%,0%,0%);fill-opacity:1;" d="M 113.121094 61.949219 C 113.121094 64.617188 109.121094 64.617188 109.121094 61.949219 C 109.121094 59.285156 113.121094 59.285156 113.121094 61.949219 "/>
<path style=" stroke:none;fill-rule:nonzero;fill:rgb(100%,0%,0%);fill-opacity:1;" d="M 62 49.171875 C 62 51.835938 58 51.835938 58 49.171875 C 58 46.503906 62 46.503906 62 49.171875 "/>
<path style=" stroke:none;fill-rule:nonzero;fill:rgb(100%,0%,0%);fill-opacity:1;" d="M 279.261719 68.339844 C 279.261719 71.007812 275.261719 71.007812 275.261719 68.339844 C 275.261719 65.671875 279.261719 65.671875 279.261719 68.339844 "/>
<path style=" stroke:none;fill-rule:nonzero;fill:rgb(100%,0%,0%);fill-opacity:1;" d="M 74.78125 68.339844 C 74.78125 71.007812 70.78125 71.007812 70.78125 68.339844 C 70.78125 65.671875 74.78125 65.671875 74.78125 68.339844 "/>
<path style=" stroke:none;fill-rule:nonzero;fill:rgb(100%,0%,0%);fill-opacity:1;" d="M 228.140625 81.121094 C 228.140625 83.785156 224.140625 83.785156 224.140625 81.121094 C 224.140625 78.453125 228.140625 78.453125 228.140625 81.121094 "/>
<path style=" stroke:none;fill-rule:nonzero;fill:rgb(100%,0%,0%);fill-opacity:1;" d="M 125.898438 81.121094 C 125.898438 83.785156 121.898438 83.785156 121.898438 81.121094 C 121.898438 78.453125 125.898438 78.453125 125.898438 81.121094 "/>
<path style=" stroke:none;fill-rule:nonzero;fill:rgb(100%,0%,0%);fill-opacity:1;" d="M 266.480469 87.511719 C 266.480469 90.175781 262.480469 90.175781 262.480469 87.511719 C 262.480469 84.84375 266.480469 84.84375 266.480469 87.511719 "/>
<path style=" stroke:none;fill-rule:nonzero;fill:rgb(100%,0%,0%);fill-opacity:1;" d="M 87.558594 87.511719 C 87.558594 90.175781 83.558594 90.175781 83.558594 87.511719 C 83.558594 84.84375 87.558594 84.84375 87.558594 87.511719 "/>
<path style=" stroke:none;fill-rule:nonzero;fill:rgb(100%,0%,0%);fill-opacity:1;" d="M 228.140625 81.121094 C 228.140625 83.785156 224.140625 83.785156 224.140625 81.121094 C 224.140625 78.453125 228.140625 78.453125 228.140625 81.121094 "/>
<path style=" stroke:none;fill-rule:nonzero;fill:rgb(100%,0%,0%);fill-opacity:1;" d="M 125.898438 81.121094 C 125.898438 83.785156 121.898438 83.785156 121.898438 81.121094 C 121.898438 78.453125 125.898438 78.453125 125.898438 81.121094 "/>
<path style=" stroke:none;fill-rule:nonzero;fill:rgb(100%,0%,0%);fill-opacity:1;" d="M 266.480469 87.511719 C 266.480469 90.175781 262.480469 90.175781 262.480469 87.511719 C 262.480469 84.84375 266.480469 84.84375 266.480469 87.511719 "/>
<path style=" stroke:none;fill-rule:nonzero;fill:rgb(100%,0%,0%);fill-opacity:1;" d="M 87.558594 87.511719 C 87.558594 90.175781 83.558594 90.175781 83.558594 87.511719 C 83.558594 84.84375 87.558594 84.84375 87.558594 87.511719 "/>
<path style="fill:none;stroke-width:2;stroke-linecap:butt;stroke-linejoin:miter;stroke:rgb(0%,0%,0%);stroke-opacity:1;stroke-miterlimit:10;" d="M 30 31 L 0 10000 "/>
<path style="fill:none;stroke-width:2;stroke-linecap:butt;stroke-linejoin:miter;stroke:rgb(0%,0%,0%);stroke-opacity:1;stroke-miterlimit:10;" d="M 31 30 L 20000 0 "/>
</g>
</svg>
