<?xml version="1.0" encoding="UTF-8"?>
<svg xmlns="http://www.w3.org/2000/svg" xmlns:xlink="http://www.w3.org/1999/xlink" width="300pt" height="200pt" viewBox="0 0 300 200" version="1.1">
<g id="surface1">
<rect x="0" y="0" width="300" height="200" style="fill:rgb(90%,90%,90%);fill-opacity:1;stroke:none;"/>
<path style="fill:none;stroke-width:2;stroke-linecap:butt;stroke-linejoin:miter;stroke:rgb(0%,0%,0%);stroke-opacity:1;stroke-miterlimit:10;" d="M 10 10 L 10 10010 "/>
<path style="fill:none;stroke-width:2;stroke-linecap:butt;stroke-linejoin:miter;stroke:rgb(0%,0%,0%);stroke-opacity:1;stroke-miterlimit:10;" d="M 160 10 L 160 10010 "/>
<path style="fill:none;stroke-width:2;stroke-linecap:butt;stroke-linejoin:miter;stroke:rgb(0%,0%,0%);stroke-opacity:1;stroke-miterlimit:10;" d="M 10 110 L 10 10110 "/>
<path style="fill:none;stroke-width:2;stroke-linecap:butt;stroke-linejoin:miter;stroke:rgb(0%,0%,0%);stroke-opacity:1;stroke-miterlimit:10;" d="M 10 10 L 10010 10 "/>
<path style="fill:none;stroke-width:2;stroke-linecap:butt;stroke-linejoin:miter;stroke:rgb(0%,0%,0%);stroke-opacity:1;stroke-miterlimit:10;" d="M 160 10 L 10160 10 "/>
<path style="fill:none;stroke-width:2;stroke-linecap:butt;stroke-linejoin:miter;stroke:rgb(0%,0%,0%);stroke-opacity:1;stroke-miterlimit:10;" d="M 10 110 L 10010 110 "/>
<path style=" stroke:none;fill-rule:nonzero;fill:rgb(0%,0%,100%);fill-opacity:1;" d="M 88.679688 16.390625 C 88.679688 19.058594 84.679688 19.058594 84.679688 16.390625 C 84.679688 13.722656 88.679688 13.722656 88.679688 16.390625 "/>
<path style=" stroke:none;fill-rule:nonzero;fill:rgb(0%,0%,100%);fill-opacity:1;" d="M 50.339844 16.390625 C 50.339844 19.058594 46.339844 19.058594 46.339844 16.390625 C 46.339844 13.722656 50.339844 13.722656 50.339844 16.390625 "/>
<path style=" stroke:none;fill-rule:nonzero;fill:rgb(0%,0%,100%);fill-opacity:1;" d="M 82.289062 35.558594 C 82.289062 38.226562 78.289062 38.226562 78.289062 35.558594 C 78.289062 32.894531 82.289062 32.894531 82.289062 35.558594 "/>
<path style=" stroke:none;fill-rule:nonzero;fill:rgb(0%,0%,100%);fill-opacity:1;" d="M 56.730469 35.558594 C 56.730469 38.226562 52.730469 38.226562 52.730469 35.558594 C 52.730469 32.894531 56.730469 32.894531 56.730469 35.558594 "/>
<path style=" stroke:none;fill-rule:nonzero;fill:rgb(0%,0%,100%);fill-opacity:1;" d="M 69.511719 10 C 69.511719 12.667969 65.511719 12.667969 65.511719 10 C 65.511719 7.332031 69.511719 7.332031 69.511719 10 "/>
<path style=" stroke:none;fill-rule:nonzero;fill:rgb(0%,0%,100%);fill-opacity:1;" d="M 88.679688 16.390625 C 88.679688 19.058594 84.679688 19.058594 84.679688 16.390625 C 84.679688 13.722656 88.679688 13.722656 88.679688 16.390625 "/>
<path style=" stroke:none;fill-rule:nonzero;fill:rgb(0%,0%,100%);fill-opacity:1;" d="M 50.339844 16.390625 C 50.339844 19.058594 46.339844 19.058594 46.339844 16.390625 C 46.339844 13.722656 50.339844 13.722656 50.339844 16.390625 "/>
<path style=" stroke:none;fill-rule:nonzero;fill:rgb(0%,0%,100%);fill-opacity:1;" d="M 82.289062 35.558594 C 82.289062 38.226562 78.289062 38.226562 78.289062 35.558594 C 78.289062 32.894531 82.289062 32.894531 82.289062 35.558594 "/>
<path style=" stroke:none;fill-rule:nonzero;fill:rgb(0%,0%,100%);fill-opacity:1;" d="M 56.730469 35.558594 C 56.730469 38.226562 52.730469 38.226562 52.730469 35.558594 C 52.730469 32.894531 56.730469 32.894531 56.730469 35.558594 "/>
<path style=" stroke:none;fill-rule:nonzero;fill:rgb(0%,0%,100%);fill-opacity:1;" d="M 69.511719 10 C 69.511719 12.667969 65.511719 12.667969 65.511719 10 C 65.511719 7.332031 69.511719 7.332031 69.511719 10 "/>
<path style=" stroke:none;fill-rule:nonzero;fill:rgb(0%,0%,100%);fill-opacity:1;" d="M 88.679688 16.390625 C 88.679688 19.058594 84.679688 19.058594 84.679688 16.390625 C 84.679688 13.722656 88.679688 13.722656 88.679688 16.390625 "/>
<path style=" stroke:none;fill-rule:nonzero;fill:rgb(0%,0%,100%);fill-opacity:1;" d="M 50.339844 16.390625 C 50.339844 19.058594 46.339844 19.058594 46.339844 16.390625 C 46.339844 13.722656 50.339844 13.722656 50.339844 16.390625 "/>
<path style=" stroke:none;fill-rule:nonzero;fill:rgb(0%,0%,100%);fill-opacity:1;" d="M 82.289062 35.558594 C 82.289062 38.226562 78.289062 38.226562 78.289062 35.558594 C 78.289062 32.894531 82.289062 32.894531 82.289062 35.558594 "/>
<path style=" stroke:none;fill-rule:nonzero;fill:rgb(0%,0%,100%);fill-opacity:1;" d="M 56.730469 35.558594 C 56.730469 38.226562 52.730469 38.226562 52.730469 35.558594 C 52.730469 32.894531 56.730469 32.894531 56.730469 35.558594 "/>
<path style=" stroke:none;fill-rule:nonzero;fill:rgb(0%,0%,100%);fill-opacity:1;" d="M 69.511719 10 C 69.511719 12.667969 65.511719 12.667969 65.511719 10 C 65.511719 7.332031 69.511719 7.332031 69.511719 10 "/>
<path style=" stroke:none;fill-rule:nonzero;fill:rgb(0%,0%,100%);fill-opacity:1;" d="M 88.679688 16.390625 C 88.679688 19.058594 84.679688 19.058594 84.679688 16.390625 C 84.679688 13.722656 88.679688 13.722656 88.679688 16.390625 "/>
<path style=" stroke:none;fill-rule:nonzero;fill:rgb(0%,0%,100%);fill-opacity:1;" d="M 50.339844 16.390625 C 50.339844 19.058594 46.339844 19.058594 46.339844 16.390625 C 46.339844 13.722656 50.339844 13.722656 50.339844 16.390625 "/>
<path style=" stroke:none;fill-rule:nonzero;fill:rgb(0%,0%,100%);fill-opacity:1;" d="M 82.289062 35.558594 C 82.289062 38.226562 78.289062 38.226562 78.289062 35.558594 C 78.289062 32.894531 82.289062 32.894531 82.289062 35.558594 "/>
<path style=" stroke:none;fill-rule:nonzero;fill:rgb(0%,0%,100%);fill-opacity:1;" d="M 56.730469 35.558594 C 56.730469 38.226562 52.730469 38.226562 52.730469 35.558594 C 52.730469 32.894531 56.730469 32.894531 56.730469 35.558594 "/>
<path style=" stroke:none;fill-rule:nonzero;fill:rgb(0%,0%,100%);fill-opacity:1;" d="M 75.898438 54.730469 C 75.898438 57.398438 71.898438 57.398438 71.898438 54.730469 C 71.898438 52.0625 75.898438 52.0625 75.898438 54.730469 "/>
<path style=" stroke:none;fill-rule:nonzero;fill:rgb(0%,0%,100%);fill-opacity:1;" d="M 63.121094 54.730469 C 63.121094 57.398438 59.121094 57.398438 59.121094 54.730469 C 59.121094 52.0625 63.121094 52.0625 63.121094 54.730469 "/>
<path style=" stroke:none;fill-rule:nonzero;fill:rgb(0%,0%,100%);fill-opacity:1;" d="M 75.898438 54.730469 C 75.898438 57.398438 71.898438 57.398438 71.898438 54.730469 C 71.898438 52.0625 75.898438 52.0625 75.898438 54.730469 "/>
<path style=" stroke:none;fill-rule:nonzero;fill:rgb(0%,0%,100%);fill-opacity:1;" d="M 63.121094 54.730469 C 63.121094 57.398438 59.121094 57.398438 59.121094 54.730469 C 59.121094 52.0625 63.121094 52.0625 63.121094 54.730469 "/>
<path style=" stroke:none;fill-rule:nonzero;fill:rgb(0%,0%,100%);fill-opacity:1;" d="M 75.898438 54.730469 C 75.898438 57.398438 71.898438 57.398438 71.898438 54.730469 C 71.898438 52.0625 75.898438 52.0625 75.898438 54.730469 "/>
<path style=" stroke:none;fill-rule:nonzero;fill:rgb(0%,0%,100%);fill-opacity:1;" d="M 63.121094 54.730469 C 63.121094 57.398438 59.121094 57.398438 59.121094 54.730469 C 59.121094 52.0625 63.121094 52.0625 63.121094 54.730469 "/>
<path style=" stroke:none;fill-rule:nonzero;fill:rgb(0%,0%,100%);fill-opacity:1;" d="M 75.898438 54.730469 C 75.898438 57.398438 71.898438 57.398438 71.898438 54.730469 C 71.898438 52.0625 75.898438 52.0625 75.898438 54.730469 "/>
<path style=" stroke:none;fill-rule:nonzero;fill:rgb(0%,0%,100%);fill-opacity:1;" d="M 63.121094 54.730469 C 63.121094 57.398438 59.121094 57.398438 59.121094 54.730469 C 59.121094 52.0625 63.121094 52.0625 63.121094 54.730469 "/>
<path style=" stroke:none;fill-rule:nonzero;fill:rgb(0%,0%,100%);fill-opacity:1;" d="M 107.851562 22.78125 C 107.851562 25.445312 103.851562 25.445312 103.851562 22.78125 C 103.851562 20.113281 107.851562 20.113281 107.851562 22.78125 "/>
<path style=" stroke:none;fill-rule:nonzero;fill:rgb(0%,0%,100%);fill-opacity:1;" d="M 31.171875 22.78125 C 31.171875 25.445312 27.171875 25.445312 27.171875 22.78125 C 27.171875 20.113281 31.171875 20.113281 31.171875 22.78125 "/>
<path style=" stroke:none;fill-rule:nonzero;fill:rgb(0%,0%,100%);fill-opacity:1;" d="M 101.460938 41.949219 C 101.460938 44.617188 97.460938 44.617188 97.460938 41.949219 C 97.460938 39.285156 101.460938 39.285156 101.460938 41.949219 "/>
<path style=" stroke:none;fill-rule:nonzero;fill:rgb(0%,0%,100%);fill-opacity:1;" d="M 37.558594 41.949219 C 37.558594 44.617188 33.558594 44.617188 33.558594 41.949219 C 33.558594 39.285156 37.558594 39.285156 37.558594 41.949219 "/>
<path style=" stroke:none;fill-rule:nonzero;fill:rgb(0%,0%,100%);fill-opacity:1;" d="M 12 29.171875 C 12 31.835938 8 31.835938 8 29.171875 C 8 26.503906 12 26.503906 12 29.171875 "/>
<path style=" stroke:none;fill-rule:nonzero;fill:rgb(0%,0%,100%);fill-opacity:1;" d="M 120.628906 48.339844 C 120.628906 51.007812 116.628906 51.007812 116.628906 48.339844 C 116.628906 45.671875 120.628906 45.671875 120.628906 48.339844 "/>
<path style=" stroke:none;fill-rule:nonzero;fill:rgb(0%,0%,100%);fill-opacity:1;" d="M 18.390625 48.339844 C 18.390625 51.007812 14.390625 51.007812 14.390625 48.339844 C 14.390625 45.671875 18.390625 45.671875 18.390625 48.339844 "/>
<path style=" stroke:none;fill-rule:nonzero;fill:rgb(0%,0%,100%);fill-opacity:1;" d="M 107.851562 22.78125 C 107.851562 25.445312 103.851562 25.445312 103.851562 22.78125 C 103.851562 20.113281 107.851562 20.113281 107.851562 22.78125 "/>
<path style=" stroke:none;fill-rule:nonzero;fill:rgb(0%,0%,100%);fill-opacity:1;" d="M 31.171875 22.78125 C 31.171875 25.445312 27.171875 25.445312 27.171875 22.78125 C 27.171875 20.113281 31.171875 20.113281 31.171875 22.78125 "/>
<path style=" stroke:none;fill-rule:nonzero;fill:rgb(0%,0%,100%);fill-opacity:1;" d="M 101.460938 41.949219 C 101.460938 44.617188 97.460938 44.617188 97.460938 41.949219 C 97.460938 39.285156 101.460938 39.285156 101.460938 41.949219 "/>
<path style=" stroke:none;fill-rule:nonzero;fill:rgb(0%,0%,100%);fill-opacity:1;" d="M 37.558594 41.949219 C 37.558594 44.617188 33.558594 44.617188 33.558594 41.949219 C 33.558594 39.285156 37.558594 39.285156 37.558594 41.949219 "/>
<path style=" stroke:none;fill-rule:nonzero;fill:rgb(0%,0%,100%);fill-opacity:1;" d="M 12 29.171875 C 12 31.835938 8 31.835938 8 29.171875 C 8 26.503906 12 26.503906 12 29.171875 "/>
<path style=" stroke:none;fill-rule:nonzero;fill:rgb(0%,0%,100%);fill-opacity:1;" d="M 120.628906 48.339844 C 120.628906 51.007812 116.628906 51.007812 116.628906 48.339844 C 116.628906 45.671875 120.628906 45.671875 120.628906 48.339844 "/>
<path style=" stroke:none;fill-rule:nonzero;fill:rgb(0%,0%,100%);fill-opacity:1;" d="M 18.390625 48.339844 C 18.390625 51.007812 14.390625 51.007812 14.390625 48.339844 C 14.390625 45.671875 18.390625 45.671875 18.390625 48.339844 "/>
<path style=" stroke:none;fill-rule:nonzero;fill:rgb(0%,0%,100%);fill-opacity:1;" d="M 107.851562 22.78125 C 107.851562 25.445312 103.851562 25.445312 103.851562 22.78125 C 103.851562 20.113281 107.851562 20.113281 107.851562 22.78125 "/>
<path style=" stroke:none;fill-rule:nonzero;fill:rgb(0%,0%,100%);fill-opacity:1;" d="M 31.171875 22.78125 C 31.171875 25.445312 27.171875 25.445312 27.171875 22.78125 C 27.171875 20.113281 31.171875 20.113281 31.171875 22.78125 "/>
<path style=" stroke:none;fill-rule:nonzero;fill:rgb(0%,0%,100%);fill-opacity:1;" d="M 101.460938 41.949219 C 101.460938 44.617188 97.460938 44.617188 97.460938 41.949219 C 97.460938 39.285156 101.460938 39.285156 101.460938 41.949219 "/>
<path style=" stroke:none;fill-rule:nonzero;fill:rgb(0%,0%,100%);fill-opacity:1;" d="M 37.558594 41.949219 C 37.558594 44.617188 33.558594 44.617188 33.558594 41.949219 C 33.558594 39.285156 37.558594 39.285156 37.558594 41.949219 "/>
<path style=" stroke:none;fill-rule:nonzero;fill:rgb(0%,0%,100%);fill-opacity:1;" d="M 12 29.171875 C 12 31.835938 8 31.835938 8 29.171875 C 8 26.503906 12 26.503906 12 29.171875 "/>
<path style=" stroke:none;fill-rule:nonzero;fill:rgb(0%,0%,100%);fill-opacity:1;" d="M 120.628906 48.339844 C 120.628906 51.007812 116.628906 51.007812 116.628906 48.339844 C 116.628906 45.671875 120.628906 45.671875 120.628906 48.339844 "/>
<path style=" stroke:none;fill-rule:nonzero;fill:rgb(0%,0%,100%);fill-opacity:1;" d="M 18.390625 48.339844 C 18.390625 51.007812 14.390625 51.007812 14.390625 48.339844 C 14.390625 45.671875 18.390625 45.671875 18.390625 48.339844 "/>
<path style=" stroke:none;fill-rule:nonzero;fill:rgb(0%,0%,100%);fill-opacity:1;" d="M 107.851562 22.78125 C 107.851562 25.445312 103.851562 25.445312 103.851562 22.78125 C 103.851562 20.113281 107.851562 20.113281 107.851562 22.78125 "/>
<path style=" stroke:none;fill-rule:nonzero;fill:rgb(0%,0%,100%);fill-opacity:1;" d="M 31.171875 22.78125 C 31.171875 25.445312 27.171875 25.445312 27.171875 22.78125 C 27.171875 20.113281 31.171875 20.113281 31.171875 22.78125 "/>
<path style=" stroke:none;fill-rule:nonzero;fill:rgb(0%,0%,100%);fill-opacity:1;" d="M 101.460938 41.949219 C 101.460938 44.617188 97.460938 44.617188 97.460938 41.949219 C 97.460938 39.285156 101.460938 39.285156 101.460938 41.949219 "/>
<path style=" stroke:none;fill-rule:nonzero;fill:rgb(0%,0%,100%);fill-opacity:1;" d="M 37.558594 41.949219 C 37.558594 44.617188 33.558594 44.617188 33.558594 41.949219 C 33.558594 39.285156 37.558594 39.285156 37.558594 41.949219 "/>
<path style=" stroke:none;fill-rule:nonzero;fill:rgb(0%,0%,100%);fill-opacity:1;" d="M 12 29.171875 C 12 31.835938 8 31.835938 8 29.171875 C 8 26.503906 12 26.503906 12 29.171875 "/>
<path style=" stroke:none;fill-rule:nonzero;fill:rgb(0%,0%,100%);fill-opacity:1;" d="M 120.628906 48.339844 C 120.628906 51.007812 116.628906 51.007812 116.628906 48.339844 C 116.628906 45.671875 120.628906 45.671875 120.628906 48.339844 "/>
<path style=" stroke:none;fill-rule:nonzero;fill:rgb(0%,0%,100%);fill-opacity:1;" d="M 18.390625 48.339844 C 18.390625 51.007812 14.390625 51.007812 14.390625 48.339844 C 14.390625 45.671875 18.390625 45.671875 18.390625 48.339844 "/>
<path style=" stroke:none;fill-rule:nonzero;fill:rgb(0%,0%,100%);fill-opacity:1;" d="M 95.070312 61.121094 C 95.070312 63.785156 91.070312 63.785156 91.070312 61.121094 C 91.070312 58.453125 95.070312 58.453125 95.070312 61.121094 "/>
<path style=" stroke:none;fill-rule:nonzero;fill:rgb(0%,0%,100%);fill-opacity:1;" d="M 43.949219 61.121094 C 43.949219 63.785156 39.949219 63.785156 39.949219 61.121094 C 39.949219 58.453125 43.949219 58.453125 43.949219 61.121094 "/>
<path style=" stroke:none;fill-rule:nonzero;fill:rgb(0%,0%,100%);fill-opacity:1;" d="M 114.238281 67.511719 C 114.238281 70.175781 110.238281 70.175781 110.238281 67.511719 C 110.238281 64.84375 114.238281 64.84375 114.238281 67.511719 "/>
<path style=" stroke:none;fill-rule:nonzero;fill:rgb(0%,0%,100%);fill-opacity:1;" d="M 24.78125 67.511719 C 24.78125 70.175781 20.78125 70.175781 20.78125 67.511719 C 20.78125 64.84375 24.78125 64.84375 24.78125 67.511719 "/>
<path style=" stroke:none;fill-rule:nonzero;fill:rgb(0%,0%,100%);fill-opacity:1;" d="M 95.070312 61.121094 C 95.070312 63.785156 91.070312 63.785156 91.070312 61.121094 C 91.070312 58.453125 95.070312 58.453125 95.070312 61.121094 "/>
<path style=" stroke:none;fill-rule:nonzero;fill:rgb(0%,0%,100%);fill-opacity:1;" d="M 43.949219 61.121094 C 43.949219 63.785156 39.949219 63.785156 39.949219 61.121094 C 39.949219 58.453125 43.949219 58.453125 43.949219 61.121094 "/>
<path style=" stroke:none;fill-rule:nonzero;fill:rgb(0%,0%,100%);fill-opacity:1;" d="M 114.238281 67.511719 C 114.238281 70.175781 110.238281 70.175781 110.238281 67.511719 C 110.238281 64.84375 114.238281 64.84375 114.238281 67.511719 "/>
<path style=" stroke:none;fill-rule:nonzero;fill:rgb(0%,0%,100%);fill-opacity:1;" d="M 24.78125 67.511719 C 24.78125 70.175781 20.78125 70.175781 20.78125 67.511719 C 20.78125 64.84375 24.78125 64.84375 24.78125 67.511719 "/>
<path style=" stroke:none;fill-rule:nonzero;fill:rgb(0%,0%,100%);fill-opacity:1;" d="M 95.070312 61.121094 C 95.070312 63.785156 91.070312 63.785156 91.070312 61.121094 C 91.070312 58.453125 95.070312 58.453125 95.070312 61.121094 "/>
<path style=" stroke:none;fill-rule:nonzero;fill:rgb(0%,0%,100%);fill-opacity:1;" d="M 43.949219 61.121094 C 43.949219 63.785156 39.949219 63.785156 39.949219 61.121094 C 39.949219 58.453125 43.949219 58.453125 43.949219 61.121094 "/>
<path style=" stroke:none;fill-rule:nonzero;fill:rgb(0%,0%,100%);fill-opacity:1;" d="M 114.238281 67.511719 C 114.238281 70.175781 110.238281 70.175781 110.238281 67.511719 C 110.238281 64.84375 114.238281 64.84375 114.238281 67.511719 "/>
<path style=" stroke:none;fill-rule:nonzero;fill:rgb(0%,0%,100%);fill-opacity:1;" d="M 24.78125 67.511719 C 24.78125 70.175781 20.78125 70.175781 20.78125 67.511719 C 20.78125 64.84375 24.78125 64.84375 24.78125 67.511719 "/>
<path style=" stroke:none;fill-rule:nonzero;fill:rgb(0%,0%,100%);fill-opacity:1;" d="M 95.070312 61.121094 C 95.070312 63.785156 91.070312 63.785156 91.070312 61.121094 C 91.070312 58.453125 95.070312 58.453125 95.070312 61.121094 "/>
<path style=" stroke:none;fill-rule:nonzero;fill:rgb(0%,0%,100%);fill-opacity:1;" d="M 43.949219 61.121094 C 43.949219 63.785156 39.949219 63.785156 39.949219 61.121094 C 39.949219 58.453125 43.949219 58.453125 43.949219 61.121094 "/>
<path style=" stroke:none;fill-rule:nonzero;fill:rgb(0%,0%,100%);fill-opacity:1;" d="M 114.238281 67.511719 C 114.238281 70.175781 110.238281 70.175781 110.238281 67.511719 C 110.238281 64.84375 114.238281 64.84375 114.238281 67.511719 "/>
<path style=" stroke:none;fill-rule:nonzero;fill:rgb(0%,0%,100%);fill-opacity:1;" d="M 24.78125 67.511719 C 24.78125 70.175781 20.78125 70.175781 20.78125 67.511719 C 20.78125 64.84375 24.78125 64.84375 24.78125 67.511719 "/>
<path style="fill:none;stroke-width:2;stroke-linecap:butt;stroke-linejoin:miter;stroke:rgb(100%,80%,0%);stroke-opacity:1;stroke-miterlimit:10;" d="M 86.679688 16.390625 L 86.679688 16.390625 "/>
<path style="fill:none;stroke-width:2;stroke-linecap:butt;stroke-linejoin:miter;stroke:rgb(100%,80%,0%);stroke-opacity:1;stroke-miterlimit:10;" d="M 48.339844 16.390625 L 48.339844 16.390625 "/>
<path style="fill:none;stroke-width:2;stroke-linecap:butt;stroke-linejoin:miter;stroke:rgb(100%,80%,0%);stroke-opacity:1;stroke-miterlimit:10;" d="M 80.289062 35.558594 L 80.289062 35.558594 "/>
<path style="fill:none;stroke-width:2;stroke-linecap:butt;stroke-linejoin:miter;stroke:rgb(100%,80%,0%);stroke-opacity:1;stroke-miterlimit:10;" d="M 54.730469 35.558594 L 54.730469 35.558594 "/>
<path style="fill:none;stroke-width:2;stroke-linecap:butt;stroke-linejoin:miter;stroke:rgb(100%,80%,0%);stroke-opacity:1;stroke-miterlimit:10;" d="M 67.511719 10 L 67.511719 10 "/>
<path style="fill:none;stroke-width:2;stroke-linecap:butt;stroke-linejoin:miter;stroke:rgb(100%,80%,0%);stroke-opacity:1;stroke-miterlimit:10;" d="M 86.679688 16.390625 L 86.679688 16.390625 "/>
<path style="fill:none;stroke-width:2;stroke-linecap:butt;stroke-linejoin:miter;stroke:rgb(100%,80%,0%);stroke-opacity:1;stroke-miterlimit:10;" d="M 48.339844 16.390625 L 48.339844 16.390625 "/>
<path style="fill:none;stroke-width:2;stroke-linecap:butt;stroke-linejoin:miter;stroke:rgb(100%,80%,0%);stroke-opacity:1;stroke-miterlimit:10;" d="M 80.289062 35.558594 L 80.289062 35.558594 "/>
<path style="fill:none;stroke-width:2;stroke-linecap:butt;stroke-linejoin:miter;stroke:rgb(100%,80%,0%);stroke-opacity:1;stroke-miterlimit:10;" d="M 54.730469 35.558594 L 54.730469 35.558594 "/>
<path style="fill:none;stroke-width:2;stroke-linecap:butt;stroke-linejoin:miter;stroke:rgb(100%,80%,0%);stroke-opacity:1;stroke-miterlimit:10;" d="M 67.511719 10 L 67.511719 10 "/>
<path style="fill:none;stroke-width:2;stroke-linecap:butt;stroke-linejoin:miter;stroke:rgb(100%,80%,0%);stroke-opacity:1;stroke-miterlimit:10;" d="M 86.679688 16.390625 L 86.679688 16.390625 "/>
<path style="fill:none;stroke-width:2;stroke-linecap:butt;stroke-linejoin:miter;stroke:rgb(100%,80%,0%);stroke-opacity:1;stroke-miterlimit:10;" d="M 48.339844 16.390625 L 48.339844 16.390625 "/>
<path style="fill:none;stroke-width:2;stroke-linecap:butt;stroke-linejoin:miter;stroke:rgb(100%,80%,0%);stroke-opacity:1;stroke-miterlimit:10;" d="M 80.289062 35.558594 L 80.289062 35.558594 "/>
<path style="fill:none;stroke-width:2;stroke-linecap:butt;stroke-linejoin:miter;stroke:rgb(100%,80%,0%);stroke-opacity:1;stroke-miterlimit:10;" d="M 54.730469 35.558594 L 54.730469 35.558594 "/>
<path style="fill:none;stroke-width:2;stroke-linecap:butt;stroke-linejoin:miter;stroke:rgb(100%,80%,0%);stroke-opacity:1;stroke-miterlimit:10;" d="M 67.511719 10 L 67.511719 10 "/>
<path style="fill:none;stroke-width:2;stroke-linecap:butt;stroke-linejoin:miter;stroke:rgb(100%,80%,0%);stroke-opacity:1;stroke-miterlimit:10;" d="M 86.679688 16.390625 L 86.679688 16.390625 "/>
<path style="fill:none;stroke-width:2;stroke-linecap:butt;stroke-linejoin:miter;stroke:rgb(100%,80%,0%);stroke-opacity:1;stroke-miterlimit:10;" d="M 48.339844 16.390625 L 48.339844 16.390625 "/>
<path style="fill:none;stroke-width:2;stroke-linecap:butt;stroke-linejoin:miter;stroke:rgb(100%,80%,0%);stroke-opacity:1;stroke-miterlimit:10;" d="M 80.289062 35.558594 L 80.289062 35.558594 "/>
<path style="fill:none;stroke-width:2;stroke-linecap:butt;stroke-linejoin:miter;stroke:rgb(100%,80%,0%);stroke-opacity:1;stroke-miterlimit:10;" d="M 54.730469 35.558594 L 54.730469 35.558594 "/>
<path style="fill:none;stroke-width:2;stroke-linecap:butt;stroke-linejoin:miter;stroke:rgb(100%,80%,0%);stroke-opacity:1;stroke-miterlimit:10;" d="M 73.898438 54.730469 L 73.898438 54.730469 "/>
<path style="fill:none;stroke-width:2;stroke-linecap:butt;stroke-linejoin:miter;stroke:rgb(100%,80%,0%);stroke-opacity:1;stroke-miterlimit:10;" d="M 61.121094 54.730469 L 61.121094 54.730469 "/>
<path style="fill:none;stroke-width:2;stroke-linecap:butt;stroke-linejoin:miter;stroke:rgb(100%,80%,0%);stroke-opacity:1;stroke-miterlimit:10;" d="M 73.898438 54.730469 L 73.898438 54.730469 "/>
<path style="fill:none;stroke-width:2;stroke-linecap:butt;stroke-linejoin:miter;stroke:rgb(100%,80%,0%);stroke-opacity:1;stroke-miterlimit:10;" d="M 61.121094 54.730469 L 61.121094 54.730469 "/>
<path style="fill:none;stroke-width:2;stroke-linecap:butt;stroke-linejoin:miter;stroke:rgb(100%,80%,0%);stroke-opacity:1;stroke-miterlimit:10;" d="M 73.898438 54.730469 L 73.898438 54.730469 "/>
<path style="fill:none;stroke-width:2;stroke-linecap:butt;stroke-linejoin:miter;stroke:rgb(100%,80%,0%);stroke-opacity:1;stroke-miterlimit:10;" d="M 61.121094 54.730469 L 61.121094 54.730469 "/>
<path style="fill:none;stroke-width:2;stroke-linecap:butt;stroke-linejoin:miter;stroke:rgb(100%,80%,0%);stroke-opacity:1;stroke-miterlimit:10;" d="M 73.898438 54.730469 L 73.898438 54.730469 "/>
<path style="fill:none;stroke-width:2;stroke-linecap:butt;stroke-linejoin:miter;stroke:rgb(100%,80%,0%);stroke-opacity:1;stroke-miterlimit:10;" d="M 61.121094 54.730469 L 61.121094 54.730469 "/>
<path style="fill:none;stroke-width:2;stroke-linecap:butt;stroke-linejoin:miter;stroke:rgb(100%,80%,0%);stroke-opacity:1;stroke-miterlimit:10;" d="M 105.851562 22.78125 L 105.851562 22.78125 "/>
<path style="fill:none;stroke-width:2;stroke-linecap:butt;stroke-linejoin:miter;stroke:rgb(100%,80%,0%);stroke-opacity:1;stroke-miterlimit:10;" d="M 29.171875 22.78125 L 29.171875 22.78125 "/>
<path style="fill:none;stroke-width:2;stroke-linecap:butt;stroke-linejoin:miter;stroke:rgb(100%,80%,0%);stroke-opacity:1;stroke-miterlimit:10;" d="M 99.460938 41.949219 L 99.460938 41.949219 "/>
<path style="fill:none;stroke-width:2;stroke-linecap:butt;stroke-linejoin:miter;stroke:rgb(100%,80%,0%);stroke-opacity:1;stroke-miterlimit:10;" d="M 35.558594 41.949219 L 35.558594 41.949219 "/>
<path style="fill:none;stroke-width:2;stroke-linecap:butt;stroke-linejoin:miter;stroke:rgb(100%,80%,0%);stroke-opacity:1;stroke-miterlimit:10;" d="M 10 29.171875 L 10 29.171875 "/>
<path style="fill:none;stroke-width:2;stroke-linecap:butt;stroke-linejoin:miter;stroke:rgb(100%,80%,0%);stroke-opacity:1;stroke-miterlimit:10;" d="M 118.628906 48.339844 L 118.628906 48.339844 "/>
<path style="fill:none;stroke-width:2;stroke-linecap:butt;stroke-linejoin:miter;stroke:rgb(100%,80%,0%);stroke-opacity:1;stroke-miterlimit:10;" d="M 16.390625 48.339844 L 16.390625 48.339844 "/>
<path style="fill:none;stroke-width:2;stroke-linecap:butt;stroke-linejoin:miter;stroke:rgb(100%,80%,0%);stroke-opacity:1;stroke-miterlimit:10;" d="M 105.851562 22.78125 L 105.851562 22.78125 "/>
<path style="fill:none;stroke-width:2;stroke-linecap:butt;stroke-linejoin:miter;stroke:rgb(100%,80%,0%);stroke-opacity:1;stroke-miterlimit:10;" d="M 29.171875 22.78125 L 29.171875 22.78125 "/>
<path style="fill:none;stroke-width:2;stroke-linecap:butt;stroke-linejoin:miter;stroke:rgb(100%,80%,0%);stroke-opacity:1;stroke-miterlimit:10;" d="M 99.460938 41.949219 L 99.460938 41.949219 "/>
<path style="fill:none;stroke-width:2;stroke-linecap:butt;stroke-linejoin:miter;stroke:rgb(100%,80%,0%);stroke-opacity:1;stroke-miterlimit:10;" d="M 35.558594 41.949219 L 35.558594 41.949219 "/>
<path style="fill:none;stroke-width:2;stroke-linecap:butt;stroke-linejoin:miter;stroke:rgb(100%,80%,0%);stroke-opacity:1;stroke-miterlimit:10;" d="M 10 29.171875 L 10 29.171875 "/>
<path style="fill:none;stroke-width:2;stroke-linecap:butt;stroke-linejoin:miter;stroke:rgb(100%,80%,0%);stroke-opacity:1;stroke-miterlimit:10;" d="M 118.628906 48.339844 L 118.628906 48.339844 "/>
<path style="fill:none;stroke-width:2;stroke-linecap:butt;stroke-linejoin:miter;stroke:rgb(100%,80%,0%);stroke-opacity:1;stroke-miterlimit:10;" d="M 16.390625 48.339844 L 16.390625 48.339844 "/>
<path style="fill:none;stroke-width:2;stroke-linecap:butt;stroke-linejoin:miter;stroke:rgb(100%,80%,0%);stroke-opacity:1;stroke-miterlimit:10;" d="M 105.851562 22.78125 L 105.851562 22.78125 "/>
<path style="fill:none;stroke-width:2;stroke-linecap:butt;stroke-linejoin:miter;stroke:rgb(100%,80%,0%);stroke-opacity:1;stroke-miterlimit:10;" d="M 29.171875 22.78125 L 29.171875 22.78125 "/>
<path style="fill:none;stroke-width:2;stroke-linecap:butt;stroke-linejoin:miter;stroke:rgb(100%,80%,0%);stroke-opacity:1;stroke-miterlimit:10;" d="M 99.460938 41.949219 L 99.460938 41.949219 "/>
<path style="fill:none;stroke-width:2;stroke-linecap:butt;stroke-linejoin:miter;stroke:rgb(100%,80%,0%);stroke-opacity:1;stroke-miterlimit:10;" d="M 35.558594 41.949219 L 35.558594 41.949219 "/>
<path style="fill:none;stroke-width:2;stroke-linecap:butt;stroke-linejoin:miter;stroke:rgb(100%,80%,0%);stroke-opacity:1;stroke-miterlimit:10;" d="M 10 29.171875 L 10 29.171875 "/>
<path style="fill:none;stroke-width:2;stroke-linecap:butt;stroke-linejoin:miter;stroke:rgb(100%,80%,0%);stroke-opacity:1;stroke-miterlimit:10;" d="M 118.628906 48.339844 L 118.628906 48.339844 "/>
<path style="fill:none;stroke-width:2;stroke-linecap:butt;stroke-linejoin:miter;stroke:rgb(100%,80%,0%);stroke-opacity:1;stroke-miterlimit:10;" d="M 16.390625 48.339844 L 16.390625 48.339844 "/>
<path style="fill:none;stroke-width:2;stroke-linecap:butt;stroke-linejoin:miter;stroke:rgb(100%,80%,0%);stroke-opacity:1;stroke-miterlimit:10;" d="M 105.851562 22.78125 L 105.851562 22.78125 "/>
<path style="fill:none;stroke-width:2;stroke-linecap:butt;stroke-linejoin:miter;stroke:rgb(100%,80%,0%);stroke-opacity:1;stroke-miterlimit:10;" d="M 29.171875 22.78125 L 29.171875 22.78125 "/>
<path style="fill:none;stroke-width:2;stroke-linecap:butt;stroke-linejoin:miter;stroke:rgb(100%,80%,0%);stroke-opacity:1;stroke-miterlimit:10;" d="M 99.460938 41.949219 L 99.460938 41.949219 "/>
<path style="fill:none;stroke-width:2;stroke-linecap:butt;stroke-linejoin:miter;stroke:rgb(100%,80%,0%);stroke-opacity:1;stroke-miterlimit:10;" d="M 35.558594 41.949219 L 35.558594 41.949219 "/>
<path style="fill:none;stroke-width:2;stroke-linecap:butt;stroke-linejoin:miter;stroke:rgb(100%,80%,0%);stroke-opacity:1;stroke-miterlimit:10;" d="M 10 29.171875 L 10 29.171875 "/>
<path style="fill:none;stroke-width:2;stroke-linecap:butt;stroke-linejoin:miter;stroke:rgb(100%,80%,0%);stroke-opacity:1;stroke-miterlimit:10;" d="M 118.628906 48.339844 L 118.628906 48.339844 "/>
<path style="fill:none;stroke-width:2;stroke-linecap:butt;stroke-linejoin:miter;stroke:rgb(100%,80%,0%);stroke-opacity:1;stroke-miterlimit:10;" d="M 16.390625 48.339844 L 16.390625 48.339844 "/>
<path style="fill:none;stroke-width:2;stroke-linecap:butt;stroke-linejoin:miter;stroke:rgb(100%,80%,0%);stroke-opacity:1;stroke-miterlimit:10;" d="M 93.070312 61.121094 L 93.070312 61.121094 "/>
<path style="fill:none;stroke-width:2;stroke-linecap:butt;stroke-linejoin:miter;stroke:rgb(100%,80%,0%);stroke-opacity:1;stroke-miterlimit:10;" d="M 41.949219 61.121094 L 41.949219 61.121094 "/>
<path style="fill:none;stroke-width:2;stroke-linecap:butt;stroke-linejoin:miter;stroke:rgb(100%,80%,0%);stroke-opacity:1;stroke-miterlimit:10;" d="M 112.238281 67.511719 L 112.238281 67.511719 "/>
<path style="fill:none;stroke-width:2;stroke-linecap:butt;stroke-linejoin:miter;stroke:rgb(100%,80%,0%);stroke-opacity:1;stroke-miterlimit:10;" d="M 22.78125 67.511719 L 22.78125 67.511719 "/>
<path style="fill:none;stroke-width:2;stroke-linecap:butt;stroke-linejoin:miter;stroke:rgb(100%,80%,0%);stroke-opacity:1;stroke-miterlimit:10;" d="M 93.070312 61.121094 L 93.070312 61.121094 "/>
<path style="fill:none;stroke-width:2;stroke-linecap:butt;stroke-linejoin:miter;stroke:rgb(100%,80%,0%);stroke-opacity:1;stroke-miterlimit:10;" d="M 41.949219 61.121094 L 41.949219 61.121094 "/>
<path style="fill:none;stroke-width:2;stroke-linecap:butt;stroke-linejoin:miter;stroke:rgb(100%,80%,0%);stroke-opacity:1;stroke-miterlimit:10;" d="M 112.238281 67.511719 L 112.238281 67.511719 "/>
<path style="fill:none;stroke-width:2;stroke-linecap:butt;stroke-linejoin:miter;stroke:rgb(100%,80%,0%);stroke-opacity:1;stroke-miterlimit:10;" d="M 22.78125 67.511719 L 22.78125 67.511719 "/>
<path style="fill:none;stroke-width:2;stroke-linecap:butt;stroke-linejoin:miter;stroke:rgb(100%,80%,0%);stroke-opacity:1;stroke-miterlimit:10;" d="M 93.070312 61.121094 L 93.070312 61.121094 "/>
<path style="fill:none;stroke-width:2;stroke-linecap:butt;stroke-linejoin:miter;stroke:rgb(100%,80%,0%);stroke-opacity:1;stroke-miterlimit:10;" d="M 41.949219 61.121094 L 41.949219 61.121094 "/>
<path style="fill:none;stroke-width:2;stroke-linecap:butt;stroke-linejoin:miter;stroke:rgb(100%,80%,0%);stroke-opacity:1;stroke-miterlimit:10;" d="M 112.238281 67.511719 L 112.238281 67.511719 "/>
<path style="fill:none;stroke-width:2;stroke-linecap:butt;stroke-linejoin:miter;stroke:rgb(100%,80%,0%);stroke-opacity:1;stroke-miterlimit:10;" d="M 22.78125 67.511719 L 22.78125 67.511719 "/>
<path style="fill:none;stroke-width:2;stroke-linecap:butt;stroke-linejoin:miter;stroke:rgb(100%,80%,0%);stroke-opacity:1;stroke-miterlimit:10;" d="M 93.070312 61.121094 L 93.070312 61.121094 "/>
<path style="fill:none;stroke-width:2;stroke-linecap:butt;stroke-linejoin:miter;stroke:rgb(100%,80%,0%);stroke-opacity:1;stroke-miterlimit:10;" d="M 41.949219 61.121094 L 41.949219 61.121094 "/>
<path style="fill:none;stroke-width:2;stroke-linecap:butt;stroke-linejoin:miter;stroke:rgb(100%,80%,0%);stroke-opacity:1;stroke-miterlimit:10;" d="M 112.238281 67.511719 L 112.238281 67.511719 "/>
<path style="fill:none;stroke-width:2;stroke-linecap:butt;stroke-linejoin:miter;stroke:rgb(100%,80%,0%);stroke-opacity:1;stroke-miterlimit:10;" d="M 22.78125 67.511719 L 22.78125 67.511719 "/>
<path style=" stroke:none;fill-rule:nonzero;fill:rgb(0%,0%,100%);fill-opacity:1;" d="M 88.679688 130.207031 C 88.679688 132.875 84.679688 132.875 84.679688 130.207031 C 84.679688 127.539062 88.679688 127.539062 88.679688 130.207031 "/>
<path style=" stroke:none;fill-rule:nonzero;fill:rgb(0%,0%,100%);fill-opacity:1;" d="M 50.339844 130.207031 C 50.339844 132.875 46.339844 132.875 46.339844 130.207031 C 46.339844 127.539062 50.339844 127.539062 50.339844 130.207031 "/>
<path style=" stroke:none;fill-rule:nonzero;fill:rgb(0%,0%,100%);fill-opacity:1;" d="M 82.289062 110 C 82.289062 112.667969 78.289062 112.667969 78.289062 110 C 78.289062 107.332031 82.289062 107.332031 82.289062 110 "/>
<path style=" stroke:none;fill-rule:nonzero;fill:rgb(0%,0%,100%);fill-opacity:1;" d="M 56.730469 110 C 56.730469 112.667969 52.730469 112.667969 52.730469 110 C 52.730469 107.332031 56.730469 107.332031 56.730469 110 "/>
<path style=" stroke:none;fill-rule:nonzero;fill:rgb(0%,0%,100%);fill-opacity:1;" d="M 69.511719 150.414062 C 69.511719 153.082031 65.511719 153.082031 65.511719 150.414062 C 65.511719 147.746094 69.511719 147.746094 69.511719 150.414062 "/>
<path style=" stroke:none;fill-rule:nonzero;fill:rgb(0%,0%,100%);fill-opacity:1;" d="M 88.679688 170.621094 C 88.679688 173.289062 84.679688 173.289062 84.679688 170.621094 C 84.679688 167.953125 88.679688 167.953125 88.679688 170.621094 "/>
<path style=" stroke:none;fill-rule:nonzero;fill:rgb(0%,0%,100%);fill-opacity:1;" d="M 50.339844 170.621094 C 50.339844 173.289062 46.339844 173.289062 46.339844 170.621094 C 46.339844 167.953125 50.339844 167.953125 50.339844 170.621094 "/>
<path style=" stroke:none;fill-rule:nonzero;fill:rgb(0%,0%,100%);fill-opacity:1;" d="M 82.289062 150.414062 C 82.289062 153.082031 78.289062 153.082031 78.289062 150.414062 C 78.289062 147.746094 82.289062 147.746094 82.289062 150.414062 "/>
<path style=" stroke:none;fill-rule:nonzero;fill:rgb(0%,0%,100%);fill-opacity:1;" d="M 56.730469 150.414062 C 56.730469 153.082031 52.730469 153.082031 52.730469 150.414062 C 52.730469 147.746094 56.730469 147.746094 56.730469 150.414062 "/>
<path style=" stroke:none;fill-rule:nonzero;fill:rgb(0%,0%,100%);fill-opacity:1;" d="M 69.511719 190.828125 C 69.511719 193.496094 65.511719 193.496094 65.511719 190.828125 C 65.511719 188.160156 69.511719 188.160156 69.511719 190.828125 "/>
<path style=" stroke:none;fill-rule:nonzero;fill:rgb(0%,0%,100%);fill-opacity:1;" d="M 82.289062 190.828125 C 82.289062 193.496094 78.289062 193.496094 78.289062 190.828125 C 78.289062 188.160156 82.289062 188.160156 82.289062 190.828125 "/>
<path style=" stroke:none;fill-rule:nonzero;fill:rgb(0%,0%,100%);fill-opacity:1;" d="M 56.730469 190.828125 C 56.730469 193.496094 52.730469 193.496094 52.730469 190.828125 C 52.730469 188.160156 56.730469 188.160156 56.730469 190.828125 "/>
<path style=" stroke:none;fill-rule:nonzero;fill:rgb(0%,0%,100%);fill-opacity:1;" d="M 75.898438 130.207031 C 75.898438 132.875 71.898438 132.875 71.898438 130.207031 C 71.898438 127.539062 75.898438 127.539062 75.898438 130.207031 "/>
<path style=" stroke:none;fill-rule:nonzero;fill:rgb(0%,0%,100%);fill-opacity:1;" d="M 63.121094 130.207031 C 63.121094 132.875 59.121094 132.875 59.121094 130.207031 C 59.121094 127.539062 63.121094 127.539062 63.121094 130.207031 "/>
<path style=" stroke:none;fill-rule:nonzero;fill:rgb(0%,0%,100%);fill-opacity:1;" d="M 75.898438 170.621094 C 75.898438 173.289062 71.898438 173.289062 71.898438 170.621094 C 71.898438 167.953125 75.898438 167.953125 75.898438 170.621094 "/>
<path style=" stroke:none;fill-rule:nonzero;fill:rgb(0%,0%,100%);fill-opacity:1;" d="M 63.121094 170.621094 C 63.121094 173.289062 59.121094 173.289062 59.121094 170.621094 C 59.121094 167.953125 63.121094 167.953125 63.121094 170.621094 "/>
<path style=" stroke:none;fill-rule:nonzero;fill:rgb(0%,0%,100%);fill-opacity:1;" d="M 107.851562 110 C 107.851562 112.667969 103.851562 112.667969 103.851562 110 C 103.851562 107.332031 107.851562 107.332031 107.851562 110 "/>
<path style=" stroke:none;fill-rule:nonzero;fill:rgb(0%,0%,100%);fill-opacity:1;" d="M 31.171875 110 C 31.171875 112.667969 27.171875 112.667969 27.171875 110 C 27.171875 107.332031 31.171875 107.332031 31.171875 110 "/>
<path style=" stroke:none;fill-rule:nonzero;fill:rgb(0%,0%,100%);fill-opacity:1;" d="M 101.460938 130.207031 C 101.460938 132.875 97.460938 132.875 97.460938 130.207031 C 97.460938 127.539062 101.460938 127.539062 101.460938 130.207031 "/>
<path style=" stroke:none;fill-rule:nonzero;fill:rgb(0%,0%,100%);fill-opacity:1;" d="M 37.558594 130.207031 C 37.558594 132.875 33.558594 132.875 33.558594 130.207031 C 33.558594 127.539062 37.558594 127.539062 37.558594 130.207031 "/>
<path style=" stroke:none;fill-rule:nonzero;fill:rgb(0%,0%,100%);fill-opacity:1;" d="M 12 130.207031 C 12 132.875 8 132.875 8 130.207031 C 8 127.539062 12 127.539062 12 130.207031 "/>
<path style=" stroke:none;fill-rule:nonzero;fill:rgb(0%,0%,100%);fill-opacity:1;" d="M 120.628906 110 C 120.628906 112.667969 116.628906 112.667969 116.628906 110 C 116.628906 107.332031 120.628906 107.332031 120.628906 110 "/>
<path style=" stroke:none;fill-rule:nonzero;fill:rgb(0%,0%,100%);fill-opacity:1;" d="M 18.390625 110 C 18.390625 112.667969 14.390625 112.667969 14.390625 110 C 14.390625 107.332031 18.390625 107.332031 18.390625 110 "/>
<path style=" stroke:none;fill-rule:nonzero;fill:rgb(0%,0%,100%);fill-opacity:1;" d="M 107.851562 150.414062 C 107.851562 153.082031 103.851562 153.082031 103.851562 150.414062 C 103.851562 147.746094 107.851562 147.746094 107.851562 150.414062 "/>
<path style=" stroke:none;fill-rule:nonzero;fill:rgb(0%,0%,100%);fill-opacity:1;" d="M 31.171875 150.414062 C 31.171875 153.082031 27.171875 153.082031 27.171875 150.414062 C 27.171875 147.746094 31.171875 147.746094 31.171875 150.414062 "/>
<path style=" stroke:none;fill-rule:nonzero;fill:rgb(0%,0%,100%);fill-opacity:1;" d="M 101.460938 170.621094 C 101.460938 173.289062 97.460938 173.289062 97.460938 170.621094 C 97.460938 167.953125 101.460938 167.953125 101.460938 170.621094 "/>
<path style=" stroke:none;fill-rule:nonzero;fill:rgb(0%,0%,100%);fill-opacity:1;" d="M 37.558594 170.621094 C 37.558594 173.289062 33.558594 173.289062 33.558594 170.621094 C 33.558594 167.953125 37.558594 167.953125 37.558594 170.621094 "/>
<path style=" stroke:none;fill-rule:nonzero;fill:rgb(0%,0%,100%);fill-opacity:1;" d="M 12 170.621094 C 12 173.289062 8 173.289062 8 170.621094 C 8 167.953125 12 167.953125 12 170.621094 "/>
<path style=" stroke:none;fill-rule:nonzero;fill:rgb(0%,0%,100%);fill-opacity:1;" d="M 120.628906 150.414062 C 120.628906 153.082031 116.628906 153.082031 116.628906 150.414062 C 116.628906 147.746094 120.628906 147.746094 120.628906 150.414062 "/>
<path style=" stroke:none;fill-rule:nonzero;fill:rgb(0%,0%,100%);fill-opacity:1;" d="M 18.390625 150.414062 C 18.390625 153.082031 14.390625 153.082031 14.390625 150.414062 C 14.390625 147.746094 18.390625 147.746094 18.390625 150.414062 "/>
<path style=" stroke:none;fill-rule:nonzero;fill:rgb(0%,0%,100%);fill-opacity:1;" d="M 107.851562 190.828125 C 107.851562 193.496094 103.851562 193.496094 103.851562 190.828125 C 103.851562 188.160156 107.851562 188.160156 107.851562 190.828125 "/>
<path style=" stroke:none;fill-rule:nonzero;fill:rgb(0%,0%,100%);fill-opacity:1;" d="M 31.171875 190.828125 C 31.171875 193.496094 27.171875 193.496094 27.171875 190.828125 C 27.171875 188.160156 31.171875 188.160156 31.171875 190.828125 "/>
<path style=" stroke:none;fill-rule:nonzero;fill:rgb(0%,0%,100%);fill-opacity:1;" d="M 120.628906 190.828125 C 120.628906 193.496094 116.628906 193.496094 116.628906 190.828125 C 116.628906 188.160156 120.628906 188.160156 120.628906 190.828125 "/>
<path style=" stroke:none;fill-rule:nonzero;fill:rgb(0%,0%,100%);fill-opacity:1;" d="M 18.390625 190.828125 C 18.390625 193.496094 14.390625 193.496094 14.390625 190.828125 C 14.390625 188.160156 18.390625 188.160156 18.390625 190.828125 "/>
<path style=" stroke:none;fill-rule:nonzero;fill:rgb(0%,0%,100%);fill-opacity:1;" d="M 95.070312 110 C 95.070312 112.667969 91.070312 112.667969 91.070312 110 C 91.070312 107.332031 95.070312 107.332031 95.070312 110 "/>
<path style=" stroke:none;fill-rule:nonzero;fill:rgb(0%,0%,100%);fill-opacity:1;" d="M 43.949219 110 C 43.949219 112.667969 39.949219 112.667969 39.949219 110 C 39.949219 107.332031 43.949219 107.332031 43.949219 110 "/>
<path style=" stroke:none;fill-rule:nonzero;fill:rgb(0%,0%,100%);fill-opacity:1;" d="M 114.238281 130.207031 C 114.238281 132.875 110.238281 132.875 110.238281 130.207031 C 110.238281 127.539062 114.238281 127.539062 114.238281 130.207031 "/>
<path style=" stroke:none;fill-rule:nonzero;fill:rgb(0%,0%,100%);fill-opacity:1;" d="M 24.78125 130.207031 C 24.78125 132.875 20.78125 132.875 20.78125 130.207031 C 20.78125 127.539062 24.78125 127.539062 24.78125 130.207031 "/>
<path style=" stroke:none;fill-rule:nonzero;fill:rgb(0%,0%,100%);fill-opacity:1;" d="M 95.070312 150.414062 C 95.070312 153.082031 91.070312 153.082031 91.070312 150.414062 C 91.070312 147.746094 95.070312 147.746094 95.070312 150.414062 "/>
<path style=" stroke:none;fill-rule:nonzero;fill:rgb(0%,0%,100%);fill-opacity:1;" d="M 43.949219 150.414062 C 43.949219 153.082031 39.949219 153.082031 39.949219 150.414062 C 39.949219 147.746094 43.949219 147.746094 43.949219 150.414062 "/>
<path style=" stroke:none;fill-rule:nonzero;fill:rgb(0%,0%,100%);fill-opacity:1;" d="M 114.238281 170.621094 C 114.238281 173.289062 110.238281 173.289062 110.238281 170.621094 C 110.238281 167.953125 114.238281 167.953125 114.238281 170.621094 "/>
<path style=" stroke:none;fill-rule:nonzero;fill:rgb(0%,0%,100%);fill-opacity:1;" d="M 24.78125 170.621094 C 24.78125 173.289062 20.78125 173.289062 20.78125 170.621094 C 20.78125 167.953125 24.78125 167.953125 24.78125 170.621094 "/>
<path style=" stroke:none;fill-rule:nonzero;fill:rgb(0%,0%,100%);fill-opacity:1;" d="M 95.070312 190.828125 C 95.070312 193.496094 91.070312 193.496094 91.070312 190.828125 C 91.070312 188.160156 95.070312 188.160156 95.070312 190.828125 "/>
<path style=" stroke:none;fill-rule:nonzero;fill:rgb(0%,0%,100%);fill-opacity:1;" d="M 43.949219 190.828125 C 43.949219 193.496094 39.949219 193.496094 39.949219 190.828125 C 39.949219 188.160156 43.949219 188.160156 43.949219 190.828125 "/>
<path style="fill:none;stroke-width:2;stroke-linecap:butt;stroke-linejoin:miter;stroke:rgb(100%,80%,0%);stroke-opacity:1;stroke-miterlimit:10;" d="M 86.679688 130.207031 L 86.679688 130.207031 "/>
<path style="fill:none;stroke-width:2;stroke-linecap:butt;stroke-linejoin:miter;stroke:rgb(100%,80%,0%);stroke-opacity:1;stroke-miterlimit:10;" d="M 48.339844 130.207031 L 48.339844 130.207031 "/>
<path style="fill:none;stroke-width:2;stroke-linecap:butt;stroke-linejoin:miter;stroke:rgb(100%,80%,0%);stroke-opacity:1;stroke-miterlimit:10;" d="M 80.289062 110 L 80.289062 110 "/>
<path style="fill:none;stroke-width:2;stroke-linecap:butt;stroke-linejoin:miter;stroke:rgb(100%,80%,0%);stroke-opacity:1;stroke-miterlimit:10;" d="M 54.730469 110 L 54.730469 110 "/>
<path style="fill:none;stroke-width:2;stroke-linecap:butt;stroke-linejoin:miter;stroke:rgb(100%,80%,0%);stroke-opacity:1;stroke-miterlimit:10;" d="M 67.511719 150.414062 L 67.511719 150.414062 "/>
<path style="fill:none;stroke-width:2;stroke-linecap:butt;stroke-linejoin:miter;stroke:rgb(100%,80%,0%);stroke-opacity:1;stroke-miterlimit:10;" d="M 86.679688 170.621094 L 86.679688 170.621094 "/>
<path style="fill:none;stroke-width:2;stroke-linecap:butt;stroke-linejoin:miter;stroke:rgb(100%,80%,0%);stroke-opacity:1;stroke-miterlimit:10;" d="M 48.339844 170.621094 L 48.339844 170.621094 "/>
<path style="fill:none;stroke-width:2;stroke-linecap:butt;stroke-linejoin:miter;stroke:rgb(100%,80%,0%);stroke-opacity:1;stroke-miterlimit:10;" d="M 80.289062 150.414062 L 80.289062 150.414062 "/>
<path style="fill:none;stroke-width:2;stroke-linecap:butt;stroke-linejoin:miter;stroke:rgb(100%,80%,0%);stroke-opacity:1;stroke-miterlimit:10;" d="M 54.730469 150.414062 L 54.730469 150.414062 "/>
<path style="fill:none;stroke-width:2;stroke-linecap:butt;stroke-linejoin:miter;stroke:rgb(100%,80%,0%);stroke-opacity:1;stroke-miterlimit:10;" d="M 67.511719 190.828125 L 67.511719 190.828125 "/>
<path style="fill:none;stroke-width:2;stroke-linecap:butt;stroke-linejoin:miter;stroke:rgb(100%,80%,0%);stroke-opacity:1;stroke-miterlimit:10;" d="M 80.289062 190.828125 L 80.289062 190.828125 "/>
<path style="fill:none;stroke-width:2;stroke-linecap:butt;stroke-linejoin:miter;stroke:rgb(100%,80%,0%);stroke-opacity:1;stroke-miterlimit:10;" d="M 54.730469 190.828125 L 54.730469 190.828125 "/>
<path style="fill:none;stroke-width:2;stroke-linecap:butt;stroke-linejoin:miter;stroke:rgb(100%,80%,0%);stroke-opacity:1;stroke-miterlimit:10;" d="M 73.898438 130.207031 L 73.898438 130.207031 "/>
<path style="fill:none;stroke-width:2;stroke-linecap:butt;stroke-linejoin:miter;stroke:rgb(100%,80%,0%);stroke-opacity:1;stroke-miterlimit:10;" d="M 61.121094 130.207031 L 61.121094 130.207031 "/>
<path style="fill:none;stroke-width:2;stroke-linecap:butt;stroke-linejoin:miter;stroke:rgb(100%,80%,0%);stroke-opacity:1;stroke-miterlimit:10;" d="M 73.898438 170.621094 L 73.898438 170.621094 "/>
<path style="fill:none;stroke-width:2;stroke-linecap:butt;stroke-linejoin:miter;stroke:rgb(100%,80%,0%);stroke-opacity:1;stroke-miterlimit:10;" d="M 61.121094 170.621094 L 61.121094 170.621094 "/>
<path style="fill:none;stroke-width:2;stroke-linecap:butt;stroke-linejoin:miter;stroke:rgb(100%,80%,0%);stroke-opacity:1;stroke-miterlimit:10;" d="M 105.851562 110 L 105.851562 110 "/>
<path style="fill:none;stroke-width:2;stroke-linecap:butt;stroke-linejoin:miter;stroke:rgb(100%,80%,0%);stroke-opacity:1;stroke-miterlimit:10;" d="M 29.171875 110 L 29.171875 110 "/>
<path style="fill:none;stroke-width:2;stroke-linecap:butt;stroke-linejoin:miter;stroke:rgb(100%,80%,0%);stroke-opacity:1;stroke-miterlimit:10;" d="M 99.460938 130.207031 L 99.460938 130.207031 "/>
<path style="fill:none;stroke-width:2;stroke-linecap:butt;stroke-linejoin:miter;stroke:rgb(100%,80%,0%);stroke-opacity:1;stroke-miterlimit:10;" d="M 35.558594 130.207031 L 35.558594 130.207031 "/>
<path style="fill:none;stroke-width:2;stroke-linecap:butt;stroke-linejoin:miter;stroke:rgb(100%,80%,0%);stroke-opacity:1;stroke-miterlimit:10;" d="M 10 130.207031 L 10 130.207031 "/>
<path style="fill:none;stroke-width:2;stroke-linecap:butt;stroke-linejoin:miter;stroke:rgb(100%,80%,0%);stroke-opacity:1;stroke-miterlimit:10;" d="M 118.628906 110 L 118.628906 110 "/>
<path style="fill:none;stroke-width:2;stroke-linecap:butt;stroke-linejoin:miter;stroke:rgb(100%,80%,0%);stroke-opacity:1;stroke-miterlimit:10;" d="M 16.390625 110 L 16.390625 110 "/>
<path style="fill:none;stroke-width:2;stroke-linecap:butt;stroke-linejoin:miter;stroke:rgb(100%,80%,0%);stroke-opacity:1;stroke-miterlimit:10;" d="M 105.851562 150.414062 L 105.851562 150.414062 "/>
<path style="fill:none;stroke-width:2;stroke-linecap:butt;stroke-linejoin:miter;stroke:rgb(100%,80%,0%);stroke-opacity:1;stroke-miterlimit:10;" d="M 29.171875 150.414062 L 29.171875 150.414062 "/>
<path style="fill:none;stroke-width:2;stroke-linecap:butt;stroke-linejoin:miter;stroke:rgb(100%,80%,0%);stroke-opacity:1;stroke-miterlimit:10;" d="M 99.460938 170.621094 L 99.460938 170.621094 "/>
<path style="fill:none;stroke-width:2;stroke-linecap:butt;stroke-linejoin:miter;stroke:rgb(100%,80%,0%);stroke-opacity:1;stroke-miterlimit:10;" d="M 35.558594 170.621094 L 35.558594 170.621094 "/>
<path style="fill:none;stroke-width:2;stroke-linecap:butt;stroke-linejoin:miter;stroke:rgb(100%,80%,0%);stroke-opacity:1;stroke-miterlimit:10;" d="M 10 170.621094 L 10 170.621094 "/>
<path style="fill:none;stroke-width:2;stroke-linecap:butt;stroke-linejoin:miter;stroke:rgb(100%,80%,0%);stroke-opacity:1;stroke-miterlimit:10;" d="M 118.628906 150.414062 L 118.628906 150.414062 "/>
<path style="fill:none;stroke-width:2;stroke-linecap:butt;stroke-linejoin:miter;stroke:rgb(100%,80%,0%);stroke-opacity:1;stroke-miterlimit:10;" d="M 16.390625 150.414062 L 16.390625 150.414062 "/>
<path style="fill:none;stroke-width:2;stroke-linecap:butt;stroke-linejoin:miter;stroke:rgb(100%,80%,0%);stroke-opacity:1;stroke-miterlimit:10;" d="M 105.851562 190.828125 L 105.851562 190.828125 "/>
<path style="fill:none;stroke-width:2;stroke-linecap:butt;stroke-linejoin:miter;stroke:rgb(100%,80%,0%);stroke-opacity:1;stroke-miterlimit:10;" d="M 29.171875 190.828125 L 29.171875 190.828125 "/>
<path style="fill:none;stroke-width:2;stroke-linecap:butt;stroke-linejoin:miter;stroke:rgb(100%,80%,0%);stroke-opacity:1;stroke-miterlimit:10;" d="M 118.628906 190.828125 L 118.628906 190.828125 "/>
<path style="fill:none;stroke-width:2;stroke-linecap:butt;stroke-linejoin:miter;stroke:rgb(100%,80%,0%);stroke-opacity:1;stroke-miterlimit:10;" d="M 16.390625 190.828125 L 16.390625 190.828125 "/>
<path style="fill:none;stroke-width:2;stroke-linecap:butt;stroke-linejoin:miter;stroke:rgb(100%,80%,0%);stroke-opacity:1;stroke-miterlimit:10;" d="M 93.070312 110 L 93.070312 110 "/>
<path style="fill:none;stroke-width:2;stroke-linecap:butt;stroke-linejoin:miter;stroke:rgb(100%,80%,0%);stroke-opacity:1;stroke-miterlimit:10;" d="M 41.949219 110 L 41.949219 110 "/>
<path style="fill:none;stroke-width:2;stroke-linecap:butt;stroke-linejoin:miter;stroke:rgb(100%,80%,0%);stroke-opacity:1;stroke-miterlimit:10;" d="M 112.238281 130.207031 L 112.238281 130.207031 "/>
<path style="fill:none;stroke-width:2;stroke-linecap:butt;stroke-linejoin:miter;stroke:rgb(100%,80%,0%);stroke-opacity:1;stroke-miterlimit:10;" d="M 22.78125 130.207031 L 22.78125 130.207031 "/>
<path style="fill:none;stroke-width:2;stroke-linecap:butt;stroke-linejoin:miter;stroke:rgb(100%,80%,0%);stroke-opacity:1;stroke-miterlimit:10;" d="M 93.070312 150.414062 L 93.070312 150.414062 "/>
<path style="fill:none;stroke-width:2;stroke-linecap:butt;stroke-linejoin:miter;stroke:rgb(100%,80%,0%);stroke-opacity:1;stroke-miterlimit:10;" d="M 41.949219 150.414062 L 41.949219 150.414062 "/>
<path style="fill:none;stroke-width:2;stroke-linecap:butt;stroke-linejoin:miter;stroke:rgb(100%,80%,0%);stroke-opacity:1;stroke-miterlimit:10;" d="M 112.238281 170.621094 L 112.238281 170.621094 "/>
<path style="fill:none;stroke-width:2;stroke-linecap:butt;stroke-linejoin:miter;stroke:rgb(100%,80%,0%);stroke-opacity:1;stroke-miterlimit:10;" d="M 22.78125 170.621094 L 22.78125 170.621094 "/>
<path style="fill:none;stroke-width:2;stroke-linecap:butt;stroke-linejoin:miter;stroke:rgb(100%,80%,0%);stroke-opacity:1;stroke-miterlimit:10;" d="M 93.070312 190.828125 L 93.070312 190.828125 "/>
<path style="fill:none;stroke-width:2;stroke-linecap:butt;stroke-linejoin:miter;stroke:rgb(100%,80%,0%);stroke-opacity:1;stroke-miterlimit:10;" d="M 41.949219 190.828125 L 41.949219 190.828125 "/>
<path style=" stroke:none;fill-rule:nonzero;fill:rgb(0%,0%,100%);fill-opacity:1;" d="M 168.390625 130.207031 C 168.390625 132.875 164.390625 132.875 164.390625 130.207031 C 164.390625 127.539062 168.390625 127.539062 168.390625 130.207031 "/>
<path style=" stroke:none;fill-rule:nonzero;fill:rgb(0%,0%,100%);fill-opacity:1;" d="M 168.390625 130.207031 C 168.390625 132.875 164.390625 132.875 164.390625 130.207031 C 164.390625 127.539062 168.390625 127.539062 168.390625 130.207031 "/>
<path style=" stroke:none;fill-rule:nonzero;fill:rgb(0%,0%,100%);fill-opacity:1;" d="M 187.558594 110 C 187.558594 112.667969 183.558594 112.667969 183.558594 110 C 183.558594 107.332031 187.558594 107.332031 187.558594 110 "/>
<path style=" stroke:none;fill-rule:nonzero;fill:rgb(0%,0%,100%);fill-opacity:1;" d="M 187.558594 110 C 187.558594 112.667969 183.558594 112.667969 183.558594 110 C 183.558594 107.332031 187.558594 107.332031 187.558594 110 "/>
<path style=" stroke:none;fill-rule:nonzero;fill:rgb(0%,0%,100%);fill-opacity:1;" d="M 162 150.414062 C 162 153.082031 158 153.082031 158 150.414062 C 158 147.746094 162 147.746094 162 150.414062 "/>
<path style=" stroke:none;fill-rule:nonzero;fill:rgb(0%,0%,100%);fill-opacity:1;" d="M 168.390625 170.621094 C 168.390625 173.289062 164.390625 173.289062 164.390625 170.621094 C 164.390625 167.953125 168.390625 167.953125 168.390625 170.621094 "/>
<path style=" stroke:none;fill-rule:nonzero;fill:rgb(0%,0%,100%);fill-opacity:1;" d="M 168.390625 170.621094 C 168.390625 173.289062 164.390625 173.289062 164.390625 170.621094 C 164.390625 167.953125 168.390625 167.953125 168.390625 170.621094 "/>
<path style=" stroke:none;fill-rule:nonzero;fill:rgb(0%,0%,100%);fill-opacity:1;" d="M 187.558594 150.414062 C 187.558594 153.082031 183.558594 153.082031 183.558594 150.414062 C 183.558594 147.746094 187.558594 147.746094 187.558594 150.414062 "/>
<path style=" stroke:none;fill-rule:nonzero;fill:rgb(0%,0%,100%);fill-opacity:1;" d="M 187.558594 150.414062 C 187.558594 153.082031 183.558594 153.082031 183.558594 150.414062 C 183.558594 147.746094 187.558594 147.746094 187.558594 150.414062 "/>
<path style=" stroke:none;fill-rule:nonzero;fill:rgb(0%,0%,100%);fill-opacity:1;" d="M 162 190.828125 C 162 193.496094 158 193.496094 158 190.828125 C 158 188.160156 162 188.160156 162 190.828125 "/>
<path style=" stroke:none;fill-rule:nonzero;fill:rgb(0%,0%,100%);fill-opacity:1;" d="M 187.558594 190.828125 C 187.558594 193.496094 183.558594 193.496094 183.558594 190.828125 C 183.558594 188.160156 187.558594 188.160156 187.558594 190.828125 "/>
<path style=" stroke:none;fill-rule:nonzero;fill:rgb(0%,0%,100%);fill-opacity:1;" d="M 187.558594 190.828125 C 187.558594 193.496094 183.558594 193.496094 183.558594 190.828125 C 183.558594 188.160156 187.558594 188.160156 187.558594 190.828125 "/>
<path style=" stroke:none;fill-rule:nonzero;fill:rgb(0%,0%,100%);fill-opacity:1;" d="M 206.730469 130.207031 C 206.730469 132.875 202.730469 132.875 202.730469 130.207031 C 202.730469 127.539062 206.730469 127.539062 206.730469 130.207031 "/>
<path style=" stroke:none;fill-rule:nonzero;fill:rgb(0%,0%,100%);fill-opacity:1;" d="M 206.730469 130.207031 C 206.730469 132.875 202.730469 132.875 202.730469 130.207031 C 202.730469 127.539062 206.730469 127.539062 206.730469 130.207031 "/>
<path style=" stroke:none;fill-rule:nonzero;fill:rgb(0%,0%,100%);fill-opacity:1;" d="M 206.730469 170.621094 C 206.730469 173.289062 202.730469 173.289062 202.730469 170.621094 C 202.730469 167.953125 206.730469 167.953125 206.730469 170.621094 "/>
<path style=" stroke:none;fill-rule:nonzero;fill:rgb(0%,0%,100%);fill-opacity:1;" d="M 206.730469 170.621094 C 206.730469 173.289062 202.730469 173.289062 202.730469 170.621094 C 202.730469 167.953125 206.730469 167.953125 206.730469 170.621094 "/>
<path style=" stroke:none;fill-rule:nonzero;fill:rgb(0%,0%,100%);fill-opacity:1;" d="M 174.78125 110 C 174.78125 112.667969 170.78125 112.667969 170.78125 110 C 170.78125 107.332031 174.78125 107.332031 174.78125 110 "/>
<path style=" stroke:none;fill-rule:nonzero;fill:rgb(0%,0%,100%);fill-opacity:1;" d="M 174.78125 110 C 174.78125 112.667969 170.78125 112.667969 170.78125 110 C 170.78125 107.332031 174.78125 107.332031 174.78125 110 "/>
<path style=" stroke:none;fill-rule:nonzero;fill:rgb(0%,0%,100%);fill-opacity:1;" d="M 193.949219 130.207031 C 193.949219 132.875 189.949219 132.875 189.949219 130.207031 C 189.949219 127.539062 193.949219 127.539062 193.949219 130.207031 "/>
<path style=" stroke:none;fill-rule:nonzero;fill:rgb(0%,0%,100%);fill-opacity:1;" d="M 193.949219 130.207031 C 193.949219 132.875 189.949219 132.875 189.949219 130.207031 C 189.949219 127.539062 193.949219 127.539062 193.949219 130.207031 "/>
<path style=" stroke:none;fill-rule:nonzero;fill:rgb(0%,0%,100%);fill-opacity:1;" d="M 181.171875 130.207031 C 181.171875 132.875 177.171875 132.875 177.171875 130.207031 C 177.171875 127.539062 181.171875 127.539062 181.171875 130.207031 "/>
<path style=" stroke:none;fill-rule:nonzero;fill:rgb(0%,0%,100%);fill-opacity:1;" d="M 200.339844 110 C 200.339844 112.667969 196.339844 112.667969 196.339844 110 C 196.339844 107.332031 200.339844 107.332031 200.339844 110 "/>
<path style=" stroke:none;fill-rule:nonzero;fill:rgb(0%,0%,100%);fill-opacity:1;" d="M 200.339844 110 C 200.339844 112.667969 196.339844 112.667969 196.339844 110 C 196.339844 107.332031 200.339844 107.332031 200.339844 110 "/>
<path style=" stroke:none;fill-rule:nonzero;fill:rgb(0%,0%,100%);fill-opacity:1;" d="M 174.78125 150.414062 C 174.78125 153.082031 170.78125 153.082031 170.78125 150.414062 C 170.78125 147.746094 174.78125 147.746094 174.78125 150.414062 "/>
<path style=" stroke:none;fill-rule:nonzero;fill:rgb(0%,0%,100%);fill-opacity:1;" d="M 174.78125 150.414062 C 174.78125 153.082031 170.78125 153.082031 170.78125 150.414062 C 170.78125 147.746094 174.78125 147.746094 174.78125 150.414062 "/>
<path style=" stroke:none;fill-rule:nonzero;fill:rgb(0%,0%,100%);fill-opacity:1;" d="M 193.949219 170.621094 C 193.949219 173.289062 189.949219 173.289062 189.949219 170.621094 C 189.949219 167.953125 193.949219 167.953125 193.949219 170.621094 "/>
<path style=" stroke:none;fill-rule:nonzero;fill:rgb(0%,0%,100%);fill-opacity:1;" d="M 193.949219 170.621094 C 193.949219 173.289062 189.949219 173.289062 189.949219 170.621094 C 189.949219 167.953125 193.949219 167.953125 193.949219 170.621094 "/>
<path style=" stroke:none;fill-rule:nonzero;fill:rgb(0%,0%,100%);fill-opacity:1;" d="M 181.171875 170.621094 C 181.171875 173.289062 177.171875 173.289062 177.171875 170.621094 C 177.171875 167.953125 181.171875 167.953125 181.171875 170.621094 "/>
<path style=" stroke:none;fill-rule:nonzero;fill:rgb(0%,0%,100%);fill-opacity:1;" d="M 200.339844 150.414062 C 200.339844 153.082031 196.339844 153.082031 196.339844 150.414062 C 196.339844 147.746094 200.339844 147.746094 200.339844 150.414062 "/>
<path style=" stroke:none;fill-rule:nonzero;fill:rgb(0%,0%,100%);fill-opacity:1;" d="M 200.339844 150.414062 C 200.339844 153.082031 196.339844 153.082031 196.339844 150.414062 C 196.339844 147.746094 200.339844 147.746094 200.339844 150.414062 "/>
<path style=" stroke:none;fill-rule:nonzero;fill:rgb(0%,0%,100%);fill-opacity:1;" d="M 174.78125 190.828125 C 174.78125 193.496094 170.78125 193.496094 170.78125 190.828125 C 170.78125 188.160156 174.78125 188.160156 174.78125 190.828125 "/>
<path style=" stroke:none;fill-rule:nonzero;fill:rgb(0%,0%,100%);fill-opacity:1;" d="M 174.78125 190.828125 C 174.78125 193.496094 170.78125 193.496094 170.78125 190.828125 C 170.78125 188.160156 174.78125 188.160156 174.78125 190.828125 "/>
<path style=" stroke:none;fill-rule:nonzero;fill:rgb(0%,0%,100%);fill-opacity:1;" d="M 200.339844 190.828125 C 200.339844 193.496094 196.339844 193.496094 196.339844 190.828125 C 196.339844 188.160156 200.339844 188.160156 200.339844 190.828125 "/>
<path style=" stroke:none;fill-rule:nonzero;fill:rgb(0%,0%,100%);fill-opacity:1;" d="M 200.339844 190.828125 C 200.339844 193.496094 196.339844 193.496094 196.339844 190.828125 C 196.339844 188.160156 200.339844 188.160156 200.339844 190.828125 "/>
<path style=" stroke:none;fill-rule:nonzero;fill:rgb(0%,0%,100%);fill-opacity:1;" d="M 213.121094 110 C 213.121094 112.667969 209.121094 112.667969 209.121094 110 C 209.121094 107.332031 213.121094 107.332031 213.121094 110 "/>
<path style=" stroke:none;fill-rule:nonzero;fill:rgb(0%,0%,100%);fill-opacity:1;" d="M 213.121094 110 C 213.121094 112.667969 209.121094 112.667969 209.121094 110 C 209.121094 107.332031 213.121094 107.332031 213.121094 110 "/>
<path style=" stroke:none;fill-rule:nonzero;fill:rgb(0%,0%,100%);fill-opacity:1;" d="M 219.511719 130.207031 C 219.511719 132.875 215.511719 132.875 215.511719 130.207031 C 215.511719 127.539062 219.511719 127.539062 219.511719 130.207031 "/>
<path style=" stroke:none;fill-rule:nonzero;fill:rgb(0%,0%,100%);fill-opacity:1;" d="M 219.511719 130.207031 C 219.511719 132.875 215.511719 132.875 215.511719 130.207031 C 215.511719 127.539062 219.511719 127.539062 219.511719 130.207031 "/>
<path style=" stroke:none;fill-rule:nonzero;fill:rgb(0%,0%,100%);fill-opacity:1;" d="M 213.121094 150.414062 C 213.121094 153.082031 209.121094 153.082031 209.121094 150.414062 C 209.121094 147.746094 213.121094 147.746094 213.121094 150.414062 "/>
<path style=" stroke:none;fill-rule:nonzero;fill:rgb(0%,0%,100%);fill-opacity:1;" d="M 213.121094 150.414062 C 213.121094 153.082031 209.121094 153.082031 209.121094 150.414062 C 209.121094 147.746094 213.121094 147.746094 213.121094 150.414062 "/>
<path style=" stroke:none;fill-rule:nonzero;fill:rgb(0%,0%,100%);fill-opacity:1;" d="M 219.511719 170.621094 C 219.511719 173.289062 215.511719 173.289062 215.511719 170.621094 C 215.511719 167.953125 219.511719 167.953125 219.511719 170.621094 "/>
<path style=" stroke:none;fill-rule:nonzero;fill:rgb(0%,0%,100%);fill-opacity:1;" d="M 219.511719 170.621094 C 219.511719 173.289062 215.511719 173.289062 215.511719 170.621094 C 215.511719 167.953125 219.511719 167.953125 219.511719 170.621094 "/>
<path style=" stroke:none;fill-rule:nonzero;fill:rgb(0%,0%,100%);fill-opacity:1;" d="M 213.121094 190.828125 C 213.121094 193.496094 209.121094 193.496094 209.121094 190.828125 C 209.121094 188.160156 213.121094 188.160156 213.121094 190.828125 "/>
<path style=" stroke:none;fill-rule:nonzero;fill:rgb(0%,0%,100%);fill-opacity:1;" d="M 213.121094 190.828125 C 213.121094 193.496094 209.121094 193.496094 209.121094 190.828125 C 209.121094 188.160156 213.121094 188.160156 213.121094 190.828125 "/>
<path style="fill:none;stroke-width:2;stroke-linecap:butt;stroke-linejoin:miter;stroke:rgb(100%,80%,0%);stroke-opacity:1;stroke-miterlimit:10;" d="M 166.390625 130.207031 L 166.390625 130.207031 "/>
<path style="fill:none;stroke-width:2;stroke-linecap:butt;stroke-linejoin:miter;stroke:rgb(100%,80%,0%);stroke-opacity:1;stroke-miterlimit:10;" d="M 166.390625 130.207031 L 166.390625 130.207031 "/>
<path style="fill:none;stroke-width:2;stroke-linecap:butt;stroke-linejoin:miter;stroke:rgb(100%,80%,0%);stroke-opacity:1;stroke-miterlimit:10;" d="M 185.558594 110 L 185.558594 110 "/>
<path style="fill:none;stroke-width:2;stroke-linecap:butt;stroke-linejoin:miter;stroke:rgb(100%,80%,0%);stroke-opacity:1;stroke-miterlimit:10;" d="M 185.558594 110 L 185.558594 110 "/>
<path style="fill:none;stroke-width:2;stroke-linecap:butt;stroke-linejoin:miter;stroke:rgb(100%,80%,0%);stroke-opacity:1;stroke-miterlimit:10;" d="M 160 150.414062 L 160 150.414062 "/>
<path style="fill:none;stroke-width:2;stroke-linecap:butt;stroke-linejoin:miter;stroke:rgb(100%,80%,0%);stroke-opacity:1;stroke-miterlimit:10;" d="M 166.390625 170.621094 L 166.390625 170.621094 "/>
<path style="fill:none;stroke-width:2;stroke-linecap:butt;stroke-linejoin:miter;stroke:rgb(100%,80%,0%);stroke-opacity:1;stroke-miterlimit:10;" d="M 166.390625 170.621094 L 166.390625 170.621094 "/>
<path style="fill:none;stroke-width:2;stroke-linecap:butt;stroke-linejoin:miter;stroke:rgb(100%,80%,0%);stroke-opacity:1;stroke-miterlimit:10;" d="M 185.558594 150.414062 L 185.558594 150.414062 "/>
<path style="fill:none;stroke-width:2;stroke-linecap:butt;stroke-linejoin:miter;stroke:rgb(100%,80%,0%);stroke-opacity:1;stroke-miterlimit:10;" d="M 185.558594 150.414062 L 185.558594 150.414062 "/>
<path style="fill:none;stroke-width:2;stroke-linecap:butt;stroke-linejoin:miter;stroke:rgb(100%,80%,0%);stroke-opacity:1;stroke-miterlimit:10;" d="M 160 190.828125 L 160 190.828125 "/>
<path style="fill:none;stroke-width:2;stroke-linecap:butt;stroke-linejoin:miter;stroke:rgb(100%,80%,0%);stroke-opacity:1;stroke-miterlimit:10;" d="M 185.558594 190.828125 L 185.558594 190.828125 "/>
<path style="fill:none;stroke-width:2;stroke-linecap:butt;stroke-linejoin:miter;stroke:rgb(100%,80%,0%);stroke-opacity:1;stroke-miterlimit:10;" d="M 185.558594 190.828125 L 185.558594 190.828125 "/>
<path style="fill:none;stroke-width:2;stroke-linecap:butt;stroke-linejoin:miter;stroke:rgb(100%,80%,0%);stroke-opacity:1;stroke-miterlimit:10;" d="M 204.730469 130.207031 L 204.730469 130.207031 "/>
<path style="fill:none;stroke-width:2;stroke-linecap:butt;stroke-linejoin:miter;stroke:rgb(100%,80%,0%);stroke-opacity:1;stroke-miterlimit:10;" d="M 204.730469 130.207031 L 204.730469 130.207031 "/>
<path style="fill:none;stroke-width:2;stroke-linecap:butt;stroke-linejoin:miter;stroke:rgb(100%,80%,0%);stroke-opacity:1;stroke-miterlimit:10;" d="M 204.730469 170.621094 L 204.730469 170.621094 "/>
<path style="fill:none;stroke-width:2;stroke-linecap:butt;stroke-linejoin:miter;stroke:rgb(100%,80%,0%);stroke-opacity:1;stroke-miterlimit:10;" d="M 204.730469 170.621094 L 204.730469 170.621094 "/>
<path style="fill:none;stroke-width:2;stroke-linecap:butt;stroke-linejoin:miter;stroke:rgb(100%,80%,0%);stroke-opacity:1;stroke-miterlimit:10;" d="M 172.78125 110 L 172.78125 110 "/>
<path style="fill:none;stroke-width:2;stroke-linecap:butt;stroke-linejoin:miter;stroke:rgb(100%,80%,0%);stroke-opacity:1;stroke-miterlimit:10;" d="M 172.78125 110 L 172.78125 110 "/>
<path style="fill:none;stroke-width:2;stroke-linecap:butt;stroke-linejoin:miter;stroke:rgb(100%,80%,0%);stroke-opacity:1;stroke-miterlimit:10;" d="M 191.949219 130.207031 L 191.949219 130.207031 "/>
<path style="fill:none;stroke-width:2;stroke-linecap:butt;stroke-linejoin:miter;stroke:rgb(100%,80%,0%);stroke-opacity:1;stroke-miterlimit:10;" d="M 191.949219 130.207031 L 191.949219 130.207031 "/>
<path style="fill:none;stroke-width:2;stroke-linecap:butt;stroke-linejoin:miter;stroke:rgb(100%,80%,0%);stroke-opacity:1;stroke-miterlimit:10;" d="M 179.171875 130.207031 L 179.171875 130.207031 "/>
<path style="fill:none;stroke-width:2;stroke-linecap:butt;stroke-linejoin:miter;stroke:rgb(100%,80%,0%);stroke-opacity:1;stroke-miterlimit:10;" d="M 198.339844 110 L 198.339844 110 "/>
<path style="fill:none;stroke-width:2;stroke-linecap:butt;stroke-linejoin:miter;stroke:rgb(100%,80%,0%);stroke-opacity:1;stroke-miterlimit:10;" d="M 198.339844 110 L 198.339844 110 "/>
<path style="fill:none;stroke-width:2;stroke-linecap:butt;stroke-linejoin:miter;stroke:rgb(100%,80%,0%);stroke-opacity:1;stroke-miterlimit:10;" d="M 172.78125 150.414062 L 172.78125 150.414062 "/>
<path style="fill:none;stroke-width:2;stroke-linecap:butt;stroke-linejoin:miter;stroke:rgb(100%,80%,0%);stroke-opacity:1;stroke-miterlimit:10;" d="M 172.78125 150.414062 L 172.78125 150.414062 "/>
<path style="fill:none;stroke-width:2;stroke-linecap:butt;stroke-linejoin:miter;stroke:rgb(100%,80%,0%);stroke-opacity:1;stroke-miterlimit:10;" d="M 191.949219 170.621094 L 191.949219 170.621094 "/>
<path style="fill:none;stroke-width:2;stroke-linecap:butt;stroke-linejoin:miter;stroke:rgb(100%,80%,0%);stroke-opacity:1;stroke-miterlimit:10;" d="M 191.949219 170.621094 L 191.949219 170.621094 "/>
<path style="fill:none;stroke-width:2;stroke-linecap:butt;stroke-linejoin:miter;stroke:rgb(100%,80%,0%);stroke-opacity:1;stroke-miterlimit:10;" d="M 179.171875 170.621094 L 179.171875 170.621094 "/>
<path style="fill:none;stroke-width:2;stroke-linecap:butt;stroke-linejoin:miter;stroke:rgb(100%,80%,0%);stroke-opacity:1;stroke-miterlimit:10;" d="M 198.339844 150.414062 L 198.339844 150.414062 "/>
<path style="fill:none;stroke-width:2;stroke-linecap:butt;stroke-linejoin:miter;stroke:rgb(100%,80%,0%);stroke-opacity:1;stroke-miterlimit:10;" d="M 198.339844 150.414062 L 198.339844 150.414062 "/>
<path style="fill:none;stroke-width:2;stroke-linecap:butt;stroke-linejoin:miter;stroke:rgb(100%,80%,0%);stroke-opacity:1;stroke-miterlimit:10;" d="M 172.78125 190.828125 L 172.78125 190.828125 "/>
<path style="fill:none;stroke-width:2;stroke-linecap:butt;stroke-linejoin:miter;stroke:rgb(100%,80%,0%);stroke-opacity:1;stroke-miterlimit:10;" d="M 172.78125 190.828125 L 172.78125 190.828125 "/>
<path style="fill:none;stroke-width:2;stroke-linecap:butt;stroke-linejoin:miter;stroke:rgb(100%,80%,0%);stroke-opacity:1;stroke-miterlimit:10;" d="M 198.339844 190.828125 L 198.339844 190.828125 "/>
<path style="fill:none;stroke-width:2;stroke-linecap:butt;stroke-linejoin:miter;stroke:rgb(100%,80%,0%);stroke-opacity:1;stroke-miterlimit:10;" d="M 198.339844 190.828125 L 198.339844 190.828125 "/>
<path style="fill:none;stroke-width:2;stroke-linecap:butt;stroke-linejoin:miter;stroke:rgb(100%,80%,0%);stroke-opacity:1;stroke-miterlimit:10;" d="M 211.121094 110 L 211.121094 110 "/>
<path style="fill:none;stroke-width:2;stroke-linecap:butt;stroke-linejoin:miter;stroke:rgb(100%,80%,0%);stroke-opacity:1;stroke-miterlimit:10;" d="M 211.121094 110 L 211.121094 110 "/>
<path style="fill:none;stroke-width:2;stroke-linecap:butt;stroke-linejoin:miter;stroke:rgb(100%,80%,0%);stroke-opacity:1;stroke-miterlimit:10;" d="M 217.511719 130.207031 L 217.511719 130.207031 "/>
<path style="fill:none;stroke-width:2;stroke-linecap:butt;stroke-linejoin:miter;stroke:rgb(100%,80%,0%);stroke-opacity:1;stroke-miterlimit:10;" d="M 217.511719 130.207031 L 217.511719 130.207031 "/>
<path style="fill:none;stroke-width:2;stroke-linecap:butt;stroke-linejoin:miter;stroke:rgb(100%,80%,0%);stroke-opacity:1;stroke-miterlimit:10;" d="M 211.121094 150.414062 L 211.121094 150.414062 "/>
<path style="fill:none;stroke-width:2;stroke-linecap:butt;stroke-linejoin:miter;stroke:rgb(100%,80%,0%);stroke-opacity:1;stroke-miterlimit:10;" d="M 211.121094 150.414062 L 211.121094 150.414062 "/>
<path style="fill:none;stroke-width:2;stroke-linecap:butt;stroke-linejoin:miter;stroke:rgb(100%,80%,0%);stroke-opacity:1;stroke-miterlimit:10;" d="M 217.511719 170.621094 L 217.511719 170.621094 "/>
<path style="fill:none;stroke-width:2;stroke-linecap:butt;stroke-linejoin:miter;stroke:rgb(100%,80%,0%);stroke-opacity:1;stroke-miterlimit:10;" d="M 217.511719 170.621094 L 217.511719 170.621094 "/>
<path style="fill:none;stroke-width:2;stroke-linecap:butt;stroke-linejoin:miter;stroke:rgb(100%,80%,0%);stroke-opacity:1;stroke-miterlimit:10;" d="M 211.121094 190.828125 L 211.121094 190.828125 "/>
<path style="fill:none;stroke-width:2;stroke-linecap:butt;stroke-linejoin:miter;stroke:rgb(100%,80%,0%);stroke-opacity:1;stroke-miterlimit:10;" d="M 211.121094 190.828125 L 211.121094 190.828125 "/>
</g>
</svg>
