<?xml version="1.0" encoding="UTF-8"?>
<svg xmlns="http://www.w3.org/2000/svg" xmlns:xlink="http://www.w3.org/1999/xlink" width="700pt" height="500pt" viewBox="0 0 700 500" version="1.1">
<g id="surface1">
<path style=" stroke:none;fill-rule:nonzero;fill:rgb(50%,100%,50%);fill-opacity:1;" d="M 250.925781 333.332031 L 501.851562 333.332031 L 501.851562 564.023438 L 250.925781 564.023438 Z M 250.925781 333.332031 "/>
<path style="fill:none;stroke-width:2;stroke-linecap:butt;stroke-linejoin:miter;stroke:rgb(0%,0%,0%);stroke-opacity:1;stroke-miterlimit:10;" d="M 350 333.332031 L 350 633.332031 "/>
<path style="fill:none;stroke-width:2;stroke-linecap:butt;stroke-linejoin:miter;stroke:rgb(0%,0%,0%);stroke-opacity:1;stroke-miterlimit:10;" d="M 350 333.332031 L 650 333.332031 "/>
<path style=" stroke:none;fill-rule:nonzero;fill:rgb(100%,0%,0%);fill-opacity:1;" d="M 452.074219 333.332031 C 452.074219 337.332031 446.074219 337.332031 446.074219 333.332031 C 446.074219 329.332031 452.074219 329.332031 452.074219 333.332031 "/>
<path style=" stroke:none;fill-rule:nonzero;fill:rgb(100%,0%,0%);fill-opacity:1;" d="M 471.886719 337.296875 C 471.886719 341.296875 465.886719 341.296875 465.886719 337.296875 C 465.886719 333.296875 471.886719 333.296875 471.886719 337.296875 "/>
<path style=" stroke:none;fill-rule:nonzero;fill:rgb(100%,0%,0%);fill-opacity:1;" d="M 432.257812 337.296875 C 432.257812 341.296875 426.257812 341.296875 426.257812 337.296875 C 426.257812 333.296875 432.257812 333.296875 432.257812 337.296875 "/>
<path style=" stroke:none;fill-rule:nonzero;fill:rgb(100%,0%,0%);fill-opacity:1;" d="M 467.925781 357.109375 C 467.925781 361.109375 461.925781 361.109375 461.925781 357.109375 C 461.925781 353.109375 467.925781 353.109375 467.925781 357.109375 "/>
<path style=" stroke:none;fill-rule:nonzero;fill:rgb(100%,0%,0%);fill-opacity:1;" d="M 436.222656 357.109375 C 436.222656 361.109375 430.222656 361.109375 430.222656 357.109375 C 430.222656 353.109375 436.222656 353.109375 436.222656 357.109375 "/>
<path style=" stroke:none;fill-rule:nonzero;fill:rgb(100%,0%,0%);fill-opacity:1;" d="M 452.074219 333.332031 C 452.074219 337.332031 446.074219 337.332031 446.074219 333.332031 C 446.074219 329.332031 452.074219 329.332031 452.074219 333.332031 "/>
<path style=" stroke:none;fill-rule:nonzero;fill:rgb(100%,0%,0%);fill-opacity:1;" d="M 471.886719 337.296875 C 471.886719 341.296875 465.886719 341.296875 465.886719 337.296875 C 465.886719 333.296875 471.886719 333.296875 471.886719 337.296875 "/>
<path style=" stroke:none;fill-rule:nonzero;fill:rgb(100%,0%,0%);fill-opacity:1;" d="M 432.257812 337.296875 C 432.257812 341.296875 426.257812 341.296875 426.257812 337.296875 C 426.257812 333.296875 432.257812 333.296875 432.257812 337.296875 "/>
<path style=" stroke:none;fill-rule:nonzero;fill:rgb(100%,0%,0%);fill-opacity:1;" d="M 467.925781 357.109375 C 467.925781 361.109375 461.925781 361.109375 461.925781 357.109375 C 461.925781 353.109375 467.925781 353.109375 467.925781 357.109375 "/>
<path style=" stroke:none;fill-rule:nonzero;fill:rgb(100%,0%,0%);fill-opacity:1;" d="M 436.222656 357.109375 C 436.222656 361.109375 430.222656 361.109375 430.222656 357.109375 C 430.222656 353.109375 436.222656 353.109375 436.222656 357.109375 "/>
<path style=" stroke:none;fill-rule:nonzero;fill:rgb(100%,0%,0%);fill-opacity:1;" d="M 463.960938 376.925781 C 463.960938 380.925781 457.960938 380.925781 457.960938 376.925781 C 457.960938 372.925781 463.960938 372.925781 463.960938 376.925781 "/>
<path style=" stroke:none;fill-rule:nonzero;fill:rgb(100%,0%,0%);fill-opacity:1;" d="M 440.183594 376.925781 C 440.183594 380.925781 434.183594 380.925781 434.183594 376.925781 C 434.183594 372.925781 440.183594 372.925781 440.183594 376.925781 "/>
<path style=" stroke:none;fill-rule:nonzero;fill:rgb(100%,0%,0%);fill-opacity:1;" d="M 460 396.738281 C 460 400.738281 454 400.738281 454 396.738281 C 454 392.738281 460 392.738281 460 396.738281 "/>
<path style=" stroke:none;fill-rule:nonzero;fill:rgb(100%,0%,0%);fill-opacity:1;" d="M 444.148438 396.738281 C 444.148438 400.738281 438.148438 400.738281 438.148438 396.738281 C 438.148438 392.738281 444.148438 392.738281 444.148438 396.738281 "/>
<path style=" stroke:none;fill-rule:nonzero;fill:rgb(100%,0%,0%);fill-opacity:1;" d="M 463.960938 376.925781 C 463.960938 380.925781 457.960938 380.925781 457.960938 376.925781 C 457.960938 372.925781 463.960938 372.925781 463.960938 376.925781 "/>
<path style=" stroke:none;fill-rule:nonzero;fill:rgb(100%,0%,0%);fill-opacity:1;" d="M 440.183594 376.925781 C 440.183594 380.925781 434.183594 380.925781 434.183594 376.925781 C 434.183594 372.925781 440.183594 372.925781 440.183594 376.925781 "/>
<path style=" stroke:none;fill-rule:nonzero;fill:rgb(100%,0%,0%);fill-opacity:1;" d="M 460 396.738281 C 460 400.738281 454 400.738281 454 396.738281 C 454 392.738281 460 392.738281 460 396.738281 "/>
<path style=" stroke:none;fill-rule:nonzero;fill:rgb(100%,0%,0%);fill-opacity:1;" d="M 444.148438 396.738281 C 444.148438 400.738281 438.148438 400.738281 438.148438 396.738281 C 438.148438 392.738281 444.148438 392.738281 444.148438 396.738281 "/>
<path style=" stroke:none;fill-rule:nonzero;fill:rgb(100%,0%,0%);fill-opacity:1;" d="M 456.035156 416.554688 C 456.035156 420.554688 450.035156 420.554688 450.035156 416.554688 C 450.035156 412.554688 456.035156 412.554688 456.035156 416.554688 "/>
<path style=" stroke:none;fill-rule:nonzero;fill:rgb(100%,0%,0%);fill-opacity:1;" d="M 448.109375 416.554688 C 448.109375 420.554688 442.109375 420.554688 442.109375 416.554688 C 442.109375 412.554688 448.109375 412.554688 448.109375 416.554688 "/>
<path style=" stroke:none;fill-rule:nonzero;fill:rgb(100%,0%,0%);fill-opacity:1;" d="M 456.035156 416.554688 C 456.035156 420.554688 450.035156 420.554688 450.035156 416.554688 C 450.035156 412.554688 456.035156 412.554688 456.035156 416.554688 "/>
<path style=" stroke:none;fill-rule:nonzero;fill:rgb(100%,0%,0%);fill-opacity:1;" d="M 448.109375 416.554688 C 448.109375 420.554688 442.109375 420.554688 442.109375 416.554688 C 442.109375 412.554688 448.109375 412.554688 448.109375 416.554688 "/>
<path style=" stroke:none;fill-rule:nonzero;fill:rgb(100%,0%,0%);fill-opacity:1;" d="M 491.703125 341.257812 C 491.703125 345.257812 485.703125 345.257812 485.703125 341.257812 C 485.703125 337.257812 491.703125 337.257812 491.703125 341.257812 "/>
<path style=" stroke:none;fill-rule:nonzero;fill:rgb(100%,0%,0%);fill-opacity:1;" d="M 412.445312 341.257812 C 412.445312 345.257812 406.445312 345.257812 406.445312 341.257812 C 406.445312 337.257812 412.445312 337.257812 412.445312 341.257812 "/>
<path style=" stroke:none;fill-rule:nonzero;fill:rgb(100%,0%,0%);fill-opacity:1;" d="M 487.738281 361.074219 C 487.738281 365.074219 481.738281 365.074219 481.738281 361.074219 C 481.738281 357.074219 487.738281 357.074219 487.738281 361.074219 "/>
<path style=" stroke:none;fill-rule:nonzero;fill:rgb(100%,0%,0%);fill-opacity:1;" d="M 416.40625 361.074219 C 416.40625 365.074219 410.40625 365.074219 410.40625 361.074219 C 410.40625 357.074219 416.40625 357.074219 416.40625 361.074219 "/>
<path style=" stroke:none;fill-rule:nonzero;fill:rgb(100%,0%,0%);fill-opacity:1;" d="M 511.515625 345.222656 C 511.515625 349.222656 505.515625 349.222656 505.515625 345.222656 C 505.515625 341.222656 511.515625 341.222656 511.515625 345.222656 "/>
<path style=" stroke:none;fill-rule:nonzero;fill:rgb(100%,0%,0%);fill-opacity:1;" d="M 392.628906 345.222656 C 392.628906 349.222656 386.628906 349.222656 386.628906 345.222656 C 386.628906 341.222656 392.628906 341.222656 392.628906 345.222656 "/>
<path style=" stroke:none;fill-rule:nonzero;fill:rgb(100%,0%,0%);fill-opacity:1;" d="M 507.554688 365.035156 C 507.554688 369.035156 501.554688 369.035156 501.554688 365.035156 C 501.554688 361.035156 507.554688 361.035156 507.554688 365.035156 "/>
<path style=" stroke:none;fill-rule:nonzero;fill:rgb(100%,0%,0%);fill-opacity:1;" d="M 396.59375 365.035156 C 396.59375 369.035156 390.59375 369.035156 390.59375 365.035156 C 390.59375 361.035156 396.59375 361.035156 396.59375 365.035156 "/>
<path style=" stroke:none;fill-rule:nonzero;fill:rgb(100%,0%,0%);fill-opacity:1;" d="M 491.703125 341.257812 C 491.703125 345.257812 485.703125 345.257812 485.703125 341.257812 C 485.703125 337.257812 491.703125 337.257812 491.703125 341.257812 "/>
<path style=" stroke:none;fill-rule:nonzero;fill:rgb(100%,0%,0%);fill-opacity:1;" d="M 412.445312 341.257812 C 412.445312 345.257812 406.445312 345.257812 406.445312 341.257812 C 406.445312 337.257812 412.445312 337.257812 412.445312 341.257812 "/>
<path style=" stroke:none;fill-rule:nonzero;fill:rgb(100%,0%,0%);fill-opacity:1;" d="M 487.738281 361.074219 C 487.738281 365.074219 481.738281 365.074219 481.738281 361.074219 C 481.738281 357.074219 487.738281 357.074219 487.738281 361.074219 "/>
<path style=" stroke:none;fill-rule:nonzero;fill:rgb(100%,0%,0%);fill-opacity:1;" d="M 416.40625 361.074219 C 416.40625 365.074219 410.40625 365.074219 410.40625 361.074219 C 410.40625 357.074219 416.40625 357.074219 416.40625 361.074219 "/>
<path style=" stroke:none;fill-rule:nonzero;fill:rgb(100%,0%,0%);fill-opacity:1;" d="M 511.515625 345.222656 C 511.515625 349.222656 505.515625 349.222656 505.515625 345.222656 C 505.515625 341.222656 511.515625 341.222656 511.515625 345.222656 "/>
<path style=" stroke:none;fill-rule:nonzero;fill:rgb(100%,0%,0%);fill-opacity:1;" d="M 392.628906 345.222656 C 392.628906 349.222656 386.628906 349.222656 386.628906 345.222656 C 386.628906 341.222656 392.628906 341.222656 392.628906 345.222656 "/>
<path style=" stroke:none;fill-rule:nonzero;fill:rgb(100%,0%,0%);fill-opacity:1;" d="M 507.554688 365.035156 C 507.554688 369.035156 501.554688 369.035156 501.554688 365.035156 C 501.554688 361.035156 507.554688 361.035156 507.554688 365.035156 "/>
<path style=" stroke:none;fill-rule:nonzero;fill:rgb(100%,0%,0%);fill-opacity:1;" d="M 396.59375 365.035156 C 396.59375 369.035156 390.59375 369.035156 390.59375 365.035156 C 390.59375 361.035156 396.59375 361.035156 396.59375 365.035156 "/>
<path style=" stroke:none;fill-rule:nonzero;fill:rgb(100%,0%,0%);fill-opacity:1;" d="M 483.777344 380.886719 C 483.777344 384.886719 477.777344 384.886719 477.777344 380.886719 C 477.777344 376.886719 483.777344 376.886719 483.777344 380.886719 "/>
<path style=" stroke:none;fill-rule:nonzero;fill:rgb(100%,0%,0%);fill-opacity:1;" d="M 420.371094 380.886719 C 420.371094 384.886719 414.371094 384.886719 414.371094 380.886719 C 414.371094 376.886719 420.371094 376.886719 420.371094 380.886719 "/>
<path style=" stroke:none;fill-rule:nonzero;fill:rgb(100%,0%,0%);fill-opacity:1;" d="M 479.8125 400.703125 C 479.8125 404.703125 473.8125 404.703125 473.8125 400.703125 C 473.8125 396.703125 479.8125 396.703125 479.8125 400.703125 "/>
<path style=" stroke:none;fill-rule:nonzero;fill:rgb(100%,0%,0%);fill-opacity:1;" d="M 424.332031 400.703125 C 424.332031 404.703125 418.332031 404.703125 418.332031 400.703125 C 418.332031 396.703125 424.332031 396.703125 424.332031 400.703125 "/>
<path style=" stroke:none;fill-rule:nonzero;fill:rgb(100%,0%,0%);fill-opacity:1;" d="M 503.589844 384.851562 C 503.589844 388.851562 497.589844 388.851562 497.589844 384.851562 C 497.589844 380.851562 503.589844 380.851562 503.589844 384.851562 "/>
<path style=" stroke:none;fill-rule:nonzero;fill:rgb(100%,0%,0%);fill-opacity:1;" d="M 400.554688 384.851562 C 400.554688 388.851562 394.554688 388.851562 394.554688 384.851562 C 394.554688 380.851562 400.554688 380.851562 400.554688 384.851562 "/>
<path style=" stroke:none;fill-rule:nonzero;fill:rgb(100%,0%,0%);fill-opacity:1;" d="M 499.628906 404.664062 C 499.628906 408.664062 493.628906 408.664062 493.628906 404.664062 C 493.628906 400.664062 499.628906 400.664062 499.628906 404.664062 "/>
<path style=" stroke:none;fill-rule:nonzero;fill:rgb(100%,0%,0%);fill-opacity:1;" d="M 404.519531 404.664062 C 404.519531 408.664062 398.519531 408.664062 398.519531 404.664062 C 398.519531 400.664062 404.519531 400.664062 404.519531 404.664062 "/>
<path style=" stroke:none;fill-rule:nonzero;fill:rgb(100%,0%,0%);fill-opacity:1;" d="M 483.777344 380.886719 C 483.777344 384.886719 477.777344 384.886719 477.777344 380.886719 C 477.777344 376.886719 483.777344 376.886719 483.777344 380.886719 "/>
<path style=" stroke:none;fill-rule:nonzero;fill:rgb(100%,0%,0%);fill-opacity:1;" d="M 420.371094 380.886719 C 420.371094 384.886719 414.371094 384.886719 414.371094 380.886719 C 414.371094 376.886719 420.371094 376.886719 420.371094 380.886719 "/>
<path style=" stroke:none;fill-rule:nonzero;fill:rgb(100%,0%,0%);fill-opacity:1;" d="M 479.8125 400.703125 C 479.8125 404.703125 473.8125 404.703125 473.8125 400.703125 C 473.8125 396.703125 479.8125 396.703125 479.8125 400.703125 "/>
<path style=" stroke:none;fill-rule:nonzero;fill:rgb(100%,0%,0%);fill-opacity:1;" d="M 424.332031 400.703125 C 424.332031 404.703125 418.332031 404.703125 418.332031 400.703125 C 418.332031 396.703125 424.332031 396.703125 424.332031 400.703125 "/>
<path style=" stroke:none;fill-rule:nonzero;fill:rgb(100%,0%,0%);fill-opacity:1;" d="M 503.589844 384.851562 C 503.589844 388.851562 497.589844 388.851562 497.589844 384.851562 C 497.589844 380.851562 503.589844 380.851562 503.589844 384.851562 "/>
<path style=" stroke:none;fill-rule:nonzero;fill:rgb(100%,0%,0%);fill-opacity:1;" d="M 400.554688 384.851562 C 400.554688 388.851562 394.554688 388.851562 394.554688 384.851562 C 394.554688 380.851562 400.554688 380.851562 400.554688 384.851562 "/>
<path style=" stroke:none;fill-rule:nonzero;fill:rgb(100%,0%,0%);fill-opacity:1;" d="M 499.628906 404.664062 C 499.628906 408.664062 493.628906 408.664062 493.628906 404.664062 C 493.628906 400.664062 499.628906 400.664062 499.628906 404.664062 "/>
<path style=" stroke:none;fill-rule:nonzero;fill:rgb(100%,0%,0%);fill-opacity:1;" d="M 404.519531 404.664062 C 404.519531 408.664062 398.519531 408.664062 398.519531 404.664062 C 398.519531 400.664062 404.519531 400.664062 404.519531 404.664062 "/>
<path style=" stroke:none;fill-rule:nonzero;fill:rgb(100%,0%,0%);fill-opacity:1;" d="M 475.851562 420.515625 C 475.851562 424.515625 469.851562 424.515625 469.851562 420.515625 C 469.851562 416.515625 475.851562 416.515625 475.851562 420.515625 "/>
<path style=" stroke:none;fill-rule:nonzero;fill:rgb(100%,0%,0%);fill-opacity:1;" d="M 428.296875 420.515625 C 428.296875 424.515625 422.296875 424.515625 422.296875 420.515625 C 422.296875 416.515625 428.296875 416.515625 428.296875 420.515625 "/>
<path style=" stroke:none;fill-rule:nonzero;fill:rgb(100%,0%,0%);fill-opacity:1;" d="M 495.664062 424.480469 C 495.664062 428.480469 489.664062 428.480469 489.664062 424.480469 C 489.664062 420.480469 495.664062 420.480469 495.664062 424.480469 "/>
<path style=" stroke:none;fill-rule:nonzero;fill:rgb(100%,0%,0%);fill-opacity:1;" d="M 408.480469 424.480469 C 408.480469 428.480469 402.480469 428.480469 402.480469 424.480469 C 402.480469 420.480469 408.480469 420.480469 408.480469 424.480469 "/>
<path style=" stroke:none;fill-rule:nonzero;fill:rgb(100%,0%,0%);fill-opacity:1;" d="M 475.851562 420.515625 C 475.851562 424.515625 469.851562 424.515625 469.851562 420.515625 C 469.851562 416.515625 475.851562 416.515625 475.851562 420.515625 "/>
<path style=" stroke:none;fill-rule:nonzero;fill:rgb(100%,0%,0%);fill-opacity:1;" d="M 428.296875 420.515625 C 428.296875 424.515625 422.296875 424.515625 422.296875 420.515625 C 422.296875 416.515625 428.296875 416.515625 428.296875 420.515625 "/>
<path style=" stroke:none;fill-rule:nonzero;fill:rgb(100%,0%,0%);fill-opacity:1;" d="M 495.664062 424.480469 C 495.664062 428.480469 489.664062 428.480469 489.664062 424.480469 C 489.664062 420.480469 495.664062 420.480469 495.664062 424.480469 "/>
<path style=" stroke:none;fill-rule:nonzero;fill:rgb(100%,0%,0%);fill-opacity:1;" d="M 408.480469 424.480469 C 408.480469 428.480469 402.480469 428.480469 402.480469 424.480469 C 402.480469 420.480469 408.480469 420.480469 408.480469 424.480469 "/>
<path style=" stroke:none;fill-rule:nonzero;fill:rgb(100%,0%,0%);fill-opacity:1;" d="M 531.332031 349.183594 C 531.332031 353.183594 525.332031 353.183594 525.332031 349.183594 C 525.332031 345.183594 531.332031 345.183594 531.332031 349.183594 "/>
<path style=" stroke:none;fill-rule:nonzero;fill:rgb(100%,0%,0%);fill-opacity:1;" d="M 372.816406 349.183594 C 372.816406 353.183594 366.816406 353.183594 366.816406 349.183594 C 366.816406 345.183594 372.816406 345.183594 372.816406 349.183594 "/>
<path style=" stroke:none;fill-rule:nonzero;fill:rgb(100%,0%,0%);fill-opacity:1;" d="M 527.367188 369 C 527.367188 373 521.367188 373 521.367188 369 C 521.367188 365 527.367188 365 527.367188 369 "/>
<path style=" stroke:none;fill-rule:nonzero;fill:rgb(100%,0%,0%);fill-opacity:1;" d="M 376.777344 369 C 376.777344 373 370.777344 373 370.777344 369 C 370.777344 365 376.777344 365 376.777344 369 "/>
<path style=" stroke:none;fill-rule:nonzero;fill:rgb(100%,0%,0%);fill-opacity:1;" d="M 353 353.148438 C 353 357.148438 347 357.148438 347 353.148438 C 347 349.148438 353 349.148438 353 353.148438 "/>
<path style=" stroke:none;fill-rule:nonzero;fill:rgb(100%,0%,0%);fill-opacity:1;" d="M 547.183594 372.960938 C 547.183594 376.960938 541.183594 376.960938 541.183594 372.960938 C 541.183594 368.960938 547.183594 368.960938 547.183594 372.960938 "/>
<path style=" stroke:none;fill-rule:nonzero;fill:rgb(100%,0%,0%);fill-opacity:1;" d="M 356.964844 372.960938 C 356.964844 376.960938 350.964844 376.960938 350.964844 372.960938 C 350.964844 368.960938 356.964844 368.960938 356.964844 372.960938 "/>
<path style=" stroke:none;fill-rule:nonzero;fill:rgb(100%,0%,0%);fill-opacity:1;" d="M 531.332031 349.183594 C 531.332031 353.183594 525.332031 353.183594 525.332031 349.183594 C 525.332031 345.183594 531.332031 345.183594 531.332031 349.183594 "/>
<path style=" stroke:none;fill-rule:nonzero;fill:rgb(100%,0%,0%);fill-opacity:1;" d="M 372.816406 349.183594 C 372.816406 353.183594 366.816406 353.183594 366.816406 349.183594 C 366.816406 345.183594 372.816406 345.183594 372.816406 349.183594 "/>
<path style=" stroke:none;fill-rule:nonzero;fill:rgb(100%,0%,0%);fill-opacity:1;" d="M 527.367188 369 C 527.367188 373 521.367188 373 521.367188 369 C 521.367188 365 527.367188 365 527.367188 369 "/>
<path style=" stroke:none;fill-rule:nonzero;fill:rgb(100%,0%,0%);fill-opacity:1;" d="M 376.777344 369 C 376.777344 373 370.777344 373 370.777344 369 C 370.777344 365 376.777344 365 376.777344 369 "/>
<path style=" stroke:none;fill-rule:nonzero;fill:rgb(100%,0%,0%);fill-opacity:1;" d="M 353 353.148438 C 353 357.148438 347 357.148438 347 353.148438 C 347 349.148438 353 349.148438 353 353.148438 "/>
<path style=" stroke:none;fill-rule:nonzero;fill:rgb(100%,0%,0%);fill-opacity:1;" d="M 547.183594 372.960938 C 547.183594 376.960938 541.183594 376.960938 541.183594 372.960938 C 541.183594 368.960938 547.183594 368.960938 547.183594 372.960938 "/>
<path style=" stroke:none;fill-rule:nonzero;fill:rgb(100%,0%,0%);fill-opacity:1;" d="M 356.964844 372.960938 C 356.964844 376.960938 350.964844 376.960938 350.964844 372.960938 C 350.964844 368.960938 356.964844 368.960938 356.964844 372.960938 "/>
<path style=" stroke:none;fill-rule:nonzero;fill:rgb(100%,0%,0%);fill-opacity:1;" d="M 523.40625 388.8125 C 523.40625 392.8125 517.40625 392.8125 517.40625 388.8125 C 517.40625 384.8125 523.40625 384.8125 523.40625 388.8125 "/>
<path style=" stroke:none;fill-rule:nonzero;fill:rgb(100%,0%,0%);fill-opacity:1;" d="M 380.742188 388.8125 C 380.742188 392.8125 374.742188 392.8125 374.742188 388.8125 C 374.742188 384.8125 380.742188 384.8125 380.742188 388.8125 "/>
<path style=" stroke:none;fill-rule:nonzero;fill:rgb(100%,0%,0%);fill-opacity:1;" d="M 519.441406 408.628906 C 519.441406 412.628906 513.441406 412.628906 513.441406 408.628906 C 513.441406 404.628906 519.441406 404.628906 519.441406 408.628906 "/>
<path style=" stroke:none;fill-rule:nonzero;fill:rgb(100%,0%,0%);fill-opacity:1;" d="M 384.703125 408.628906 C 384.703125 412.628906 378.703125 412.628906 378.703125 408.628906 C 378.703125 404.628906 384.703125 404.628906 384.703125 408.628906 "/>
<path style=" stroke:none;fill-rule:nonzero;fill:rgb(100%,0%,0%);fill-opacity:1;" d="M 543.21875 392.777344 C 543.21875 396.777344 537.21875 396.777344 537.21875 392.777344 C 537.21875 388.777344 543.21875 388.777344 543.21875 392.777344 "/>
<path style=" stroke:none;fill-rule:nonzero;fill:rgb(100%,0%,0%);fill-opacity:1;" d="M 360.925781 392.777344 C 360.925781 396.777344 354.925781 396.777344 354.925781 392.777344 C 354.925781 388.777344 360.925781 388.777344 360.925781 392.777344 "/>
<path style=" stroke:none;fill-rule:nonzero;fill:rgb(100%,0%,0%);fill-opacity:1;" d="M 539.257812 412.589844 C 539.257812 416.589844 533.257812 416.589844 533.257812 412.589844 C 533.257812 408.589844 539.257812 408.589844 539.257812 412.589844 "/>
<path style=" stroke:none;fill-rule:nonzero;fill:rgb(100%,0%,0%);fill-opacity:1;" d="M 364.890625 412.589844 C 364.890625 416.589844 358.890625 416.589844 358.890625 412.589844 C 358.890625 408.589844 364.890625 408.589844 364.890625 412.589844 "/>
<path style=" stroke:none;fill-rule:nonzero;fill:rgb(100%,0%,0%);fill-opacity:1;" d="M 523.40625 388.8125 C 523.40625 392.8125 517.40625 392.8125 517.40625 388.8125 C 517.40625 384.8125 523.40625 384.8125 523.40625 388.8125 "/>
<path style=" stroke:none;fill-rule:nonzero;fill:rgb(100%,0%,0%);fill-opacity:1;" d="M 380.742188 388.8125 C 380.742188 392.8125 374.742188 392.8125 374.742188 388.8125 C 374.742188 384.8125 380.742188 384.8125 380.742188 388.8125 "/>
<path style=" stroke:none;fill-rule:nonzero;fill:rgb(100%,0%,0%);fill-opacity:1;" d="M 519.441406 408.628906 C 519.441406 412.628906 513.441406 412.628906 513.441406 408.628906 C 513.441406 404.628906 519.441406 404.628906 519.441406 408.628906 "/>
<path style=" stroke:none;fill-rule:nonzero;fill:rgb(100%,0%,0%);fill-opacity:1;" d="M 384.703125 408.628906 C 384.703125 412.628906 378.703125 412.628906 378.703125 408.628906 C 378.703125 404.628906 384.703125 404.628906 384.703125 408.628906 "/>
<path style=" stroke:none;fill-rule:nonzero;fill:rgb(100%,0%,0%);fill-opacity:1;" d="M 543.21875 392.777344 C 543.21875 396.777344 537.21875 396.777344 537.21875 392.777344 C 537.21875 388.777344 543.21875 388.777344 543.21875 392.777344 "/>
<path style=" stroke:none;fill-rule:nonzero;fill:rgb(100%,0%,0%);fill-opacity:1;" d="M 360.925781 392.777344 C 360.925781 396.777344 354.925781 396.777344 354.925781 392.777344 C 354.925781 388.777344 360.925781 388.777344 360.925781 392.777344 "/>
<path style=" stroke:none;fill-rule:nonzero;fill:rgb(100%,0%,0%);fill-opacity:1;" d="M 539.257812 412.589844 C 539.257812 416.589844 533.257812 416.589844 533.257812 412.589844 C 533.257812 408.589844 539.257812 408.589844 539.257812 412.589844 "/>
<path style=" stroke:none;fill-rule:nonzero;fill:rgb(100%,0%,0%);fill-opacity:1;" d="M 364.890625 412.589844 C 364.890625 416.589844 358.890625 416.589844 358.890625 412.589844 C 358.890625 408.589844 364.890625 408.589844 364.890625 412.589844 "/>
<path style=" stroke:none;fill-rule:nonzero;fill:rgb(100%,0%,0%);fill-opacity:1;" d="M 515.480469 428.445312 C 515.480469 432.445312 509.480469 432.445312 509.480469 428.445312 C 509.480469 424.445312 515.480469 424.445312 515.480469 428.445312 "/>
<path style=" stroke:none;fill-rule:nonzero;fill:rgb(100%,0%,0%);fill-opacity:1;" d="M 388.667969 428.445312 C 388.667969 432.445312 382.667969 432.445312 382.667969 428.445312 C 382.667969 424.445312 388.667969 424.445312 388.667969 428.445312 "/>
<path style=" stroke:none;fill-rule:nonzero;fill:rgb(100%,0%,0%);fill-opacity:1;" d="M 535.292969 432.40625 C 535.292969 436.40625 529.292969 436.40625 529.292969 432.40625 C 529.292969 428.40625 535.292969 428.40625 535.292969 432.40625 "/>
<path style=" stroke:none;fill-rule:nonzero;fill:rgb(100%,0%,0%);fill-opacity:1;" d="M 368.851562 432.40625 C 368.851562 436.40625 362.851562 436.40625 362.851562 432.40625 C 362.851562 428.40625 368.851562 428.40625 368.851562 432.40625 "/>
<path style=" stroke:none;fill-rule:nonzero;fill:rgb(100%,0%,0%);fill-opacity:1;" d="M 515.480469 428.445312 C 515.480469 432.445312 509.480469 432.445312 509.480469 428.445312 C 509.480469 424.445312 515.480469 424.445312 515.480469 428.445312 "/>
<path style=" stroke:none;fill-rule:nonzero;fill:rgb(100%,0%,0%);fill-opacity:1;" d="M 388.667969 428.445312 C 388.667969 432.445312 382.667969 432.445312 382.667969 428.445312 C 382.667969 424.445312 388.667969 424.445312 388.667969 428.445312 "/>
<path style=" stroke:none;fill-rule:nonzero;fill:rgb(100%,0%,0%);fill-opacity:1;" d="M 535.292969 432.40625 C 535.292969 436.40625 529.292969 436.40625 529.292969 432.40625 C 529.292969 428.40625 535.292969 428.40625 535.292969 432.40625 "/>
<path style=" stroke:none;fill-rule:nonzero;fill:rgb(100%,0%,0%);fill-opacity:1;" d="M 368.851562 432.40625 C 368.851562 436.40625 362.851562 436.40625 362.851562 432.40625 C 362.851562 428.40625 368.851562 428.40625 368.851562 432.40625 "/>
</g>
</svg>
