<?xml version="1.0" encoding="UTF-8"?>
<svg xmlns="http://www.w3.org/2000/svg" xmlns:xlink="http://www.w3.org/1999/xlink" width="450pt" height="300pt" viewBox="0 0 450 300" version="1.1">
<g id="surface1">
<rect x="0" y="0" width="450" height="300" style="fill:rgb(80%,80%,80%);fill-opacity:1;stroke:none;"/>
<path style="fill:none;stroke-width:2;stroke-linecap:butt;stroke-linejoin:miter;stroke:rgb(0%,0%,0%);stroke-opacity:1;stroke-miterlimit:10;" d="M 10 10 L 10 1010 "/>
<path style="fill:none;stroke-width:2;stroke-linecap:butt;stroke-linejoin:miter;stroke:rgb(0%,0%,0%);stroke-opacity:1;stroke-miterlimit:10;" d="M 235 10 L 235 1010 "/>
<path style="fill:none;stroke-width:2;stroke-linecap:butt;stroke-linejoin:miter;stroke:rgb(0%,0%,0%);stroke-opacity:1;stroke-miterlimit:10;" d="M 10 160 L 10 1160 "/>
<path style="fill:none;stroke-width:2;stroke-linecap:butt;stroke-linejoin:miter;stroke:rgb(0%,0%,0%);stroke-opacity:1;stroke-miterlimit:10;" d="M 10 10 L 1010 10 "/>
<path style="fill:none;stroke-width:2;stroke-linecap:butt;stroke-linejoin:miter;stroke:rgb(0%,0%,0%);stroke-opacity:1;stroke-miterlimit:10;" d="M 235 10 L 1235 10 "/>
<path style="fill:none;stroke-width:2;stroke-linecap:butt;stroke-linejoin:miter;stroke:rgb(0%,0%,0%);stroke-opacity:1;stroke-miterlimit:10;" d="M 10 160 L 1010 160 "/>
<path style=" stroke:none;fill-rule:nonzero;fill:rgb(100%,0%,0%);fill-opacity:1;" d="M 111.074219 10 C 111.074219 12.667969 107.074219 12.667969 107.074219 10 C 107.074219 7.332031 111.074219 7.332031 111.074219 10 "/>
<path style=" stroke:none;fill-rule:nonzero;fill:rgb(100%,0%,0%);fill-opacity:1;" d="M 130.886719 30.207031 C 130.886719 32.875 126.886719 32.875 126.886719 30.207031 C 126.886719 27.539062 130.886719 27.539062 130.886719 30.207031 "/>
<path style=" stroke:none;fill-rule:nonzero;fill:rgb(100%,0%,0%);fill-opacity:1;" d="M 91.257812 30.207031 C 91.257812 32.875 87.257812 32.875 87.257812 30.207031 C 87.257812 27.539062 91.257812 27.539062 91.257812 30.207031 "/>
<path style=" stroke:none;fill-rule:nonzero;fill:rgb(100%,0%,0%);fill-opacity:1;" d="M 126.925781 10 C 126.925781 12.667969 122.925781 12.667969 122.925781 10 C 122.925781 7.332031 126.925781 7.332031 126.925781 10 "/>
<path style=" stroke:none;fill-rule:nonzero;fill:rgb(100%,0%,0%);fill-opacity:1;" d="M 95.222656 10 C 95.222656 12.667969 91.222656 12.667969 91.222656 10 C 91.222656 7.332031 95.222656 7.332031 95.222656 10 "/>
<path style=" stroke:none;fill-rule:nonzero;fill:rgb(100%,0%,0%);fill-opacity:1;" d="M 111.074219 50.414062 C 111.074219 53.082031 107.074219 53.082031 107.074219 50.414062 C 107.074219 47.746094 111.074219 47.746094 111.074219 50.414062 "/>
<path style=" stroke:none;fill-rule:nonzero;fill:rgb(100%,0%,0%);fill-opacity:1;" d="M 130.886719 70.621094 C 130.886719 73.289062 126.886719 73.289062 126.886719 70.621094 C 126.886719 67.953125 130.886719 67.953125 130.886719 70.621094 "/>
<path style=" stroke:none;fill-rule:nonzero;fill:rgb(100%,0%,0%);fill-opacity:1;" d="M 91.257812 70.621094 C 91.257812 73.289062 87.257812 73.289062 87.257812 70.621094 C 87.257812 67.953125 91.257812 67.953125 91.257812 70.621094 "/>
<path style=" stroke:none;fill-rule:nonzero;fill:rgb(100%,0%,0%);fill-opacity:1;" d="M 126.925781 50.414062 C 126.925781 53.082031 122.925781 53.082031 122.925781 50.414062 C 122.925781 47.746094 126.925781 47.746094 126.925781 50.414062 "/>
<path style=" stroke:none;fill-rule:nonzero;fill:rgb(100%,0%,0%);fill-opacity:1;" d="M 95.222656 50.414062 C 95.222656 53.082031 91.222656 53.082031 91.222656 50.414062 C 91.222656 47.746094 95.222656 47.746094 95.222656 50.414062 "/>
<path style=" stroke:none;fill-rule:nonzero;fill:rgb(100%,0%,0%);fill-opacity:1;" d="M 122.960938 30.207031 C 122.960938 32.875 118.960938 32.875 118.960938 30.207031 C 118.960938 27.539062 122.960938 27.539062 122.960938 30.207031 "/>
<path style=" stroke:none;fill-rule:nonzero;fill:rgb(100%,0%,0%);fill-opacity:1;" d="M 99.183594 30.207031 C 99.183594 32.875 95.183594 32.875 95.183594 30.207031 C 95.183594 27.539062 99.183594 27.539062 99.183594 30.207031 "/>
<path style=" stroke:none;fill-rule:nonzero;fill:rgb(100%,0%,0%);fill-opacity:1;" d="M 119 10 C 119 12.667969 115 12.667969 115 10 C 115 7.332031 119 7.332031 119 10 "/>
<path style=" stroke:none;fill-rule:nonzero;fill:rgb(100%,0%,0%);fill-opacity:1;" d="M 103.148438 10 C 103.148438 12.667969 99.148438 12.667969 99.148438 10 C 99.148438 7.332031 103.148438 7.332031 103.148438 10 "/>
<path style=" stroke:none;fill-rule:nonzero;fill:rgb(100%,0%,0%);fill-opacity:1;" d="M 122.960938 70.621094 C 122.960938 73.289062 118.960938 73.289062 118.960938 70.621094 C 118.960938 67.953125 122.960938 67.953125 122.960938 70.621094 "/>
<path style=" stroke:none;fill-rule:nonzero;fill:rgb(100%,0%,0%);fill-opacity:1;" d="M 99.183594 70.621094 C 99.183594 73.289062 95.183594 73.289062 95.183594 70.621094 C 95.183594 67.953125 99.183594 67.953125 99.183594 70.621094 "/>
<path style=" stroke:none;fill-rule:nonzero;fill:rgb(100%,0%,0%);fill-opacity:1;" d="M 119 50.414062 C 119 53.082031 115 53.082031 115 50.414062 C 115 47.746094 119 47.746094 119 50.414062 "/>
<path style=" stroke:none;fill-rule:nonzero;fill:rgb(100%,0%,0%);fill-opacity:1;" d="M 103.148438 50.414062 C 103.148438 53.082031 99.148438 53.082031 99.148438 50.414062 C 99.148438 47.746094 103.148438 47.746094 103.148438 50.414062 "/>
<path style=" stroke:none;fill-rule:nonzero;fill:rgb(100%,0%,0%);fill-opacity:1;" d="M 115.035156 30.207031 C 115.035156 32.875 111.035156 32.875 111.035156 30.207031 C 111.035156 27.539062 115.035156 27.539062 115.035156 30.207031 "/>
<path style=" stroke:none;fill-rule:nonzero;fill:rgb(100%,0%,0%);fill-opacity:1;" d="M 107.109375 30.207031 C 107.109375 32.875 103.109375 32.875 103.109375 30.207031 C 103.109375 27.539062 107.109375 27.539062 107.109375 30.207031 "/>
<path style=" stroke:none;fill-rule:nonzero;fill:rgb(100%,0%,0%);fill-opacity:1;" d="M 115.035156 70.621094 C 115.035156 73.289062 111.035156 73.289062 111.035156 70.621094 C 111.035156 67.953125 115.035156 67.953125 115.035156 70.621094 "/>
<path style=" stroke:none;fill-rule:nonzero;fill:rgb(100%,0%,0%);fill-opacity:1;" d="M 107.109375 70.621094 C 107.109375 73.289062 103.109375 73.289062 103.109375 70.621094 C 103.109375 67.953125 107.109375 67.953125 107.109375 70.621094 "/>
<path style=" stroke:none;fill-rule:nonzero;fill:rgb(100%,0%,0%);fill-opacity:1;" d="M 150.703125 10 C 150.703125 12.667969 146.703125 12.667969 146.703125 10 C 146.703125 7.332031 150.703125 7.332031 150.703125 10 "/>
<path style=" stroke:none;fill-rule:nonzero;fill:rgb(100%,0%,0%);fill-opacity:1;" d="M 71.445312 10 C 71.445312 12.667969 67.445312 12.667969 67.445312 10 C 67.445312 7.332031 71.445312 7.332031 71.445312 10 "/>
<path style=" stroke:none;fill-rule:nonzero;fill:rgb(100%,0%,0%);fill-opacity:1;" d="M 146.738281 30.207031 C 146.738281 32.875 142.738281 32.875 142.738281 30.207031 C 142.738281 27.539062 146.738281 27.539062 146.738281 30.207031 "/>
<path style=" stroke:none;fill-rule:nonzero;fill:rgb(100%,0%,0%);fill-opacity:1;" d="M 75.40625 30.207031 C 75.40625 32.875 71.40625 32.875 71.40625 30.207031 C 71.40625 27.539062 75.40625 27.539062 75.40625 30.207031 "/>
<path style=" stroke:none;fill-rule:nonzero;fill:rgb(100%,0%,0%);fill-opacity:1;" d="M 170.515625 30.207031 C 170.515625 32.875 166.515625 32.875 166.515625 30.207031 C 166.515625 27.539062 170.515625 27.539062 170.515625 30.207031 "/>
<path style=" stroke:none;fill-rule:nonzero;fill:rgb(100%,0%,0%);fill-opacity:1;" d="M 51.628906 30.207031 C 51.628906 32.875 47.628906 32.875 47.628906 30.207031 C 47.628906 27.539062 51.628906 27.539062 51.628906 30.207031 "/>
<path style=" stroke:none;fill-rule:nonzero;fill:rgb(100%,0%,0%);fill-opacity:1;" d="M 166.554688 10 C 166.554688 12.667969 162.554688 12.667969 162.554688 10 C 162.554688 7.332031 166.554688 7.332031 166.554688 10 "/>
<path style=" stroke:none;fill-rule:nonzero;fill:rgb(100%,0%,0%);fill-opacity:1;" d="M 55.59375 10 C 55.59375 12.667969 51.59375 12.667969 51.59375 10 C 51.59375 7.332031 55.59375 7.332031 55.59375 10 "/>
<path style=" stroke:none;fill-rule:nonzero;fill:rgb(100%,0%,0%);fill-opacity:1;" d="M 150.703125 50.414062 C 150.703125 53.082031 146.703125 53.082031 146.703125 50.414062 C 146.703125 47.746094 150.703125 47.746094 150.703125 50.414062 "/>
<path style=" stroke:none;fill-rule:nonzero;fill:rgb(100%,0%,0%);fill-opacity:1;" d="M 71.445312 50.414062 C 71.445312 53.082031 67.445312 53.082031 67.445312 50.414062 C 67.445312 47.746094 71.445312 47.746094 71.445312 50.414062 "/>
<path style=" stroke:none;fill-rule:nonzero;fill:rgb(100%,0%,0%);fill-opacity:1;" d="M 146.738281 70.621094 C 146.738281 73.289062 142.738281 73.289062 142.738281 70.621094 C 142.738281 67.953125 146.738281 67.953125 146.738281 70.621094 "/>
<path style=" stroke:none;fill-rule:nonzero;fill:rgb(100%,0%,0%);fill-opacity:1;" d="M 75.40625 70.621094 C 75.40625 73.289062 71.40625 73.289062 71.40625 70.621094 C 71.40625 67.953125 75.40625 67.953125 75.40625 70.621094 "/>
<path style=" stroke:none;fill-rule:nonzero;fill:rgb(100%,0%,0%);fill-opacity:1;" d="M 170.515625 70.621094 C 170.515625 73.289062 166.515625 73.289062 166.515625 70.621094 C 166.515625 67.953125 170.515625 67.953125 170.515625 70.621094 "/>
<path style=" stroke:none;fill-rule:nonzero;fill:rgb(100%,0%,0%);fill-opacity:1;" d="M 51.628906 70.621094 C 51.628906 73.289062 47.628906 73.289062 47.628906 70.621094 C 47.628906 67.953125 51.628906 67.953125 51.628906 70.621094 "/>
<path style=" stroke:none;fill-rule:nonzero;fill:rgb(100%,0%,0%);fill-opacity:1;" d="M 166.554688 50.414062 C 166.554688 53.082031 162.554688 53.082031 162.554688 50.414062 C 162.554688 47.746094 166.554688 47.746094 166.554688 50.414062 "/>
<path style=" stroke:none;fill-rule:nonzero;fill:rgb(100%,0%,0%);fill-opacity:1;" d="M 55.59375 50.414062 C 55.59375 53.082031 51.59375 53.082031 51.59375 50.414062 C 51.59375 47.746094 55.59375 47.746094 55.59375 50.414062 "/>
<path style=" stroke:none;fill-rule:nonzero;fill:rgb(100%,0%,0%);fill-opacity:1;" d="M 142.777344 10 C 142.777344 12.667969 138.777344 12.667969 138.777344 10 C 138.777344 7.332031 142.777344 7.332031 142.777344 10 "/>
<path style=" stroke:none;fill-rule:nonzero;fill:rgb(100%,0%,0%);fill-opacity:1;" d="M 79.371094 10 C 79.371094 12.667969 75.371094 12.667969 75.371094 10 C 75.371094 7.332031 79.371094 7.332031 79.371094 10 "/>
<path style=" stroke:none;fill-rule:nonzero;fill:rgb(100%,0%,0%);fill-opacity:1;" d="M 138.8125 30.207031 C 138.8125 32.875 134.8125 32.875 134.8125 30.207031 C 134.8125 27.539062 138.8125 27.539062 138.8125 30.207031 "/>
<path style=" stroke:none;fill-rule:nonzero;fill:rgb(100%,0%,0%);fill-opacity:1;" d="M 83.332031 30.207031 C 83.332031 32.875 79.332031 32.875 79.332031 30.207031 C 79.332031 27.539062 83.332031 27.539062 83.332031 30.207031 "/>
<path style=" stroke:none;fill-rule:nonzero;fill:rgb(100%,0%,0%);fill-opacity:1;" d="M 162.589844 30.207031 C 162.589844 32.875 158.589844 32.875 158.589844 30.207031 C 158.589844 27.539062 162.589844 27.539062 162.589844 30.207031 "/>
<path style=" stroke:none;fill-rule:nonzero;fill:rgb(100%,0%,0%);fill-opacity:1;" d="M 59.554688 30.207031 C 59.554688 32.875 55.554688 32.875 55.554688 30.207031 C 55.554688 27.539062 59.554688 27.539062 59.554688 30.207031 "/>
<path style=" stroke:none;fill-rule:nonzero;fill:rgb(100%,0%,0%);fill-opacity:1;" d="M 158.628906 10 C 158.628906 12.667969 154.628906 12.667969 154.628906 10 C 154.628906 7.332031 158.628906 7.332031 158.628906 10 "/>
<path style=" stroke:none;fill-rule:nonzero;fill:rgb(100%,0%,0%);fill-opacity:1;" d="M 63.519531 10 C 63.519531 12.667969 59.519531 12.667969 59.519531 10 C 59.519531 7.332031 63.519531 7.332031 63.519531 10 "/>
<path style=" stroke:none;fill-rule:nonzero;fill:rgb(100%,0%,0%);fill-opacity:1;" d="M 142.777344 50.414062 C 142.777344 53.082031 138.777344 53.082031 138.777344 50.414062 C 138.777344 47.746094 142.777344 47.746094 142.777344 50.414062 "/>
<path style=" stroke:none;fill-rule:nonzero;fill:rgb(100%,0%,0%);fill-opacity:1;" d="M 79.371094 50.414062 C 79.371094 53.082031 75.371094 53.082031 75.371094 50.414062 C 75.371094 47.746094 79.371094 47.746094 79.371094 50.414062 "/>
<path style=" stroke:none;fill-rule:nonzero;fill:rgb(100%,0%,0%);fill-opacity:1;" d="M 138.8125 70.621094 C 138.8125 73.289062 134.8125 73.289062 134.8125 70.621094 C 134.8125 67.953125 138.8125 67.953125 138.8125 70.621094 "/>
<path style=" stroke:none;fill-rule:nonzero;fill:rgb(100%,0%,0%);fill-opacity:1;" d="M 83.332031 70.621094 C 83.332031 73.289062 79.332031 73.289062 79.332031 70.621094 C 79.332031 67.953125 83.332031 67.953125 83.332031 70.621094 "/>
<path style=" stroke:none;fill-rule:nonzero;fill:rgb(100%,0%,0%);fill-opacity:1;" d="M 162.589844 70.621094 C 162.589844 73.289062 158.589844 73.289062 158.589844 70.621094 C 158.589844 67.953125 162.589844 67.953125 162.589844 70.621094 "/>
<path style=" stroke:none;fill-rule:nonzero;fill:rgb(100%,0%,0%);fill-opacity:1;" d="M 59.554688 70.621094 C 59.554688 73.289062 55.554688 73.289062 55.554688 70.621094 C 55.554688 67.953125 59.554688 67.953125 59.554688 70.621094 "/>
<path style=" stroke:none;fill-rule:nonzero;fill:rgb(100%,0%,0%);fill-opacity:1;" d="M 158.628906 50.414062 C 158.628906 53.082031 154.628906 53.082031 154.628906 50.414062 C 154.628906 47.746094 158.628906 47.746094 158.628906 50.414062 "/>
<path style=" stroke:none;fill-rule:nonzero;fill:rgb(100%,0%,0%);fill-opacity:1;" d="M 63.519531 50.414062 C 63.519531 53.082031 59.519531 53.082031 59.519531 50.414062 C 59.519531 47.746094 63.519531 47.746094 63.519531 50.414062 "/>
<path style=" stroke:none;fill-rule:nonzero;fill:rgb(100%,0%,0%);fill-opacity:1;" d="M 134.851562 10 C 134.851562 12.667969 130.851562 12.667969 130.851562 10 C 130.851562 7.332031 134.851562 7.332031 134.851562 10 "/>
<path style=" stroke:none;fill-rule:nonzero;fill:rgb(100%,0%,0%);fill-opacity:1;" d="M 87.296875 10 C 87.296875 12.667969 83.296875 12.667969 83.296875 10 C 83.296875 7.332031 87.296875 7.332031 87.296875 10 "/>
<path style=" stroke:none;fill-rule:nonzero;fill:rgb(100%,0%,0%);fill-opacity:1;" d="M 154.664062 30.207031 C 154.664062 32.875 150.664062 32.875 150.664062 30.207031 C 150.664062 27.539062 154.664062 27.539062 154.664062 30.207031 "/>
<path style=" stroke:none;fill-rule:nonzero;fill:rgb(100%,0%,0%);fill-opacity:1;" d="M 67.480469 30.207031 C 67.480469 32.875 63.480469 32.875 63.480469 30.207031 C 63.480469 27.539062 67.480469 27.539062 67.480469 30.207031 "/>
<path style=" stroke:none;fill-rule:nonzero;fill:rgb(100%,0%,0%);fill-opacity:1;" d="M 134.851562 50.414062 C 134.851562 53.082031 130.851562 53.082031 130.851562 50.414062 C 130.851562 47.746094 134.851562 47.746094 134.851562 50.414062 "/>
<path style=" stroke:none;fill-rule:nonzero;fill:rgb(100%,0%,0%);fill-opacity:1;" d="M 87.296875 50.414062 C 87.296875 53.082031 83.296875 53.082031 83.296875 50.414062 C 83.296875 47.746094 87.296875 47.746094 87.296875 50.414062 "/>
<path style=" stroke:none;fill-rule:nonzero;fill:rgb(100%,0%,0%);fill-opacity:1;" d="M 154.664062 70.621094 C 154.664062 73.289062 150.664062 73.289062 150.664062 70.621094 C 150.664062 67.953125 154.664062 67.953125 154.664062 70.621094 "/>
<path style=" stroke:none;fill-rule:nonzero;fill:rgb(100%,0%,0%);fill-opacity:1;" d="M 67.480469 70.621094 C 67.480469 73.289062 63.480469 73.289062 63.480469 70.621094 C 63.480469 67.953125 67.480469 67.953125 67.480469 70.621094 "/>
<path style=" stroke:none;fill-rule:nonzero;fill:rgb(100%,0%,0%);fill-opacity:1;" d="M 190.332031 10 C 190.332031 12.667969 186.332031 12.667969 186.332031 10 C 186.332031 7.332031 190.332031 7.332031 190.332031 10 "/>
<path style=" stroke:none;fill-rule:nonzero;fill:rgb(100%,0%,0%);fill-opacity:1;" d="M 31.816406 10 C 31.816406 12.667969 27.816406 12.667969 27.816406 10 C 27.816406 7.332031 31.816406 7.332031 31.816406 10 "/>
<path style=" stroke:none;fill-rule:nonzero;fill:rgb(100%,0%,0%);fill-opacity:1;" d="M 186.367188 30.207031 C 186.367188 32.875 182.367188 32.875 182.367188 30.207031 C 182.367188 27.539062 186.367188 27.539062 186.367188 30.207031 "/>
<path style=" stroke:none;fill-rule:nonzero;fill:rgb(100%,0%,0%);fill-opacity:1;" d="M 35.777344 30.207031 C 35.777344 32.875 31.777344 32.875 31.777344 30.207031 C 31.777344 27.539062 35.777344 27.539062 35.777344 30.207031 "/>
<path style=" stroke:none;fill-rule:nonzero;fill:rgb(100%,0%,0%);fill-opacity:1;" d="M 12 30.207031 C 12 32.875 8 32.875 8 30.207031 C 8 27.539062 12 27.539062 12 30.207031 "/>
<path style=" stroke:none;fill-rule:nonzero;fill:rgb(100%,0%,0%);fill-opacity:1;" d="M 206.183594 10 C 206.183594 12.667969 202.183594 12.667969 202.183594 10 C 202.183594 7.332031 206.183594 7.332031 206.183594 10 "/>
<path style=" stroke:none;fill-rule:nonzero;fill:rgb(100%,0%,0%);fill-opacity:1;" d="M 15.964844 10 C 15.964844 12.667969 11.964844 12.667969 11.964844 10 C 11.964844 7.332031 15.964844 7.332031 15.964844 10 "/>
<path style=" stroke:none;fill-rule:nonzero;fill:rgb(100%,0%,0%);fill-opacity:1;" d="M 190.332031 50.414062 C 190.332031 53.082031 186.332031 53.082031 186.332031 50.414062 C 186.332031 47.746094 190.332031 47.746094 190.332031 50.414062 "/>
<path style=" stroke:none;fill-rule:nonzero;fill:rgb(100%,0%,0%);fill-opacity:1;" d="M 31.816406 50.414062 C 31.816406 53.082031 27.816406 53.082031 27.816406 50.414062 C 27.816406 47.746094 31.816406 47.746094 31.816406 50.414062 "/>
<path style=" stroke:none;fill-rule:nonzero;fill:rgb(100%,0%,0%);fill-opacity:1;" d="M 186.367188 70.621094 C 186.367188 73.289062 182.367188 73.289062 182.367188 70.621094 C 182.367188 67.953125 186.367188 67.953125 186.367188 70.621094 "/>
<path style=" stroke:none;fill-rule:nonzero;fill:rgb(100%,0%,0%);fill-opacity:1;" d="M 35.777344 70.621094 C 35.777344 73.289062 31.777344 73.289062 31.777344 70.621094 C 31.777344 67.953125 35.777344 67.953125 35.777344 70.621094 "/>
<path style=" stroke:none;fill-rule:nonzero;fill:rgb(100%,0%,0%);fill-opacity:1;" d="M 12 70.621094 C 12 73.289062 8 73.289062 8 70.621094 C 8 67.953125 12 67.953125 12 70.621094 "/>
<path style=" stroke:none;fill-rule:nonzero;fill:rgb(100%,0%,0%);fill-opacity:1;" d="M 206.183594 50.414062 C 206.183594 53.082031 202.183594 53.082031 202.183594 50.414062 C 202.183594 47.746094 206.183594 47.746094 206.183594 50.414062 "/>
<path style=" stroke:none;fill-rule:nonzero;fill:rgb(100%,0%,0%);fill-opacity:1;" d="M 15.964844 50.414062 C 15.964844 53.082031 11.964844 53.082031 11.964844 50.414062 C 11.964844 47.746094 15.964844 47.746094 15.964844 50.414062 "/>
<path style=" stroke:none;fill-rule:nonzero;fill:rgb(100%,0%,0%);fill-opacity:1;" d="M 182.40625 10 C 182.40625 12.667969 178.40625 12.667969 178.40625 10 C 178.40625 7.332031 182.40625 7.332031 182.40625 10 "/>
<path style=" stroke:none;fill-rule:nonzero;fill:rgb(100%,0%,0%);fill-opacity:1;" d="M 39.742188 10 C 39.742188 12.667969 35.742188 12.667969 35.742188 10 C 35.742188 7.332031 39.742188 7.332031 39.742188 10 "/>
<path style=" stroke:none;fill-rule:nonzero;fill:rgb(100%,0%,0%);fill-opacity:1;" d="M 178.441406 30.207031 C 178.441406 32.875 174.441406 32.875 174.441406 30.207031 C 174.441406 27.539062 178.441406 27.539062 178.441406 30.207031 "/>
<path style=" stroke:none;fill-rule:nonzero;fill:rgb(100%,0%,0%);fill-opacity:1;" d="M 43.703125 30.207031 C 43.703125 32.875 39.703125 32.875 39.703125 30.207031 C 39.703125 27.539062 43.703125 27.539062 43.703125 30.207031 "/>
<path style=" stroke:none;fill-rule:nonzero;fill:rgb(100%,0%,0%);fill-opacity:1;" d="M 202.21875 30.207031 C 202.21875 32.875 198.21875 32.875 198.21875 30.207031 C 198.21875 27.539062 202.21875 27.539062 202.21875 30.207031 "/>
<path style=" stroke:none;fill-rule:nonzero;fill:rgb(100%,0%,0%);fill-opacity:1;" d="M 19.925781 30.207031 C 19.925781 32.875 15.925781 32.875 15.925781 30.207031 C 15.925781 27.539062 19.925781 27.539062 19.925781 30.207031 "/>
<path style=" stroke:none;fill-rule:nonzero;fill:rgb(100%,0%,0%);fill-opacity:1;" d="M 198.257812 10 C 198.257812 12.667969 194.257812 12.667969 194.257812 10 C 194.257812 7.332031 198.257812 7.332031 198.257812 10 "/>
<path style=" stroke:none;fill-rule:nonzero;fill:rgb(100%,0%,0%);fill-opacity:1;" d="M 23.890625 10 C 23.890625 12.667969 19.890625 12.667969 19.890625 10 C 19.890625 7.332031 23.890625 7.332031 23.890625 10 "/>
<path style=" stroke:none;fill-rule:nonzero;fill:rgb(100%,0%,0%);fill-opacity:1;" d="M 182.40625 50.414062 C 182.40625 53.082031 178.40625 53.082031 178.40625 50.414062 C 178.40625 47.746094 182.40625 47.746094 182.40625 50.414062 "/>
<path style=" stroke:none;fill-rule:nonzero;fill:rgb(100%,0%,0%);fill-opacity:1;" d="M 39.742188 50.414062 C 39.742188 53.082031 35.742188 53.082031 35.742188 50.414062 C 35.742188 47.746094 39.742188 47.746094 39.742188 50.414062 "/>
<path style=" stroke:none;fill-rule:nonzero;fill:rgb(100%,0%,0%);fill-opacity:1;" d="M 178.441406 70.621094 C 178.441406 73.289062 174.441406 73.289062 174.441406 70.621094 C 174.441406 67.953125 178.441406 67.953125 178.441406 70.621094 "/>
<path style=" stroke:none;fill-rule:nonzero;fill:rgb(100%,0%,0%);fill-opacity:1;" d="M 43.703125 70.621094 C 43.703125 73.289062 39.703125 73.289062 39.703125 70.621094 C 39.703125 67.953125 43.703125 67.953125 43.703125 70.621094 "/>
<path style=" stroke:none;fill-rule:nonzero;fill:rgb(100%,0%,0%);fill-opacity:1;" d="M 202.21875 70.621094 C 202.21875 73.289062 198.21875 73.289062 198.21875 70.621094 C 198.21875 67.953125 202.21875 67.953125 202.21875 70.621094 "/>
<path style=" stroke:none;fill-rule:nonzero;fill:rgb(100%,0%,0%);fill-opacity:1;" d="M 19.925781 70.621094 C 19.925781 73.289062 15.925781 73.289062 15.925781 70.621094 C 15.925781 67.953125 19.925781 67.953125 19.925781 70.621094 "/>
<path style=" stroke:none;fill-rule:nonzero;fill:rgb(100%,0%,0%);fill-opacity:1;" d="M 198.257812 50.414062 C 198.257812 53.082031 194.257812 53.082031 194.257812 50.414062 C 194.257812 47.746094 198.257812 47.746094 198.257812 50.414062 "/>
<path style=" stroke:none;fill-rule:nonzero;fill:rgb(100%,0%,0%);fill-opacity:1;" d="M 23.890625 50.414062 C 23.890625 53.082031 19.890625 53.082031 19.890625 50.414062 C 19.890625 47.746094 23.890625 47.746094 23.890625 50.414062 "/>
<path style=" stroke:none;fill-rule:nonzero;fill:rgb(100%,0%,0%);fill-opacity:1;" d="M 174.480469 10 C 174.480469 12.667969 170.480469 12.667969 170.480469 10 C 170.480469 7.332031 174.480469 7.332031 174.480469 10 "/>
<path style=" stroke:none;fill-rule:nonzero;fill:rgb(100%,0%,0%);fill-opacity:1;" d="M 47.667969 10 C 47.667969 12.667969 43.667969 12.667969 43.667969 10 C 43.667969 7.332031 47.667969 7.332031 47.667969 10 "/>
<path style=" stroke:none;fill-rule:nonzero;fill:rgb(100%,0%,0%);fill-opacity:1;" d="M 194.292969 30.207031 C 194.292969 32.875 190.292969 32.875 190.292969 30.207031 C 190.292969 27.539062 194.292969 27.539062 194.292969 30.207031 "/>
<path style=" stroke:none;fill-rule:nonzero;fill:rgb(100%,0%,0%);fill-opacity:1;" d="M 27.851562 30.207031 C 27.851562 32.875 23.851562 32.875 23.851562 30.207031 C 23.851562 27.539062 27.851562 27.539062 27.851562 30.207031 "/>
<path style=" stroke:none;fill-rule:nonzero;fill:rgb(100%,0%,0%);fill-opacity:1;" d="M 174.480469 50.414062 C 174.480469 53.082031 170.480469 53.082031 170.480469 50.414062 C 170.480469 47.746094 174.480469 47.746094 174.480469 50.414062 "/>
<path style=" stroke:none;fill-rule:nonzero;fill:rgb(100%,0%,0%);fill-opacity:1;" d="M 47.667969 50.414062 C 47.667969 53.082031 43.667969 53.082031 43.667969 50.414062 C 43.667969 47.746094 47.667969 47.746094 47.667969 50.414062 "/>
<path style=" stroke:none;fill-rule:nonzero;fill:rgb(100%,0%,0%);fill-opacity:1;" d="M 194.292969 70.621094 C 194.292969 73.289062 190.292969 73.289062 190.292969 70.621094 C 190.292969 67.953125 194.292969 67.953125 194.292969 70.621094 "/>
<path style=" stroke:none;fill-rule:nonzero;fill:rgb(100%,0%,0%);fill-opacity:1;" d="M 27.851562 70.621094 C 27.851562 73.289062 23.851562 73.289062 23.851562 70.621094 C 23.851562 67.953125 27.851562 67.953125 27.851562 70.621094 "/>
<path style=" stroke:none;fill-rule:nonzero;fill:rgb(0%,0%,100%);fill-opacity:1;" d="M 111.074219 160 C 111.074219 162.667969 107.074219 162.667969 107.074219 160 C 107.074219 157.332031 111.074219 157.332031 111.074219 160 "/>
<path style=" stroke:none;fill-rule:nonzero;fill:rgb(0%,0%,100%);fill-opacity:1;" d="M 130.886719 180.207031 C 130.886719 182.875 126.886719 182.875 126.886719 180.207031 C 126.886719 177.539062 130.886719 177.539062 130.886719 180.207031 "/>
<path style=" stroke:none;fill-rule:nonzero;fill:rgb(0%,0%,100%);fill-opacity:1;" d="M 91.257812 180.207031 C 91.257812 182.875 87.257812 182.875 87.257812 180.207031 C 87.257812 177.539062 91.257812 177.539062 91.257812 180.207031 "/>
<path style=" stroke:none;fill-rule:nonzero;fill:rgb(0%,0%,100%);fill-opacity:1;" d="M 126.925781 160 C 126.925781 162.667969 122.925781 162.667969 122.925781 160 C 122.925781 157.332031 126.925781 157.332031 126.925781 160 "/>
<path style=" stroke:none;fill-rule:nonzero;fill:rgb(0%,0%,100%);fill-opacity:1;" d="M 95.222656 160 C 95.222656 162.667969 91.222656 162.667969 91.222656 160 C 91.222656 157.332031 95.222656 157.332031 95.222656 160 "/>
<path style=" stroke:none;fill-rule:nonzero;fill:rgb(0%,0%,100%);fill-opacity:1;" d="M 111.074219 200.414062 C 111.074219 203.082031 107.074219 203.082031 107.074219 200.414062 C 107.074219 197.746094 111.074219 197.746094 111.074219 200.414062 "/>
<path style=" stroke:none;fill-rule:nonzero;fill:rgb(0%,0%,100%);fill-opacity:1;" d="M 130.886719 220.621094 C 130.886719 223.289062 126.886719 223.289062 126.886719 220.621094 C 126.886719 217.953125 130.886719 217.953125 130.886719 220.621094 "/>
<path style=" stroke:none;fill-rule:nonzero;fill:rgb(0%,0%,100%);fill-opacity:1;" d="M 91.257812 220.621094 C 91.257812 223.289062 87.257812 223.289062 87.257812 220.621094 C 87.257812 217.953125 91.257812 217.953125 91.257812 220.621094 "/>
<path style=" stroke:none;fill-rule:nonzero;fill:rgb(0%,0%,100%);fill-opacity:1;" d="M 126.925781 200.414062 C 126.925781 203.082031 122.925781 203.082031 122.925781 200.414062 C 122.925781 197.746094 126.925781 197.746094 126.925781 200.414062 "/>
<path style=" stroke:none;fill-rule:nonzero;fill:rgb(0%,0%,100%);fill-opacity:1;" d="M 95.222656 200.414062 C 95.222656 203.082031 91.222656 203.082031 91.222656 200.414062 C 91.222656 197.746094 95.222656 197.746094 95.222656 200.414062 "/>
<path style=" stroke:none;fill-rule:nonzero;fill:rgb(0%,0%,100%);fill-opacity:1;" d="M 122.960938 180.207031 C 122.960938 182.875 118.960938 182.875 118.960938 180.207031 C 118.960938 177.539062 122.960938 177.539062 122.960938 180.207031 "/>
<path style=" stroke:none;fill-rule:nonzero;fill:rgb(0%,0%,100%);fill-opacity:1;" d="M 99.183594 180.207031 C 99.183594 182.875 95.183594 182.875 95.183594 180.207031 C 95.183594 177.539062 99.183594 177.539062 99.183594 180.207031 "/>
<path style=" stroke:none;fill-rule:nonzero;fill:rgb(0%,0%,100%);fill-opacity:1;" d="M 119 160 C 119 162.667969 115 162.667969 115 160 C 115 157.332031 119 157.332031 119 160 "/>
<path style=" stroke:none;fill-rule:nonzero;fill:rgb(0%,0%,100%);fill-opacity:1;" d="M 122.960938 220.621094 C 122.960938 223.289062 118.960938 223.289062 118.960938 220.621094 C 118.960938 217.953125 122.960938 217.953125 122.960938 220.621094 "/>
<path style=" stroke:none;fill-rule:nonzero;fill:rgb(0%,0%,100%);fill-opacity:1;" d="M 99.183594 220.621094 C 99.183594 223.289062 95.183594 223.289062 95.183594 220.621094 C 95.183594 217.953125 99.183594 217.953125 99.183594 220.621094 "/>
<path style=" stroke:none;fill-rule:nonzero;fill:rgb(0%,0%,100%);fill-opacity:1;" d="M 103.148438 200.414062 C 103.148438 203.082031 99.148438 203.082031 99.148438 200.414062 C 99.148438 197.746094 103.148438 197.746094 103.148438 200.414062 "/>
<path style=" stroke:none;fill-rule:nonzero;fill:rgb(0%,0%,100%);fill-opacity:1;" d="M 107.109375 180.207031 C 107.109375 182.875 103.109375 182.875 103.109375 180.207031 C 103.109375 177.539062 107.109375 177.539062 107.109375 180.207031 "/>
<path style=" stroke:none;fill-rule:nonzero;fill:rgb(0%,0%,100%);fill-opacity:1;" d="M 115.035156 220.621094 C 115.035156 223.289062 111.035156 223.289062 111.035156 220.621094 C 111.035156 217.953125 115.035156 217.953125 115.035156 220.621094 "/>
<path style=" stroke:none;fill-rule:nonzero;fill:rgb(0%,0%,100%);fill-opacity:1;" d="M 150.703125 160 C 150.703125 162.667969 146.703125 162.667969 146.703125 160 C 146.703125 157.332031 150.703125 157.332031 150.703125 160 "/>
<path style=" stroke:none;fill-rule:nonzero;fill:rgb(0%,0%,100%);fill-opacity:1;" d="M 71.445312 160 C 71.445312 162.667969 67.445312 162.667969 67.445312 160 C 67.445312 157.332031 71.445312 157.332031 71.445312 160 "/>
<path style=" stroke:none;fill-rule:nonzero;fill:rgb(0%,0%,100%);fill-opacity:1;" d="M 146.738281 180.207031 C 146.738281 182.875 142.738281 182.875 142.738281 180.207031 C 142.738281 177.539062 146.738281 177.539062 146.738281 180.207031 "/>
<path style=" stroke:none;fill-rule:nonzero;fill:rgb(0%,0%,100%);fill-opacity:1;" d="M 75.40625 180.207031 C 75.40625 182.875 71.40625 182.875 71.40625 180.207031 C 71.40625 177.539062 75.40625 177.539062 75.40625 180.207031 "/>
<path style=" stroke:none;fill-rule:nonzero;fill:rgb(0%,0%,100%);fill-opacity:1;" d="M 170.515625 180.207031 C 170.515625 182.875 166.515625 182.875 166.515625 180.207031 C 166.515625 177.539062 170.515625 177.539062 170.515625 180.207031 "/>
<path style=" stroke:none;fill-rule:nonzero;fill:rgb(0%,0%,100%);fill-opacity:1;" d="M 51.628906 180.207031 C 51.628906 182.875 47.628906 182.875 47.628906 180.207031 C 47.628906 177.539062 51.628906 177.539062 51.628906 180.207031 "/>
<path style=" stroke:none;fill-rule:nonzero;fill:rgb(0%,0%,100%);fill-opacity:1;" d="M 166.554688 160 C 166.554688 162.667969 162.554688 162.667969 162.554688 160 C 162.554688 157.332031 166.554688 157.332031 166.554688 160 "/>
<path style=" stroke:none;fill-rule:nonzero;fill:rgb(0%,0%,100%);fill-opacity:1;" d="M 55.59375 160 C 55.59375 162.667969 51.59375 162.667969 51.59375 160 C 51.59375 157.332031 55.59375 157.332031 55.59375 160 "/>
<path style=" stroke:none;fill-rule:nonzero;fill:rgb(0%,0%,100%);fill-opacity:1;" d="M 150.703125 200.414062 C 150.703125 203.082031 146.703125 203.082031 146.703125 200.414062 C 146.703125 197.746094 150.703125 197.746094 150.703125 200.414062 "/>
<path style=" stroke:none;fill-rule:nonzero;fill:rgb(0%,0%,100%);fill-opacity:1;" d="M 71.445312 200.414062 C 71.445312 203.082031 67.445312 203.082031 67.445312 200.414062 C 67.445312 197.746094 71.445312 197.746094 71.445312 200.414062 "/>
<path style=" stroke:none;fill-rule:nonzero;fill:rgb(0%,0%,100%);fill-opacity:1;" d="M 146.738281 220.621094 C 146.738281 223.289062 142.738281 223.289062 142.738281 220.621094 C 142.738281 217.953125 146.738281 217.953125 146.738281 220.621094 "/>
<path style=" stroke:none;fill-rule:nonzero;fill:rgb(0%,0%,100%);fill-opacity:1;" d="M 75.40625 220.621094 C 75.40625 223.289062 71.40625 223.289062 71.40625 220.621094 C 71.40625 217.953125 75.40625 217.953125 75.40625 220.621094 "/>
<path style=" stroke:none;fill-rule:nonzero;fill:rgb(0%,0%,100%);fill-opacity:1;" d="M 170.515625 220.621094 C 170.515625 223.289062 166.515625 223.289062 166.515625 220.621094 C 166.515625 217.953125 170.515625 217.953125 170.515625 220.621094 "/>
<path style=" stroke:none;fill-rule:nonzero;fill:rgb(0%,0%,100%);fill-opacity:1;" d="M 51.628906 220.621094 C 51.628906 223.289062 47.628906 223.289062 47.628906 220.621094 C 47.628906 217.953125 51.628906 217.953125 51.628906 220.621094 "/>
<path style=" stroke:none;fill-rule:nonzero;fill:rgb(0%,0%,100%);fill-opacity:1;" d="M 166.554688 200.414062 C 166.554688 203.082031 162.554688 203.082031 162.554688 200.414062 C 162.554688 197.746094 166.554688 197.746094 166.554688 200.414062 "/>
<path style=" stroke:none;fill-rule:nonzero;fill:rgb(0%,0%,100%);fill-opacity:1;" d="M 55.59375 200.414062 C 55.59375 203.082031 51.59375 203.082031 51.59375 200.414062 C 51.59375 197.746094 55.59375 197.746094 55.59375 200.414062 "/>
<path style=" stroke:none;fill-rule:nonzero;fill:rgb(0%,0%,100%);fill-opacity:1;" d="M 142.777344 160 C 142.777344 162.667969 138.777344 162.667969 138.777344 160 C 138.777344 157.332031 142.777344 157.332031 142.777344 160 "/>
<path style=" stroke:none;fill-rule:nonzero;fill:rgb(0%,0%,100%);fill-opacity:1;" d="M 79.371094 160 C 79.371094 162.667969 75.371094 162.667969 75.371094 160 C 75.371094 157.332031 79.371094 157.332031 79.371094 160 "/>
<path style=" stroke:none;fill-rule:nonzero;fill:rgb(0%,0%,100%);fill-opacity:1;" d="M 138.8125 180.207031 C 138.8125 182.875 134.8125 182.875 134.8125 180.207031 C 134.8125 177.539062 138.8125 177.539062 138.8125 180.207031 "/>
<path style=" stroke:none;fill-rule:nonzero;fill:rgb(0%,0%,100%);fill-opacity:1;" d="M 83.332031 180.207031 C 83.332031 182.875 79.332031 182.875 79.332031 180.207031 C 79.332031 177.539062 83.332031 177.539062 83.332031 180.207031 "/>
<path style=" stroke:none;fill-rule:nonzero;fill:rgb(0%,0%,100%);fill-opacity:1;" d="M 162.589844 180.207031 C 162.589844 182.875 158.589844 182.875 158.589844 180.207031 C 158.589844 177.539062 162.589844 177.539062 162.589844 180.207031 "/>
<path style=" stroke:none;fill-rule:nonzero;fill:rgb(0%,0%,100%);fill-opacity:1;" d="M 59.554688 180.207031 C 59.554688 182.875 55.554688 182.875 55.554688 180.207031 C 55.554688 177.539062 59.554688 177.539062 59.554688 180.207031 "/>
<path style=" stroke:none;fill-rule:nonzero;fill:rgb(0%,0%,100%);fill-opacity:1;" d="M 158.628906 160 C 158.628906 162.667969 154.628906 162.667969 154.628906 160 C 154.628906 157.332031 158.628906 157.332031 158.628906 160 "/>
<path style=" stroke:none;fill-rule:nonzero;fill:rgb(0%,0%,100%);fill-opacity:1;" d="M 63.519531 160 C 63.519531 162.667969 59.519531 162.667969 59.519531 160 C 59.519531 157.332031 63.519531 157.332031 63.519531 160 "/>
<path style=" stroke:none;fill-rule:nonzero;fill:rgb(0%,0%,100%);fill-opacity:1;" d="M 142.777344 200.414062 C 142.777344 203.082031 138.777344 203.082031 138.777344 200.414062 C 138.777344 197.746094 142.777344 197.746094 142.777344 200.414062 "/>
<path style=" stroke:none;fill-rule:nonzero;fill:rgb(0%,0%,100%);fill-opacity:1;" d="M 79.371094 200.414062 C 79.371094 203.082031 75.371094 203.082031 75.371094 200.414062 C 75.371094 197.746094 79.371094 197.746094 79.371094 200.414062 "/>
<path style=" stroke:none;fill-rule:nonzero;fill:rgb(0%,0%,100%);fill-opacity:1;" d="M 138.8125 220.621094 C 138.8125 223.289062 134.8125 223.289062 134.8125 220.621094 C 134.8125 217.953125 138.8125 217.953125 138.8125 220.621094 "/>
<path style=" stroke:none;fill-rule:nonzero;fill:rgb(0%,0%,100%);fill-opacity:1;" d="M 83.332031 220.621094 C 83.332031 223.289062 79.332031 223.289062 79.332031 220.621094 C 79.332031 217.953125 83.332031 217.953125 83.332031 220.621094 "/>
<path style=" stroke:none;fill-rule:nonzero;fill:rgb(0%,0%,100%);fill-opacity:1;" d="M 162.589844 220.621094 C 162.589844 223.289062 158.589844 223.289062 158.589844 220.621094 C 158.589844 217.953125 162.589844 217.953125 162.589844 220.621094 "/>
<path style=" stroke:none;fill-rule:nonzero;fill:rgb(0%,0%,100%);fill-opacity:1;" d="M 59.554688 220.621094 C 59.554688 223.289062 55.554688 223.289062 55.554688 220.621094 C 55.554688 217.953125 59.554688 217.953125 59.554688 220.621094 "/>
<path style=" stroke:none;fill-rule:nonzero;fill:rgb(0%,0%,100%);fill-opacity:1;" d="M 158.628906 200.414062 C 158.628906 203.082031 154.628906 203.082031 154.628906 200.414062 C 154.628906 197.746094 158.628906 197.746094 158.628906 200.414062 "/>
<path style=" stroke:none;fill-rule:nonzero;fill:rgb(0%,0%,100%);fill-opacity:1;" d="M 63.519531 200.414062 C 63.519531 203.082031 59.519531 203.082031 59.519531 200.414062 C 59.519531 197.746094 63.519531 197.746094 63.519531 200.414062 "/>
<path style=" stroke:none;fill-rule:nonzero;fill:rgb(0%,0%,100%);fill-opacity:1;" d="M 134.851562 160 C 134.851562 162.667969 130.851562 162.667969 130.851562 160 C 130.851562 157.332031 134.851562 157.332031 134.851562 160 "/>
<path style=" stroke:none;fill-rule:nonzero;fill:rgb(0%,0%,100%);fill-opacity:1;" d="M 87.296875 160 C 87.296875 162.667969 83.296875 162.667969 83.296875 160 C 83.296875 157.332031 87.296875 157.332031 87.296875 160 "/>
<path style=" stroke:none;fill-rule:nonzero;fill:rgb(0%,0%,100%);fill-opacity:1;" d="M 154.664062 180.207031 C 154.664062 182.875 150.664062 182.875 150.664062 180.207031 C 150.664062 177.539062 154.664062 177.539062 154.664062 180.207031 "/>
<path style=" stroke:none;fill-rule:nonzero;fill:rgb(0%,0%,100%);fill-opacity:1;" d="M 67.480469 180.207031 C 67.480469 182.875 63.480469 182.875 63.480469 180.207031 C 63.480469 177.539062 67.480469 177.539062 67.480469 180.207031 "/>
<path style=" stroke:none;fill-rule:nonzero;fill:rgb(0%,0%,100%);fill-opacity:1;" d="M 134.851562 200.414062 C 134.851562 203.082031 130.851562 203.082031 130.851562 200.414062 C 130.851562 197.746094 134.851562 197.746094 134.851562 200.414062 "/>
<path style=" stroke:none;fill-rule:nonzero;fill:rgb(0%,0%,100%);fill-opacity:1;" d="M 87.296875 200.414062 C 87.296875 203.082031 83.296875 203.082031 83.296875 200.414062 C 83.296875 197.746094 87.296875 197.746094 87.296875 200.414062 "/>
<path style=" stroke:none;fill-rule:nonzero;fill:rgb(0%,0%,100%);fill-opacity:1;" d="M 154.664062 220.621094 C 154.664062 223.289062 150.664062 223.289062 150.664062 220.621094 C 150.664062 217.953125 154.664062 217.953125 154.664062 220.621094 "/>
<path style=" stroke:none;fill-rule:nonzero;fill:rgb(0%,0%,100%);fill-opacity:1;" d="M 67.480469 220.621094 C 67.480469 223.289062 63.480469 223.289062 63.480469 220.621094 C 63.480469 217.953125 67.480469 217.953125 67.480469 220.621094 "/>
<path style=" stroke:none;fill-rule:nonzero;fill:rgb(0%,0%,100%);fill-opacity:1;" d="M 190.332031 160 C 190.332031 162.667969 186.332031 162.667969 186.332031 160 C 186.332031 157.332031 190.332031 157.332031 190.332031 160 "/>
<path style=" stroke:none;fill-rule:nonzero;fill:rgb(0%,0%,100%);fill-opacity:1;" d="M 31.816406 160 C 31.816406 162.667969 27.816406 162.667969 27.816406 160 C 27.816406 157.332031 31.816406 157.332031 31.816406 160 "/>
<path style=" stroke:none;fill-rule:nonzero;fill:rgb(0%,0%,100%);fill-opacity:1;" d="M 186.367188 180.207031 C 186.367188 182.875 182.367188 182.875 182.367188 180.207031 C 182.367188 177.539062 186.367188 177.539062 186.367188 180.207031 "/>
<path style=" stroke:none;fill-rule:nonzero;fill:rgb(0%,0%,100%);fill-opacity:1;" d="M 35.777344 180.207031 C 35.777344 182.875 31.777344 182.875 31.777344 180.207031 C 31.777344 177.539062 35.777344 177.539062 35.777344 180.207031 "/>
<path style=" stroke:none;fill-rule:nonzero;fill:rgb(0%,0%,100%);fill-opacity:1;" d="M 12 180.207031 C 12 182.875 8 182.875 8 180.207031 C 8 177.539062 12 177.539062 12 180.207031 "/>
<path style=" stroke:none;fill-rule:nonzero;fill:rgb(0%,0%,100%);fill-opacity:1;" d="M 15.964844 160 C 15.964844 162.667969 11.964844 162.667969 11.964844 160 C 11.964844 157.332031 15.964844 157.332031 15.964844 160 "/>
<path style=" stroke:none;fill-rule:nonzero;fill:rgb(0%,0%,100%);fill-opacity:1;" d="M 190.332031 200.414062 C 190.332031 203.082031 186.332031 203.082031 186.332031 200.414062 C 186.332031 197.746094 190.332031 197.746094 190.332031 200.414062 "/>
<path style=" stroke:none;fill-rule:nonzero;fill:rgb(0%,0%,100%);fill-opacity:1;" d="M 31.816406 200.414062 C 31.816406 203.082031 27.816406 203.082031 27.816406 200.414062 C 27.816406 197.746094 31.816406 197.746094 31.816406 200.414062 "/>
<path style=" stroke:none;fill-rule:nonzero;fill:rgb(0%,0%,100%);fill-opacity:1;" d="M 186.367188 220.621094 C 186.367188 223.289062 182.367188 223.289062 182.367188 220.621094 C 182.367188 217.953125 186.367188 217.953125 186.367188 220.621094 "/>
<path style=" stroke:none;fill-rule:nonzero;fill:rgb(0%,0%,100%);fill-opacity:1;" d="M 35.777344 220.621094 C 35.777344 223.289062 31.777344 223.289062 31.777344 220.621094 C 31.777344 217.953125 35.777344 217.953125 35.777344 220.621094 "/>
<path style=" stroke:none;fill-rule:nonzero;fill:rgb(0%,0%,100%);fill-opacity:1;" d="M 12 220.621094 C 12 223.289062 8 223.289062 8 220.621094 C 8 217.953125 12 217.953125 12 220.621094 "/>
<path style=" stroke:none;fill-rule:nonzero;fill:rgb(0%,0%,100%);fill-opacity:1;" d="M 15.964844 200.414062 C 15.964844 203.082031 11.964844 203.082031 11.964844 200.414062 C 11.964844 197.746094 15.964844 197.746094 15.964844 200.414062 "/>
<path style=" stroke:none;fill-rule:nonzero;fill:rgb(0%,0%,100%);fill-opacity:1;" d="M 182.40625 160 C 182.40625 162.667969 178.40625 162.667969 178.40625 160 C 178.40625 157.332031 182.40625 157.332031 182.40625 160 "/>
<path style=" stroke:none;fill-rule:nonzero;fill:rgb(0%,0%,100%);fill-opacity:1;" d="M 39.742188 160 C 39.742188 162.667969 35.742188 162.667969 35.742188 160 C 35.742188 157.332031 39.742188 157.332031 39.742188 160 "/>
<path style=" stroke:none;fill-rule:nonzero;fill:rgb(0%,0%,100%);fill-opacity:1;" d="M 178.441406 180.207031 C 178.441406 182.875 174.441406 182.875 174.441406 180.207031 C 174.441406 177.539062 178.441406 177.539062 178.441406 180.207031 "/>
<path style=" stroke:none;fill-rule:nonzero;fill:rgb(0%,0%,100%);fill-opacity:1;" d="M 43.703125 180.207031 C 43.703125 182.875 39.703125 182.875 39.703125 180.207031 C 39.703125 177.539062 43.703125 177.539062 43.703125 180.207031 "/>
<path style=" stroke:none;fill-rule:nonzero;fill:rgb(0%,0%,100%);fill-opacity:1;" d="M 202.21875 180.207031 C 202.21875 182.875 198.21875 182.875 198.21875 180.207031 C 198.21875 177.539062 202.21875 177.539062 202.21875 180.207031 "/>
<path style=" stroke:none;fill-rule:nonzero;fill:rgb(0%,0%,100%);fill-opacity:1;" d="M 198.257812 160 C 198.257812 162.667969 194.257812 162.667969 194.257812 160 C 194.257812 157.332031 198.257812 157.332031 198.257812 160 "/>
<path style=" stroke:none;fill-rule:nonzero;fill:rgb(0%,0%,100%);fill-opacity:1;" d="M 23.890625 160 C 23.890625 162.667969 19.890625 162.667969 19.890625 160 C 19.890625 157.332031 23.890625 157.332031 23.890625 160 "/>
<path style=" stroke:none;fill-rule:nonzero;fill:rgb(0%,0%,100%);fill-opacity:1;" d="M 182.40625 200.414062 C 182.40625 203.082031 178.40625 203.082031 178.40625 200.414062 C 178.40625 197.746094 182.40625 197.746094 182.40625 200.414062 "/>
<path style=" stroke:none;fill-rule:nonzero;fill:rgb(0%,0%,100%);fill-opacity:1;" d="M 39.742188 200.414062 C 39.742188 203.082031 35.742188 203.082031 35.742188 200.414062 C 35.742188 197.746094 39.742188 197.746094 39.742188 200.414062 "/>
<path style=" stroke:none;fill-rule:nonzero;fill:rgb(0%,0%,100%);fill-opacity:1;" d="M 178.441406 220.621094 C 178.441406 223.289062 174.441406 223.289062 174.441406 220.621094 C 174.441406 217.953125 178.441406 217.953125 178.441406 220.621094 "/>
<path style=" stroke:none;fill-rule:nonzero;fill:rgb(0%,0%,100%);fill-opacity:1;" d="M 43.703125 220.621094 C 43.703125 223.289062 39.703125 223.289062 39.703125 220.621094 C 39.703125 217.953125 43.703125 217.953125 43.703125 220.621094 "/>
<path style=" stroke:none;fill-rule:nonzero;fill:rgb(0%,0%,100%);fill-opacity:1;" d="M 202.21875 220.621094 C 202.21875 223.289062 198.21875 223.289062 198.21875 220.621094 C 198.21875 217.953125 202.21875 217.953125 202.21875 220.621094 "/>
<path style=" stroke:none;fill-rule:nonzero;fill:rgb(0%,0%,100%);fill-opacity:1;" d="M 198.257812 200.414062 C 198.257812 203.082031 194.257812 203.082031 194.257812 200.414062 C 194.257812 197.746094 198.257812 197.746094 198.257812 200.414062 "/>
<path style=" stroke:none;fill-rule:nonzero;fill:rgb(0%,0%,100%);fill-opacity:1;" d="M 23.890625 200.414062 C 23.890625 203.082031 19.890625 203.082031 19.890625 200.414062 C 19.890625 197.746094 23.890625 197.746094 23.890625 200.414062 "/>
<path style=" stroke:none;fill-rule:nonzero;fill:rgb(0%,0%,100%);fill-opacity:1;" d="M 174.480469 160 C 174.480469 162.667969 170.480469 162.667969 170.480469 160 C 170.480469 157.332031 174.480469 157.332031 174.480469 160 "/>
<path style=" stroke:none;fill-rule:nonzero;fill:rgb(0%,0%,100%);fill-opacity:1;" d="M 47.667969 160 C 47.667969 162.667969 43.667969 162.667969 43.667969 160 C 43.667969 157.332031 47.667969 157.332031 47.667969 160 "/>
<path style=" stroke:none;fill-rule:nonzero;fill:rgb(0%,0%,100%);fill-opacity:1;" d="M 194.292969 180.207031 C 194.292969 182.875 190.292969 182.875 190.292969 180.207031 C 190.292969 177.539062 194.292969 177.539062 194.292969 180.207031 "/>
<path style=" stroke:none;fill-rule:nonzero;fill:rgb(0%,0%,100%);fill-opacity:1;" d="M 27.851562 180.207031 C 27.851562 182.875 23.851562 182.875 23.851562 180.207031 C 23.851562 177.539062 27.851562 177.539062 27.851562 180.207031 "/>
<path style=" stroke:none;fill-rule:nonzero;fill:rgb(0%,0%,100%);fill-opacity:1;" d="M 174.480469 200.414062 C 174.480469 203.082031 170.480469 203.082031 170.480469 200.414062 C 170.480469 197.746094 174.480469 197.746094 174.480469 200.414062 "/>
<path style=" stroke:none;fill-rule:nonzero;fill:rgb(0%,0%,100%);fill-opacity:1;" d="M 47.667969 200.414062 C 47.667969 203.082031 43.667969 203.082031 43.667969 200.414062 C 43.667969 197.746094 47.667969 197.746094 47.667969 200.414062 "/>
<path style=" stroke:none;fill-rule:nonzero;fill:rgb(0%,0%,100%);fill-opacity:1;" d="M 194.292969 220.621094 C 194.292969 223.289062 190.292969 223.289062 190.292969 220.621094 C 190.292969 217.953125 194.292969 217.953125 194.292969 220.621094 "/>
<path style=" stroke:none;fill-rule:nonzero;fill:rgb(0%,0%,100%);fill-opacity:1;" d="M 27.851562 220.621094 C 27.851562 223.289062 23.851562 223.289062 23.851562 220.621094 C 23.851562 217.953125 27.851562 217.953125 27.851562 220.621094 "/>
<path style=" stroke:none;fill-rule:nonzero;fill:rgb(100%,0%,100%);fill-opacity:1;" d="M 336.074219 160 C 336.074219 162.667969 332.074219 162.667969 332.074219 160 C 332.074219 157.332031 336.074219 157.332031 336.074219 160 "/>
<path style=" stroke:none;fill-rule:nonzero;fill:rgb(100%,0%,100%);fill-opacity:1;" d="M 355.886719 180.207031 C 355.886719 182.875 351.886719 182.875 351.886719 180.207031 C 351.886719 177.539062 355.886719 177.539062 355.886719 180.207031 "/>
<path style=" stroke:none;fill-rule:nonzero;fill:rgb(100%,0%,100%);fill-opacity:1;" d="M 316.257812 180.207031 C 316.257812 182.875 312.257812 182.875 312.257812 180.207031 C 312.257812 177.539062 316.257812 177.539062 316.257812 180.207031 "/>
<path style=" stroke:none;fill-rule:nonzero;fill:rgb(100%,0%,100%);fill-opacity:1;" d="M 351.925781 160 C 351.925781 162.667969 347.925781 162.667969 347.925781 160 C 347.925781 157.332031 351.925781 157.332031 351.925781 160 "/>
<path style=" stroke:none;fill-rule:nonzero;fill:rgb(100%,0%,100%);fill-opacity:1;" d="M 320.222656 160 C 320.222656 162.667969 316.222656 162.667969 316.222656 160 C 316.222656 157.332031 320.222656 157.332031 320.222656 160 "/>
<path style=" stroke:none;fill-rule:nonzero;fill:rgb(100%,0%,100%);fill-opacity:1;" d="M 336.074219 200.414062 C 336.074219 203.082031 332.074219 203.082031 332.074219 200.414062 C 332.074219 197.746094 336.074219 197.746094 336.074219 200.414062 "/>
<path style=" stroke:none;fill-rule:nonzero;fill:rgb(100%,0%,100%);fill-opacity:1;" d="M 355.886719 220.621094 C 355.886719 223.289062 351.886719 223.289062 351.886719 220.621094 C 351.886719 217.953125 355.886719 217.953125 355.886719 220.621094 "/>
<path style=" stroke:none;fill-rule:nonzero;fill:rgb(100%,0%,100%);fill-opacity:1;" d="M 316.257812 220.621094 C 316.257812 223.289062 312.257812 223.289062 312.257812 220.621094 C 312.257812 217.953125 316.257812 217.953125 316.257812 220.621094 "/>
<path style=" stroke:none;fill-rule:nonzero;fill:rgb(100%,0%,100%);fill-opacity:1;" d="M 351.925781 200.414062 C 351.925781 203.082031 347.925781 203.082031 347.925781 200.414062 C 347.925781 197.746094 351.925781 197.746094 351.925781 200.414062 "/>
<path style=" stroke:none;fill-rule:nonzero;fill:rgb(100%,0%,100%);fill-opacity:1;" d="M 320.222656 200.414062 C 320.222656 203.082031 316.222656 203.082031 316.222656 200.414062 C 316.222656 197.746094 320.222656 197.746094 320.222656 200.414062 "/>
<path style=" stroke:none;fill-rule:nonzero;fill:rgb(100%,0%,100%);fill-opacity:1;" d="M 347.960938 180.207031 C 347.960938 182.875 343.960938 182.875 343.960938 180.207031 C 343.960938 177.539062 347.960938 177.539062 347.960938 180.207031 "/>
<path style=" stroke:none;fill-rule:nonzero;fill:rgb(100%,0%,100%);fill-opacity:1;" d="M 324.183594 180.207031 C 324.183594 182.875 320.183594 182.875 320.183594 180.207031 C 320.183594 177.539062 324.183594 177.539062 324.183594 180.207031 "/>
<path style=" stroke:none;fill-rule:nonzero;fill:rgb(100%,0%,100%);fill-opacity:1;" d="M 344 160 C 344 162.667969 340 162.667969 340 160 C 340 157.332031 344 157.332031 344 160 "/>
<path style=" stroke:none;fill-rule:nonzero;fill:rgb(100%,0%,100%);fill-opacity:1;" d="M 347.960938 220.621094 C 347.960938 223.289062 343.960938 223.289062 343.960938 220.621094 C 343.960938 217.953125 347.960938 217.953125 347.960938 220.621094 "/>
<path style=" stroke:none;fill-rule:nonzero;fill:rgb(100%,0%,100%);fill-opacity:1;" d="M 324.183594 220.621094 C 324.183594 223.289062 320.183594 223.289062 320.183594 220.621094 C 320.183594 217.953125 324.183594 217.953125 324.183594 220.621094 "/>
<path style=" stroke:none;fill-rule:nonzero;fill:rgb(100%,0%,100%);fill-opacity:1;" d="M 328.148438 200.414062 C 328.148438 203.082031 324.148438 203.082031 324.148438 200.414062 C 324.148438 197.746094 328.148438 197.746094 328.148438 200.414062 "/>
<path style=" stroke:none;fill-rule:nonzero;fill:rgb(100%,0%,100%);fill-opacity:1;" d="M 332.109375 180.207031 C 332.109375 182.875 328.109375 182.875 328.109375 180.207031 C 328.109375 177.539062 332.109375 177.539062 332.109375 180.207031 "/>
<path style=" stroke:none;fill-rule:nonzero;fill:rgb(100%,0%,100%);fill-opacity:1;" d="M 340.035156 220.621094 C 340.035156 223.289062 336.035156 223.289062 336.035156 220.621094 C 336.035156 217.953125 340.035156 217.953125 340.035156 220.621094 "/>
<path style=" stroke:none;fill-rule:nonzero;fill:rgb(100%,0%,100%);fill-opacity:1;" d="M 375.703125 160 C 375.703125 162.667969 371.703125 162.667969 371.703125 160 C 371.703125 157.332031 375.703125 157.332031 375.703125 160 "/>
<path style=" stroke:none;fill-rule:nonzero;fill:rgb(100%,0%,100%);fill-opacity:1;" d="M 296.445312 160 C 296.445312 162.667969 292.445312 162.667969 292.445312 160 C 292.445312 157.332031 296.445312 157.332031 296.445312 160 "/>
<path style=" stroke:none;fill-rule:nonzero;fill:rgb(100%,0%,100%);fill-opacity:1;" d="M 371.738281 180.207031 C 371.738281 182.875 367.738281 182.875 367.738281 180.207031 C 367.738281 177.539062 371.738281 177.539062 371.738281 180.207031 "/>
<path style=" stroke:none;fill-rule:nonzero;fill:rgb(100%,0%,100%);fill-opacity:1;" d="M 300.40625 180.207031 C 300.40625 182.875 296.40625 182.875 296.40625 180.207031 C 296.40625 177.539062 300.40625 177.539062 300.40625 180.207031 "/>
<path style=" stroke:none;fill-rule:nonzero;fill:rgb(100%,0%,100%);fill-opacity:1;" d="M 395.515625 180.207031 C 395.515625 182.875 391.515625 182.875 391.515625 180.207031 C 391.515625 177.539062 395.515625 177.539062 395.515625 180.207031 "/>
<path style=" stroke:none;fill-rule:nonzero;fill:rgb(100%,0%,100%);fill-opacity:1;" d="M 276.628906 180.207031 C 276.628906 182.875 272.628906 182.875 272.628906 180.207031 C 272.628906 177.539062 276.628906 177.539062 276.628906 180.207031 "/>
<path style=" stroke:none;fill-rule:nonzero;fill:rgb(100%,0%,100%);fill-opacity:1;" d="M 391.554688 160 C 391.554688 162.667969 387.554688 162.667969 387.554688 160 C 387.554688 157.332031 391.554688 157.332031 391.554688 160 "/>
<path style=" stroke:none;fill-rule:nonzero;fill:rgb(100%,0%,100%);fill-opacity:1;" d="M 280.59375 160 C 280.59375 162.667969 276.59375 162.667969 276.59375 160 C 276.59375 157.332031 280.59375 157.332031 280.59375 160 "/>
<path style=" stroke:none;fill-rule:nonzero;fill:rgb(100%,0%,100%);fill-opacity:1;" d="M 375.703125 200.414062 C 375.703125 203.082031 371.703125 203.082031 371.703125 200.414062 C 371.703125 197.746094 375.703125 197.746094 375.703125 200.414062 "/>
<path style=" stroke:none;fill-rule:nonzero;fill:rgb(100%,0%,100%);fill-opacity:1;" d="M 296.445312 200.414062 C 296.445312 203.082031 292.445312 203.082031 292.445312 200.414062 C 292.445312 197.746094 296.445312 197.746094 296.445312 200.414062 "/>
<path style=" stroke:none;fill-rule:nonzero;fill:rgb(100%,0%,100%);fill-opacity:1;" d="M 371.738281 220.621094 C 371.738281 223.289062 367.738281 223.289062 367.738281 220.621094 C 367.738281 217.953125 371.738281 217.953125 371.738281 220.621094 "/>
<path style=" stroke:none;fill-rule:nonzero;fill:rgb(100%,0%,100%);fill-opacity:1;" d="M 300.40625 220.621094 C 300.40625 223.289062 296.40625 223.289062 296.40625 220.621094 C 296.40625 217.953125 300.40625 217.953125 300.40625 220.621094 "/>
<path style=" stroke:none;fill-rule:nonzero;fill:rgb(100%,0%,100%);fill-opacity:1;" d="M 395.515625 220.621094 C 395.515625 223.289062 391.515625 223.289062 391.515625 220.621094 C 391.515625 217.953125 395.515625 217.953125 395.515625 220.621094 "/>
<path style=" stroke:none;fill-rule:nonzero;fill:rgb(100%,0%,100%);fill-opacity:1;" d="M 276.628906 220.621094 C 276.628906 223.289062 272.628906 223.289062 272.628906 220.621094 C 272.628906 217.953125 276.628906 217.953125 276.628906 220.621094 "/>
<path style=" stroke:none;fill-rule:nonzero;fill:rgb(100%,0%,100%);fill-opacity:1;" d="M 391.554688 200.414062 C 391.554688 203.082031 387.554688 203.082031 387.554688 200.414062 C 387.554688 197.746094 391.554688 197.746094 391.554688 200.414062 "/>
<path style=" stroke:none;fill-rule:nonzero;fill:rgb(100%,0%,100%);fill-opacity:1;" d="M 280.59375 200.414062 C 280.59375 203.082031 276.59375 203.082031 276.59375 200.414062 C 276.59375 197.746094 280.59375 197.746094 280.59375 200.414062 "/>
<path style=" stroke:none;fill-rule:nonzero;fill:rgb(100%,0%,100%);fill-opacity:1;" d="M 367.777344 160 C 367.777344 162.667969 363.777344 162.667969 363.777344 160 C 363.777344 157.332031 367.777344 157.332031 367.777344 160 "/>
<path style=" stroke:none;fill-rule:nonzero;fill:rgb(100%,0%,100%);fill-opacity:1;" d="M 304.371094 160 C 304.371094 162.667969 300.371094 162.667969 300.371094 160 C 300.371094 157.332031 304.371094 157.332031 304.371094 160 "/>
<path style=" stroke:none;fill-rule:nonzero;fill:rgb(100%,0%,100%);fill-opacity:1;" d="M 363.8125 180.207031 C 363.8125 182.875 359.8125 182.875 359.8125 180.207031 C 359.8125 177.539062 363.8125 177.539062 363.8125 180.207031 "/>
<path style=" stroke:none;fill-rule:nonzero;fill:rgb(100%,0%,100%);fill-opacity:1;" d="M 308.332031 180.207031 C 308.332031 182.875 304.332031 182.875 304.332031 180.207031 C 304.332031 177.539062 308.332031 177.539062 308.332031 180.207031 "/>
<path style=" stroke:none;fill-rule:nonzero;fill:rgb(100%,0%,100%);fill-opacity:1;" d="M 387.589844 180.207031 C 387.589844 182.875 383.589844 182.875 383.589844 180.207031 C 383.589844 177.539062 387.589844 177.539062 387.589844 180.207031 "/>
<path style=" stroke:none;fill-rule:nonzero;fill:rgb(100%,0%,100%);fill-opacity:1;" d="M 284.554688 180.207031 C 284.554688 182.875 280.554688 182.875 280.554688 180.207031 C 280.554688 177.539062 284.554688 177.539062 284.554688 180.207031 "/>
<path style=" stroke:none;fill-rule:nonzero;fill:rgb(100%,0%,100%);fill-opacity:1;" d="M 383.628906 160 C 383.628906 162.667969 379.628906 162.667969 379.628906 160 C 379.628906 157.332031 383.628906 157.332031 383.628906 160 "/>
<path style=" stroke:none;fill-rule:nonzero;fill:rgb(100%,0%,100%);fill-opacity:1;" d="M 288.519531 160 C 288.519531 162.667969 284.519531 162.667969 284.519531 160 C 284.519531 157.332031 288.519531 157.332031 288.519531 160 "/>
<path style=" stroke:none;fill-rule:nonzero;fill:rgb(100%,0%,100%);fill-opacity:1;" d="M 367.777344 200.414062 C 367.777344 203.082031 363.777344 203.082031 363.777344 200.414062 C 363.777344 197.746094 367.777344 197.746094 367.777344 200.414062 "/>
<path style=" stroke:none;fill-rule:nonzero;fill:rgb(100%,0%,100%);fill-opacity:1;" d="M 304.371094 200.414062 C 304.371094 203.082031 300.371094 203.082031 300.371094 200.414062 C 300.371094 197.746094 304.371094 197.746094 304.371094 200.414062 "/>
<path style=" stroke:none;fill-rule:nonzero;fill:rgb(100%,0%,100%);fill-opacity:1;" d="M 363.8125 220.621094 C 363.8125 223.289062 359.8125 223.289062 359.8125 220.621094 C 359.8125 217.953125 363.8125 217.953125 363.8125 220.621094 "/>
<path style=" stroke:none;fill-rule:nonzero;fill:rgb(100%,0%,100%);fill-opacity:1;" d="M 308.332031 220.621094 C 308.332031 223.289062 304.332031 223.289062 304.332031 220.621094 C 304.332031 217.953125 308.332031 217.953125 308.332031 220.621094 "/>
<path style=" stroke:none;fill-rule:nonzero;fill:rgb(100%,0%,100%);fill-opacity:1;" d="M 387.589844 220.621094 C 387.589844 223.289062 383.589844 223.289062 383.589844 220.621094 C 383.589844 217.953125 387.589844 217.953125 387.589844 220.621094 "/>
<path style=" stroke:none;fill-rule:nonzero;fill:rgb(100%,0%,100%);fill-opacity:1;" d="M 284.554688 220.621094 C 284.554688 223.289062 280.554688 223.289062 280.554688 220.621094 C 280.554688 217.953125 284.554688 217.953125 284.554688 220.621094 "/>
<path style=" stroke:none;fill-rule:nonzero;fill:rgb(100%,0%,100%);fill-opacity:1;" d="M 383.628906 200.414062 C 383.628906 203.082031 379.628906 203.082031 379.628906 200.414062 C 379.628906 197.746094 383.628906 197.746094 383.628906 200.414062 "/>
<path style=" stroke:none;fill-rule:nonzero;fill:rgb(100%,0%,100%);fill-opacity:1;" d="M 288.519531 200.414062 C 288.519531 203.082031 284.519531 203.082031 284.519531 200.414062 C 284.519531 197.746094 288.519531 197.746094 288.519531 200.414062 "/>
<path style=" stroke:none;fill-rule:nonzero;fill:rgb(100%,0%,100%);fill-opacity:1;" d="M 359.851562 160 C 359.851562 162.667969 355.851562 162.667969 355.851562 160 C 355.851562 157.332031 359.851562 157.332031 359.851562 160 "/>
<path style=" stroke:none;fill-rule:nonzero;fill:rgb(100%,0%,100%);fill-opacity:1;" d="M 312.296875 160 C 312.296875 162.667969 308.296875 162.667969 308.296875 160 C 308.296875 157.332031 312.296875 157.332031 312.296875 160 "/>
<path style=" stroke:none;fill-rule:nonzero;fill:rgb(100%,0%,100%);fill-opacity:1;" d="M 379.664062 180.207031 C 379.664062 182.875 375.664062 182.875 375.664062 180.207031 C 375.664062 177.539062 379.664062 177.539062 379.664062 180.207031 "/>
<path style=" stroke:none;fill-rule:nonzero;fill:rgb(100%,0%,100%);fill-opacity:1;" d="M 292.480469 180.207031 C 292.480469 182.875 288.480469 182.875 288.480469 180.207031 C 288.480469 177.539062 292.480469 177.539062 292.480469 180.207031 "/>
<path style=" stroke:none;fill-rule:nonzero;fill:rgb(100%,0%,100%);fill-opacity:1;" d="M 359.851562 200.414062 C 359.851562 203.082031 355.851562 203.082031 355.851562 200.414062 C 355.851562 197.746094 359.851562 197.746094 359.851562 200.414062 "/>
<path style=" stroke:none;fill-rule:nonzero;fill:rgb(100%,0%,100%);fill-opacity:1;" d="M 312.296875 200.414062 C 312.296875 203.082031 308.296875 203.082031 308.296875 200.414062 C 308.296875 197.746094 312.296875 197.746094 312.296875 200.414062 "/>
<path style=" stroke:none;fill-rule:nonzero;fill:rgb(100%,0%,100%);fill-opacity:1;" d="M 379.664062 220.621094 C 379.664062 223.289062 375.664062 223.289062 375.664062 220.621094 C 375.664062 217.953125 379.664062 217.953125 379.664062 220.621094 "/>
<path style=" stroke:none;fill-rule:nonzero;fill:rgb(100%,0%,100%);fill-opacity:1;" d="M 292.480469 220.621094 C 292.480469 223.289062 288.480469 223.289062 288.480469 220.621094 C 288.480469 217.953125 292.480469 217.953125 292.480469 220.621094 "/>
<path style=" stroke:none;fill-rule:nonzero;fill:rgb(100%,0%,100%);fill-opacity:1;" d="M 415.332031 160 C 415.332031 162.667969 411.332031 162.667969 411.332031 160 C 411.332031 157.332031 415.332031 157.332031 415.332031 160 "/>
<path style=" stroke:none;fill-rule:nonzero;fill:rgb(100%,0%,100%);fill-opacity:1;" d="M 256.816406 160 C 256.816406 162.667969 252.816406 162.667969 252.816406 160 C 252.816406 157.332031 256.816406 157.332031 256.816406 160 "/>
<path style=" stroke:none;fill-rule:nonzero;fill:rgb(100%,0%,100%);fill-opacity:1;" d="M 411.367188 180.207031 C 411.367188 182.875 407.367188 182.875 407.367188 180.207031 C 407.367188 177.539062 411.367188 177.539062 411.367188 180.207031 "/>
<path style=" stroke:none;fill-rule:nonzero;fill:rgb(100%,0%,100%);fill-opacity:1;" d="M 260.777344 180.207031 C 260.777344 182.875 256.777344 182.875 256.777344 180.207031 C 256.777344 177.539062 260.777344 177.539062 260.777344 180.207031 "/>
<path style=" stroke:none;fill-rule:nonzero;fill:rgb(100%,0%,100%);fill-opacity:1;" d="M 237 180.207031 C 237 182.875 233 182.875 233 180.207031 C 233 177.539062 237 177.539062 237 180.207031 "/>
<path style=" stroke:none;fill-rule:nonzero;fill:rgb(100%,0%,100%);fill-opacity:1;" d="M 240.964844 160 C 240.964844 162.667969 236.964844 162.667969 236.964844 160 C 236.964844 157.332031 240.964844 157.332031 240.964844 160 "/>
<path style=" stroke:none;fill-rule:nonzero;fill:rgb(100%,0%,100%);fill-opacity:1;" d="M 415.332031 200.414062 C 415.332031 203.082031 411.332031 203.082031 411.332031 200.414062 C 411.332031 197.746094 415.332031 197.746094 415.332031 200.414062 "/>
<path style=" stroke:none;fill-rule:nonzero;fill:rgb(100%,0%,100%);fill-opacity:1;" d="M 256.816406 200.414062 C 256.816406 203.082031 252.816406 203.082031 252.816406 200.414062 C 252.816406 197.746094 256.816406 197.746094 256.816406 200.414062 "/>
<path style=" stroke:none;fill-rule:nonzero;fill:rgb(100%,0%,100%);fill-opacity:1;" d="M 411.367188 220.621094 C 411.367188 223.289062 407.367188 223.289062 407.367188 220.621094 C 407.367188 217.953125 411.367188 217.953125 411.367188 220.621094 "/>
<path style=" stroke:none;fill-rule:nonzero;fill:rgb(100%,0%,100%);fill-opacity:1;" d="M 260.777344 220.621094 C 260.777344 223.289062 256.777344 223.289062 256.777344 220.621094 C 256.777344 217.953125 260.777344 217.953125 260.777344 220.621094 "/>
<path style=" stroke:none;fill-rule:nonzero;fill:rgb(100%,0%,100%);fill-opacity:1;" d="M 237 220.621094 C 237 223.289062 233 223.289062 233 220.621094 C 233 217.953125 237 217.953125 237 220.621094 "/>
<path style=" stroke:none;fill-rule:nonzero;fill:rgb(100%,0%,100%);fill-opacity:1;" d="M 240.964844 200.414062 C 240.964844 203.082031 236.964844 203.082031 236.964844 200.414062 C 236.964844 197.746094 240.964844 197.746094 240.964844 200.414062 "/>
<path style=" stroke:none;fill-rule:nonzero;fill:rgb(100%,0%,100%);fill-opacity:1;" d="M 407.40625 160 C 407.40625 162.667969 403.40625 162.667969 403.40625 160 C 403.40625 157.332031 407.40625 157.332031 407.40625 160 "/>
<path style=" stroke:none;fill-rule:nonzero;fill:rgb(100%,0%,100%);fill-opacity:1;" d="M 264.742188 160 C 264.742188 162.667969 260.742188 162.667969 260.742188 160 C 260.742188 157.332031 264.742188 157.332031 264.742188 160 "/>
<path style=" stroke:none;fill-rule:nonzero;fill:rgb(100%,0%,100%);fill-opacity:1;" d="M 403.441406 180.207031 C 403.441406 182.875 399.441406 182.875 399.441406 180.207031 C 399.441406 177.539062 403.441406 177.539062 403.441406 180.207031 "/>
<path style=" stroke:none;fill-rule:nonzero;fill:rgb(100%,0%,100%);fill-opacity:1;" d="M 268.703125 180.207031 C 268.703125 182.875 264.703125 182.875 264.703125 180.207031 C 264.703125 177.539062 268.703125 177.539062 268.703125 180.207031 "/>
<path style=" stroke:none;fill-rule:nonzero;fill:rgb(100%,0%,100%);fill-opacity:1;" d="M 427.21875 180.207031 C 427.21875 182.875 423.21875 182.875 423.21875 180.207031 C 423.21875 177.539062 427.21875 177.539062 427.21875 180.207031 "/>
<path style=" stroke:none;fill-rule:nonzero;fill:rgb(100%,0%,100%);fill-opacity:1;" d="M 423.257812 160 C 423.257812 162.667969 419.257812 162.667969 419.257812 160 C 419.257812 157.332031 423.257812 157.332031 423.257812 160 "/>
<path style=" stroke:none;fill-rule:nonzero;fill:rgb(100%,0%,100%);fill-opacity:1;" d="M 248.890625 160 C 248.890625 162.667969 244.890625 162.667969 244.890625 160 C 244.890625 157.332031 248.890625 157.332031 248.890625 160 "/>
<path style=" stroke:none;fill-rule:nonzero;fill:rgb(100%,0%,100%);fill-opacity:1;" d="M 407.40625 200.414062 C 407.40625 203.082031 403.40625 203.082031 403.40625 200.414062 C 403.40625 197.746094 407.40625 197.746094 407.40625 200.414062 "/>
<path style=" stroke:none;fill-rule:nonzero;fill:rgb(100%,0%,100%);fill-opacity:1;" d="M 264.742188 200.414062 C 264.742188 203.082031 260.742188 203.082031 260.742188 200.414062 C 260.742188 197.746094 264.742188 197.746094 264.742188 200.414062 "/>
<path style=" stroke:none;fill-rule:nonzero;fill:rgb(100%,0%,100%);fill-opacity:1;" d="M 403.441406 220.621094 C 403.441406 223.289062 399.441406 223.289062 399.441406 220.621094 C 399.441406 217.953125 403.441406 217.953125 403.441406 220.621094 "/>
<path style=" stroke:none;fill-rule:nonzero;fill:rgb(100%,0%,100%);fill-opacity:1;" d="M 268.703125 220.621094 C 268.703125 223.289062 264.703125 223.289062 264.703125 220.621094 C 264.703125 217.953125 268.703125 217.953125 268.703125 220.621094 "/>
<path style=" stroke:none;fill-rule:nonzero;fill:rgb(100%,0%,100%);fill-opacity:1;" d="M 427.21875 220.621094 C 427.21875 223.289062 423.21875 223.289062 423.21875 220.621094 C 423.21875 217.953125 427.21875 217.953125 427.21875 220.621094 "/>
<path style=" stroke:none;fill-rule:nonzero;fill:rgb(100%,0%,100%);fill-opacity:1;" d="M 423.257812 200.414062 C 423.257812 203.082031 419.257812 203.082031 419.257812 200.414062 C 419.257812 197.746094 423.257812 197.746094 423.257812 200.414062 "/>
<path style=" stroke:none;fill-rule:nonzero;fill:rgb(100%,0%,100%);fill-opacity:1;" d="M 399.480469 160 C 399.480469 162.667969 395.480469 162.667969 395.480469 160 C 395.480469 157.332031 399.480469 157.332031 399.480469 160 "/>
<path style=" stroke:none;fill-rule:nonzero;fill:rgb(100%,0%,100%);fill-opacity:1;" d="M 272.667969 160 C 272.667969 162.667969 268.667969 162.667969 268.667969 160 C 268.667969 157.332031 272.667969 157.332031 272.667969 160 "/>
<path style=" stroke:none;fill-rule:nonzero;fill:rgb(100%,0%,100%);fill-opacity:1;" d="M 419.292969 180.207031 C 419.292969 182.875 415.292969 182.875 415.292969 180.207031 C 415.292969 177.539062 419.292969 177.539062 419.292969 180.207031 "/>
<path style=" stroke:none;fill-rule:nonzero;fill:rgb(100%,0%,100%);fill-opacity:1;" d="M 252.851562 180.207031 C 252.851562 182.875 248.851562 182.875 248.851562 180.207031 C 248.851562 177.539062 252.851562 177.539062 252.851562 180.207031 "/>
<path style=" stroke:none;fill-rule:nonzero;fill:rgb(100%,0%,100%);fill-opacity:1;" d="M 399.480469 200.414062 C 399.480469 203.082031 395.480469 203.082031 395.480469 200.414062 C 395.480469 197.746094 399.480469 197.746094 399.480469 200.414062 "/>
<path style=" stroke:none;fill-rule:nonzero;fill:rgb(100%,0%,100%);fill-opacity:1;" d="M 272.667969 200.414062 C 272.667969 203.082031 268.667969 203.082031 268.667969 200.414062 C 268.667969 197.746094 272.667969 197.746094 272.667969 200.414062 "/>
<path style=" stroke:none;fill-rule:nonzero;fill:rgb(100%,0%,100%);fill-opacity:1;" d="M 419.292969 220.621094 C 419.292969 223.289062 415.292969 223.289062 415.292969 220.621094 C 415.292969 217.953125 419.292969 217.953125 419.292969 220.621094 "/>
<path style=" stroke:none;fill-rule:nonzero;fill:rgb(100%,0%,100%);fill-opacity:1;" d="M 252.851562 220.621094 C 252.851562 223.289062 248.851562 223.289062 248.851562 220.621094 C 248.851562 217.953125 252.851562 217.953125 252.851562 220.621094 "/>
<path style=" stroke:none;fill-rule:nonzero;fill:rgb(100%,100%,0%);fill-opacity:1;" d="M 328.148438 10 C 328.148438 12.667969 324.148438 12.667969 324.148438 10 C 324.148438 7.332031 328.148438 7.332031 328.148438 10 "/>
<path style=" stroke:none;fill-rule:nonzero;fill:rgb(100%,100%,0%);fill-opacity:1;" d="M 344 50.414062 C 344 53.082031 340 53.082031 340 50.414062 C 340 47.746094 344 47.746094 344 50.414062 "/>
<path style=" stroke:none;fill-rule:nonzero;fill:rgb(100%,100%,0%);fill-opacity:1;" d="M 340.035156 30.207031 C 340.035156 32.875 336.035156 32.875 336.035156 30.207031 C 336.035156 27.539062 340.035156 27.539062 340.035156 30.207031 "/>
<path style=" stroke:none;fill-rule:nonzero;fill:rgb(100%,100%,0%);fill-opacity:1;" d="M 332.109375 70.621094 C 332.109375 73.289062 328.109375 73.289062 328.109375 70.621094 C 328.109375 67.953125 332.109375 67.953125 332.109375 70.621094 "/>
<path style=" stroke:none;fill-rule:nonzero;fill:rgb(100%,100%,0%);fill-opacity:1;" d="M 431.183594 10 C 431.183594 12.667969 427.183594 12.667969 427.183594 10 C 427.183594 7.332031 431.183594 7.332031 431.183594 10 "/>
<path style=" stroke:none;fill-rule:nonzero;fill:rgb(100%,100%,0%);fill-opacity:1;" d="M 431.183594 50.414062 C 431.183594 53.082031 427.183594 53.082031 427.183594 50.414062 C 427.183594 47.746094 431.183594 47.746094 431.183594 50.414062 "/>
<path style=" stroke:none;fill-rule:nonzero;fill:rgb(100%,100%,0%);fill-opacity:1;" d="M 244.925781 30.207031 C 244.925781 32.875 240.925781 32.875 240.925781 30.207031 C 240.925781 27.539062 244.925781 27.539062 244.925781 30.207031 "/>
<path style=" stroke:none;fill-rule:nonzero;fill:rgb(100%,100%,0%);fill-opacity:1;" d="M 244.925781 70.621094 C 244.925781 73.289062 240.925781 73.289062 240.925781 70.621094 C 240.925781 67.953125 244.925781 67.953125 244.925781 70.621094 "/>
<path style=" stroke:none;fill-rule:nonzero;fill:rgb(100%,100%,0%);fill-opacity:1;" d="M 248.890625 50.414062 C 248.890625 53.082031 244.890625 53.082031 244.890625 50.414062 C 244.890625 47.746094 248.890625 47.746094 248.890625 50.414062 "/>
</g>
</svg>
