<?xml version="1.0" encoding="UTF-8"?>
<svg xmlns="http://www.w3.org/2000/svg" xmlns:xlink="http://www.w3.org/1999/xlink" width="600pt" height="400pt" viewBox="0 0 600 400" version="1.1">
<g id="surface1">
<rect x="0" y="0" width="600" height="400" style="fill:rgb(80%,80%,80%);fill-opacity:1;stroke:none;"/>
<path style="fill:none;stroke-width:2;stroke-linecap:butt;stroke-linejoin:miter;stroke:rgb(0%,0%,0%);stroke-opacity:1;stroke-miterlimit:10;" d="M 300 200 L 300 1200 "/>
<path style="fill:none;stroke-width:2;stroke-linecap:butt;stroke-linejoin:miter;stroke:rgb(0%,0%,0%);stroke-opacity:1;stroke-miterlimit:10;" d="M 300 200 L 1300 200 "/>
<path style="fill:none;stroke-width:2;stroke-linecap:butt;stroke-linejoin:miter;stroke:rgb(100%,0%,0%);stroke-opacity:1;stroke-miterlimit:10;" d="M 359.511719 200 C 359.511719 202.667969 355.511719 202.667969 355.511719 200 C 355.511719 197.332031 359.511719 197.332031 359.511719 200 "/>
<path style=" stroke:none;fill-rule:nonzero;fill:rgb(100%,0%,0%);fill-opacity:1;" d="M 378.679688 220.207031 C 378.679688 222.875 374.679688 222.875 374.679688 220.207031 C 374.679688 217.539062 378.679688 217.539062 378.679688 220.207031 "/>
<path style=" stroke:none;fill-rule:nonzero;fill:rgb(100%,0%,0%);fill-opacity:1;" d="M 340.339844 220.207031 C 340.339844 222.875 336.339844 222.875 336.339844 220.207031 C 336.339844 217.539062 340.339844 217.539062 340.339844 220.207031 "/>
<path style=" stroke:none;fill-rule:nonzero;fill:rgb(100%,0%,0%);fill-opacity:1;" d="M 372.289062 200 C 372.289062 202.667969 368.289062 202.667969 368.289062 200 C 368.289062 197.332031 372.289062 197.332031 372.289062 200 "/>
<path style=" stroke:none;fill-rule:nonzero;fill:rgb(100%,0%,0%);fill-opacity:1;" d="M 346.730469 200 C 346.730469 202.667969 342.730469 202.667969 342.730469 200 C 342.730469 197.332031 346.730469 197.332031 346.730469 200 "/>
<path style="fill:none;stroke-width:2;stroke-linecap:butt;stroke-linejoin:miter;stroke:rgb(100%,0%,0%);stroke-opacity:1;stroke-miterlimit:10;" d="M 359.511719 240.414062 C 359.511719 243.082031 355.511719 243.082031 355.511719 240.414062 C 355.511719 237.746094 359.511719 237.746094 359.511719 240.414062 "/>
<path style=" stroke:none;fill-rule:nonzero;fill:rgb(100%,0%,0%);fill-opacity:1;" d="M 378.679688 260.621094 C 378.679688 263.289062 374.679688 263.289062 374.679688 260.621094 C 374.679688 257.953125 378.679688 257.953125 378.679688 260.621094 "/>
<path style=" stroke:none;fill-rule:nonzero;fill:rgb(100%,0%,0%);fill-opacity:1;" d="M 340.339844 260.621094 C 340.339844 263.289062 336.339844 263.289062 336.339844 260.621094 C 336.339844 257.953125 340.339844 257.953125 340.339844 260.621094 "/>
<path style=" stroke:none;fill-rule:nonzero;fill:rgb(100%,0%,0%);fill-opacity:1;" d="M 372.289062 240.414062 C 372.289062 243.082031 368.289062 243.082031 368.289062 240.414062 C 368.289062 237.746094 372.289062 237.746094 372.289062 240.414062 "/>
<path style=" stroke:none;fill-rule:nonzero;fill:rgb(100%,0%,0%);fill-opacity:1;" d="M 346.730469 240.414062 C 346.730469 243.082031 342.730469 243.082031 342.730469 240.414062 C 342.730469 237.746094 346.730469 237.746094 346.730469 240.414062 "/>
<path style=" stroke:none;fill-rule:nonzero;fill:rgb(100%,0%,0%);fill-opacity:1;" d="M 365.898438 220.207031 C 365.898438 222.875 361.898438 222.875 361.898438 220.207031 C 361.898438 217.539062 365.898438 217.539062 365.898438 220.207031 "/>
<path style=" stroke:none;fill-rule:nonzero;fill:rgb(100%,0%,0%);fill-opacity:1;" d="M 353.121094 220.207031 C 353.121094 222.875 349.121094 222.875 349.121094 220.207031 C 349.121094 217.539062 353.121094 217.539062 353.121094 220.207031 "/>
<path style=" stroke:none;fill-rule:nonzero;fill:rgb(100%,0%,0%);fill-opacity:1;" d="M 365.898438 260.621094 C 365.898438 263.289062 361.898438 263.289062 361.898438 260.621094 C 361.898438 257.953125 365.898438 257.953125 365.898438 260.621094 "/>
<path style=" stroke:none;fill-rule:nonzero;fill:rgb(100%,0%,0%);fill-opacity:1;" d="M 353.121094 260.621094 C 353.121094 263.289062 349.121094 263.289062 349.121094 260.621094 C 349.121094 257.953125 353.121094 257.953125 353.121094 260.621094 "/>
<path style=" stroke:none;fill-rule:nonzero;fill:rgb(100%,0%,0%);fill-opacity:1;" d="M 397.851562 200 C 397.851562 202.667969 393.851562 202.667969 393.851562 200 C 393.851562 197.332031 397.851562 197.332031 397.851562 200 "/>
<path style=" stroke:none;fill-rule:nonzero;fill:rgb(100%,0%,0%);fill-opacity:1;" d="M 321.171875 200 C 321.171875 202.667969 317.171875 202.667969 317.171875 200 C 317.171875 197.332031 321.171875 197.332031 321.171875 200 "/>
<path style=" stroke:none;fill-rule:nonzero;fill:rgb(100%,0%,0%);fill-opacity:1;" d="M 391.460938 220.207031 C 391.460938 222.875 387.460938 222.875 387.460938 220.207031 C 387.460938 217.539062 391.460938 217.539062 391.460938 220.207031 "/>
<path style=" stroke:none;fill-rule:nonzero;fill:rgb(100%,0%,0%);fill-opacity:1;" d="M 327.558594 220.207031 C 327.558594 222.875 323.558594 222.875 323.558594 220.207031 C 323.558594 217.539062 327.558594 217.539062 327.558594 220.207031 "/>
<path style=" stroke:none;fill-rule:nonzero;fill:rgb(100%,0%,0%);fill-opacity:1;" d="M 302 220.207031 C 302 222.875 298 222.875 298 220.207031 C 298 217.539062 302 217.539062 302 220.207031 "/>
<path style=" stroke:none;fill-rule:nonzero;fill:rgb(100%,0%,0%);fill-opacity:1;" d="M 410.628906 200 C 410.628906 202.667969 406.628906 202.667969 406.628906 200 C 406.628906 197.332031 410.628906 197.332031 410.628906 200 "/>
<path style=" stroke:none;fill-rule:nonzero;fill:rgb(100%,0%,0%);fill-opacity:1;" d="M 308.390625 200 C 308.390625 202.667969 304.390625 202.667969 304.390625 200 C 304.390625 197.332031 308.390625 197.332031 308.390625 200 "/>
<path style=" stroke:none;fill-rule:nonzero;fill:rgb(100%,0%,0%);fill-opacity:1;" d="M 397.851562 240.414062 C 397.851562 243.082031 393.851562 243.082031 393.851562 240.414062 C 393.851562 237.746094 397.851562 237.746094 397.851562 240.414062 "/>
<path style=" stroke:none;fill-rule:nonzero;fill:rgb(100%,0%,0%);fill-opacity:1;" d="M 321.171875 240.414062 C 321.171875 243.082031 317.171875 243.082031 317.171875 240.414062 C 317.171875 237.746094 321.171875 237.746094 321.171875 240.414062 "/>
<path style=" stroke:none;fill-rule:nonzero;fill:rgb(100%,0%,0%);fill-opacity:1;" d="M 391.460938 260.621094 C 391.460938 263.289062 387.460938 263.289062 387.460938 260.621094 C 387.460938 257.953125 391.460938 257.953125 391.460938 260.621094 "/>
<path style=" stroke:none;fill-rule:nonzero;fill:rgb(100%,0%,0%);fill-opacity:1;" d="M 327.558594 260.621094 C 327.558594 263.289062 323.558594 263.289062 323.558594 260.621094 C 323.558594 257.953125 327.558594 257.953125 327.558594 260.621094 "/>
<path style=" stroke:none;fill-rule:nonzero;fill:rgb(100%,0%,0%);fill-opacity:1;" d="M 302 260.621094 C 302 263.289062 298 263.289062 298 260.621094 C 298 257.953125 302 257.953125 302 260.621094 "/>
<path style=" stroke:none;fill-rule:nonzero;fill:rgb(100%,0%,0%);fill-opacity:1;" d="M 410.628906 240.414062 C 410.628906 243.082031 406.628906 243.082031 406.628906 240.414062 C 406.628906 237.746094 410.628906 237.746094 410.628906 240.414062 "/>
<path style=" stroke:none;fill-rule:nonzero;fill:rgb(100%,0%,0%);fill-opacity:1;" d="M 308.390625 240.414062 C 308.390625 243.082031 304.390625 243.082031 304.390625 240.414062 C 304.390625 237.746094 308.390625 237.746094 308.390625 240.414062 "/>
<path style=" stroke:none;fill-rule:nonzero;fill:rgb(100%,0%,0%);fill-opacity:1;" d="M 385.070312 200 C 385.070312 202.667969 381.070312 202.667969 381.070312 200 C 381.070312 197.332031 385.070312 197.332031 385.070312 200 "/>
<path style=" stroke:none;fill-rule:nonzero;fill:rgb(100%,0%,0%);fill-opacity:1;" d="M 333.949219 200 C 333.949219 202.667969 329.949219 202.667969 329.949219 200 C 329.949219 197.332031 333.949219 197.332031 333.949219 200 "/>
<path style=" stroke:none;fill-rule:nonzero;fill:rgb(100%,0%,0%);fill-opacity:1;" d="M 404.238281 220.207031 C 404.238281 222.875 400.238281 222.875 400.238281 220.207031 C 400.238281 217.539062 404.238281 217.539062 404.238281 220.207031 "/>
<path style=" stroke:none;fill-rule:nonzero;fill:rgb(100%,0%,0%);fill-opacity:1;" d="M 314.78125 220.207031 C 314.78125 222.875 310.78125 222.875 310.78125 220.207031 C 310.78125 217.539062 314.78125 217.539062 314.78125 220.207031 "/>
<path style=" stroke:none;fill-rule:nonzero;fill:rgb(100%,0%,0%);fill-opacity:1;" d="M 385.070312 240.414062 C 385.070312 243.082031 381.070312 243.082031 381.070312 240.414062 C 381.070312 237.746094 385.070312 237.746094 385.070312 240.414062 "/>
<path style=" stroke:none;fill-rule:nonzero;fill:rgb(100%,0%,0%);fill-opacity:1;" d="M 333.949219 240.414062 C 333.949219 243.082031 329.949219 243.082031 329.949219 240.414062 C 329.949219 237.746094 333.949219 237.746094 333.949219 240.414062 "/>
<path style=" stroke:none;fill-rule:nonzero;fill:rgb(100%,0%,0%);fill-opacity:1;" d="M 404.238281 260.621094 C 404.238281 263.289062 400.238281 263.289062 400.238281 260.621094 C 400.238281 257.953125 404.238281 257.953125 404.238281 260.621094 "/>
<path style=" stroke:none;fill-rule:nonzero;fill:rgb(100%,0%,0%);fill-opacity:1;" d="M 314.78125 260.621094 C 314.78125 263.289062 310.78125 263.289062 310.78125 260.621094 C 310.78125 257.953125 314.78125 257.953125 314.78125 260.621094 "/>
</g>
</svg>
