<?xml version="1.0" encoding="UTF-8"?>
<svg xmlns="http://www.w3.org/2000/svg" xmlns:xlink="http://www.w3.org/1999/xlink" width="300pt" height="200pt" viewBox="0 0 300 200" version="1.1">
<g id="surface1">
<rect x="0" y="0" width="300" height="200" style="fill:rgb(80%,80%,80%);fill-opacity:1;stroke:none;"/>
<path style="fill:none;stroke-width:2;stroke-linecap:butt;stroke-linejoin:miter;stroke:rgb(0%,0%,0%);stroke-opacity:1;stroke-miterlimit:10;" d="M 10 10 L 10 1010 "/>
<path style="fill:none;stroke-width:2;stroke-linecap:butt;stroke-linejoin:miter;stroke:rgb(0%,0%,0%);stroke-opacity:1;stroke-miterlimit:10;" d="M 160 10 L 160 1010 "/>
<path style="fill:none;stroke-width:2;stroke-linecap:butt;stroke-linejoin:miter;stroke:rgb(0%,0%,0%);stroke-opacity:1;stroke-miterlimit:10;" d="M 10 110 L 10 1110 "/>
<path style="fill:none;stroke-width:2;stroke-linecap:butt;stroke-linejoin:miter;stroke:rgb(0%,0%,0%);stroke-opacity:1;stroke-miterlimit:10;" d="M 10 10 L 1010 10 "/>
<path style="fill:none;stroke-width:2;stroke-linecap:butt;stroke-linejoin:miter;stroke:rgb(0%,0%,0%);stroke-opacity:1;stroke-miterlimit:10;" d="M 160 10 L 1160 10 "/>
<path style="fill:none;stroke-width:2;stroke-linecap:butt;stroke-linejoin:miter;stroke:rgb(0%,0%,0%);stroke-opacity:1;stroke-miterlimit:10;" d="M 10 110 L 1010 110 "/>
<path style="fill:none;stroke-width:2;stroke-linecap:butt;stroke-linejoin:miter;stroke:rgb(0%,0%,100%);stroke-opacity:1;stroke-miterlimit:10;" d="M 67.480469 109.546875 C 67.480469 112.214844 63.480469 112.214844 63.480469 109.546875 C 63.480469 106.882812 67.480469 106.882812 67.480469 109.546875 "/>
<path style=" stroke:none;fill-rule:nonzero;fill:rgb(0%,0%,100%);fill-opacity:1;" d="M 84.734375 103.082031 C 84.734375 105.746094 80.734375 105.746094 80.734375 103.082031 C 80.734375 100.414062 84.734375 100.414062 84.734375 103.082031 "/>
<path style=" stroke:none;fill-rule:nonzero;fill:rgb(0%,0%,100%);fill-opacity:1;" d="M 50.179688 102.726562 C 50.179688 105.394531 46.179688 105.394531 46.179688 102.726562 C 46.179688 100.0625 50.179688 100.0625 50.179688 102.726562 "/>
<path style="fill:none;stroke-width:2;stroke-linecap:butt;stroke-linejoin:miter;stroke:rgb(0%,0%,100%);stroke-opacity:1;stroke-miterlimit:10;" d="M 80.59375 83.535156 C 80.59375 86.203125 76.59375 86.203125 76.59375 83.535156 C 76.59375 80.867188 80.59375 80.867188 80.59375 83.535156 "/>
<path style="fill:none;stroke-width:2;stroke-linecap:butt;stroke-linejoin:miter;stroke:rgb(0%,0%,100%);stroke-opacity:1;stroke-miterlimit:10;" d="M 54.308594 83.476562 C 54.308594 86.140625 50.308594 86.140625 50.308594 83.476562 C 50.308594 80.808594 54.308594 80.808594 54.308594 83.476562 "/>
<path style=" stroke:none;fill-rule:nonzero;fill:rgb(0%,0%,100%);fill-opacity:1;" d="M 67.351562 109.160156 C 67.351562 111.824219 63.351562 111.824219 63.351562 109.160156 C 63.351562 106.492188 67.351562 106.492188 67.351562 109.160156 "/>
<path style=" stroke:none;fill-rule:nonzero;fill:rgb(0%,0%,100%);fill-opacity:1;" d="M 84.628906 102.855469 C 84.628906 105.523438 80.628906 105.523438 80.628906 102.855469 C 80.628906 100.1875 84.628906 100.1875 84.628906 102.855469 "/>
<path style=" stroke:none;fill-rule:nonzero;fill:rgb(0%,0%,100%);fill-opacity:1;" d="M 50.15625 103.011719 C 50.15625 105.675781 46.15625 105.675781 46.15625 103.011719 C 46.15625 100.34375 50.15625 100.34375 50.15625 103.011719 "/>
<path style=" stroke:none;fill-rule:nonzero;fill:rgb(0%,0%,100%);fill-opacity:1;" d="M 80.625 83.636719 C 80.625 86.304688 76.625 86.304688 76.625 83.636719 C 76.625 80.972656 80.625 80.972656 80.625 83.636719 "/>
<path style=" stroke:none;fill-rule:nonzero;fill:rgb(0%,0%,100%);fill-opacity:1;" d="M 54.050781 83.523438 C 54.050781 86.191406 50.050781 86.191406 50.050781 83.523438 C 50.050781 80.855469 54.050781 80.855469 54.050781 83.523438 "/>
<path style=" stroke:none;fill-rule:nonzero;fill:rgb(0%,0%,100%);fill-opacity:1;" d="M 66.910156 66.234375 C 66.910156 68.902344 62.910156 68.902344 62.910156 66.234375 C 62.910156 63.566406 66.910156 63.566406 66.910156 66.234375 "/>
<path style=" stroke:none;fill-rule:nonzero;fill:rgb(0%,0%,100%);fill-opacity:1;" d="M 67.8125 66.210938 C 67.8125 68.878906 63.8125 68.878906 63.8125 66.210938 C 63.8125 63.546875 67.8125 63.546875 67.8125 66.210938 "/>
<path style="fill:none;stroke-width:2;stroke-linecap:butt;stroke-linejoin:miter;stroke:rgb(0%,0%,100%);stroke-opacity:1;stroke-miterlimit:10;" d="M 105.140625 97 C 105.140625 99.667969 101.140625 99.667969 101.140625 97 C 101.140625 94.332031 105.140625 94.332031 105.140625 97 "/>
<path style="fill:none;stroke-width:2;stroke-linecap:butt;stroke-linejoin:miter;stroke:rgb(0%,0%,100%);stroke-opacity:1;stroke-miterlimit:10;" d="M 29.734375 96.796875 C 29.734375 99.460938 25.734375 99.460938 25.734375 96.796875 C 25.734375 94.128906 29.734375 94.128906 29.734375 96.796875 "/>
<path style=" stroke:none;fill-rule:nonzero;fill:rgb(0%,0%,100%);fill-opacity:1;" d="M 98.730469 77.019531 C 98.730469 79.683594 94.730469 79.683594 94.730469 77.019531 C 94.730469 74.351562 98.730469 74.351562 98.730469 77.019531 "/>
<path style=" stroke:none;fill-rule:nonzero;fill:rgb(0%,0%,100%);fill-opacity:1;" d="M 36.441406 76.96875 C 36.441406 79.632812 32.441406 79.632812 32.441406 76.96875 C 32.441406 74.300781 36.441406 74.300781 36.441406 76.96875 "/>
<path style=" stroke:none;fill-rule:nonzero;fill:rgb(0%,0%,100%);fill-opacity:1;" d="M 12.304688 90.34375 C 12.304688 93.007812 8.304688 93.007812 8.304688 90.34375 C 8.304688 87.675781 12.304688 87.675781 12.304688 90.34375 "/>
<path style=" stroke:none;fill-rule:nonzero;fill:rgb(0%,0%,100%);fill-opacity:1;" d="M 105.625 96.625 C 105.625 99.289062 101.625 99.289062 101.625 96.625 C 101.625 93.957031 105.625 93.957031 105.625 96.625 "/>
<path style=" stroke:none;fill-rule:nonzero;fill:rgb(0%,0%,100%);fill-opacity:1;" d="M 29.171875 96.621094 C 29.171875 99.289062 25.171875 99.289062 25.171875 96.621094 C 25.171875 93.957031 29.171875 93.957031 29.171875 96.621094 "/>
<path style=" stroke:none;fill-rule:nonzero;fill:rgb(0%,0%,100%);fill-opacity:1;" d="M 98.304688 77.078125 C 98.304688 79.742188 94.304688 79.742188 94.304688 77.078125 C 94.304688 74.410156 98.304688 74.410156 98.304688 77.078125 "/>
<path style=" stroke:none;fill-rule:nonzero;fill:rgb(0%,0%,100%);fill-opacity:1;" d="M 36.0625 76.914062 C 36.0625 79.582031 32.0625 79.582031 32.0625 76.914062 C 32.0625 74.25 36.0625 74.25 36.0625 76.914062 "/>
<path style=" stroke:none;fill-rule:nonzero;fill:rgb(0%,0%,100%);fill-opacity:1;" d="M 12.074219 90.324219 C 12.074219 92.992188 8.074219 92.992188 8.074219 90.324219 C 8.074219 87.65625 12.074219 87.65625 12.074219 90.324219 "/>
<path style=" stroke:none;fill-rule:nonzero;fill:rgb(0%,0%,100%);fill-opacity:1;" d="M 12.40625 69.691406 C 12.40625 72.359375 8.40625 72.359375 8.40625 69.691406 C 8.40625 67.023438 12.40625 67.023438 12.40625 69.691406 "/>
<path style="fill:none;stroke-width:2;stroke-linecap:butt;stroke-linejoin:miter;stroke:rgb(0%,0%,100%);stroke-opacity:1;stroke-miterlimit:10;" d="M 91.738281 58.597656 C 91.738281 61.265625 87.738281 61.265625 87.738281 58.597656 C 87.738281 55.929688 91.738281 55.929688 91.738281 58.597656 "/>
<path style="fill:none;stroke-width:2;stroke-linecap:butt;stroke-linejoin:miter;stroke:rgb(0%,0%,100%);stroke-opacity:1;stroke-miterlimit:10;" d="M 43.234375 58.503906 C 43.234375 61.171875 39.234375 61.171875 39.234375 58.503906 C 39.234375 55.835938 43.234375 55.835938 43.234375 58.503906 "/>
<path style=" stroke:none;fill-rule:nonzero;fill:rgb(0%,0%,100%);fill-opacity:1;" d="M 109.507812 52.015625 C 109.507812 54.683594 105.507812 54.683594 105.507812 52.015625 C 105.507812 49.351562 109.507812 49.351562 109.507812 52.015625 "/>
<path style=" stroke:none;fill-rule:nonzero;fill:rgb(0%,0%,100%);fill-opacity:1;" d="M 25.492188 51.953125 C 25.492188 54.621094 21.492188 54.621094 21.492188 51.953125 C 21.492188 49.285156 25.492188 49.285156 25.492188 51.953125 "/>
<path style=" stroke:none;fill-rule:nonzero;fill:rgb(0%,0%,100%);fill-opacity:1;" d="M 91.222656 58.578125 C 91.222656 61.242188 87.222656 61.242188 87.222656 58.578125 C 87.222656 55.910156 91.222656 55.910156 91.222656 58.578125 "/>
<path style=" stroke:none;fill-rule:nonzero;fill:rgb(0%,0%,100%);fill-opacity:1;" d="M 43.371094 58.453125 C 43.371094 61.121094 39.371094 61.121094 39.371094 58.453125 C 39.371094 55.785156 43.371094 55.785156 43.371094 58.453125 "/>
<path style=" stroke:none;fill-rule:nonzero;fill:rgb(0%,0%,100%);fill-opacity:1;" d="M 109.320312 52.105469 C 109.320312 54.773438 105.320312 54.773438 105.320312 52.105469 C 105.320312 49.441406 109.320312 49.441406 109.320312 52.105469 "/>
<path style=" stroke:none;fill-rule:nonzero;fill:rgb(0%,0%,100%);fill-opacity:1;" d="M 25.300781 51.882812 C 25.300781 54.546875 21.300781 54.546875 21.300781 51.882812 C 21.300781 49.214844 25.300781 49.214844 25.300781 51.882812 "/>
<path style="fill:none;stroke-width:2;stroke-linecap:butt;stroke-linejoin:miter;stroke:rgb(100%,80%,0%);stroke-opacity:1;stroke-miterlimit:10;" d="M 65.210938 10 L 65.480469 10.453125 "/>
<path style="fill:none;stroke-width:2;stroke-linecap:butt;stroke-linejoin:miter;stroke:rgb(100%,80%,0%);stroke-opacity:1;stroke-miterlimit:10;" d="M 83.613281 16.519531 L 82.734375 16.917969 "/>
<path style="fill:none;stroke-width:2;stroke-linecap:butt;stroke-linejoin:miter;stroke:rgb(100%,80%,0%);stroke-opacity:1;stroke-miterlimit:10;" d="M 46.804688 16.519531 L 48.179688 17.273438 "/>
<path style="fill:none;stroke-width:2;stroke-linecap:butt;stroke-linejoin:miter;stroke:rgb(100%,80%,0%);stroke-opacity:1;stroke-miterlimit:10;" d="M 77.480469 36.070312 L 78.59375 36.464844 "/>
<path style="fill:none;stroke-width:2;stroke-linecap:butt;stroke-linejoin:miter;stroke:rgb(100%,80%,0%);stroke-opacity:1;stroke-miterlimit:10;" d="M 52.941406 36.070312 L 52.308594 36.523438 "/>
<path style="fill:none;stroke-width:2;stroke-linecap:butt;stroke-linejoin:miter;stroke:rgb(100%,80%,0%);stroke-opacity:1;stroke-miterlimit:10;" d="M 65.210938 10 L 65.351562 10.839844 "/>
<path style="fill:none;stroke-width:2;stroke-linecap:butt;stroke-linejoin:miter;stroke:rgb(100%,80%,0%);stroke-opacity:1;stroke-miterlimit:10;" d="M 83.613281 16.519531 L 82.628906 17.144531 "/>
<path style="fill:none;stroke-width:2;stroke-linecap:butt;stroke-linejoin:miter;stroke:rgb(100%,80%,0%);stroke-opacity:1;stroke-miterlimit:10;" d="M 46.804688 16.519531 L 48.15625 16.988281 "/>
<path style="fill:none;stroke-width:2;stroke-linecap:butt;stroke-linejoin:miter;stroke:rgb(100%,80%,0%);stroke-opacity:1;stroke-miterlimit:10;" d="M 77.480469 36.070312 L 78.625 36.363281 "/>
<path style="fill:none;stroke-width:2;stroke-linecap:butt;stroke-linejoin:miter;stroke:rgb(100%,80%,0%);stroke-opacity:1;stroke-miterlimit:10;" d="M 52.941406 36.070312 L 52.050781 36.476562 "/>
<path style="fill:none;stroke-width:2;stroke-linecap:butt;stroke-linejoin:miter;stroke:rgb(100%,80%,0%);stroke-opacity:1;stroke-miterlimit:10;" d="M 59.074219 55.625 L 64.910156 53.765625 "/>
<path style="fill:none;stroke-width:2;stroke-linecap:butt;stroke-linejoin:miter;stroke:rgb(100%,80%,0%);stroke-opacity:1;stroke-miterlimit:10;" d="M 71.34375 55.625 L 65.8125 53.789062 "/>
<path style="fill:none;stroke-width:2;stroke-linecap:butt;stroke-linejoin:miter;stroke:rgb(100%,80%,0%);stroke-opacity:1;stroke-miterlimit:10;" d="M 102.015625 23.035156 L 103.140625 23 "/>
<path style="fill:none;stroke-width:2;stroke-linecap:butt;stroke-linejoin:miter;stroke:rgb(100%,80%,0%);stroke-opacity:1;stroke-miterlimit:10;" d="M 28.402344 23.035156 L 27.734375 23.203125 "/>
<path style="fill:none;stroke-width:2;stroke-linecap:butt;stroke-linejoin:miter;stroke:rgb(100%,80%,0%);stroke-opacity:1;stroke-miterlimit:10;" d="M 95.882812 42.589844 L 96.730469 42.980469 "/>
<path style="fill:none;stroke-width:2;stroke-linecap:butt;stroke-linejoin:miter;stroke:rgb(100%,80%,0%);stroke-opacity:1;stroke-miterlimit:10;" d="M 34.539062 42.589844 L 34.441406 43.03125 "/>
<path style="fill:none;stroke-width:2;stroke-linecap:butt;stroke-linejoin:miter;stroke:rgb(100%,80%,0%);stroke-opacity:1;stroke-miterlimit:10;" d="M 10 29.554688 L 10.304688 29.65625 "/>
<path style="fill:none;stroke-width:2;stroke-linecap:butt;stroke-linejoin:miter;stroke:rgb(100%,80%,0%);stroke-opacity:1;stroke-miterlimit:10;" d="M 102.015625 23.035156 L 103.625 23.375 "/>
<path style="fill:none;stroke-width:2;stroke-linecap:butt;stroke-linejoin:miter;stroke:rgb(100%,80%,0%);stroke-opacity:1;stroke-miterlimit:10;" d="M 28.402344 23.035156 L 27.171875 23.378906 "/>
<path style="fill:none;stroke-width:2;stroke-linecap:butt;stroke-linejoin:miter;stroke:rgb(100%,80%,0%);stroke-opacity:1;stroke-miterlimit:10;" d="M 95.882812 42.589844 L 96.304688 42.921875 "/>
<path style="fill:none;stroke-width:2;stroke-linecap:butt;stroke-linejoin:miter;stroke:rgb(100%,80%,0%);stroke-opacity:1;stroke-miterlimit:10;" d="M 34.539062 42.589844 L 34.0625 43.085938 "/>
<path style="fill:none;stroke-width:2;stroke-linecap:butt;stroke-linejoin:miter;stroke:rgb(100%,80%,0%);stroke-opacity:1;stroke-miterlimit:10;" d="M 10 29.554688 L 10.074219 29.675781 "/>
<path style="fill:none;stroke-width:2;stroke-linecap:butt;stroke-linejoin:miter;stroke:rgb(100%,80%,0%);stroke-opacity:1;stroke-miterlimit:10;" d="M 16.132812 49.105469 L 10.40625 50.308594 "/>
<path style="fill:none;stroke-width:2;stroke-linecap:butt;stroke-linejoin:miter;stroke:rgb(100%,80%,0%);stroke-opacity:1;stroke-miterlimit:10;" d="M 89.746094 62.140625 L 89.738281 61.402344 "/>
<path style="fill:none;stroke-width:2;stroke-linecap:butt;stroke-linejoin:miter;stroke:rgb(100%,80%,0%);stroke-opacity:1;stroke-miterlimit:10;" d="M 40.671875 62.140625 L 41.234375 61.496094 "/>
<path style="fill:none;stroke-width:2;stroke-linecap:butt;stroke-linejoin:miter;stroke:rgb(100%,80%,0%);stroke-opacity:1;stroke-miterlimit:10;" d="M 108.152344 68.660156 L 107.507812 67.984375 "/>
<path style="fill:none;stroke-width:2;stroke-linecap:butt;stroke-linejoin:miter;stroke:rgb(100%,80%,0%);stroke-opacity:1;stroke-miterlimit:10;" d="M 22.269531 68.660156 L 23.492188 68.046875 "/>
<path style="fill:none;stroke-width:2;stroke-linecap:butt;stroke-linejoin:miter;stroke:rgb(100%,80%,0%);stroke-opacity:1;stroke-miterlimit:10;" d="M 89.746094 62.140625 L 89.222656 61.421875 "/>
<path style="fill:none;stroke-width:2;stroke-linecap:butt;stroke-linejoin:miter;stroke:rgb(100%,80%,0%);stroke-opacity:1;stroke-miterlimit:10;" d="M 40.671875 62.140625 L 41.371094 61.546875 "/>
<path style="fill:none;stroke-width:2;stroke-linecap:butt;stroke-linejoin:miter;stroke:rgb(100%,80%,0%);stroke-opacity:1;stroke-miterlimit:10;" d="M 108.152344 68.660156 L 107.320312 67.894531 "/>
<path style="fill:none;stroke-width:2;stroke-linecap:butt;stroke-linejoin:miter;stroke:rgb(100%,80%,0%);stroke-opacity:1;stroke-miterlimit:10;" d="M 22.269531 68.660156 L 23.300781 68.117188 "/>
<path style="fill:none;stroke-width:2;stroke-linecap:butt;stroke-linejoin:miter;stroke:rgb(0%,0%,100%);stroke-opacity:1;stroke-miterlimit:10;" d="M 67.480469 110.023438 C 67.480469 112.691406 63.480469 112.691406 63.480469 110.023438 C 63.480469 107.355469 67.480469 107.355469 67.480469 110.023438 "/>
<path style=" stroke:none;fill-rule:nonzero;fill:rgb(0%,0%,100%);fill-opacity:1;" d="M 84.734375 130.25 C 84.734375 132.917969 80.734375 132.917969 80.734375 130.25 C 80.734375 127.582031 84.734375 127.582031 84.734375 130.25 "/>
<path style=" stroke:none;fill-rule:nonzero;fill:rgb(0%,0%,100%);fill-opacity:1;" d="M 50.179688 130.199219 C 50.179688 132.863281 46.179688 132.863281 46.179688 130.199219 C 46.179688 127.53125 50.179688 127.53125 50.179688 130.199219 "/>
<path style=" stroke:none;fill-rule:nonzero;fill:rgb(0%,0%,100%);fill-opacity:1;" d="M 80.59375 110.265625 C 80.59375 112.933594 76.59375 112.933594 76.59375 110.265625 C 76.59375 107.597656 80.59375 107.597656 80.59375 110.265625 "/>
<path style=" stroke:none;fill-rule:nonzero;fill:rgb(0%,0%,100%);fill-opacity:1;" d="M 54.308594 109.734375 C 54.308594 112.402344 50.308594 112.402344 50.308594 109.734375 C 50.308594 107.066406 54.308594 107.066406 54.308594 109.734375 "/>
<path style="fill:none;stroke-width:2;stroke-linecap:butt;stroke-linejoin:miter;stroke:rgb(0%,0%,100%);stroke-opacity:1;stroke-miterlimit:10;" d="M 67.351562 150.386719 C 67.351562 153.054688 63.351562 153.054688 63.351562 150.386719 C 63.351562 147.722656 67.351562 147.722656 67.351562 150.386719 "/>
<path style=" stroke:none;fill-rule:nonzero;fill:rgb(0%,0%,100%);fill-opacity:1;" d="M 84.628906 170.578125 C 84.628906 173.242188 80.628906 173.242188 80.628906 170.578125 C 80.628906 167.910156 84.628906 167.910156 84.628906 170.578125 "/>
<path style=" stroke:none;fill-rule:nonzero;fill:rgb(0%,0%,100%);fill-opacity:1;" d="M 50.15625 170.617188 C 50.15625 173.285156 46.15625 173.285156 46.15625 170.617188 C 46.15625 167.949219 50.15625 167.949219 50.15625 170.617188 "/>
<path style=" stroke:none;fill-rule:nonzero;fill:rgb(0%,0%,100%);fill-opacity:1;" d="M 80.625 150.179688 C 80.625 152.847656 76.625 152.847656 76.625 150.179688 C 76.625 147.515625 80.625 147.515625 80.625 150.179688 "/>
<path style=" stroke:none;fill-rule:nonzero;fill:rgb(0%,0%,100%);fill-opacity:1;" d="M 54.050781 150.648438 C 54.050781 153.316406 50.050781 153.316406 50.050781 150.648438 C 50.050781 147.980469 54.050781 147.980469 54.050781 150.648438 "/>
<path style=" stroke:none;fill-rule:nonzero;fill:rgb(0%,0%,100%);fill-opacity:1;" d="M 66.910156 130.234375 C 66.910156 132.898438 62.910156 132.898438 62.910156 130.234375 C 62.910156 127.566406 66.910156 127.566406 66.910156 130.234375 "/>
<path style=" stroke:none;fill-rule:nonzero;fill:rgb(0%,0%,100%);fill-opacity:1;" d="M 67.8125 170.605469 C 67.8125 173.269531 63.8125 173.269531 63.8125 170.605469 C 63.8125 167.9375 67.8125 167.9375 67.8125 170.605469 "/>
<path style=" stroke:none;fill-rule:nonzero;fill:rgb(0%,0%,100%);fill-opacity:1;" d="M 105.140625 110.050781 C 105.140625 112.71875 101.140625 112.71875 101.140625 110.050781 C 101.140625 107.386719 105.140625 107.386719 105.140625 110.050781 "/>
<path style=" stroke:none;fill-rule:nonzero;fill:rgb(0%,0%,100%);fill-opacity:1;" d="M 29.734375 109.945312 C 29.734375 112.609375 25.734375 112.609375 25.734375 109.945312 C 25.734375 107.277344 29.734375 107.277344 29.734375 109.945312 "/>
<path style=" stroke:none;fill-rule:nonzero;fill:rgb(0%,0%,100%);fill-opacity:1;" d="M 98.730469 130.304688 C 98.730469 132.972656 94.730469 132.972656 94.730469 130.304688 C 94.730469 127.636719 98.730469 127.636719 98.730469 130.304688 "/>
<path style=" stroke:none;fill-rule:nonzero;fill:rgb(0%,0%,100%);fill-opacity:1;" d="M 36.441406 130.207031 C 36.441406 132.875 32.441406 132.875 32.441406 130.207031 C 32.441406 127.539062 36.441406 127.539062 36.441406 130.207031 "/>
<path style=" stroke:none;fill-rule:nonzero;fill:rgb(0%,0%,100%);fill-opacity:1;" d="M 12.304688 129.78125 C 12.304688 132.449219 8.304688 132.449219 8.304688 129.78125 C 8.304688 127.113281 12.304688 127.113281 12.304688 129.78125 "/>
<path style=" stroke:none;fill-rule:nonzero;fill:rgb(0%,0%,100%);fill-opacity:1;" d="M 105.625 150.410156 C 105.625 153.078125 101.625 153.078125 101.625 150.410156 C 101.625 147.742188 105.625 147.742188 105.625 150.410156 "/>
<path style=" stroke:none;fill-rule:nonzero;fill:rgb(0%,0%,100%);fill-opacity:1;" d="M 29.171875 150.433594 C 29.171875 153.101562 25.171875 153.101562 25.171875 150.433594 C 25.171875 147.765625 29.171875 147.765625 29.171875 150.433594 "/>
<path style=" stroke:none;fill-rule:nonzero;fill:rgb(0%,0%,100%);fill-opacity:1;" d="M 98.304688 170.578125 C 98.304688 173.246094 94.304688 173.246094 94.304688 170.578125 C 94.304688 167.910156 98.304688 167.910156 98.304688 170.578125 "/>
<path style=" stroke:none;fill-rule:nonzero;fill:rgb(0%,0%,100%);fill-opacity:1;" d="M 36.0625 170.585938 C 36.0625 173.25 32.0625 173.25 32.0625 170.585938 C 32.0625 167.917969 36.0625 167.917969 36.0625 170.585938 "/>
<path style=" stroke:none;fill-rule:nonzero;fill:rgb(0%,0%,100%);fill-opacity:1;" d="M 12.074219 171.042969 C 12.074219 173.707031 8.074219 173.707031 8.074219 171.042969 C 8.074219 168.375 12.074219 168.375 12.074219 171.042969 "/>
<path style=" stroke:none;fill-rule:nonzero;fill:rgb(0%,0%,100%);fill-opacity:1;" d="M 12.40625 150.398438 C 12.40625 153.0625 8.40625 153.0625 8.40625 150.398438 C 8.40625 147.730469 12.40625 147.730469 12.40625 150.398438 "/>
<path style=" stroke:none;fill-rule:nonzero;fill:rgb(0%,0%,100%);fill-opacity:1;" d="M 91.738281 110.046875 C 91.738281 112.714844 87.738281 112.714844 87.738281 110.046875 C 87.738281 107.378906 91.738281 107.378906 91.738281 110.046875 "/>
<path style=" stroke:none;fill-rule:nonzero;fill:rgb(0%,0%,100%);fill-opacity:1;" d="M 43.234375 109.957031 C 43.234375 112.621094 39.234375 112.621094 39.234375 109.957031 C 39.234375 107.289062 43.234375 107.289062 43.234375 109.957031 "/>
<path style=" stroke:none;fill-rule:nonzero;fill:rgb(0%,0%,100%);fill-opacity:1;" d="M 109.507812 130.5625 C 109.507812 133.230469 105.507812 133.230469 105.507812 130.5625 C 105.507812 127.898438 109.507812 127.898438 109.507812 130.5625 "/>
<path style=" stroke:none;fill-rule:nonzero;fill:rgb(0%,0%,100%);fill-opacity:1;" d="M 25.492188 130.339844 C 25.492188 133.003906 21.492188 133.003906 21.492188 130.339844 C 21.492188 127.671875 25.492188 127.671875 25.492188 130.339844 "/>
<path style=" stroke:none;fill-rule:nonzero;fill:rgb(0%,0%,100%);fill-opacity:1;" d="M 91.222656 150.394531 C 91.222656 153.058594 87.222656 153.058594 87.222656 150.394531 C 87.222656 147.726562 91.222656 147.726562 91.222656 150.394531 "/>
<path style=" stroke:none;fill-rule:nonzero;fill:rgb(0%,0%,100%);fill-opacity:1;" d="M 43.371094 150.421875 C 43.371094 153.089844 39.371094 153.089844 39.371094 150.421875 C 39.371094 147.757812 43.371094 147.757812 43.371094 150.421875 "/>
<path style=" stroke:none;fill-rule:nonzero;fill:rgb(0%,0%,100%);fill-opacity:1;" d="M 109.320312 170.308594 C 109.320312 172.976562 105.320312 172.976562 105.320312 170.308594 C 105.320312 167.640625 109.320312 167.640625 109.320312 170.308594 "/>
<path style=" stroke:none;fill-rule:nonzero;fill:rgb(0%,0%,100%);fill-opacity:1;" d="M 25.300781 170.453125 C 25.300781 173.121094 21.300781 173.121094 21.300781 170.453125 C 21.300781 167.785156 25.300781 167.785156 25.300781 170.453125 "/>
<path style="fill:none;stroke-width:2;stroke-linecap:butt;stroke-linejoin:miter;stroke:rgb(100%,80%,0%);stroke-opacity:1;stroke-miterlimit:10;" d="M 65.210938 110 L 65.480469 110.023438 "/>
<path style="fill:none;stroke-width:2;stroke-linecap:butt;stroke-linejoin:miter;stroke:rgb(100%,80%,0%);stroke-opacity:1;stroke-miterlimit:10;" d="M 83.613281 130.207031 L 82.734375 130.25 "/>
<path style="fill:none;stroke-width:2;stroke-linecap:butt;stroke-linejoin:miter;stroke:rgb(100%,80%,0%);stroke-opacity:1;stroke-miterlimit:10;" d="M 46.804688 130.207031 L 48.179688 130.199219 "/>
<path style="fill:none;stroke-width:2;stroke-linecap:butt;stroke-linejoin:miter;stroke:rgb(100%,80%,0%);stroke-opacity:1;stroke-miterlimit:10;" d="M 77.480469 110 L 78.59375 110.265625 "/>
<path style="fill:none;stroke-width:2;stroke-linecap:butt;stroke-linejoin:miter;stroke:rgb(100%,80%,0%);stroke-opacity:1;stroke-miterlimit:10;" d="M 52.941406 110 L 52.308594 109.734375 "/>
<path style="fill:none;stroke-width:2;stroke-linecap:butt;stroke-linejoin:miter;stroke:rgb(100%,80%,0%);stroke-opacity:1;stroke-miterlimit:10;" d="M 65.210938 150.414062 L 65.351562 150.386719 "/>
<path style="fill:none;stroke-width:2;stroke-linecap:butt;stroke-linejoin:miter;stroke:rgb(100%,80%,0%);stroke-opacity:1;stroke-miterlimit:10;" d="M 83.613281 170.621094 L 82.628906 170.578125 "/>
<path style="fill:none;stroke-width:2;stroke-linecap:butt;stroke-linejoin:miter;stroke:rgb(100%,80%,0%);stroke-opacity:1;stroke-miterlimit:10;" d="M 46.804688 170.621094 L 48.15625 170.617188 "/>
<path style="fill:none;stroke-width:2;stroke-linecap:butt;stroke-linejoin:miter;stroke:rgb(100%,80%,0%);stroke-opacity:1;stroke-miterlimit:10;" d="M 77.480469 150.414062 L 78.625 150.179688 "/>
<path style="fill:none;stroke-width:2;stroke-linecap:butt;stroke-linejoin:miter;stroke:rgb(100%,80%,0%);stroke-opacity:1;stroke-miterlimit:10;" d="M 52.941406 150.414062 L 52.050781 150.648438 "/>
<path style="fill:none;stroke-width:2;stroke-linecap:butt;stroke-linejoin:miter;stroke:rgb(100%,80%,0%);stroke-opacity:1;stroke-miterlimit:10;" d="M 59.074219 130.207031 L 64.910156 130.234375 "/>
<path style="fill:none;stroke-width:2;stroke-linecap:butt;stroke-linejoin:miter;stroke:rgb(100%,80%,0%);stroke-opacity:1;stroke-miterlimit:10;" d="M 71.34375 170.621094 L 65.8125 170.605469 "/>
<path style="fill:none;stroke-width:2;stroke-linecap:butt;stroke-linejoin:miter;stroke:rgb(100%,80%,0%);stroke-opacity:1;stroke-miterlimit:10;" d="M 102.015625 110 L 103.140625 110.050781 "/>
<path style="fill:none;stroke-width:2;stroke-linecap:butt;stroke-linejoin:miter;stroke:rgb(100%,80%,0%);stroke-opacity:1;stroke-miterlimit:10;" d="M 28.402344 110 L 27.734375 109.945312 "/>
<path style="fill:none;stroke-width:2;stroke-linecap:butt;stroke-linejoin:miter;stroke:rgb(100%,80%,0%);stroke-opacity:1;stroke-miterlimit:10;" d="M 95.882812 130.207031 L 96.730469 130.304688 "/>
<path style="fill:none;stroke-width:2;stroke-linecap:butt;stroke-linejoin:miter;stroke:rgb(100%,80%,0%);stroke-opacity:1;stroke-miterlimit:10;" d="M 34.539062 130.207031 L 34.441406 130.207031 "/>
<path style="fill:none;stroke-width:2;stroke-linecap:butt;stroke-linejoin:miter;stroke:rgb(100%,80%,0%);stroke-opacity:1;stroke-miterlimit:10;" d="M 10 130.207031 L 10.304688 129.78125 "/>
<path style="fill:none;stroke-width:2;stroke-linecap:butt;stroke-linejoin:miter;stroke:rgb(100%,80%,0%);stroke-opacity:1;stroke-miterlimit:10;" d="M 102.015625 150.414062 L 103.625 150.410156 "/>
<path style="fill:none;stroke-width:2;stroke-linecap:butt;stroke-linejoin:miter;stroke:rgb(100%,80%,0%);stroke-opacity:1;stroke-miterlimit:10;" d="M 28.402344 150.414062 L 27.171875 150.433594 "/>
<path style="fill:none;stroke-width:2;stroke-linecap:butt;stroke-linejoin:miter;stroke:rgb(100%,80%,0%);stroke-opacity:1;stroke-miterlimit:10;" d="M 95.882812 170.621094 L 96.304688 170.578125 "/>
<path style="fill:none;stroke-width:2;stroke-linecap:butt;stroke-linejoin:miter;stroke:rgb(100%,80%,0%);stroke-opacity:1;stroke-miterlimit:10;" d="M 34.539062 170.621094 L 34.0625 170.585938 "/>
<path style="fill:none;stroke-width:2;stroke-linecap:butt;stroke-linejoin:miter;stroke:rgb(100%,80%,0%);stroke-opacity:1;stroke-miterlimit:10;" d="M 10 170.621094 L 10.074219 171.042969 "/>
<path style="fill:none;stroke-width:2;stroke-linecap:butt;stroke-linejoin:miter;stroke:rgb(100%,80%,0%);stroke-opacity:1;stroke-miterlimit:10;" d="M 16.132812 150.414062 L 10.40625 150.398438 "/>
<path style="fill:none;stroke-width:2;stroke-linecap:butt;stroke-linejoin:miter;stroke:rgb(100%,80%,0%);stroke-opacity:1;stroke-miterlimit:10;" d="M 89.746094 110 L 89.738281 110.046875 "/>
<path style="fill:none;stroke-width:2;stroke-linecap:butt;stroke-linejoin:miter;stroke:rgb(100%,80%,0%);stroke-opacity:1;stroke-miterlimit:10;" d="M 40.671875 110 L 41.234375 109.957031 "/>
<path style="fill:none;stroke-width:2;stroke-linecap:butt;stroke-linejoin:miter;stroke:rgb(100%,80%,0%);stroke-opacity:1;stroke-miterlimit:10;" d="M 108.152344 130.207031 L 107.507812 130.5625 "/>
<path style="fill:none;stroke-width:2;stroke-linecap:butt;stroke-linejoin:miter;stroke:rgb(100%,80%,0%);stroke-opacity:1;stroke-miterlimit:10;" d="M 22.269531 130.207031 L 23.492188 130.339844 "/>
<path style="fill:none;stroke-width:2;stroke-linecap:butt;stroke-linejoin:miter;stroke:rgb(100%,80%,0%);stroke-opacity:1;stroke-miterlimit:10;" d="M 89.746094 150.414062 L 89.222656 150.394531 "/>
<path style="fill:none;stroke-width:2;stroke-linecap:butt;stroke-linejoin:miter;stroke:rgb(100%,80%,0%);stroke-opacity:1;stroke-miterlimit:10;" d="M 40.671875 150.414062 L 41.371094 150.421875 "/>
<path style="fill:none;stroke-width:2;stroke-linecap:butt;stroke-linejoin:miter;stroke:rgb(100%,80%,0%);stroke-opacity:1;stroke-miterlimit:10;" d="M 108.152344 170.621094 L 107.320312 170.308594 "/>
<path style="fill:none;stroke-width:2;stroke-linecap:butt;stroke-linejoin:miter;stroke:rgb(100%,80%,0%);stroke-opacity:1;stroke-miterlimit:10;" d="M 22.269531 170.621094 L 23.300781 170.453125 "/>
<path style=" stroke:none;fill-rule:nonzero;fill:rgb(0%,0%,100%);fill-opacity:1;" d="M 162.453125 110.023438 C 162.453125 112.691406 158.453125 112.691406 158.453125 110.023438 C 158.453125 107.355469 162.453125 107.355469 162.453125 110.023438 "/>
<path style=" stroke:none;fill-rule:nonzero;fill:rgb(0%,0%,100%);fill-opacity:1;" d="M 168.917969 130.25 C 168.917969 132.917969 164.917969 132.917969 164.917969 130.25 C 164.917969 127.582031 168.917969 127.582031 168.917969 130.25 "/>
<path style=" stroke:none;fill-rule:nonzero;fill:rgb(0%,0%,100%);fill-opacity:1;" d="M 169.273438 130.199219 C 169.273438 132.863281 165.273438 132.863281 165.273438 130.199219 C 165.273438 127.53125 169.273438 127.53125 169.273438 130.199219 "/>
<path style=" stroke:none;fill-rule:nonzero;fill:rgb(0%,0%,100%);fill-opacity:1;" d="M 188.464844 110.265625 C 188.464844 112.933594 184.464844 112.933594 184.464844 110.265625 C 184.464844 107.597656 188.464844 107.597656 188.464844 110.265625 "/>
<path style=" stroke:none;fill-rule:nonzero;fill:rgb(0%,0%,100%);fill-opacity:1;" d="M 188.523438 109.734375 C 188.523438 112.402344 184.523438 112.402344 184.523438 109.734375 C 184.523438 107.066406 188.523438 107.066406 188.523438 109.734375 "/>
<path style=" stroke:none;fill-rule:nonzero;fill:rgb(0%,0%,100%);fill-opacity:1;" d="M 162.839844 150.386719 C 162.839844 153.054688 158.839844 153.054688 158.839844 150.386719 C 158.839844 147.722656 162.839844 147.722656 162.839844 150.386719 "/>
<path style=" stroke:none;fill-rule:nonzero;fill:rgb(0%,0%,100%);fill-opacity:1;" d="M 169.144531 170.578125 C 169.144531 173.242188 165.144531 173.242188 165.144531 170.578125 C 165.144531 167.910156 169.144531 167.910156 169.144531 170.578125 "/>
<path style=" stroke:none;fill-rule:nonzero;fill:rgb(0%,0%,100%);fill-opacity:1;" d="M 168.988281 170.617188 C 168.988281 173.285156 164.988281 173.285156 164.988281 170.617188 C 164.988281 167.949219 168.988281 167.949219 168.988281 170.617188 "/>
<path style=" stroke:none;fill-rule:nonzero;fill:rgb(0%,0%,100%);fill-opacity:1;" d="M 188.363281 150.179688 C 188.363281 152.847656 184.363281 152.847656 184.363281 150.179688 C 184.363281 147.515625 188.363281 147.515625 188.363281 150.179688 "/>
<path style=" stroke:none;fill-rule:nonzero;fill:rgb(0%,0%,100%);fill-opacity:1;" d="M 188.476562 150.648438 C 188.476562 153.316406 184.476562 153.316406 184.476562 150.648438 C 184.476562 147.980469 188.476562 147.980469 188.476562 150.648438 "/>
<path style=" stroke:none;fill-rule:nonzero;fill:rgb(0%,0%,100%);fill-opacity:1;" d="M 205.765625 130.234375 C 205.765625 132.898438 201.765625 132.898438 201.765625 130.234375 C 201.765625 127.566406 205.765625 127.566406 205.765625 130.234375 "/>
<path style=" stroke:none;fill-rule:nonzero;fill:rgb(0%,0%,100%);fill-opacity:1;" d="M 205.789062 170.605469 C 205.789062 173.269531 201.789062 173.269531 201.789062 170.605469 C 201.789062 167.9375 205.789062 167.9375 205.789062 170.605469 "/>
<path style=" stroke:none;fill-rule:nonzero;fill:rgb(0%,0%,100%);fill-opacity:1;" d="M 175 110.050781 C 175 112.71875 171 112.71875 171 110.050781 C 171 107.386719 175 107.386719 175 110.050781 "/>
<path style=" stroke:none;fill-rule:nonzero;fill:rgb(0%,0%,100%);fill-opacity:1;" d="M 175.203125 109.945312 C 175.203125 112.609375 171.203125 112.609375 171.203125 109.945312 C 171.203125 107.277344 175.203125 107.277344 175.203125 109.945312 "/>
<path style=" stroke:none;fill-rule:nonzero;fill:rgb(0%,0%,100%);fill-opacity:1;" d="M 194.980469 130.304688 C 194.980469 132.972656 190.980469 132.972656 190.980469 130.304688 C 190.980469 127.636719 194.980469 127.636719 194.980469 130.304688 "/>
<path style=" stroke:none;fill-rule:nonzero;fill:rgb(0%,0%,100%);fill-opacity:1;" d="M 195.03125 130.207031 C 195.03125 132.875 191.03125 132.875 191.03125 130.207031 C 191.03125 127.539062 195.03125 127.539062 195.03125 130.207031 "/>
<path style="fill:none;stroke-width:2;stroke-linecap:butt;stroke-linejoin:miter;stroke:rgb(0%,0%,100%);stroke-opacity:1;stroke-miterlimit:10;" d="M 181.65625 129.78125 C 181.65625 132.449219 177.65625 132.449219 177.65625 129.78125 C 177.65625 127.113281 181.65625 127.113281 181.65625 129.78125 "/>
<path style=" stroke:none;fill-rule:nonzero;fill:rgb(0%,0%,100%);fill-opacity:1;" d="M 175.375 150.410156 C 175.375 153.078125 171.375 153.078125 171.375 150.410156 C 171.375 147.742188 175.375 147.742188 175.375 150.410156 "/>
<path style=" stroke:none;fill-rule:nonzero;fill:rgb(0%,0%,100%);fill-opacity:1;" d="M 175.378906 150.433594 C 175.378906 153.101562 171.378906 153.101562 171.378906 150.433594 C 171.378906 147.765625 175.378906 147.765625 175.378906 150.433594 "/>
<path style=" stroke:none;fill-rule:nonzero;fill:rgb(0%,0%,100%);fill-opacity:1;" d="M 194.921875 170.578125 C 194.921875 173.246094 190.921875 173.246094 190.921875 170.578125 C 190.921875 167.910156 194.921875 167.910156 194.921875 170.578125 "/>
<path style=" stroke:none;fill-rule:nonzero;fill:rgb(0%,0%,100%);fill-opacity:1;" d="M 195.085938 170.585938 C 195.085938 173.25 191.085938 173.25 191.085938 170.585938 C 191.085938 167.917969 195.085938 167.917969 195.085938 170.585938 "/>
<path style="fill:none;stroke-width:2;stroke-linecap:butt;stroke-linejoin:miter;stroke:rgb(0%,0%,100%);stroke-opacity:1;stroke-miterlimit:10;" d="M 181.675781 171.042969 C 181.675781 173.707031 177.675781 173.707031 177.675781 171.042969 C 177.675781 168.375 181.675781 168.375 181.675781 171.042969 "/>
<path style="fill:none;stroke-width:2;stroke-linecap:butt;stroke-linejoin:miter;stroke:rgb(0%,0%,100%);stroke-opacity:1;stroke-miterlimit:10;" d="M 202.308594 150.398438 C 202.308594 153.0625 198.308594 153.0625 198.308594 150.398438 C 198.308594 147.730469 202.308594 147.730469 202.308594 150.398438 "/>
<path style=" stroke:none;fill-rule:nonzero;fill:rgb(0%,0%,100%);fill-opacity:1;" d="M 213.402344 110.046875 C 213.402344 112.714844 209.402344 112.714844 209.402344 110.046875 C 209.402344 107.378906 213.402344 107.378906 213.402344 110.046875 "/>
<path style=" stroke:none;fill-rule:nonzero;fill:rgb(0%,0%,100%);fill-opacity:1;" d="M 213.496094 109.957031 C 213.496094 112.621094 209.496094 112.621094 209.496094 109.957031 C 209.496094 107.289062 213.496094 107.289062 213.496094 109.957031 "/>
<path style=" stroke:none;fill-rule:nonzero;fill:rgb(0%,0%,100%);fill-opacity:1;" d="M 219.984375 130.5625 C 219.984375 133.230469 215.984375 133.230469 215.984375 130.5625 C 215.984375 127.898438 219.984375 127.898438 219.984375 130.5625 "/>
<path style=" stroke:none;fill-rule:nonzero;fill:rgb(0%,0%,100%);fill-opacity:1;" d="M 220.046875 130.339844 C 220.046875 133.003906 216.046875 133.003906 216.046875 130.339844 C 216.046875 127.671875 220.046875 127.671875 220.046875 130.339844 "/>
<path style=" stroke:none;fill-rule:nonzero;fill:rgb(0%,0%,100%);fill-opacity:1;" d="M 213.421875 150.394531 C 213.421875 153.058594 209.421875 153.058594 209.421875 150.394531 C 209.421875 147.726562 213.421875 147.726562 213.421875 150.394531 "/>
<path style=" stroke:none;fill-rule:nonzero;fill:rgb(0%,0%,100%);fill-opacity:1;" d="M 213.546875 150.421875 C 213.546875 153.089844 209.546875 153.089844 209.546875 150.421875 C 209.546875 147.757812 213.546875 147.757812 213.546875 150.421875 "/>
<path style=" stroke:none;fill-rule:nonzero;fill:rgb(0%,0%,100%);fill-opacity:1;" d="M 219.894531 170.308594 C 219.894531 172.976562 215.894531 172.976562 215.894531 170.308594 C 215.894531 167.640625 219.894531 167.640625 219.894531 170.308594 "/>
<path style=" stroke:none;fill-rule:nonzero;fill:rgb(0%,0%,100%);fill-opacity:1;" d="M 220.117188 170.453125 C 220.117188 173.121094 216.117188 173.121094 216.117188 170.453125 C 216.117188 167.785156 220.117188 167.785156 220.117188 170.453125 "/>
<path style="fill:none;stroke-width:2;stroke-linecap:butt;stroke-linejoin:miter;stroke:rgb(100%,80%,0%);stroke-opacity:1;stroke-miterlimit:10;" d="M 160 110 L 160.453125 110.023438 "/>
<path style="fill:none;stroke-width:2;stroke-linecap:butt;stroke-linejoin:miter;stroke:rgb(100%,80%,0%);stroke-opacity:1;stroke-miterlimit:10;" d="M 166.519531 130.207031 L 166.917969 130.25 "/>
<path style="fill:none;stroke-width:2;stroke-linecap:butt;stroke-linejoin:miter;stroke:rgb(100%,80%,0%);stroke-opacity:1;stroke-miterlimit:10;" d="M 166.519531 130.207031 L 167.273438 130.199219 "/>
<path style="fill:none;stroke-width:2;stroke-linecap:butt;stroke-linejoin:miter;stroke:rgb(100%,80%,0%);stroke-opacity:1;stroke-miterlimit:10;" d="M 186.070312 110 L 186.464844 110.265625 "/>
<path style="fill:none;stroke-width:2;stroke-linecap:butt;stroke-linejoin:miter;stroke:rgb(100%,80%,0%);stroke-opacity:1;stroke-miterlimit:10;" d="M 186.070312 110 L 186.523438 109.734375 "/>
<path style="fill:none;stroke-width:2;stroke-linecap:butt;stroke-linejoin:miter;stroke:rgb(100%,80%,0%);stroke-opacity:1;stroke-miterlimit:10;" d="M 160 150.414062 L 160.839844 150.386719 "/>
<path style="fill:none;stroke-width:2;stroke-linecap:butt;stroke-linejoin:miter;stroke:rgb(100%,80%,0%);stroke-opacity:1;stroke-miterlimit:10;" d="M 166.519531 170.621094 L 167.144531 170.578125 "/>
<path style="fill:none;stroke-width:2;stroke-linecap:butt;stroke-linejoin:miter;stroke:rgb(100%,80%,0%);stroke-opacity:1;stroke-miterlimit:10;" d="M 166.519531 170.621094 L 166.988281 170.617188 "/>
<path style="fill:none;stroke-width:2;stroke-linecap:butt;stroke-linejoin:miter;stroke:rgb(100%,80%,0%);stroke-opacity:1;stroke-miterlimit:10;" d="M 186.070312 150.414062 L 186.363281 150.179688 "/>
<path style="fill:none;stroke-width:2;stroke-linecap:butt;stroke-linejoin:miter;stroke:rgb(100%,80%,0%);stroke-opacity:1;stroke-miterlimit:10;" d="M 186.070312 150.414062 L 186.476562 150.648438 "/>
<path style="fill:none;stroke-width:2;stroke-linecap:butt;stroke-linejoin:miter;stroke:rgb(100%,80%,0%);stroke-opacity:1;stroke-miterlimit:10;" d="M 205.625 130.207031 L 203.765625 130.234375 "/>
<path style="fill:none;stroke-width:2;stroke-linecap:butt;stroke-linejoin:miter;stroke:rgb(100%,80%,0%);stroke-opacity:1;stroke-miterlimit:10;" d="M 205.625 170.621094 L 203.789062 170.605469 "/>
<path style="fill:none;stroke-width:2;stroke-linecap:butt;stroke-linejoin:miter;stroke:rgb(100%,80%,0%);stroke-opacity:1;stroke-miterlimit:10;" d="M 173.035156 110 L 173 110.050781 "/>
<path style="fill:none;stroke-width:2;stroke-linecap:butt;stroke-linejoin:miter;stroke:rgb(100%,80%,0%);stroke-opacity:1;stroke-miterlimit:10;" d="M 173.035156 110 L 173.203125 109.945312 "/>
<path style="fill:none;stroke-width:2;stroke-linecap:butt;stroke-linejoin:miter;stroke:rgb(100%,80%,0%);stroke-opacity:1;stroke-miterlimit:10;" d="M 192.589844 130.207031 L 192.980469 130.304688 "/>
<path style="fill:none;stroke-width:2;stroke-linecap:butt;stroke-linejoin:miter;stroke:rgb(100%,80%,0%);stroke-opacity:1;stroke-miterlimit:10;" d="M 192.589844 130.207031 L 193.03125 130.207031 "/>
<path style="fill:none;stroke-width:2;stroke-linecap:butt;stroke-linejoin:miter;stroke:rgb(100%,80%,0%);stroke-opacity:1;stroke-miterlimit:10;" d="M 179.554688 130.207031 L 179.65625 129.78125 "/>
<path style="fill:none;stroke-width:2;stroke-linecap:butt;stroke-linejoin:miter;stroke:rgb(100%,80%,0%);stroke-opacity:1;stroke-miterlimit:10;" d="M 173.035156 150.414062 L 173.375 150.410156 "/>
<path style="fill:none;stroke-width:2;stroke-linecap:butt;stroke-linejoin:miter;stroke:rgb(100%,80%,0%);stroke-opacity:1;stroke-miterlimit:10;" d="M 173.035156 150.414062 L 173.378906 150.433594 "/>
<path style="fill:none;stroke-width:2;stroke-linecap:butt;stroke-linejoin:miter;stroke:rgb(100%,80%,0%);stroke-opacity:1;stroke-miterlimit:10;" d="M 192.589844 170.621094 L 192.921875 170.578125 "/>
<path style="fill:none;stroke-width:2;stroke-linecap:butt;stroke-linejoin:miter;stroke:rgb(100%,80%,0%);stroke-opacity:1;stroke-miterlimit:10;" d="M 192.589844 170.621094 L 193.085938 170.585938 "/>
<path style="fill:none;stroke-width:2;stroke-linecap:butt;stroke-linejoin:miter;stroke:rgb(100%,80%,0%);stroke-opacity:1;stroke-miterlimit:10;" d="M 179.554688 170.621094 L 179.675781 171.042969 "/>
<path style="fill:none;stroke-width:2;stroke-linecap:butt;stroke-linejoin:miter;stroke:rgb(100%,80%,0%);stroke-opacity:1;stroke-miterlimit:10;" d="M 199.105469 150.414062 L 200.308594 150.398438 "/>
<path style="fill:none;stroke-width:2;stroke-linecap:butt;stroke-linejoin:miter;stroke:rgb(100%,80%,0%);stroke-opacity:1;stroke-miterlimit:10;" d="M 212.140625 110 L 211.402344 110.046875 "/>
<path style="fill:none;stroke-width:2;stroke-linecap:butt;stroke-linejoin:miter;stroke:rgb(100%,80%,0%);stroke-opacity:1;stroke-miterlimit:10;" d="M 212.140625 110 L 211.496094 109.957031 "/>
<path style="fill:none;stroke-width:2;stroke-linecap:butt;stroke-linejoin:miter;stroke:rgb(100%,80%,0%);stroke-opacity:1;stroke-miterlimit:10;" d="M 218.660156 130.207031 L 217.984375 130.5625 "/>
<path style="fill:none;stroke-width:2;stroke-linecap:butt;stroke-linejoin:miter;stroke:rgb(100%,80%,0%);stroke-opacity:1;stroke-miterlimit:10;" d="M 218.660156 130.207031 L 218.046875 130.339844 "/>
<path style="fill:none;stroke-width:2;stroke-linecap:butt;stroke-linejoin:miter;stroke:rgb(100%,80%,0%);stroke-opacity:1;stroke-miterlimit:10;" d="M 212.140625 150.414062 L 211.421875 150.394531 "/>
<path style="fill:none;stroke-width:2;stroke-linecap:butt;stroke-linejoin:miter;stroke:rgb(100%,80%,0%);stroke-opacity:1;stroke-miterlimit:10;" d="M 212.140625 150.414062 L 211.546875 150.421875 "/>
<path style="fill:none;stroke-width:2;stroke-linecap:butt;stroke-linejoin:miter;stroke:rgb(100%,80%,0%);stroke-opacity:1;stroke-miterlimit:10;" d="M 218.660156 170.621094 L 217.894531 170.308594 "/>
<path style="fill:none;stroke-width:2;stroke-linecap:butt;stroke-linejoin:miter;stroke:rgb(100%,80%,0%);stroke-opacity:1;stroke-miterlimit:10;" d="M 218.660156 170.621094 L 218.117188 170.453125 "/>
</g>
</svg>
