<?xml version="1.0" encoding="UTF-8"?>
<svg xmlns="http://www.w3.org/2000/svg" xmlns:xlink="http://www.w3.org/1999/xlink" width="300pt" height="200pt" viewBox="0 0 300 200" version="1.1">
<g id="surface1">
<rect x="0" y="0" width="300" height="200" style="fill:rgb(80%,80%,80%);fill-opacity:1;stroke:none;"/>
<path style="fill:none;stroke-width:1;stroke-linecap:butt;stroke-linejoin:miter;stroke:rgb(0%,0%,0%);stroke-opacity:1;stroke-miterlimit:10;" d="M 10 10 L 10 1010 "/>
<path style="fill:none;stroke-width:1;stroke-linecap:butt;stroke-linejoin:miter;stroke:rgb(0%,0%,0%);stroke-opacity:1;stroke-miterlimit:10;" d="M 160 10 L 160 1010 "/>
<path style="fill:none;stroke-width:1;stroke-linecap:butt;stroke-linejoin:miter;stroke:rgb(0%,0%,0%);stroke-opacity:1;stroke-miterlimit:10;" d="M 10 110 L 10 1110 "/>
<path style="fill:none;stroke-width:1;stroke-linecap:butt;stroke-linejoin:miter;stroke:rgb(0%,0%,0%);stroke-opacity:1;stroke-miterlimit:10;" d="M 10 10 L 1010 10 "/>
<path style="fill:none;stroke-width:1;stroke-linecap:butt;stroke-linejoin:miter;stroke:rgb(0%,0%,0%);stroke-opacity:1;stroke-miterlimit:10;" d="M 160 10 L 1160 10 "/>
<path style="fill:none;stroke-width:1;stroke-linecap:butt;stroke-linejoin:miter;stroke:rgb(0%,0%,0%);stroke-opacity:1;stroke-miterlimit:10;" d="M 10 110 L 1010 110 "/>
<path style=" stroke:none;fill-rule:nonzero;fill:rgb(100%,0%,0%);fill-opacity:1;" d="M 82.308594 23.941406 C 82.308594 27.410156 77.109375 27.410156 77.109375 23.941406 C 77.109375 20.476562 82.308594 20.476562 82.308594 23.941406 "/>
<path style=" stroke:none;fill-rule:nonzero;fill:rgb(100%,0%,0%);fill-opacity:1;" d="M 68.367188 23.941406 C 68.367188 27.410156 63.167969 27.410156 63.167969 23.941406 C 63.167969 20.476562 68.367188 20.476562 68.367188 23.941406 "/>
<path style=" stroke:none;fill-rule:nonzero;fill:rgb(100%,0%,0%);fill-opacity:1;" d="M 131.105469 30.914062 C 131.105469 34.378906 125.90625 34.378906 125.90625 30.914062 C 125.90625 27.445312 131.105469 27.445312 131.105469 30.914062 "/>
<path style=" stroke:none;fill-rule:nonzero;fill:rgb(100%,0%,0%);fill-opacity:1;" d="M 19.570312 30.914062 C 19.570312 34.378906 14.371094 34.378906 14.371094 30.914062 C 14.371094 27.445312 19.570312 27.445312 19.570312 30.914062 "/>
<path style="fill:none;stroke-width:1;stroke-linecap:butt;stroke-linejoin:miter;stroke:rgb(100%,0%,0%);stroke-opacity:1;stroke-miterlimit:10;" d="M 132.925781 30.914062 C 132.925781 36.804688 124.085938 36.804688 124.085938 30.914062 C 124.085938 25.019531 132.925781 25.019531 132.925781 30.914062 "/>
<path style=" stroke:none;fill-rule:nonzero;fill:rgb(0%,0%,100%);fill-opacity:1;" d="M 74.738281 72.738281 C 74.738281 75.40625 70.738281 75.40625 70.738281 72.738281 C 70.738281 70.070312 74.738281 70.070312 74.738281 72.738281 "/>
<path style=" stroke:none;fill-rule:nonzero;fill:rgb(0%,0%,100%);fill-opacity:1;" d="M 95.652344 65.765625 C 95.652344 68.433594 91.652344 68.433594 91.652344 65.765625 C 91.652344 63.101562 95.652344 63.101562 95.652344 65.765625 "/>
<path style=" stroke:none;fill-rule:nonzero;fill:rgb(0%,0%,100%);fill-opacity:1;" d="M 53.824219 65.765625 C 53.824219 68.433594 49.824219 68.433594 49.824219 65.765625 C 49.824219 63.101562 53.824219 63.101562 53.824219 65.765625 "/>
<path style=" stroke:none;fill-rule:nonzero;fill:rgb(0%,0%,100%);fill-opacity:1;" d="M 88.679688 44.855469 C 88.679688 47.519531 84.679688 47.519531 84.679688 44.855469 C 84.679688 42.1875 88.679688 42.1875 88.679688 44.855469 "/>
<path style=" stroke:none;fill-rule:nonzero;fill:rgb(0%,0%,100%);fill-opacity:1;" d="M 60.796875 44.855469 C 60.796875 47.519531 56.796875 47.519531 56.796875 44.855469 C 56.796875 42.1875 60.796875 42.1875 60.796875 44.855469 "/>
<path style="fill:none;stroke-width:0.5;stroke-linecap:butt;stroke-linejoin:miter;stroke:rgb(0%,0%,100%);stroke-opacity:1;stroke-miterlimit:10;" d="M 76.136719 72.738281 C 76.136719 77.273438 69.339844 77.273438 69.339844 72.738281 C 69.339844 68.203125 76.136719 68.203125 76.136719 72.738281 "/>
<path style=" stroke:none;fill-rule:nonzero;fill:rgb(0%,0%,100%);fill-opacity:1;" d="M 95.652344 65.765625 C 95.652344 68.433594 91.652344 68.433594 91.652344 65.765625 C 91.652344 63.101562 95.652344 63.101562 95.652344 65.765625 "/>
<path style=" stroke:none;fill-rule:nonzero;fill:rgb(0%,0%,100%);fill-opacity:1;" d="M 53.824219 65.765625 C 53.824219 68.433594 49.824219 68.433594 49.824219 65.765625 C 49.824219 63.101562 53.824219 63.101562 53.824219 65.765625 "/>
<path style="fill:none;stroke-width:0.5;stroke-linecap:butt;stroke-linejoin:miter;stroke:rgb(0%,0%,100%);stroke-opacity:1;stroke-miterlimit:10;" d="M 90.082031 44.855469 C 90.082031 49.386719 83.28125 49.386719 83.28125 44.855469 C 83.28125 40.320312 90.082031 40.320312 90.082031 44.855469 "/>
<path style="fill:none;stroke-width:0.5;stroke-linecap:butt;stroke-linejoin:miter;stroke:rgb(0%,0%,100%);stroke-opacity:1;stroke-miterlimit:10;" d="M 62.195312 44.855469 C 62.195312 49.386719 55.398438 49.386719 55.398438 44.855469 C 55.398438 40.320312 62.195312 40.320312 62.195312 44.855469 "/>
<path style=" stroke:none;fill-rule:nonzero;fill:rgb(0%,0%,100%);fill-opacity:1;" d="M 67.765625 23.941406 C 67.765625 26.609375 63.765625 26.609375 63.765625 23.941406 C 63.765625 21.273438 67.765625 21.273438 67.765625 23.941406 "/>
<path style=" stroke:none;fill-rule:nonzero;fill:rgb(0%,0%,100%);fill-opacity:1;" d="M 81.710938 23.941406 C 81.710938 26.609375 77.710938 26.609375 77.710938 23.941406 C 77.710938 21.273438 81.710938 21.273438 81.710938 23.941406 "/>
<path style=" stroke:none;fill-rule:nonzero;fill:rgb(0%,0%,100%);fill-opacity:1;" d="M 116.5625 58.796875 C 116.5625 61.464844 112.5625 61.464844 112.5625 58.796875 C 112.5625 56.128906 116.5625 56.128906 116.5625 58.796875 "/>
<path style=" stroke:none;fill-rule:nonzero;fill:rgb(0%,0%,100%);fill-opacity:1;" d="M 32.914062 58.796875 C 32.914062 61.464844 28.914062 61.464844 28.914062 58.796875 C 28.914062 56.128906 32.914062 56.128906 32.914062 58.796875 "/>
<path style=" stroke:none;fill-rule:nonzero;fill:rgb(0%,0%,100%);fill-opacity:1;" d="M 109.59375 37.882812 C 109.59375 40.550781 105.59375 40.550781 105.59375 37.882812 C 105.59375 35.21875 109.59375 35.21875 109.59375 37.882812 "/>
<path style=" stroke:none;fill-rule:nonzero;fill:rgb(0%,0%,100%);fill-opacity:1;" d="M 39.882812 37.882812 C 39.882812 40.550781 35.882812 40.550781 35.882812 37.882812 C 35.882812 35.21875 39.882812 35.21875 39.882812 37.882812 "/>
<path style=" stroke:none;fill-rule:nonzero;fill:rgb(0%,0%,100%);fill-opacity:1;" d="M 12 51.824219 C 12 54.492188 8 54.492188 8 51.824219 C 8 49.160156 12 49.160156 12 51.824219 "/>
<path style="fill:none;stroke-width:0.5;stroke-linecap:butt;stroke-linejoin:miter;stroke:rgb(0%,0%,100%);stroke-opacity:1;stroke-miterlimit:10;" d="M 117.964844 58.796875 C 117.964844 63.328125 111.164062 63.328125 111.164062 58.796875 C 111.164062 54.261719 117.964844 54.261719 117.964844 58.796875 "/>
<path style="fill:none;stroke-width:0.5;stroke-linecap:butt;stroke-linejoin:miter;stroke:rgb(0%,0%,100%);stroke-opacity:1;stroke-miterlimit:10;" d="M 34.3125 58.796875 C 34.3125 63.328125 27.511719 63.328125 27.511719 58.796875 C 27.511719 54.261719 34.3125 54.261719 34.3125 58.796875 "/>
<path style=" stroke:none;fill-rule:nonzero;fill:rgb(0%,0%,100%);fill-opacity:1;" d="M 109.59375 37.882812 C 109.59375 40.550781 105.59375 40.550781 105.59375 37.882812 C 105.59375 35.21875 109.59375 35.21875 109.59375 37.882812 "/>
<path style=" stroke:none;fill-rule:nonzero;fill:rgb(0%,0%,100%);fill-opacity:1;" d="M 39.882812 37.882812 C 39.882812 40.550781 35.882812 40.550781 35.882812 37.882812 C 35.882812 35.21875 39.882812 35.21875 39.882812 37.882812 "/>
<path style=" stroke:none;fill-rule:nonzero;fill:rgb(0%,0%,100%);fill-opacity:1;" d="M 12 51.824219 C 12 54.492188 8 54.492188 8 51.824219 C 8 49.160156 12 49.160156 12 51.824219 "/>
<path style="fill:none;stroke-width:0.5;stroke-linecap:butt;stroke-linejoin:miter;stroke:rgb(0%,0%,100%);stroke-opacity:1;stroke-miterlimit:10;" d="M 20.371094 30.914062 C 20.371094 35.445312 13.570312 35.445312 13.570312 30.914062 C 13.570312 26.378906 20.371094 26.378906 20.371094 30.914062 "/>
<path style=" stroke:none;fill-rule:nonzero;fill:rgb(0%,0%,100%);fill-opacity:1;" d="M 102.621094 16.972656 C 102.621094 19.636719 98.621094 19.636719 98.621094 16.972656 C 98.621094 14.304688 102.621094 14.304688 102.621094 16.972656 "/>
<path style=" stroke:none;fill-rule:nonzero;fill:rgb(0%,0%,100%);fill-opacity:1;" d="M 46.855469 16.972656 C 46.855469 19.636719 42.855469 19.636719 42.855469 16.972656 C 42.855469 14.304688 46.855469 14.304688 46.855469 16.972656 "/>
<path style=" stroke:none;fill-rule:nonzero;fill:rgb(0%,0%,100%);fill-opacity:1;" d="M 123.535156 10 C 123.535156 12.667969 119.535156 12.667969 119.535156 10 C 119.535156 7.332031 123.535156 7.332031 123.535156 10 "/>
<path style=" stroke:none;fill-rule:nonzero;fill:rgb(0%,0%,100%);fill-opacity:1;" d="M 25.941406 10 C 25.941406 12.667969 21.941406 12.667969 21.941406 10 C 21.941406 7.332031 25.941406 7.332031 25.941406 10 "/>
<path style="fill:none;stroke-width:0.5;stroke-linecap:butt;stroke-linejoin:miter;stroke:rgb(0%,0%,100%);stroke-opacity:1;stroke-miterlimit:10;" d="M 104.023438 16.972656 C 104.023438 21.503906 97.222656 21.503906 97.222656 16.972656 C 97.222656 12.4375 104.023438 12.4375 104.023438 16.972656 "/>
<path style="fill:none;stroke-width:0.5;stroke-linecap:butt;stroke-linejoin:miter;stroke:rgb(0%,0%,100%);stroke-opacity:1;stroke-miterlimit:10;" d="M 48.253906 16.972656 C 48.253906 21.503906 41.453125 21.503906 41.453125 16.972656 C 41.453125 12.4375 48.253906 12.4375 48.253906 16.972656 "/>
<path style=" stroke:none;fill-rule:nonzero;fill:rgb(0%,0%,100%);fill-opacity:1;" d="M 123.535156 10 C 123.535156 12.667969 119.535156 12.667969 119.535156 10 C 119.535156 7.332031 123.535156 7.332031 123.535156 10 "/>
<path style=" stroke:none;fill-rule:nonzero;fill:rgb(0%,0%,100%);fill-opacity:1;" d="M 25.941406 10 C 25.941406 12.667969 21.941406 12.667969 21.941406 10 C 21.941406 7.332031 25.941406 7.332031 25.941406 10 "/>
<path style=" stroke:none;fill-rule:nonzero;fill:rgb(100%,0%,0%);fill-opacity:1;" d="M 82.308594 132.042969 C 82.308594 135.511719 77.109375 135.511719 77.109375 132.042969 C 77.109375 128.578125 82.308594 128.578125 82.308594 132.042969 "/>
<path style=" stroke:none;fill-rule:nonzero;fill:rgb(100%,0%,0%);fill-opacity:1;" d="M 68.367188 176.132812 C 68.367188 179.597656 63.167969 179.597656 63.167969 176.132812 C 63.167969 172.664062 68.367188 172.664062 68.367188 176.132812 "/>
<path style=" stroke:none;fill-rule:nonzero;fill:rgb(100%,0%,0%);fill-opacity:1;" d="M 131.105469 110 C 131.105469 113.464844 125.90625 113.464844 125.90625 110 C 125.90625 106.535156 131.105469 106.535156 131.105469 110 "/>
<path style=" stroke:none;fill-rule:nonzero;fill:rgb(100%,0%,0%);fill-opacity:1;" d="M 19.570312 110 C 19.570312 113.464844 14.371094 113.464844 14.371094 110 C 14.371094 106.535156 19.570312 106.535156 19.570312 110 "/>
<path style="fill:none;stroke-width:0.5;stroke-linecap:butt;stroke-linejoin:miter;stroke:rgb(100%,0%,0%);stroke-opacity:1;stroke-miterlimit:10;" d="M 132.925781 154.089844 C 132.925781 159.980469 124.085938 159.980469 124.085938 154.089844 C 124.085938 148.195312 132.925781 148.195312 132.925781 154.089844 "/>
<path style=" stroke:none;fill-rule:nonzero;fill:rgb(0%,0%,100%);fill-opacity:1;" d="M 74.738281 110 C 74.738281 112.667969 70.738281 112.667969 70.738281 110 C 70.738281 107.332031 74.738281 107.332031 74.738281 110 "/>
<path style=" stroke:none;fill-rule:nonzero;fill:rgb(0%,0%,100%);fill-opacity:1;" d="M 95.652344 132.042969 C 95.652344 134.710938 91.652344 134.710938 91.652344 132.042969 C 91.652344 129.378906 95.652344 129.378906 95.652344 132.042969 "/>
<path style=" stroke:none;fill-rule:nonzero;fill:rgb(0%,0%,100%);fill-opacity:1;" d="M 53.824219 132.042969 C 53.824219 134.710938 49.824219 134.710938 49.824219 132.042969 C 49.824219 129.378906 53.824219 129.378906 53.824219 132.042969 "/>
<path style=" stroke:none;fill-rule:nonzero;fill:rgb(0%,0%,100%);fill-opacity:1;" d="M 88.679688 110 C 88.679688 112.667969 84.679688 112.667969 84.679688 110 C 84.679688 107.332031 88.679688 107.332031 88.679688 110 "/>
<path style=" stroke:none;fill-rule:nonzero;fill:rgb(0%,0%,100%);fill-opacity:1;" d="M 60.796875 110 C 60.796875 112.667969 56.796875 112.667969 56.796875 110 C 56.796875 107.332031 60.796875 107.332031 60.796875 110 "/>
<path style="fill:none;stroke-width:0.5;stroke-linecap:butt;stroke-linejoin:miter;stroke:rgb(0%,0%,100%);stroke-opacity:1;stroke-miterlimit:10;" d="M 76.136719 154.089844 C 76.136719 158.621094 69.339844 158.621094 69.339844 154.089844 C 69.339844 149.554688 76.136719 149.554688 76.136719 154.089844 "/>
<path style=" stroke:none;fill-rule:nonzero;fill:rgb(0%,0%,100%);fill-opacity:1;" d="M 95.652344 176.132812 C 95.652344 178.796875 91.652344 178.796875 91.652344 176.132812 C 91.652344 173.464844 95.652344 173.464844 95.652344 176.132812 "/>
<path style=" stroke:none;fill-rule:nonzero;fill:rgb(0%,0%,100%);fill-opacity:1;" d="M 53.824219 176.132812 C 53.824219 178.796875 49.824219 178.796875 49.824219 176.132812 C 49.824219 173.464844 53.824219 173.464844 53.824219 176.132812 "/>
<path style="fill:none;stroke-width:0.5;stroke-linecap:butt;stroke-linejoin:miter;stroke:rgb(0%,0%,100%);stroke-opacity:1;stroke-miterlimit:10;" d="M 90.082031 154.089844 C 90.082031 158.621094 83.28125 158.621094 83.28125 154.089844 C 83.28125 149.554688 90.082031 149.554688 90.082031 154.089844 "/>
<path style="fill:none;stroke-width:0.5;stroke-linecap:butt;stroke-linejoin:miter;stroke:rgb(0%,0%,100%);stroke-opacity:1;stroke-miterlimit:10;" d="M 62.195312 154.089844 C 62.195312 158.621094 55.398438 158.621094 55.398438 154.089844 C 55.398438 149.554688 62.195312 149.554688 62.195312 154.089844 "/>
<path style=" stroke:none;fill-rule:nonzero;fill:rgb(0%,0%,100%);fill-opacity:1;" d="M 67.765625 132.042969 C 67.765625 134.710938 63.765625 134.710938 63.765625 132.042969 C 63.765625 129.378906 67.765625 129.378906 67.765625 132.042969 "/>
<path style=" stroke:none;fill-rule:nonzero;fill:rgb(0%,0%,100%);fill-opacity:1;" d="M 81.710938 176.132812 C 81.710938 178.796875 77.710938 178.796875 77.710938 176.132812 C 77.710938 173.464844 81.710938 173.464844 81.710938 176.132812 "/>
<path style=" stroke:none;fill-rule:nonzero;fill:rgb(0%,0%,100%);fill-opacity:1;" d="M 116.5625 110 C 116.5625 112.667969 112.5625 112.667969 112.5625 110 C 112.5625 107.332031 116.5625 107.332031 116.5625 110 "/>
<path style=" stroke:none;fill-rule:nonzero;fill:rgb(0%,0%,100%);fill-opacity:1;" d="M 32.914062 110 C 32.914062 112.667969 28.914062 112.667969 28.914062 110 C 28.914062 107.332031 32.914062 107.332031 32.914062 110 "/>
<path style=" stroke:none;fill-rule:nonzero;fill:rgb(0%,0%,100%);fill-opacity:1;" d="M 109.59375 132.042969 C 109.59375 134.710938 105.59375 134.710938 105.59375 132.042969 C 105.59375 129.378906 109.59375 129.378906 109.59375 132.042969 "/>
<path style=" stroke:none;fill-rule:nonzero;fill:rgb(0%,0%,100%);fill-opacity:1;" d="M 39.882812 132.042969 C 39.882812 134.710938 35.882812 134.710938 35.882812 132.042969 C 35.882812 129.378906 39.882812 129.378906 39.882812 132.042969 "/>
<path style=" stroke:none;fill-rule:nonzero;fill:rgb(0%,0%,100%);fill-opacity:1;" d="M 12 132.042969 C 12 134.710938 8 134.710938 8 132.042969 C 8 129.378906 12 129.378906 12 132.042969 "/>
<path style="fill:none;stroke-width:0.5;stroke-linecap:butt;stroke-linejoin:miter;stroke:rgb(0%,0%,100%);stroke-opacity:1;stroke-miterlimit:10;" d="M 117.964844 154.089844 C 117.964844 158.621094 111.164062 158.621094 111.164062 154.089844 C 111.164062 149.554688 117.964844 149.554688 117.964844 154.089844 "/>
<path style="fill:none;stroke-width:0.5;stroke-linecap:butt;stroke-linejoin:miter;stroke:rgb(0%,0%,100%);stroke-opacity:1;stroke-miterlimit:10;" d="M 34.3125 154.089844 C 34.3125 158.621094 27.511719 158.621094 27.511719 154.089844 C 27.511719 149.554688 34.3125 149.554688 34.3125 154.089844 "/>
<path style=" stroke:none;fill-rule:nonzero;fill:rgb(0%,0%,100%);fill-opacity:1;" d="M 109.59375 176.132812 C 109.59375 178.796875 105.59375 178.796875 105.59375 176.132812 C 105.59375 173.464844 109.59375 173.464844 109.59375 176.132812 "/>
<path style=" stroke:none;fill-rule:nonzero;fill:rgb(0%,0%,100%);fill-opacity:1;" d="M 39.882812 176.132812 C 39.882812 178.796875 35.882812 178.796875 35.882812 176.132812 C 35.882812 173.464844 39.882812 173.464844 39.882812 176.132812 "/>
<path style=" stroke:none;fill-rule:nonzero;fill:rgb(0%,0%,100%);fill-opacity:1;" d="M 12 176.132812 C 12 178.796875 8 178.796875 8 176.132812 C 8 173.464844 12 173.464844 12 176.132812 "/>
<path style="fill:none;stroke-width:0.5;stroke-linecap:butt;stroke-linejoin:miter;stroke:rgb(0%,0%,100%);stroke-opacity:1;stroke-miterlimit:10;" d="M 20.371094 154.089844 C 20.371094 158.621094 13.570312 158.621094 13.570312 154.089844 C 13.570312 149.554688 20.371094 149.554688 20.371094 154.089844 "/>
<path style=" stroke:none;fill-rule:nonzero;fill:rgb(0%,0%,100%);fill-opacity:1;" d="M 102.621094 110 C 102.621094 112.667969 98.621094 112.667969 98.621094 110 C 98.621094 107.332031 102.621094 107.332031 102.621094 110 "/>
<path style=" stroke:none;fill-rule:nonzero;fill:rgb(0%,0%,100%);fill-opacity:1;" d="M 46.855469 110 C 46.855469 112.667969 42.855469 112.667969 42.855469 110 C 42.855469 107.332031 46.855469 107.332031 46.855469 110 "/>
<path style=" stroke:none;fill-rule:nonzero;fill:rgb(0%,0%,100%);fill-opacity:1;" d="M 123.535156 132.042969 C 123.535156 134.710938 119.535156 134.710938 119.535156 132.042969 C 119.535156 129.378906 123.535156 129.378906 123.535156 132.042969 "/>
<path style=" stroke:none;fill-rule:nonzero;fill:rgb(0%,0%,100%);fill-opacity:1;" d="M 25.941406 132.042969 C 25.941406 134.710938 21.941406 134.710938 21.941406 132.042969 C 21.941406 129.378906 25.941406 129.378906 25.941406 132.042969 "/>
<path style="fill:none;stroke-width:0.5;stroke-linecap:butt;stroke-linejoin:miter;stroke:rgb(0%,0%,100%);stroke-opacity:1;stroke-miterlimit:10;" d="M 104.023438 154.089844 C 104.023438 158.621094 97.222656 158.621094 97.222656 154.089844 C 97.222656 149.554688 104.023438 149.554688 104.023438 154.089844 "/>
<path style="fill:none;stroke-width:0.5;stroke-linecap:butt;stroke-linejoin:miter;stroke:rgb(0%,0%,100%);stroke-opacity:1;stroke-miterlimit:10;" d="M 48.253906 154.089844 C 48.253906 158.621094 41.453125 158.621094 41.453125 154.089844 C 41.453125 149.554688 48.253906 149.554688 48.253906 154.089844 "/>
<path style=" stroke:none;fill-rule:nonzero;fill:rgb(0%,0%,100%);fill-opacity:1;" d="M 123.535156 176.132812 C 123.535156 178.796875 119.535156 178.796875 119.535156 176.132812 C 119.535156 173.464844 123.535156 173.464844 123.535156 176.132812 "/>
<path style=" stroke:none;fill-rule:nonzero;fill:rgb(0%,0%,100%);fill-opacity:1;" d="M 25.941406 176.132812 C 25.941406 178.796875 21.941406 178.796875 21.941406 176.132812 C 21.941406 173.464844 25.941406 173.464844 25.941406 176.132812 "/>
<path style=" stroke:none;fill-rule:nonzero;fill:rgb(100%,0%,0%);fill-opacity:1;" d="M 211.394531 132.042969 C 211.394531 135.511719 206.195312 135.511719 206.195312 132.042969 C 206.195312 128.578125 211.394531 128.578125 211.394531 132.042969 "/>
<path style=" stroke:none;fill-rule:nonzero;fill:rgb(100%,0%,0%);fill-opacity:1;" d="M 211.394531 176.132812 C 211.394531 179.597656 206.195312 179.597656 206.195312 176.132812 C 206.195312 172.664062 211.394531 172.664062 211.394531 176.132812 "/>
<path style=" stroke:none;fill-rule:nonzero;fill:rgb(100%,0%,0%);fill-opacity:1;" d="M 204.425781 110 C 204.425781 113.464844 199.226562 113.464844 199.226562 110 C 199.226562 106.535156 204.425781 106.535156 204.425781 110 "/>
<path style=" stroke:none;fill-rule:nonzero;fill:rgb(100%,0%,0%);fill-opacity:1;" d="M 204.425781 110 C 204.425781 113.464844 199.226562 113.464844 199.226562 110 C 199.226562 106.535156 204.425781 106.535156 204.425781 110 "/>
<path style="fill:none;stroke-width:0.5;stroke-linecap:butt;stroke-linejoin:miter;stroke:rgb(100%,0%,0%);stroke-opacity:1;stroke-miterlimit:10;" d="M 206.246094 154.089844 C 206.246094 159.980469 197.40625 159.980469 197.40625 154.089844 C 197.40625 148.195312 206.246094 148.195312 206.246094 154.089844 "/>
<path style=" stroke:none;fill-rule:nonzero;fill:rgb(0%,0%,100%);fill-opacity:1;" d="M 162 110 C 162 112.667969 158 112.667969 158 110 C 158 107.332031 162 107.332031 162 110 "/>
<path style=" stroke:none;fill-rule:nonzero;fill:rgb(0%,0%,100%);fill-opacity:1;" d="M 168.972656 132.042969 C 168.972656 134.710938 164.972656 134.710938 164.972656 132.042969 C 164.972656 129.378906 168.972656 129.378906 168.972656 132.042969 "/>
<path style=" stroke:none;fill-rule:nonzero;fill:rgb(0%,0%,100%);fill-opacity:1;" d="M 168.972656 132.042969 C 168.972656 134.710938 164.972656 134.710938 164.972656 132.042969 C 164.972656 129.378906 168.972656 129.378906 168.972656 132.042969 "/>
<path style=" stroke:none;fill-rule:nonzero;fill:rgb(0%,0%,100%);fill-opacity:1;" d="M 189.882812 110 C 189.882812 112.667969 185.882812 112.667969 185.882812 110 C 185.882812 107.332031 189.882812 107.332031 189.882812 110 "/>
<path style=" stroke:none;fill-rule:nonzero;fill:rgb(0%,0%,100%);fill-opacity:1;" d="M 189.882812 110 C 189.882812 112.667969 185.882812 112.667969 185.882812 110 C 185.882812 107.332031 189.882812 107.332031 189.882812 110 "/>
<path style="fill:none;stroke-width:0.5;stroke-linecap:butt;stroke-linejoin:miter;stroke:rgb(0%,0%,100%);stroke-opacity:1;stroke-miterlimit:10;" d="M 163.398438 154.089844 C 163.398438 158.621094 156.601562 158.621094 156.601562 154.089844 C 156.601562 149.554688 163.398438 149.554688 163.398438 154.089844 "/>
<path style=" stroke:none;fill-rule:nonzero;fill:rgb(0%,0%,100%);fill-opacity:1;" d="M 168.972656 176.132812 C 168.972656 178.796875 164.972656 178.796875 164.972656 176.132812 C 164.972656 173.464844 168.972656 173.464844 168.972656 176.132812 "/>
<path style=" stroke:none;fill-rule:nonzero;fill:rgb(0%,0%,100%);fill-opacity:1;" d="M 168.972656 176.132812 C 168.972656 178.796875 164.972656 178.796875 164.972656 176.132812 C 164.972656 173.464844 168.972656 173.464844 168.972656 176.132812 "/>
<path style="fill:none;stroke-width:0.5;stroke-linecap:butt;stroke-linejoin:miter;stroke:rgb(0%,0%,100%);stroke-opacity:1;stroke-miterlimit:10;" d="M 191.285156 154.089844 C 191.285156 158.621094 184.484375 158.621094 184.484375 154.089844 C 184.484375 149.554688 191.285156 149.554688 191.285156 154.089844 "/>
<path style="fill:none;stroke-width:0.5;stroke-linecap:butt;stroke-linejoin:miter;stroke:rgb(0%,0%,100%);stroke-opacity:1;stroke-miterlimit:10;" d="M 191.285156 154.089844 C 191.285156 158.621094 184.484375 158.621094 184.484375 154.089844 C 184.484375 149.554688 191.285156 149.554688 191.285156 154.089844 "/>
<path style=" stroke:none;fill-rule:nonzero;fill:rgb(0%,0%,100%);fill-opacity:1;" d="M 210.796875 132.042969 C 210.796875 134.710938 206.796875 134.710938 206.796875 132.042969 C 206.796875 129.378906 210.796875 129.378906 210.796875 132.042969 "/>
<path style=" stroke:none;fill-rule:nonzero;fill:rgb(0%,0%,100%);fill-opacity:1;" d="M 210.796875 176.132812 C 210.796875 178.796875 206.796875 178.796875 206.796875 176.132812 C 206.796875 173.464844 210.796875 173.464844 210.796875 176.132812 "/>
<path style=" stroke:none;fill-rule:nonzero;fill:rgb(0%,0%,100%);fill-opacity:1;" d="M 175.941406 110 C 175.941406 112.667969 171.941406 112.667969 171.941406 110 C 171.941406 107.332031 175.941406 107.332031 175.941406 110 "/>
<path style=" stroke:none;fill-rule:nonzero;fill:rgb(0%,0%,100%);fill-opacity:1;" d="M 175.941406 110 C 175.941406 112.667969 171.941406 112.667969 171.941406 110 C 171.941406 107.332031 175.941406 107.332031 175.941406 110 "/>
<path style=" stroke:none;fill-rule:nonzero;fill:rgb(0%,0%,100%);fill-opacity:1;" d="M 196.855469 132.042969 C 196.855469 134.710938 192.855469 134.710938 192.855469 132.042969 C 192.855469 129.378906 196.855469 129.378906 196.855469 132.042969 "/>
<path style=" stroke:none;fill-rule:nonzero;fill:rgb(0%,0%,100%);fill-opacity:1;" d="M 196.855469 132.042969 C 196.855469 134.710938 192.855469 134.710938 192.855469 132.042969 C 192.855469 129.378906 196.855469 129.378906 196.855469 132.042969 "/>
<path style=" stroke:none;fill-rule:nonzero;fill:rgb(0%,0%,100%);fill-opacity:1;" d="M 182.914062 132.042969 C 182.914062 134.710938 178.914062 134.710938 178.914062 132.042969 C 178.914062 129.378906 182.914062 129.378906 182.914062 132.042969 "/>
<path style="fill:none;stroke-width:0.5;stroke-linecap:butt;stroke-linejoin:miter;stroke:rgb(0%,0%,100%);stroke-opacity:1;stroke-miterlimit:10;" d="M 177.34375 154.089844 C 177.34375 158.621094 170.542969 158.621094 170.542969 154.089844 C 170.542969 149.554688 177.34375 149.554688 177.34375 154.089844 "/>
<path style="fill:none;stroke-width:0.5;stroke-linecap:butt;stroke-linejoin:miter;stroke:rgb(0%,0%,100%);stroke-opacity:1;stroke-miterlimit:10;" d="M 177.34375 154.089844 C 177.34375 158.621094 170.542969 158.621094 170.542969 154.089844 C 170.542969 149.554688 177.34375 149.554688 177.34375 154.089844 "/>
<path style=" stroke:none;fill-rule:nonzero;fill:rgb(0%,0%,100%);fill-opacity:1;" d="M 196.855469 176.132812 C 196.855469 178.796875 192.855469 178.796875 192.855469 176.132812 C 192.855469 173.464844 196.855469 173.464844 196.855469 176.132812 "/>
<path style=" stroke:none;fill-rule:nonzero;fill:rgb(0%,0%,100%);fill-opacity:1;" d="M 196.855469 176.132812 C 196.855469 178.796875 192.855469 178.796875 192.855469 176.132812 C 192.855469 173.464844 196.855469 173.464844 196.855469 176.132812 "/>
<path style=" stroke:none;fill-rule:nonzero;fill:rgb(0%,0%,100%);fill-opacity:1;" d="M 182.914062 176.132812 C 182.914062 178.796875 178.914062 178.796875 178.914062 176.132812 C 178.914062 173.464844 182.914062 173.464844 182.914062 176.132812 "/>
<path style="fill:none;stroke-width:0.5;stroke-linecap:butt;stroke-linejoin:miter;stroke:rgb(0%,0%,100%);stroke-opacity:1;stroke-miterlimit:10;" d="M 205.226562 154.089844 C 205.226562 158.621094 198.425781 158.621094 198.425781 154.089844 C 198.425781 149.554688 205.226562 149.554688 205.226562 154.089844 "/>
<path style=" stroke:none;fill-rule:nonzero;fill:rgb(0%,0%,100%);fill-opacity:1;" d="M 217.765625 110 C 217.765625 112.667969 213.765625 112.667969 213.765625 110 C 213.765625 107.332031 217.765625 107.332031 217.765625 110 "/>
<path style=" stroke:none;fill-rule:nonzero;fill:rgb(0%,0%,100%);fill-opacity:1;" d="M 217.765625 110 C 217.765625 112.667969 213.765625 112.667969 213.765625 110 C 213.765625 107.332031 217.765625 107.332031 217.765625 110 "/>
<path style=" stroke:none;fill-rule:nonzero;fill:rgb(0%,0%,100%);fill-opacity:1;" d="M 224.738281 132.042969 C 224.738281 134.710938 220.738281 134.710938 220.738281 132.042969 C 220.738281 129.378906 224.738281 129.378906 224.738281 132.042969 "/>
<path style=" stroke:none;fill-rule:nonzero;fill:rgb(0%,0%,100%);fill-opacity:1;" d="M 224.738281 132.042969 C 224.738281 134.710938 220.738281 134.710938 220.738281 132.042969 C 220.738281 129.378906 224.738281 129.378906 224.738281 132.042969 "/>
<path style="fill:none;stroke-width:0.5;stroke-linecap:butt;stroke-linejoin:miter;stroke:rgb(0%,0%,100%);stroke-opacity:1;stroke-miterlimit:10;" d="M 219.167969 154.089844 C 219.167969 158.621094 212.367188 158.621094 212.367188 154.089844 C 212.367188 149.554688 219.167969 149.554688 219.167969 154.089844 "/>
<path style="fill:none;stroke-width:0.5;stroke-linecap:butt;stroke-linejoin:miter;stroke:rgb(0%,0%,100%);stroke-opacity:1;stroke-miterlimit:10;" d="M 219.167969 154.089844 C 219.167969 158.621094 212.367188 158.621094 212.367188 154.089844 C 212.367188 149.554688 219.167969 149.554688 219.167969 154.089844 "/>
<path style=" stroke:none;fill-rule:nonzero;fill:rgb(0%,0%,100%);fill-opacity:1;" d="M 224.738281 176.132812 C 224.738281 178.796875 220.738281 178.796875 220.738281 176.132812 C 220.738281 173.464844 224.738281 173.464844 224.738281 176.132812 "/>
<path style=" stroke:none;fill-rule:nonzero;fill:rgb(0%,0%,100%);fill-opacity:1;" d="M 224.738281 176.132812 C 224.738281 178.796875 220.738281 178.796875 220.738281 176.132812 C 220.738281 173.464844 224.738281 173.464844 224.738281 176.132812 "/>
</g>
</svg>
