<?xml version="1.0" encoding="UTF-8"?>
<svg xmlns="http://www.w3.org/2000/svg" xmlns:xlink="http://www.w3.org/1999/xlink" width="300pt" height="200pt" viewBox="0 0 300 200" version="1.1">
<g id="surface1">
<rect x="0" y="0" width="300" height="200" style="fill:rgb(80%,80%,80%);fill-opacity:1;stroke:none;"/>
<path style="fill:none;stroke-width:1;stroke-linecap:butt;stroke-linejoin:miter;stroke:rgb(0%,0%,0%);stroke-opacity:1;stroke-miterlimit:10;" d="M 10 10 L 10 1010 "/>
<path style="fill:none;stroke-width:1;stroke-linecap:butt;stroke-linejoin:miter;stroke:rgb(0%,0%,0%);stroke-opacity:1;stroke-miterlimit:10;" d="M 160 10 L 160 1010 "/>
<path style="fill:none;stroke-width:1;stroke-linecap:butt;stroke-linejoin:miter;stroke:rgb(0%,0%,0%);stroke-opacity:1;stroke-miterlimit:10;" d="M 10 110 L 10 1110 "/>
<path style="fill:none;stroke-width:1;stroke-linecap:butt;stroke-linejoin:miter;stroke:rgb(0%,0%,0%);stroke-opacity:1;stroke-miterlimit:10;" d="M 10 10 L 1010 10 "/>
<path style="fill:none;stroke-width:1;stroke-linecap:butt;stroke-linejoin:miter;stroke:rgb(0%,0%,0%);stroke-opacity:1;stroke-miterlimit:10;" d="M 160 10 L 1160 10 "/>
<path style="fill:none;stroke-width:1;stroke-linecap:butt;stroke-linejoin:miter;stroke:rgb(0%,0%,0%);stroke-opacity:1;stroke-miterlimit:10;" d="M 10 110 L 1010 110 "/>
<path style=" stroke:none;fill-rule:nonzero;fill:rgb(0%,0%,100%);fill-opacity:1;" d="M 67.480469 67.667969 C 67.480469 70.332031 63.480469 70.332031 63.480469 67.667969 C 63.480469 65 67.480469 65 67.480469 67.667969 "/>
<path style="fill:none;stroke-width:1;stroke-linecap:butt;stroke-linejoin:miter;stroke:rgb(0%,0%,100%);stroke-opacity:1;stroke-miterlimit:10;" d="M 84.734375 61.199219 C 84.734375 63.867188 80.734375 63.867188 80.734375 61.199219 C 80.734375 58.53125 84.734375 58.53125 84.734375 61.199219 "/>
<path style="fill:none;stroke-width:1;stroke-linecap:butt;stroke-linejoin:miter;stroke:rgb(0%,0%,100%);stroke-opacity:1;stroke-miterlimit:10;" d="M 50.179688 60.847656 C 50.179688 63.511719 46.179688 63.511719 46.179688 60.847656 C 46.179688 58.179688 50.179688 58.179688 50.179688 60.847656 "/>
<path style=" stroke:none;fill-rule:nonzero;fill:rgb(0%,0%,100%);fill-opacity:1;" d="M 80.59375 41.652344 C 80.59375 44.320312 76.59375 44.320312 76.59375 41.652344 C 76.59375 38.988281 80.59375 38.988281 80.59375 41.652344 "/>
<path style=" stroke:none;fill-rule:nonzero;fill:rgb(0%,0%,100%);fill-opacity:1;" d="M 54.308594 41.59375 C 54.308594 44.261719 50.308594 44.261719 50.308594 41.59375 C 50.308594 38.925781 54.308594 38.925781 54.308594 41.59375 "/>
<path style=" stroke:none;fill-rule:nonzero;fill:rgb(0%,0%,100%);fill-opacity:1;" d="M 67.351562 67.277344 C 67.351562 69.945312 63.351562 69.945312 63.351562 67.277344 C 63.351562 64.609375 67.351562 64.609375 67.351562 67.277344 "/>
<path style=" stroke:none;fill-rule:nonzero;fill:rgb(0%,0%,100%);fill-opacity:1;" d="M 84.628906 60.972656 C 84.628906 63.640625 80.628906 63.640625 80.628906 60.972656 C 80.628906 58.308594 84.628906 58.308594 84.628906 60.972656 "/>
<path style=" stroke:none;fill-rule:nonzero;fill:rgb(0%,0%,100%);fill-opacity:1;" d="M 50.15625 61.128906 C 50.15625 63.796875 46.15625 63.796875 46.15625 61.128906 C 46.15625 58.460938 50.15625 58.460938 50.15625 61.128906 "/>
<path style=" stroke:none;fill-rule:nonzero;fill:rgb(0%,0%,100%);fill-opacity:1;" d="M 80.625 41.757812 C 80.625 44.421875 76.625 44.421875 76.625 41.757812 C 76.625 39.089844 80.625 39.089844 80.625 41.757812 "/>
<path style=" stroke:none;fill-rule:nonzero;fill:rgb(0%,0%,100%);fill-opacity:1;" d="M 54.050781 41.640625 C 54.050781 44.308594 50.050781 44.308594 50.050781 41.640625 C 50.050781 38.976562 54.050781 38.976562 54.050781 41.640625 "/>
<path style="fill:none;stroke-width:1;stroke-linecap:butt;stroke-linejoin:miter;stroke:rgb(0%,0%,100%);stroke-opacity:1;stroke-miterlimit:10;" d="M 66.910156 24.351562 C 66.910156 27.019531 62.910156 27.019531 62.910156 24.351562 C 62.910156 21.6875 66.910156 21.6875 66.910156 24.351562 "/>
<path style=" stroke:none;fill-rule:nonzero;fill:rgb(0%,0%,100%);fill-opacity:1;" d="M 67.8125 24.332031 C 67.8125 26.996094 63.8125 26.996094 63.8125 24.332031 C 63.8125 21.664062 67.8125 21.664062 67.8125 24.332031 "/>
<path style=" stroke:none;fill-rule:nonzero;fill:rgb(0%,0%,100%);fill-opacity:1;" d="M 105.140625 55.117188 C 105.140625 57.785156 101.140625 57.785156 101.140625 55.117188 C 101.140625 52.453125 105.140625 52.453125 105.140625 55.117188 "/>
<path style=" stroke:none;fill-rule:nonzero;fill:rgb(0%,0%,100%);fill-opacity:1;" d="M 29.734375 54.914062 C 29.734375 57.582031 25.734375 57.582031 25.734375 54.914062 C 25.734375 52.246094 29.734375 52.246094 29.734375 54.914062 "/>
<path style="fill:none;stroke-width:1;stroke-linecap:butt;stroke-linejoin:miter;stroke:rgb(0%,0%,100%);stroke-opacity:1;stroke-miterlimit:10;" d="M 98.730469 35.136719 C 98.730469 37.804688 94.730469 37.804688 94.730469 35.136719 C 94.730469 32.46875 98.730469 32.46875 98.730469 35.136719 "/>
<path style="fill:none;stroke-width:1;stroke-linecap:butt;stroke-linejoin:miter;stroke:rgb(0%,0%,100%);stroke-opacity:1;stroke-miterlimit:10;" d="M 36.441406 35.085938 C 36.441406 37.753906 32.441406 37.753906 32.441406 35.085938 C 32.441406 32.417969 36.441406 32.417969 36.441406 35.085938 "/>
<path style="fill:none;stroke-width:1;stroke-linecap:butt;stroke-linejoin:miter;stroke:rgb(0%,0%,100%);stroke-opacity:1;stroke-miterlimit:10;" d="M 12.304688 48.460938 C 12.304688 51.128906 8.304688 51.128906 8.304688 48.460938 C 8.304688 45.792969 12.304688 45.792969 12.304688 48.460938 "/>
<path style=" stroke:none;fill-rule:nonzero;fill:rgb(0%,0%,100%);fill-opacity:1;" d="M 105.625 54.742188 C 105.625 57.410156 101.625 57.410156 101.625 54.742188 C 101.625 52.074219 105.625 52.074219 105.625 54.742188 "/>
<path style=" stroke:none;fill-rule:nonzero;fill:rgb(0%,0%,100%);fill-opacity:1;" d="M 29.171875 54.742188 C 29.171875 57.40625 25.171875 57.40625 25.171875 54.742188 C 25.171875 52.074219 29.171875 52.074219 29.171875 54.742188 "/>
<path style=" stroke:none;fill-rule:nonzero;fill:rgb(0%,0%,100%);fill-opacity:1;" d="M 98.304688 35.195312 C 98.304688 37.863281 94.304688 37.863281 94.304688 35.195312 C 94.304688 32.53125 98.304688 32.53125 98.304688 35.195312 "/>
<path style=" stroke:none;fill-rule:nonzero;fill:rgb(0%,0%,100%);fill-opacity:1;" d="M 36.0625 35.035156 C 36.0625 37.699219 32.0625 37.699219 32.0625 35.035156 C 32.0625 32.367188 36.0625 32.367188 36.0625 35.035156 "/>
<path style=" stroke:none;fill-rule:nonzero;fill:rgb(0%,0%,100%);fill-opacity:1;" d="M 12.074219 48.441406 C 12.074219 51.109375 8.074219 51.109375 8.074219 48.441406 C 8.074219 45.777344 12.074219 45.777344 12.074219 48.441406 "/>
<path style=" stroke:none;fill-rule:nonzero;fill:rgb(0%,0%,100%);fill-opacity:1;" d="M 12.40625 27.808594 C 12.40625 30.476562 8.40625 30.476562 8.40625 27.808594 C 8.40625 25.144531 12.40625 25.144531 12.40625 27.808594 "/>
<path style=" stroke:none;fill-rule:nonzero;fill:rgb(0%,0%,100%);fill-opacity:1;" d="M 91.738281 16.714844 C 91.738281 19.382812 87.738281 19.382812 87.738281 16.714844 C 87.738281 14.050781 91.738281 14.050781 91.738281 16.714844 "/>
<path style=" stroke:none;fill-rule:nonzero;fill:rgb(0%,0%,100%);fill-opacity:1;" d="M 43.234375 16.621094 C 43.234375 19.289062 39.234375 19.289062 39.234375 16.621094 C 39.234375 13.957031 43.234375 13.957031 43.234375 16.621094 "/>
<path style="fill:none;stroke-width:1;stroke-linecap:butt;stroke-linejoin:miter;stroke:rgb(0%,0%,100%);stroke-opacity:1;stroke-miterlimit:10;" d="M 109.507812 10.136719 C 109.507812 12.800781 105.507812 12.800781 105.507812 10.136719 C 105.507812 7.46875 109.507812 7.46875 109.507812 10.136719 "/>
<path style="fill:none;stroke-width:1;stroke-linecap:butt;stroke-linejoin:miter;stroke:rgb(0%,0%,100%);stroke-opacity:1;stroke-miterlimit:10;" d="M 25.492188 10.074219 C 25.492188 12.738281 21.492188 12.738281 21.492188 10.074219 C 21.492188 7.40625 25.492188 7.40625 25.492188 10.074219 "/>
<path style=" stroke:none;fill-rule:nonzero;fill:rgb(0%,0%,100%);fill-opacity:1;" d="M 91.222656 16.695312 C 91.222656 19.363281 87.222656 19.363281 87.222656 16.695312 C 87.222656 14.027344 91.222656 14.027344 91.222656 16.695312 "/>
<path style=" stroke:none;fill-rule:nonzero;fill:rgb(0%,0%,100%);fill-opacity:1;" d="M 43.371094 16.570312 C 43.371094 19.238281 39.371094 19.238281 39.371094 16.570312 C 39.371094 13.90625 43.371094 13.90625 43.371094 16.570312 "/>
<path style=" stroke:none;fill-rule:nonzero;fill:rgb(0%,0%,100%);fill-opacity:1;" d="M 109.320312 10.226562 C 109.320312 12.890625 105.320312 12.890625 105.320312 10.226562 C 105.320312 7.558594 109.320312 7.558594 109.320312 10.226562 "/>
<path style=" stroke:none;fill-rule:nonzero;fill:rgb(0%,0%,100%);fill-opacity:1;" d="M 25.300781 10 C 25.300781 12.667969 21.300781 12.667969 21.300781 10 C 21.300781 7.332031 25.300781 7.332031 25.300781 10 "/>
<path style="fill:none;stroke-width:2;stroke-linecap:butt;stroke-linejoin:miter;stroke:rgb(100%,80%,0%);stroke-opacity:1;stroke-miterlimit:10;" d="M 65.210938 68.117188 L 65.480469 67.667969 "/>
<path style="fill:none;stroke-width:2;stroke-linecap:butt;stroke-linejoin:miter;stroke:rgb(100%,80%,0%);stroke-opacity:1;stroke-miterlimit:10;" d="M 83.613281 61.601562 L 82.734375 61.199219 "/>
<path style="fill:none;stroke-width:2;stroke-linecap:butt;stroke-linejoin:miter;stroke:rgb(100%,80%,0%);stroke-opacity:1;stroke-miterlimit:10;" d="M 46.804688 61.601562 L 48.179688 60.847656 "/>
<path style="fill:none;stroke-width:2;stroke-linecap:butt;stroke-linejoin:miter;stroke:rgb(100%,80%,0%);stroke-opacity:1;stroke-miterlimit:10;" d="M 77.480469 42.046875 L 78.59375 41.652344 "/>
<path style="fill:none;stroke-width:2;stroke-linecap:butt;stroke-linejoin:miter;stroke:rgb(100%,80%,0%);stroke-opacity:1;stroke-miterlimit:10;" d="M 52.941406 42.046875 L 52.308594 41.59375 "/>
<path style="fill:none;stroke-width:2;stroke-linecap:butt;stroke-linejoin:miter;stroke:rgb(100%,80%,0%);stroke-opacity:1;stroke-miterlimit:10;" d="M 65.210938 68.117188 L 65.351562 67.277344 "/>
<path style="fill:none;stroke-width:2;stroke-linecap:butt;stroke-linejoin:miter;stroke:rgb(100%,80%,0%);stroke-opacity:1;stroke-miterlimit:10;" d="M 83.613281 61.601562 L 82.628906 60.972656 "/>
<path style="fill:none;stroke-width:2;stroke-linecap:butt;stroke-linejoin:miter;stroke:rgb(100%,80%,0%);stroke-opacity:1;stroke-miterlimit:10;" d="M 46.804688 61.601562 L 48.15625 61.128906 "/>
<path style="fill:none;stroke-width:2;stroke-linecap:butt;stroke-linejoin:miter;stroke:rgb(100%,80%,0%);stroke-opacity:1;stroke-miterlimit:10;" d="M 77.480469 42.046875 L 78.625 41.757812 "/>
<path style="fill:none;stroke-width:2;stroke-linecap:butt;stroke-linejoin:miter;stroke:rgb(100%,80%,0%);stroke-opacity:1;stroke-miterlimit:10;" d="M 52.941406 42.046875 L 52.050781 41.640625 "/>
<path style="fill:none;stroke-width:2;stroke-linecap:butt;stroke-linejoin:miter;stroke:rgb(100%,80%,0%);stroke-opacity:1;stroke-miterlimit:10;" d="M 59.074219 22.492188 L 64.910156 24.351562 "/>
<path style="fill:none;stroke-width:2;stroke-linecap:butt;stroke-linejoin:miter;stroke:rgb(100%,80%,0%);stroke-opacity:1;stroke-miterlimit:10;" d="M 71.34375 22.492188 L 65.8125 24.332031 "/>
<path style="fill:none;stroke-width:2;stroke-linecap:butt;stroke-linejoin:miter;stroke:rgb(100%,80%,0%);stroke-opacity:1;stroke-miterlimit:10;" d="M 102.015625 55.082031 L 103.140625 55.117188 "/>
<path style="fill:none;stroke-width:2;stroke-linecap:butt;stroke-linejoin:miter;stroke:rgb(100%,80%,0%);stroke-opacity:1;stroke-miterlimit:10;" d="M 28.402344 55.082031 L 27.734375 54.914062 "/>
<path style="fill:none;stroke-width:2;stroke-linecap:butt;stroke-linejoin:miter;stroke:rgb(100%,80%,0%);stroke-opacity:1;stroke-miterlimit:10;" d="M 95.882812 35.53125 L 96.730469 35.136719 "/>
<path style="fill:none;stroke-width:2;stroke-linecap:butt;stroke-linejoin:miter;stroke:rgb(100%,80%,0%);stroke-opacity:1;stroke-miterlimit:10;" d="M 34.539062 35.53125 L 34.441406 35.085938 "/>
<path style="fill:none;stroke-width:2;stroke-linecap:butt;stroke-linejoin:miter;stroke:rgb(100%,80%,0%);stroke-opacity:1;stroke-miterlimit:10;" d="M 10 48.566406 L 10.304688 48.460938 "/>
<path style="fill:none;stroke-width:2;stroke-linecap:butt;stroke-linejoin:miter;stroke:rgb(100%,80%,0%);stroke-opacity:1;stroke-miterlimit:10;" d="M 102.015625 55.082031 L 103.625 54.742188 "/>
<path style="fill:none;stroke-width:2;stroke-linecap:butt;stroke-linejoin:miter;stroke:rgb(100%,80%,0%);stroke-opacity:1;stroke-miterlimit:10;" d="M 28.402344 55.082031 L 27.171875 54.742188 "/>
<path style="fill:none;stroke-width:2;stroke-linecap:butt;stroke-linejoin:miter;stroke:rgb(100%,80%,0%);stroke-opacity:1;stroke-miterlimit:10;" d="M 95.882812 35.53125 L 96.304688 35.195312 "/>
<path style="fill:none;stroke-width:2;stroke-linecap:butt;stroke-linejoin:miter;stroke:rgb(100%,80%,0%);stroke-opacity:1;stroke-miterlimit:10;" d="M 34.539062 35.53125 L 34.0625 35.035156 "/>
<path style="fill:none;stroke-width:2;stroke-linecap:butt;stroke-linejoin:miter;stroke:rgb(100%,80%,0%);stroke-opacity:1;stroke-miterlimit:10;" d="M 10 48.566406 L 10.074219 48.441406 "/>
<path style="fill:none;stroke-width:2;stroke-linecap:butt;stroke-linejoin:miter;stroke:rgb(100%,80%,0%);stroke-opacity:1;stroke-miterlimit:10;" d="M 16.132812 29.011719 L 10.40625 27.808594 "/>
<path style="fill:none;stroke-width:2;stroke-linecap:butt;stroke-linejoin:miter;stroke:rgb(100%,80%,0%);stroke-opacity:1;stroke-miterlimit:10;" d="M 89.746094 15.976562 L 89.738281 16.714844 "/>
<path style="fill:none;stroke-width:2;stroke-linecap:butt;stroke-linejoin:miter;stroke:rgb(100%,80%,0%);stroke-opacity:1;stroke-miterlimit:10;" d="M 40.671875 15.976562 L 41.234375 16.621094 "/>
<path style="fill:none;stroke-width:2;stroke-linecap:butt;stroke-linejoin:miter;stroke:rgb(100%,80%,0%);stroke-opacity:1;stroke-miterlimit:10;" d="M 108.152344 9.457031 L 107.507812 10.136719 "/>
<path style="fill:none;stroke-width:2;stroke-linecap:butt;stroke-linejoin:miter;stroke:rgb(100%,80%,0%);stroke-opacity:1;stroke-miterlimit:10;" d="M 22.269531 9.457031 L 23.492188 10.074219 "/>
<path style="fill:none;stroke-width:2;stroke-linecap:butt;stroke-linejoin:miter;stroke:rgb(100%,80%,0%);stroke-opacity:1;stroke-miterlimit:10;" d="M 89.746094 15.976562 L 89.222656 16.695312 "/>
<path style="fill:none;stroke-width:2;stroke-linecap:butt;stroke-linejoin:miter;stroke:rgb(100%,80%,0%);stroke-opacity:1;stroke-miterlimit:10;" d="M 40.671875 15.976562 L 41.371094 16.570312 "/>
<path style="fill:none;stroke-width:2;stroke-linecap:butt;stroke-linejoin:miter;stroke:rgb(100%,80%,0%);stroke-opacity:1;stroke-miterlimit:10;" d="M 108.152344 9.457031 L 107.320312 10.226562 "/>
<path style="fill:none;stroke-width:2;stroke-linecap:butt;stroke-linejoin:miter;stroke:rgb(100%,80%,0%);stroke-opacity:1;stroke-miterlimit:10;" d="M 22.269531 9.457031 L 23.300781 10 "/>
<path style=" stroke:none;fill-rule:nonzero;fill:rgb(0%,0%,100%);fill-opacity:1;" d="M 67.480469 110.023438 C 67.480469 112.691406 63.480469 112.691406 63.480469 110.023438 C 63.480469 107.355469 67.480469 107.355469 67.480469 110.023438 "/>
<path style="fill:none;stroke-width:2;stroke-linecap:butt;stroke-linejoin:miter;stroke:rgb(0%,0%,100%);stroke-opacity:1;stroke-miterlimit:10;" d="M 84.734375 130.25 C 84.734375 132.917969 80.734375 132.917969 80.734375 130.25 C 80.734375 127.582031 84.734375 127.582031 84.734375 130.25 "/>
<path style="fill:none;stroke-width:2;stroke-linecap:butt;stroke-linejoin:miter;stroke:rgb(0%,0%,100%);stroke-opacity:1;stroke-miterlimit:10;" d="M 50.179688 130.199219 C 50.179688 132.863281 46.179688 132.863281 46.179688 130.199219 C 46.179688 127.53125 50.179688 127.53125 50.179688 130.199219 "/>
<path style=" stroke:none;fill-rule:nonzero;fill:rgb(0%,0%,100%);fill-opacity:1;" d="M 80.59375 110.265625 C 80.59375 112.933594 76.59375 112.933594 76.59375 110.265625 C 76.59375 107.597656 80.59375 107.597656 80.59375 110.265625 "/>
<path style=" stroke:none;fill-rule:nonzero;fill:rgb(0%,0%,100%);fill-opacity:1;" d="M 54.308594 109.734375 C 54.308594 112.402344 50.308594 112.402344 50.308594 109.734375 C 50.308594 107.066406 54.308594 107.066406 54.308594 109.734375 "/>
<path style=" stroke:none;fill-rule:nonzero;fill:rgb(0%,0%,100%);fill-opacity:1;" d="M 67.351562 150.386719 C 67.351562 153.054688 63.351562 153.054688 63.351562 150.386719 C 63.351562 147.722656 67.351562 147.722656 67.351562 150.386719 "/>
<path style=" stroke:none;fill-rule:nonzero;fill:rgb(0%,0%,100%);fill-opacity:1;" d="M 84.628906 170.578125 C 84.628906 173.242188 80.628906 173.242188 80.628906 170.578125 C 80.628906 167.910156 84.628906 167.910156 84.628906 170.578125 "/>
<path style=" stroke:none;fill-rule:nonzero;fill:rgb(0%,0%,100%);fill-opacity:1;" d="M 50.15625 170.617188 C 50.15625 173.285156 46.15625 173.285156 46.15625 170.617188 C 46.15625 167.949219 50.15625 167.949219 50.15625 170.617188 "/>
<path style=" stroke:none;fill-rule:nonzero;fill:rgb(0%,0%,100%);fill-opacity:1;" d="M 80.625 150.179688 C 80.625 152.847656 76.625 152.847656 76.625 150.179688 C 76.625 147.515625 80.625 147.515625 80.625 150.179688 "/>
<path style=" stroke:none;fill-rule:nonzero;fill:rgb(0%,0%,100%);fill-opacity:1;" d="M 54.050781 150.648438 C 54.050781 153.316406 50.050781 153.316406 50.050781 150.648438 C 50.050781 147.980469 54.050781 147.980469 54.050781 150.648438 "/>
<path style="fill:none;stroke-width:2;stroke-linecap:butt;stroke-linejoin:miter;stroke:rgb(0%,0%,100%);stroke-opacity:1;stroke-miterlimit:10;" d="M 66.910156 130.234375 C 66.910156 132.898438 62.910156 132.898438 62.910156 130.234375 C 62.910156 127.566406 66.910156 127.566406 66.910156 130.234375 "/>
<path style=" stroke:none;fill-rule:nonzero;fill:rgb(0%,0%,100%);fill-opacity:1;" d="M 67.8125 170.605469 C 67.8125 173.269531 63.8125 173.269531 63.8125 170.605469 C 63.8125 167.9375 67.8125 167.9375 67.8125 170.605469 "/>
<path style=" stroke:none;fill-rule:nonzero;fill:rgb(0%,0%,100%);fill-opacity:1;" d="M 105.140625 110.050781 C 105.140625 112.71875 101.140625 112.71875 101.140625 110.050781 C 101.140625 107.386719 105.140625 107.386719 105.140625 110.050781 "/>
<path style=" stroke:none;fill-rule:nonzero;fill:rgb(0%,0%,100%);fill-opacity:1;" d="M 29.734375 109.945312 C 29.734375 112.609375 25.734375 112.609375 25.734375 109.945312 C 25.734375 107.277344 29.734375 107.277344 29.734375 109.945312 "/>
<path style="fill:none;stroke-width:2;stroke-linecap:butt;stroke-linejoin:miter;stroke:rgb(0%,0%,100%);stroke-opacity:1;stroke-miterlimit:10;" d="M 98.730469 130.304688 C 98.730469 132.972656 94.730469 132.972656 94.730469 130.304688 C 94.730469 127.636719 98.730469 127.636719 98.730469 130.304688 "/>
<path style="fill:none;stroke-width:2;stroke-linecap:butt;stroke-linejoin:miter;stroke:rgb(0%,0%,100%);stroke-opacity:1;stroke-miterlimit:10;" d="M 36.441406 130.207031 C 36.441406 132.875 32.441406 132.875 32.441406 130.207031 C 32.441406 127.539062 36.441406 127.539062 36.441406 130.207031 "/>
<path style="fill:none;stroke-width:2;stroke-linecap:butt;stroke-linejoin:miter;stroke:rgb(0%,0%,100%);stroke-opacity:1;stroke-miterlimit:10;" d="M 12.304688 129.78125 C 12.304688 132.449219 8.304688 132.449219 8.304688 129.78125 C 8.304688 127.113281 12.304688 127.113281 12.304688 129.78125 "/>
<path style=" stroke:none;fill-rule:nonzero;fill:rgb(0%,0%,100%);fill-opacity:1;" d="M 105.625 150.410156 C 105.625 153.078125 101.625 153.078125 101.625 150.410156 C 101.625 147.742188 105.625 147.742188 105.625 150.410156 "/>
<path style=" stroke:none;fill-rule:nonzero;fill:rgb(0%,0%,100%);fill-opacity:1;" d="M 29.171875 150.433594 C 29.171875 153.101562 25.171875 153.101562 25.171875 150.433594 C 25.171875 147.765625 29.171875 147.765625 29.171875 150.433594 "/>
<path style=" stroke:none;fill-rule:nonzero;fill:rgb(0%,0%,100%);fill-opacity:1;" d="M 98.304688 170.578125 C 98.304688 173.246094 94.304688 173.246094 94.304688 170.578125 C 94.304688 167.910156 98.304688 167.910156 98.304688 170.578125 "/>
<path style=" stroke:none;fill-rule:nonzero;fill:rgb(0%,0%,100%);fill-opacity:1;" d="M 36.0625 170.585938 C 36.0625 173.25 32.0625 173.25 32.0625 170.585938 C 32.0625 167.917969 36.0625 167.917969 36.0625 170.585938 "/>
<path style=" stroke:none;fill-rule:nonzero;fill:rgb(0%,0%,100%);fill-opacity:1;" d="M 12.074219 171.042969 C 12.074219 173.707031 8.074219 173.707031 8.074219 171.042969 C 8.074219 168.375 12.074219 168.375 12.074219 171.042969 "/>
<path style=" stroke:none;fill-rule:nonzero;fill:rgb(0%,0%,100%);fill-opacity:1;" d="M 12.40625 150.398438 C 12.40625 153.0625 8.40625 153.0625 8.40625 150.398438 C 8.40625 147.730469 12.40625 147.730469 12.40625 150.398438 "/>
<path style=" stroke:none;fill-rule:nonzero;fill:rgb(0%,0%,100%);fill-opacity:1;" d="M 91.738281 110.046875 C 91.738281 112.714844 87.738281 112.714844 87.738281 110.046875 C 87.738281 107.378906 91.738281 107.378906 91.738281 110.046875 "/>
<path style=" stroke:none;fill-rule:nonzero;fill:rgb(0%,0%,100%);fill-opacity:1;" d="M 43.234375 109.957031 C 43.234375 112.621094 39.234375 112.621094 39.234375 109.957031 C 39.234375 107.289062 43.234375 107.289062 43.234375 109.957031 "/>
<path style="fill:none;stroke-width:2;stroke-linecap:butt;stroke-linejoin:miter;stroke:rgb(0%,0%,100%);stroke-opacity:1;stroke-miterlimit:10;" d="M 109.507812 130.5625 C 109.507812 133.230469 105.507812 133.230469 105.507812 130.5625 C 105.507812 127.898438 109.507812 127.898438 109.507812 130.5625 "/>
<path style="fill:none;stroke-width:2;stroke-linecap:butt;stroke-linejoin:miter;stroke:rgb(0%,0%,100%);stroke-opacity:1;stroke-miterlimit:10;" d="M 25.492188 130.339844 C 25.492188 133.003906 21.492188 133.003906 21.492188 130.339844 C 21.492188 127.671875 25.492188 127.671875 25.492188 130.339844 "/>
<path style=" stroke:none;fill-rule:nonzero;fill:rgb(0%,0%,100%);fill-opacity:1;" d="M 91.222656 150.394531 C 91.222656 153.058594 87.222656 153.058594 87.222656 150.394531 C 87.222656 147.726562 91.222656 147.726562 91.222656 150.394531 "/>
<path style=" stroke:none;fill-rule:nonzero;fill:rgb(0%,0%,100%);fill-opacity:1;" d="M 43.371094 150.421875 C 43.371094 153.089844 39.371094 153.089844 39.371094 150.421875 C 39.371094 147.757812 43.371094 147.757812 43.371094 150.421875 "/>
<path style=" stroke:none;fill-rule:nonzero;fill:rgb(0%,0%,100%);fill-opacity:1;" d="M 109.320312 170.308594 C 109.320312 172.976562 105.320312 172.976562 105.320312 170.308594 C 105.320312 167.640625 109.320312 167.640625 109.320312 170.308594 "/>
<path style=" stroke:none;fill-rule:nonzero;fill:rgb(0%,0%,100%);fill-opacity:1;" d="M 25.300781 170.453125 C 25.300781 173.121094 21.300781 173.121094 21.300781 170.453125 C 21.300781 167.785156 25.300781 167.785156 25.300781 170.453125 "/>
<path style="fill:none;stroke-width:2;stroke-linecap:butt;stroke-linejoin:miter;stroke:rgb(100%,80%,0%);stroke-opacity:1;stroke-miterlimit:10;" d="M 65.210938 110 L 65.480469 110.023438 "/>
<path style="fill:none;stroke-width:2;stroke-linecap:butt;stroke-linejoin:miter;stroke:rgb(100%,80%,0%);stroke-opacity:1;stroke-miterlimit:10;" d="M 83.613281 130.207031 L 82.734375 130.25 "/>
<path style="fill:none;stroke-width:2;stroke-linecap:butt;stroke-linejoin:miter;stroke:rgb(100%,80%,0%);stroke-opacity:1;stroke-miterlimit:10;" d="M 46.804688 130.207031 L 48.179688 130.199219 "/>
<path style="fill:none;stroke-width:2;stroke-linecap:butt;stroke-linejoin:miter;stroke:rgb(100%,80%,0%);stroke-opacity:1;stroke-miterlimit:10;" d="M 77.480469 110 L 78.59375 110.265625 "/>
<path style="fill:none;stroke-width:2;stroke-linecap:butt;stroke-linejoin:miter;stroke:rgb(100%,80%,0%);stroke-opacity:1;stroke-miterlimit:10;" d="M 52.941406 110 L 52.308594 109.734375 "/>
<path style="fill:none;stroke-width:2;stroke-linecap:butt;stroke-linejoin:miter;stroke:rgb(100%,80%,0%);stroke-opacity:1;stroke-miterlimit:10;" d="M 65.210938 150.414062 L 65.351562 150.386719 "/>
<path style="fill:none;stroke-width:2;stroke-linecap:butt;stroke-linejoin:miter;stroke:rgb(100%,80%,0%);stroke-opacity:1;stroke-miterlimit:10;" d="M 83.613281 170.621094 L 82.628906 170.578125 "/>
<path style="fill:none;stroke-width:2;stroke-linecap:butt;stroke-linejoin:miter;stroke:rgb(100%,80%,0%);stroke-opacity:1;stroke-miterlimit:10;" d="M 46.804688 170.621094 L 48.15625 170.617188 "/>
<path style="fill:none;stroke-width:2;stroke-linecap:butt;stroke-linejoin:miter;stroke:rgb(100%,80%,0%);stroke-opacity:1;stroke-miterlimit:10;" d="M 77.480469 150.414062 L 78.625 150.179688 "/>
<path style="fill:none;stroke-width:2;stroke-linecap:butt;stroke-linejoin:miter;stroke:rgb(100%,80%,0%);stroke-opacity:1;stroke-miterlimit:10;" d="M 52.941406 150.414062 L 52.050781 150.648438 "/>
<path style="fill:none;stroke-width:2;stroke-linecap:butt;stroke-linejoin:miter;stroke:rgb(100%,80%,0%);stroke-opacity:1;stroke-miterlimit:10;" d="M 59.074219 130.207031 L 64.910156 130.234375 "/>
<path style="fill:none;stroke-width:2;stroke-linecap:butt;stroke-linejoin:miter;stroke:rgb(100%,80%,0%);stroke-opacity:1;stroke-miterlimit:10;" d="M 71.34375 170.621094 L 65.8125 170.605469 "/>
<path style="fill:none;stroke-width:2;stroke-linecap:butt;stroke-linejoin:miter;stroke:rgb(100%,80%,0%);stroke-opacity:1;stroke-miterlimit:10;" d="M 102.015625 110 L 103.140625 110.050781 "/>
<path style="fill:none;stroke-width:2;stroke-linecap:butt;stroke-linejoin:miter;stroke:rgb(100%,80%,0%);stroke-opacity:1;stroke-miterlimit:10;" d="M 28.402344 110 L 27.734375 109.945312 "/>
<path style="fill:none;stroke-width:2;stroke-linecap:butt;stroke-linejoin:miter;stroke:rgb(100%,80%,0%);stroke-opacity:1;stroke-miterlimit:10;" d="M 95.882812 130.207031 L 96.730469 130.304688 "/>
<path style="fill:none;stroke-width:2;stroke-linecap:butt;stroke-linejoin:miter;stroke:rgb(100%,80%,0%);stroke-opacity:1;stroke-miterlimit:10;" d="M 34.539062 130.207031 L 34.441406 130.207031 "/>
<path style="fill:none;stroke-width:2;stroke-linecap:butt;stroke-linejoin:miter;stroke:rgb(100%,80%,0%);stroke-opacity:1;stroke-miterlimit:10;" d="M 10 130.207031 L 10.304688 129.78125 "/>
<path style="fill:none;stroke-width:2;stroke-linecap:butt;stroke-linejoin:miter;stroke:rgb(100%,80%,0%);stroke-opacity:1;stroke-miterlimit:10;" d="M 102.015625 150.414062 L 103.625 150.410156 "/>
<path style="fill:none;stroke-width:2;stroke-linecap:butt;stroke-linejoin:miter;stroke:rgb(100%,80%,0%);stroke-opacity:1;stroke-miterlimit:10;" d="M 28.402344 150.414062 L 27.171875 150.433594 "/>
<path style="fill:none;stroke-width:2;stroke-linecap:butt;stroke-linejoin:miter;stroke:rgb(100%,80%,0%);stroke-opacity:1;stroke-miterlimit:10;" d="M 95.882812 170.621094 L 96.304688 170.578125 "/>
<path style="fill:none;stroke-width:2;stroke-linecap:butt;stroke-linejoin:miter;stroke:rgb(100%,80%,0%);stroke-opacity:1;stroke-miterlimit:10;" d="M 34.539062 170.621094 L 34.0625 170.585938 "/>
<path style="fill:none;stroke-width:2;stroke-linecap:butt;stroke-linejoin:miter;stroke:rgb(100%,80%,0%);stroke-opacity:1;stroke-miterlimit:10;" d="M 10 170.621094 L 10.074219 171.042969 "/>
<path style="fill:none;stroke-width:2;stroke-linecap:butt;stroke-linejoin:miter;stroke:rgb(100%,80%,0%);stroke-opacity:1;stroke-miterlimit:10;" d="M 16.132812 150.414062 L 10.40625 150.398438 "/>
<path style="fill:none;stroke-width:2;stroke-linecap:butt;stroke-linejoin:miter;stroke:rgb(100%,80%,0%);stroke-opacity:1;stroke-miterlimit:10;" d="M 89.746094 110 L 89.738281 110.046875 "/>
<path style="fill:none;stroke-width:2;stroke-linecap:butt;stroke-linejoin:miter;stroke:rgb(100%,80%,0%);stroke-opacity:1;stroke-miterlimit:10;" d="M 40.671875 110 L 41.234375 109.957031 "/>
<path style="fill:none;stroke-width:2;stroke-linecap:butt;stroke-linejoin:miter;stroke:rgb(100%,80%,0%);stroke-opacity:1;stroke-miterlimit:10;" d="M 108.152344 130.207031 L 107.507812 130.5625 "/>
<path style="fill:none;stroke-width:2;stroke-linecap:butt;stroke-linejoin:miter;stroke:rgb(100%,80%,0%);stroke-opacity:1;stroke-miterlimit:10;" d="M 22.269531 130.207031 L 23.492188 130.339844 "/>
<path style="fill:none;stroke-width:2;stroke-linecap:butt;stroke-linejoin:miter;stroke:rgb(100%,80%,0%);stroke-opacity:1;stroke-miterlimit:10;" d="M 89.746094 150.414062 L 89.222656 150.394531 "/>
<path style="fill:none;stroke-width:2;stroke-linecap:butt;stroke-linejoin:miter;stroke:rgb(100%,80%,0%);stroke-opacity:1;stroke-miterlimit:10;" d="M 40.671875 150.414062 L 41.371094 150.421875 "/>
<path style="fill:none;stroke-width:2;stroke-linecap:butt;stroke-linejoin:miter;stroke:rgb(100%,80%,0%);stroke-opacity:1;stroke-miterlimit:10;" d="M 108.152344 170.621094 L 107.320312 170.308594 "/>
<path style="fill:none;stroke-width:2;stroke-linecap:butt;stroke-linejoin:miter;stroke:rgb(100%,80%,0%);stroke-opacity:1;stroke-miterlimit:10;" d="M 22.269531 170.621094 L 23.300781 170.453125 "/>
<path style=" stroke:none;fill-rule:nonzero;fill:rgb(0%,0%,100%);fill-opacity:1;" d="M 162.453125 110.023438 C 162.453125 112.691406 158.453125 112.691406 158.453125 110.023438 C 158.453125 107.355469 162.453125 107.355469 162.453125 110.023438 "/>
<path style="fill:none;stroke-width:2;stroke-linecap:butt;stroke-linejoin:miter;stroke:rgb(0%,0%,100%);stroke-opacity:1;stroke-miterlimit:10;" d="M 168.917969 130.25 C 168.917969 132.917969 164.917969 132.917969 164.917969 130.25 C 164.917969 127.582031 168.917969 127.582031 168.917969 130.25 "/>
<path style="fill:none;stroke-width:2;stroke-linecap:butt;stroke-linejoin:miter;stroke:rgb(0%,0%,100%);stroke-opacity:1;stroke-miterlimit:10;" d="M 169.273438 130.199219 C 169.273438 132.863281 165.273438 132.863281 165.273438 130.199219 C 165.273438 127.53125 169.273438 127.53125 169.273438 130.199219 "/>
<path style=" stroke:none;fill-rule:nonzero;fill:rgb(0%,0%,100%);fill-opacity:1;" d="M 188.464844 110.265625 C 188.464844 112.933594 184.464844 112.933594 184.464844 110.265625 C 184.464844 107.597656 188.464844 107.597656 188.464844 110.265625 "/>
<path style=" stroke:none;fill-rule:nonzero;fill:rgb(0%,0%,100%);fill-opacity:1;" d="M 188.523438 109.734375 C 188.523438 112.402344 184.523438 112.402344 184.523438 109.734375 C 184.523438 107.066406 188.523438 107.066406 188.523438 109.734375 "/>
<path style=" stroke:none;fill-rule:nonzero;fill:rgb(0%,0%,100%);fill-opacity:1;" d="M 162.839844 150.386719 C 162.839844 153.054688 158.839844 153.054688 158.839844 150.386719 C 158.839844 147.722656 162.839844 147.722656 162.839844 150.386719 "/>
<path style=" stroke:none;fill-rule:nonzero;fill:rgb(0%,0%,100%);fill-opacity:1;" d="M 169.144531 170.578125 C 169.144531 173.242188 165.144531 173.242188 165.144531 170.578125 C 165.144531 167.910156 169.144531 167.910156 169.144531 170.578125 "/>
<path style=" stroke:none;fill-rule:nonzero;fill:rgb(0%,0%,100%);fill-opacity:1;" d="M 168.988281 170.617188 C 168.988281 173.285156 164.988281 173.285156 164.988281 170.617188 C 164.988281 167.949219 168.988281 167.949219 168.988281 170.617188 "/>
<path style=" stroke:none;fill-rule:nonzero;fill:rgb(0%,0%,100%);fill-opacity:1;" d="M 188.363281 150.179688 C 188.363281 152.847656 184.363281 152.847656 184.363281 150.179688 C 184.363281 147.515625 188.363281 147.515625 188.363281 150.179688 "/>
<path style=" stroke:none;fill-rule:nonzero;fill:rgb(0%,0%,100%);fill-opacity:1;" d="M 188.476562 150.648438 C 188.476562 153.316406 184.476562 153.316406 184.476562 150.648438 C 184.476562 147.980469 188.476562 147.980469 188.476562 150.648438 "/>
<path style="fill:none;stroke-width:2;stroke-linecap:butt;stroke-linejoin:miter;stroke:rgb(0%,0%,100%);stroke-opacity:1;stroke-miterlimit:10;" d="M 205.765625 130.234375 C 205.765625 132.898438 201.765625 132.898438 201.765625 130.234375 C 201.765625 127.566406 205.765625 127.566406 205.765625 130.234375 "/>
<path style=" stroke:none;fill-rule:nonzero;fill:rgb(0%,0%,100%);fill-opacity:1;" d="M 205.789062 170.605469 C 205.789062 173.269531 201.789062 173.269531 201.789062 170.605469 C 201.789062 167.9375 205.789062 167.9375 205.789062 170.605469 "/>
<path style=" stroke:none;fill-rule:nonzero;fill:rgb(0%,0%,100%);fill-opacity:1;" d="M 175 110.050781 C 175 112.71875 171 112.71875 171 110.050781 C 171 107.386719 175 107.386719 175 110.050781 "/>
<path style=" stroke:none;fill-rule:nonzero;fill:rgb(0%,0%,100%);fill-opacity:1;" d="M 175.203125 109.945312 C 175.203125 112.609375 171.203125 112.609375 171.203125 109.945312 C 171.203125 107.277344 175.203125 107.277344 175.203125 109.945312 "/>
<path style="fill:none;stroke-width:2;stroke-linecap:butt;stroke-linejoin:miter;stroke:rgb(0%,0%,100%);stroke-opacity:1;stroke-miterlimit:10;" d="M 194.980469 130.304688 C 194.980469 132.972656 190.980469 132.972656 190.980469 130.304688 C 190.980469 127.636719 194.980469 127.636719 194.980469 130.304688 "/>
<path style="fill:none;stroke-width:2;stroke-linecap:butt;stroke-linejoin:miter;stroke:rgb(0%,0%,100%);stroke-opacity:1;stroke-miterlimit:10;" d="M 195.03125 130.207031 C 195.03125 132.875 191.03125 132.875 191.03125 130.207031 C 191.03125 127.539062 195.03125 127.539062 195.03125 130.207031 "/>
<path style="fill:none;stroke-width:2;stroke-linecap:butt;stroke-linejoin:miter;stroke:rgb(0%,0%,100%);stroke-opacity:1;stroke-miterlimit:10;" d="M 181.65625 129.78125 C 181.65625 132.449219 177.65625 132.449219 177.65625 129.78125 C 177.65625 127.113281 181.65625 127.113281 181.65625 129.78125 "/>
<path style=" stroke:none;fill-rule:nonzero;fill:rgb(0%,0%,100%);fill-opacity:1;" d="M 175.375 150.410156 C 175.375 153.078125 171.375 153.078125 171.375 150.410156 C 171.375 147.742188 175.375 147.742188 175.375 150.410156 "/>
<path style=" stroke:none;fill-rule:nonzero;fill:rgb(0%,0%,100%);fill-opacity:1;" d="M 175.378906 150.433594 C 175.378906 153.101562 171.378906 153.101562 171.378906 150.433594 C 171.378906 147.765625 175.378906 147.765625 175.378906 150.433594 "/>
<path style=" stroke:none;fill-rule:nonzero;fill:rgb(0%,0%,100%);fill-opacity:1;" d="M 194.921875 170.578125 C 194.921875 173.246094 190.921875 173.246094 190.921875 170.578125 C 190.921875 167.910156 194.921875 167.910156 194.921875 170.578125 "/>
<path style=" stroke:none;fill-rule:nonzero;fill:rgb(0%,0%,100%);fill-opacity:1;" d="M 195.085938 170.585938 C 195.085938 173.25 191.085938 173.25 191.085938 170.585938 C 191.085938 167.917969 195.085938 167.917969 195.085938 170.585938 "/>
<path style=" stroke:none;fill-rule:nonzero;fill:rgb(0%,0%,100%);fill-opacity:1;" d="M 181.675781 171.042969 C 181.675781 173.707031 177.675781 173.707031 177.675781 171.042969 C 177.675781 168.375 181.675781 168.375 181.675781 171.042969 "/>
<path style=" stroke:none;fill-rule:nonzero;fill:rgb(0%,0%,100%);fill-opacity:1;" d="M 202.308594 150.398438 C 202.308594 153.0625 198.308594 153.0625 198.308594 150.398438 C 198.308594 147.730469 202.308594 147.730469 202.308594 150.398438 "/>
<path style=" stroke:none;fill-rule:nonzero;fill:rgb(0%,0%,100%);fill-opacity:1;" d="M 213.402344 110.046875 C 213.402344 112.714844 209.402344 112.714844 209.402344 110.046875 C 209.402344 107.378906 213.402344 107.378906 213.402344 110.046875 "/>
<path style=" stroke:none;fill-rule:nonzero;fill:rgb(0%,0%,100%);fill-opacity:1;" d="M 213.496094 109.957031 C 213.496094 112.621094 209.496094 112.621094 209.496094 109.957031 C 209.496094 107.289062 213.496094 107.289062 213.496094 109.957031 "/>
<path style="fill:none;stroke-width:2;stroke-linecap:butt;stroke-linejoin:miter;stroke:rgb(0%,0%,100%);stroke-opacity:1;stroke-miterlimit:10;" d="M 219.984375 130.5625 C 219.984375 133.230469 215.984375 133.230469 215.984375 130.5625 C 215.984375 127.898438 219.984375 127.898438 219.984375 130.5625 "/>
<path style="fill:none;stroke-width:2;stroke-linecap:butt;stroke-linejoin:miter;stroke:rgb(0%,0%,100%);stroke-opacity:1;stroke-miterlimit:10;" d="M 220.046875 130.339844 C 220.046875 133.003906 216.046875 133.003906 216.046875 130.339844 C 216.046875 127.671875 220.046875 127.671875 220.046875 130.339844 "/>
<path style=" stroke:none;fill-rule:nonzero;fill:rgb(0%,0%,100%);fill-opacity:1;" d="M 213.421875 150.394531 C 213.421875 153.058594 209.421875 153.058594 209.421875 150.394531 C 209.421875 147.726562 213.421875 147.726562 213.421875 150.394531 "/>
<path style=" stroke:none;fill-rule:nonzero;fill:rgb(0%,0%,100%);fill-opacity:1;" d="M 213.546875 150.421875 C 213.546875 153.089844 209.546875 153.089844 209.546875 150.421875 C 209.546875 147.757812 213.546875 147.757812 213.546875 150.421875 "/>
<path style=" stroke:none;fill-rule:nonzero;fill:rgb(0%,0%,100%);fill-opacity:1;" d="M 219.894531 170.308594 C 219.894531 172.976562 215.894531 172.976562 215.894531 170.308594 C 215.894531 167.640625 219.894531 167.640625 219.894531 170.308594 "/>
<path style=" stroke:none;fill-rule:nonzero;fill:rgb(0%,0%,100%);fill-opacity:1;" d="M 220.117188 170.453125 C 220.117188 173.121094 216.117188 173.121094 216.117188 170.453125 C 216.117188 167.785156 220.117188 167.785156 220.117188 170.453125 "/>
<path style="fill:none;stroke-width:2;stroke-linecap:butt;stroke-linejoin:miter;stroke:rgb(100%,80%,0%);stroke-opacity:1;stroke-miterlimit:10;" d="M 160 110 L 160.453125 110.023438 "/>
<path style="fill:none;stroke-width:2;stroke-linecap:butt;stroke-linejoin:miter;stroke:rgb(100%,80%,0%);stroke-opacity:1;stroke-miterlimit:10;" d="M 166.519531 130.207031 L 166.917969 130.25 "/>
<path style="fill:none;stroke-width:2;stroke-linecap:butt;stroke-linejoin:miter;stroke:rgb(100%,80%,0%);stroke-opacity:1;stroke-miterlimit:10;" d="M 166.519531 130.207031 L 167.273438 130.199219 "/>
<path style="fill:none;stroke-width:2;stroke-linecap:butt;stroke-linejoin:miter;stroke:rgb(100%,80%,0%);stroke-opacity:1;stroke-miterlimit:10;" d="M 186.070312 110 L 186.464844 110.265625 "/>
<path style="fill:none;stroke-width:2;stroke-linecap:butt;stroke-linejoin:miter;stroke:rgb(100%,80%,0%);stroke-opacity:1;stroke-miterlimit:10;" d="M 186.070312 110 L 186.523438 109.734375 "/>
<path style="fill:none;stroke-width:2;stroke-linecap:butt;stroke-linejoin:miter;stroke:rgb(100%,80%,0%);stroke-opacity:1;stroke-miterlimit:10;" d="M 160 150.414062 L 160.839844 150.386719 "/>
<path style="fill:none;stroke-width:2;stroke-linecap:butt;stroke-linejoin:miter;stroke:rgb(100%,80%,0%);stroke-opacity:1;stroke-miterlimit:10;" d="M 166.519531 170.621094 L 167.144531 170.578125 "/>
<path style="fill:none;stroke-width:2;stroke-linecap:butt;stroke-linejoin:miter;stroke:rgb(100%,80%,0%);stroke-opacity:1;stroke-miterlimit:10;" d="M 166.519531 170.621094 L 166.988281 170.617188 "/>
<path style="fill:none;stroke-width:2;stroke-linecap:butt;stroke-linejoin:miter;stroke:rgb(100%,80%,0%);stroke-opacity:1;stroke-miterlimit:10;" d="M 186.070312 150.414062 L 186.363281 150.179688 "/>
<path style="fill:none;stroke-width:2;stroke-linecap:butt;stroke-linejoin:miter;stroke:rgb(100%,80%,0%);stroke-opacity:1;stroke-miterlimit:10;" d="M 186.070312 150.414062 L 186.476562 150.648438 "/>
<path style="fill:none;stroke-width:2;stroke-linecap:butt;stroke-linejoin:miter;stroke:rgb(100%,80%,0%);stroke-opacity:1;stroke-miterlimit:10;" d="M 205.625 130.207031 L 203.765625 130.234375 "/>
<path style="fill:none;stroke-width:2;stroke-linecap:butt;stroke-linejoin:miter;stroke:rgb(100%,80%,0%);stroke-opacity:1;stroke-miterlimit:10;" d="M 205.625 170.621094 L 203.789062 170.605469 "/>
<path style="fill:none;stroke-width:2;stroke-linecap:butt;stroke-linejoin:miter;stroke:rgb(100%,80%,0%);stroke-opacity:1;stroke-miterlimit:10;" d="M 173.035156 110 L 173 110.050781 "/>
<path style="fill:none;stroke-width:2;stroke-linecap:butt;stroke-linejoin:miter;stroke:rgb(100%,80%,0%);stroke-opacity:1;stroke-miterlimit:10;" d="M 173.035156 110 L 173.203125 109.945312 "/>
<path style="fill:none;stroke-width:2;stroke-linecap:butt;stroke-linejoin:miter;stroke:rgb(100%,80%,0%);stroke-opacity:1;stroke-miterlimit:10;" d="M 192.589844 130.207031 L 192.980469 130.304688 "/>
<path style="fill:none;stroke-width:2;stroke-linecap:butt;stroke-linejoin:miter;stroke:rgb(100%,80%,0%);stroke-opacity:1;stroke-miterlimit:10;" d="M 192.589844 130.207031 L 193.03125 130.207031 "/>
<path style="fill:none;stroke-width:2;stroke-linecap:butt;stroke-linejoin:miter;stroke:rgb(100%,80%,0%);stroke-opacity:1;stroke-miterlimit:10;" d="M 179.554688 130.207031 L 179.65625 129.78125 "/>
<path style="fill:none;stroke-width:2;stroke-linecap:butt;stroke-linejoin:miter;stroke:rgb(100%,80%,0%);stroke-opacity:1;stroke-miterlimit:10;" d="M 173.035156 150.414062 L 173.375 150.410156 "/>
<path style="fill:none;stroke-width:2;stroke-linecap:butt;stroke-linejoin:miter;stroke:rgb(100%,80%,0%);stroke-opacity:1;stroke-miterlimit:10;" d="M 173.035156 150.414062 L 173.378906 150.433594 "/>
<path style="fill:none;stroke-width:2;stroke-linecap:butt;stroke-linejoin:miter;stroke:rgb(100%,80%,0%);stroke-opacity:1;stroke-miterlimit:10;" d="M 192.589844 170.621094 L 192.921875 170.578125 "/>
<path style="fill:none;stroke-width:2;stroke-linecap:butt;stroke-linejoin:miter;stroke:rgb(100%,80%,0%);stroke-opacity:1;stroke-miterlimit:10;" d="M 192.589844 170.621094 L 193.085938 170.585938 "/>
<path style="fill:none;stroke-width:2;stroke-linecap:butt;stroke-linejoin:miter;stroke:rgb(100%,80%,0%);stroke-opacity:1;stroke-miterlimit:10;" d="M 179.554688 170.621094 L 179.675781 171.042969 "/>
<path style="fill:none;stroke-width:2;stroke-linecap:butt;stroke-linejoin:miter;stroke:rgb(100%,80%,0%);stroke-opacity:1;stroke-miterlimit:10;" d="M 199.105469 150.414062 L 200.308594 150.398438 "/>
<path style="fill:none;stroke-width:2;stroke-linecap:butt;stroke-linejoin:miter;stroke:rgb(100%,80%,0%);stroke-opacity:1;stroke-miterlimit:10;" d="M 212.140625 110 L 211.402344 110.046875 "/>
<path style="fill:none;stroke-width:2;stroke-linecap:butt;stroke-linejoin:miter;stroke:rgb(100%,80%,0%);stroke-opacity:1;stroke-miterlimit:10;" d="M 212.140625 110 L 211.496094 109.957031 "/>
<path style="fill:none;stroke-width:2;stroke-linecap:butt;stroke-linejoin:miter;stroke:rgb(100%,80%,0%);stroke-opacity:1;stroke-miterlimit:10;" d="M 218.660156 130.207031 L 217.984375 130.5625 "/>
<path style="fill:none;stroke-width:2;stroke-linecap:butt;stroke-linejoin:miter;stroke:rgb(100%,80%,0%);stroke-opacity:1;stroke-miterlimit:10;" d="M 218.660156 130.207031 L 218.046875 130.339844 "/>
<path style="fill:none;stroke-width:2;stroke-linecap:butt;stroke-linejoin:miter;stroke:rgb(100%,80%,0%);stroke-opacity:1;stroke-miterlimit:10;" d="M 212.140625 150.414062 L 211.421875 150.394531 "/>
<path style="fill:none;stroke-width:2;stroke-linecap:butt;stroke-linejoin:miter;stroke:rgb(100%,80%,0%);stroke-opacity:1;stroke-miterlimit:10;" d="M 212.140625 150.414062 L 211.546875 150.421875 "/>
<path style="fill:none;stroke-width:2;stroke-linecap:butt;stroke-linejoin:miter;stroke:rgb(100%,80%,0%);stroke-opacity:1;stroke-miterlimit:10;" d="M 218.660156 170.621094 L 217.894531 170.308594 "/>
<path style="fill:none;stroke-width:2;stroke-linecap:butt;stroke-linejoin:miter;stroke:rgb(100%,80%,0%);stroke-opacity:1;stroke-miterlimit:10;" d="M 218.660156 170.621094 L 218.117188 170.453125 "/>
</g>
</svg>
