<?xml version="1.0" encoding="UTF-8"?>
<svg xmlns="http://www.w3.org/2000/svg" xmlns:xlink="http://www.w3.org/1999/xlink" width="600pt" height="400pt" viewBox="0 0 600 400" version="1.1">
<g id="surface1">
<rect x="0" y="0" width="600" height="400" style="fill:rgb(80%,80%,80%);fill-opacity:1;stroke:none;"/>
<path style="fill:none;stroke-width:2;stroke-linecap:butt;stroke-linejoin:miter;stroke:rgb(0%,0%,0%);stroke-opacity:1;stroke-miterlimit:10;" d="M 300 200 L 300 1200 "/>
<path style="fill:none;stroke-width:2;stroke-linecap:butt;stroke-linejoin:miter;stroke:rgb(0%,0%,0%);stroke-opacity:1;stroke-miterlimit:10;" d="M 300 200 L 1300 200 "/>
<path style=" stroke:none;fill-rule:nonzero;fill:rgb(100%,0%,0%);fill-opacity:1;" d="M 346.730469 257.511719 C 346.730469 260.175781 342.730469 260.175781 342.730469 257.511719 C 342.730469 254.84375 346.730469 254.84375 346.730469 257.511719 "/>
<path style=" stroke:none;fill-rule:nonzero;fill:rgb(100%,0%,0%);fill-opacity:1;" d="M 327.558594 251.121094 C 327.558594 253.785156 323.558594 253.785156 323.558594 251.121094 C 323.558594 248.453125 327.558594 248.453125 327.558594 251.121094 "/>
<path style=" stroke:none;fill-rule:nonzero;fill:rgb(100%,0%,0%);fill-opacity:1;" d="M 365.898438 251.121094 C 365.898438 253.785156 361.898438 253.785156 361.898438 251.121094 C 361.898438 248.453125 365.898438 248.453125 365.898438 251.121094 "/>
<path style=" stroke:none;fill-rule:nonzero;fill:rgb(100%,0%,0%);fill-opacity:1;" d="M 333.949219 231.949219 C 333.949219 234.617188 329.949219 234.617188 329.949219 231.949219 C 329.949219 229.285156 333.949219 229.285156 333.949219 231.949219 "/>
<path style=" stroke:none;fill-rule:nonzero;fill:rgb(100%,0%,0%);fill-opacity:1;" d="M 359.511719 231.949219 C 359.511719 234.617188 355.511719 234.617188 355.511719 231.949219 C 355.511719 229.285156 359.511719 229.285156 359.511719 231.949219 "/>
<path style=" stroke:none;fill-rule:nonzero;fill:rgb(100%,0%,0%);fill-opacity:1;" d="M 346.730469 257.511719 C 346.730469 260.175781 342.730469 260.175781 342.730469 257.511719 C 342.730469 254.84375 346.730469 254.84375 346.730469 257.511719 "/>
<path style=" stroke:none;fill-rule:nonzero;fill:rgb(100%,0%,0%);fill-opacity:1;" d="M 327.558594 251.121094 C 327.558594 253.785156 323.558594 253.785156 323.558594 251.121094 C 323.558594 248.453125 327.558594 248.453125 327.558594 251.121094 "/>
<path style=" stroke:none;fill-rule:nonzero;fill:rgb(100%,0%,0%);fill-opacity:1;" d="M 365.898438 251.121094 C 365.898438 253.785156 361.898438 253.785156 361.898438 251.121094 C 361.898438 248.453125 365.898438 248.453125 365.898438 251.121094 "/>
<path style=" stroke:none;fill-rule:nonzero;fill:rgb(100%,0%,0%);fill-opacity:1;" d="M 333.949219 231.949219 C 333.949219 234.617188 329.949219 234.617188 329.949219 231.949219 C 329.949219 229.285156 333.949219 229.285156 333.949219 231.949219 "/>
<path style=" stroke:none;fill-rule:nonzero;fill:rgb(100%,0%,0%);fill-opacity:1;" d="M 359.511719 231.949219 C 359.511719 234.617188 355.511719 234.617188 355.511719 231.949219 C 355.511719 229.285156 359.511719 229.285156 359.511719 231.949219 "/>
<path style=" stroke:none;fill-rule:nonzero;fill:rgb(100%,0%,0%);fill-opacity:1;" d="M 340.339844 212.78125 C 340.339844 215.445312 336.339844 215.445312 336.339844 212.78125 C 336.339844 210.113281 340.339844 210.113281 340.339844 212.78125 "/>
<path style=" stroke:none;fill-rule:nonzero;fill:rgb(100%,0%,0%);fill-opacity:1;" d="M 353.121094 212.78125 C 353.121094 215.445312 349.121094 215.445312 349.121094 212.78125 C 349.121094 210.113281 353.121094 210.113281 353.121094 212.78125 "/>
<path style=" stroke:none;fill-rule:nonzero;fill:rgb(100%,0%,0%);fill-opacity:1;" d="M 340.339844 212.78125 C 340.339844 215.445312 336.339844 215.445312 336.339844 212.78125 C 336.339844 210.113281 340.339844 210.113281 340.339844 212.78125 "/>
<path style=" stroke:none;fill-rule:nonzero;fill:rgb(100%,0%,0%);fill-opacity:1;" d="M 353.121094 212.78125 C 353.121094 215.445312 349.121094 215.445312 349.121094 212.78125 C 349.121094 210.113281 353.121094 210.113281 353.121094 212.78125 "/>
<path style=" stroke:none;fill-rule:nonzero;fill:rgb(100%,0%,0%);fill-opacity:1;" d="M 308.390625 244.730469 C 308.390625 247.398438 304.390625 247.398438 304.390625 244.730469 C 304.390625 242.0625 308.390625 242.0625 308.390625 244.730469 "/>
<path style=" stroke:none;fill-rule:nonzero;fill:rgb(100%,0%,0%);fill-opacity:1;" d="M 385.070312 244.730469 C 385.070312 247.398438 381.070312 247.398438 381.070312 244.730469 C 381.070312 242.0625 385.070312 242.0625 385.070312 244.730469 "/>
<path style=" stroke:none;fill-rule:nonzero;fill:rgb(100%,0%,0%);fill-opacity:1;" d="M 314.78125 225.558594 C 314.78125 228.226562 310.78125 228.226562 310.78125 225.558594 C 310.78125 222.894531 314.78125 222.894531 314.78125 225.558594 "/>
<path style=" stroke:none;fill-rule:nonzero;fill:rgb(100%,0%,0%);fill-opacity:1;" d="M 378.679688 225.558594 C 378.679688 228.226562 374.679688 228.226562 374.679688 225.558594 C 374.679688 222.894531 378.679688 222.894531 378.679688 225.558594 "/>
<path style=" stroke:none;fill-rule:nonzero;fill:rgb(100%,0%,0%);fill-opacity:1;" d="M 404.238281 238.339844 C 404.238281 241.007812 400.238281 241.007812 400.238281 238.339844 C 400.238281 235.671875 404.238281 235.671875 404.238281 238.339844 "/>
<path style=" stroke:none;fill-rule:nonzero;fill:rgb(100%,0%,0%);fill-opacity:1;" d="M 295.609375 219.171875 C 295.609375 221.835938 291.609375 221.835938 291.609375 219.171875 C 291.609375 216.503906 295.609375 216.503906 295.609375 219.171875 "/>
<path style=" stroke:none;fill-rule:nonzero;fill:rgb(100%,0%,0%);fill-opacity:1;" d="M 397.851562 219.171875 C 397.851562 221.835938 393.851562 221.835938 393.851562 219.171875 C 393.851562 216.503906 397.851562 216.503906 397.851562 219.171875 "/>
<path style=" stroke:none;fill-rule:nonzero;fill:rgb(100%,0%,0%);fill-opacity:1;" d="M 308.390625 244.730469 C 308.390625 247.398438 304.390625 247.398438 304.390625 244.730469 C 304.390625 242.0625 308.390625 242.0625 308.390625 244.730469 "/>
<path style=" stroke:none;fill-rule:nonzero;fill:rgb(100%,0%,0%);fill-opacity:1;" d="M 385.070312 244.730469 C 385.070312 247.398438 381.070312 247.398438 381.070312 244.730469 C 381.070312 242.0625 385.070312 242.0625 385.070312 244.730469 "/>
<path style=" stroke:none;fill-rule:nonzero;fill:rgb(100%,0%,0%);fill-opacity:1;" d="M 314.78125 225.558594 C 314.78125 228.226562 310.78125 228.226562 310.78125 225.558594 C 310.78125 222.894531 314.78125 222.894531 314.78125 225.558594 "/>
<path style=" stroke:none;fill-rule:nonzero;fill:rgb(100%,0%,0%);fill-opacity:1;" d="M 378.679688 225.558594 C 378.679688 228.226562 374.679688 228.226562 374.679688 225.558594 C 374.679688 222.894531 378.679688 222.894531 378.679688 225.558594 "/>
<path style=" stroke:none;fill-rule:nonzero;fill:rgb(100%,0%,0%);fill-opacity:1;" d="M 404.238281 238.339844 C 404.238281 241.007812 400.238281 241.007812 400.238281 238.339844 C 400.238281 235.671875 404.238281 235.671875 404.238281 238.339844 "/>
<path style=" stroke:none;fill-rule:nonzero;fill:rgb(100%,0%,0%);fill-opacity:1;" d="M 295.609375 219.171875 C 295.609375 221.835938 291.609375 221.835938 291.609375 219.171875 C 291.609375 216.503906 295.609375 216.503906 295.609375 219.171875 "/>
<path style=" stroke:none;fill-rule:nonzero;fill:rgb(100%,0%,0%);fill-opacity:1;" d="M 397.851562 219.171875 C 397.851562 221.835938 393.851562 221.835938 393.851562 219.171875 C 393.851562 216.503906 397.851562 216.503906 397.851562 219.171875 "/>
<path style=" stroke:none;fill-rule:nonzero;fill:rgb(100%,0%,0%);fill-opacity:1;" d="M 321.171875 206.390625 C 321.171875 209.058594 317.171875 209.058594 317.171875 206.390625 C 317.171875 203.722656 321.171875 203.722656 321.171875 206.390625 "/>
<path style=" stroke:none;fill-rule:nonzero;fill:rgb(100%,0%,0%);fill-opacity:1;" d="M 372.289062 206.390625 C 372.289062 209.058594 368.289062 209.058594 368.289062 206.390625 C 368.289062 203.722656 372.289062 203.722656 372.289062 206.390625 "/>
<path style=" stroke:none;fill-rule:nonzero;fill:rgb(100%,0%,0%);fill-opacity:1;" d="M 302 200 C 302 202.667969 298 202.667969 298 200 C 298 197.332031 302 197.332031 302 200 "/>
<path style=" stroke:none;fill-rule:nonzero;fill:rgb(100%,0%,0%);fill-opacity:1;" d="M 391.460938 200 C 391.460938 202.667969 387.460938 202.667969 387.460938 200 C 387.460938 197.332031 391.460938 197.332031 391.460938 200 "/>
<path style=" stroke:none;fill-rule:nonzero;fill:rgb(100%,0%,0%);fill-opacity:1;" d="M 321.171875 206.390625 C 321.171875 209.058594 317.171875 209.058594 317.171875 206.390625 C 317.171875 203.722656 321.171875 203.722656 321.171875 206.390625 "/>
<path style=" stroke:none;fill-rule:nonzero;fill:rgb(100%,0%,0%);fill-opacity:1;" d="M 372.289062 206.390625 C 372.289062 209.058594 368.289062 209.058594 368.289062 206.390625 C 368.289062 203.722656 372.289062 203.722656 372.289062 206.390625 "/>
<path style=" stroke:none;fill-rule:nonzero;fill:rgb(100%,0%,0%);fill-opacity:1;" d="M 302 200 C 302 202.667969 298 202.667969 298 200 C 298 197.332031 302 197.332031 302 200 "/>
<path style=" stroke:none;fill-rule:nonzero;fill:rgb(100%,0%,0%);fill-opacity:1;" d="M 391.460938 200 C 391.460938 202.667969 387.460938 202.667969 387.460938 200 C 387.460938 197.332031 391.460938 197.332031 391.460938 200 "/>
</g>
</svg>
