<?xml version="1.0" encoding="UTF-8"?>
<svg xmlns="http://www.w3.org/2000/svg" xmlns:xlink="http://www.w3.org/1999/xlink" width="450pt" height="300pt" viewBox="0 0 450 300" version="1.1">
<g id="surface1">
<rect x="0" y="0" width="450" height="300" style="fill:rgb(80%,80%,80%);fill-opacity:1;stroke:none;"/>
<path style="fill:none;stroke-width:2;stroke-linecap:butt;stroke-linejoin:miter;stroke:rgb(0%,0%,0%);stroke-opacity:1;stroke-miterlimit:10;" d="M 225 150 L 225 1150 "/>
<path style="fill:none;stroke-width:2;stroke-linecap:butt;stroke-linejoin:miter;stroke:rgb(0%,0%,0%);stroke-opacity:1;stroke-miterlimit:10;" d="M 225 150 L 1225 150 "/>
<path style=" stroke:none;fill-rule:nonzero;fill:rgb(0%,0%,100%);fill-opacity:1;" d="M 284.511719 207.511719 C 284.511719 210.175781 280.511719 210.175781 280.511719 207.511719 C 280.511719 204.84375 284.511719 204.84375 284.511719 207.511719 "/>
<path style=" stroke:none;fill-rule:nonzero;fill:rgb(0%,0%,100%);fill-opacity:1;" d="M 303.679688 201.121094 C 303.679688 203.785156 299.679688 203.785156 299.679688 201.121094 C 299.679688 198.453125 303.679688 198.453125 303.679688 201.121094 "/>
<path style=" stroke:none;fill-rule:nonzero;fill:rgb(0%,0%,100%);fill-opacity:1;" d="M 265.339844 201.121094 C 265.339844 203.785156 261.339844 203.785156 261.339844 201.121094 C 261.339844 198.453125 265.339844 198.453125 265.339844 201.121094 "/>
<path style=" stroke:none;fill-rule:nonzero;fill:rgb(0%,0%,100%);fill-opacity:1;" d="M 297.289062 181.949219 C 297.289062 184.617188 293.289062 184.617188 293.289062 181.949219 C 293.289062 179.285156 297.289062 179.285156 297.289062 181.949219 "/>
<path style=" stroke:none;fill-rule:nonzero;fill:rgb(0%,0%,100%);fill-opacity:1;" d="M 271.730469 181.949219 C 271.730469 184.617188 267.730469 184.617188 267.730469 181.949219 C 267.730469 179.285156 271.730469 179.285156 271.730469 181.949219 "/>
<path style=" stroke:none;fill-rule:nonzero;fill:rgb(0%,0%,100%);fill-opacity:1;" d="M 284.511719 207.511719 C 284.511719 210.175781 280.511719 210.175781 280.511719 207.511719 C 280.511719 204.84375 284.511719 204.84375 284.511719 207.511719 "/>
<path style=" stroke:none;fill-rule:nonzero;fill:rgb(0%,0%,100%);fill-opacity:1;" d="M 303.679688 201.121094 C 303.679688 203.785156 299.679688 203.785156 299.679688 201.121094 C 299.679688 198.453125 303.679688 198.453125 303.679688 201.121094 "/>
<path style=" stroke:none;fill-rule:nonzero;fill:rgb(0%,0%,100%);fill-opacity:1;" d="M 265.339844 201.121094 C 265.339844 203.785156 261.339844 203.785156 261.339844 201.121094 C 261.339844 198.453125 265.339844 198.453125 265.339844 201.121094 "/>
<path style=" stroke:none;fill-rule:nonzero;fill:rgb(0%,0%,100%);fill-opacity:1;" d="M 297.289062 181.949219 C 297.289062 184.617188 293.289062 184.617188 293.289062 181.949219 C 293.289062 179.285156 297.289062 179.285156 297.289062 181.949219 "/>
<path style=" stroke:none;fill-rule:nonzero;fill:rgb(0%,0%,100%);fill-opacity:1;" d="M 271.730469 181.949219 C 271.730469 184.617188 267.730469 184.617188 267.730469 181.949219 C 267.730469 179.285156 271.730469 179.285156 271.730469 181.949219 "/>
<path style=" stroke:none;fill-rule:nonzero;fill:rgb(0%,0%,100%);fill-opacity:1;" d="M 290.898438 162.78125 C 290.898438 165.445312 286.898438 165.445312 286.898438 162.78125 C 286.898438 160.113281 290.898438 160.113281 290.898438 162.78125 "/>
<path style=" stroke:none;fill-rule:nonzero;fill:rgb(0%,0%,100%);fill-opacity:1;" d="M 278.121094 162.78125 C 278.121094 165.445312 274.121094 165.445312 274.121094 162.78125 C 274.121094 160.113281 278.121094 160.113281 278.121094 162.78125 "/>
<path style=" stroke:none;fill-rule:nonzero;fill:rgb(0%,0%,100%);fill-opacity:1;" d="M 290.898438 162.78125 C 290.898438 165.445312 286.898438 165.445312 286.898438 162.78125 C 286.898438 160.113281 290.898438 160.113281 290.898438 162.78125 "/>
<path style=" stroke:none;fill-rule:nonzero;fill:rgb(0%,0%,100%);fill-opacity:1;" d="M 278.121094 162.78125 C 278.121094 165.445312 274.121094 165.445312 274.121094 162.78125 C 274.121094 160.113281 278.121094 160.113281 278.121094 162.78125 "/>
<path style=" stroke:none;fill-rule:nonzero;fill:rgb(0%,0%,100%);fill-opacity:1;" d="M 322.851562 194.730469 C 322.851562 197.398438 318.851562 197.398438 318.851562 194.730469 C 318.851562 192.0625 322.851562 192.0625 322.851562 194.730469 "/>
<path style=" stroke:none;fill-rule:nonzero;fill:rgb(0%,0%,100%);fill-opacity:1;" d="M 246.171875 194.730469 C 246.171875 197.398438 242.171875 197.398438 242.171875 194.730469 C 242.171875 192.0625 246.171875 192.0625 246.171875 194.730469 "/>
<path style=" stroke:none;fill-rule:nonzero;fill:rgb(0%,0%,100%);fill-opacity:1;" d="M 316.460938 175.558594 C 316.460938 178.226562 312.460938 178.226562 312.460938 175.558594 C 312.460938 172.894531 316.460938 172.894531 316.460938 175.558594 "/>
<path style=" stroke:none;fill-rule:nonzero;fill:rgb(0%,0%,100%);fill-opacity:1;" d="M 252.558594 175.558594 C 252.558594 178.226562 248.558594 178.226562 248.558594 175.558594 C 248.558594 172.894531 252.558594 172.894531 252.558594 175.558594 "/>
<path style=" stroke:none;fill-rule:nonzero;fill:rgb(0%,0%,100%);fill-opacity:1;" d="M 227 188.339844 C 227 191.007812 223 191.007812 223 188.339844 C 223 185.671875 227 185.671875 227 188.339844 "/>
<path style=" stroke:none;fill-rule:nonzero;fill:rgb(0%,0%,100%);fill-opacity:1;" d="M 335.628906 169.171875 C 335.628906 171.835938 331.628906 171.835938 331.628906 169.171875 C 331.628906 166.503906 335.628906 166.503906 335.628906 169.171875 "/>
<path style=" stroke:none;fill-rule:nonzero;fill:rgb(0%,0%,100%);fill-opacity:1;" d="M 233.390625 169.171875 C 233.390625 171.835938 229.390625 171.835938 229.390625 169.171875 C 229.390625 166.503906 233.390625 166.503906 233.390625 169.171875 "/>
<path style=" stroke:none;fill-rule:nonzero;fill:rgb(0%,0%,100%);fill-opacity:1;" d="M 322.851562 194.730469 C 322.851562 197.398438 318.851562 197.398438 318.851562 194.730469 C 318.851562 192.0625 322.851562 192.0625 322.851562 194.730469 "/>
<path style=" stroke:none;fill-rule:nonzero;fill:rgb(0%,0%,100%);fill-opacity:1;" d="M 246.171875 194.730469 C 246.171875 197.398438 242.171875 197.398438 242.171875 194.730469 C 242.171875 192.0625 246.171875 192.0625 246.171875 194.730469 "/>
<path style=" stroke:none;fill-rule:nonzero;fill:rgb(0%,0%,100%);fill-opacity:1;" d="M 316.460938 175.558594 C 316.460938 178.226562 312.460938 178.226562 312.460938 175.558594 C 312.460938 172.894531 316.460938 172.894531 316.460938 175.558594 "/>
<path style=" stroke:none;fill-rule:nonzero;fill:rgb(0%,0%,100%);fill-opacity:1;" d="M 252.558594 175.558594 C 252.558594 178.226562 248.558594 178.226562 248.558594 175.558594 C 248.558594 172.894531 252.558594 172.894531 252.558594 175.558594 "/>
<path style=" stroke:none;fill-rule:nonzero;fill:rgb(0%,0%,100%);fill-opacity:1;" d="M 227 188.339844 C 227 191.007812 223 191.007812 223 188.339844 C 223 185.671875 227 185.671875 227 188.339844 "/>
<path style=" stroke:none;fill-rule:nonzero;fill:rgb(0%,0%,100%);fill-opacity:1;" d="M 335.628906 169.171875 C 335.628906 171.835938 331.628906 171.835938 331.628906 169.171875 C 331.628906 166.503906 335.628906 166.503906 335.628906 169.171875 "/>
<path style=" stroke:none;fill-rule:nonzero;fill:rgb(0%,0%,100%);fill-opacity:1;" d="M 233.390625 169.171875 C 233.390625 171.835938 229.390625 171.835938 229.390625 169.171875 C 229.390625 166.503906 233.390625 166.503906 233.390625 169.171875 "/>
<path style=" stroke:none;fill-rule:nonzero;fill:rgb(0%,0%,100%);fill-opacity:1;" d="M 310.070312 156.390625 C 310.070312 159.058594 306.070312 159.058594 306.070312 156.390625 C 306.070312 153.722656 310.070312 153.722656 310.070312 156.390625 "/>
<path style=" stroke:none;fill-rule:nonzero;fill:rgb(0%,0%,100%);fill-opacity:1;" d="M 258.949219 156.390625 C 258.949219 159.058594 254.949219 159.058594 254.949219 156.390625 C 254.949219 153.722656 258.949219 153.722656 258.949219 156.390625 "/>
<path style=" stroke:none;fill-rule:nonzero;fill:rgb(0%,0%,100%);fill-opacity:1;" d="M 329.238281 150 C 329.238281 152.667969 325.238281 152.667969 325.238281 150 C 325.238281 147.332031 329.238281 147.332031 329.238281 150 "/>
<path style=" stroke:none;fill-rule:nonzero;fill:rgb(0%,0%,100%);fill-opacity:1;" d="M 239.78125 150 C 239.78125 152.667969 235.78125 152.667969 235.78125 150 C 235.78125 147.332031 239.78125 147.332031 239.78125 150 "/>
<path style=" stroke:none;fill-rule:nonzero;fill:rgb(0%,0%,100%);fill-opacity:1;" d="M 310.070312 156.390625 C 310.070312 159.058594 306.070312 159.058594 306.070312 156.390625 C 306.070312 153.722656 310.070312 153.722656 310.070312 156.390625 "/>
<path style=" stroke:none;fill-rule:nonzero;fill:rgb(0%,0%,100%);fill-opacity:1;" d="M 258.949219 156.390625 C 258.949219 159.058594 254.949219 159.058594 254.949219 156.390625 C 254.949219 153.722656 258.949219 153.722656 258.949219 156.390625 "/>
<path style=" stroke:none;fill-rule:nonzero;fill:rgb(0%,0%,100%);fill-opacity:1;" d="M 329.238281 150 C 329.238281 152.667969 325.238281 152.667969 325.238281 150 C 325.238281 147.332031 329.238281 147.332031 329.238281 150 "/>
<path style=" stroke:none;fill-rule:nonzero;fill:rgb(0%,0%,100%);fill-opacity:1;" d="M 239.78125 150 C 239.78125 152.667969 235.78125 152.667969 235.78125 150 C 235.78125 147.332031 239.78125 147.332031 239.78125 150 "/>
</g>
</svg>
