<?xml version="1.0" encoding="UTF-8"?>
<svg xmlns="http://www.w3.org/2000/svg" xmlns:xlink="http://www.w3.org/1999/xlink" width="300pt" height="200pt" viewBox="0 0 300 200" version="1.1">
<g id="surface1">
<rect x="0" y="0" width="300" height="200" style="fill:rgb(80%,80%,80%);fill-opacity:1;stroke:none;"/>
<path style="fill:none;stroke-width:2;stroke-linecap:butt;stroke-linejoin:miter;stroke:rgb(0%,0%,0%);stroke-opacity:1;stroke-miterlimit:10;" d="M 10 10 L 10 1010 "/>
<path style="fill:none;stroke-width:2;stroke-linecap:butt;stroke-linejoin:miter;stroke:rgb(0%,0%,0%);stroke-opacity:1;stroke-miterlimit:10;" d="M 160 10 L 160 1010 "/>
<path style="fill:none;stroke-width:2;stroke-linecap:butt;stroke-linejoin:miter;stroke:rgb(0%,0%,0%);stroke-opacity:1;stroke-miterlimit:10;" d="M 10 110 L 10 1110 "/>
<path style="fill:none;stroke-width:2;stroke-linecap:butt;stroke-linejoin:miter;stroke:rgb(0%,0%,0%);stroke-opacity:1;stroke-miterlimit:10;" d="M 10 10 L 1010 10 "/>
<path style="fill:none;stroke-width:2;stroke-linecap:butt;stroke-linejoin:miter;stroke:rgb(0%,0%,0%);stroke-opacity:1;stroke-miterlimit:10;" d="M 160 10 L 1160 10 "/>
<path style="fill:none;stroke-width:2;stroke-linecap:butt;stroke-linejoin:miter;stroke:rgb(0%,0%,0%);stroke-opacity:1;stroke-miterlimit:10;" d="M 10 110 L 1010 110 "/>
<path style=" stroke:none;fill-rule:nonzero;fill:rgb(0%,0%,100%);fill-opacity:1;" d="M 67.210938 10 C 67.210938 12.667969 63.210938 12.667969 63.210938 10 C 63.210938 7.332031 67.210938 7.332031 67.210938 10 "/>
<path style=" stroke:none;fill-rule:nonzero;fill:rgb(0%,0%,100%);fill-opacity:1;" d="M 85.613281 16.519531 C 85.613281 19.183594 81.613281 19.183594 81.613281 16.519531 C 81.613281 13.851562 85.613281 13.851562 85.613281 16.519531 "/>
<path style=" stroke:none;fill-rule:nonzero;fill:rgb(0%,0%,100%);fill-opacity:1;" d="M 48.804688 16.519531 C 48.804688 19.183594 44.804688 19.183594 44.804688 16.519531 C 44.804688 13.851562 48.804688 13.851562 48.804688 16.519531 "/>
<path style=" stroke:none;fill-rule:nonzero;fill:rgb(0%,0%,100%);fill-opacity:1;" d="M 79.480469 36.070312 C 79.480469 38.738281 75.480469 38.738281 75.480469 36.070312 C 75.480469 33.40625 79.480469 33.40625 79.480469 36.070312 "/>
<path style=" stroke:none;fill-rule:nonzero;fill:rgb(0%,0%,100%);fill-opacity:1;" d="M 54.941406 36.070312 C 54.941406 38.738281 50.941406 38.738281 50.941406 36.070312 C 50.941406 33.40625 54.941406 33.40625 54.941406 36.070312 "/>
<path style=" stroke:none;fill-rule:nonzero;fill:rgb(0%,0%,100%);fill-opacity:1;" d="M 67.210938 10 C 67.210938 12.667969 63.210938 12.667969 63.210938 10 C 63.210938 7.332031 67.210938 7.332031 67.210938 10 "/>
<path style=" stroke:none;fill-rule:nonzero;fill:rgb(0%,0%,100%);fill-opacity:1;" d="M 85.613281 16.519531 C 85.613281 19.183594 81.613281 19.183594 81.613281 16.519531 C 81.613281 13.851562 85.613281 13.851562 85.613281 16.519531 "/>
<path style=" stroke:none;fill-rule:nonzero;fill:rgb(0%,0%,100%);fill-opacity:1;" d="M 48.804688 16.519531 C 48.804688 19.183594 44.804688 19.183594 44.804688 16.519531 C 44.804688 13.851562 48.804688 13.851562 48.804688 16.519531 "/>
<path style=" stroke:none;fill-rule:nonzero;fill:rgb(0%,0%,100%);fill-opacity:1;" d="M 79.480469 36.070312 C 79.480469 38.738281 75.480469 38.738281 75.480469 36.070312 C 75.480469 33.40625 79.480469 33.40625 79.480469 36.070312 "/>
<path style=" stroke:none;fill-rule:nonzero;fill:rgb(0%,0%,100%);fill-opacity:1;" d="M 54.941406 36.070312 C 54.941406 38.738281 50.941406 38.738281 50.941406 36.070312 C 50.941406 33.40625 54.941406 33.40625 54.941406 36.070312 "/>
<path style=" stroke:none;fill-rule:nonzero;fill:rgb(0%,0%,100%);fill-opacity:1;" d="M 61.074219 55.625 C 61.074219 58.292969 57.074219 58.292969 57.074219 55.625 C 57.074219 52.957031 61.074219 52.957031 61.074219 55.625 "/>
<path style=" stroke:none;fill-rule:nonzero;fill:rgb(0%,0%,100%);fill-opacity:1;" d="M 73.34375 55.625 C 73.34375 58.292969 69.34375 58.292969 69.34375 55.625 C 69.34375 52.957031 73.34375 52.957031 73.34375 55.625 "/>
<path style=" stroke:none;fill-rule:nonzero;fill:rgb(0%,0%,100%);fill-opacity:1;" d="M 104.015625 23.035156 C 104.015625 25.703125 100.015625 25.703125 100.015625 23.035156 C 100.015625 20.367188 104.015625 20.367188 104.015625 23.035156 "/>
<path style=" stroke:none;fill-rule:nonzero;fill:rgb(0%,0%,100%);fill-opacity:1;" d="M 30.402344 23.035156 C 30.402344 25.703125 26.402344 25.703125 26.402344 23.035156 C 26.402344 20.367188 30.402344 20.367188 30.402344 23.035156 "/>
<path style=" stroke:none;fill-rule:nonzero;fill:rgb(0%,0%,100%);fill-opacity:1;" d="M 97.882812 42.589844 C 97.882812 45.253906 93.882812 45.253906 93.882812 42.589844 C 93.882812 39.921875 97.882812 39.921875 97.882812 42.589844 "/>
<path style=" stroke:none;fill-rule:nonzero;fill:rgb(0%,0%,100%);fill-opacity:1;" d="M 36.539062 42.589844 C 36.539062 45.253906 32.539062 45.253906 32.539062 42.589844 C 32.539062 39.921875 36.539062 39.921875 36.539062 42.589844 "/>
<path style=" stroke:none;fill-rule:nonzero;fill:rgb(0%,0%,100%);fill-opacity:1;" d="M 12 29.554688 C 12 32.21875 8 32.21875 8 29.554688 C 8 26.886719 12 26.886719 12 29.554688 "/>
<path style=" stroke:none;fill-rule:nonzero;fill:rgb(0%,0%,100%);fill-opacity:1;" d="M 104.015625 23.035156 C 104.015625 25.703125 100.015625 25.703125 100.015625 23.035156 C 100.015625 20.367188 104.015625 20.367188 104.015625 23.035156 "/>
<path style=" stroke:none;fill-rule:nonzero;fill:rgb(0%,0%,100%);fill-opacity:1;" d="M 30.402344 23.035156 C 30.402344 25.703125 26.402344 25.703125 26.402344 23.035156 C 26.402344 20.367188 30.402344 20.367188 30.402344 23.035156 "/>
<path style=" stroke:none;fill-rule:nonzero;fill:rgb(0%,0%,100%);fill-opacity:1;" d="M 97.882812 42.589844 C 97.882812 45.253906 93.882812 45.253906 93.882812 42.589844 C 93.882812 39.921875 97.882812 39.921875 97.882812 42.589844 "/>
<path style=" stroke:none;fill-rule:nonzero;fill:rgb(0%,0%,100%);fill-opacity:1;" d="M 36.539062 42.589844 C 36.539062 45.253906 32.539062 45.253906 32.539062 42.589844 C 32.539062 39.921875 36.539062 39.921875 36.539062 42.589844 "/>
<path style=" stroke:none;fill-rule:nonzero;fill:rgb(0%,0%,100%);fill-opacity:1;" d="M 12 29.554688 C 12 32.21875 8 32.21875 8 29.554688 C 8 26.886719 12 26.886719 12 29.554688 "/>
<path style=" stroke:none;fill-rule:nonzero;fill:rgb(0%,0%,100%);fill-opacity:1;" d="M 18.132812 49.105469 C 18.132812 51.773438 14.132812 51.773438 14.132812 49.105469 C 14.132812 46.441406 18.132812 46.441406 18.132812 49.105469 "/>
<path style=" stroke:none;fill-rule:nonzero;fill:rgb(0%,0%,100%);fill-opacity:1;" d="M 91.746094 62.140625 C 91.746094 64.808594 87.746094 64.808594 87.746094 62.140625 C 87.746094 59.476562 91.746094 59.476562 91.746094 62.140625 "/>
<path style=" stroke:none;fill-rule:nonzero;fill:rgb(0%,0%,100%);fill-opacity:1;" d="M 42.671875 62.140625 C 42.671875 64.808594 38.671875 64.808594 38.671875 62.140625 C 38.671875 59.476562 42.671875 59.476562 42.671875 62.140625 "/>
<path style=" stroke:none;fill-rule:nonzero;fill:rgb(0%,0%,100%);fill-opacity:1;" d="M 110.152344 68.660156 C 110.152344 71.328125 106.152344 71.328125 106.152344 68.660156 C 106.152344 65.992188 110.152344 65.992188 110.152344 68.660156 "/>
<path style=" stroke:none;fill-rule:nonzero;fill:rgb(0%,0%,100%);fill-opacity:1;" d="M 24.269531 68.660156 C 24.269531 71.328125 20.269531 71.328125 20.269531 68.660156 C 20.269531 65.992188 24.269531 65.992188 24.269531 68.660156 "/>
<path style=" stroke:none;fill-rule:nonzero;fill:rgb(0%,0%,100%);fill-opacity:1;" d="M 91.746094 62.140625 C 91.746094 64.808594 87.746094 64.808594 87.746094 62.140625 C 87.746094 59.476562 91.746094 59.476562 91.746094 62.140625 "/>
<path style=" stroke:none;fill-rule:nonzero;fill:rgb(0%,0%,100%);fill-opacity:1;" d="M 42.671875 62.140625 C 42.671875 64.808594 38.671875 64.808594 38.671875 62.140625 C 38.671875 59.476562 42.671875 59.476562 42.671875 62.140625 "/>
<path style=" stroke:none;fill-rule:nonzero;fill:rgb(0%,0%,100%);fill-opacity:1;" d="M 110.152344 68.660156 C 110.152344 71.328125 106.152344 71.328125 106.152344 68.660156 C 106.152344 65.992188 110.152344 65.992188 110.152344 68.660156 "/>
<path style=" stroke:none;fill-rule:nonzero;fill:rgb(0%,0%,100%);fill-opacity:1;" d="M 24.269531 68.660156 C 24.269531 71.328125 20.269531 71.328125 20.269531 68.660156 C 20.269531 65.992188 24.269531 65.992188 24.269531 68.660156 "/>
<path style="fill:none;stroke-width:2;stroke-linecap:butt;stroke-linejoin:miter;stroke:rgb(100%,80%,0%);stroke-opacity:1;stroke-miterlimit:10;" d="M 65.480469 10.453125 L 65.210938 10 "/>
<path style="fill:none;stroke-width:2;stroke-linecap:butt;stroke-linejoin:miter;stroke:rgb(100%,80%,0%);stroke-opacity:1;stroke-miterlimit:10;" d="M 82.734375 16.917969 L 83.613281 16.519531 "/>
<path style="fill:none;stroke-width:2;stroke-linecap:butt;stroke-linejoin:miter;stroke:rgb(100%,80%,0%);stroke-opacity:1;stroke-miterlimit:10;" d="M 48.179688 17.273438 L 46.804688 16.519531 "/>
<path style="fill:none;stroke-width:2;stroke-linecap:butt;stroke-linejoin:miter;stroke:rgb(100%,80%,0%);stroke-opacity:1;stroke-miterlimit:10;" d="M 78.59375 36.464844 L 77.480469 36.070312 "/>
<path style="fill:none;stroke-width:2;stroke-linecap:butt;stroke-linejoin:miter;stroke:rgb(100%,80%,0%);stroke-opacity:1;stroke-miterlimit:10;" d="M 52.308594 36.523438 L 52.941406 36.070312 "/>
<path style="fill:none;stroke-width:2;stroke-linecap:butt;stroke-linejoin:miter;stroke:rgb(100%,80%,0%);stroke-opacity:1;stroke-miterlimit:10;" d="M 65.351562 10.839844 L 65.210938 10 "/>
<path style="fill:none;stroke-width:2;stroke-linecap:butt;stroke-linejoin:miter;stroke:rgb(100%,80%,0%);stroke-opacity:1;stroke-miterlimit:10;" d="M 82.628906 17.144531 L 83.613281 16.519531 "/>
<path style="fill:none;stroke-width:2;stroke-linecap:butt;stroke-linejoin:miter;stroke:rgb(100%,80%,0%);stroke-opacity:1;stroke-miterlimit:10;" d="M 48.15625 16.988281 L 46.804688 16.519531 "/>
<path style="fill:none;stroke-width:2;stroke-linecap:butt;stroke-linejoin:miter;stroke:rgb(100%,80%,0%);stroke-opacity:1;stroke-miterlimit:10;" d="M 78.625 36.363281 L 77.480469 36.070312 "/>
<path style="fill:none;stroke-width:2;stroke-linecap:butt;stroke-linejoin:miter;stroke:rgb(100%,80%,0%);stroke-opacity:1;stroke-miterlimit:10;" d="M 52.050781 36.476562 L 52.941406 36.070312 "/>
<path style="fill:none;stroke-width:2;stroke-linecap:butt;stroke-linejoin:miter;stroke:rgb(100%,80%,0%);stroke-opacity:1;stroke-miterlimit:10;" d="M 64.910156 53.765625 L 59.074219 55.625 "/>
<path style="fill:none;stroke-width:2;stroke-linecap:butt;stroke-linejoin:miter;stroke:rgb(100%,80%,0%);stroke-opacity:1;stroke-miterlimit:10;" d="M 65.8125 53.789062 L 71.34375 55.625 "/>
<path style="fill:none;stroke-width:2;stroke-linecap:butt;stroke-linejoin:miter;stroke:rgb(100%,80%,0%);stroke-opacity:1;stroke-miterlimit:10;" d="M 103.140625 23 L 102.015625 23.035156 "/>
<path style="fill:none;stroke-width:2;stroke-linecap:butt;stroke-linejoin:miter;stroke:rgb(100%,80%,0%);stroke-opacity:1;stroke-miterlimit:10;" d="M 27.734375 23.203125 L 28.402344 23.035156 "/>
<path style="fill:none;stroke-width:2;stroke-linecap:butt;stroke-linejoin:miter;stroke:rgb(100%,80%,0%);stroke-opacity:1;stroke-miterlimit:10;" d="M 96.730469 42.980469 L 95.882812 42.589844 "/>
<path style="fill:none;stroke-width:2;stroke-linecap:butt;stroke-linejoin:miter;stroke:rgb(100%,80%,0%);stroke-opacity:1;stroke-miterlimit:10;" d="M 34.441406 43.03125 L 34.539062 42.589844 "/>
<path style="fill:none;stroke-width:2;stroke-linecap:butt;stroke-linejoin:miter;stroke:rgb(100%,80%,0%);stroke-opacity:1;stroke-miterlimit:10;" d="M 10.304688 29.65625 L 10 29.554688 "/>
<path style="fill:none;stroke-width:2;stroke-linecap:butt;stroke-linejoin:miter;stroke:rgb(100%,80%,0%);stroke-opacity:1;stroke-miterlimit:10;" d="M 103.625 23.375 L 102.015625 23.035156 "/>
<path style="fill:none;stroke-width:2;stroke-linecap:butt;stroke-linejoin:miter;stroke:rgb(100%,80%,0%);stroke-opacity:1;stroke-miterlimit:10;" d="M 27.171875 23.378906 L 28.402344 23.035156 "/>
<path style="fill:none;stroke-width:2;stroke-linecap:butt;stroke-linejoin:miter;stroke:rgb(100%,80%,0%);stroke-opacity:1;stroke-miterlimit:10;" d="M 96.304688 42.921875 L 95.882812 42.589844 "/>
<path style="fill:none;stroke-width:2;stroke-linecap:butt;stroke-linejoin:miter;stroke:rgb(100%,80%,0%);stroke-opacity:1;stroke-miterlimit:10;" d="M 34.0625 43.085938 L 34.539062 42.589844 "/>
<path style="fill:none;stroke-width:2;stroke-linecap:butt;stroke-linejoin:miter;stroke:rgb(100%,80%,0%);stroke-opacity:1;stroke-miterlimit:10;" d="M 10.074219 29.675781 L 10 29.554688 "/>
<path style="fill:none;stroke-width:2;stroke-linecap:butt;stroke-linejoin:miter;stroke:rgb(100%,80%,0%);stroke-opacity:1;stroke-miterlimit:10;" d="M 10.40625 50.308594 L 16.132812 49.105469 "/>
<path style="fill:none;stroke-width:2;stroke-linecap:butt;stroke-linejoin:miter;stroke:rgb(100%,80%,0%);stroke-opacity:1;stroke-miterlimit:10;" d="M 89.738281 61.402344 L 89.746094 62.140625 "/>
<path style="fill:none;stroke-width:2;stroke-linecap:butt;stroke-linejoin:miter;stroke:rgb(100%,80%,0%);stroke-opacity:1;stroke-miterlimit:10;" d="M 41.234375 61.496094 L 40.671875 62.140625 "/>
<path style="fill:none;stroke-width:2;stroke-linecap:butt;stroke-linejoin:miter;stroke:rgb(100%,80%,0%);stroke-opacity:1;stroke-miterlimit:10;" d="M 107.507812 67.984375 L 108.152344 68.660156 "/>
<path style="fill:none;stroke-width:2;stroke-linecap:butt;stroke-linejoin:miter;stroke:rgb(100%,80%,0%);stroke-opacity:1;stroke-miterlimit:10;" d="M 23.492188 68.046875 L 22.269531 68.660156 "/>
<path style="fill:none;stroke-width:2;stroke-linecap:butt;stroke-linejoin:miter;stroke:rgb(100%,80%,0%);stroke-opacity:1;stroke-miterlimit:10;" d="M 89.222656 61.421875 L 89.746094 62.140625 "/>
<path style="fill:none;stroke-width:2;stroke-linecap:butt;stroke-linejoin:miter;stroke:rgb(100%,80%,0%);stroke-opacity:1;stroke-miterlimit:10;" d="M 41.371094 61.546875 L 40.671875 62.140625 "/>
<path style="fill:none;stroke-width:2;stroke-linecap:butt;stroke-linejoin:miter;stroke:rgb(100%,80%,0%);stroke-opacity:1;stroke-miterlimit:10;" d="M 107.320312 67.894531 L 108.152344 68.660156 "/>
<path style="fill:none;stroke-width:2;stroke-linecap:butt;stroke-linejoin:miter;stroke:rgb(100%,80%,0%);stroke-opacity:1;stroke-miterlimit:10;" d="M 23.300781 68.117188 L 22.269531 68.660156 "/>
<path style=" stroke:none;fill-rule:nonzero;fill:rgb(0%,0%,100%);fill-opacity:1;" d="M 67.210938 110 C 67.210938 112.667969 63.210938 112.667969 63.210938 110 C 63.210938 107.332031 67.210938 107.332031 67.210938 110 "/>
<path style=" stroke:none;fill-rule:nonzero;fill:rgb(0%,0%,100%);fill-opacity:1;" d="M 85.613281 130.207031 C 85.613281 132.875 81.613281 132.875 81.613281 130.207031 C 81.613281 127.539062 85.613281 127.539062 85.613281 130.207031 "/>
<path style=" stroke:none;fill-rule:nonzero;fill:rgb(0%,0%,100%);fill-opacity:1;" d="M 48.804688 130.207031 C 48.804688 132.875 44.804688 132.875 44.804688 130.207031 C 44.804688 127.539062 48.804688 127.539062 48.804688 130.207031 "/>
<path style=" stroke:none;fill-rule:nonzero;fill:rgb(0%,0%,100%);fill-opacity:1;" d="M 79.480469 110 C 79.480469 112.667969 75.480469 112.667969 75.480469 110 C 75.480469 107.332031 79.480469 107.332031 79.480469 110 "/>
<path style=" stroke:none;fill-rule:nonzero;fill:rgb(0%,0%,100%);fill-opacity:1;" d="M 54.941406 110 C 54.941406 112.667969 50.941406 112.667969 50.941406 110 C 50.941406 107.332031 54.941406 107.332031 54.941406 110 "/>
<path style=" stroke:none;fill-rule:nonzero;fill:rgb(0%,0%,100%);fill-opacity:1;" d="M 67.210938 150.414062 C 67.210938 153.082031 63.210938 153.082031 63.210938 150.414062 C 63.210938 147.746094 67.210938 147.746094 67.210938 150.414062 "/>
<path style=" stroke:none;fill-rule:nonzero;fill:rgb(0%,0%,100%);fill-opacity:1;" d="M 85.613281 170.621094 C 85.613281 173.289062 81.613281 173.289062 81.613281 170.621094 C 81.613281 167.953125 85.613281 167.953125 85.613281 170.621094 "/>
<path style=" stroke:none;fill-rule:nonzero;fill:rgb(0%,0%,100%);fill-opacity:1;" d="M 48.804688 170.621094 C 48.804688 173.289062 44.804688 173.289062 44.804688 170.621094 C 44.804688 167.953125 48.804688 167.953125 48.804688 170.621094 "/>
<path style=" stroke:none;fill-rule:nonzero;fill:rgb(0%,0%,100%);fill-opacity:1;" d="M 79.480469 150.414062 C 79.480469 153.082031 75.480469 153.082031 75.480469 150.414062 C 75.480469 147.746094 79.480469 147.746094 79.480469 150.414062 "/>
<path style=" stroke:none;fill-rule:nonzero;fill:rgb(0%,0%,100%);fill-opacity:1;" d="M 54.941406 150.414062 C 54.941406 153.082031 50.941406 153.082031 50.941406 150.414062 C 50.941406 147.746094 54.941406 147.746094 54.941406 150.414062 "/>
<path style=" stroke:none;fill-rule:nonzero;fill:rgb(0%,0%,100%);fill-opacity:1;" d="M 61.074219 130.207031 C 61.074219 132.875 57.074219 132.875 57.074219 130.207031 C 57.074219 127.539062 61.074219 127.539062 61.074219 130.207031 "/>
<path style=" stroke:none;fill-rule:nonzero;fill:rgb(0%,0%,100%);fill-opacity:1;" d="M 73.34375 170.621094 C 73.34375 173.289062 69.34375 173.289062 69.34375 170.621094 C 69.34375 167.953125 73.34375 167.953125 73.34375 170.621094 "/>
<path style=" stroke:none;fill-rule:nonzero;fill:rgb(0%,0%,100%);fill-opacity:1;" d="M 104.015625 110 C 104.015625 112.667969 100.015625 112.667969 100.015625 110 C 100.015625 107.332031 104.015625 107.332031 104.015625 110 "/>
<path style=" stroke:none;fill-rule:nonzero;fill:rgb(0%,0%,100%);fill-opacity:1;" d="M 30.402344 110 C 30.402344 112.667969 26.402344 112.667969 26.402344 110 C 26.402344 107.332031 30.402344 107.332031 30.402344 110 "/>
<path style=" stroke:none;fill-rule:nonzero;fill:rgb(0%,0%,100%);fill-opacity:1;" d="M 97.882812 130.207031 C 97.882812 132.875 93.882812 132.875 93.882812 130.207031 C 93.882812 127.539062 97.882812 127.539062 97.882812 130.207031 "/>
<path style=" stroke:none;fill-rule:nonzero;fill:rgb(0%,0%,100%);fill-opacity:1;" d="M 36.539062 130.207031 C 36.539062 132.875 32.539062 132.875 32.539062 130.207031 C 32.539062 127.539062 36.539062 127.539062 36.539062 130.207031 "/>
<path style=" stroke:none;fill-rule:nonzero;fill:rgb(0%,0%,100%);fill-opacity:1;" d="M 12 130.207031 C 12 132.875 8 132.875 8 130.207031 C 8 127.539062 12 127.539062 12 130.207031 "/>
<path style=" stroke:none;fill-rule:nonzero;fill:rgb(0%,0%,100%);fill-opacity:1;" d="M 104.015625 150.414062 C 104.015625 153.082031 100.015625 153.082031 100.015625 150.414062 C 100.015625 147.746094 104.015625 147.746094 104.015625 150.414062 "/>
<path style=" stroke:none;fill-rule:nonzero;fill:rgb(0%,0%,100%);fill-opacity:1;" d="M 30.402344 150.414062 C 30.402344 153.082031 26.402344 153.082031 26.402344 150.414062 C 26.402344 147.746094 30.402344 147.746094 30.402344 150.414062 "/>
<path style=" stroke:none;fill-rule:nonzero;fill:rgb(0%,0%,100%);fill-opacity:1;" d="M 97.882812 170.621094 C 97.882812 173.289062 93.882812 173.289062 93.882812 170.621094 C 93.882812 167.953125 97.882812 167.953125 97.882812 170.621094 "/>
<path style=" stroke:none;fill-rule:nonzero;fill:rgb(0%,0%,100%);fill-opacity:1;" d="M 36.539062 170.621094 C 36.539062 173.289062 32.539062 173.289062 32.539062 170.621094 C 32.539062 167.953125 36.539062 167.953125 36.539062 170.621094 "/>
<path style=" stroke:none;fill-rule:nonzero;fill:rgb(0%,0%,100%);fill-opacity:1;" d="M 12 170.621094 C 12 173.289062 8 173.289062 8 170.621094 C 8 167.953125 12 167.953125 12 170.621094 "/>
<path style=" stroke:none;fill-rule:nonzero;fill:rgb(0%,0%,100%);fill-opacity:1;" d="M 18.132812 150.414062 C 18.132812 153.082031 14.132812 153.082031 14.132812 150.414062 C 14.132812 147.746094 18.132812 147.746094 18.132812 150.414062 "/>
<path style=" stroke:none;fill-rule:nonzero;fill:rgb(0%,0%,100%);fill-opacity:1;" d="M 91.746094 110 C 91.746094 112.667969 87.746094 112.667969 87.746094 110 C 87.746094 107.332031 91.746094 107.332031 91.746094 110 "/>
<path style=" stroke:none;fill-rule:nonzero;fill:rgb(0%,0%,100%);fill-opacity:1;" d="M 42.671875 110 C 42.671875 112.667969 38.671875 112.667969 38.671875 110 C 38.671875 107.332031 42.671875 107.332031 42.671875 110 "/>
<path style=" stroke:none;fill-rule:nonzero;fill:rgb(0%,0%,100%);fill-opacity:1;" d="M 110.152344 130.207031 C 110.152344 132.875 106.152344 132.875 106.152344 130.207031 C 106.152344 127.539062 110.152344 127.539062 110.152344 130.207031 "/>
<path style=" stroke:none;fill-rule:nonzero;fill:rgb(0%,0%,100%);fill-opacity:1;" d="M 24.269531 130.207031 C 24.269531 132.875 20.269531 132.875 20.269531 130.207031 C 20.269531 127.539062 24.269531 127.539062 24.269531 130.207031 "/>
<path style=" stroke:none;fill-rule:nonzero;fill:rgb(0%,0%,100%);fill-opacity:1;" d="M 91.746094 150.414062 C 91.746094 153.082031 87.746094 153.082031 87.746094 150.414062 C 87.746094 147.746094 91.746094 147.746094 91.746094 150.414062 "/>
<path style=" stroke:none;fill-rule:nonzero;fill:rgb(0%,0%,100%);fill-opacity:1;" d="M 42.671875 150.414062 C 42.671875 153.082031 38.671875 153.082031 38.671875 150.414062 C 38.671875 147.746094 42.671875 147.746094 42.671875 150.414062 "/>
<path style=" stroke:none;fill-rule:nonzero;fill:rgb(0%,0%,100%);fill-opacity:1;" d="M 110.152344 170.621094 C 110.152344 173.289062 106.152344 173.289062 106.152344 170.621094 C 106.152344 167.953125 110.152344 167.953125 110.152344 170.621094 "/>
<path style=" stroke:none;fill-rule:nonzero;fill:rgb(0%,0%,100%);fill-opacity:1;" d="M 24.269531 170.621094 C 24.269531 173.289062 20.269531 173.289062 20.269531 170.621094 C 20.269531 167.953125 24.269531 167.953125 24.269531 170.621094 "/>
<path style="fill:none;stroke-width:2;stroke-linecap:butt;stroke-linejoin:miter;stroke:rgb(100%,80%,0%);stroke-opacity:1;stroke-miterlimit:10;" d="M 65.480469 110.023438 L 65.210938 110 "/>
<path style="fill:none;stroke-width:2;stroke-linecap:butt;stroke-linejoin:miter;stroke:rgb(100%,80%,0%);stroke-opacity:1;stroke-miterlimit:10;" d="M 82.734375 130.25 L 83.613281 130.207031 "/>
<path style="fill:none;stroke-width:2;stroke-linecap:butt;stroke-linejoin:miter;stroke:rgb(100%,80%,0%);stroke-opacity:1;stroke-miterlimit:10;" d="M 48.179688 130.199219 L 46.804688 130.207031 "/>
<path style="fill:none;stroke-width:2;stroke-linecap:butt;stroke-linejoin:miter;stroke:rgb(100%,80%,0%);stroke-opacity:1;stroke-miterlimit:10;" d="M 78.59375 110.265625 L 77.480469 110 "/>
<path style="fill:none;stroke-width:2;stroke-linecap:butt;stroke-linejoin:miter;stroke:rgb(100%,80%,0%);stroke-opacity:1;stroke-miterlimit:10;" d="M 52.308594 109.734375 L 52.941406 110 "/>
<path style="fill:none;stroke-width:2;stroke-linecap:butt;stroke-linejoin:miter;stroke:rgb(100%,80%,0%);stroke-opacity:1;stroke-miterlimit:10;" d="M 65.351562 150.386719 L 65.210938 150.414062 "/>
<path style="fill:none;stroke-width:2;stroke-linecap:butt;stroke-linejoin:miter;stroke:rgb(100%,80%,0%);stroke-opacity:1;stroke-miterlimit:10;" d="M 82.628906 170.578125 L 83.613281 170.621094 "/>
<path style="fill:none;stroke-width:2;stroke-linecap:butt;stroke-linejoin:miter;stroke:rgb(100%,80%,0%);stroke-opacity:1;stroke-miterlimit:10;" d="M 48.15625 170.617188 L 46.804688 170.621094 "/>
<path style="fill:none;stroke-width:2;stroke-linecap:butt;stroke-linejoin:miter;stroke:rgb(100%,80%,0%);stroke-opacity:1;stroke-miterlimit:10;" d="M 78.625 150.179688 L 77.480469 150.414062 "/>
<path style="fill:none;stroke-width:2;stroke-linecap:butt;stroke-linejoin:miter;stroke:rgb(100%,80%,0%);stroke-opacity:1;stroke-miterlimit:10;" d="M 52.050781 150.648438 L 52.941406 150.414062 "/>
<path style="fill:none;stroke-width:2;stroke-linecap:butt;stroke-linejoin:miter;stroke:rgb(100%,80%,0%);stroke-opacity:1;stroke-miterlimit:10;" d="M 64.910156 130.234375 L 59.074219 130.207031 "/>
<path style="fill:none;stroke-width:2;stroke-linecap:butt;stroke-linejoin:miter;stroke:rgb(100%,80%,0%);stroke-opacity:1;stroke-miterlimit:10;" d="M 65.8125 170.605469 L 71.34375 170.621094 "/>
<path style="fill:none;stroke-width:2;stroke-linecap:butt;stroke-linejoin:miter;stroke:rgb(100%,80%,0%);stroke-opacity:1;stroke-miterlimit:10;" d="M 103.140625 110.050781 L 102.015625 110 "/>
<path style="fill:none;stroke-width:2;stroke-linecap:butt;stroke-linejoin:miter;stroke:rgb(100%,80%,0%);stroke-opacity:1;stroke-miterlimit:10;" d="M 27.734375 109.945312 L 28.402344 110 "/>
<path style="fill:none;stroke-width:2;stroke-linecap:butt;stroke-linejoin:miter;stroke:rgb(100%,80%,0%);stroke-opacity:1;stroke-miterlimit:10;" d="M 96.730469 130.304688 L 95.882812 130.207031 "/>
<path style="fill:none;stroke-width:2;stroke-linecap:butt;stroke-linejoin:miter;stroke:rgb(100%,80%,0%);stroke-opacity:1;stroke-miterlimit:10;" d="M 34.441406 130.207031 L 34.539062 130.207031 "/>
<path style="fill:none;stroke-width:2;stroke-linecap:butt;stroke-linejoin:miter;stroke:rgb(100%,80%,0%);stroke-opacity:1;stroke-miterlimit:10;" d="M 10.304688 129.78125 L 10 130.207031 "/>
<path style="fill:none;stroke-width:2;stroke-linecap:butt;stroke-linejoin:miter;stroke:rgb(100%,80%,0%);stroke-opacity:1;stroke-miterlimit:10;" d="M 103.625 150.410156 L 102.015625 150.414062 "/>
<path style="fill:none;stroke-width:2;stroke-linecap:butt;stroke-linejoin:miter;stroke:rgb(100%,80%,0%);stroke-opacity:1;stroke-miterlimit:10;" d="M 27.171875 150.433594 L 28.402344 150.414062 "/>
<path style="fill:none;stroke-width:2;stroke-linecap:butt;stroke-linejoin:miter;stroke:rgb(100%,80%,0%);stroke-opacity:1;stroke-miterlimit:10;" d="M 96.304688 170.578125 L 95.882812 170.621094 "/>
<path style="fill:none;stroke-width:2;stroke-linecap:butt;stroke-linejoin:miter;stroke:rgb(100%,80%,0%);stroke-opacity:1;stroke-miterlimit:10;" d="M 34.0625 170.585938 L 34.539062 170.621094 "/>
<path style="fill:none;stroke-width:2;stroke-linecap:butt;stroke-linejoin:miter;stroke:rgb(100%,80%,0%);stroke-opacity:1;stroke-miterlimit:10;" d="M 10.074219 171.042969 L 10 170.621094 "/>
<path style="fill:none;stroke-width:2;stroke-linecap:butt;stroke-linejoin:miter;stroke:rgb(100%,80%,0%);stroke-opacity:1;stroke-miterlimit:10;" d="M 10.40625 150.398438 L 16.132812 150.414062 "/>
<path style="fill:none;stroke-width:2;stroke-linecap:butt;stroke-linejoin:miter;stroke:rgb(100%,80%,0%);stroke-opacity:1;stroke-miterlimit:10;" d="M 89.738281 110.046875 L 89.746094 110 "/>
<path style="fill:none;stroke-width:2;stroke-linecap:butt;stroke-linejoin:miter;stroke:rgb(100%,80%,0%);stroke-opacity:1;stroke-miterlimit:10;" d="M 41.234375 109.957031 L 40.671875 110 "/>
<path style="fill:none;stroke-width:2;stroke-linecap:butt;stroke-linejoin:miter;stroke:rgb(100%,80%,0%);stroke-opacity:1;stroke-miterlimit:10;" d="M 107.507812 130.5625 L 108.152344 130.207031 "/>
<path style="fill:none;stroke-width:2;stroke-linecap:butt;stroke-linejoin:miter;stroke:rgb(100%,80%,0%);stroke-opacity:1;stroke-miterlimit:10;" d="M 23.492188 130.339844 L 22.269531 130.207031 "/>
<path style="fill:none;stroke-width:2;stroke-linecap:butt;stroke-linejoin:miter;stroke:rgb(100%,80%,0%);stroke-opacity:1;stroke-miterlimit:10;" d="M 89.222656 150.394531 L 89.746094 150.414062 "/>
<path style="fill:none;stroke-width:2;stroke-linecap:butt;stroke-linejoin:miter;stroke:rgb(100%,80%,0%);stroke-opacity:1;stroke-miterlimit:10;" d="M 41.371094 150.421875 L 40.671875 150.414062 "/>
<path style="fill:none;stroke-width:2;stroke-linecap:butt;stroke-linejoin:miter;stroke:rgb(100%,80%,0%);stroke-opacity:1;stroke-miterlimit:10;" d="M 107.320312 170.308594 L 108.152344 170.621094 "/>
<path style="fill:none;stroke-width:2;stroke-linecap:butt;stroke-linejoin:miter;stroke:rgb(100%,80%,0%);stroke-opacity:1;stroke-miterlimit:10;" d="M 23.300781 170.453125 L 22.269531 170.621094 "/>
<path style=" stroke:none;fill-rule:nonzero;fill:rgb(0%,0%,100%);fill-opacity:1;" d="M 162 110 C 162 112.667969 158 112.667969 158 110 C 158 107.332031 162 107.332031 162 110 "/>
<path style=" stroke:none;fill-rule:nonzero;fill:rgb(0%,0%,100%);fill-opacity:1;" d="M 168.519531 130.207031 C 168.519531 132.875 164.519531 132.875 164.519531 130.207031 C 164.519531 127.539062 168.519531 127.539062 168.519531 130.207031 "/>
<path style=" stroke:none;fill-rule:nonzero;fill:rgb(0%,0%,100%);fill-opacity:1;" d="M 168.519531 130.207031 C 168.519531 132.875 164.519531 132.875 164.519531 130.207031 C 164.519531 127.539062 168.519531 127.539062 168.519531 130.207031 "/>
<path style=" stroke:none;fill-rule:nonzero;fill:rgb(0%,0%,100%);fill-opacity:1;" d="M 188.070312 110 C 188.070312 112.667969 184.070312 112.667969 184.070312 110 C 184.070312 107.332031 188.070312 107.332031 188.070312 110 "/>
<path style=" stroke:none;fill-rule:nonzero;fill:rgb(0%,0%,100%);fill-opacity:1;" d="M 188.070312 110 C 188.070312 112.667969 184.070312 112.667969 184.070312 110 C 184.070312 107.332031 188.070312 107.332031 188.070312 110 "/>
<path style=" stroke:none;fill-rule:nonzero;fill:rgb(0%,0%,100%);fill-opacity:1;" d="M 162 150.414062 C 162 153.082031 158 153.082031 158 150.414062 C 158 147.746094 162 147.746094 162 150.414062 "/>
<path style=" stroke:none;fill-rule:nonzero;fill:rgb(0%,0%,100%);fill-opacity:1;" d="M 168.519531 170.621094 C 168.519531 173.289062 164.519531 173.289062 164.519531 170.621094 C 164.519531 167.953125 168.519531 167.953125 168.519531 170.621094 "/>
<path style=" stroke:none;fill-rule:nonzero;fill:rgb(0%,0%,100%);fill-opacity:1;" d="M 168.519531 170.621094 C 168.519531 173.289062 164.519531 173.289062 164.519531 170.621094 C 164.519531 167.953125 168.519531 167.953125 168.519531 170.621094 "/>
<path style=" stroke:none;fill-rule:nonzero;fill:rgb(0%,0%,100%);fill-opacity:1;" d="M 188.070312 150.414062 C 188.070312 153.082031 184.070312 153.082031 184.070312 150.414062 C 184.070312 147.746094 188.070312 147.746094 188.070312 150.414062 "/>
<path style=" stroke:none;fill-rule:nonzero;fill:rgb(0%,0%,100%);fill-opacity:1;" d="M 188.070312 150.414062 C 188.070312 153.082031 184.070312 153.082031 184.070312 150.414062 C 184.070312 147.746094 188.070312 147.746094 188.070312 150.414062 "/>
<path style=" stroke:none;fill-rule:nonzero;fill:rgb(0%,0%,100%);fill-opacity:1;" d="M 207.625 130.207031 C 207.625 132.875 203.625 132.875 203.625 130.207031 C 203.625 127.539062 207.625 127.539062 207.625 130.207031 "/>
<path style=" stroke:none;fill-rule:nonzero;fill:rgb(0%,0%,100%);fill-opacity:1;" d="M 207.625 170.621094 C 207.625 173.289062 203.625 173.289062 203.625 170.621094 C 203.625 167.953125 207.625 167.953125 207.625 170.621094 "/>
<path style=" stroke:none;fill-rule:nonzero;fill:rgb(0%,0%,100%);fill-opacity:1;" d="M 175.035156 110 C 175.035156 112.667969 171.035156 112.667969 171.035156 110 C 171.035156 107.332031 175.035156 107.332031 175.035156 110 "/>
<path style=" stroke:none;fill-rule:nonzero;fill:rgb(0%,0%,100%);fill-opacity:1;" d="M 175.035156 110 C 175.035156 112.667969 171.035156 112.667969 171.035156 110 C 171.035156 107.332031 175.035156 107.332031 175.035156 110 "/>
<path style=" stroke:none;fill-rule:nonzero;fill:rgb(0%,0%,100%);fill-opacity:1;" d="M 194.589844 130.207031 C 194.589844 132.875 190.589844 132.875 190.589844 130.207031 C 190.589844 127.539062 194.589844 127.539062 194.589844 130.207031 "/>
<path style=" stroke:none;fill-rule:nonzero;fill:rgb(0%,0%,100%);fill-opacity:1;" d="M 194.589844 130.207031 C 194.589844 132.875 190.589844 132.875 190.589844 130.207031 C 190.589844 127.539062 194.589844 127.539062 194.589844 130.207031 "/>
<path style=" stroke:none;fill-rule:nonzero;fill:rgb(0%,0%,100%);fill-opacity:1;" d="M 181.554688 130.207031 C 181.554688 132.875 177.554688 132.875 177.554688 130.207031 C 177.554688 127.539062 181.554688 127.539062 181.554688 130.207031 "/>
<path style=" stroke:none;fill-rule:nonzero;fill:rgb(0%,0%,100%);fill-opacity:1;" d="M 175.035156 150.414062 C 175.035156 153.082031 171.035156 153.082031 171.035156 150.414062 C 171.035156 147.746094 175.035156 147.746094 175.035156 150.414062 "/>
<path style=" stroke:none;fill-rule:nonzero;fill:rgb(0%,0%,100%);fill-opacity:1;" d="M 175.035156 150.414062 C 175.035156 153.082031 171.035156 153.082031 171.035156 150.414062 C 171.035156 147.746094 175.035156 147.746094 175.035156 150.414062 "/>
<path style=" stroke:none;fill-rule:nonzero;fill:rgb(0%,0%,100%);fill-opacity:1;" d="M 194.589844 170.621094 C 194.589844 173.289062 190.589844 173.289062 190.589844 170.621094 C 190.589844 167.953125 194.589844 167.953125 194.589844 170.621094 "/>
<path style=" stroke:none;fill-rule:nonzero;fill:rgb(0%,0%,100%);fill-opacity:1;" d="M 194.589844 170.621094 C 194.589844 173.289062 190.589844 173.289062 190.589844 170.621094 C 190.589844 167.953125 194.589844 167.953125 194.589844 170.621094 "/>
<path style=" stroke:none;fill-rule:nonzero;fill:rgb(0%,0%,100%);fill-opacity:1;" d="M 181.554688 170.621094 C 181.554688 173.289062 177.554688 173.289062 177.554688 170.621094 C 177.554688 167.953125 181.554688 167.953125 181.554688 170.621094 "/>
<path style=" stroke:none;fill-rule:nonzero;fill:rgb(0%,0%,100%);fill-opacity:1;" d="M 201.105469 150.414062 C 201.105469 153.082031 197.105469 153.082031 197.105469 150.414062 C 197.105469 147.746094 201.105469 147.746094 201.105469 150.414062 "/>
<path style=" stroke:none;fill-rule:nonzero;fill:rgb(0%,0%,100%);fill-opacity:1;" d="M 214.140625 110 C 214.140625 112.667969 210.140625 112.667969 210.140625 110 C 210.140625 107.332031 214.140625 107.332031 214.140625 110 "/>
<path style=" stroke:none;fill-rule:nonzero;fill:rgb(0%,0%,100%);fill-opacity:1;" d="M 214.140625 110 C 214.140625 112.667969 210.140625 112.667969 210.140625 110 C 210.140625 107.332031 214.140625 107.332031 214.140625 110 "/>
<path style=" stroke:none;fill-rule:nonzero;fill:rgb(0%,0%,100%);fill-opacity:1;" d="M 220.660156 130.207031 C 220.660156 132.875 216.660156 132.875 216.660156 130.207031 C 216.660156 127.539062 220.660156 127.539062 220.660156 130.207031 "/>
<path style=" stroke:none;fill-rule:nonzero;fill:rgb(0%,0%,100%);fill-opacity:1;" d="M 220.660156 130.207031 C 220.660156 132.875 216.660156 132.875 216.660156 130.207031 C 216.660156 127.539062 220.660156 127.539062 220.660156 130.207031 "/>
<path style=" stroke:none;fill-rule:nonzero;fill:rgb(0%,0%,100%);fill-opacity:1;" d="M 214.140625 150.414062 C 214.140625 153.082031 210.140625 153.082031 210.140625 150.414062 C 210.140625 147.746094 214.140625 147.746094 214.140625 150.414062 "/>
<path style=" stroke:none;fill-rule:nonzero;fill:rgb(0%,0%,100%);fill-opacity:1;" d="M 214.140625 150.414062 C 214.140625 153.082031 210.140625 153.082031 210.140625 150.414062 C 210.140625 147.746094 214.140625 147.746094 214.140625 150.414062 "/>
<path style=" stroke:none;fill-rule:nonzero;fill:rgb(0%,0%,100%);fill-opacity:1;" d="M 220.660156 170.621094 C 220.660156 173.289062 216.660156 173.289062 216.660156 170.621094 C 216.660156 167.953125 220.660156 167.953125 220.660156 170.621094 "/>
<path style=" stroke:none;fill-rule:nonzero;fill:rgb(0%,0%,100%);fill-opacity:1;" d="M 220.660156 170.621094 C 220.660156 173.289062 216.660156 173.289062 216.660156 170.621094 C 216.660156 167.953125 220.660156 167.953125 220.660156 170.621094 "/>
<path style="fill:none;stroke-width:2;stroke-linecap:butt;stroke-linejoin:miter;stroke:rgb(100%,80%,0%);stroke-opacity:1;stroke-miterlimit:10;" d="M 160.453125 110.023438 L 160 110 "/>
<path style="fill:none;stroke-width:2;stroke-linecap:butt;stroke-linejoin:miter;stroke:rgb(100%,80%,0%);stroke-opacity:1;stroke-miterlimit:10;" d="M 166.917969 130.25 L 166.519531 130.207031 "/>
<path style="fill:none;stroke-width:2;stroke-linecap:butt;stroke-linejoin:miter;stroke:rgb(100%,80%,0%);stroke-opacity:1;stroke-miterlimit:10;" d="M 167.273438 130.199219 L 166.519531 130.207031 "/>
<path style="fill:none;stroke-width:2;stroke-linecap:butt;stroke-linejoin:miter;stroke:rgb(100%,80%,0%);stroke-opacity:1;stroke-miterlimit:10;" d="M 186.464844 110.265625 L 186.070312 110 "/>
<path style="fill:none;stroke-width:2;stroke-linecap:butt;stroke-linejoin:miter;stroke:rgb(100%,80%,0%);stroke-opacity:1;stroke-miterlimit:10;" d="M 186.523438 109.734375 L 186.070312 110 "/>
<path style="fill:none;stroke-width:2;stroke-linecap:butt;stroke-linejoin:miter;stroke:rgb(100%,80%,0%);stroke-opacity:1;stroke-miterlimit:10;" d="M 160.839844 150.386719 L 160 150.414062 "/>
<path style="fill:none;stroke-width:2;stroke-linecap:butt;stroke-linejoin:miter;stroke:rgb(100%,80%,0%);stroke-opacity:1;stroke-miterlimit:10;" d="M 167.144531 170.578125 L 166.519531 170.621094 "/>
<path style="fill:none;stroke-width:2;stroke-linecap:butt;stroke-linejoin:miter;stroke:rgb(100%,80%,0%);stroke-opacity:1;stroke-miterlimit:10;" d="M 166.988281 170.617188 L 166.519531 170.621094 "/>
<path style="fill:none;stroke-width:2;stroke-linecap:butt;stroke-linejoin:miter;stroke:rgb(100%,80%,0%);stroke-opacity:1;stroke-miterlimit:10;" d="M 186.363281 150.179688 L 186.070312 150.414062 "/>
<path style="fill:none;stroke-width:2;stroke-linecap:butt;stroke-linejoin:miter;stroke:rgb(100%,80%,0%);stroke-opacity:1;stroke-miterlimit:10;" d="M 186.476562 150.648438 L 186.070312 150.414062 "/>
<path style="fill:none;stroke-width:2;stroke-linecap:butt;stroke-linejoin:miter;stroke:rgb(100%,80%,0%);stroke-opacity:1;stroke-miterlimit:10;" d="M 203.765625 130.234375 L 205.625 130.207031 "/>
<path style="fill:none;stroke-width:2;stroke-linecap:butt;stroke-linejoin:miter;stroke:rgb(100%,80%,0%);stroke-opacity:1;stroke-miterlimit:10;" d="M 203.789062 170.605469 L 205.625 170.621094 "/>
<path style="fill:none;stroke-width:2;stroke-linecap:butt;stroke-linejoin:miter;stroke:rgb(100%,80%,0%);stroke-opacity:1;stroke-miterlimit:10;" d="M 173 110.050781 L 173.035156 110 "/>
<path style="fill:none;stroke-width:2;stroke-linecap:butt;stroke-linejoin:miter;stroke:rgb(100%,80%,0%);stroke-opacity:1;stroke-miterlimit:10;" d="M 173.203125 109.945312 L 173.035156 110 "/>
<path style="fill:none;stroke-width:2;stroke-linecap:butt;stroke-linejoin:miter;stroke:rgb(100%,80%,0%);stroke-opacity:1;stroke-miterlimit:10;" d="M 192.980469 130.304688 L 192.589844 130.207031 "/>
<path style="fill:none;stroke-width:2;stroke-linecap:butt;stroke-linejoin:miter;stroke:rgb(100%,80%,0%);stroke-opacity:1;stroke-miterlimit:10;" d="M 193.03125 130.207031 L 192.589844 130.207031 "/>
<path style="fill:none;stroke-width:2;stroke-linecap:butt;stroke-linejoin:miter;stroke:rgb(100%,80%,0%);stroke-opacity:1;stroke-miterlimit:10;" d="M 179.65625 129.78125 L 179.554688 130.207031 "/>
<path style="fill:none;stroke-width:2;stroke-linecap:butt;stroke-linejoin:miter;stroke:rgb(100%,80%,0%);stroke-opacity:1;stroke-miterlimit:10;" d="M 173.375 150.410156 L 173.035156 150.414062 "/>
<path style="fill:none;stroke-width:2;stroke-linecap:butt;stroke-linejoin:miter;stroke:rgb(100%,80%,0%);stroke-opacity:1;stroke-miterlimit:10;" d="M 173.378906 150.433594 L 173.035156 150.414062 "/>
<path style="fill:none;stroke-width:2;stroke-linecap:butt;stroke-linejoin:miter;stroke:rgb(100%,80%,0%);stroke-opacity:1;stroke-miterlimit:10;" d="M 192.921875 170.578125 L 192.589844 170.621094 "/>
<path style="fill:none;stroke-width:2;stroke-linecap:butt;stroke-linejoin:miter;stroke:rgb(100%,80%,0%);stroke-opacity:1;stroke-miterlimit:10;" d="M 193.085938 170.585938 L 192.589844 170.621094 "/>
<path style="fill:none;stroke-width:2;stroke-linecap:butt;stroke-linejoin:miter;stroke:rgb(100%,80%,0%);stroke-opacity:1;stroke-miterlimit:10;" d="M 179.675781 171.042969 L 179.554688 170.621094 "/>
<path style="fill:none;stroke-width:2;stroke-linecap:butt;stroke-linejoin:miter;stroke:rgb(100%,80%,0%);stroke-opacity:1;stroke-miterlimit:10;" d="M 200.308594 150.398438 L 199.105469 150.414062 "/>
<path style="fill:none;stroke-width:2;stroke-linecap:butt;stroke-linejoin:miter;stroke:rgb(100%,80%,0%);stroke-opacity:1;stroke-miterlimit:10;" d="M 211.402344 110.046875 L 212.140625 110 "/>
<path style="fill:none;stroke-width:2;stroke-linecap:butt;stroke-linejoin:miter;stroke:rgb(100%,80%,0%);stroke-opacity:1;stroke-miterlimit:10;" d="M 211.496094 109.957031 L 212.140625 110 "/>
<path style="fill:none;stroke-width:2;stroke-linecap:butt;stroke-linejoin:miter;stroke:rgb(100%,80%,0%);stroke-opacity:1;stroke-miterlimit:10;" d="M 217.984375 130.5625 L 218.660156 130.207031 "/>
<path style="fill:none;stroke-width:2;stroke-linecap:butt;stroke-linejoin:miter;stroke:rgb(100%,80%,0%);stroke-opacity:1;stroke-miterlimit:10;" d="M 218.046875 130.339844 L 218.660156 130.207031 "/>
<path style="fill:none;stroke-width:2;stroke-linecap:butt;stroke-linejoin:miter;stroke:rgb(100%,80%,0%);stroke-opacity:1;stroke-miterlimit:10;" d="M 211.421875 150.394531 L 212.140625 150.414062 "/>
<path style="fill:none;stroke-width:2;stroke-linecap:butt;stroke-linejoin:miter;stroke:rgb(100%,80%,0%);stroke-opacity:1;stroke-miterlimit:10;" d="M 211.546875 150.421875 L 212.140625 150.414062 "/>
<path style="fill:none;stroke-width:2;stroke-linecap:butt;stroke-linejoin:miter;stroke:rgb(100%,80%,0%);stroke-opacity:1;stroke-miterlimit:10;" d="M 217.894531 170.308594 L 218.660156 170.621094 "/>
<path style="fill:none;stroke-width:2;stroke-linecap:butt;stroke-linejoin:miter;stroke:rgb(100%,80%,0%);stroke-opacity:1;stroke-miterlimit:10;" d="M 218.117188 170.453125 L 218.660156 170.621094 "/>
</g>
</svg>
