<?xml version="1.0" encoding="UTF-8"?>
<svg xmlns="http://www.w3.org/2000/svg" xmlns:xlink="http://www.w3.org/1999/xlink" width="700pt" height="500pt" viewBox="0 0 700 500" version="1.1">
<g id="surface1">
<path style=" stroke:none;fill-rule:nonzero;fill:rgb(50%,100%,50%);fill-opacity:1;" d="M 273.320312 333.332031 L 546.640625 333.332031 L 546.640625 609.15625 L 273.320312 609.15625 Z M 273.320312 333.332031 "/>
<path style="fill:none;stroke-width:2;stroke-linecap:butt;stroke-linejoin:miter;stroke:rgb(0%,0%,0%);stroke-opacity:1;stroke-miterlimit:10;" d="M 350 333.332031 L 350 633.332031 "/>
<path style="fill:none;stroke-width:2;stroke-linecap:butt;stroke-linejoin:miter;stroke:rgb(0%,0%,0%);stroke-opacity:1;stroke-miterlimit:10;" d="M 350 333.332031 L 650 333.332031 "/>
<path style=" stroke:none;fill-rule:nonzero;fill:rgb(100%,0%,0%);fill-opacity:1;" d="M 429.679688 346.113281 C 429.679688 350.113281 423.679688 350.113281 423.679688 346.113281 C 423.679688 342.113281 429.679688 342.113281 429.679688 346.113281 "/>
<path style=" stroke:none;fill-rule:nonzero;fill:rgb(100%,0%,0%);fill-opacity:1;" d="M 416.898438 365.285156 C 416.898438 369.285156 410.898438 369.285156 410.898438 365.285156 C 410.898438 361.285156 416.898438 361.285156 416.898438 365.285156 "/>
<path style=" stroke:none;fill-rule:nonzero;fill:rgb(100%,0%,0%);fill-opacity:1;" d="M 448.851562 349.308594 C 448.851562 353.308594 442.851562 353.308594 442.851562 349.308594 C 442.851562 345.308594 448.851562 345.308594 448.851562 349.308594 "/>
<path style=" stroke:none;fill-rule:nonzero;fill:rgb(100%,0%,0%);fill-opacity:1;" d="M 436.070312 368.476562 C 436.070312 372.476562 430.070312 372.476562 430.070312 368.476562 C 430.070312 364.476562 436.070312 364.476562 436.070312 368.476562 "/>
<path style=" stroke:none;fill-rule:nonzero;fill:rgb(100%,0%,0%);fill-opacity:1;" d="M 429.679688 346.113281 C 429.679688 350.113281 423.679688 350.113281 423.679688 346.113281 C 423.679688 342.113281 429.679688 342.113281 429.679688 346.113281 "/>
<path style=" stroke:none;fill-rule:nonzero;fill:rgb(100%,0%,0%);fill-opacity:1;" d="M 416.898438 365.285156 C 416.898438 369.285156 410.898438 369.285156 410.898438 365.285156 C 410.898438 361.285156 416.898438 361.285156 416.898438 365.285156 "/>
<path style=" stroke:none;fill-rule:nonzero;fill:rgb(100%,0%,0%);fill-opacity:1;" d="M 448.851562 349.308594 C 448.851562 353.308594 442.851562 353.308594 442.851562 349.308594 C 442.851562 345.308594 448.851562 345.308594 448.851562 349.308594 "/>
<path style=" stroke:none;fill-rule:nonzero;fill:rgb(100%,0%,0%);fill-opacity:1;" d="M 436.070312 368.476562 C 436.070312 372.476562 430.070312 372.476562 430.070312 368.476562 C 430.070312 364.476562 436.070312 364.476562 436.070312 368.476562 "/>
<path style=" stroke:none;fill-rule:nonzero;fill:rgb(100%,0%,0%);fill-opacity:1;" d="M 404.121094 384.453125 C 404.121094 388.453125 398.121094 388.453125 398.121094 384.453125 C 398.121094 380.453125 404.121094 380.453125 404.121094 384.453125 "/>
<path style=" stroke:none;fill-rule:nonzero;fill:rgb(100%,0%,0%);fill-opacity:1;" d="M 391.339844 403.625 C 391.339844 407.625 385.339844 407.625 385.339844 403.625 C 385.339844 399.625 391.339844 399.625 391.339844 403.625 "/>
<path style=" stroke:none;fill-rule:nonzero;fill:rgb(100%,0%,0%);fill-opacity:1;" d="M 423.289062 387.648438 C 423.289062 391.648438 417.289062 391.648438 417.289062 387.648438 C 417.289062 383.648438 423.289062 383.648438 423.289062 387.648438 "/>
<path style=" stroke:none;fill-rule:nonzero;fill:rgb(100%,0%,0%);fill-opacity:1;" d="M 410.511719 406.820312 C 410.511719 410.820312 404.511719 410.820312 404.511719 406.820312 C 404.511719 402.820312 410.511719 402.820312 410.511719 406.820312 "/>
<path style=" stroke:none;fill-rule:nonzero;fill:rgb(100%,0%,0%);fill-opacity:1;" d="M 404.121094 384.453125 C 404.121094 388.453125 398.121094 388.453125 398.121094 384.453125 C 398.121094 380.453125 404.121094 380.453125 404.121094 384.453125 "/>
<path style=" stroke:none;fill-rule:nonzero;fill:rgb(100%,0%,0%);fill-opacity:1;" d="M 391.339844 403.625 C 391.339844 407.625 385.339844 407.625 385.339844 403.625 C 385.339844 399.625 391.339844 399.625 391.339844 403.625 "/>
<path style=" stroke:none;fill-rule:nonzero;fill:rgb(100%,0%,0%);fill-opacity:1;" d="M 423.289062 387.648438 C 423.289062 391.648438 417.289062 391.648438 417.289062 387.648438 C 417.289062 383.648438 423.289062 383.648438 423.289062 387.648438 "/>
<path style=" stroke:none;fill-rule:nonzero;fill:rgb(100%,0%,0%);fill-opacity:1;" d="M 410.511719 406.820312 C 410.511719 410.820312 404.511719 410.820312 404.511719 406.820312 C 404.511719 402.820312 410.511719 402.820312 410.511719 406.820312 "/>
<path style=" stroke:none;fill-rule:nonzero;fill:rgb(100%,0%,0%);fill-opacity:1;" d="M 378.558594 422.792969 C 378.558594 426.792969 372.558594 426.792969 372.558594 422.792969 C 372.558594 418.792969 378.558594 418.792969 378.558594 422.792969 "/>
<path style=" stroke:none;fill-rule:nonzero;fill:rgb(100%,0%,0%);fill-opacity:1;" d="M 365.78125 441.964844 C 365.78125 445.964844 359.78125 445.964844 359.78125 441.964844 C 359.78125 437.964844 365.78125 437.964844 365.78125 441.964844 "/>
<path style=" stroke:none;fill-rule:nonzero;fill:rgb(100%,0%,0%);fill-opacity:1;" d="M 397.730469 425.988281 C 397.730469 429.988281 391.730469 429.988281 391.730469 425.988281 C 391.730469 421.988281 397.730469 421.988281 397.730469 425.988281 "/>
<path style=" stroke:none;fill-rule:nonzero;fill:rgb(100%,0%,0%);fill-opacity:1;" d="M 384.949219 445.160156 C 384.949219 449.160156 378.949219 449.160156 378.949219 445.160156 C 378.949219 441.160156 384.949219 441.160156 384.949219 445.160156 "/>
<path style=" stroke:none;fill-rule:nonzero;fill:rgb(100%,0%,0%);fill-opacity:1;" d="M 378.558594 422.792969 C 378.558594 426.792969 372.558594 426.792969 372.558594 422.792969 C 372.558594 418.792969 378.558594 418.792969 378.558594 422.792969 "/>
<path style=" stroke:none;fill-rule:nonzero;fill:rgb(100%,0%,0%);fill-opacity:1;" d="M 365.78125 441.964844 C 365.78125 445.964844 359.78125 445.964844 359.78125 441.964844 C 359.78125 437.964844 365.78125 437.964844 365.78125 441.964844 "/>
<path style=" stroke:none;fill-rule:nonzero;fill:rgb(100%,0%,0%);fill-opacity:1;" d="M 397.730469 425.988281 C 397.730469 429.988281 391.730469 429.988281 391.730469 425.988281 C 391.730469 421.988281 397.730469 421.988281 397.730469 425.988281 "/>
<path style=" stroke:none;fill-rule:nonzero;fill:rgb(100%,0%,0%);fill-opacity:1;" d="M 384.949219 445.160156 C 384.949219 449.160156 378.949219 449.160156 378.949219 445.160156 C 378.949219 441.160156 384.949219 441.160156 384.949219 445.160156 "/>
<path style=" stroke:none;fill-rule:nonzero;fill:rgb(100%,0%,0%);fill-opacity:1;" d="M 468.019531 352.503906 C 468.019531 356.503906 462.019531 356.503906 462.019531 352.503906 C 462.019531 348.503906 468.019531 348.503906 468.019531 352.503906 "/>
<path style=" stroke:none;fill-rule:nonzero;fill:rgb(100%,0%,0%);fill-opacity:1;" d="M 455.238281 371.671875 C 455.238281 375.671875 449.238281 375.671875 449.238281 371.671875 C 449.238281 367.671875 455.238281 367.671875 455.238281 371.671875 "/>
<path style=" stroke:none;fill-rule:nonzero;fill:rgb(100%,0%,0%);fill-opacity:1;" d="M 487.191406 355.699219 C 487.191406 359.699219 481.191406 359.699219 481.191406 355.699219 C 481.191406 351.699219 487.191406 351.699219 487.191406 355.699219 "/>
<path style=" stroke:none;fill-rule:nonzero;fill:rgb(100%,0%,0%);fill-opacity:1;" d="M 474.410156 374.867188 C 474.410156 378.867188 468.410156 378.867188 468.410156 374.867188 C 468.410156 370.867188 474.410156 370.867188 474.410156 374.867188 "/>
<path style=" stroke:none;fill-rule:nonzero;fill:rgb(100%,0%,0%);fill-opacity:1;" d="M 468.019531 352.503906 C 468.019531 356.503906 462.019531 356.503906 462.019531 352.503906 C 462.019531 348.503906 468.019531 348.503906 468.019531 352.503906 "/>
<path style=" stroke:none;fill-rule:nonzero;fill:rgb(100%,0%,0%);fill-opacity:1;" d="M 455.238281 371.671875 C 455.238281 375.671875 449.238281 375.671875 449.238281 371.671875 C 449.238281 367.671875 455.238281 367.671875 455.238281 371.671875 "/>
<path style=" stroke:none;fill-rule:nonzero;fill:rgb(100%,0%,0%);fill-opacity:1;" d="M 487.191406 355.699219 C 487.191406 359.699219 481.191406 359.699219 481.191406 355.699219 C 481.191406 351.699219 487.191406 351.699219 487.191406 355.699219 "/>
<path style=" stroke:none;fill-rule:nonzero;fill:rgb(100%,0%,0%);fill-opacity:1;" d="M 474.410156 374.867188 C 474.410156 378.867188 468.410156 378.867188 468.410156 374.867188 C 468.410156 370.867188 474.410156 370.867188 474.410156 374.867188 "/>
<path style=" stroke:none;fill-rule:nonzero;fill:rgb(100%,0%,0%);fill-opacity:1;" d="M 442.460938 390.84375 C 442.460938 394.84375 436.460938 394.84375 436.460938 390.84375 C 436.460938 386.84375 442.460938 386.84375 442.460938 390.84375 "/>
<path style=" stroke:none;fill-rule:nonzero;fill:rgb(100%,0%,0%);fill-opacity:1;" d="M 429.679688 410.011719 C 429.679688 414.011719 423.679688 414.011719 423.679688 410.011719 C 423.679688 406.011719 429.679688 406.011719 429.679688 410.011719 "/>
<path style=" stroke:none;fill-rule:nonzero;fill:rgb(100%,0%,0%);fill-opacity:1;" d="M 461.628906 394.039062 C 461.628906 398.039062 455.628906 398.039062 455.628906 394.039062 C 455.628906 390.039062 461.628906 390.039062 461.628906 394.039062 "/>
<path style=" stroke:none;fill-rule:nonzero;fill:rgb(100%,0%,0%);fill-opacity:1;" d="M 448.851562 413.207031 C 448.851562 417.207031 442.851562 417.207031 442.851562 413.207031 C 442.851562 409.207031 448.851562 409.207031 448.851562 413.207031 "/>
<path style=" stroke:none;fill-rule:nonzero;fill:rgb(100%,0%,0%);fill-opacity:1;" d="M 442.460938 390.84375 C 442.460938 394.84375 436.460938 394.84375 436.460938 390.84375 C 436.460938 386.84375 442.460938 386.84375 442.460938 390.84375 "/>
<path style=" stroke:none;fill-rule:nonzero;fill:rgb(100%,0%,0%);fill-opacity:1;" d="M 429.679688 410.011719 C 429.679688 414.011719 423.679688 414.011719 423.679688 410.011719 C 423.679688 406.011719 429.679688 406.011719 429.679688 410.011719 "/>
<path style=" stroke:none;fill-rule:nonzero;fill:rgb(100%,0%,0%);fill-opacity:1;" d="M 461.628906 394.039062 C 461.628906 398.039062 455.628906 398.039062 455.628906 394.039062 C 455.628906 390.039062 461.628906 390.039062 461.628906 394.039062 "/>
<path style=" stroke:none;fill-rule:nonzero;fill:rgb(100%,0%,0%);fill-opacity:1;" d="M 448.851562 413.207031 C 448.851562 417.207031 442.851562 417.207031 442.851562 413.207031 C 442.851562 409.207031 448.851562 409.207031 448.851562 413.207031 "/>
<path style=" stroke:none;fill-rule:nonzero;fill:rgb(100%,0%,0%);fill-opacity:1;" d="M 416.898438 429.183594 C 416.898438 433.183594 410.898438 433.183594 410.898438 429.183594 C 410.898438 425.183594 416.898438 425.183594 416.898438 429.183594 "/>
<path style=" stroke:none;fill-rule:nonzero;fill:rgb(100%,0%,0%);fill-opacity:1;" d="M 404.121094 448.355469 C 404.121094 452.355469 398.121094 452.355469 398.121094 448.355469 C 398.121094 444.355469 404.121094 444.355469 404.121094 448.355469 "/>
<path style=" stroke:none;fill-rule:nonzero;fill:rgb(100%,0%,0%);fill-opacity:1;" d="M 436.070312 432.378906 C 436.070312 436.378906 430.070312 436.378906 430.070312 432.378906 C 430.070312 428.378906 436.070312 428.378906 436.070312 432.378906 "/>
<path style=" stroke:none;fill-rule:nonzero;fill:rgb(100%,0%,0%);fill-opacity:1;" d="M 423.289062 451.546875 C 423.289062 455.546875 417.289062 455.546875 417.289062 451.546875 C 417.289062 447.546875 423.289062 447.546875 423.289062 451.546875 "/>
<path style=" stroke:none;fill-rule:nonzero;fill:rgb(100%,0%,0%);fill-opacity:1;" d="M 416.898438 429.183594 C 416.898438 433.183594 410.898438 433.183594 410.898438 429.183594 C 410.898438 425.183594 416.898438 425.183594 416.898438 429.183594 "/>
<path style=" stroke:none;fill-rule:nonzero;fill:rgb(100%,0%,0%);fill-opacity:1;" d="M 404.121094 448.355469 C 404.121094 452.355469 398.121094 452.355469 398.121094 448.355469 C 398.121094 444.355469 404.121094 444.355469 404.121094 448.355469 "/>
<path style=" stroke:none;fill-rule:nonzero;fill:rgb(100%,0%,0%);fill-opacity:1;" d="M 436.070312 432.378906 C 436.070312 436.378906 430.070312 436.378906 430.070312 432.378906 C 430.070312 428.378906 436.070312 428.378906 436.070312 432.378906 "/>
<path style=" stroke:none;fill-rule:nonzero;fill:rgb(100%,0%,0%);fill-opacity:1;" d="M 423.289062 451.546875 C 423.289062 455.546875 417.289062 455.546875 417.289062 451.546875 C 417.289062 447.546875 423.289062 447.546875 423.289062 451.546875 "/>
<path style=" stroke:none;fill-rule:nonzero;fill:rgb(100%,0%,0%);fill-opacity:1;" d="M 506.359375 358.894531 C 506.359375 362.894531 500.359375 362.894531 500.359375 358.894531 C 500.359375 354.894531 506.359375 354.894531 506.359375 358.894531 "/>
<path style=" stroke:none;fill-rule:nonzero;fill:rgb(100%,0%,0%);fill-opacity:1;" d="M 493.582031 378.0625 C 493.582031 382.0625 487.582031 382.0625 487.582031 378.0625 C 487.582031 374.0625 493.582031 374.0625 493.582031 378.0625 "/>
<path style=" stroke:none;fill-rule:nonzero;fill:rgb(100%,0%,0%);fill-opacity:1;" d="M 525.53125 362.089844 C 525.53125 366.089844 519.53125 366.089844 519.53125 362.089844 C 519.53125 358.089844 525.53125 358.089844 525.53125 362.089844 "/>
<path style=" stroke:none;fill-rule:nonzero;fill:rgb(100%,0%,0%);fill-opacity:1;" d="M 512.75 381.257812 C 512.75 385.257812 506.75 385.257812 506.75 381.257812 C 506.75 377.257812 512.75 377.257812 512.75 381.257812 "/>
<path style=" stroke:none;fill-rule:nonzero;fill:rgb(100%,0%,0%);fill-opacity:1;" d="M 506.359375 358.894531 C 506.359375 362.894531 500.359375 362.894531 500.359375 358.894531 C 500.359375 354.894531 506.359375 354.894531 506.359375 358.894531 "/>
<path style=" stroke:none;fill-rule:nonzero;fill:rgb(100%,0%,0%);fill-opacity:1;" d="M 493.582031 378.0625 C 493.582031 382.0625 487.582031 382.0625 487.582031 378.0625 C 487.582031 374.0625 493.582031 374.0625 493.582031 378.0625 "/>
<path style=" stroke:none;fill-rule:nonzero;fill:rgb(100%,0%,0%);fill-opacity:1;" d="M 525.53125 362.089844 C 525.53125 366.089844 519.53125 366.089844 519.53125 362.089844 C 519.53125 358.089844 525.53125 358.089844 525.53125 362.089844 "/>
<path style=" stroke:none;fill-rule:nonzero;fill:rgb(100%,0%,0%);fill-opacity:1;" d="M 512.75 381.257812 C 512.75 385.257812 506.75 385.257812 506.75 381.257812 C 506.75 377.257812 512.75 377.257812 512.75 381.257812 "/>
<path style=" stroke:none;fill-rule:nonzero;fill:rgb(100%,0%,0%);fill-opacity:1;" d="M 480.800781 397.234375 C 480.800781 401.234375 474.800781 401.234375 474.800781 397.234375 C 474.800781 393.234375 480.800781 393.234375 480.800781 397.234375 "/>
<path style=" stroke:none;fill-rule:nonzero;fill:rgb(100%,0%,0%);fill-opacity:1;" d="M 468.019531 416.402344 C 468.019531 420.402344 462.019531 420.402344 462.019531 416.402344 C 462.019531 412.402344 468.019531 412.402344 468.019531 416.402344 "/>
<path style=" stroke:none;fill-rule:nonzero;fill:rgb(100%,0%,0%);fill-opacity:1;" d="M 499.96875 400.429688 C 499.96875 404.429688 493.96875 404.429688 493.96875 400.429688 C 493.96875 396.429688 499.96875 396.429688 499.96875 400.429688 "/>
<path style=" stroke:none;fill-rule:nonzero;fill:rgb(100%,0%,0%);fill-opacity:1;" d="M 487.191406 419.597656 C 487.191406 423.597656 481.191406 423.597656 481.191406 419.597656 C 481.191406 415.597656 487.191406 415.597656 487.191406 419.597656 "/>
<path style=" stroke:none;fill-rule:nonzero;fill:rgb(100%,0%,0%);fill-opacity:1;" d="M 480.800781 397.234375 C 480.800781 401.234375 474.800781 401.234375 474.800781 397.234375 C 474.800781 393.234375 480.800781 393.234375 480.800781 397.234375 "/>
<path style=" stroke:none;fill-rule:nonzero;fill:rgb(100%,0%,0%);fill-opacity:1;" d="M 468.019531 416.402344 C 468.019531 420.402344 462.019531 420.402344 462.019531 416.402344 C 462.019531 412.402344 468.019531 412.402344 468.019531 416.402344 "/>
<path style=" stroke:none;fill-rule:nonzero;fill:rgb(100%,0%,0%);fill-opacity:1;" d="M 499.96875 400.429688 C 499.96875 404.429688 493.96875 404.429688 493.96875 400.429688 C 493.96875 396.429688 499.96875 396.429688 499.96875 400.429688 "/>
<path style=" stroke:none;fill-rule:nonzero;fill:rgb(100%,0%,0%);fill-opacity:1;" d="M 487.191406 419.597656 C 487.191406 423.597656 481.191406 423.597656 481.191406 419.597656 C 481.191406 415.597656 487.191406 415.597656 487.191406 419.597656 "/>
<path style=" stroke:none;fill-rule:nonzero;fill:rgb(100%,0%,0%);fill-opacity:1;" d="M 455.238281 435.574219 C 455.238281 439.574219 449.238281 439.574219 449.238281 435.574219 C 449.238281 431.574219 455.238281 431.574219 455.238281 435.574219 "/>
<path style=" stroke:none;fill-rule:nonzero;fill:rgb(100%,0%,0%);fill-opacity:1;" d="M 442.460938 454.742188 C 442.460938 458.742188 436.460938 458.742188 436.460938 454.742188 C 436.460938 450.742188 442.460938 450.742188 442.460938 454.742188 "/>
<path style=" stroke:none;fill-rule:nonzero;fill:rgb(100%,0%,0%);fill-opacity:1;" d="M 474.410156 438.769531 C 474.410156 442.769531 468.410156 442.769531 468.410156 438.769531 C 468.410156 434.769531 474.410156 434.769531 474.410156 438.769531 "/>
<path style=" stroke:none;fill-rule:nonzero;fill:rgb(100%,0%,0%);fill-opacity:1;" d="M 461.628906 457.9375 C 461.628906 461.9375 455.628906 461.9375 455.628906 457.9375 C 455.628906 453.9375 461.628906 453.9375 461.628906 457.9375 "/>
<path style=" stroke:none;fill-rule:nonzero;fill:rgb(100%,0%,0%);fill-opacity:1;" d="M 455.238281 435.574219 C 455.238281 439.574219 449.238281 439.574219 449.238281 435.574219 C 449.238281 431.574219 455.238281 431.574219 455.238281 435.574219 "/>
<path style=" stroke:none;fill-rule:nonzero;fill:rgb(100%,0%,0%);fill-opacity:1;" d="M 442.460938 454.742188 C 442.460938 458.742188 436.460938 458.742188 436.460938 454.742188 C 436.460938 450.742188 442.460938 450.742188 442.460938 454.742188 "/>
<path style=" stroke:none;fill-rule:nonzero;fill:rgb(100%,0%,0%);fill-opacity:1;" d="M 474.410156 438.769531 C 474.410156 442.769531 468.410156 442.769531 468.410156 438.769531 C 468.410156 434.769531 474.410156 434.769531 474.410156 438.769531 "/>
<path style=" stroke:none;fill-rule:nonzero;fill:rgb(100%,0%,0%);fill-opacity:1;" d="M 461.628906 457.9375 C 461.628906 461.9375 455.628906 461.9375 455.628906 457.9375 C 455.628906 453.9375 461.628906 453.9375 461.628906 457.9375 "/>
</g>
</svg>
