<?xml version="1.0" encoding="UTF-8"?>
<svg xmlns="http://www.w3.org/2000/svg" xmlns:xlink="http://www.w3.org/1999/xlink" width="700pt" height="500pt" viewBox="0 0 700 500" version="1.1">
<g id="surface1">
<path style=" stroke:none;fill-rule:nonzero;fill:rgb(50%,100%,50%);fill-opacity:1;" d="M 292.488281 333.332031 L 584.976562 333.332031 L 584.976562 603.800781 L 292.488281 603.800781 Z "/>
<path style="fill:none;stroke-width:2;stroke-linecap:butt;stroke-linejoin:miter;stroke:rgb(0%,0%,0%);stroke-opacity:1;stroke-miterlimit:10;" d="M 350 333.332031 L 350 633.332031 "/>
<path style="fill:none;stroke-width:2;stroke-linecap:butt;stroke-linejoin:miter;stroke:rgb(0%,0%,0%);stroke-opacity:1;stroke-miterlimit:10;" d="M 350 333.332031 L 650 333.332031 "/>
<path style=" stroke:none;fill-rule:nonzero;fill:rgb(100%,0%,0%);fill-opacity:1;" d="M 410.511719 333.332031 C 410.511719 337.332031 404.511719 337.332031 404.511719 333.332031 C 404.511719 329.332031 410.511719 329.332031 410.511719 333.332031 "/>
<path style=" stroke:none;fill-rule:nonzero;fill:rgb(100%,0%,0%);fill-opacity:1;" d="M 429.679688 339.722656 C 429.679688 343.722656 423.679688 343.722656 423.679688 339.722656 C 423.679688 335.722656 429.679688 335.722656 429.679688 339.722656 "/>
<path style=" stroke:none;fill-rule:nonzero;fill:rgb(100%,0%,0%);fill-opacity:1;" d="M 391.339844 339.722656 C 391.339844 343.722656 385.339844 343.722656 385.339844 339.722656 C 385.339844 335.722656 391.339844 335.722656 391.339844 339.722656 "/>
<path style=" stroke:none;fill-rule:nonzero;fill:rgb(100%,0%,0%);fill-opacity:1;" d="M 423.289062 358.894531 C 423.289062 362.894531 417.289062 362.894531 417.289062 358.894531 C 417.289062 354.894531 423.289062 354.894531 423.289062 358.894531 "/>
<path style=" stroke:none;fill-rule:nonzero;fill:rgb(100%,0%,0%);fill-opacity:1;" d="M 397.730469 358.894531 C 397.730469 362.894531 391.730469 362.894531 391.730469 358.894531 C 391.730469 354.894531 397.730469 354.894531 397.730469 358.894531 "/>
<path style=" stroke:none;fill-rule:nonzero;fill:rgb(100%,0%,0%);fill-opacity:1;" d="M 410.511719 333.332031 C 410.511719 337.332031 404.511719 337.332031 404.511719 333.332031 C 404.511719 329.332031 410.511719 329.332031 410.511719 333.332031 "/>
<path style=" stroke:none;fill-rule:nonzero;fill:rgb(100%,0%,0%);fill-opacity:1;" d="M 429.679688 339.722656 C 429.679688 343.722656 423.679688 343.722656 423.679688 339.722656 C 423.679688 335.722656 429.679688 335.722656 429.679688 339.722656 "/>
<path style=" stroke:none;fill-rule:nonzero;fill:rgb(100%,0%,0%);fill-opacity:1;" d="M 391.339844 339.722656 C 391.339844 343.722656 385.339844 343.722656 385.339844 339.722656 C 385.339844 335.722656 391.339844 335.722656 391.339844 339.722656 "/>
<path style=" stroke:none;fill-rule:nonzero;fill:rgb(100%,0%,0%);fill-opacity:1;" d="M 423.289062 358.894531 C 423.289062 362.894531 417.289062 362.894531 417.289062 358.894531 C 417.289062 354.894531 423.289062 354.894531 423.289062 358.894531 "/>
<path style=" stroke:none;fill-rule:nonzero;fill:rgb(100%,0%,0%);fill-opacity:1;" d="M 397.730469 358.894531 C 397.730469 362.894531 391.730469 362.894531 391.730469 358.894531 C 391.730469 354.894531 397.730469 354.894531 397.730469 358.894531 "/>
<path style=" stroke:none;fill-rule:nonzero;fill:rgb(100%,0%,0%);fill-opacity:1;" d="M 416.898438 378.0625 C 416.898438 382.0625 410.898438 382.0625 410.898438 378.0625 C 410.898438 374.0625 416.898438 374.0625 416.898438 378.0625 "/>
<path style=" stroke:none;fill-rule:nonzero;fill:rgb(100%,0%,0%);fill-opacity:1;" d="M 404.121094 378.0625 C 404.121094 382.0625 398.121094 382.0625 398.121094 378.0625 C 398.121094 374.0625 404.121094 374.0625 404.121094 378.0625 "/>
<path style=" stroke:none;fill-rule:nonzero;fill:rgb(100%,0%,0%);fill-opacity:1;" d="M 416.898438 378.0625 C 416.898438 382.0625 410.898438 382.0625 410.898438 378.0625 C 410.898438 374.0625 416.898438 374.0625 416.898438 378.0625 "/>
<path style=" stroke:none;fill-rule:nonzero;fill:rgb(100%,0%,0%);fill-opacity:1;" d="M 404.121094 378.0625 C 404.121094 382.0625 398.121094 382.0625 398.121094 378.0625 C 398.121094 374.0625 404.121094 374.0625 404.121094 378.0625 "/>
<path style=" stroke:none;fill-rule:nonzero;fill:rgb(100%,0%,0%);fill-opacity:1;" d="M 448.851562 346.113281 C 448.851562 350.113281 442.851562 350.113281 442.851562 346.113281 C 442.851562 342.113281 448.851562 342.113281 448.851562 346.113281 "/>
<path style=" stroke:none;fill-rule:nonzero;fill:rgb(100%,0%,0%);fill-opacity:1;" d="M 372.171875 346.113281 C 372.171875 350.113281 366.171875 350.113281 366.171875 346.113281 C 366.171875 342.113281 372.171875 342.113281 372.171875 346.113281 "/>
<path style=" stroke:none;fill-rule:nonzero;fill:rgb(100%,0%,0%);fill-opacity:1;" d="M 442.460938 365.285156 C 442.460938 369.285156 436.460938 369.285156 436.460938 365.285156 C 436.460938 361.285156 442.460938 361.285156 442.460938 365.285156 "/>
<path style=" stroke:none;fill-rule:nonzero;fill:rgb(100%,0%,0%);fill-opacity:1;" d="M 378.558594 365.285156 C 378.558594 369.285156 372.558594 369.285156 372.558594 365.285156 C 372.558594 361.285156 378.558594 361.285156 378.558594 365.285156 "/>
<path style=" stroke:none;fill-rule:nonzero;fill:rgb(100%,0%,0%);fill-opacity:1;" d="M 353 352.503906 C 353 356.503906 347 356.503906 347 352.503906 C 347 348.503906 353 348.503906 353 352.503906 "/>
<path style=" stroke:none;fill-rule:nonzero;fill:rgb(100%,0%,0%);fill-opacity:1;" d="M 461.628906 371.671875 C 461.628906 375.671875 455.628906 375.671875 455.628906 371.671875 C 455.628906 367.671875 461.628906 367.671875 461.628906 371.671875 "/>
<path style=" stroke:none;fill-rule:nonzero;fill:rgb(100%,0%,0%);fill-opacity:1;" d="M 359.390625 371.671875 C 359.390625 375.671875 353.390625 375.671875 353.390625 371.671875 C 353.390625 367.671875 359.390625 367.671875 359.390625 371.671875 "/>
<path style=" stroke:none;fill-rule:nonzero;fill:rgb(100%,0%,0%);fill-opacity:1;" d="M 448.851562 346.113281 C 448.851562 350.113281 442.851562 350.113281 442.851562 346.113281 C 442.851562 342.113281 448.851562 342.113281 448.851562 346.113281 "/>
<path style=" stroke:none;fill-rule:nonzero;fill:rgb(100%,0%,0%);fill-opacity:1;" d="M 372.171875 346.113281 C 372.171875 350.113281 366.171875 350.113281 366.171875 346.113281 C 366.171875 342.113281 372.171875 342.113281 372.171875 346.113281 "/>
<path style=" stroke:none;fill-rule:nonzero;fill:rgb(100%,0%,0%);fill-opacity:1;" d="M 442.460938 365.285156 C 442.460938 369.285156 436.460938 369.285156 436.460938 365.285156 C 436.460938 361.285156 442.460938 361.285156 442.460938 365.285156 "/>
<path style=" stroke:none;fill-rule:nonzero;fill:rgb(100%,0%,0%);fill-opacity:1;" d="M 378.558594 365.285156 C 378.558594 369.285156 372.558594 369.285156 372.558594 365.285156 C 372.558594 361.285156 378.558594 361.285156 378.558594 365.285156 "/>
<path style=" stroke:none;fill-rule:nonzero;fill:rgb(100%,0%,0%);fill-opacity:1;" d="M 353 352.503906 C 353 356.503906 347 356.503906 347 352.503906 C 347 348.503906 353 348.503906 353 352.503906 "/>
<path style=" stroke:none;fill-rule:nonzero;fill:rgb(100%,0%,0%);fill-opacity:1;" d="M 461.628906 371.671875 C 461.628906 375.671875 455.628906 375.671875 455.628906 371.671875 C 455.628906 367.671875 461.628906 367.671875 461.628906 371.671875 "/>
<path style=" stroke:none;fill-rule:nonzero;fill:rgb(100%,0%,0%);fill-opacity:1;" d="M 359.390625 371.671875 C 359.390625 375.671875 353.390625 375.671875 353.390625 371.671875 C 353.390625 367.671875 359.390625 367.671875 359.390625 371.671875 "/>
<path style=" stroke:none;fill-rule:nonzero;fill:rgb(100%,0%,0%);fill-opacity:1;" d="M 436.070312 384.453125 C 436.070312 388.453125 430.070312 388.453125 430.070312 384.453125 C 430.070312 380.453125 436.070312 380.453125 436.070312 384.453125 "/>
<path style=" stroke:none;fill-rule:nonzero;fill:rgb(100%,0%,0%);fill-opacity:1;" d="M 384.949219 384.453125 C 384.949219 388.453125 378.949219 388.453125 378.949219 384.453125 C 378.949219 380.453125 384.949219 380.453125 384.949219 384.453125 "/>
<path style=" stroke:none;fill-rule:nonzero;fill:rgb(100%,0%,0%);fill-opacity:1;" d="M 455.238281 390.84375 C 455.238281 394.84375 449.238281 394.84375 449.238281 390.84375 C 449.238281 386.84375 455.238281 386.84375 455.238281 390.84375 "/>
<path style=" stroke:none;fill-rule:nonzero;fill:rgb(100%,0%,0%);fill-opacity:1;" d="M 365.78125 390.84375 C 365.78125 394.84375 359.78125 394.84375 359.78125 390.84375 C 359.78125 386.84375 365.78125 386.84375 365.78125 390.84375 "/>
<path style=" stroke:none;fill-rule:nonzero;fill:rgb(100%,0%,0%);fill-opacity:1;" d="M 436.070312 384.453125 C 436.070312 388.453125 430.070312 388.453125 430.070312 384.453125 C 430.070312 380.453125 436.070312 380.453125 436.070312 384.453125 "/>
<path style=" stroke:none;fill-rule:nonzero;fill:rgb(100%,0%,0%);fill-opacity:1;" d="M 384.949219 384.453125 C 384.949219 388.453125 378.949219 388.453125 378.949219 384.453125 C 378.949219 380.453125 384.949219 380.453125 384.949219 384.453125 "/>
<path style=" stroke:none;fill-rule:nonzero;fill:rgb(100%,0%,0%);fill-opacity:1;" d="M 455.238281 390.84375 C 455.238281 394.84375 449.238281 394.84375 449.238281 390.84375 C 449.238281 386.84375 455.238281 386.84375 455.238281 390.84375 "/>
<path style=" stroke:none;fill-rule:nonzero;fill:rgb(100%,0%,0%);fill-opacity:1;" d="M 365.78125 390.84375 C 365.78125 394.84375 359.78125 394.84375 359.78125 390.84375 C 359.78125 386.84375 365.78125 386.84375 365.78125 390.84375 "/>
</g>
</svg>
