<?xml version="1.0" encoding="UTF-8"?>
<svg xmlns="http://www.w3.org/2000/svg" xmlns:xlink="http://www.w3.org/1999/xlink" width="300pt" height="200pt" viewBox="0 0 300 200" version="1.1">
<g id="surface1">
<rect x="0" y="0" width="300" height="200" style="fill:rgb(80%,80%,80%);fill-opacity:1;stroke:none;"/>
<path style="fill:none;stroke-width:1;stroke-linecap:butt;stroke-linejoin:miter;stroke:rgb(0%,0%,0%);stroke-opacity:1;stroke-miterlimit:10;" d="M 10 10 L 10 1010 "/>
<path style="fill:none;stroke-width:1;stroke-linecap:butt;stroke-linejoin:miter;stroke:rgb(0%,0%,0%);stroke-opacity:1;stroke-miterlimit:10;" d="M 160 10 L 160 1010 "/>
<path style="fill:none;stroke-width:1;stroke-linecap:butt;stroke-linejoin:miter;stroke:rgb(0%,0%,0%);stroke-opacity:1;stroke-miterlimit:10;" d="M 10 110 L 10 1110 "/>
<path style="fill:none;stroke-width:1;stroke-linecap:butt;stroke-linejoin:miter;stroke:rgb(0%,0%,0%);stroke-opacity:1;stroke-miterlimit:10;" d="M 10 10 L 1010 10 "/>
<path style="fill:none;stroke-width:1;stroke-linecap:butt;stroke-linejoin:miter;stroke:rgb(0%,0%,0%);stroke-opacity:1;stroke-miterlimit:10;" d="M 160 10 L 1160 10 "/>
<path style="fill:none;stroke-width:1;stroke-linecap:butt;stroke-linejoin:miter;stroke:rgb(0%,0%,0%);stroke-opacity:1;stroke-miterlimit:10;" d="M 10 110 L 1010 110 "/>
<path style="fill:none;stroke-width:1;stroke-linecap:butt;stroke-linejoin:miter;stroke:rgb(0%,0%,100%);stroke-opacity:1;stroke-miterlimit:10;" d="M 70.511719 72.863281 C 70.511719 76.863281 64.511719 76.863281 64.511719 72.863281 C 64.511719 68.863281 70.511719 68.863281 70.511719 72.863281 "/>
<path style=" stroke:none;fill-rule:nonzero;fill:rgb(0%,0%,100%);fill-opacity:1;" d="M 88.679688 66.472656 C 88.679688 69.140625 84.679688 69.140625 84.679688 66.472656 C 84.679688 63.804688 88.679688 63.804688 88.679688 66.472656 "/>
<path style=" stroke:none;fill-rule:nonzero;fill:rgb(0%,0%,100%);fill-opacity:1;" d="M 50.339844 66.472656 C 50.339844 69.140625 46.339844 69.140625 46.339844 66.472656 C 46.339844 63.804688 50.339844 63.804688 50.339844 66.472656 "/>
<path style="fill:none;stroke-width:1;stroke-linecap:butt;stroke-linejoin:miter;stroke:rgb(0%,0%,100%);stroke-opacity:1;stroke-miterlimit:10;" d="M 83.289062 47.304688 C 83.289062 51.304688 77.289062 51.304688 77.289062 47.304688 C 77.289062 43.304688 83.289062 43.304688 83.289062 47.304688 "/>
<path style="fill:none;stroke-width:1;stroke-linecap:butt;stroke-linejoin:miter;stroke:rgb(0%,0%,100%);stroke-opacity:1;stroke-miterlimit:10;" d="M 57.730469 47.304688 C 57.730469 51.304688 51.730469 51.304688 51.730469 47.304688 C 51.730469 43.304688 57.730469 43.304688 57.730469 47.304688 "/>
<path style=" stroke:none;fill-rule:nonzero;fill:rgb(0%,0%,100%);fill-opacity:1;" d="M 69.511719 72.863281 C 69.511719 75.53125 65.511719 75.53125 65.511719 72.863281 C 65.511719 70.195312 69.511719 70.195312 69.511719 72.863281 "/>
<path style=" stroke:none;fill-rule:nonzero;fill:rgb(0%,0%,100%);fill-opacity:1;" d="M 88.679688 66.472656 C 88.679688 69.140625 84.679688 69.140625 84.679688 66.472656 C 84.679688 63.804688 88.679688 63.804688 88.679688 66.472656 "/>
<path style=" stroke:none;fill-rule:nonzero;fill:rgb(0%,0%,100%);fill-opacity:1;" d="M 50.339844 66.472656 C 50.339844 69.140625 46.339844 69.140625 46.339844 66.472656 C 46.339844 63.804688 50.339844 63.804688 50.339844 66.472656 "/>
<path style=" stroke:none;fill-rule:nonzero;fill:rgb(0%,0%,100%);fill-opacity:1;" d="M 82.289062 47.304688 C 82.289062 49.96875 78.289062 49.96875 78.289062 47.304688 C 78.289062 44.636719 82.289062 44.636719 82.289062 47.304688 "/>
<path style=" stroke:none;fill-rule:nonzero;fill:rgb(0%,0%,100%);fill-opacity:1;" d="M 56.730469 47.304688 C 56.730469 49.96875 52.730469 49.96875 52.730469 47.304688 C 52.730469 44.636719 56.730469 44.636719 56.730469 47.304688 "/>
<path style=" stroke:none;fill-rule:nonzero;fill:rgb(0%,0%,100%);fill-opacity:1;" d="M 75.898438 28.132812 C 75.898438 30.800781 71.898438 30.800781 71.898438 28.132812 C 71.898438 25.464844 75.898438 25.464844 75.898438 28.132812 "/>
<path style=" stroke:none;fill-rule:nonzero;fill:rgb(0%,0%,100%);fill-opacity:1;" d="M 63.121094 28.132812 C 63.121094 30.800781 59.121094 30.800781 59.121094 28.132812 C 59.121094 25.464844 63.121094 25.464844 63.121094 28.132812 "/>
<path style=" stroke:none;fill-rule:nonzero;fill:rgb(0%,0%,100%);fill-opacity:1;" d="M 75.898438 28.132812 C 75.898438 30.800781 71.898438 30.800781 71.898438 28.132812 C 71.898438 25.464844 75.898438 25.464844 75.898438 28.132812 "/>
<path style=" stroke:none;fill-rule:nonzero;fill:rgb(0%,0%,100%);fill-opacity:1;" d="M 63.121094 28.132812 C 63.121094 30.800781 59.121094 30.800781 59.121094 28.132812 C 59.121094 25.464844 63.121094 25.464844 63.121094 28.132812 "/>
<path style="fill:none;stroke-width:1;stroke-linecap:butt;stroke-linejoin:miter;stroke:rgb(0%,0%,100%);stroke-opacity:1;stroke-miterlimit:10;" d="M 108.851562 60.082031 C 108.851562 64.082031 102.851562 64.082031 102.851562 60.082031 C 102.851562 56.082031 108.851562 56.082031 108.851562 60.082031 "/>
<path style="fill:none;stroke-width:1;stroke-linecap:butt;stroke-linejoin:miter;stroke:rgb(0%,0%,100%);stroke-opacity:1;stroke-miterlimit:10;" d="M 32.171875 60.082031 C 32.171875 64.082031 26.171875 64.082031 26.171875 60.082031 C 26.171875 56.082031 32.171875 56.082031 32.171875 60.082031 "/>
<path style=" stroke:none;fill-rule:nonzero;fill:rgb(0%,0%,100%);fill-opacity:1;" d="M 101.460938 40.914062 C 101.460938 43.578125 97.460938 43.578125 97.460938 40.914062 C 97.460938 38.246094 101.460938 38.246094 101.460938 40.914062 "/>
<path style=" stroke:none;fill-rule:nonzero;fill:rgb(0%,0%,100%);fill-opacity:1;" d="M 37.558594 40.914062 C 37.558594 43.578125 33.558594 43.578125 33.558594 40.914062 C 33.558594 38.246094 37.558594 38.246094 37.558594 40.914062 "/>
<path style=" stroke:none;fill-rule:nonzero;fill:rgb(0%,0%,100%);fill-opacity:1;" d="M 12 53.691406 C 12 56.359375 8 56.359375 8 53.691406 C 8 51.027344 12 51.027344 12 53.691406 "/>
<path style="fill:none;stroke-width:1;stroke-linecap:butt;stroke-linejoin:miter;stroke:rgb(0%,0%,100%);stroke-opacity:1;stroke-miterlimit:10;" d="M 121.628906 34.523438 C 121.628906 38.523438 115.628906 38.523438 115.628906 34.523438 C 115.628906 30.523438 121.628906 30.523438 121.628906 34.523438 "/>
<path style="fill:none;stroke-width:1;stroke-linecap:butt;stroke-linejoin:miter;stroke:rgb(0%,0%,100%);stroke-opacity:1;stroke-miterlimit:10;" d="M 19.390625 34.523438 C 19.390625 38.523438 13.390625 38.523438 13.390625 34.523438 C 13.390625 30.523438 19.390625 30.523438 19.390625 34.523438 "/>
<path style=" stroke:none;fill-rule:nonzero;fill:rgb(0%,0%,100%);fill-opacity:1;" d="M 107.851562 60.082031 C 107.851562 62.75 103.851562 62.75 103.851562 60.082031 C 103.851562 57.417969 107.851562 57.417969 107.851562 60.082031 "/>
<path style=" stroke:none;fill-rule:nonzero;fill:rgb(0%,0%,100%);fill-opacity:1;" d="M 31.171875 60.082031 C 31.171875 62.75 27.171875 62.75 27.171875 60.082031 C 27.171875 57.417969 31.171875 57.417969 31.171875 60.082031 "/>
<path style=" stroke:none;fill-rule:nonzero;fill:rgb(0%,0%,100%);fill-opacity:1;" d="M 101.460938 40.914062 C 101.460938 43.578125 97.460938 43.578125 97.460938 40.914062 C 97.460938 38.246094 101.460938 38.246094 101.460938 40.914062 "/>
<path style=" stroke:none;fill-rule:nonzero;fill:rgb(0%,0%,100%);fill-opacity:1;" d="M 37.558594 40.914062 C 37.558594 43.578125 33.558594 43.578125 33.558594 40.914062 C 33.558594 38.246094 37.558594 38.246094 37.558594 40.914062 "/>
<path style=" stroke:none;fill-rule:nonzero;fill:rgb(0%,0%,100%);fill-opacity:1;" d="M 12 53.691406 C 12 56.359375 8 56.359375 8 53.691406 C 8 51.027344 12 51.027344 12 53.691406 "/>
<path style=" stroke:none;fill-rule:nonzero;fill:rgb(0%,0%,100%);fill-opacity:1;" d="M 120.628906 34.523438 C 120.628906 37.191406 116.628906 37.191406 116.628906 34.523438 C 116.628906 31.855469 120.628906 31.855469 120.628906 34.523438 "/>
<path style=" stroke:none;fill-rule:nonzero;fill:rgb(0%,0%,100%);fill-opacity:1;" d="M 18.390625 34.523438 C 18.390625 37.191406 14.390625 37.191406 14.390625 34.523438 C 14.390625 31.855469 18.390625 31.855469 18.390625 34.523438 "/>
<path style="fill:none;stroke-width:1;stroke-linecap:butt;stroke-linejoin:miter;stroke:rgb(0%,0%,100%);stroke-opacity:1;stroke-miterlimit:10;" d="M 96.070312 21.742188 C 96.070312 25.742188 90.070312 25.742188 90.070312 21.742188 C 90.070312 17.742188 96.070312 17.742188 96.070312 21.742188 "/>
<path style="fill:none;stroke-width:1;stroke-linecap:butt;stroke-linejoin:miter;stroke:rgb(0%,0%,100%);stroke-opacity:1;stroke-miterlimit:10;" d="M 44.949219 21.742188 C 44.949219 25.742188 38.949219 25.742188 38.949219 21.742188 C 38.949219 17.742188 44.949219 17.742188 44.949219 21.742188 "/>
<path style=" stroke:none;fill-rule:nonzero;fill:rgb(0%,0%,100%);fill-opacity:1;" d="M 114.238281 15.351562 C 114.238281 18.019531 110.238281 18.019531 110.238281 15.351562 C 110.238281 12.6875 114.238281 12.6875 114.238281 15.351562 "/>
<path style=" stroke:none;fill-rule:nonzero;fill:rgb(0%,0%,100%);fill-opacity:1;" d="M 24.78125 15.351562 C 24.78125 18.019531 20.78125 18.019531 20.78125 15.351562 C 20.78125 12.6875 24.78125 12.6875 24.78125 15.351562 "/>
<path style=" stroke:none;fill-rule:nonzero;fill:rgb(0%,0%,100%);fill-opacity:1;" d="M 95.070312 21.742188 C 95.070312 24.410156 91.070312 24.410156 91.070312 21.742188 C 91.070312 19.078125 95.070312 19.078125 95.070312 21.742188 "/>
<path style=" stroke:none;fill-rule:nonzero;fill:rgb(0%,0%,100%);fill-opacity:1;" d="M 43.949219 21.742188 C 43.949219 24.410156 39.949219 24.410156 39.949219 21.742188 C 39.949219 19.078125 43.949219 19.078125 43.949219 21.742188 "/>
<path style=" stroke:none;fill-rule:nonzero;fill:rgb(0%,0%,100%);fill-opacity:1;" d="M 114.238281 15.351562 C 114.238281 18.019531 110.238281 18.019531 110.238281 15.351562 C 110.238281 12.6875 114.238281 12.6875 114.238281 15.351562 "/>
<path style=" stroke:none;fill-rule:nonzero;fill:rgb(0%,0%,100%);fill-opacity:1;" d="M 24.78125 15.351562 C 24.78125 18.019531 20.78125 18.019531 20.78125 15.351562 C 20.78125 12.6875 24.78125 12.6875 24.78125 15.351562 "/>
<path style="fill:none;stroke-width:1;stroke-linecap:butt;stroke-linejoin:miter;stroke:rgb(100%,80%,0%);stroke-opacity:1;stroke-miterlimit:10;" d="M 67.511719 72.863281 L 67.511719 72.863281 "/>
<path style="fill:none;stroke-width:1;stroke-linecap:butt;stroke-linejoin:miter;stroke:rgb(100%,80%,0%);stroke-opacity:1;stroke-miterlimit:10;" d="M 86.679688 66.472656 L 86.679688 66.472656 "/>
<path style="fill:none;stroke-width:1;stroke-linecap:butt;stroke-linejoin:miter;stroke:rgb(100%,80%,0%);stroke-opacity:1;stroke-miterlimit:10;" d="M 48.339844 66.472656 L 48.339844 66.472656 "/>
<path style="fill:none;stroke-width:1;stroke-linecap:butt;stroke-linejoin:miter;stroke:rgb(100%,80%,0%);stroke-opacity:1;stroke-miterlimit:10;" d="M 80.289062 47.304688 L 80.289062 47.304688 "/>
<path style="fill:none;stroke-width:1;stroke-linecap:butt;stroke-linejoin:miter;stroke:rgb(100%,80%,0%);stroke-opacity:1;stroke-miterlimit:10;" d="M 54.730469 47.304688 L 54.730469 47.304688 "/>
<path style="fill:none;stroke-width:1;stroke-linecap:butt;stroke-linejoin:miter;stroke:rgb(100%,80%,0%);stroke-opacity:1;stroke-miterlimit:10;" d="M 67.511719 72.863281 L 67.511719 72.863281 "/>
<path style="fill:none;stroke-width:1;stroke-linecap:butt;stroke-linejoin:miter;stroke:rgb(100%,80%,0%);stroke-opacity:1;stroke-miterlimit:10;" d="M 86.679688 66.472656 L 86.679688 66.472656 "/>
<path style="fill:none;stroke-width:1;stroke-linecap:butt;stroke-linejoin:miter;stroke:rgb(100%,80%,0%);stroke-opacity:1;stroke-miterlimit:10;" d="M 48.339844 66.472656 L 48.339844 66.472656 "/>
<path style="fill:none;stroke-width:1;stroke-linecap:butt;stroke-linejoin:miter;stroke:rgb(100%,80%,0%);stroke-opacity:1;stroke-miterlimit:10;" d="M 80.289062 47.304688 L 80.289062 47.304688 "/>
<path style="fill:none;stroke-width:1;stroke-linecap:butt;stroke-linejoin:miter;stroke:rgb(100%,80%,0%);stroke-opacity:1;stroke-miterlimit:10;" d="M 54.730469 47.304688 L 54.730469 47.304688 "/>
<path style="fill:none;stroke-width:1;stroke-linecap:butt;stroke-linejoin:miter;stroke:rgb(100%,80%,0%);stroke-opacity:1;stroke-miterlimit:10;" d="M 73.898438 28.132812 L 73.898438 28.132812 "/>
<path style="fill:none;stroke-width:1;stroke-linecap:butt;stroke-linejoin:miter;stroke:rgb(100%,80%,0%);stroke-opacity:1;stroke-miterlimit:10;" d="M 61.121094 28.132812 L 61.121094 28.132812 "/>
<path style="fill:none;stroke-width:1;stroke-linecap:butt;stroke-linejoin:miter;stroke:rgb(100%,80%,0%);stroke-opacity:1;stroke-miterlimit:10;" d="M 73.898438 28.132812 L 73.898438 28.132812 "/>
<path style="fill:none;stroke-width:1;stroke-linecap:butt;stroke-linejoin:miter;stroke:rgb(100%,80%,0%);stroke-opacity:1;stroke-miterlimit:10;" d="M 61.121094 28.132812 L 61.121094 28.132812 "/>
<path style="fill:none;stroke-width:1;stroke-linecap:butt;stroke-linejoin:miter;stroke:rgb(100%,80%,0%);stroke-opacity:1;stroke-miterlimit:10;" d="M 105.851562 60.082031 L 105.851562 60.082031 "/>
<path style="fill:none;stroke-width:1;stroke-linecap:butt;stroke-linejoin:miter;stroke:rgb(100%,80%,0%);stroke-opacity:1;stroke-miterlimit:10;" d="M 29.171875 60.082031 L 29.171875 60.082031 "/>
<path style="fill:none;stroke-width:1;stroke-linecap:butt;stroke-linejoin:miter;stroke:rgb(100%,80%,0%);stroke-opacity:1;stroke-miterlimit:10;" d="M 99.460938 40.914062 L 99.460938 40.914062 "/>
<path style="fill:none;stroke-width:1;stroke-linecap:butt;stroke-linejoin:miter;stroke:rgb(100%,80%,0%);stroke-opacity:1;stroke-miterlimit:10;" d="M 35.558594 40.914062 L 35.558594 40.914062 "/>
<path style="fill:none;stroke-width:1;stroke-linecap:butt;stroke-linejoin:miter;stroke:rgb(100%,80%,0%);stroke-opacity:1;stroke-miterlimit:10;" d="M 10 53.691406 L 10 53.691406 "/>
<path style="fill:none;stroke-width:1;stroke-linecap:butt;stroke-linejoin:miter;stroke:rgb(100%,80%,0%);stroke-opacity:1;stroke-miterlimit:10;" d="M 118.628906 34.523438 L 118.628906 34.523438 "/>
<path style="fill:none;stroke-width:1;stroke-linecap:butt;stroke-linejoin:miter;stroke:rgb(100%,80%,0%);stroke-opacity:1;stroke-miterlimit:10;" d="M 16.390625 34.523438 L 16.390625 34.523438 "/>
<path style="fill:none;stroke-width:1;stroke-linecap:butt;stroke-linejoin:miter;stroke:rgb(100%,80%,0%);stroke-opacity:1;stroke-miterlimit:10;" d="M 105.851562 60.082031 L 105.851562 60.082031 "/>
<path style="fill:none;stroke-width:1;stroke-linecap:butt;stroke-linejoin:miter;stroke:rgb(100%,80%,0%);stroke-opacity:1;stroke-miterlimit:10;" d="M 29.171875 60.082031 L 29.171875 60.082031 "/>
<path style="fill:none;stroke-width:1;stroke-linecap:butt;stroke-linejoin:miter;stroke:rgb(100%,80%,0%);stroke-opacity:1;stroke-miterlimit:10;" d="M 99.460938 40.914062 L 99.460938 40.914062 "/>
<path style="fill:none;stroke-width:1;stroke-linecap:butt;stroke-linejoin:miter;stroke:rgb(100%,80%,0%);stroke-opacity:1;stroke-miterlimit:10;" d="M 35.558594 40.914062 L 35.558594 40.914062 "/>
<path style="fill:none;stroke-width:1;stroke-linecap:butt;stroke-linejoin:miter;stroke:rgb(100%,80%,0%);stroke-opacity:1;stroke-miterlimit:10;" d="M 10 53.691406 L 10 53.691406 "/>
<path style="fill:none;stroke-width:1;stroke-linecap:butt;stroke-linejoin:miter;stroke:rgb(100%,80%,0%);stroke-opacity:1;stroke-miterlimit:10;" d="M 118.628906 34.523438 L 118.628906 34.523438 "/>
<path style="fill:none;stroke-width:1;stroke-linecap:butt;stroke-linejoin:miter;stroke:rgb(100%,80%,0%);stroke-opacity:1;stroke-miterlimit:10;" d="M 16.390625 34.523438 L 16.390625 34.523438 "/>
<path style="fill:none;stroke-width:1;stroke-linecap:butt;stroke-linejoin:miter;stroke:rgb(100%,80%,0%);stroke-opacity:1;stroke-miterlimit:10;" d="M 93.070312 21.742188 L 93.070312 21.742188 "/>
<path style="fill:none;stroke-width:1;stroke-linecap:butt;stroke-linejoin:miter;stroke:rgb(100%,80%,0%);stroke-opacity:1;stroke-miterlimit:10;" d="M 41.949219 21.742188 L 41.949219 21.742188 "/>
<path style="fill:none;stroke-width:1;stroke-linecap:butt;stroke-linejoin:miter;stroke:rgb(100%,80%,0%);stroke-opacity:1;stroke-miterlimit:10;" d="M 112.238281 15.351562 L 112.238281 15.351562 "/>
<path style="fill:none;stroke-width:1;stroke-linecap:butt;stroke-linejoin:miter;stroke:rgb(100%,80%,0%);stroke-opacity:1;stroke-miterlimit:10;" d="M 22.78125 15.351562 L 22.78125 15.351562 "/>
<path style="fill:none;stroke-width:1;stroke-linecap:butt;stroke-linejoin:miter;stroke:rgb(100%,80%,0%);stroke-opacity:1;stroke-miterlimit:10;" d="M 93.070312 21.742188 L 93.070312 21.742188 "/>
<path style="fill:none;stroke-width:1;stroke-linecap:butt;stroke-linejoin:miter;stroke:rgb(100%,80%,0%);stroke-opacity:1;stroke-miterlimit:10;" d="M 41.949219 21.742188 L 41.949219 21.742188 "/>
<path style="fill:none;stroke-width:1;stroke-linecap:butt;stroke-linejoin:miter;stroke:rgb(100%,80%,0%);stroke-opacity:1;stroke-miterlimit:10;" d="M 112.238281 15.351562 L 112.238281 15.351562 "/>
<path style="fill:none;stroke-width:1;stroke-linecap:butt;stroke-linejoin:miter;stroke:rgb(100%,80%,0%);stroke-opacity:1;stroke-miterlimit:10;" d="M 22.78125 15.351562 L 22.78125 15.351562 "/>
<path style="fill:none;stroke-width:1;stroke-linecap:butt;stroke-linejoin:miter;stroke:rgb(0%,0%,100%);stroke-opacity:1;stroke-miterlimit:10;" d="M 70.511719 190.828125 C 70.511719 194.828125 64.511719 194.828125 64.511719 190.828125 C 64.511719 186.828125 70.511719 186.828125 70.511719 190.828125 "/>
<path style=" stroke:none;fill-rule:nonzero;fill:rgb(0%,0%,100%);fill-opacity:1;" d="M 88.679688 170.621094 C 88.679688 173.289062 84.679688 173.289062 84.679688 170.621094 C 84.679688 167.953125 88.679688 167.953125 88.679688 170.621094 "/>
<path style=" stroke:none;fill-rule:nonzero;fill:rgb(0%,0%,100%);fill-opacity:1;" d="M 50.339844 170.621094 C 50.339844 173.289062 46.339844 173.289062 46.339844 170.621094 C 46.339844 167.953125 50.339844 167.953125 50.339844 170.621094 "/>
<path style="fill:none;stroke-width:1;stroke-linecap:butt;stroke-linejoin:miter;stroke:rgb(0%,0%,100%);stroke-opacity:1;stroke-miterlimit:10;" d="M 83.289062 190.828125 C 83.289062 194.828125 77.289062 194.828125 77.289062 190.828125 C 77.289062 186.828125 83.289062 186.828125 83.289062 190.828125 "/>
<path style="fill:none;stroke-width:1;stroke-linecap:butt;stroke-linejoin:miter;stroke:rgb(0%,0%,100%);stroke-opacity:1;stroke-miterlimit:10;" d="M 57.730469 190.828125 C 57.730469 194.828125 51.730469 194.828125 51.730469 190.828125 C 51.730469 186.828125 57.730469 186.828125 57.730469 190.828125 "/>
<path style=" stroke:none;fill-rule:nonzero;fill:rgb(0%,0%,100%);fill-opacity:1;" d="M 69.511719 150.414062 C 69.511719 153.082031 65.511719 153.082031 65.511719 150.414062 C 65.511719 147.746094 69.511719 147.746094 69.511719 150.414062 "/>
<path style=" stroke:none;fill-rule:nonzero;fill:rgb(0%,0%,100%);fill-opacity:1;" d="M 88.679688 130.207031 C 88.679688 132.875 84.679688 132.875 84.679688 130.207031 C 84.679688 127.539062 88.679688 127.539062 88.679688 130.207031 "/>
<path style=" stroke:none;fill-rule:nonzero;fill:rgb(0%,0%,100%);fill-opacity:1;" d="M 50.339844 130.207031 C 50.339844 132.875 46.339844 132.875 46.339844 130.207031 C 46.339844 127.539062 50.339844 127.539062 50.339844 130.207031 "/>
<path style=" stroke:none;fill-rule:nonzero;fill:rgb(0%,0%,100%);fill-opacity:1;" d="M 82.289062 150.414062 C 82.289062 153.082031 78.289062 153.082031 78.289062 150.414062 C 78.289062 147.746094 82.289062 147.746094 82.289062 150.414062 "/>
<path style=" stroke:none;fill-rule:nonzero;fill:rgb(0%,0%,100%);fill-opacity:1;" d="M 56.730469 150.414062 C 56.730469 153.082031 52.730469 153.082031 52.730469 150.414062 C 52.730469 147.746094 56.730469 147.746094 56.730469 150.414062 "/>
<path style=" stroke:none;fill-rule:nonzero;fill:rgb(0%,0%,100%);fill-opacity:1;" d="M 75.898438 170.621094 C 75.898438 173.289062 71.898438 173.289062 71.898438 170.621094 C 71.898438 167.953125 75.898438 167.953125 75.898438 170.621094 "/>
<path style=" stroke:none;fill-rule:nonzero;fill:rgb(0%,0%,100%);fill-opacity:1;" d="M 63.121094 170.621094 C 63.121094 173.289062 59.121094 173.289062 59.121094 170.621094 C 59.121094 167.953125 63.121094 167.953125 63.121094 170.621094 "/>
<path style=" stroke:none;fill-rule:nonzero;fill:rgb(0%,0%,100%);fill-opacity:1;" d="M 75.898438 130.207031 C 75.898438 132.875 71.898438 132.875 71.898438 130.207031 C 71.898438 127.539062 75.898438 127.539062 75.898438 130.207031 "/>
<path style=" stroke:none;fill-rule:nonzero;fill:rgb(0%,0%,100%);fill-opacity:1;" d="M 63.121094 130.207031 C 63.121094 132.875 59.121094 132.875 59.121094 130.207031 C 59.121094 127.539062 63.121094 127.539062 63.121094 130.207031 "/>
<path style="fill:none;stroke-width:1;stroke-linecap:butt;stroke-linejoin:miter;stroke:rgb(0%,0%,100%);stroke-opacity:1;stroke-miterlimit:10;" d="M 108.851562 190.828125 C 108.851562 194.828125 102.851562 194.828125 102.851562 190.828125 C 102.851562 186.828125 108.851562 186.828125 108.851562 190.828125 "/>
<path style="fill:none;stroke-width:1;stroke-linecap:butt;stroke-linejoin:miter;stroke:rgb(0%,0%,100%);stroke-opacity:1;stroke-miterlimit:10;" d="M 32.171875 190.828125 C 32.171875 194.828125 26.171875 194.828125 26.171875 190.828125 C 26.171875 186.828125 32.171875 186.828125 32.171875 190.828125 "/>
<path style=" stroke:none;fill-rule:nonzero;fill:rgb(0%,0%,100%);fill-opacity:1;" d="M 101.460938 170.621094 C 101.460938 173.289062 97.460938 173.289062 97.460938 170.621094 C 97.460938 167.953125 101.460938 167.953125 101.460938 170.621094 "/>
<path style=" stroke:none;fill-rule:nonzero;fill:rgb(0%,0%,100%);fill-opacity:1;" d="M 37.558594 170.621094 C 37.558594 173.289062 33.558594 173.289062 33.558594 170.621094 C 33.558594 167.953125 37.558594 167.953125 37.558594 170.621094 "/>
<path style=" stroke:none;fill-rule:nonzero;fill:rgb(0%,0%,100%);fill-opacity:1;" d="M 12 170.621094 C 12 173.289062 8 173.289062 8 170.621094 C 8 167.953125 12 167.953125 12 170.621094 "/>
<path style="fill:none;stroke-width:1;stroke-linecap:butt;stroke-linejoin:miter;stroke:rgb(0%,0%,100%);stroke-opacity:1;stroke-miterlimit:10;" d="M 121.628906 190.828125 C 121.628906 194.828125 115.628906 194.828125 115.628906 190.828125 C 115.628906 186.828125 121.628906 186.828125 121.628906 190.828125 "/>
<path style="fill:none;stroke-width:1;stroke-linecap:butt;stroke-linejoin:miter;stroke:rgb(0%,0%,100%);stroke-opacity:1;stroke-miterlimit:10;" d="M 19.390625 190.828125 C 19.390625 194.828125 13.390625 194.828125 13.390625 190.828125 C 13.390625 186.828125 19.390625 186.828125 19.390625 190.828125 "/>
<path style=" stroke:none;fill-rule:nonzero;fill:rgb(0%,0%,100%);fill-opacity:1;" d="M 107.851562 150.414062 C 107.851562 153.082031 103.851562 153.082031 103.851562 150.414062 C 103.851562 147.746094 107.851562 147.746094 107.851562 150.414062 "/>
<path style=" stroke:none;fill-rule:nonzero;fill:rgb(0%,0%,100%);fill-opacity:1;" d="M 31.171875 150.414062 C 31.171875 153.082031 27.171875 153.082031 27.171875 150.414062 C 27.171875 147.746094 31.171875 147.746094 31.171875 150.414062 "/>
<path style=" stroke:none;fill-rule:nonzero;fill:rgb(0%,0%,100%);fill-opacity:1;" d="M 101.460938 130.207031 C 101.460938 132.875 97.460938 132.875 97.460938 130.207031 C 97.460938 127.539062 101.460938 127.539062 101.460938 130.207031 "/>
<path style=" stroke:none;fill-rule:nonzero;fill:rgb(0%,0%,100%);fill-opacity:1;" d="M 37.558594 130.207031 C 37.558594 132.875 33.558594 132.875 33.558594 130.207031 C 33.558594 127.539062 37.558594 127.539062 37.558594 130.207031 "/>
<path style=" stroke:none;fill-rule:nonzero;fill:rgb(0%,0%,100%);fill-opacity:1;" d="M 12 130.207031 C 12 132.875 8 132.875 8 130.207031 C 8 127.539062 12 127.539062 12 130.207031 "/>
<path style=" stroke:none;fill-rule:nonzero;fill:rgb(0%,0%,100%);fill-opacity:1;" d="M 120.628906 150.414062 C 120.628906 153.082031 116.628906 153.082031 116.628906 150.414062 C 116.628906 147.746094 120.628906 147.746094 120.628906 150.414062 "/>
<path style=" stroke:none;fill-rule:nonzero;fill:rgb(0%,0%,100%);fill-opacity:1;" d="M 18.390625 150.414062 C 18.390625 153.082031 14.390625 153.082031 14.390625 150.414062 C 14.390625 147.746094 18.390625 147.746094 18.390625 150.414062 "/>
<path style="fill:none;stroke-width:1;stroke-linecap:butt;stroke-linejoin:miter;stroke:rgb(0%,0%,100%);stroke-opacity:1;stroke-miterlimit:10;" d="M 96.070312 190.828125 C 96.070312 194.828125 90.070312 194.828125 90.070312 190.828125 C 90.070312 186.828125 96.070312 186.828125 96.070312 190.828125 "/>
<path style="fill:none;stroke-width:1;stroke-linecap:butt;stroke-linejoin:miter;stroke:rgb(0%,0%,100%);stroke-opacity:1;stroke-miterlimit:10;" d="M 44.949219 190.828125 C 44.949219 194.828125 38.949219 194.828125 38.949219 190.828125 C 38.949219 186.828125 44.949219 186.828125 44.949219 190.828125 "/>
<path style=" stroke:none;fill-rule:nonzero;fill:rgb(0%,0%,100%);fill-opacity:1;" d="M 114.238281 170.621094 C 114.238281 173.289062 110.238281 173.289062 110.238281 170.621094 C 110.238281 167.953125 114.238281 167.953125 114.238281 170.621094 "/>
<path style=" stroke:none;fill-rule:nonzero;fill:rgb(0%,0%,100%);fill-opacity:1;" d="M 24.78125 170.621094 C 24.78125 173.289062 20.78125 173.289062 20.78125 170.621094 C 20.78125 167.953125 24.78125 167.953125 24.78125 170.621094 "/>
<path style=" stroke:none;fill-rule:nonzero;fill:rgb(0%,0%,100%);fill-opacity:1;" d="M 95.070312 150.414062 C 95.070312 153.082031 91.070312 153.082031 91.070312 150.414062 C 91.070312 147.746094 95.070312 147.746094 95.070312 150.414062 "/>
<path style=" stroke:none;fill-rule:nonzero;fill:rgb(0%,0%,100%);fill-opacity:1;" d="M 43.949219 150.414062 C 43.949219 153.082031 39.949219 153.082031 39.949219 150.414062 C 39.949219 147.746094 43.949219 147.746094 43.949219 150.414062 "/>
<path style=" stroke:none;fill-rule:nonzero;fill:rgb(0%,0%,100%);fill-opacity:1;" d="M 114.238281 130.207031 C 114.238281 132.875 110.238281 132.875 110.238281 130.207031 C 110.238281 127.539062 114.238281 127.539062 114.238281 130.207031 "/>
<path style=" stroke:none;fill-rule:nonzero;fill:rgb(0%,0%,100%);fill-opacity:1;" d="M 24.78125 130.207031 C 24.78125 132.875 20.78125 132.875 20.78125 130.207031 C 20.78125 127.539062 24.78125 127.539062 24.78125 130.207031 "/>
<path style="fill:none;stroke-width:1;stroke-linecap:butt;stroke-linejoin:miter;stroke:rgb(100%,80%,0%);stroke-opacity:1;stroke-miterlimit:10;" d="M 67.511719 190.828125 L 67.511719 190.828125 "/>
<path style="fill:none;stroke-width:1;stroke-linecap:butt;stroke-linejoin:miter;stroke:rgb(100%,80%,0%);stroke-opacity:1;stroke-miterlimit:10;" d="M 86.679688 170.621094 L 86.679688 170.621094 "/>
<path style="fill:none;stroke-width:1;stroke-linecap:butt;stroke-linejoin:miter;stroke:rgb(100%,80%,0%);stroke-opacity:1;stroke-miterlimit:10;" d="M 48.339844 170.621094 L 48.339844 170.621094 "/>
<path style="fill:none;stroke-width:1;stroke-linecap:butt;stroke-linejoin:miter;stroke:rgb(100%,80%,0%);stroke-opacity:1;stroke-miterlimit:10;" d="M 80.289062 190.828125 L 80.289062 190.828125 "/>
<path style="fill:none;stroke-width:1;stroke-linecap:butt;stroke-linejoin:miter;stroke:rgb(100%,80%,0%);stroke-opacity:1;stroke-miterlimit:10;" d="M 54.730469 190.828125 L 54.730469 190.828125 "/>
<path style="fill:none;stroke-width:1;stroke-linecap:butt;stroke-linejoin:miter;stroke:rgb(100%,80%,0%);stroke-opacity:1;stroke-miterlimit:10;" d="M 67.511719 150.414062 L 67.511719 150.414062 "/>
<path style="fill:none;stroke-width:1;stroke-linecap:butt;stroke-linejoin:miter;stroke:rgb(100%,80%,0%);stroke-opacity:1;stroke-miterlimit:10;" d="M 86.679688 130.207031 L 86.679688 130.207031 "/>
<path style="fill:none;stroke-width:1;stroke-linecap:butt;stroke-linejoin:miter;stroke:rgb(100%,80%,0%);stroke-opacity:1;stroke-miterlimit:10;" d="M 48.339844 130.207031 L 48.339844 130.207031 "/>
<path style="fill:none;stroke-width:1;stroke-linecap:butt;stroke-linejoin:miter;stroke:rgb(100%,80%,0%);stroke-opacity:1;stroke-miterlimit:10;" d="M 80.289062 150.414062 L 80.289062 150.414062 "/>
<path style="fill:none;stroke-width:1;stroke-linecap:butt;stroke-linejoin:miter;stroke:rgb(100%,80%,0%);stroke-opacity:1;stroke-miterlimit:10;" d="M 54.730469 150.414062 L 54.730469 150.414062 "/>
<path style="fill:none;stroke-width:1;stroke-linecap:butt;stroke-linejoin:miter;stroke:rgb(100%,80%,0%);stroke-opacity:1;stroke-miterlimit:10;" d="M 73.898438 170.621094 L 73.898438 170.621094 "/>
<path style="fill:none;stroke-width:1;stroke-linecap:butt;stroke-linejoin:miter;stroke:rgb(100%,80%,0%);stroke-opacity:1;stroke-miterlimit:10;" d="M 61.121094 170.621094 L 61.121094 170.621094 "/>
<path style="fill:none;stroke-width:1;stroke-linecap:butt;stroke-linejoin:miter;stroke:rgb(100%,80%,0%);stroke-opacity:1;stroke-miterlimit:10;" d="M 73.898438 130.207031 L 73.898438 130.207031 "/>
<path style="fill:none;stroke-width:1;stroke-linecap:butt;stroke-linejoin:miter;stroke:rgb(100%,80%,0%);stroke-opacity:1;stroke-miterlimit:10;" d="M 61.121094 130.207031 L 61.121094 130.207031 "/>
<path style="fill:none;stroke-width:1;stroke-linecap:butt;stroke-linejoin:miter;stroke:rgb(100%,80%,0%);stroke-opacity:1;stroke-miterlimit:10;" d="M 105.851562 190.828125 L 105.851562 190.828125 "/>
<path style="fill:none;stroke-width:1;stroke-linecap:butt;stroke-linejoin:miter;stroke:rgb(100%,80%,0%);stroke-opacity:1;stroke-miterlimit:10;" d="M 29.171875 190.828125 L 29.171875 190.828125 "/>
<path style="fill:none;stroke-width:1;stroke-linecap:butt;stroke-linejoin:miter;stroke:rgb(100%,80%,0%);stroke-opacity:1;stroke-miterlimit:10;" d="M 99.460938 170.621094 L 99.460938 170.621094 "/>
<path style="fill:none;stroke-width:1;stroke-linecap:butt;stroke-linejoin:miter;stroke:rgb(100%,80%,0%);stroke-opacity:1;stroke-miterlimit:10;" d="M 35.558594 170.621094 L 35.558594 170.621094 "/>
<path style="fill:none;stroke-width:1;stroke-linecap:butt;stroke-linejoin:miter;stroke:rgb(100%,80%,0%);stroke-opacity:1;stroke-miterlimit:10;" d="M 10 170.621094 L 10 170.621094 "/>
<path style="fill:none;stroke-width:1;stroke-linecap:butt;stroke-linejoin:miter;stroke:rgb(100%,80%,0%);stroke-opacity:1;stroke-miterlimit:10;" d="M 118.628906 190.828125 L 118.628906 190.828125 "/>
<path style="fill:none;stroke-width:1;stroke-linecap:butt;stroke-linejoin:miter;stroke:rgb(100%,80%,0%);stroke-opacity:1;stroke-miterlimit:10;" d="M 16.390625 190.828125 L 16.390625 190.828125 "/>
<path style="fill:none;stroke-width:1;stroke-linecap:butt;stroke-linejoin:miter;stroke:rgb(100%,80%,0%);stroke-opacity:1;stroke-miterlimit:10;" d="M 105.851562 150.414062 L 105.851562 150.414062 "/>
<path style="fill:none;stroke-width:1;stroke-linecap:butt;stroke-linejoin:miter;stroke:rgb(100%,80%,0%);stroke-opacity:1;stroke-miterlimit:10;" d="M 29.171875 150.414062 L 29.171875 150.414062 "/>
<path style="fill:none;stroke-width:1;stroke-linecap:butt;stroke-linejoin:miter;stroke:rgb(100%,80%,0%);stroke-opacity:1;stroke-miterlimit:10;" d="M 99.460938 130.207031 L 99.460938 130.207031 "/>
<path style="fill:none;stroke-width:1;stroke-linecap:butt;stroke-linejoin:miter;stroke:rgb(100%,80%,0%);stroke-opacity:1;stroke-miterlimit:10;" d="M 35.558594 130.207031 L 35.558594 130.207031 "/>
<path style="fill:none;stroke-width:1;stroke-linecap:butt;stroke-linejoin:miter;stroke:rgb(100%,80%,0%);stroke-opacity:1;stroke-miterlimit:10;" d="M 10 130.207031 L 10 130.207031 "/>
<path style="fill:none;stroke-width:1;stroke-linecap:butt;stroke-linejoin:miter;stroke:rgb(100%,80%,0%);stroke-opacity:1;stroke-miterlimit:10;" d="M 118.628906 150.414062 L 118.628906 150.414062 "/>
<path style="fill:none;stroke-width:1;stroke-linecap:butt;stroke-linejoin:miter;stroke:rgb(100%,80%,0%);stroke-opacity:1;stroke-miterlimit:10;" d="M 16.390625 150.414062 L 16.390625 150.414062 "/>
<path style="fill:none;stroke-width:1;stroke-linecap:butt;stroke-linejoin:miter;stroke:rgb(100%,80%,0%);stroke-opacity:1;stroke-miterlimit:10;" d="M 93.070312 190.828125 L 93.070312 190.828125 "/>
<path style="fill:none;stroke-width:1;stroke-linecap:butt;stroke-linejoin:miter;stroke:rgb(100%,80%,0%);stroke-opacity:1;stroke-miterlimit:10;" d="M 41.949219 190.828125 L 41.949219 190.828125 "/>
<path style="fill:none;stroke-width:1;stroke-linecap:butt;stroke-linejoin:miter;stroke:rgb(100%,80%,0%);stroke-opacity:1;stroke-miterlimit:10;" d="M 112.238281 170.621094 L 112.238281 170.621094 "/>
<path style="fill:none;stroke-width:1;stroke-linecap:butt;stroke-linejoin:miter;stroke:rgb(100%,80%,0%);stroke-opacity:1;stroke-miterlimit:10;" d="M 22.78125 170.621094 L 22.78125 170.621094 "/>
<path style="fill:none;stroke-width:1;stroke-linecap:butt;stroke-linejoin:miter;stroke:rgb(100%,80%,0%);stroke-opacity:1;stroke-miterlimit:10;" d="M 93.070312 150.414062 L 93.070312 150.414062 "/>
<path style="fill:none;stroke-width:1;stroke-linecap:butt;stroke-linejoin:miter;stroke:rgb(100%,80%,0%);stroke-opacity:1;stroke-miterlimit:10;" d="M 41.949219 150.414062 L 41.949219 150.414062 "/>
<path style="fill:none;stroke-width:1;stroke-linecap:butt;stroke-linejoin:miter;stroke:rgb(100%,80%,0%);stroke-opacity:1;stroke-miterlimit:10;" d="M 112.238281 130.207031 L 112.238281 130.207031 "/>
<path style="fill:none;stroke-width:1;stroke-linecap:butt;stroke-linejoin:miter;stroke:rgb(100%,80%,0%);stroke-opacity:1;stroke-miterlimit:10;" d="M 22.78125 130.207031 L 22.78125 130.207031 "/>
<path style="fill:none;stroke-width:1;stroke-linecap:butt;stroke-linejoin:miter;stroke:rgb(0%,0%,100%);stroke-opacity:1;stroke-miterlimit:10;" d="M 163 190.828125 C 163 194.828125 157 194.828125 157 190.828125 C 157 186.828125 163 186.828125 163 190.828125 "/>
<path style=" stroke:none;fill-rule:nonzero;fill:rgb(0%,0%,100%);fill-opacity:1;" d="M 168.390625 170.621094 C 168.390625 173.289062 164.390625 173.289062 164.390625 170.621094 C 164.390625 167.953125 168.390625 167.953125 168.390625 170.621094 "/>
<path style=" stroke:none;fill-rule:nonzero;fill:rgb(0%,0%,100%);fill-opacity:1;" d="M 168.390625 170.621094 C 168.390625 173.289062 164.390625 173.289062 164.390625 170.621094 C 164.390625 167.953125 168.390625 167.953125 168.390625 170.621094 "/>
<path style="fill:none;stroke-width:1;stroke-linecap:butt;stroke-linejoin:miter;stroke:rgb(0%,0%,100%);stroke-opacity:1;stroke-miterlimit:10;" d="M 188.558594 190.828125 C 188.558594 194.828125 182.558594 194.828125 182.558594 190.828125 C 182.558594 186.828125 188.558594 186.828125 188.558594 190.828125 "/>
<path style="fill:none;stroke-width:1;stroke-linecap:butt;stroke-linejoin:miter;stroke:rgb(0%,0%,100%);stroke-opacity:1;stroke-miterlimit:10;" d="M 188.558594 190.828125 C 188.558594 194.828125 182.558594 194.828125 182.558594 190.828125 C 182.558594 186.828125 188.558594 186.828125 188.558594 190.828125 "/>
<path style=" stroke:none;fill-rule:nonzero;fill:rgb(0%,0%,100%);fill-opacity:1;" d="M 162 150.414062 C 162 153.082031 158 153.082031 158 150.414062 C 158 147.746094 162 147.746094 162 150.414062 "/>
<path style=" stroke:none;fill-rule:nonzero;fill:rgb(0%,0%,100%);fill-opacity:1;" d="M 168.390625 130.207031 C 168.390625 132.875 164.390625 132.875 164.390625 130.207031 C 164.390625 127.539062 168.390625 127.539062 168.390625 130.207031 "/>
<path style=" stroke:none;fill-rule:nonzero;fill:rgb(0%,0%,100%);fill-opacity:1;" d="M 168.390625 130.207031 C 168.390625 132.875 164.390625 132.875 164.390625 130.207031 C 164.390625 127.539062 168.390625 127.539062 168.390625 130.207031 "/>
<path style=" stroke:none;fill-rule:nonzero;fill:rgb(0%,0%,100%);fill-opacity:1;" d="M 187.558594 150.414062 C 187.558594 153.082031 183.558594 153.082031 183.558594 150.414062 C 183.558594 147.746094 187.558594 147.746094 187.558594 150.414062 "/>
<path style=" stroke:none;fill-rule:nonzero;fill:rgb(0%,0%,100%);fill-opacity:1;" d="M 187.558594 150.414062 C 187.558594 153.082031 183.558594 153.082031 183.558594 150.414062 C 183.558594 147.746094 187.558594 147.746094 187.558594 150.414062 "/>
<path style=" stroke:none;fill-rule:nonzero;fill:rgb(0%,0%,100%);fill-opacity:1;" d="M 206.730469 170.621094 C 206.730469 173.289062 202.730469 173.289062 202.730469 170.621094 C 202.730469 167.953125 206.730469 167.953125 206.730469 170.621094 "/>
<path style=" stroke:none;fill-rule:nonzero;fill:rgb(0%,0%,100%);fill-opacity:1;" d="M 206.730469 170.621094 C 206.730469 173.289062 202.730469 173.289062 202.730469 170.621094 C 202.730469 167.953125 206.730469 167.953125 206.730469 170.621094 "/>
<path style=" stroke:none;fill-rule:nonzero;fill:rgb(0%,0%,100%);fill-opacity:1;" d="M 206.730469 130.207031 C 206.730469 132.875 202.730469 132.875 202.730469 130.207031 C 202.730469 127.539062 206.730469 127.539062 206.730469 130.207031 "/>
<path style=" stroke:none;fill-rule:nonzero;fill:rgb(0%,0%,100%);fill-opacity:1;" d="M 206.730469 130.207031 C 206.730469 132.875 202.730469 132.875 202.730469 130.207031 C 202.730469 127.539062 206.730469 127.539062 206.730469 130.207031 "/>
<path style="fill:none;stroke-width:1;stroke-linecap:butt;stroke-linejoin:miter;stroke:rgb(0%,0%,100%);stroke-opacity:1;stroke-miterlimit:10;" d="M 175.78125 190.828125 C 175.78125 194.828125 169.78125 194.828125 169.78125 190.828125 C 169.78125 186.828125 175.78125 186.828125 175.78125 190.828125 "/>
<path style="fill:none;stroke-width:1;stroke-linecap:butt;stroke-linejoin:miter;stroke:rgb(0%,0%,100%);stroke-opacity:1;stroke-miterlimit:10;" d="M 175.78125 190.828125 C 175.78125 194.828125 169.78125 194.828125 169.78125 190.828125 C 169.78125 186.828125 175.78125 186.828125 175.78125 190.828125 "/>
<path style=" stroke:none;fill-rule:nonzero;fill:rgb(0%,0%,100%);fill-opacity:1;" d="M 193.949219 170.621094 C 193.949219 173.289062 189.949219 173.289062 189.949219 170.621094 C 189.949219 167.953125 193.949219 167.953125 193.949219 170.621094 "/>
<path style=" stroke:none;fill-rule:nonzero;fill:rgb(0%,0%,100%);fill-opacity:1;" d="M 193.949219 170.621094 C 193.949219 173.289062 189.949219 173.289062 189.949219 170.621094 C 189.949219 167.953125 193.949219 167.953125 193.949219 170.621094 "/>
<path style=" stroke:none;fill-rule:nonzero;fill:rgb(0%,0%,100%);fill-opacity:1;" d="M 181.171875 170.621094 C 181.171875 173.289062 177.171875 173.289062 177.171875 170.621094 C 177.171875 167.953125 181.171875 167.953125 181.171875 170.621094 "/>
<path style="fill:none;stroke-width:1;stroke-linecap:butt;stroke-linejoin:miter;stroke:rgb(0%,0%,100%);stroke-opacity:1;stroke-miterlimit:10;" d="M 201.339844 190.828125 C 201.339844 194.828125 195.339844 194.828125 195.339844 190.828125 C 195.339844 186.828125 201.339844 186.828125 201.339844 190.828125 "/>
<path style="fill:none;stroke-width:1;stroke-linecap:butt;stroke-linejoin:miter;stroke:rgb(0%,0%,100%);stroke-opacity:1;stroke-miterlimit:10;" d="M 201.339844 190.828125 C 201.339844 194.828125 195.339844 194.828125 195.339844 190.828125 C 195.339844 186.828125 201.339844 186.828125 201.339844 190.828125 "/>
<path style=" stroke:none;fill-rule:nonzero;fill:rgb(0%,0%,100%);fill-opacity:1;" d="M 174.78125 150.414062 C 174.78125 153.082031 170.78125 153.082031 170.78125 150.414062 C 170.78125 147.746094 174.78125 147.746094 174.78125 150.414062 "/>
<path style=" stroke:none;fill-rule:nonzero;fill:rgb(0%,0%,100%);fill-opacity:1;" d="M 174.78125 150.414062 C 174.78125 153.082031 170.78125 153.082031 170.78125 150.414062 C 170.78125 147.746094 174.78125 147.746094 174.78125 150.414062 "/>
<path style=" stroke:none;fill-rule:nonzero;fill:rgb(0%,0%,100%);fill-opacity:1;" d="M 193.949219 130.207031 C 193.949219 132.875 189.949219 132.875 189.949219 130.207031 C 189.949219 127.539062 193.949219 127.539062 193.949219 130.207031 "/>
<path style=" stroke:none;fill-rule:nonzero;fill:rgb(0%,0%,100%);fill-opacity:1;" d="M 193.949219 130.207031 C 193.949219 132.875 189.949219 132.875 189.949219 130.207031 C 189.949219 127.539062 193.949219 127.539062 193.949219 130.207031 "/>
<path style=" stroke:none;fill-rule:nonzero;fill:rgb(0%,0%,100%);fill-opacity:1;" d="M 181.171875 130.207031 C 181.171875 132.875 177.171875 132.875 177.171875 130.207031 C 177.171875 127.539062 181.171875 127.539062 181.171875 130.207031 "/>
<path style=" stroke:none;fill-rule:nonzero;fill:rgb(0%,0%,100%);fill-opacity:1;" d="M 200.339844 150.414062 C 200.339844 153.082031 196.339844 153.082031 196.339844 150.414062 C 196.339844 147.746094 200.339844 147.746094 200.339844 150.414062 "/>
<path style=" stroke:none;fill-rule:nonzero;fill:rgb(0%,0%,100%);fill-opacity:1;" d="M 200.339844 150.414062 C 200.339844 153.082031 196.339844 153.082031 196.339844 150.414062 C 196.339844 147.746094 200.339844 147.746094 200.339844 150.414062 "/>
<path style="fill:none;stroke-width:1;stroke-linecap:butt;stroke-linejoin:miter;stroke:rgb(0%,0%,100%);stroke-opacity:1;stroke-miterlimit:10;" d="M 214.121094 190.828125 C 214.121094 194.828125 208.121094 194.828125 208.121094 190.828125 C 208.121094 186.828125 214.121094 186.828125 214.121094 190.828125 "/>
<path style="fill:none;stroke-width:1;stroke-linecap:butt;stroke-linejoin:miter;stroke:rgb(0%,0%,100%);stroke-opacity:1;stroke-miterlimit:10;" d="M 214.121094 190.828125 C 214.121094 194.828125 208.121094 194.828125 208.121094 190.828125 C 208.121094 186.828125 214.121094 186.828125 214.121094 190.828125 "/>
<path style=" stroke:none;fill-rule:nonzero;fill:rgb(0%,0%,100%);fill-opacity:1;" d="M 219.511719 170.621094 C 219.511719 173.289062 215.511719 173.289062 215.511719 170.621094 C 215.511719 167.953125 219.511719 167.953125 219.511719 170.621094 "/>
<path style=" stroke:none;fill-rule:nonzero;fill:rgb(0%,0%,100%);fill-opacity:1;" d="M 219.511719 170.621094 C 219.511719 173.289062 215.511719 173.289062 215.511719 170.621094 C 215.511719 167.953125 219.511719 167.953125 219.511719 170.621094 "/>
<path style=" stroke:none;fill-rule:nonzero;fill:rgb(0%,0%,100%);fill-opacity:1;" d="M 213.121094 150.414062 C 213.121094 153.082031 209.121094 153.082031 209.121094 150.414062 C 209.121094 147.746094 213.121094 147.746094 213.121094 150.414062 "/>
<path style=" stroke:none;fill-rule:nonzero;fill:rgb(0%,0%,100%);fill-opacity:1;" d="M 213.121094 150.414062 C 213.121094 153.082031 209.121094 153.082031 209.121094 150.414062 C 209.121094 147.746094 213.121094 147.746094 213.121094 150.414062 "/>
<path style=" stroke:none;fill-rule:nonzero;fill:rgb(0%,0%,100%);fill-opacity:1;" d="M 219.511719 130.207031 C 219.511719 132.875 215.511719 132.875 215.511719 130.207031 C 215.511719 127.539062 219.511719 127.539062 219.511719 130.207031 "/>
<path style=" stroke:none;fill-rule:nonzero;fill:rgb(0%,0%,100%);fill-opacity:1;" d="M 219.511719 130.207031 C 219.511719 132.875 215.511719 132.875 215.511719 130.207031 C 215.511719 127.539062 219.511719 127.539062 219.511719 130.207031 "/>
<path style="fill:none;stroke-width:1;stroke-linecap:butt;stroke-linejoin:miter;stroke:rgb(100%,80%,0%);stroke-opacity:1;stroke-miterlimit:10;" d="M 160 190.828125 L 160 190.828125 "/>
<path style="fill:none;stroke-width:1;stroke-linecap:butt;stroke-linejoin:miter;stroke:rgb(100%,80%,0%);stroke-opacity:1;stroke-miterlimit:10;" d="M 166.390625 170.621094 L 166.390625 170.621094 "/>
<path style="fill:none;stroke-width:1;stroke-linecap:butt;stroke-linejoin:miter;stroke:rgb(100%,80%,0%);stroke-opacity:1;stroke-miterlimit:10;" d="M 166.390625 170.621094 L 166.390625 170.621094 "/>
<path style="fill:none;stroke-width:1;stroke-linecap:butt;stroke-linejoin:miter;stroke:rgb(100%,80%,0%);stroke-opacity:1;stroke-miterlimit:10;" d="M 185.558594 190.828125 L 185.558594 190.828125 "/>
<path style="fill:none;stroke-width:1;stroke-linecap:butt;stroke-linejoin:miter;stroke:rgb(100%,80%,0%);stroke-opacity:1;stroke-miterlimit:10;" d="M 185.558594 190.828125 L 185.558594 190.828125 "/>
<path style="fill:none;stroke-width:1;stroke-linecap:butt;stroke-linejoin:miter;stroke:rgb(100%,80%,0%);stroke-opacity:1;stroke-miterlimit:10;" d="M 160 150.414062 L 160 150.414062 "/>
<path style="fill:none;stroke-width:1;stroke-linecap:butt;stroke-linejoin:miter;stroke:rgb(100%,80%,0%);stroke-opacity:1;stroke-miterlimit:10;" d="M 166.390625 130.207031 L 166.390625 130.207031 "/>
<path style="fill:none;stroke-width:1;stroke-linecap:butt;stroke-linejoin:miter;stroke:rgb(100%,80%,0%);stroke-opacity:1;stroke-miterlimit:10;" d="M 166.390625 130.207031 L 166.390625 130.207031 "/>
<path style="fill:none;stroke-width:1;stroke-linecap:butt;stroke-linejoin:miter;stroke:rgb(100%,80%,0%);stroke-opacity:1;stroke-miterlimit:10;" d="M 185.558594 150.414062 L 185.558594 150.414062 "/>
<path style="fill:none;stroke-width:1;stroke-linecap:butt;stroke-linejoin:miter;stroke:rgb(100%,80%,0%);stroke-opacity:1;stroke-miterlimit:10;" d="M 185.558594 150.414062 L 185.558594 150.414062 "/>
<path style="fill:none;stroke-width:1;stroke-linecap:butt;stroke-linejoin:miter;stroke:rgb(100%,80%,0%);stroke-opacity:1;stroke-miterlimit:10;" d="M 204.730469 170.621094 L 204.730469 170.621094 "/>
<path style="fill:none;stroke-width:1;stroke-linecap:butt;stroke-linejoin:miter;stroke:rgb(100%,80%,0%);stroke-opacity:1;stroke-miterlimit:10;" d="M 204.730469 170.621094 L 204.730469 170.621094 "/>
<path style="fill:none;stroke-width:1;stroke-linecap:butt;stroke-linejoin:miter;stroke:rgb(100%,80%,0%);stroke-opacity:1;stroke-miterlimit:10;" d="M 204.730469 130.207031 L 204.730469 130.207031 "/>
<path style="fill:none;stroke-width:1;stroke-linecap:butt;stroke-linejoin:miter;stroke:rgb(100%,80%,0%);stroke-opacity:1;stroke-miterlimit:10;" d="M 204.730469 130.207031 L 204.730469 130.207031 "/>
<path style="fill:none;stroke-width:1;stroke-linecap:butt;stroke-linejoin:miter;stroke:rgb(100%,80%,0%);stroke-opacity:1;stroke-miterlimit:10;" d="M 172.78125 190.828125 L 172.78125 190.828125 "/>
<path style="fill:none;stroke-width:1;stroke-linecap:butt;stroke-linejoin:miter;stroke:rgb(100%,80%,0%);stroke-opacity:1;stroke-miterlimit:10;" d="M 172.78125 190.828125 L 172.78125 190.828125 "/>
<path style="fill:none;stroke-width:1;stroke-linecap:butt;stroke-linejoin:miter;stroke:rgb(100%,80%,0%);stroke-opacity:1;stroke-miterlimit:10;" d="M 191.949219 170.621094 L 191.949219 170.621094 "/>
<path style="fill:none;stroke-width:1;stroke-linecap:butt;stroke-linejoin:miter;stroke:rgb(100%,80%,0%);stroke-opacity:1;stroke-miterlimit:10;" d="M 191.949219 170.621094 L 191.949219 170.621094 "/>
<path style="fill:none;stroke-width:1;stroke-linecap:butt;stroke-linejoin:miter;stroke:rgb(100%,80%,0%);stroke-opacity:1;stroke-miterlimit:10;" d="M 179.171875 170.621094 L 179.171875 170.621094 "/>
<path style="fill:none;stroke-width:1;stroke-linecap:butt;stroke-linejoin:miter;stroke:rgb(100%,80%,0%);stroke-opacity:1;stroke-miterlimit:10;" d="M 198.339844 190.828125 L 198.339844 190.828125 "/>
<path style="fill:none;stroke-width:1;stroke-linecap:butt;stroke-linejoin:miter;stroke:rgb(100%,80%,0%);stroke-opacity:1;stroke-miterlimit:10;" d="M 198.339844 190.828125 L 198.339844 190.828125 "/>
<path style="fill:none;stroke-width:1;stroke-linecap:butt;stroke-linejoin:miter;stroke:rgb(100%,80%,0%);stroke-opacity:1;stroke-miterlimit:10;" d="M 172.78125 150.414062 L 172.78125 150.414062 "/>
<path style="fill:none;stroke-width:1;stroke-linecap:butt;stroke-linejoin:miter;stroke:rgb(100%,80%,0%);stroke-opacity:1;stroke-miterlimit:10;" d="M 172.78125 150.414062 L 172.78125 150.414062 "/>
<path style="fill:none;stroke-width:1;stroke-linecap:butt;stroke-linejoin:miter;stroke:rgb(100%,80%,0%);stroke-opacity:1;stroke-miterlimit:10;" d="M 191.949219 130.207031 L 191.949219 130.207031 "/>
<path style="fill:none;stroke-width:1;stroke-linecap:butt;stroke-linejoin:miter;stroke:rgb(100%,80%,0%);stroke-opacity:1;stroke-miterlimit:10;" d="M 191.949219 130.207031 L 191.949219 130.207031 "/>
<path style="fill:none;stroke-width:1;stroke-linecap:butt;stroke-linejoin:miter;stroke:rgb(100%,80%,0%);stroke-opacity:1;stroke-miterlimit:10;" d="M 179.171875 130.207031 L 179.171875 130.207031 "/>
<path style="fill:none;stroke-width:1;stroke-linecap:butt;stroke-linejoin:miter;stroke:rgb(100%,80%,0%);stroke-opacity:1;stroke-miterlimit:10;" d="M 198.339844 150.414062 L 198.339844 150.414062 "/>
<path style="fill:none;stroke-width:1;stroke-linecap:butt;stroke-linejoin:miter;stroke:rgb(100%,80%,0%);stroke-opacity:1;stroke-miterlimit:10;" d="M 198.339844 150.414062 L 198.339844 150.414062 "/>
<path style="fill:none;stroke-width:1;stroke-linecap:butt;stroke-linejoin:miter;stroke:rgb(100%,80%,0%);stroke-opacity:1;stroke-miterlimit:10;" d="M 211.121094 190.828125 L 211.121094 190.828125 "/>
<path style="fill:none;stroke-width:1;stroke-linecap:butt;stroke-linejoin:miter;stroke:rgb(100%,80%,0%);stroke-opacity:1;stroke-miterlimit:10;" d="M 211.121094 190.828125 L 211.121094 190.828125 "/>
<path style="fill:none;stroke-width:1;stroke-linecap:butt;stroke-linejoin:miter;stroke:rgb(100%,80%,0%);stroke-opacity:1;stroke-miterlimit:10;" d="M 217.511719 170.621094 L 217.511719 170.621094 "/>
<path style="fill:none;stroke-width:1;stroke-linecap:butt;stroke-linejoin:miter;stroke:rgb(100%,80%,0%);stroke-opacity:1;stroke-miterlimit:10;" d="M 217.511719 170.621094 L 217.511719 170.621094 "/>
<path style="fill:none;stroke-width:1;stroke-linecap:butt;stroke-linejoin:miter;stroke:rgb(100%,80%,0%);stroke-opacity:1;stroke-miterlimit:10;" d="M 211.121094 150.414062 L 211.121094 150.414062 "/>
<path style="fill:none;stroke-width:1;stroke-linecap:butt;stroke-linejoin:miter;stroke:rgb(100%,80%,0%);stroke-opacity:1;stroke-miterlimit:10;" d="M 211.121094 150.414062 L 211.121094 150.414062 "/>
<path style="fill:none;stroke-width:1;stroke-linecap:butt;stroke-linejoin:miter;stroke:rgb(100%,80%,0%);stroke-opacity:1;stroke-miterlimit:10;" d="M 217.511719 130.207031 L 217.511719 130.207031 "/>
<path style="fill:none;stroke-width:1;stroke-linecap:butt;stroke-linejoin:miter;stroke:rgb(100%,80%,0%);stroke-opacity:1;stroke-miterlimit:10;" d="M 217.511719 130.207031 L 217.511719 130.207031 "/>
</g>
</svg>
