<?xml version="1.0" encoding="UTF-8"?>
<svg xmlns="http://www.w3.org/2000/svg" xmlns:xlink="http://www.w3.org/1999/xlink" width="300pt" height="200pt" viewBox="0 0 300 200" version="1.1">
<g id="surface1">
<rect x="0" y="0" width="300" height="200" style="fill:rgb(80%,80%,80%);fill-opacity:1;stroke:none;"/>
<path style=" stroke:none;fill-rule:nonzero;fill:rgb(0%,0%,0%);fill-opacity:1;" d="M 162 143 C 162 145.667969 158 145.667969 158 143 C 158 140.332031 162 140.332031 162 143 "/>
<path style="fill:none;stroke-width:1;stroke-linecap:butt;stroke-linejoin:miter;stroke:rgb(0%,0%,0%);stroke-opacity:1;stroke-miterlimit:10;" d="M 60 143 L 260 143 "/>
<path style="fill:none;stroke-width:1;stroke-linecap:butt;stroke-linejoin:miter;stroke:rgb(0%,0%,0%);stroke-opacity:1;stroke-miterlimit:10;" d="M 160 163 L 160 43 "/>
<path style=" stroke:none;fill-rule:nonzero;fill:rgb(100%,0%,0%);fill-opacity:1;" d="M 162 143 C 162 145.667969 158 145.667969 158 143 C 158 140.332031 162 140.332031 162 143 "/>
<path style="fill:none;stroke-width:1;stroke-linecap:butt;stroke-linejoin:miter;stroke:rgb(100%,0%,0%);stroke-opacity:1;stroke-miterlimit:10;" d="M 174.859375 139.046875 C 174.859375 143.046875 168.859375 143.046875 168.859375 139.046875 C 168.859375 135.046875 174.859375 135.046875 174.859375 139.046875 "/>
<path style=" stroke:none;fill-rule:nonzero;fill:rgb(100%,0%,0%);fill-opacity:1;" d="M 169.90625 127.1875 C 169.90625 129.855469 165.90625 129.855469 165.90625 127.1875 C 165.90625 124.523438 169.90625 124.523438 169.90625 127.1875 "/>
<path style="fill:none;stroke-width:1;stroke-linecap:butt;stroke-linejoin:miter;stroke:rgb(100%,0%,0%);stroke-opacity:1;stroke-miterlimit:10;" d="M 246.011719 75.800781 C 246.011719 79.800781 240.011719 79.800781 240.011719 75.800781 C 240.011719 71.800781 246.011719 71.800781 246.011719 75.800781 "/>
<path style="fill:none;stroke-width:1;stroke-linecap:butt;stroke-linejoin:miter;stroke:rgb(100%,0%,0%);stroke-opacity:1;stroke-miterlimit:10;" d="M 166.953125 115.328125 C 166.953125 119.328125 160.953125 119.328125 160.953125 115.328125 C 160.953125 111.328125 166.953125 111.328125 166.953125 115.328125 "/>
<path style=" stroke:none;fill-rule:nonzero;fill:rgb(100%,0%,0%);fill-opacity:1;" d="M 162 103.472656 C 162 106.136719 158 106.136719 158 103.472656 C 158 100.804688 162 100.804688 162 103.472656 "/>
<path style=" stroke:none;fill-rule:nonzero;fill:rgb(100%,0%,0%);fill-opacity:1;" d="M 241.058594 63.941406 C 241.058594 66.609375 237.058594 66.609375 237.058594 63.941406 C 237.058594 61.277344 241.058594 61.277344 241.058594 63.941406 "/>
<path style="fill:none;stroke-width:1;stroke-linecap:butt;stroke-linejoin:miter;stroke:rgb(100%,0%,0%);stroke-opacity:1;stroke-miterlimit:10;" d="M 238.105469 131.140625 C 238.105469 135.140625 232.105469 135.140625 232.105469 131.140625 C 232.105469 127.140625 238.105469 127.140625 238.105469 131.140625 "/>
<path style=" stroke:none;fill-rule:nonzero;fill:rgb(100%,0%,0%);fill-opacity:1;" d="M 233.152344 119.28125 C 233.152344 121.949219 229.152344 121.949219 229.152344 119.28125 C 229.152344 116.617188 233.152344 116.617188 233.152344 119.28125 "/>
<path style="fill:none;stroke-width:1;stroke-linecap:butt;stroke-linejoin:miter;stroke:rgb(100%,0%,0%);stroke-opacity:1;stroke-miterlimit:10;" d="M 230.199219 107.425781 C 230.199219 111.425781 224.199219 111.425781 224.199219 107.425781 C 224.199219 103.425781 230.199219 103.425781 230.199219 107.425781 "/>
<path style="fill:none;stroke-width:1;stroke-linecap:butt;stroke-linejoin:miter;stroke:rgb(100%,0%,0%);stroke-opacity:1;stroke-miterlimit:10;" d="M 246.011719 115.328125 C 246.011719 119.328125 240.011719 119.328125 240.011719 115.328125 C 240.011719 111.328125 246.011719 111.328125 246.011719 115.328125 "/>
<path style=" stroke:none;fill-rule:nonzero;fill:rgb(100%,0%,0%);fill-opacity:1;" d="M 241.058594 103.472656 C 241.058594 106.136719 237.058594 106.136719 237.058594 103.472656 C 237.058594 100.804688 241.058594 100.804688 241.058594 103.472656 "/>
<path style=" stroke:none;fill-rule:nonzero;fill:rgb(100%,0%,0%);fill-opacity:1;" d="M 185.71875 135.09375 C 185.71875 137.761719 181.71875 137.761719 181.71875 135.09375 C 181.71875 132.425781 185.71875 132.425781 185.71875 135.09375 "/>
<path style="fill:none;stroke-width:1;stroke-linecap:butt;stroke-linejoin:miter;stroke:rgb(100%,0%,0%);stroke-opacity:1;stroke-miterlimit:10;" d="M 182.765625 123.234375 C 182.765625 127.234375 176.765625 127.234375 176.765625 123.234375 C 176.765625 119.234375 182.765625 119.234375 182.765625 123.234375 "/>
<path style="fill:none;stroke-width:1;stroke-linecap:butt;stroke-linejoin:miter;stroke:rgb(100%,0%,0%);stroke-opacity:1;stroke-miterlimit:10;" d="M 198.574219 131.140625 C 198.574219 135.140625 192.574219 135.140625 192.574219 131.140625 C 192.574219 127.140625 198.574219 127.140625 198.574219 131.140625 "/>
<path style=" stroke:none;fill-rule:nonzero;fill:rgb(100%,0%,0%);fill-opacity:1;" d="M 193.621094 119.28125 C 193.621094 121.949219 189.621094 121.949219 189.621094 119.28125 C 189.621094 116.617188 193.621094 116.617188 193.621094 119.28125 "/>
<path style=" stroke:none;fill-rule:nonzero;fill:rgb(100%,0%,0%);fill-opacity:1;" d="M 177.8125 111.378906 C 177.8125 114.042969 173.8125 114.042969 173.8125 111.378906 C 173.8125 108.710938 177.8125 108.710938 177.8125 111.378906 "/>
<path style="fill:none;stroke-width:1;stroke-linecap:butt;stroke-linejoin:miter;stroke:rgb(100%,0%,0%);stroke-opacity:1;stroke-miterlimit:10;" d="M 174.859375 99.519531 C 174.859375 103.519531 168.859375 103.519531 168.859375 99.519531 C 168.859375 95.519531 174.859375 95.519531 174.859375 99.519531 "/>
<path style="fill:none;stroke-width:1;stroke-linecap:butt;stroke-linejoin:miter;stroke:rgb(100%,0%,0%);stroke-opacity:1;stroke-miterlimit:10;" d="M 190.671875 107.425781 C 190.671875 111.425781 184.671875 111.425781 184.671875 107.425781 C 184.671875 103.425781 190.671875 103.425781 190.671875 107.425781 "/>
<path style=" stroke:none;fill-rule:nonzero;fill:rgb(100%,0%,0%);fill-opacity:1;" d="M 185.71875 95.566406 C 185.71875 98.234375 181.71875 98.234375 181.71875 95.566406 C 181.71875 92.898438 185.71875 92.898438 185.71875 95.566406 "/>
<path style=" stroke:none;fill-rule:nonzero;fill:rgb(100%,0%,0%);fill-opacity:1;" d="M 169.90625 87.660156 C 169.90625 90.328125 165.90625 90.328125 165.90625 87.660156 C 165.90625 84.992188 169.90625 84.992188 169.90625 87.660156 "/>
<path style="fill:none;stroke-width:1;stroke-linecap:butt;stroke-linejoin:miter;stroke:rgb(100%,0%,0%);stroke-opacity:1;stroke-miterlimit:10;" d="M 166.953125 75.800781 C 166.953125 79.800781 160.953125 79.800781 160.953125 75.800781 C 160.953125 71.800781 166.953125 71.800781 166.953125 75.800781 "/>
<path style="fill:none;stroke-width:1;stroke-linecap:butt;stroke-linejoin:miter;stroke:rgb(100%,0%,0%);stroke-opacity:1;stroke-miterlimit:10;" d="M 182.765625 83.707031 C 182.765625 87.707031 176.765625 87.707031 176.765625 83.707031 C 176.765625 79.707031 182.765625 79.707031 182.765625 83.707031 "/>
<path style=" stroke:none;fill-rule:nonzero;fill:rgb(100%,0%,0%);fill-opacity:1;" d="M 177.8125 71.847656 C 177.8125 74.515625 173.8125 74.515625 173.8125 71.847656 C 173.8125 69.183594 177.8125 69.183594 177.8125 71.847656 "/>
<path style=" stroke:none;fill-rule:nonzero;fill:rgb(100%,0%,0%);fill-opacity:1;" d="M 162 63.941406 C 162 66.609375 158 66.609375 158 63.941406 C 158 61.277344 162 61.277344 162 63.941406 "/>
<path style="fill:none;stroke-width:1;stroke-linecap:butt;stroke-linejoin:miter;stroke:rgb(100%,0%,0%);stroke-opacity:1;stroke-miterlimit:10;" d="M 174.859375 139.046875 C 174.859375 143.046875 168.859375 143.046875 168.859375 139.046875 C 168.859375 135.046875 174.859375 135.046875 174.859375 139.046875 "/>
<path style=" stroke:none;fill-rule:nonzero;fill:rgb(100%,0%,0%);fill-opacity:1;" d="M 169.90625 127.1875 C 169.90625 129.855469 165.90625 129.855469 165.90625 127.1875 C 165.90625 124.523438 169.90625 124.523438 169.90625 127.1875 "/>
<path style=" stroke:none;fill-rule:nonzero;fill:rgb(100%,0%,0%);fill-opacity:1;" d="M 209.433594 127.1875 C 209.433594 129.855469 205.433594 129.855469 205.433594 127.1875 C 205.433594 124.523438 209.433594 124.523438 209.433594 127.1875 "/>
<path style="fill:none;stroke-width:1;stroke-linecap:butt;stroke-linejoin:miter;stroke:rgb(100%,0%,0%);stroke-opacity:1;stroke-miterlimit:10;" d="M 206.480469 115.328125 C 206.480469 119.328125 200.480469 119.328125 200.480469 115.328125 C 200.480469 111.328125 206.480469 111.328125 206.480469 115.328125 "/>
<path style="fill:none;stroke-width:1;stroke-linecap:butt;stroke-linejoin:miter;stroke:rgb(100%,0%,0%);stroke-opacity:1;stroke-miterlimit:10;" d="M 222.292969 123.234375 C 222.292969 127.234375 216.292969 127.234375 216.292969 123.234375 C 216.292969 119.234375 222.292969 119.234375 222.292969 123.234375 "/>
<path style=" stroke:none;fill-rule:nonzero;fill:rgb(100%,0%,0%);fill-opacity:1;" d="M 217.339844 111.378906 C 217.339844 114.042969 213.339844 114.042969 213.339844 111.378906 C 213.339844 108.710938 217.339844 108.710938 217.339844 111.378906 "/>
<path style=" stroke:none;fill-rule:nonzero;fill:rgb(100%,0%,0%);fill-opacity:1;" d="M 201.527344 103.472656 C 201.527344 106.136719 197.527344 106.136719 197.527344 103.472656 C 197.527344 100.804688 201.527344 100.804688 201.527344 103.472656 "/>
<path style="fill:none;stroke-width:1;stroke-linecap:butt;stroke-linejoin:miter;stroke:rgb(100%,0%,0%);stroke-opacity:1;stroke-miterlimit:10;" d="M 198.574219 91.613281 C 198.574219 95.613281 192.574219 95.613281 192.574219 91.613281 C 192.574219 87.613281 198.574219 87.613281 198.574219 91.613281 "/>
<path style="fill:none;stroke-width:1;stroke-linecap:butt;stroke-linejoin:miter;stroke:rgb(100%,0%,0%);stroke-opacity:1;stroke-miterlimit:10;" d="M 214.386719 99.519531 C 214.386719 103.519531 208.386719 103.519531 208.386719 99.519531 C 208.386719 95.519531 214.386719 95.519531 214.386719 99.519531 "/>
<path style=" stroke:none;fill-rule:nonzero;fill:rgb(100%,0%,0%);fill-opacity:1;" d="M 209.433594 87.660156 C 209.433594 90.328125 205.433594 90.328125 205.433594 87.660156 C 205.433594 84.992188 209.433594 84.992188 209.433594 87.660156 "/>
<path style=" stroke:none;fill-rule:nonzero;fill:rgb(100%,0%,0%);fill-opacity:1;" d="M 193.621094 79.753906 C 193.621094 82.421875 189.621094 82.421875 189.621094 79.753906 C 189.621094 77.085938 193.621094 77.085938 193.621094 79.753906 "/>
<path style="fill:none;stroke-width:1;stroke-linecap:butt;stroke-linejoin:miter;stroke:rgb(100%,0%,0%);stroke-opacity:1;stroke-miterlimit:10;" d="M 190.671875 67.894531 C 190.671875 71.894531 184.671875 71.894531 184.671875 67.894531 C 184.671875 63.894531 190.671875 63.894531 190.671875 67.894531 "/>
<path style="fill:none;stroke-width:1;stroke-linecap:butt;stroke-linejoin:miter;stroke:rgb(100%,0%,0%);stroke-opacity:1;stroke-miterlimit:10;" d="M 206.480469 75.800781 C 206.480469 79.800781 200.480469 79.800781 200.480469 75.800781 C 200.480469 71.800781 206.480469 71.800781 206.480469 75.800781 "/>
<path style=" stroke:none;fill-rule:nonzero;fill:rgb(100%,0%,0%);fill-opacity:1;" d="M 201.527344 143 C 201.527344 145.667969 197.527344 145.667969 197.527344 143 C 197.527344 140.332031 201.527344 140.332031 201.527344 143 "/>
<path style=" stroke:none;fill-rule:nonzero;fill:rgb(100%,0%,0%);fill-opacity:1;" d="M 185.71875 135.09375 C 185.71875 137.761719 181.71875 137.761719 181.71875 135.09375 C 181.71875 132.425781 185.71875 132.425781 185.71875 135.09375 "/>
<path style="fill:none;stroke-width:1;stroke-linecap:butt;stroke-linejoin:miter;stroke:rgb(100%,0%,0%);stroke-opacity:1;stroke-miterlimit:10;" d="M 182.765625 123.234375 C 182.765625 127.234375 176.765625 127.234375 176.765625 123.234375 C 176.765625 119.234375 182.765625 119.234375 182.765625 123.234375 "/>
<path style="fill:none;stroke-width:1;stroke-linecap:butt;stroke-linejoin:miter;stroke:rgb(100%,0%,0%);stroke-opacity:1;stroke-miterlimit:10;" d="M 198.574219 131.140625 C 198.574219 135.140625 192.574219 135.140625 192.574219 131.140625 C 192.574219 127.140625 198.574219 127.140625 198.574219 131.140625 "/>
<path style=" stroke:none;fill-rule:nonzero;fill:rgb(100%,0%,0%);fill-opacity:1;" d="M 225.246094 135.09375 C 225.246094 137.761719 221.246094 137.761719 221.246094 135.09375 C 221.246094 132.425781 225.246094 132.425781 225.246094 135.09375 "/>
<path style=" stroke:none;fill-rule:nonzero;fill:rgb(100%,0%,0%);fill-opacity:1;" d="M 233.152344 119.28125 C 233.152344 121.949219 229.152344 121.949219 229.152344 119.28125 C 229.152344 116.617188 233.152344 116.617188 233.152344 119.28125 "/>
<path style="fill:none;stroke-width:1;stroke-linecap:butt;stroke-linejoin:miter;stroke:rgb(100%,0%,0%);stroke-opacity:1;stroke-miterlimit:10;" d="M 230.199219 107.425781 C 230.199219 111.425781 224.199219 111.425781 224.199219 107.425781 C 224.199219 103.425781 230.199219 103.425781 230.199219 107.425781 "/>
<path style="fill:none;stroke-width:1;stroke-linecap:butt;stroke-linejoin:miter;stroke:rgb(100%,0%,0%);stroke-opacity:1;stroke-miterlimit:10;" d="M 246.011719 115.328125 C 246.011719 119.328125 240.011719 119.328125 240.011719 115.328125 C 240.011719 111.328125 246.011719 111.328125 246.011719 115.328125 "/>
<path style=" stroke:none;fill-rule:nonzero;fill:rgb(100%,0%,0%);fill-opacity:1;" d="M 241.058594 103.472656 C 241.058594 106.136719 237.058594 106.136719 237.058594 103.472656 C 237.058594 100.804688 241.058594 100.804688 241.058594 103.472656 "/>
<path style=" stroke:none;fill-rule:nonzero;fill:rgb(100%,0%,0%);fill-opacity:1;" d="M 225.246094 95.566406 C 225.246094 98.234375 221.246094 98.234375 221.246094 95.566406 C 221.246094 92.898438 225.246094 92.898438 225.246094 95.566406 "/>
<path style="fill:none;stroke-width:1;stroke-linecap:butt;stroke-linejoin:miter;stroke:rgb(100%,0%,0%);stroke-opacity:1;stroke-miterlimit:10;" d="M 222.292969 83.707031 C 222.292969 87.707031 216.292969 87.707031 216.292969 83.707031 C 216.292969 79.707031 222.292969 79.707031 222.292969 83.707031 "/>
<path style="fill:none;stroke-width:1;stroke-linecap:butt;stroke-linejoin:miter;stroke:rgb(100%,0%,0%);stroke-opacity:1;stroke-miterlimit:10;" d="M 238.105469 91.613281 C 238.105469 95.613281 232.105469 95.613281 232.105469 91.613281 C 232.105469 87.613281 238.105469 87.613281 238.105469 91.613281 "/>
<path style=" stroke:none;fill-rule:nonzero;fill:rgb(100%,0%,0%);fill-opacity:1;" d="M 233.152344 79.753906 C 233.152344 82.421875 229.152344 82.421875 229.152344 79.753906 C 229.152344 77.085938 233.152344 77.085938 233.152344 79.753906 "/>
<path style=" stroke:none;fill-rule:nonzero;fill:rgb(100%,0%,0%);fill-opacity:1;" d="M 217.339844 71.847656 C 217.339844 74.515625 213.339844 74.515625 213.339844 71.847656 C 213.339844 69.183594 217.339844 69.183594 217.339844 71.847656 "/>
<path style="fill:none;stroke-width:1;stroke-linecap:butt;stroke-linejoin:miter;stroke:rgb(100%,0%,0%);stroke-opacity:1;stroke-miterlimit:10;" d="M 214.386719 139.046875 C 214.386719 143.046875 208.386719 143.046875 208.386719 139.046875 C 208.386719 135.046875 214.386719 135.046875 214.386719 139.046875 "/>
<path style="fill:none;stroke-width:1;stroke-linecap:butt;stroke-linejoin:miter;stroke:rgb(100%,0%,0%);stroke-opacity:1;stroke-miterlimit:10;" d="M 230.199219 67.894531 C 230.199219 71.894531 224.199219 71.894531 224.199219 67.894531 C 224.199219 63.894531 230.199219 63.894531 230.199219 67.894531 "/>
<path style=" stroke:none;fill-rule:nonzero;fill:rgb(100%,0%,0%);fill-opacity:1;" d="M 225.246094 135.09375 C 225.246094 137.761719 221.246094 137.761719 221.246094 135.09375 C 221.246094 132.425781 225.246094 132.425781 225.246094 135.09375 "/>
<path style=" stroke:none;fill-rule:nonzero;fill:rgb(100%,0%,0%);fill-opacity:1;" d="M 209.433594 127.1875 C 209.433594 129.855469 205.433594 129.855469 205.433594 127.1875 C 205.433594 124.523438 209.433594 124.523438 209.433594 127.1875 "/>
<path style="fill:none;stroke-width:1;stroke-linecap:butt;stroke-linejoin:miter;stroke:rgb(100%,0%,0%);stroke-opacity:1;stroke-miterlimit:10;" d="M 238.105469 131.140625 C 238.105469 135.140625 232.105469 135.140625 232.105469 131.140625 C 232.105469 127.140625 238.105469 127.140625 238.105469 131.140625 "/>
<path style="fill:none;stroke-width:1;stroke-linecap:butt;stroke-linejoin:miter;stroke:rgb(100%,0%,0%);stroke-opacity:1;stroke-miterlimit:10;" d="M 222.292969 123.234375 C 222.292969 127.234375 216.292969 127.234375 216.292969 123.234375 C 216.292969 119.234375 222.292969 119.234375 222.292969 123.234375 "/>
<path style=" stroke:none;fill-rule:nonzero;fill:rgb(100%,0%,0%);fill-opacity:1;" d="M 162 143 C 162 145.667969 158 145.667969 158 143 C 158 140.332031 162 140.332031 162 143 "/>
<path style="fill:none;stroke-width:1;stroke-linecap:butt;stroke-linejoin:miter;stroke:rgb(100%,0%,0%);stroke-opacity:1;stroke-miterlimit:10;" d="M 151.140625 139.046875 C 151.140625 143.046875 145.140625 143.046875 145.140625 139.046875 C 145.140625 135.046875 151.140625 135.046875 151.140625 139.046875 "/>
<path style=" stroke:none;fill-rule:nonzero;fill:rgb(100%,0%,0%);fill-opacity:1;" d="M 154.09375 127.1875 C 154.09375 129.855469 150.09375 129.855469 150.09375 127.1875 C 150.09375 124.523438 154.09375 124.523438 154.09375 127.1875 "/>
<path style="fill:none;stroke-width:1;stroke-linecap:butt;stroke-linejoin:miter;stroke:rgb(100%,0%,0%);stroke-opacity:1;stroke-miterlimit:10;" d="M 79.988281 75.800781 C 79.988281 79.800781 73.988281 79.800781 73.988281 75.800781 C 73.988281 71.800781 79.988281 71.800781 79.988281 75.800781 "/>
<path style="fill:none;stroke-width:1;stroke-linecap:butt;stroke-linejoin:miter;stroke:rgb(100%,0%,0%);stroke-opacity:1;stroke-miterlimit:10;" d="M 159.046875 115.328125 C 159.046875 119.328125 153.046875 119.328125 153.046875 115.328125 C 153.046875 111.328125 159.046875 111.328125 159.046875 115.328125 "/>
<path style=" stroke:none;fill-rule:nonzero;fill:rgb(100%,0%,0%);fill-opacity:1;" d="M 162 103.472656 C 162 106.136719 158 106.136719 158 103.472656 C 158 100.804688 162 100.804688 162 103.472656 "/>
<path style=" stroke:none;fill-rule:nonzero;fill:rgb(100%,0%,0%);fill-opacity:1;" d="M 82.941406 63.941406 C 82.941406 66.609375 78.941406 66.609375 78.941406 63.941406 C 78.941406 61.277344 82.941406 61.277344 82.941406 63.941406 "/>
<path style="fill:none;stroke-width:1;stroke-linecap:butt;stroke-linejoin:miter;stroke:rgb(100%,0%,0%);stroke-opacity:1;stroke-miterlimit:10;" d="M 87.894531 131.140625 C 87.894531 135.140625 81.894531 135.140625 81.894531 131.140625 C 81.894531 127.140625 87.894531 127.140625 87.894531 131.140625 "/>
<path style=" stroke:none;fill-rule:nonzero;fill:rgb(100%,0%,0%);fill-opacity:1;" d="M 90.847656 119.28125 C 90.847656 121.949219 86.847656 121.949219 86.847656 119.28125 C 86.847656 116.617188 90.847656 116.617188 90.847656 119.28125 "/>
<path style="fill:none;stroke-width:1;stroke-linecap:butt;stroke-linejoin:miter;stroke:rgb(100%,0%,0%);stroke-opacity:1;stroke-miterlimit:10;" d="M 95.800781 107.425781 C 95.800781 111.425781 89.800781 111.425781 89.800781 107.425781 C 89.800781 103.425781 95.800781 103.425781 95.800781 107.425781 "/>
<path style="fill:none;stroke-width:1;stroke-linecap:butt;stroke-linejoin:miter;stroke:rgb(100%,0%,0%);stroke-opacity:1;stroke-miterlimit:10;" d="M 79.988281 115.328125 C 79.988281 119.328125 73.988281 119.328125 73.988281 115.328125 C 73.988281 111.328125 79.988281 111.328125 79.988281 115.328125 "/>
<path style=" stroke:none;fill-rule:nonzero;fill:rgb(100%,0%,0%);fill-opacity:1;" d="M 82.941406 103.472656 C 82.941406 106.136719 78.941406 106.136719 78.941406 103.472656 C 78.941406 100.804688 82.941406 100.804688 82.941406 103.472656 "/>
<path style=" stroke:none;fill-rule:nonzero;fill:rgb(100%,0%,0%);fill-opacity:1;" d="M 138.28125 135.09375 C 138.28125 137.761719 134.28125 137.761719 134.28125 135.09375 C 134.28125 132.425781 138.28125 132.425781 138.28125 135.09375 "/>
<path style="fill:none;stroke-width:1;stroke-linecap:butt;stroke-linejoin:miter;stroke:rgb(100%,0%,0%);stroke-opacity:1;stroke-miterlimit:10;" d="M 143.234375 123.234375 C 143.234375 127.234375 137.234375 127.234375 137.234375 123.234375 C 137.234375 119.234375 143.234375 119.234375 143.234375 123.234375 "/>
<path style="fill:none;stroke-width:1;stroke-linecap:butt;stroke-linejoin:miter;stroke:rgb(100%,0%,0%);stroke-opacity:1;stroke-miterlimit:10;" d="M 127.425781 131.140625 C 127.425781 135.140625 121.425781 135.140625 121.425781 131.140625 C 121.425781 127.140625 127.425781 127.140625 127.425781 131.140625 "/>
<path style=" stroke:none;fill-rule:nonzero;fill:rgb(100%,0%,0%);fill-opacity:1;" d="M 130.378906 119.28125 C 130.378906 121.949219 126.378906 121.949219 126.378906 119.28125 C 126.378906 116.617188 130.378906 116.617188 130.378906 119.28125 "/>
<path style=" stroke:none;fill-rule:nonzero;fill:rgb(100%,0%,0%);fill-opacity:1;" d="M 146.1875 111.378906 C 146.1875 114.042969 142.1875 114.042969 142.1875 111.378906 C 142.1875 108.710938 146.1875 108.710938 146.1875 111.378906 "/>
<path style="fill:none;stroke-width:1;stroke-linecap:butt;stroke-linejoin:miter;stroke:rgb(100%,0%,0%);stroke-opacity:1;stroke-miterlimit:10;" d="M 151.140625 99.519531 C 151.140625 103.519531 145.140625 103.519531 145.140625 99.519531 C 145.140625 95.519531 151.140625 95.519531 151.140625 99.519531 "/>
<path style="fill:none;stroke-width:1;stroke-linecap:butt;stroke-linejoin:miter;stroke:rgb(100%,0%,0%);stroke-opacity:1;stroke-miterlimit:10;" d="M 135.328125 107.425781 C 135.328125 111.425781 129.328125 111.425781 129.328125 107.425781 C 129.328125 103.425781 135.328125 103.425781 135.328125 107.425781 "/>
<path style=" stroke:none;fill-rule:nonzero;fill:rgb(100%,0%,0%);fill-opacity:1;" d="M 138.28125 95.566406 C 138.28125 98.234375 134.28125 98.234375 134.28125 95.566406 C 134.28125 92.898438 138.28125 92.898438 138.28125 95.566406 "/>
<path style=" stroke:none;fill-rule:nonzero;fill:rgb(100%,0%,0%);fill-opacity:1;" d="M 154.09375 87.660156 C 154.09375 90.328125 150.09375 90.328125 150.09375 87.660156 C 150.09375 84.992188 154.09375 84.992188 154.09375 87.660156 "/>
<path style="fill:none;stroke-width:1;stroke-linecap:butt;stroke-linejoin:miter;stroke:rgb(100%,0%,0%);stroke-opacity:1;stroke-miterlimit:10;" d="M 159.046875 75.800781 C 159.046875 79.800781 153.046875 79.800781 153.046875 75.800781 C 153.046875 71.800781 159.046875 71.800781 159.046875 75.800781 "/>
<path style="fill:none;stroke-width:1;stroke-linecap:butt;stroke-linejoin:miter;stroke:rgb(100%,0%,0%);stroke-opacity:1;stroke-miterlimit:10;" d="M 143.234375 83.707031 C 143.234375 87.707031 137.234375 87.707031 137.234375 83.707031 C 137.234375 79.707031 143.234375 79.707031 143.234375 83.707031 "/>
<path style=" stroke:none;fill-rule:nonzero;fill:rgb(100%,0%,0%);fill-opacity:1;" d="M 146.1875 71.847656 C 146.1875 74.515625 142.1875 74.515625 142.1875 71.847656 C 142.1875 69.183594 146.1875 69.183594 146.1875 71.847656 "/>
<path style=" stroke:none;fill-rule:nonzero;fill:rgb(100%,0%,0%);fill-opacity:1;" d="M 162 63.941406 C 162 66.609375 158 66.609375 158 63.941406 C 158 61.277344 162 61.277344 162 63.941406 "/>
<path style="fill:none;stroke-width:1;stroke-linecap:butt;stroke-linejoin:miter;stroke:rgb(100%,0%,0%);stroke-opacity:1;stroke-miterlimit:10;" d="M 151.140625 139.046875 C 151.140625 143.046875 145.140625 143.046875 145.140625 139.046875 C 145.140625 135.046875 151.140625 135.046875 151.140625 139.046875 "/>
<path style=" stroke:none;fill-rule:nonzero;fill:rgb(100%,0%,0%);fill-opacity:1;" d="M 154.09375 127.1875 C 154.09375 129.855469 150.09375 129.855469 150.09375 127.1875 C 150.09375 124.523438 154.09375 124.523438 154.09375 127.1875 "/>
<path style=" stroke:none;fill-rule:nonzero;fill:rgb(100%,0%,0%);fill-opacity:1;" d="M 114.566406 127.1875 C 114.566406 129.855469 110.566406 129.855469 110.566406 127.1875 C 110.566406 124.523438 114.566406 124.523438 114.566406 127.1875 "/>
<path style="fill:none;stroke-width:1;stroke-linecap:butt;stroke-linejoin:miter;stroke:rgb(100%,0%,0%);stroke-opacity:1;stroke-miterlimit:10;" d="M 119.519531 115.328125 C 119.519531 119.328125 113.519531 119.328125 113.519531 115.328125 C 113.519531 111.328125 119.519531 111.328125 119.519531 115.328125 "/>
<path style="fill:none;stroke-width:1;stroke-linecap:butt;stroke-linejoin:miter;stroke:rgb(100%,0%,0%);stroke-opacity:1;stroke-miterlimit:10;" d="M 103.707031 123.234375 C 103.707031 127.234375 97.707031 127.234375 97.707031 123.234375 C 97.707031 119.234375 103.707031 119.234375 103.707031 123.234375 "/>
<path style=" stroke:none;fill-rule:nonzero;fill:rgb(100%,0%,0%);fill-opacity:1;" d="M 106.660156 111.378906 C 106.660156 114.042969 102.660156 114.042969 102.660156 111.378906 C 102.660156 108.710938 106.660156 108.710938 106.660156 111.378906 "/>
<path style=" stroke:none;fill-rule:nonzero;fill:rgb(100%,0%,0%);fill-opacity:1;" d="M 122.472656 103.472656 C 122.472656 106.136719 118.472656 106.136719 118.472656 103.472656 C 118.472656 100.804688 122.472656 100.804688 122.472656 103.472656 "/>
<path style="fill:none;stroke-width:1;stroke-linecap:butt;stroke-linejoin:miter;stroke:rgb(100%,0%,0%);stroke-opacity:1;stroke-miterlimit:10;" d="M 127.425781 91.613281 C 127.425781 95.613281 121.425781 95.613281 121.425781 91.613281 C 121.425781 87.613281 127.425781 87.613281 127.425781 91.613281 "/>
<path style="fill:none;stroke-width:1;stroke-linecap:butt;stroke-linejoin:miter;stroke:rgb(100%,0%,0%);stroke-opacity:1;stroke-miterlimit:10;" d="M 111.613281 99.519531 C 111.613281 103.519531 105.613281 103.519531 105.613281 99.519531 C 105.613281 95.519531 111.613281 95.519531 111.613281 99.519531 "/>
<path style=" stroke:none;fill-rule:nonzero;fill:rgb(100%,0%,0%);fill-opacity:1;" d="M 114.566406 87.660156 C 114.566406 90.328125 110.566406 90.328125 110.566406 87.660156 C 110.566406 84.992188 114.566406 84.992188 114.566406 87.660156 "/>
<path style=" stroke:none;fill-rule:nonzero;fill:rgb(100%,0%,0%);fill-opacity:1;" d="M 130.378906 79.753906 C 130.378906 82.421875 126.378906 82.421875 126.378906 79.753906 C 126.378906 77.085938 130.378906 77.085938 130.378906 79.753906 "/>
<path style="fill:none;stroke-width:1;stroke-linecap:butt;stroke-linejoin:miter;stroke:rgb(100%,0%,0%);stroke-opacity:1;stroke-miterlimit:10;" d="M 135.328125 67.894531 C 135.328125 71.894531 129.328125 71.894531 129.328125 67.894531 C 129.328125 63.894531 135.328125 63.894531 135.328125 67.894531 "/>
<path style="fill:none;stroke-width:1;stroke-linecap:butt;stroke-linejoin:miter;stroke:rgb(100%,0%,0%);stroke-opacity:1;stroke-miterlimit:10;" d="M 119.519531 75.800781 C 119.519531 79.800781 113.519531 79.800781 113.519531 75.800781 C 113.519531 71.800781 119.519531 71.800781 119.519531 75.800781 "/>
<path style=" stroke:none;fill-rule:nonzero;fill:rgb(100%,0%,0%);fill-opacity:1;" d="M 122.472656 143 C 122.472656 145.667969 118.472656 145.667969 118.472656 143 C 118.472656 140.332031 122.472656 140.332031 122.472656 143 "/>
<path style=" stroke:none;fill-rule:nonzero;fill:rgb(100%,0%,0%);fill-opacity:1;" d="M 138.28125 135.09375 C 138.28125 137.761719 134.28125 137.761719 134.28125 135.09375 C 134.28125 132.425781 138.28125 132.425781 138.28125 135.09375 "/>
<path style="fill:none;stroke-width:1;stroke-linecap:butt;stroke-linejoin:miter;stroke:rgb(100%,0%,0%);stroke-opacity:1;stroke-miterlimit:10;" d="M 143.234375 123.234375 C 143.234375 127.234375 137.234375 127.234375 137.234375 123.234375 C 137.234375 119.234375 143.234375 119.234375 143.234375 123.234375 "/>
<path style="fill:none;stroke-width:1;stroke-linecap:butt;stroke-linejoin:miter;stroke:rgb(100%,0%,0%);stroke-opacity:1;stroke-miterlimit:10;" d="M 127.425781 131.140625 C 127.425781 135.140625 121.425781 135.140625 121.425781 131.140625 C 121.425781 127.140625 127.425781 127.140625 127.425781 131.140625 "/>
<path style=" stroke:none;fill-rule:nonzero;fill:rgb(100%,0%,0%);fill-opacity:1;" d="M 98.753906 135.09375 C 98.753906 137.761719 94.753906 137.761719 94.753906 135.09375 C 94.753906 132.425781 98.753906 132.425781 98.753906 135.09375 "/>
<path style=" stroke:none;fill-rule:nonzero;fill:rgb(100%,0%,0%);fill-opacity:1;" d="M 90.847656 119.28125 C 90.847656 121.949219 86.847656 121.949219 86.847656 119.28125 C 86.847656 116.617188 90.847656 116.617188 90.847656 119.28125 "/>
<path style="fill:none;stroke-width:1;stroke-linecap:butt;stroke-linejoin:miter;stroke:rgb(100%,0%,0%);stroke-opacity:1;stroke-miterlimit:10;" d="M 95.800781 107.425781 C 95.800781 111.425781 89.800781 111.425781 89.800781 107.425781 C 89.800781 103.425781 95.800781 103.425781 95.800781 107.425781 "/>
<path style="fill:none;stroke-width:1;stroke-linecap:butt;stroke-linejoin:miter;stroke:rgb(100%,0%,0%);stroke-opacity:1;stroke-miterlimit:10;" d="M 79.988281 115.328125 C 79.988281 119.328125 73.988281 119.328125 73.988281 115.328125 C 73.988281 111.328125 79.988281 111.328125 79.988281 115.328125 "/>
<path style=" stroke:none;fill-rule:nonzero;fill:rgb(100%,0%,0%);fill-opacity:1;" d="M 82.941406 103.472656 C 82.941406 106.136719 78.941406 106.136719 78.941406 103.472656 C 78.941406 100.804688 82.941406 100.804688 82.941406 103.472656 "/>
<path style=" stroke:none;fill-rule:nonzero;fill:rgb(100%,0%,0%);fill-opacity:1;" d="M 98.753906 95.566406 C 98.753906 98.234375 94.753906 98.234375 94.753906 95.566406 C 94.753906 92.898438 98.753906 92.898438 98.753906 95.566406 "/>
<path style="fill:none;stroke-width:1;stroke-linecap:butt;stroke-linejoin:miter;stroke:rgb(100%,0%,0%);stroke-opacity:1;stroke-miterlimit:10;" d="M 103.707031 83.707031 C 103.707031 87.707031 97.707031 87.707031 97.707031 83.707031 C 97.707031 79.707031 103.707031 79.707031 103.707031 83.707031 "/>
<path style="fill:none;stroke-width:1;stroke-linecap:butt;stroke-linejoin:miter;stroke:rgb(100%,0%,0%);stroke-opacity:1;stroke-miterlimit:10;" d="M 87.894531 91.613281 C 87.894531 95.613281 81.894531 95.613281 81.894531 91.613281 C 81.894531 87.613281 87.894531 87.613281 87.894531 91.613281 "/>
<path style=" stroke:none;fill-rule:nonzero;fill:rgb(100%,0%,0%);fill-opacity:1;" d="M 90.847656 79.753906 C 90.847656 82.421875 86.847656 82.421875 86.847656 79.753906 C 86.847656 77.085938 90.847656 77.085938 90.847656 79.753906 "/>
<path style=" stroke:none;fill-rule:nonzero;fill:rgb(100%,0%,0%);fill-opacity:1;" d="M 106.660156 71.847656 C 106.660156 74.515625 102.660156 74.515625 102.660156 71.847656 C 102.660156 69.183594 106.660156 69.183594 106.660156 71.847656 "/>
<path style="fill:none;stroke-width:1;stroke-linecap:butt;stroke-linejoin:miter;stroke:rgb(100%,0%,0%);stroke-opacity:1;stroke-miterlimit:10;" d="M 111.613281 139.046875 C 111.613281 143.046875 105.613281 143.046875 105.613281 139.046875 C 105.613281 135.046875 111.613281 135.046875 111.613281 139.046875 "/>
<path style="fill:none;stroke-width:1;stroke-linecap:butt;stroke-linejoin:miter;stroke:rgb(100%,0%,0%);stroke-opacity:1;stroke-miterlimit:10;" d="M 95.800781 67.894531 C 95.800781 71.894531 89.800781 71.894531 89.800781 67.894531 C 89.800781 63.894531 95.800781 63.894531 95.800781 67.894531 "/>
<path style=" stroke:none;fill-rule:nonzero;fill:rgb(100%,0%,0%);fill-opacity:1;" d="M 98.753906 135.09375 C 98.753906 137.761719 94.753906 137.761719 94.753906 135.09375 C 94.753906 132.425781 98.753906 132.425781 98.753906 135.09375 "/>
<path style=" stroke:none;fill-rule:nonzero;fill:rgb(100%,0%,0%);fill-opacity:1;" d="M 114.566406 127.1875 C 114.566406 129.855469 110.566406 129.855469 110.566406 127.1875 C 110.566406 124.523438 114.566406 124.523438 114.566406 127.1875 "/>
<path style="fill:none;stroke-width:1;stroke-linecap:butt;stroke-linejoin:miter;stroke:rgb(100%,0%,0%);stroke-opacity:1;stroke-miterlimit:10;" d="M 87.894531 131.140625 C 87.894531 135.140625 81.894531 135.140625 81.894531 131.140625 C 81.894531 127.140625 87.894531 127.140625 87.894531 131.140625 "/>
<path style="fill:none;stroke-width:1;stroke-linecap:butt;stroke-linejoin:miter;stroke:rgb(100%,0%,0%);stroke-opacity:1;stroke-miterlimit:10;" d="M 103.707031 123.234375 C 103.707031 127.234375 97.707031 127.234375 97.707031 123.234375 C 97.707031 119.234375 103.707031 119.234375 103.707031 123.234375 "/>
<path style="fill:none;stroke-width:1;stroke-linecap:butt;stroke-linejoin:miter;stroke:rgb(100%,100%,100%);stroke-opacity:1;stroke-miterlimit:10;" d="M 160 143 L 260 143 "/>
<path style="fill:none;stroke-width:1;stroke-linecap:butt;stroke-linejoin:miter;stroke:rgb(100%,100%,100%);stroke-opacity:1;stroke-miterlimit:10;" d="M 260 143 L 260 43 "/>
<path style="fill:none;stroke-width:1;stroke-linecap:butt;stroke-linejoin:miter;stroke:rgb(100%,100%,100%);stroke-opacity:1;stroke-miterlimit:10;" d="M 260 43 L 160 43 "/>
<path style="fill:none;stroke-width:1;stroke-linecap:butt;stroke-linejoin:miter;stroke:rgb(100%,100%,100%);stroke-opacity:1;stroke-miterlimit:10;" d="M 160 43 L 160 143 "/>
<path style="fill:none;stroke-width:1;stroke-linecap:butt;stroke-linejoin:miter;stroke:rgb(70%,70%,70%);stroke-opacity:1;stroke-miterlimit:10;" d="M 160 143 L 254.867188 111.378906 "/>
<path style="fill:none;stroke-width:1;stroke-linecap:butt;stroke-linejoin:miter;stroke:rgb(70%,70%,70%);stroke-opacity:1;stroke-miterlimit:10;" d="M 254.867188 111.378906 L 223.246094 16.507812 "/>
<path style="fill:none;stroke-width:1;stroke-linecap:butt;stroke-linejoin:miter;stroke:rgb(70%,70%,70%);stroke-opacity:1;stroke-miterlimit:10;" d="M 223.246094 16.507812 L 128.378906 48.132812 "/>
<path style="fill:none;stroke-width:1;stroke-linecap:butt;stroke-linejoin:miter;stroke:rgb(70%,70%,70%);stroke-opacity:1;stroke-miterlimit:10;" d="M 128.378906 48.132812 L 160 143 "/>
<path style="fill:none;stroke-width:1;stroke-linecap:butt;stroke-linejoin:miter;stroke:rgb(20%,20%,70%);stroke-opacity:1;stroke-miterlimit:10;" d="M 160 143 L 243.011719 143 "/>
<path style="fill:none;stroke-width:1;stroke-linecap:butt;stroke-linejoin:miter;stroke:rgb(20%,20%,70%);stroke-opacity:1;stroke-miterlimit:10;" d="M 243.011719 143 L 243.011719 63.941406 "/>
<path style="fill:none;stroke-width:1;stroke-linecap:butt;stroke-linejoin:miter;stroke:rgb(20%,20%,70%);stroke-opacity:1;stroke-miterlimit:10;" d="M 243.011719 63.941406 L 76.988281 63.941406 "/>
<path style="fill:none;stroke-width:1;stroke-linecap:butt;stroke-linejoin:miter;stroke:rgb(20%,20%,70%);stroke-opacity:1;stroke-miterlimit:10;" d="M 76.988281 63.941406 L 76.988281 143 "/>
<path style="fill:none;stroke-width:1;stroke-linecap:butt;stroke-linejoin:miter;stroke:rgb(20%,20%,70%);stroke-opacity:1;stroke-miterlimit:10;" d="M 76.988281 143 L 160 143 "/>
</g>
</svg>
